G04 start of page 12 for group -3984 idx -3984 *
G04 Title: AYAB-RS_F, fab *
G04 Creator: pcb 4.0.2 *
G04 CreationDate: Wed Aug 18 08:19:12 2021 UTC *
G04 For: tom *
G04 Format: Gerber/RS-274X *
G04 PCB-Dimensions (mil): 11000.00 1900.00 *
G04 PCB-Coordinate-Origin: lower left *
%MOIN*%
%FSLAX25Y25*%
%LNFAB*%
%ADD155C,0.0100*%
%ADD154C,0.0060*%
%ADD153C,0.0080*%
G54D153*X1060900Y124100D02*X1064100D01*
X1060900D02*Y120900D01*
X1064100D01*
Y124100D02*Y120900D01*
X1059300Y125700D02*X1065700D01*
X1059300D02*Y119300D01*
X1065700D01*
Y125700D02*Y119300D01*
X1060900Y50100D02*X1064100D01*
X1060900D02*Y46900D01*
X1064100D01*
Y50100D02*Y46900D01*
X1059300Y51700D02*X1065700D01*
X1059300D02*Y45300D01*
X1065700D01*
Y51700D02*Y45300D01*
X548400Y124100D02*X551600D01*
X548400D02*Y120900D01*
X551600D01*
Y124100D02*Y120900D01*
X546800Y125700D02*X553200D01*
X546800D02*Y119300D01*
X553200D01*
Y125700D02*Y119300D01*
X548400Y50100D02*X551600D01*
X548400D02*Y46900D01*
X551600D01*
Y50100D02*Y46900D01*
X546800Y51700D02*X553200D01*
X546800D02*Y45300D01*
X553200D01*
Y51700D02*Y45300D01*
X35900Y124100D02*X39100D01*
X35900D02*Y120900D01*
X39100D01*
Y124100D02*Y120900D01*
X34300Y125700D02*X40700D01*
X34300D02*Y119300D01*
X40700D01*
Y125700D02*Y119300D01*
X35900Y50100D02*X39100D01*
X35900D02*Y46900D01*
X39100D01*
Y50100D02*Y46900D01*
X34300Y51700D02*X40700D01*
X34300D02*Y45300D01*
X40700D01*
Y51700D02*Y45300D01*
X13400Y202850D02*X16600D01*
X13400D02*Y199650D01*
X16600D01*
Y202850D02*Y199650D01*
X11800Y204450D02*X18200D01*
X11800D02*Y198050D01*
X18200D01*
Y204450D02*Y198050D01*
G54D154*X140000Y203500D02*Y197500D01*
Y203500D02*X143999Y197500D01*
Y203500D02*Y197500D01*
X147512Y203500D02*X146942Y203214D01*
X146369Y202642D01*
X146084Y202072D01*
X145799Y201214D01*
Y199786D01*
X146084Y198926D01*
Y198928D02*X146369Y198356D01*
X146942Y197786D01*
X147512Y197500D01*
X148657D01*
X149227Y197786D01*
X149798Y198356D01*
X150085Y198928D01*
X150368Y199786D01*
Y201214D02*Y199786D01*
Y201214D02*X150085Y202072D01*
X149798Y202642D01*
X149227Y203214D01*
X148657Y203500D01*
X147512D02*X148657D01*
X101428Y202644D02*X101142Y203215D01*
X100284Y203500D01*
X99714D02*X100284D01*
X99714D02*X98855Y203215D01*
X98285Y202358D01*
X98000Y200930D01*
Y199501D01*
X98285Y198358D01*
X98855Y197786D01*
X99714Y197500D01*
X100000D01*
X100856Y197786D01*
X101428Y198358D01*
X101712Y199216D01*
Y199501D02*Y199216D01*
Y199501D02*X101428Y200358D01*
X100856Y200930D01*
X100000Y201214D01*
X99714D02*X100000D01*
X99714D02*X98855Y200930D01*
X98285Y200358D01*
X98000Y199501D01*
X46714Y203500D02*X45858Y203215D01*
X45285Y202358D01*
X45000Y200930D01*
Y200072D01*
X45285Y198643D01*
X45858Y197786D01*
X46714Y197500D01*
X47286D01*
X48142Y197786D01*
X48714Y198643D01*
X49000Y200072D01*
Y200930D02*Y200072D01*
Y200930D02*X48714Y202358D01*
X48142Y203215D01*
X47286Y203500D01*
X46714D02*X47286D01*
X51086Y197950D02*X50801Y197664D01*
X51086Y197380D01*
X51371Y197664D01*
X51086Y197950D01*
X53171Y202358D02*X53741Y202644D01*
X54599Y203500D01*
Y197500D01*
X59255Y203500D02*X56399Y199501D01*
X60683D01*
X59255Y203500D02*Y197500D01*
X63911Y203500D02*X63053Y203215D01*
X62768Y202644D01*
Y202072D01*
X63053Y201500D01*
X63624Y201214D01*
X64767Y200930D01*
X65625Y200644D01*
X66195Y200072D01*
X66482Y199501D01*
Y198643D01*
X66195Y198073D01*
X65909Y197786D01*
X65052Y197500D01*
X63911D02*X65052D01*
X63911D02*X63053Y197786D01*
X62768Y198073D01*
X62483Y198643D01*
Y199501D02*Y198643D01*
Y199501D02*X62768Y200072D01*
X63338Y200644D01*
X64196Y200930D01*
X65339Y201214D01*
X65909Y201500D01*
X66195Y202072D01*
Y202644D02*Y202072D01*
Y202644D02*X65909Y203215D01*
X65052Y203500D01*
X63911D02*X65052D01*
X644700Y73000D02*G75*G03X646300Y73000I800J0D01*G01*
G75*G03X644700Y73000I-800J0D01*G01*
X643100D02*G75*G03X647900Y73000I2400J0D01*G01*
G75*G03X643100Y73000I-2400J0D01*G01*
X14200Y216250D02*G75*G03X15800Y216250I800J0D01*G01*
G75*G03X14200Y216250I-800J0D01*G01*
X12600D02*G75*G03X17400Y216250I2400J0D01*G01*
G75*G03X12600Y216250I-2400J0D01*G01*
X135000Y218500D02*X137284Y215643D01*
Y212500D01*
X139572Y218500D02*X137284Y215643D01*
X141372Y218500D02*Y212500D01*
Y218500D02*X145086D01*
X141372Y215643D02*X143657D01*
X141372Y212500D02*X145086D01*
X150885Y217642D02*X150314Y218214D01*
X149457Y218500D01*
X148314D02*X149457D01*
X148314D02*X147456Y218214D01*
X146886Y217642D01*
Y217072D01*
X147170Y216499D01*
X147456Y216214D01*
X148029Y215929D01*
X149744Y215357D01*
X150314Y215071D01*
X150599Y214786D01*
X150885Y214214D01*
Y213356D01*
X150314Y212786D01*
X149457Y212500D01*
X148314D02*X149457D01*
X148314D02*X147456Y212786D01*
X146886Y213356D01*
X98000Y217358D02*X98570Y217644D01*
X99428Y218500D01*
Y212500D01*
X46714Y218500D02*X45858Y218215D01*
X45285Y217358D01*
X45000Y215930D01*
Y215072D01*
X45285Y213643D01*
X45858Y212786D01*
X46714Y212500D01*
X47286D01*
X48142Y212786D01*
X48714Y213643D01*
X49000Y215072D01*
Y215930D02*Y215072D01*
Y215930D02*X48714Y217358D01*
X48142Y218215D01*
X47286Y218500D01*
X46714D02*X47286D01*
X51086Y212950D02*X50801Y212664D01*
X51086Y212380D01*
X51371Y212664D01*
X51086Y212950D01*
X53171Y217358D02*X53741Y217644D01*
X54599Y218500D01*
Y212500D01*
X56684Y217358D02*Y217072D01*
Y217358D02*X56970Y217928D01*
X57254Y218215D01*
X57827Y218500D01*
X58968D01*
X59541Y218215D01*
X59826Y217928D01*
X60111Y217358D01*
Y216786D01*
X59826Y216214D01*
X59255Y215357D01*
X56399Y212500D01*
X60398D01*
X62769Y218500D02*X65627D01*
X62769D02*X62483Y215930D01*
X62769Y216214D01*
X63626Y216500D01*
X64484D01*
X65340Y216214D01*
X65912Y215644D01*
X66198Y214786D01*
Y214216D01*
X65912Y213358D01*
X65340Y212786D01*
X64484Y212500D01*
X63626D02*X64484D01*
X63626D02*X62769Y212786D01*
X62483Y213073D01*
X62198Y213643D01*
X643100Y50400D02*X647900Y45600D01*
X643100D02*X647900Y50400D01*
X643900Y49600D02*X647100D01*
X643900D02*Y46400D01*
X647100D01*
Y49600D02*Y46400D01*
X625100Y62900D02*X629900Y58100D01*
X625100D02*X629900Y62900D01*
X625900Y62100D02*X629100D01*
X625900D02*Y58900D01*
X629100D01*
Y62100D02*Y58900D01*
X697100Y77400D02*X701900Y72600D01*
X697100D02*X701900Y77400D01*
X697900Y76600D02*X701100D01*
X697900D02*Y73400D01*
X701100D01*
Y76600D02*Y73400D01*
X12600Y233650D02*X17400Y228850D01*
X12600D02*X17400Y233650D01*
X13400Y232850D02*X16600D01*
X13400D02*Y229650D01*
X16600D01*
Y232850D02*Y229650D01*
X135000Y233500D02*X137284Y230643D01*
Y227500D01*
X139572Y233500D02*X137284Y230643D01*
X141372Y233500D02*Y227500D01*
Y233500D02*X145086D01*
X141372Y230643D02*X143657D01*
X141372Y227500D02*X145086D01*
X150885Y232642D02*X150314Y233214D01*
X149457Y233500D01*
X148314D02*X149457D01*
X148314D02*X147456Y233214D01*
X146886Y232642D01*
Y232072D01*
X147170Y231499D01*
X147456Y231214D01*
X148029Y230929D01*
X149744Y230357D01*
X150314Y230071D01*
X150599Y229786D01*
X150885Y229214D01*
Y228356D01*
X150314Y227786D01*
X149457Y227500D01*
X148314D02*X149457D01*
X148314D02*X147456Y227786D01*
X146886Y228356D01*
X98570Y233500D02*X101712D01*
X99998Y231214D01*
X100856D01*
X101426Y230930D01*
X101712Y230644D01*
X101999Y229786D01*
Y229216D01*
X101712Y228358D01*
X101142Y227786D01*
X100284Y227500D01*
X99428D02*X100284D01*
X99428D02*X98570Y227786D01*
X98285Y228073D01*
X98000Y228643D01*
X46714Y233500D02*X45858Y233215D01*
X45285Y232358D01*
X45000Y230930D01*
Y230072D01*
X45285Y228643D01*
X45858Y227786D01*
X46714Y227500D01*
X47286D01*
X48142Y227786D01*
X48714Y228643D01*
X49000Y230072D01*
Y230930D02*Y230072D01*
Y230930D02*X48714Y232358D01*
X48142Y233215D01*
X47286Y233500D01*
X46714D02*X47286D01*
X51086Y227950D02*X50801Y227664D01*
X51086Y227380D01*
X51371Y227664D01*
X51086Y227950D01*
X53171Y232358D02*X53741Y232644D01*
X54599Y233500D01*
Y227500D01*
X56399Y232358D02*X56969Y232644D01*
X57827Y233500D01*
Y227500D01*
X61341Y233500D02*X60485Y233215D01*
X59912Y232358D01*
X59627Y230930D01*
Y230072D01*
X59912Y228643D01*
X60485Y227786D01*
X61341Y227500D01*
X61913D01*
X62769Y227786D01*
X63341Y228643D01*
X63627Y230072D01*
Y230930D02*Y230072D01*
Y230930D02*X63341Y232358D01*
X62769Y233215D01*
X61913Y233500D01*
X61341D02*X61913D01*
X283000Y22700D02*Y16300D01*
X279800Y19500D02*X286200D01*
X281400Y21100D02*X284600D01*
X281400D02*Y17900D01*
X284600D01*
Y21100D02*Y17900D01*
X423000Y22700D02*Y16300D01*
X419800Y19500D02*X426200D01*
X421400Y21100D02*X424600D01*
X421400D02*Y17900D01*
X424600D01*
Y21100D02*Y17900D01*
X15000Y249450D02*Y243050D01*
X11800Y246250D02*X18200D01*
X13400Y247850D02*X16600D01*
X13400D02*Y244650D01*
X16600D01*
Y247850D02*Y244650D01*
X140000Y248500D02*Y242500D01*
Y248500D02*X143999Y242500D01*
Y248500D02*Y242500D01*
X147512Y248500D02*X146942Y248214D01*
X146369Y247642D01*
X146084Y247072D01*
X145799Y246214D01*
Y244786D01*
X146084Y243926D01*
Y243928D02*X146369Y243356D01*
X146942Y242786D01*
X147512Y242500D01*
X148657D01*
X149227Y242786D01*
X149798Y243356D01*
X150085Y243928D01*
X150368Y244786D01*
Y246214D02*Y244786D01*
Y246214D02*X150085Y247072D01*
X149798Y247642D01*
X149227Y248214D01*
X148657Y248500D01*
X147512D02*X148657D01*
X98285Y247358D02*Y247072D01*
Y247358D02*X98572Y247928D01*
X98855Y248215D01*
X99428Y248500D01*
X100570D01*
X101142Y248215D01*
X101428Y247928D01*
X101712Y247358D01*
Y246786D01*
X101428Y246214D01*
X100856Y245357D01*
X98000Y242500D01*
X101999D01*
X46714Y248500D02*X45858Y248215D01*
X45285Y247358D01*
X45000Y245930D01*
Y245072D01*
X45285Y243643D01*
X45858Y242786D01*
X46714Y242500D01*
X47286D01*
X48142Y242786D01*
X48714Y243643D01*
X49000Y245072D01*
Y245930D02*Y245072D01*
Y245930D02*X48714Y247358D01*
X48142Y248215D01*
X47286Y248500D01*
X46714D02*X47286D01*
X51086Y242950D02*X50801Y242664D01*
X51086Y242380D01*
X51371Y242664D01*
X51086Y242950D01*
X54885Y248500D02*X54029Y248215D01*
X53456Y247358D01*
X53171Y245930D01*
Y245072D01*
X53456Y243643D01*
X54029Y242786D01*
X54885Y242500D01*
X55457D01*
X56313Y242786D01*
X56885Y243643D01*
X57171Y245072D01*
Y245930D02*Y245072D01*
Y245930D02*X56885Y247358D01*
X56313Y248215D01*
X55457Y248500D01*
X54885D02*X55457D01*
X62684Y246500D02*X62399Y245644D01*
X61827Y245072D01*
X60969Y244786D01*
X60684D02*X60969D01*
X60684D02*X59828Y245072D01*
X59255Y245644D01*
X58971Y246500D01*
Y246786D02*Y246500D01*
Y246786D02*X59255Y247644D01*
X59828Y248215D01*
X60684Y248500D01*
X60969D01*
X61827Y248215D01*
X62399Y247644D01*
X62684Y246500D01*
Y245072D01*
X62399Y243643D01*
X61827Y242786D01*
X60969Y242500D01*
X60399D02*X60969D01*
X60399D02*X59541Y242786D01*
X59255Y243358D01*
X64484Y247358D02*X65054Y247644D01*
X65912Y248500D01*
Y242500D01*
X85000Y28000D02*Y24800D01*
Y28000D02*X87773Y29600D01*
X85000Y28000D02*X82227Y29600D01*
X83400Y28000D02*G75*G03X86600Y28000I1600J0D01*G01*
G75*G03X83400Y28000I-1600J0D01*G01*
X85000Y38000D02*Y34800D01*
Y38000D02*X87773Y39600D01*
X85000Y38000D02*X82227Y39600D01*
X83400Y38000D02*G75*G03X86600Y38000I1600J0D01*G01*
G75*G03X83400Y38000I-1600J0D01*G01*
X85000Y48000D02*Y44800D01*
Y48000D02*X87773Y49600D01*
X85000Y48000D02*X82227Y49600D01*
X83400Y48000D02*G75*G03X86600Y48000I1600J0D01*G01*
G75*G03X83400Y48000I-1600J0D01*G01*
X85000Y58000D02*Y54800D01*
Y58000D02*X87773Y59600D01*
X85000Y58000D02*X82227Y59600D01*
X83400Y58000D02*G75*G03X86600Y58000I1600J0D01*G01*
G75*G03X83400Y58000I-1600J0D01*G01*
X85000Y68000D02*Y64800D01*
Y68000D02*X87773Y69600D01*
X85000Y68000D02*X82227Y69600D01*
X83400Y68000D02*G75*G03X86600Y68000I1600J0D01*G01*
G75*G03X83400Y68000I-1600J0D01*G01*
X85000Y78000D02*Y74800D01*
Y78000D02*X87773Y79600D01*
X85000Y78000D02*X82227Y79600D01*
X83400Y78000D02*G75*G03X86600Y78000I1600J0D01*G01*
G75*G03X83400Y78000I-1600J0D01*G01*
X85000Y88000D02*Y84800D01*
Y88000D02*X87773Y89600D01*
X85000Y88000D02*X82227Y89600D01*
X83400Y88000D02*G75*G03X86600Y88000I1600J0D01*G01*
G75*G03X83400Y88000I-1600J0D01*G01*
X85000Y98000D02*Y94800D01*
Y98000D02*X87773Y99600D01*
X85000Y98000D02*X82227Y99600D01*
X83400Y98000D02*G75*G03X86600Y98000I1600J0D01*G01*
G75*G03X83400Y98000I-1600J0D01*G01*
X85000Y108000D02*Y104800D01*
Y108000D02*X87773Y109600D01*
X85000Y108000D02*X82227Y109600D01*
X83400Y108000D02*G75*G03X86600Y108000I1600J0D01*G01*
G75*G03X83400Y108000I-1600J0D01*G01*
X85000Y118000D02*Y114800D01*
Y118000D02*X87773Y119600D01*
X85000Y118000D02*X82227Y119600D01*
X83400Y118000D02*G75*G03X86600Y118000I1600J0D01*G01*
G75*G03X83400Y118000I-1600J0D01*G01*
X85000Y128000D02*Y124800D01*
Y128000D02*X87773Y129600D01*
X85000Y128000D02*X82227Y129600D01*
X83400Y128000D02*G75*G03X86600Y128000I1600J0D01*G01*
G75*G03X83400Y128000I-1600J0D01*G01*
X85000Y138000D02*Y134800D01*
Y138000D02*X87773Y139600D01*
X85000Y138000D02*X82227Y139600D01*
X83400Y138000D02*G75*G03X86600Y138000I1600J0D01*G01*
G75*G03X83400Y138000I-1600J0D01*G01*
X85000Y148000D02*Y144800D01*
Y148000D02*X87773Y149600D01*
X85000Y148000D02*X82227Y149600D01*
X83400Y148000D02*G75*G03X86600Y148000I1600J0D01*G01*
G75*G03X83400Y148000I-1600J0D01*G01*
X85000Y158000D02*Y154800D01*
Y158000D02*X87773Y159600D01*
X85000Y158000D02*X82227Y159600D01*
X83400Y158000D02*G75*G03X86600Y158000I1600J0D01*G01*
G75*G03X83400Y158000I-1600J0D01*G01*
X165000D02*Y154800D01*
Y158000D02*X167773Y159600D01*
X165000Y158000D02*X162227Y159600D01*
X163400Y158000D02*G75*G03X166600Y158000I1600J0D01*G01*
G75*G03X163400Y158000I-1600J0D01*G01*
X165000Y148000D02*Y144800D01*
Y148000D02*X167773Y149600D01*
X165000Y148000D02*X162227Y149600D01*
X163400Y148000D02*G75*G03X166600Y148000I1600J0D01*G01*
G75*G03X163400Y148000I-1600J0D01*G01*
X165000Y138000D02*Y134800D01*
Y138000D02*X167773Y139600D01*
X165000Y138000D02*X162227Y139600D01*
X163400Y138000D02*G75*G03X166600Y138000I1600J0D01*G01*
G75*G03X163400Y138000I-1600J0D01*G01*
X165000Y128000D02*Y124800D01*
Y128000D02*X167773Y129600D01*
X165000Y128000D02*X162227Y129600D01*
X163400Y128000D02*G75*G03X166600Y128000I1600J0D01*G01*
G75*G03X163400Y128000I-1600J0D01*G01*
X165000Y118000D02*Y114800D01*
Y118000D02*X167773Y119600D01*
X165000Y118000D02*X162227Y119600D01*
X163400Y118000D02*G75*G03X166600Y118000I1600J0D01*G01*
G75*G03X163400Y118000I-1600J0D01*G01*
X165000Y108000D02*Y104800D01*
Y108000D02*X167773Y109600D01*
X165000Y108000D02*X162227Y109600D01*
X163400Y108000D02*G75*G03X166600Y108000I1600J0D01*G01*
G75*G03X163400Y108000I-1600J0D01*G01*
X165000Y98000D02*Y94800D01*
Y98000D02*X167773Y99600D01*
X165000Y98000D02*X162227Y99600D01*
X163400Y98000D02*G75*G03X166600Y98000I1600J0D01*G01*
G75*G03X163400Y98000I-1600J0D01*G01*
X165000Y88000D02*Y84800D01*
Y88000D02*X167773Y89600D01*
X165000Y88000D02*X162227Y89600D01*
X163400Y88000D02*G75*G03X166600Y88000I1600J0D01*G01*
G75*G03X163400Y88000I-1600J0D01*G01*
X165000Y78000D02*Y74800D01*
Y78000D02*X167773Y79600D01*
X165000Y78000D02*X162227Y79600D01*
X163400Y78000D02*G75*G03X166600Y78000I1600J0D01*G01*
G75*G03X163400Y78000I-1600J0D01*G01*
X165000Y68000D02*Y64800D01*
Y68000D02*X167773Y69600D01*
X165000Y68000D02*X162227Y69600D01*
X163400Y68000D02*G75*G03X166600Y68000I1600J0D01*G01*
G75*G03X163400Y68000I-1600J0D01*G01*
X165000Y58000D02*Y54800D01*
Y58000D02*X167773Y59600D01*
X165000Y58000D02*X162227Y59600D01*
X163400Y58000D02*G75*G03X166600Y58000I1600J0D01*G01*
G75*G03X163400Y58000I-1600J0D01*G01*
X165000Y48000D02*Y44800D01*
Y48000D02*X167773Y49600D01*
X165000Y48000D02*X162227Y49600D01*
X163400Y48000D02*G75*G03X166600Y48000I1600J0D01*G01*
G75*G03X163400Y48000I-1600J0D01*G01*
X165000Y38000D02*Y34800D01*
Y38000D02*X167773Y39600D01*
X165000Y38000D02*X162227Y39600D01*
X163400Y38000D02*G75*G03X166600Y38000I1600J0D01*G01*
G75*G03X163400Y38000I-1600J0D01*G01*
X165000Y28000D02*Y24800D01*
Y28000D02*X167773Y29600D01*
X165000Y28000D02*X162227Y29600D01*
X163400Y28000D02*G75*G03X166600Y28000I1600J0D01*G01*
G75*G03X163400Y28000I-1600J0D01*G01*
X95000D02*Y24800D01*
Y28000D02*X97773Y29600D01*
X95000Y28000D02*X92227Y29600D01*
X93400Y28000D02*G75*G03X96600Y28000I1600J0D01*G01*
G75*G03X93400Y28000I-1600J0D01*G01*
X95000Y38000D02*Y34800D01*
Y38000D02*X97773Y39600D01*
X95000Y38000D02*X92227Y39600D01*
X93400Y38000D02*G75*G03X96600Y38000I1600J0D01*G01*
G75*G03X93400Y38000I-1600J0D01*G01*
X95000Y48000D02*Y44800D01*
Y48000D02*X97773Y49600D01*
X95000Y48000D02*X92227Y49600D01*
X93400Y48000D02*G75*G03X96600Y48000I1600J0D01*G01*
G75*G03X93400Y48000I-1600J0D01*G01*
X95000Y58000D02*Y54800D01*
Y58000D02*X97773Y59600D01*
X95000Y58000D02*X92227Y59600D01*
X93400Y58000D02*G75*G03X96600Y58000I1600J0D01*G01*
G75*G03X93400Y58000I-1600J0D01*G01*
X95000Y68000D02*Y64800D01*
Y68000D02*X97773Y69600D01*
X95000Y68000D02*X92227Y69600D01*
X93400Y68000D02*G75*G03X96600Y68000I1600J0D01*G01*
G75*G03X93400Y68000I-1600J0D01*G01*
X95000Y78000D02*Y74800D01*
Y78000D02*X97773Y79600D01*
X95000Y78000D02*X92227Y79600D01*
X93400Y78000D02*G75*G03X96600Y78000I1600J0D01*G01*
G75*G03X93400Y78000I-1600J0D01*G01*
X95000Y88000D02*Y84800D01*
Y88000D02*X97773Y89600D01*
X95000Y88000D02*X92227Y89600D01*
X93400Y88000D02*G75*G03X96600Y88000I1600J0D01*G01*
G75*G03X93400Y88000I-1600J0D01*G01*
X95000Y98000D02*Y94800D01*
Y98000D02*X97773Y99600D01*
X95000Y98000D02*X92227Y99600D01*
X93400Y98000D02*G75*G03X96600Y98000I1600J0D01*G01*
G75*G03X93400Y98000I-1600J0D01*G01*
X95000Y108000D02*Y104800D01*
Y108000D02*X97773Y109600D01*
X95000Y108000D02*X92227Y109600D01*
X93400Y108000D02*G75*G03X96600Y108000I1600J0D01*G01*
G75*G03X93400Y108000I-1600J0D01*G01*
X95000Y118000D02*Y114800D01*
Y118000D02*X97773Y119600D01*
X95000Y118000D02*X92227Y119600D01*
X93400Y118000D02*G75*G03X96600Y118000I1600J0D01*G01*
G75*G03X93400Y118000I-1600J0D01*G01*
X95000Y128000D02*Y124800D01*
Y128000D02*X97773Y129600D01*
X95000Y128000D02*X92227Y129600D01*
X93400Y128000D02*G75*G03X96600Y128000I1600J0D01*G01*
G75*G03X93400Y128000I-1600J0D01*G01*
X95000Y138000D02*Y134800D01*
Y138000D02*X97773Y139600D01*
X95000Y138000D02*X92227Y139600D01*
X93400Y138000D02*G75*G03X96600Y138000I1600J0D01*G01*
G75*G03X93400Y138000I-1600J0D01*G01*
X95000Y148000D02*Y144800D01*
Y148000D02*X97773Y149600D01*
X95000Y148000D02*X92227Y149600D01*
X93400Y148000D02*G75*G03X96600Y148000I1600J0D01*G01*
G75*G03X93400Y148000I-1600J0D01*G01*
X95000Y158000D02*Y154800D01*
Y158000D02*X97773Y159600D01*
X95000Y158000D02*X92227Y159600D01*
X93400Y158000D02*G75*G03X96600Y158000I1600J0D01*G01*
G75*G03X93400Y158000I-1600J0D01*G01*
X155000D02*Y154800D01*
Y158000D02*X157773Y159600D01*
X155000Y158000D02*X152227Y159600D01*
X153400Y158000D02*G75*G03X156600Y158000I1600J0D01*G01*
G75*G03X153400Y158000I-1600J0D01*G01*
X155000Y148000D02*Y144800D01*
Y148000D02*X157773Y149600D01*
X155000Y148000D02*X152227Y149600D01*
X153400Y148000D02*G75*G03X156600Y148000I1600J0D01*G01*
G75*G03X153400Y148000I-1600J0D01*G01*
X155000Y138000D02*Y134800D01*
Y138000D02*X157773Y139600D01*
X155000Y138000D02*X152227Y139600D01*
X153400Y138000D02*G75*G03X156600Y138000I1600J0D01*G01*
G75*G03X153400Y138000I-1600J0D01*G01*
X155000Y128000D02*Y124800D01*
Y128000D02*X157773Y129600D01*
X155000Y128000D02*X152227Y129600D01*
X153400Y128000D02*G75*G03X156600Y128000I1600J0D01*G01*
G75*G03X153400Y128000I-1600J0D01*G01*
X155000Y118000D02*Y114800D01*
Y118000D02*X157773Y119600D01*
X155000Y118000D02*X152227Y119600D01*
X153400Y118000D02*G75*G03X156600Y118000I1600J0D01*G01*
G75*G03X153400Y118000I-1600J0D01*G01*
X155000Y108000D02*Y104800D01*
Y108000D02*X157773Y109600D01*
X155000Y108000D02*X152227Y109600D01*
X153400Y108000D02*G75*G03X156600Y108000I1600J0D01*G01*
G75*G03X153400Y108000I-1600J0D01*G01*
X155000Y98000D02*Y94800D01*
Y98000D02*X157773Y99600D01*
X155000Y98000D02*X152227Y99600D01*
X153400Y98000D02*G75*G03X156600Y98000I1600J0D01*G01*
G75*G03X153400Y98000I-1600J0D01*G01*
X155000Y88000D02*Y84800D01*
Y88000D02*X157773Y89600D01*
X155000Y88000D02*X152227Y89600D01*
X153400Y88000D02*G75*G03X156600Y88000I1600J0D01*G01*
G75*G03X153400Y88000I-1600J0D01*G01*
X155000Y78000D02*Y74800D01*
Y78000D02*X157773Y79600D01*
X155000Y78000D02*X152227Y79600D01*
X153400Y78000D02*G75*G03X156600Y78000I1600J0D01*G01*
G75*G03X153400Y78000I-1600J0D01*G01*
X155000Y68000D02*Y64800D01*
Y68000D02*X157773Y69600D01*
X155000Y68000D02*X152227Y69600D01*
X153400Y68000D02*G75*G03X156600Y68000I1600J0D01*G01*
G75*G03X153400Y68000I-1600J0D01*G01*
X155000Y58000D02*Y54800D01*
Y58000D02*X157773Y59600D01*
X155000Y58000D02*X152227Y59600D01*
X153400Y58000D02*G75*G03X156600Y58000I1600J0D01*G01*
G75*G03X153400Y58000I-1600J0D01*G01*
X155000Y48000D02*Y44800D01*
Y48000D02*X157773Y49600D01*
X155000Y48000D02*X152227Y49600D01*
X153400Y48000D02*G75*G03X156600Y48000I1600J0D01*G01*
G75*G03X153400Y48000I-1600J0D01*G01*
X155000Y38000D02*Y34800D01*
Y38000D02*X157773Y39600D01*
X155000Y38000D02*X152227Y39600D01*
X153400Y38000D02*G75*G03X156600Y38000I1600J0D01*G01*
G75*G03X153400Y38000I-1600J0D01*G01*
X155000Y28000D02*Y24800D01*
Y28000D02*X157773Y29600D01*
X155000Y28000D02*X152227Y29600D01*
X153400Y28000D02*G75*G03X156600Y28000I1600J0D01*G01*
G75*G03X153400Y28000I-1600J0D01*G01*
X199000Y18000D02*Y14800D01*
Y18000D02*X201773Y19600D01*
X199000Y18000D02*X196227Y19600D01*
X197400Y18000D02*G75*G03X200600Y18000I1600J0D01*G01*
G75*G03X197400Y18000I-1600J0D01*G01*
X181500D02*Y14800D01*
Y18000D02*X184273Y19600D01*
X181500Y18000D02*X178727Y19600D01*
X179900Y18000D02*G75*G03X183100Y18000I1600J0D01*G01*
G75*G03X179900Y18000I-1600J0D01*G01*
X615000Y34000D02*Y30800D01*
Y34000D02*X617773Y35600D01*
X615000Y34000D02*X612227Y35600D01*
X613400Y34000D02*G75*G03X616600Y34000I1600J0D01*G01*
G75*G03X613400Y34000I-1600J0D01*G01*
X595000D02*Y30800D01*
Y34000D02*X597773Y35600D01*
X595000Y34000D02*X592227Y35600D01*
X593400Y34000D02*G75*G03X596600Y34000I1600J0D01*G01*
G75*G03X593400Y34000I-1600J0D01*G01*
X15000Y261250D02*Y258050D01*
Y261250D02*X17773Y262850D01*
X15000Y261250D02*X12227Y262850D01*
X13400Y261250D02*G75*G03X16600Y261250I1600J0D01*G01*
G75*G03X13400Y261250I-1600J0D01*G01*
X135000Y263500D02*X137284Y260643D01*
Y257500D01*
X139572Y263500D02*X137284Y260643D01*
X141372Y263500D02*Y257500D01*
Y263500D02*X145086D01*
X141372Y260643D02*X143657D01*
X141372Y257500D02*X145086D01*
X150885Y262642D02*X150314Y263214D01*
X149457Y263500D01*
X148314D02*X149457D01*
X148314D02*X147456Y263214D01*
X146886Y262642D01*
Y262072D01*
X147170Y261499D01*
X147456Y261214D01*
X148029Y260929D01*
X149744Y260357D01*
X150314Y260071D01*
X150599Y259786D01*
X150885Y259214D01*
Y258356D01*
X150314Y257786D01*
X149457Y257500D01*
X148314D02*X149457D01*
X148314D02*X147456Y257786D01*
X146886Y258356D01*
X101428Y262644D02*X101142Y263215D01*
X100284Y263500D01*
X99714D02*X100284D01*
X99714D02*X98855Y263215D01*
X98285Y262358D01*
X98000Y260930D01*
Y259501D01*
X98285Y258358D01*
X98855Y257786D01*
X99714Y257500D01*
X100000D01*
X100856Y257786D01*
X101428Y258358D01*
X101712Y259216D01*
Y259501D02*Y259216D01*
Y259501D02*X101428Y260357D01*
X100856Y260930D01*
X100000Y261214D01*
X99714D02*X100000D01*
X99714D02*X98855Y260930D01*
X98285Y260357D01*
X98000Y259501D01*
X105227Y263500D02*X104371Y263215D01*
X103798Y262358D01*
X103513Y260930D01*
Y260072D01*
X103798Y258643D01*
X104371Y257786D01*
X105227Y257500D01*
X105799D01*
X106655Y257786D01*
X107227Y258643D01*
X107513Y260072D01*
Y260930D02*Y260072D01*
Y260930D02*X107227Y262358D01*
X106655Y263215D01*
X105799Y263500D01*
X105227D02*X105799D01*
X46714D02*X45858Y263215D01*
X45285Y262358D01*
X45000Y260930D01*
Y260072D01*
X45285Y258643D01*
X45858Y257786D01*
X46714Y257500D01*
X47286D01*
X48142Y257786D01*
X48714Y258643D01*
X49000Y260072D01*
Y260930D02*Y260072D01*
Y260930D02*X48714Y262358D01*
X48142Y263215D01*
X47286Y263500D01*
X46714D02*X47286D01*
X51086Y257950D02*X50801Y257664D01*
X51086Y257380D01*
X51371Y257664D01*
X51086Y257950D01*
X54885Y263500D02*X54029Y263215D01*
X53456Y262358D01*
X53171Y260930D01*
Y260072D01*
X53456Y258643D01*
X54029Y257786D01*
X54885Y257500D01*
X55457D01*
X56313Y257786D01*
X56885Y258643D01*
X57171Y260072D01*
Y260930D02*Y260072D01*
Y260930D02*X56885Y262358D01*
X56313Y263215D01*
X55457Y263500D01*
X54885D02*X55457D01*
X59541D02*X62684D01*
X60969Y261214D01*
X61827D01*
X62397Y260930D01*
X62684Y260644D01*
X62970Y259786D01*
Y259216D01*
X62684Y258358D01*
X62114Y257786D01*
X61256Y257500D01*
X60399D02*X61256D01*
X60399D02*X59541Y257786D01*
X59256Y258073D01*
X58971Y258643D01*
X66198Y263500D02*X65340Y263215D01*
X65055Y262644D01*
Y262072D01*
X65340Y261500D01*
X65912Y261214D01*
X67055Y260930D01*
X67913Y260644D01*
X68483Y260072D01*
X68769Y259501D01*
Y258643D01*
X68483Y258073D01*
X68196Y257786D01*
X67340Y257500D01*
X66198D02*X67340D01*
X66198D02*X65340Y257786D01*
X65055Y258073D01*
X64770Y258643D01*
Y259501D02*Y258643D01*
Y259501D02*X65055Y260072D01*
X65625Y260644D01*
X66483Y260930D01*
X67626Y261214D01*
X68196Y261500D01*
X68483Y262072D01*
Y262644D02*Y262072D01*
Y262644D02*X68196Y263215D01*
X67340Y263500D01*
X66198D02*X67340D01*
X298900Y178600D02*X302100D01*
X298900D02*Y175400D01*
X302100D01*
Y178600D02*Y175400D01*
X289057Y179387D02*X292257D01*
X289057D02*Y176187D01*
X292257D01*
Y179387D02*Y176187D01*
X279215Y178600D02*X282415D01*
X279215D02*Y175400D01*
X282415D01*
Y178600D02*Y175400D01*
X269372Y179387D02*X272572D01*
X269372D02*Y176187D01*
X272572D01*
Y179387D02*Y176187D01*
X298900Y166100D02*X302100D01*
X298900D02*Y162900D01*
X302100D01*
Y166100D02*Y162900D01*
X289057Y166887D02*X292257D01*
X289057D02*Y163687D01*
X292257D01*
Y166887D02*Y163687D01*
X279215Y166100D02*X282415D01*
X279215D02*Y162900D01*
X282415D01*
Y166100D02*Y162900D01*
X269372Y166887D02*X272572D01*
X269372D02*Y163687D01*
X272572D01*
Y166887D02*Y163687D01*
X260400Y116100D02*X263600D01*
X260400D02*Y112900D01*
X263600D01*
Y116100D02*Y112900D01*
X250557Y116100D02*X253757D01*
X250557D02*Y112900D01*
X253757D01*
Y116100D02*Y112900D01*
X240715Y116100D02*X243915D01*
X240715D02*Y112900D01*
X243915D01*
Y116100D02*Y112900D01*
X230872Y116100D02*X234072D01*
X230872D02*Y112900D01*
X234072D01*
Y116100D02*Y112900D01*
X221030Y116100D02*X224230D01*
X221030D02*Y112900D01*
X224230D01*
Y116100D02*Y112900D01*
X45400Y24600D02*X48600D01*
X45400D02*Y21400D01*
X48600D01*
Y24600D02*Y21400D01*
X35557Y24600D02*X38757D01*
X35557D02*Y21400D01*
X38757D01*
Y24600D02*Y21400D01*
X25715Y24600D02*X28915D01*
X25715D02*Y21400D01*
X28915D01*
Y24600D02*Y21400D01*
X285400Y46600D02*X288600D01*
X285400D02*Y43400D01*
X288600D01*
Y46600D02*Y43400D01*
X275557Y46600D02*X278757D01*
X275557D02*Y43400D01*
X278757D01*
Y46600D02*Y43400D01*
X265715Y46600D02*X268915D01*
X265715D02*Y43400D01*
X268915D01*
Y46600D02*Y43400D01*
X255872Y46600D02*X259072D01*
X255872D02*Y43400D01*
X259072D01*
Y46600D02*Y43400D01*
X246030Y46600D02*X249230D01*
X246030D02*Y43400D01*
X249230D01*
Y46600D02*Y43400D01*
X236187Y46600D02*X239387D01*
X236187D02*Y43400D01*
X239387D01*
Y46600D02*Y43400D01*
X226345Y46600D02*X229545D01*
X226345D02*Y43400D01*
X229545D01*
Y46600D02*Y43400D01*
X216502Y46600D02*X219702D01*
X216502D02*Y43400D01*
X219702D01*
Y46600D02*Y43400D01*
X403483Y46600D02*X406683D01*
X403483D02*Y43400D01*
X406683D01*
Y46600D02*Y43400D01*
X393640Y46600D02*X396840D01*
X393640D02*Y43400D01*
X396840D01*
Y46600D02*Y43400D01*
X383798Y46600D02*X386998D01*
X383798D02*Y43400D01*
X386998D01*
Y46600D02*Y43400D01*
X373955Y46600D02*X377155D01*
X373955D02*Y43400D01*
X377155D01*
Y46600D02*Y43400D01*
X364113Y46600D02*X367313D01*
X364113D02*Y43400D01*
X367313D01*
Y46600D02*Y43400D01*
X354270Y46600D02*X357470D01*
X354270D02*Y43400D01*
X357470D01*
Y46600D02*Y43400D01*
X344428Y46600D02*X347628D01*
X344428D02*Y43400D01*
X347628D01*
Y46600D02*Y43400D01*
X334585Y46600D02*X337785D01*
X334585D02*Y43400D01*
X337785D01*
Y46600D02*Y43400D01*
X324743Y46600D02*X327943D01*
X324743D02*Y43400D01*
X327943D01*
Y46600D02*Y43400D01*
X314900Y46600D02*X318100D01*
X314900D02*Y43400D01*
X318100D01*
Y46600D02*Y43400D01*
X1083243Y25100D02*X1086443D01*
X1083243D02*Y21900D01*
X1086443D01*
Y25100D02*Y21900D01*
X1073400Y25100D02*X1076600D01*
X1073400D02*Y21900D01*
X1076600D01*
Y25100D02*Y21900D01*
X1063558Y25100D02*X1066758D01*
X1063558D02*Y21900D01*
X1066758D01*
Y25100D02*Y21900D01*
X23900Y73772D02*X27100D01*
X23900D02*Y70572D01*
X27100D01*
Y73772D02*Y70572D01*
X33743Y73378D02*X36943D01*
X33743D02*Y70178D01*
X36943D01*
Y73378D02*Y70178D01*
X43585Y73772D02*X46785D01*
X43585D02*Y70572D01*
X46785D01*
Y73772D02*Y70572D01*
X744030Y52600D02*X747230D01*
X744030D02*Y49400D01*
X747230D01*
Y52600D02*Y49400D01*
X753873Y52206D02*X757073D01*
X753873D02*Y49006D01*
X757073D01*
Y52206D02*Y49006D01*
X763715Y52600D02*X766915D01*
X763715D02*Y49400D01*
X766915D01*
Y52600D02*Y49400D01*
X773558Y52206D02*X776758D01*
X773558D02*Y49006D01*
X776758D01*
Y52206D02*Y49006D01*
X783400Y52600D02*X786600D01*
X783400D02*Y49400D01*
X786600D01*
Y52600D02*Y49400D01*
X793243Y52206D02*X796443D01*
X793243D02*Y49006D01*
X796443D01*
Y52206D02*Y49006D01*
X803085Y52600D02*X806285D01*
X803085D02*Y49400D01*
X806285D01*
Y52600D02*Y49400D01*
X812928Y52206D02*X816128D01*
X812928D02*Y49006D01*
X816128D01*
Y52206D02*Y49006D01*
X822770Y52600D02*X825970D01*
X822770D02*Y49400D01*
X825970D01*
Y52600D02*Y49400D01*
X832613Y52206D02*X835813D01*
X832613D02*Y49006D01*
X835813D01*
Y52206D02*Y49006D01*
X989030Y83100D02*X992230D01*
X989030D02*Y79900D01*
X992230D01*
Y83100D02*Y79900D01*
X998873Y82706D02*X1002073D01*
X998873D02*Y79506D01*
X1002073D01*
Y82706D02*Y79506D01*
X1008715Y83100D02*X1011915D01*
X1008715D02*Y79900D01*
X1011915D01*
Y83100D02*Y79900D01*
X1018558Y82706D02*X1021758D01*
X1018558D02*Y79506D01*
X1021758D01*
Y82706D02*Y79506D01*
X1028400Y83100D02*X1031600D01*
X1028400D02*Y79900D01*
X1031600D01*
Y83100D02*Y79900D01*
X1038243Y82706D02*X1041443D01*
X1038243D02*Y79506D01*
X1041443D01*
Y82706D02*Y79506D01*
X1048085Y83100D02*X1051285D01*
X1048085D02*Y79900D01*
X1051285D01*
Y83100D02*Y79900D01*
X1057928Y82706D02*X1061128D01*
X1057928D02*Y79506D01*
X1061128D01*
Y82706D02*Y79506D01*
X1067770Y83100D02*X1070970D01*
X1067770D02*Y79900D01*
X1070970D01*
Y83100D02*Y79900D01*
X1077613Y82706D02*X1080813D01*
X1077613D02*Y79506D01*
X1080813D01*
Y82706D02*Y79506D01*
X907400Y52100D02*X910600D01*
X907400D02*Y48900D01*
X910600D01*
Y52100D02*Y48900D01*
X917243Y51706D02*X920443D01*
X917243D02*Y48506D01*
X920443D01*
Y51706D02*Y48506D01*
X927085Y52100D02*X930285D01*
X927085D02*Y48900D01*
X930285D01*
Y52100D02*Y48900D01*
X936928Y51706D02*X940128D01*
X936928D02*Y48506D01*
X940128D01*
Y51706D02*Y48506D01*
X946770Y52100D02*X949970D01*
X946770D02*Y48900D01*
X949970D01*
Y52100D02*Y48900D01*
X956613Y51706D02*X959813D01*
X956613D02*Y48506D01*
X959813D01*
Y51706D02*Y48506D01*
X966455Y52100D02*X969655D01*
X966455D02*Y48900D01*
X969655D01*
Y52100D02*Y48900D01*
X976298Y51706D02*X979498D01*
X976298D02*Y48506D01*
X979498D01*
Y51706D02*Y48506D01*
X1010900Y53600D02*X1014100D01*
X1010900D02*Y50400D01*
X1014100D01*
Y53600D02*Y50400D01*
X446400Y122600D02*X449600D01*
X446400D02*Y119400D01*
X449600D01*
Y122600D02*Y119400D01*
X512400Y180600D02*X515600D01*
X512400D02*Y177400D01*
X515600D01*
Y180600D02*Y177400D01*
X13400Y277850D02*X16600D01*
X13400D02*Y274650D01*
X16600D01*
Y277850D02*Y274650D01*
X135000Y278500D02*X137284Y275642D01*
Y272500D01*
X139572Y278500D02*X137284Y275642D01*
X141372Y278500D02*Y272500D01*
Y278500D02*X145086D01*
X141372Y275642D02*X143657D01*
X141372Y272500D02*X145086D01*
X150885Y277642D02*X150314Y278214D01*
X149457Y278500D01*
X148314D02*X149457D01*
X148314D02*X147456Y278214D01*
X146886Y277642D01*
Y277072D01*
X147170Y276499D01*
X147456Y276214D01*
X148029Y275929D01*
X149744Y275358D01*
X150314Y275071D01*
X150599Y274786D01*
X150885Y274214D01*
Y273356D01*
X150314Y272786D01*
X149457Y272500D01*
X148314D02*X149457D01*
X148314D02*X147456Y272786D01*
X146886Y273356D01*
X101999Y278500D02*X99142Y272500D01*
X98000Y278500D02*X101999D01*
X103799Y277358D02*X104369Y277644D01*
X105227Y278500D01*
Y272500D01*
X46714Y278500D02*X45858Y278215D01*
X45285Y277358D01*
X45000Y275930D01*
Y275072D01*
X45285Y273643D01*
X45858Y272786D01*
X46714Y272500D01*
X47286D01*
X48142Y272786D01*
X48714Y273643D01*
X49000Y275072D01*
Y275930D02*Y275072D01*
Y275930D02*X48714Y277358D01*
X48142Y278215D01*
X47286Y278500D01*
X46714D02*X47286D01*
X51086Y272950D02*X50801Y272664D01*
X51086Y272380D01*
X51371Y272664D01*
X51086Y272950D01*
X54885Y278500D02*X54029Y278215D01*
X53456Y277358D01*
X53171Y275930D01*
Y275072D01*
X53456Y273643D01*
X54029Y272786D01*
X54885Y272500D01*
X55457D01*
X56313Y272786D01*
X56885Y273643D01*
X57171Y275072D01*
Y275930D02*Y275072D01*
Y275930D02*X56885Y277358D01*
X56313Y278215D01*
X55457Y278500D01*
X54885D02*X55457D01*
X59541D02*X62684D01*
X60969Y276214D01*
X61827D01*
X62397Y275930D01*
X62684Y275644D01*
X62970Y274786D01*
Y274216D01*
X62684Y273358D01*
X62114Y272786D01*
X61256Y272500D01*
X60399D02*X61256D01*
X60399D02*X59541Y272786D01*
X59256Y273073D01*
X58971Y273643D01*
X68198Y277644D02*X67913Y278215D01*
X67055Y278500D01*
X66485D02*X67055D01*
X66485D02*X65625Y278215D01*
X65055Y277358D01*
X64770Y275930D01*
Y274501D01*
X65055Y273358D01*
X65625Y272786D01*
X66485Y272500D01*
X66770D01*
X67626Y272786D01*
X68198Y273358D01*
X68483Y274216D01*
Y274501D02*Y274216D01*
Y274501D02*X68198Y275358D01*
X67626Y275930D01*
X66770Y276214D01*
X66485D02*X66770D01*
X66485D02*X65625Y275930D01*
X65055Y275358D01*
X64770Y274501D01*
X286200Y66000D02*G75*G03X287800Y66000I800J0D01*G01*
G75*G03X286200Y66000I-800J0D01*G01*
X278326D02*G75*G03X279926Y66000I800J0D01*G01*
G75*G03X278326Y66000I-800J0D01*G01*
X270452D02*G75*G03X272052Y66000I800J0D01*G01*
G75*G03X270452Y66000I-800J0D01*G01*
X262578D02*G75*G03X264178Y66000I800J0D01*G01*
G75*G03X262578Y66000I-800J0D01*G01*
X254704D02*G75*G03X256304Y66000I800J0D01*G01*
G75*G03X254704Y66000I-800J0D01*G01*
X246830D02*G75*G03X248430Y66000I800J0D01*G01*
G75*G03X246830Y66000I-800J0D01*G01*
X238956D02*G75*G03X240556Y66000I800J0D01*G01*
G75*G03X238956Y66000I-800J0D01*G01*
X231082D02*G75*G03X232682Y66000I800J0D01*G01*
G75*G03X231082Y66000I-800J0D01*G01*
X246200Y87331D02*G75*G03X247800Y87331I800J0D01*G01*
G75*G03X246200Y87331I-800J0D01*G01*
X238326D02*G75*G03X239926Y87331I800J0D01*G01*
G75*G03X238326Y87331I-800J0D01*G01*
X230452D02*G75*G03X232052Y87331I800J0D01*G01*
G75*G03X230452Y87331I-800J0D01*G01*
X222578D02*G75*G03X224178Y87331I800J0D01*G01*
G75*G03X222578Y87331I-800J0D01*G01*
X214704D02*G75*G03X216304Y87331I800J0D01*G01*
G75*G03X214704Y87331I-800J0D01*G01*
X398700Y68500D02*G75*G03X400300Y68500I800J0D01*G01*
G75*G03X398700Y68500I-800J0D01*G01*
X390826D02*G75*G03X392426Y68500I800J0D01*G01*
G75*G03X390826Y68500I-800J0D01*G01*
X382952D02*G75*G03X384552Y68500I800J0D01*G01*
G75*G03X382952Y68500I-800J0D01*G01*
X375078D02*G75*G03X376678Y68500I800J0D01*G01*
G75*G03X375078Y68500I-800J0D01*G01*
X367204D02*G75*G03X368804Y68500I800J0D01*G01*
G75*G03X367204Y68500I-800J0D01*G01*
X359330D02*G75*G03X360930Y68500I800J0D01*G01*
G75*G03X359330Y68500I-800J0D01*G01*
X351456D02*G75*G03X353056Y68500I800J0D01*G01*
G75*G03X351456Y68500I-800J0D01*G01*
X343582D02*G75*G03X345182Y68500I800J0D01*G01*
G75*G03X343582Y68500I-800J0D01*G01*
X335708D02*G75*G03X337308Y68500I800J0D01*G01*
G75*G03X335708Y68500I-800J0D01*G01*
X327834D02*G75*G03X329434Y68500I800J0D01*G01*
G75*G03X327834Y68500I-800J0D01*G01*
X44074Y98000D02*G75*G03X45674Y98000I800J0D01*G01*
G75*G03X44074Y98000I-800J0D01*G01*
X36200D02*G75*G03X37800Y98000I800J0D01*G01*
G75*G03X36200Y98000I-800J0D01*G01*
X28326D02*G75*G03X29926Y98000I800J0D01*G01*
G75*G03X28326Y98000I-800J0D01*G01*
X1040200Y24000D02*G75*G03X1041800Y24000I800J0D01*G01*
G75*G03X1040200Y24000I-800J0D01*G01*
X1032326D02*G75*G03X1033926Y24000I800J0D01*G01*
G75*G03X1032326Y24000I-800J0D01*G01*
X1024452D02*G75*G03X1026052Y24000I800J0D01*G01*
G75*G03X1024452Y24000I-800J0D01*G01*
X14200Y291250D02*G75*G03X15800Y291250I800J0D01*G01*
G75*G03X14200Y291250I-800J0D01*G01*
X135000Y293500D02*X137284Y290642D01*
Y287500D01*
X139572Y293500D02*X137284Y290642D01*
X141372Y293500D02*Y287500D01*
Y293500D02*X145086D01*
X141372Y290642D02*X143657D01*
X141372Y287500D02*X145086D01*
X150885Y292642D02*X150314Y293214D01*
X149457Y293500D01*
X148314D02*X149457D01*
X148314D02*X147456Y293214D01*
X146886Y292642D01*
Y292072D01*
X147170Y291499D01*
X147456Y291214D01*
X148029Y290929D01*
X149744Y290358D01*
X150314Y290071D01*
X150599Y289786D01*
X150885Y289214D01*
Y288356D01*
X150314Y287786D01*
X149457Y287500D01*
X148314D02*X149457D01*
X148314D02*X147456Y287786D01*
X146886Y288356D01*
X98285Y292358D02*Y292072D01*
Y292358D02*X98572Y292928D01*
X98855Y293215D01*
X99428Y293500D01*
X100570D01*
X101142Y293215D01*
X101428Y292928D01*
X101712Y292358D01*
Y291786D01*
X101428Y291214D01*
X100856Y290358D01*
X98000Y287500D01*
X101999D01*
X107512Y291500D02*X107227Y290644D01*
X106655Y290072D01*
X105797Y289786D01*
X105512D02*X105797D01*
X105512D02*X104656Y290072D01*
X104083Y290644D01*
X103799Y291500D01*
Y291786D02*Y291500D01*
Y291786D02*X104083Y292644D01*
X104656Y293215D01*
X105512Y293500D01*
X105797D01*
X106655Y293215D01*
X107227Y292644D01*
X107512Y291500D01*
Y290072D01*
X107227Y288643D01*
X106655Y287786D01*
X105797Y287500D01*
X105227D02*X105797D01*
X105227D02*X104369Y287786D01*
X104083Y288358D01*
X46714Y293500D02*X45858Y293215D01*
X45285Y292358D01*
X45000Y290930D01*
Y290072D01*
X45285Y288643D01*
X45858Y287786D01*
X46714Y287500D01*
X47286D01*
X48142Y287786D01*
X48714Y288643D01*
X49000Y290072D01*
Y290930D02*Y290072D01*
Y290930D02*X48714Y292358D01*
X48142Y293215D01*
X47286Y293500D01*
X46714D02*X47286D01*
X51086Y287950D02*X50801Y287664D01*
X51086Y287380D01*
X51371Y287664D01*
X51086Y287950D01*
X54885Y293500D02*X54029Y293215D01*
X53456Y292358D01*
X53171Y290930D01*
Y290072D01*
X53456Y288643D01*
X54029Y287786D01*
X54885Y287500D01*
X55457D01*
X56313Y287786D01*
X56885Y288643D01*
X57171Y290072D01*
Y290930D02*Y290072D01*
Y290930D02*X56885Y292358D01*
X56313Y293215D01*
X55457Y293500D01*
X54885D02*X55457D01*
X59541D02*X62684D01*
X60969Y291214D01*
X61827D01*
X62397Y290930D01*
X62684Y290644D01*
X62970Y289786D01*
Y289216D01*
X62684Y288358D01*
X62114Y287786D01*
X61256Y287500D01*
X60399D02*X61256D01*
X60399D02*X59541Y287786D01*
X59256Y288073D01*
X58971Y288643D01*
X65342Y293500D02*X68199D01*
X65342D02*X65055Y290930D01*
X65342Y291214D01*
X66198Y291500D01*
X67056D01*
X67913Y291214D01*
X68484Y290644D01*
X68771Y289786D01*
Y289216D01*
X68484Y288358D01*
X67913Y287786D01*
X67056Y287500D01*
X66198D02*X67056D01*
X66198D02*X65342Y287786D01*
X65055Y288073D01*
X64770Y288643D01*
X217800Y70700D02*X220200Y68300D01*
X217800D02*X220200Y70700D01*
X489800Y63700D02*X492200Y61300D01*
X489800D02*X492200Y63700D01*
X281800Y100700D02*X284200Y98300D01*
X281800D02*X284200Y100700D01*
X387800Y133200D02*X390200Y130800D01*
X387800D02*X390200Y133200D01*
X375800Y183700D02*X378200Y181300D01*
X375800D02*X378200Y183700D01*
X25800Y176200D02*X28200Y173800D01*
X25800D02*X28200Y176200D01*
X777300Y149700D02*X779700Y147300D01*
X777300D02*X779700Y149700D01*
X905300Y123200D02*X907700Y120800D01*
X905300D02*X907700Y123200D01*
X818800Y148200D02*X821200Y145800D01*
X818800D02*X821200Y148200D01*
X13800Y307450D02*X16200Y305050D01*
X13800D02*X16200Y307450D01*
X135000Y308500D02*X137284Y305642D01*
Y302500D01*
X139572Y308500D02*X137284Y305642D01*
X141372Y308500D02*Y302500D01*
Y308500D02*X145086D01*
X141372Y305642D02*X143657D01*
X141372Y302500D02*X145086D01*
X150885Y307642D02*X150314Y308214D01*
X149457Y308500D01*
X148314D02*X149457D01*
X148314D02*X147456Y308214D01*
X146886Y307642D01*
Y307072D01*
X147170Y306499D01*
X147456Y306214D01*
X148029Y305929D01*
X149744Y305358D01*
X150314Y305071D01*
X150599Y304786D01*
X150885Y304214D01*
Y303356D01*
X150314Y302786D01*
X149457Y302500D01*
X148314D02*X149457D01*
X148314D02*X147456Y302786D01*
X146886Y303356D01*
X101712Y306500D02*X101428Y305644D01*
X100856Y305072D01*
X99998Y304786D01*
X99713D02*X99998D01*
X99713D02*X98856Y305072D01*
X98284Y305644D01*
X98000Y306500D01*
Y306786D02*Y306500D01*
Y306786D02*X98284Y307644D01*
X98856Y308215D01*
X99713Y308500D01*
X99998D01*
X100856Y308215D01*
X101428Y307644D01*
X101712Y306500D01*
Y305072D01*
X101428Y303643D01*
X100856Y302786D01*
X99998Y302500D01*
X99428D02*X99998D01*
X99428D02*X98570Y302786D01*
X98284Y303358D01*
X46714Y308500D02*X45858Y308215D01*
X45285Y307358D01*
X45000Y305930D01*
Y305072D01*
X45285Y303643D01*
X45858Y302786D01*
X46714Y302500D01*
X47286D01*
X48142Y302786D01*
X48714Y303643D01*
X49000Y305072D01*
Y305930D02*Y305072D01*
Y305930D02*X48714Y307358D01*
X48142Y308215D01*
X47286Y308500D01*
X46714D02*X47286D01*
X51086Y302950D02*X50801Y302664D01*
X51086Y302380D01*
X51371Y302664D01*
X51086Y302950D01*
X54885Y308500D02*X54029Y308215D01*
X53456Y307358D01*
X53171Y305930D01*
Y305072D01*
X53456Y303643D01*
X54029Y302786D01*
X54885Y302500D01*
X55457D01*
X56313Y302786D01*
X56885Y303643D01*
X57171Y305072D01*
Y305930D02*Y305072D01*
Y305930D02*X56885Y307358D01*
X56313Y308215D01*
X55457Y308500D01*
X54885D02*X55457D01*
X59541D02*X62684D01*
X60969Y306214D01*
X61827D01*
X62397Y305930D01*
X62684Y305644D01*
X62970Y304786D01*
Y304216D01*
X62684Y303358D01*
X62114Y302786D01*
X61256Y302500D01*
X60399D02*X61256D01*
X60399D02*X59541Y302786D01*
X59256Y303073D01*
X58971Y303643D01*
X65342Y308500D02*X68199D01*
X65342D02*X65055Y305930D01*
X65342Y306214D01*
X66198Y306500D01*
X67056D01*
X67913Y306214D01*
X68484Y305644D01*
X68771Y304786D01*
Y304216D01*
X68484Y303358D01*
X67913Y302786D01*
X67056Y302500D01*
X66198D02*X67056D01*
X66198D02*X65342Y302786D01*
X65055Y303073D01*
X64770Y303643D01*
X342000Y114300D02*Y111100D01*
X340400Y112700D02*X343600D01*
X342000Y139900D02*Y136700D01*
X340400Y138300D02*X343600D01*
X15000Y322850D02*Y319650D01*
X13400Y321250D02*X16600D01*
X135000Y323500D02*X137284Y320642D01*
Y317500D01*
X139572Y323500D02*X137284Y320642D01*
X141372Y323500D02*Y317500D01*
Y323500D02*X145086D01*
X141372Y320642D02*X143657D01*
X141372Y317500D02*X145086D01*
X150885Y322642D02*X150314Y323214D01*
X149457Y323500D01*
X148314D02*X149457D01*
X148314D02*X147456Y323214D01*
X146886Y322642D01*
Y322072D01*
X147170Y321499D01*
X147456Y321214D01*
X148029Y320929D01*
X149744Y320358D01*
X150314Y320071D01*
X150599Y319786D01*
X150885Y319214D01*
Y318356D01*
X150314Y317786D01*
X149457Y317500D01*
X148314D02*X149457D01*
X148314D02*X147456Y317786D01*
X146886Y318356D01*
X98285Y322358D02*Y322072D01*
Y322358D02*X98572Y322928D01*
X98855Y323215D01*
X99428Y323500D01*
X100570D01*
X101142Y323215D01*
X101428Y322928D01*
X101712Y322358D01*
Y321786D01*
X101428Y321214D01*
X100856Y320358D01*
X98000Y317500D01*
X101999D01*
X46714Y323500D02*X45858Y323215D01*
X45285Y322358D01*
X45000Y320930D01*
Y320072D01*
X45285Y318643D01*
X45858Y317786D01*
X46714Y317500D01*
X47286D01*
X48142Y317786D01*
X48714Y318643D01*
X49000Y320072D01*
Y320930D02*Y320072D01*
Y320930D02*X48714Y322358D01*
X48142Y323215D01*
X47286Y323500D01*
X46714D02*X47286D01*
X51086Y317950D02*X50801Y317664D01*
X51086Y317380D01*
X51371Y317664D01*
X51086Y317950D01*
X54885Y323500D02*X54029Y323215D01*
X53456Y322358D01*
X53171Y320930D01*
Y320072D01*
X53456Y318643D01*
X54029Y317786D01*
X54885Y317500D01*
X55457D01*
X56313Y317786D01*
X56885Y318643D01*
X57171Y320072D01*
Y320930D02*Y320072D01*
Y320930D02*X56885Y322358D01*
X56313Y323215D01*
X55457Y323500D01*
X54885D02*X55457D01*
X59541D02*X62684D01*
X60969Y321214D01*
X61827D01*
X62397Y320930D01*
X62684Y320644D01*
X62970Y319786D01*
Y319216D01*
X62684Y318358D01*
X62114Y317786D01*
X61256Y317500D01*
X60399D02*X61256D01*
X60399D02*X59541Y317786D01*
X59256Y318073D01*
X58971Y318643D01*
X66485Y323500D02*X65628Y323215D01*
X65055Y322358D01*
X64770Y320930D01*
Y320072D01*
X65055Y318643D01*
X65628Y317786D01*
X66485Y317500D01*
X67056D01*
X67913Y317786D01*
X68484Y318643D01*
X68771Y320072D01*
Y320930D02*Y320072D01*
Y320930D02*X68484Y322358D01*
X67913Y323215D01*
X67056Y323500D01*
X66485D02*X67056D01*
X131500Y121500D02*Y119900D01*
Y121500D02*X132887Y122300D01*
X131500Y121500D02*X130113Y122300D01*
X65000Y14500D02*Y12900D01*
Y14500D02*X66387Y15300D01*
X65000Y14500D02*X63613Y15300D01*
X815000Y19000D02*Y17400D01*
Y19000D02*X816387Y19800D01*
X815000Y19000D02*X813613Y19800D01*
X869500Y113000D02*Y111400D01*
Y113000D02*X870887Y113800D01*
X869500Y113000D02*X868113Y113800D01*
X794500Y119500D02*Y117900D01*
Y119500D02*X795887Y120300D01*
X794500Y119500D02*X793113Y120300D01*
X857500Y113000D02*Y111400D01*
Y113000D02*X858887Y113800D01*
X857500Y113000D02*X856113Y113800D01*
X501500Y22000D02*Y20400D01*
Y22000D02*X502887Y22800D01*
X501500Y22000D02*X500113Y22800D01*
X469000Y22000D02*Y20400D01*
Y22000D02*X470387Y22800D01*
X469000Y22000D02*X467613Y22800D01*
X352500Y17000D02*Y15400D01*
Y17000D02*X353887Y17800D01*
X352500Y17000D02*X351113Y17800D01*
X199000Y83500D02*Y81900D01*
Y83500D02*X200387Y84300D01*
X199000Y83500D02*X197613Y84300D01*
X239000Y98500D02*Y96900D01*
Y98500D02*X240387Y99300D01*
X239000Y98500D02*X237613Y99300D01*
X442000Y157000D02*Y155400D01*
Y157000D02*X443387Y157800D01*
X442000Y157000D02*X440613Y157800D01*
X442000Y128500D02*Y126900D01*
Y128500D02*X443387Y129300D01*
X442000Y128500D02*X440613Y129300D01*
X425500Y107500D02*Y105900D01*
Y107500D02*X426887Y108300D01*
X425500Y107500D02*X424113Y108300D01*
X291000Y140500D02*Y138900D01*
Y140500D02*X292387Y141300D01*
X291000Y140500D02*X289613Y141300D01*
X430500Y112500D02*Y110900D01*
Y112500D02*X431887Y113300D01*
X430500Y112500D02*X429113Y113300D01*
X433000Y169000D02*Y167400D01*
Y169000D02*X434387Y169800D01*
X433000Y169000D02*X431613Y169800D01*
X381500Y125500D02*Y123900D01*
Y125500D02*X382887Y126300D01*
X381500Y125500D02*X380113Y126300D01*
X376500Y132000D02*Y130400D01*
Y132000D02*X377887Y132800D01*
X376500Y132000D02*X375113Y132800D01*
X15000Y336250D02*Y334650D01*
Y336250D02*X16387Y337050D01*
X15000Y336250D02*X13613Y337050D01*
X135000Y338500D02*X137284Y335642D01*
Y332500D01*
X139572Y338500D02*X137284Y335642D01*
X141372Y338500D02*Y332500D01*
Y338500D02*X145086D01*
X141372Y335642D02*X143657D01*
X141372Y332500D02*X145086D01*
X150885Y337642D02*X150314Y338214D01*
X149457Y338500D01*
X148314D02*X149457D01*
X148314D02*X147456Y338214D01*
X146886Y337642D01*
Y337072D01*
X147170Y336499D01*
X147456Y336214D01*
X148029Y335929D01*
X149744Y335358D01*
X150314Y335071D01*
X150599Y334786D01*
X150885Y334214D01*
Y333356D01*
X150314Y332786D01*
X149457Y332500D01*
X148314D02*X149457D01*
X148314D02*X147456Y332786D01*
X146886Y333356D01*
X98000Y337358D02*X98570Y337644D01*
X99428Y338500D01*
Y332500D01*
X104941Y336500D02*X104656Y335644D01*
X104084Y335072D01*
X103226Y334786D01*
X102941D02*X103226D01*
X102941D02*X102085Y335072D01*
X101512Y335644D01*
X101228Y336500D01*
Y336786D02*Y336500D01*
Y336786D02*X101512Y337644D01*
X102085Y338215D01*
X102941Y338500D01*
X103226D01*
X104084Y338215D01*
X104656Y337644D01*
X104941Y336500D01*
Y335072D01*
X104656Y333643D01*
X104084Y332786D01*
X103226Y332500D01*
X102656D02*X103226D01*
X102656D02*X101798Y332786D01*
X101512Y333358D01*
X46714Y338500D02*X45858Y338215D01*
X45285Y337358D01*
X45000Y335930D01*
Y335072D01*
X45285Y333643D01*
X45858Y332786D01*
X46714Y332500D01*
X47286D01*
X48142Y332786D01*
X48714Y333643D01*
X49000Y335072D01*
Y335930D02*Y335072D01*
Y335930D02*X48714Y337358D01*
X48142Y338215D01*
X47286Y338500D01*
X46714D02*X47286D01*
X51086Y332950D02*X50801Y332664D01*
X51086Y332380D01*
X51371Y332664D01*
X51086Y332950D01*
X54885Y338500D02*X54029Y338215D01*
X53456Y337358D01*
X53171Y335930D01*
Y335072D01*
X53456Y333643D01*
X54029Y332786D01*
X54885Y332500D01*
X55457D01*
X56313Y332786D01*
X56885Y333643D01*
X57171Y335072D01*
Y335930D02*Y335072D01*
Y335930D02*X56885Y337358D01*
X56313Y338215D01*
X55457Y338500D01*
X54885D02*X55457D01*
X59256Y337358D02*Y337072D01*
Y337358D02*X59543Y337928D01*
X59826Y338215D01*
X60399Y338500D01*
X61541D01*
X62114Y338215D01*
X62399Y337928D01*
X62684Y337358D01*
Y336786D01*
X62399Y336214D01*
X61827Y335358D01*
X58971Y332500D01*
X62970D01*
X66485Y338500D02*X65628Y338215D01*
X65055Y337358D01*
X64770Y335930D01*
Y335072D01*
X65055Y333643D01*
X65628Y332786D01*
X66485Y332500D01*
X67056D01*
X67913Y332786D01*
X68484Y333643D01*
X68771Y335072D01*
Y335930D02*Y335072D01*
Y335930D02*X68484Y337358D01*
X67913Y338215D01*
X67056Y338500D01*
X66485D02*X67056D01*
X3999Y352642D02*X3428Y353214D01*
X2571Y353500D01*
X1428D02*X2571D01*
X1428D02*X570Y353214D01*
X0Y352642D01*
Y352072D01*
X284Y351499D01*
X570Y351214D01*
X1143Y350929D01*
X2858Y350358D01*
X3428Y350071D01*
X3712Y349786D01*
X3999Y349214D01*
Y348356D01*
X3428Y347786D01*
X2571Y347500D01*
X1428D02*X2571D01*
X1428D02*X570Y347786D01*
X0Y348356D01*
X6084Y351500D02*X7799Y347502D01*
X9513Y351500D02*X7799Y347502D01*
X7227Y346360D01*
X6657Y345787D01*
X6084Y345500D01*
X5799D02*X6084D01*
X11313Y351500D02*Y347502D01*
Y350359D02*X12168Y351217D01*
X12741Y351500D01*
X13598D01*
X14169Y351217D01*
X14454Y350359D01*
Y347502D01*
Y350359D02*X15312Y351217D01*
X15882Y351500D01*
X16740D01*
X17310Y351217D01*
X17597Y350359D01*
Y347502D01*
X19397Y353500D02*Y347500D01*
Y350644D02*X19968Y351216D01*
X20538Y351500D01*
X21396D01*
X21966Y351216D01*
X22539Y350644D01*
X22826Y349788D01*
Y349216D01*
X22539Y348360D01*
X21966Y347786D01*
X21396Y347500D01*
X20538D02*X21396D01*
X20538D02*X19968Y347786D01*
X19397Y348360D01*
X26054Y351500D02*X25481Y351217D01*
X24909Y350646D01*
X24626Y349789D01*
Y349216D01*
X24909Y348360D01*
X25481Y347788D01*
X26054Y347502D01*
X26910D01*
X27482Y347788D01*
X28052Y348360D01*
X28338Y349216D01*
Y349789D02*Y349216D01*
Y349789D02*X28052Y350646D01*
X27482Y351217D01*
X26910Y351500D01*
X26054D02*X26910D01*
X30138Y353500D02*Y347500D01*
X0Y344500D02*X31938D01*
X41000Y353500D02*Y347500D01*
Y353500D02*X43001D01*
X43858Y353214D01*
X44429Y352642D01*
X44714Y352072D01*
X44999Y351214D01*
Y349784D01*
X44714Y348928D01*
X44429Y348356D01*
X43858Y347786D01*
X43001Y347500D01*
X41000D02*X43001D01*
X47084Y351514D02*Y347515D01*
X46799Y353515D02*X47084Y353228D01*
X47371Y353515D01*
X47084Y353800D01*
X46799Y353515D01*
X52600Y351500D02*Y347502D01*
Y350646D02*X52027Y351217D01*
X51457Y351500D01*
X50599D02*X51457D01*
X50599D02*X50029Y351217D01*
X49456Y350646D01*
X49171Y349789D01*
Y349216D01*
X49456Y348360D01*
X50029Y347788D01*
X50599Y347502D01*
X51457D01*
X52027Y347788D01*
X52600Y348360D01*
X54400Y351500D02*Y347502D01*
Y350359D02*X55255Y351217D01*
X55828Y351500D01*
X56684D01*
X57256Y351217D01*
X57541Y350359D01*
Y347502D01*
Y350359D02*X58399Y351217D01*
X58969Y351500D01*
X59827D01*
X60397Y351217D01*
X60683Y350359D01*
Y347502D01*
X62768Y347950D02*X62483Y347664D01*
X62768Y347380D01*
X63053Y347664D01*
X62768Y347950D01*
X69553Y355000D02*X68981Y354428D01*
X68410Y353572D01*
X67837Y352428D01*
X67553Y351000D01*
Y349856D01*
X67837Y348428D01*
X68410Y347286D01*
X68981Y346429D01*
X69553Y345858D01*
X71353Y353500D02*X72853D01*
X72103D02*Y347500D01*
X71353D02*X72853D01*
X74653Y351500D02*Y347502D01*
Y350359D02*X75511Y351217D01*
X76081Y351500D01*
X76939D01*
X77509Y351217D01*
X77795Y350359D01*
Y347502D01*
X83024Y350646D02*X82451Y351217D01*
X81881Y351500D01*
X81023D02*X81881D01*
X81023D02*X80453Y351217D01*
X79880Y350646D01*
X79595Y349789D01*
Y349216D01*
X79880Y348360D01*
X80453Y347788D01*
X81023Y347502D01*
X81881D01*
X82451Y347788D01*
X83024Y348360D01*
X84824Y353500D02*Y347500D01*
Y350358D02*X85679Y351216D01*
X86252Y351500D01*
X87109D01*
X87680Y351216D01*
X87967Y350358D01*
Y347500D01*
X89767Y355000D02*X90337Y354428D01*
X90910Y353572D01*
X91481Y352428D01*
X91765Y351000D01*
Y349856D01*
X91481Y348428D01*
X90910Y347286D01*
X90337Y346429D01*
X89767Y345858D01*
X41000Y344500D02*X93565D01*
X99286Y352072D02*X98999Y352642D01*
X98428Y353214D01*
X97858Y353500D01*
X96713D02*X97858D01*
X96713D02*X96143Y353214D01*
X95570Y352642D01*
X95285Y352072D01*
X95000Y351214D01*
Y349784D01*
X95285Y348928D01*
X95570Y348356D01*
X96143Y347786D01*
X96713Y347500D01*
X97858D01*
X98428Y347786D01*
X98999Y348356D01*
X99286Y348928D01*
X102514Y351500D02*X101941Y351217D01*
X101369Y350646D01*
X101086Y349789D01*
Y349216D01*
X101369Y348360D01*
X101941Y347788D01*
X102514Y347502D01*
X103370D01*
X103942Y347788D01*
X104512Y348360D01*
X104798Y349216D01*
Y349789D02*Y349216D01*
Y349789D02*X104512Y350646D01*
X103942Y351217D01*
X103370Y351500D01*
X102514D02*X103370D01*
X106598D02*Y348644D01*
X106883Y347788D01*
X107456Y347502D01*
X108313D01*
X108884Y347788D01*
X109741Y348644D01*
Y351500D02*Y347502D01*
X111541Y351500D02*Y347502D01*
Y350359D02*X112399Y351217D01*
X112969Y351500D01*
X113827D01*
X114397Y351217D01*
X114683Y350359D01*
Y347502D01*
X117341Y353500D02*Y348643D01*
X117625Y347786D01*
X118198Y347500D01*
X118769D01*
X116483Y351500D02*X118483D01*
X95000Y344500D02*X120569D01*
X130000Y353500D02*Y347500D01*
Y353500D02*X132571D01*
X133428Y353214D01*
X133714Y352928D01*
X133999Y352357D01*
Y351499D01*
X133714Y350929D01*
X133428Y350642D01*
X132571Y350358D01*
X130000D02*X132571D01*
X135799Y353500D02*Y347500D01*
X141028Y351500D02*Y347502D01*
Y350646D02*X140455Y351217D01*
X139885Y351500D01*
X139027D02*X139885D01*
X139027D02*X138457Y351217D01*
X137884Y350646D01*
X137599Y349789D01*
Y349216D01*
X137884Y348360D01*
X138457Y347788D01*
X139027Y347502D01*
X139885D01*
X140455Y347788D01*
X141028Y348360D01*
X143686Y353500D02*Y348643D01*
X143970Y347786D01*
X144543Y347500D01*
X145114D01*
X142828Y351500D02*X144828D01*
X146914Y349789D02*X150340D01*
Y350359D02*Y349789D01*
Y350359D02*X150055Y350930D01*
X149770Y351217D01*
X149199Y351500D01*
X148342D02*X149199D01*
X148342D02*X147769Y351217D01*
X147198Y350646D01*
X146914Y349789D01*
Y349216D01*
X147198Y348360D01*
X147769Y347788D01*
X148342Y347502D01*
X149199D01*
X149770Y347788D01*
X150340Y348360D01*
X155566Y353500D02*Y347500D01*
Y350644D02*X154996Y351216D01*
X154425Y351500D01*
X153568D02*X154425D01*
X153568D02*X152995Y351216D01*
X152424Y350644D01*
X152140Y349788D01*
Y349216D01*
X152424Y348360D01*
X152995Y347786D01*
X153568Y347500D01*
X154425D01*
X154996Y347786D01*
X155566Y348360D01*
X157366Y352357D02*Y352072D01*
Y352357D02*X157653Y352928D01*
X157936Y353214D01*
X158509Y353500D01*
X159651D01*
X160224Y353214D01*
X160509Y352928D01*
X160794Y352357D01*
Y351786D01*
X160509Y351216D01*
X160224Y350929D01*
X159081Y350358D01*
Y349501D01*
Y348073D02*X158794Y347786D01*
X159081Y347500D01*
X159364Y347786D01*
X159081Y348073D01*
X130000Y344500D02*X162594D01*
X2000Y368500D02*Y362500D01*
X0Y368500D02*X3999D01*
X5799D02*Y362500D01*
Y365358D02*X6654Y366216D01*
X7227Y366500D01*
X8084D01*
X8655Y366216D01*
X8942Y365358D01*
Y362500D01*
X10742Y364789D02*X14168D01*
Y365359D02*Y364789D01*
Y365359D02*X13883Y365930D01*
X13598Y366217D01*
X13026Y366500D01*
X12170D02*X13026D01*
X12170D02*X11597Y366217D01*
X11025Y365646D01*
X10742Y364789D01*
Y364216D01*
X11025Y363360D01*
X11597Y362788D01*
X12170Y362502D01*
X13026D01*
X13598Y362788D01*
X14168Y363360D01*
X15968Y366500D02*Y362502D01*
Y364786D02*X16253Y365646D01*
X16826Y366216D01*
X17396Y366500D01*
X18254D01*
X20054Y364789D02*X23480D01*
Y365359D02*Y364789D01*
Y365359D02*X23195Y365930D01*
X22910Y366217D01*
X22338Y366500D01*
X21482D02*X22338D01*
X21482D02*X20909Y366217D01*
X20337Y365646D01*
X20054Y364789D01*
Y364216D01*
X20337Y363360D01*
X20909Y362788D01*
X21482Y362502D01*
X22338D01*
X22910Y362788D01*
X23480Y363360D01*
X31409Y366500D02*Y362502D01*
Y365646D02*X30836Y366217D01*
X30266Y366500D01*
X29408D02*X30266D01*
X29408D02*X28838Y366217D01*
X28265Y365646D01*
X27980Y364789D01*
Y364216D01*
X28265Y363360D01*
X28838Y362788D01*
X29408Y362502D01*
X30266D01*
X30836Y362788D01*
X31409Y363360D01*
X33209Y366500D02*Y362502D01*
Y364786D02*X33494Y365646D01*
X34067Y366216D01*
X34637Y366500D01*
X35495D01*
X37295Y364789D02*X40721D01*
Y365359D02*Y364789D01*
Y365359D02*X40436Y365930D01*
X40151Y366217D01*
X39579Y366500D01*
X38723D02*X39579D01*
X38723D02*X38150Y366217D01*
X37578Y365646D01*
X37295Y364789D01*
Y364216D01*
X37578Y363360D01*
X38150Y362788D01*
X38723Y362502D01*
X39579D01*
X40151Y362788D01*
X40721Y363360D01*
X45221Y367358D02*X45791Y367644D01*
X46649Y368500D01*
Y362500D01*
X50163Y368500D02*X49307Y368215D01*
X48734Y367358D01*
X48449Y365930D01*
Y365072D01*
X48734Y363643D01*
X49307Y362786D01*
X50163Y362500D01*
X50735D01*
X51591Y362786D01*
X52163Y363643D01*
X52449Y365072D01*
Y365930D02*Y365072D01*
Y365930D02*X52163Y367358D01*
X51591Y368215D01*
X50735Y368500D01*
X50163D02*X50735D01*
X60375D02*Y362500D01*
Y365644D02*X59805Y366216D01*
X59234Y366500D01*
X58377D02*X59234D01*
X58377D02*X57804Y366216D01*
X57233Y365644D01*
X56949Y364788D01*
Y364216D01*
X57233Y363360D01*
X57804Y362786D01*
X58377Y362500D01*
X59234D01*
X59805Y362786D01*
X60375Y363360D01*
X62460Y366514D02*Y362515D01*
X62175Y368515D02*X62460Y368228D01*
X62747Y368515D01*
X62460Y368800D01*
X62175Y368515D01*
X66261Y368500D02*X66831D01*
X66261D02*X65688Y368215D01*
X65402Y367358D01*
Y362500D01*
X64547Y366500D02*X66546D01*
X70346Y368500D02*X70916D01*
X70346D02*X69773Y368215D01*
X69486Y367358D01*
Y362500D01*
X68631Y366500D02*X70631D01*
X72716Y364789D02*X76142D01*
Y365359D02*Y364789D01*
Y365359D02*X75857Y365930D01*
X75572Y366217D01*
X75000Y366500D01*
X74144D02*X75000D01*
X74144D02*X73571Y366217D01*
X72999Y365646D01*
X72716Y364789D01*
Y364216D01*
X72999Y363360D01*
X73571Y362788D01*
X74144Y362502D01*
X75000D01*
X75572Y362788D01*
X76142Y363360D01*
X77942Y366500D02*Y362502D01*
Y364786D02*X78227Y365646D01*
X78800Y366216D01*
X79370Y366500D01*
X80228D01*
X82028Y364789D02*X85454D01*
Y365359D02*Y364789D01*
Y365359D02*X85169Y365930D01*
X84884Y366217D01*
X84312Y366500D01*
X83456D02*X84312D01*
X83456D02*X82883Y366217D01*
X82311Y365646D01*
X82028Y364789D01*
Y364216D01*
X82311Y363360D01*
X82883Y362788D01*
X83456Y362502D01*
X84312D01*
X84884Y362788D01*
X85454Y363360D01*
X87254Y366500D02*Y362502D01*
Y365359D02*X88112Y366217D01*
X88682Y366500D01*
X89540D01*
X90110Y366217D01*
X90396Y365359D01*
Y362502D01*
X93054Y368500D02*Y363643D01*
X93338Y362786D01*
X93911Y362500D01*
X94482D01*
X92196Y366500D02*X94196D01*
X102408Y368500D02*Y362500D01*
Y365644D02*X101838Y366216D01*
X101267Y366500D01*
X100410D02*X101267D01*
X100410D02*X99837Y366216D01*
X99266Y365644D01*
X98982Y364788D01*
Y364216D01*
X99266Y363360D01*
X99837Y362786D01*
X100410Y362500D01*
X101267D01*
X101838Y362786D01*
X102408Y363360D01*
X104208Y366500D02*Y362502D01*
Y364786D02*X104493Y365646D01*
X105066Y366216D01*
X105636Y366500D01*
X106494D01*
X108579Y366514D02*Y362515D01*
X108294Y368515D02*X108579Y368228D01*
X108866Y368515D01*
X108579Y368800D01*
X108294Y368515D01*
X110666Y368500D02*Y362500D01*
X112466Y368500D02*Y362500D01*
X120107Y365646D02*X119822Y366216D01*
X118964Y366500D01*
X118107D02*X118964D01*
X118107D02*X117249Y366216D01*
X116966Y365646D01*
X117249Y365072D01*
X117821Y364786D01*
X119250Y364501D01*
X119822Y364216D01*
X120107Y363644D01*
Y363358D01*
X119822Y362788D01*
X118964Y362502D01*
X118107D02*X118964D01*
X118107D02*X117249Y362788D01*
X116966Y363358D01*
X122192Y366514D02*Y362515D01*
X121907Y368515D02*X122192Y368228D01*
X122478Y368515D01*
X122192Y368800D01*
X121907Y368515D01*
X127421Y366500D02*X124278Y362502D01*
Y366500D02*X127421D01*
X124278Y362502D02*X127421D01*
X129221Y364789D02*X132647D01*
Y365359D02*Y364789D01*
Y365359D02*X132362Y365930D01*
X132077Y366217D01*
X131505Y366500D01*
X130649D02*X131505D01*
X130649D02*X130076Y366217D01*
X129504Y365646D01*
X129221Y364789D01*
Y364216D01*
X129504Y363360D01*
X130076Y362788D01*
X130649Y362502D01*
X131505D01*
X132077Y362788D01*
X132647Y363360D01*
X137588Y365646D02*X137303Y366216D01*
X136445Y366500D01*
X135588D02*X136445D01*
X135588D02*X134730Y366216D01*
X134447Y365646D01*
X134730Y365072D01*
X135302Y364786D01*
X136731Y364501D01*
X137303Y364216D01*
X137588Y363644D01*
Y363358D01*
X137303Y362788D01*
X136445Y362502D01*
X135588D02*X136445D01*
X135588D02*X134730Y362788D01*
X134447Y363358D01*
X142088Y366500D02*Y363644D01*
X142373Y362788D01*
X142946Y362502D01*
X143802D01*
X144374Y362788D01*
X145230Y363644D01*
Y366500D02*Y362502D01*
X150171Y365646D02*X149886Y366216D01*
X149028Y366500D01*
X148172D02*X149028D01*
X148172D02*X147314Y366216D01*
X147030Y365646D01*
X147314Y365072D01*
X147885Y364786D01*
X149315Y364501D01*
X149886Y364216D01*
X150171Y363644D01*
Y363358D01*
X149886Y362788D01*
X149028Y362502D01*
X148172D02*X149028D01*
X148172D02*X147314Y362788D01*
X147030Y363358D01*
X151971Y364789D02*X155397D01*
Y365359D02*Y364789D01*
Y365359D02*X155112Y365930D01*
X154827Y366217D01*
X154256Y366500D01*
X153399D02*X154256D01*
X153399D02*X152826Y366217D01*
X152255Y365646D01*
X151971Y364789D01*
Y364216D01*
X152255Y363360D01*
X152826Y362788D01*
X153399Y362502D01*
X154256D01*
X154827Y362788D01*
X155397Y363360D01*
X160623Y368500D02*Y362500D01*
Y365644D02*X160053Y366216D01*
X159482Y366500D01*
X158625D02*X159482D01*
X158625D02*X158052Y366216D01*
X157481Y365644D01*
X157197Y364788D01*
Y364216D01*
X157481Y363360D01*
X158052Y362786D01*
X158625Y362500D01*
X159482D01*
X160053Y362786D01*
X160623Y363360D01*
X165408Y366514D02*Y362515D01*
X165123Y368515D02*X165408Y368228D01*
X165695Y368515D01*
X165408Y368800D01*
X165123Y368515D01*
X167495Y366500D02*Y362502D01*
Y365359D02*X168353Y366217D01*
X168923Y366500D01*
X169781D01*
X170351Y366217D01*
X170637Y365359D01*
Y362502D01*
X175995Y368500D02*Y363643D01*
X176279Y362786D01*
X176852Y362500D01*
X177423D01*
X175137Y366500D02*X177137D01*
X179223Y368500D02*Y362500D01*
Y365358D02*X180078Y366216D01*
X180651Y366500D01*
X181508D01*
X182079Y366216D01*
X182366Y365358D01*
Y362500D01*
X184451Y366514D02*Y362515D01*
X184166Y368515D02*X184451Y368228D01*
X184737Y368515D01*
X184451Y368800D01*
X184166Y368515D01*
X189678Y365646D02*X189393Y366216D01*
X188535Y366500D01*
X187679D02*X188535D01*
X187679D02*X186821Y366216D01*
X186537Y365646D01*
X186821Y365072D01*
X187392Y364786D01*
X188822Y364501D01*
X189393Y364216D01*
X189678Y363644D01*
Y363358D01*
X189393Y362788D01*
X188535Y362502D01*
X187679D02*X188535D01*
X187679D02*X186821Y362788D01*
X186537Y363358D01*
X194178Y368500D02*Y362500D01*
X199407Y366500D02*Y362502D01*
Y365646D02*X198834Y366217D01*
X198264Y366500D01*
X197406D02*X198264D01*
X197406D02*X196836Y366217D01*
X196263Y365646D01*
X195978Y364789D01*
Y364216D01*
X196263Y363360D01*
X196836Y362788D01*
X197406Y362502D01*
X198264D01*
X198834Y362788D01*
X199407Y363360D01*
X201492Y366500D02*X203207Y362502D01*
X204921Y366500D02*X203207Y362502D01*
X202635Y361360D01*
X202065Y360787D01*
X201492Y360500D01*
X201207D02*X201492D01*
X208149Y366500D02*X207576Y366217D01*
X207005Y365646D01*
X206721Y364789D01*
Y364216D01*
X207005Y363360D01*
X207576Y362788D01*
X208149Y362502D01*
X209006D01*
X209577Y362788D01*
X210147Y363360D01*
X210434Y364216D01*
Y364789D02*Y364216D01*
Y364789D02*X210147Y365646D01*
X209577Y366217D01*
X209006Y366500D01*
X208149D02*X209006D01*
X212234D02*Y363644D01*
X212519Y362788D01*
X213092Y362502D01*
X213948D01*
X214520Y362788D01*
X215376Y363644D01*
Y366500D02*Y362502D01*
X218034Y368500D02*Y363643D01*
X218318Y362786D01*
X218891Y362500D01*
X219462D01*
X217176Y366500D02*X219176D01*
X221834Y362664D02*X221549Y362380D01*
X221262Y362664D01*
X221549Y362950D01*
X221834Y362664D01*
Y362094D01*
X221262Y361522D01*
X226619Y367358D02*Y367072D01*
Y367358D02*X226905Y367928D01*
X227189Y368215D01*
X227762Y368500D01*
X228903D01*
X229476Y368215D01*
X229761Y367928D01*
X230046Y367358D01*
Y366786D01*
X229761Y366214D01*
X229190Y365358D01*
X226334Y362500D01*
X230333D01*
X233847Y368500D02*X232991Y368215D01*
X232418Y367358D01*
X232133Y365930D01*
Y365072D01*
X232418Y363643D01*
X232991Y362786D01*
X233847Y362500D01*
X234419D01*
X235275Y362786D01*
X235847Y363643D01*
X236133Y365072D01*
Y365930D02*Y365072D01*
Y365930D02*X235847Y367358D01*
X235275Y368215D01*
X234419Y368500D01*
X233847D02*X234419D01*
X238218Y367358D02*Y367072D01*
Y367358D02*X238505Y367928D01*
X238788Y368215D01*
X239361Y368500D01*
X240503D01*
X241076Y368215D01*
X241361Y367928D01*
X241646Y367358D01*
Y366786D01*
X241361Y366214D01*
X240789Y365358D01*
X237933Y362500D01*
X241932D01*
X246432Y368500D02*Y362500D01*
Y365358D02*X247287Y366216D01*
X247860Y366500D01*
X248717D01*
X249288Y366216D01*
X249575Y365358D01*
Y362500D01*
X252803Y366500D02*X252230Y366217D01*
X251658Y365646D01*
X251375Y364789D01*
Y364216D01*
X251658Y363360D01*
X252230Y362788D01*
X252803Y362502D01*
X253659D01*
X254231Y362788D01*
X254801Y363360D01*
X255087Y364216D01*
Y364789D02*Y364216D01*
Y364789D02*X254801Y365646D01*
X254231Y366217D01*
X253659Y366500D01*
X252803D02*X253659D01*
X256887Y368500D02*Y362500D01*
X258687Y364789D02*X262113D01*
Y365359D02*Y364789D01*
Y365359D02*X261828Y365930D01*
X261543Y366217D01*
X260972Y366500D01*
X260115D02*X260972D01*
X260115D02*X259542Y366217D01*
X258971Y365646D01*
X258687Y364789D01*
Y364216D01*
X258971Y363360D01*
X259542Y362788D01*
X260115Y362502D01*
X260972D01*
X261543Y362788D01*
X262113Y363360D01*
X267054Y365646D02*X266769Y366216D01*
X265911Y366500D01*
X265055D02*X265911D01*
X265055D02*X264197Y366216D01*
X263913Y365646D01*
X264197Y365072D01*
X264768Y364786D01*
X266198Y364501D01*
X266769Y364216D01*
X267054Y363644D01*
Y363358D01*
X266769Y362788D01*
X265911Y362502D01*
X265055D02*X265911D01*
X265055D02*X264197Y362788D01*
X263913Y363358D01*
X272412Y368500D02*Y363643D01*
X272696Y362786D01*
X273269Y362500D01*
X273840D01*
X271554Y366500D02*X273554D01*
X277068D02*X276495Y366217D01*
X275924Y365646D01*
X275640Y364789D01*
Y364216D01*
X275924Y363360D01*
X276495Y362788D01*
X277068Y362502D01*
X277925D01*
X278496Y362788D01*
X279066Y363360D01*
X279353Y364216D01*
Y364789D02*Y364216D01*
Y364789D02*X279066Y365646D01*
X278496Y366217D01*
X277925Y366500D01*
X277068D02*X277925D01*
X282011Y368500D02*Y363643D01*
X282294Y362786D01*
X282867Y362500D01*
X283439D01*
X281153Y366500D02*X283152D01*
X288668D02*Y362502D01*
Y365646D02*X288095Y366217D01*
X287525Y366500D01*
X286667D02*X287525D01*
X286667D02*X286097Y366217D01*
X285524Y365646D01*
X285239Y364789D01*
Y364216D01*
X285524Y363360D01*
X286097Y362788D01*
X286667Y362502D01*
X287525D01*
X288095Y362788D01*
X288668Y363360D01*
X290468Y368500D02*Y362500D01*
G54D155*X12550Y189950D02*X11269Y189886D01*
X10026Y189695D01*
X8826Y189389D01*
X7677Y188970D01*
X6584Y188444D01*
X5553Y187819D01*
X4591Y187101D01*
X3705Y186295D01*
X2899Y185408D01*
X2180Y184447D01*
X1555Y183416D01*
X1030Y182323D01*
X611Y181173D01*
X304Y179973D01*
X115Y178730D01*
X50Y177450D01*
Y12448D01*
X115Y11167D01*
X304Y9923D01*
X611Y8724D01*
X1030Y7574D01*
X1555Y6481D01*
X2180Y5451D01*
X2899Y4489D01*
X3705Y3602D01*
X4591Y2796D01*
X5553Y2078D01*
X6584Y1453D01*
X7677Y927D01*
X8826Y508D01*
X10026Y201D01*
X11269Y12D01*
X12550Y-52D01*
X1087551D01*
X1088833Y12D01*
X1090077Y201D01*
X1091277Y508D01*
X1092426Y927D01*
X1093520Y1453D01*
X1094551Y2078D01*
X1095512Y2796D01*
X1096398Y3602D01*
X1097203Y4489D01*
X1097923Y5451D01*
X1098546Y6481D01*
X1099071Y7574D01*
X1099491Y8724D01*
X1099798Y9923D01*
X1099987Y11167D01*
X1100051Y12448D01*
Y177450D01*
X1099987Y178730D01*
X1099798Y179973D01*
X1099491Y181173D01*
X1099071Y182323D01*
X1098546Y183416D01*
X1097923Y184447D01*
X1097203Y185408D01*
X1096398Y186295D01*
X1095512Y187101D01*
X1094551Y187819D01*
X1093520Y188444D01*
X1092426Y188970D01*
X1091277Y189389D01*
X1090077Y189695D01*
X1088833Y189886D01*
X1087551Y189950D01*
X12550D01*
G54D154*X458120Y-3500D02*Y-9500D01*
Y-3500D02*X460691D01*
X461547Y-3786D01*
X461834Y-4072D01*
X462119Y-4644D01*
Y-5214D01*
X461834Y-5786D01*
X461547Y-6072D01*
X460691Y-6358D01*
X458120D02*X460691D01*
X461547Y-6642D01*
X461834Y-6929D01*
X462119Y-7500D01*
Y-8357D01*
X461834Y-8930D01*
X461547Y-9214D01*
X460691Y-9500D01*
X458120D02*X460691D01*
X465347Y-5500D02*X464774Y-5783D01*
X464202Y-6354D01*
X463919Y-7211D01*
Y-7784D01*
X464202Y-8640D01*
X464774Y-9212D01*
X465347Y-9498D01*
X466203D01*
X466775Y-9212D01*
X467345Y-8640D01*
X467631Y-7784D01*
Y-7211D02*Y-7784D01*
Y-7211D02*X467345Y-6354D01*
X466775Y-5783D01*
X466203Y-5500D01*
X465347D02*X466203D01*
X472860D02*Y-9498D01*
Y-6354D02*X472287Y-5783D01*
X471717Y-5500D01*
X470859D02*X471717D01*
X470859D02*X470289Y-5783D01*
X469716Y-6354D01*
X469431Y-7211D01*
Y-7784D01*
X469716Y-8640D01*
X470289Y-9212D01*
X470859Y-9498D01*
X471717D01*
X472287Y-9212D01*
X472860Y-8640D01*
X474660Y-5500D02*Y-9498D01*
Y-7214D02*X474945Y-6354D01*
X475518Y-5784D01*
X476088Y-5500D01*
X476946D01*
X482172Y-3500D02*Y-9500D01*
Y-6356D02*X481602Y-5784D01*
X481031Y-5500D01*
X480174D02*X481031D01*
X480174D02*X479601Y-5784D01*
X479030Y-6356D01*
X478746Y-7212D01*
Y-7784D01*
X479030Y-8640D01*
X479601Y-9214D01*
X480174Y-9500D01*
X481031D01*
X481602Y-9214D01*
X482172Y-8640D01*
X488100Y-5500D02*X487527Y-5783D01*
X486956Y-6354D01*
X486672Y-7211D01*
Y-7784D01*
X486956Y-8640D01*
X487527Y-9212D01*
X488100Y-9498D01*
X488957D01*
X489528Y-9212D01*
X490098Y-8640D01*
X490385Y-7784D01*
Y-7211D02*Y-7784D01*
Y-7211D02*X490098Y-6354D01*
X489528Y-5783D01*
X488957Y-5500D01*
X488100D02*X488957D01*
X492185D02*Y-8356D01*
X492470Y-9212D01*
X493043Y-9498D01*
X493899D01*
X494471Y-9212D01*
X495327Y-8356D01*
Y-5500D02*Y-9498D01*
X497985Y-3500D02*Y-8357D01*
X498269Y-9214D01*
X498842Y-9500D01*
X499413D01*
X497127Y-5500D02*X499127D01*
X501213Y-3500D02*Y-9500D01*
X503298Y-5486D02*Y-9485D01*
X503013Y-3485D02*X503298Y-3772D01*
X503585Y-3485D01*
X503298Y-3200D01*
X503013Y-3485D01*
X505385Y-5500D02*Y-9498D01*
Y-6641D02*X506243Y-5783D01*
X506813Y-5500D01*
X507671D01*
X508241Y-5783D01*
X508527Y-6641D01*
Y-9498D01*
X510327Y-7211D02*X513753D01*
Y-6641D02*Y-7211D01*
Y-6641D02*X513468Y-6070D01*
X513183Y-5783D01*
X512612Y-5500D01*
X511755D02*X512612D01*
X511755D02*X511182Y-5783D01*
X510611Y-6354D01*
X510327Y-7211D01*
Y-7784D01*
X510611Y-8640D01*
X511182Y-9212D01*
X511755Y-9498D01*
X512612D01*
X513183Y-9212D01*
X513753Y-8640D01*
X518538Y-5486D02*Y-9485D01*
X518253Y-3485D02*X518538Y-3772D01*
X518825Y-3485D01*
X518538Y-3200D01*
X518253Y-3485D01*
X523766Y-6354D02*X523481Y-5784D01*
X522623Y-5500D01*
X521766D02*X522623D01*
X521766D02*X520908Y-5784D01*
X520625Y-6354D01*
X520908Y-6928D01*
X521480Y-7214D01*
X522909Y-7499D01*
X523481Y-7784D01*
X523766Y-8356D01*
Y-8642D01*
X523481Y-9212D01*
X522623Y-9498D01*
X521766D02*X522623D01*
X521766D02*X520908Y-9212D01*
X520625Y-8642D01*
X529124Y-3500D02*Y-8357D01*
X529407Y-9214D01*
X529980Y-9500D01*
X530552D01*
X528266Y-5500D02*X530265D01*
X532352Y-3500D02*Y-9500D01*
Y-6642D02*X533207Y-5784D01*
X533780Y-5500D01*
X534636D01*
X535208Y-5784D01*
X535494Y-6642D01*
Y-9500D01*
X537294Y-7211D02*X540720D01*
Y-6641D02*Y-7211D01*
Y-6641D02*X540435Y-6070D01*
X540150Y-5783D01*
X539579Y-5500D01*
X538722D02*X539579D01*
X538722D02*X538149Y-5783D01*
X537578Y-6354D01*
X537294Y-7211D01*
Y-7784D01*
X537578Y-8640D01*
X538149Y-9212D01*
X538722Y-9498D01*
X539579D01*
X540150Y-9212D01*
X540720Y-8640D01*
X548649Y-6354D02*X548076Y-5783D01*
X547506Y-5500D01*
X546648D02*X547506D01*
X546648D02*X546078Y-5783D01*
X545505Y-6354D01*
X545220Y-7211D01*
Y-7784D01*
X545505Y-8640D01*
X546078Y-9212D01*
X546648Y-9498D01*
X547506D01*
X548076Y-9212D01*
X548649Y-8640D01*
X550449Y-7211D02*X553875D01*
Y-6641D02*Y-7211D01*
Y-6641D02*X553590Y-6070D01*
X553305Y-5783D01*
X552734Y-5500D01*
X551877D02*X552734D01*
X551877D02*X551304Y-5783D01*
X550733Y-6354D01*
X550449Y-7211D01*
Y-7784D01*
X550733Y-8640D01*
X551304Y-9212D01*
X551877Y-9498D01*
X552734D01*
X553305Y-9212D01*
X553875Y-8640D01*
X555675Y-5500D02*Y-9498D01*
Y-6641D02*X556533Y-5783D01*
X557103Y-5500D01*
X557961D01*
X558531Y-5783D01*
X558818Y-6641D01*
Y-9498D01*
X561476Y-3500D02*Y-8357D01*
X561759Y-9214D01*
X562332Y-9500D01*
X562904D01*
X560618Y-5500D02*X562617D01*
X564704Y-7211D02*X568130D01*
Y-6641D02*Y-7211D01*
Y-6641D02*X567845Y-6070D01*
X567560Y-5783D01*
X566988Y-5500D01*
X566132D02*X566988D01*
X566132D02*X565559Y-5783D01*
X564987Y-6354D01*
X564704Y-7211D01*
Y-7784D01*
X564987Y-8640D01*
X565559Y-9212D01*
X566132Y-9498D01*
X566988D01*
X567560Y-9212D01*
X568130Y-8640D01*
X569930Y-5500D02*Y-9498D01*
Y-7214D02*X570215Y-6354D01*
X570788Y-5784D01*
X571358Y-5500D01*
X572216D01*
X574016Y-3500D02*Y-9500D01*
X576101Y-5486D02*Y-9485D01*
X575816Y-3485D02*X576101Y-3772D01*
X576387Y-3485D01*
X576101Y-3200D01*
X575816Y-3485D01*
X578187Y-5500D02*Y-9498D01*
Y-6641D02*X579045Y-5783D01*
X579615Y-5500D01*
X580473D01*
X581043Y-5783D01*
X581330Y-6641D01*
Y-9498D01*
X583130Y-7211D02*X586556D01*
Y-6641D02*Y-7211D01*
Y-6641D02*X586271Y-6070D01*
X585986Y-5783D01*
X585414Y-5500D01*
X584558D02*X585414D01*
X584558D02*X583985Y-5783D01*
X583413Y-6354D01*
X583130Y-7211D01*
Y-7784D01*
X583413Y-8640D01*
X583985Y-9212D01*
X584558Y-9498D01*
X585414D01*
X585986Y-9212D01*
X586556Y-8640D01*
X592484Y-5500D02*X591911Y-5783D01*
X591339Y-6354D01*
X591056Y-7211D01*
Y-7784D01*
X591339Y-8640D01*
X591911Y-9212D01*
X592484Y-9498D01*
X593340D01*
X593912Y-9212D01*
X594482Y-8640D01*
X594768Y-7784D01*
Y-7211D02*Y-7784D01*
Y-7211D02*X594482Y-6354D01*
X593912Y-5783D01*
X593340Y-5500D01*
X592484D02*X593340D01*
X598283Y-3500D02*X598853D01*
X598283D02*X597710Y-3785D01*
X597423Y-4642D01*
Y-9500D01*
X596568Y-5500D02*X598568D01*
X604211Y-3500D02*Y-8357D01*
X604494Y-9214D01*
X605067Y-9500D01*
X605639D01*
X603353Y-5500D02*X605352D01*
X607439Y-3500D02*Y-9500D01*
Y-6642D02*X608294Y-5784D01*
X608867Y-5500D01*
X609723D01*
X610295Y-5784D01*
X610581Y-6642D01*
Y-9500D01*
X612666Y-5486D02*Y-9485D01*
X612381Y-3485D02*X612666Y-3772D01*
X612953Y-3485D01*
X612666Y-3200D01*
X612381Y-3485D01*
X617894Y-6354D02*X617609Y-5784D01*
X616751Y-5500D01*
X615894D02*X616751D01*
X615894D02*X615036Y-5784D01*
X614753Y-6354D01*
X615036Y-6928D01*
X615608Y-7214D01*
X617037Y-7499D01*
X617609Y-7784D01*
X617894Y-8356D01*
Y-8642D01*
X617609Y-9212D01*
X616751Y-9498D01*
X615894D02*X616751D01*
X615894D02*X615036Y-9212D01*
X614753Y-8642D01*
X622394Y-5500D02*Y-11500D01*
Y-6354D02*X622965Y-5784D01*
X623535Y-5500D01*
X624393D01*
X624965Y-5784D01*
X625536Y-6354D01*
X625823Y-7214D01*
Y-7784D01*
X625536Y-8642D01*
X624965Y-9212D01*
X624393Y-9498D01*
X623535D02*X624393D01*
X623535D02*X622965Y-9212D01*
X622394Y-8642D01*
X631052Y-5500D02*Y-9498D01*
Y-6354D02*X630479Y-5783D01*
X629909Y-5500D01*
X629051D02*X629909D01*
X629051D02*X628481Y-5783D01*
X627908Y-6354D01*
X627623Y-7211D01*
Y-7784D01*
X627908Y-8640D01*
X628481Y-9212D01*
X629051Y-9498D01*
X629909D01*
X630479Y-9212D01*
X631052Y-8640D01*
X633710Y-3500D02*Y-8357D01*
X633993Y-9214D01*
X634566Y-9500D01*
X635138D01*
X632852Y-5500D02*X634851D01*
X636938Y-3500D02*Y-9500D01*
Y-6642D02*X637793Y-5784D01*
X638366Y-5500D01*
X639222D01*
X639794Y-5784D01*
X640080Y-6642D01*
Y-9500D01*
X200000Y218500D02*Y212500D01*
Y218500D02*X202001D01*
X202858Y218214D01*
X203429Y217642D01*
X203714Y217072D01*
X203999Y216214D01*
Y214784D01*
X203714Y213928D01*
X203429Y213356D01*
X202858Y212786D01*
X202001Y212500D01*
X200000D02*X202001D01*
X209228Y216500D02*Y212502D01*
Y215646D02*X208655Y216217D01*
X208085Y216500D01*
X207227D02*X208085D01*
X207227D02*X206657Y216217D01*
X206084Y215646D01*
X205799Y214789D01*
Y214216D01*
X206084Y213359D01*
X206657Y212788D01*
X207227Y212502D01*
X208085D01*
X208655Y212788D01*
X209228Y213359D01*
X211886Y218500D02*Y213643D01*
X212170Y212786D01*
X212743Y212500D01*
X213314D01*
X211028Y216500D02*X213028D01*
X215114Y214789D02*X218540D01*
Y215359D02*Y214789D01*
Y215359D02*X218255Y215930D01*
X217970Y216217D01*
X217399Y216500D01*
X216542D02*X217399D01*
X216542D02*X215969Y216217D01*
X215398Y215646D01*
X215114Y214789D01*
Y214216D01*
X215398Y213359D01*
X215969Y212788D01*
X216542Y212502D01*
X217399D01*
X217970Y212788D01*
X218540Y213359D01*
X220625Y214900D02*X220340Y214614D01*
X220625Y214328D01*
X220910Y214614D01*
X220625Y214900D01*
Y212899D02*X220340Y212612D01*
X220625Y212329D01*
X220910Y212612D01*
X220625Y212899D01*
X225410Y218500D02*X226838Y212500D01*
X228268Y218500D02*X226838Y212500D01*
X228268Y218500D02*X229696Y212500D01*
X231124Y218500D02*X229696Y212500D01*
X232924Y214789D02*X236350D01*
Y215359D02*Y214789D01*
Y215359D02*X236065Y215930D01*
X235780Y216217D01*
X235208Y216500D01*
X234352D02*X235208D01*
X234352D02*X233779Y216217D01*
X233207Y215646D01*
X232924Y214789D01*
Y214216D01*
X233207Y213359D01*
X233779Y212788D01*
X234352Y212502D01*
X235208D01*
X235780Y212788D01*
X236350Y213359D01*
X241576Y218500D02*Y212500D01*
Y215644D02*X241006Y216216D01*
X240434Y216500D01*
X239578D02*X240434D01*
X239578D02*X239005Y216216D01*
X238433Y215644D01*
X238150Y214788D01*
Y214216D01*
X238433Y213359D01*
X239005Y212786D01*
X239578Y212500D01*
X240434D01*
X241006Y212786D01*
X241576Y213359D01*
X248362Y218500D02*X246076Y212500D01*
X248362Y218500D02*X250648Y212500D01*
X246934Y214500D02*X249791D01*
X252448Y216500D02*Y213645D01*
X252733Y212788D01*
X253306Y212502D01*
X254162D01*
X254734Y212788D01*
X255590Y213645D01*
Y216500D02*Y212502D01*
X260819Y216500D02*Y211932D01*
X260533Y211074D01*
X260246Y210787D01*
X259676Y210504D01*
X258818D02*X259676D01*
X258818D02*X258248Y210787D01*
X260819Y215646D02*X260246Y216217D01*
X259676Y216500D01*
X258818D02*X259676D01*
X258818D02*X258248Y216217D01*
X257675Y215646D01*
X257390Y214789D01*
Y214216D01*
X257675Y213359D01*
X258248Y212788D01*
X258818Y212502D01*
X259676D01*
X260246Y212788D01*
X260819Y213359D01*
X265319Y217358D02*X265889Y217644D01*
X266747Y218500D01*
Y212500D01*
X269975Y218500D02*X269117Y218215D01*
X268832Y217644D01*
Y217072D01*
X269117Y216500D01*
X269689Y216214D01*
X270832Y215930D01*
X271690Y215644D01*
X272260Y215072D01*
X272546Y214501D01*
Y213643D01*
X272260Y213073D01*
X271973Y212786D01*
X271117Y212500D01*
X269975D02*X271117D01*
X269975D02*X269117Y212786D01*
X268832Y213073D01*
X268547Y213643D01*
Y214501D02*Y213643D01*
Y214501D02*X268832Y215072D01*
X269402Y215644D01*
X270260Y215930D01*
X271403Y216214D01*
X271973Y216500D01*
X272260Y217072D01*
Y217644D02*Y217072D01*
Y217644D02*X271973Y218215D01*
X271117Y218500D01*
X269975D02*X271117D01*
X278761D02*X277904Y218215D01*
X277331Y217358D01*
X277046Y215930D01*
Y215072D01*
X277331Y213643D01*
X277904Y212786D01*
X278761Y212500D01*
X279332D01*
X280189Y212786D01*
X280760Y213643D01*
X281047Y215072D01*
Y215930D02*Y215072D01*
Y215930D02*X280760Y217358D01*
X280189Y218215D01*
X279332Y218500D01*
X278761D02*X279332D01*
X284275D02*X283417Y218215D01*
X283132Y217644D01*
Y217072D01*
X283417Y216500D01*
X283988Y216214D01*
X285131Y215930D01*
X285989Y215644D01*
X286559Y215072D01*
X286846Y214501D01*
Y213643D01*
X286559Y213073D01*
X286273Y212786D01*
X285416Y212500D01*
X284275D02*X285416D01*
X284275D02*X283417Y212786D01*
X283132Y213073D01*
X282847Y213643D01*
Y214501D02*Y213643D01*
Y214501D02*X283132Y215072D01*
X283702Y215644D01*
X284560Y215930D01*
X285703Y216214D01*
X286273Y216500D01*
X286559Y217072D01*
Y217644D02*Y217072D01*
Y217644D02*X286273Y218215D01*
X285416Y218500D01*
X284275D02*X285416D01*
X288931Y214900D02*X288646Y214614D01*
X288931Y214328D01*
X289216Y214614D01*
X288931Y214900D01*
Y212899D02*X288646Y212612D01*
X288931Y212329D01*
X289216Y212612D01*
X288931Y212899D01*
X291016Y217358D02*X291586Y217644D01*
X292444Y218500D01*
Y212500D01*
X297956Y216500D02*X297671Y215644D01*
X297100Y215072D01*
X296242Y214786D01*
X295957D02*X296242D01*
X295957D02*X295100Y215072D01*
X294527Y215644D01*
X294244Y216500D01*
Y216786D02*Y216500D01*
Y216786D02*X294527Y217644D01*
X295100Y218215D01*
X295957Y218500D01*
X296242D01*
X297100Y218215D01*
X297671Y217644D01*
X297956Y216500D01*
Y215072D01*
X297671Y213643D01*
X297100Y212786D01*
X296242Y212500D01*
X295672D02*X296242D01*
X295672D02*X294814Y212786D01*
X294527Y213358D01*
X300041Y214900D02*X299756Y214614D01*
X300041Y214328D01*
X300326Y214614D01*
X300041Y214900D01*
Y212899D02*X299756Y212612D01*
X300041Y212329D01*
X300326Y212612D01*
X300041Y212899D01*
X302126Y217358D02*X302696Y217644D01*
X303554Y218500D01*
Y212500D01*
X305639Y217358D02*Y217072D01*
Y217358D02*X305926Y217928D01*
X306209Y218215D01*
X306782Y218500D01*
X307924D01*
X308497Y218215D01*
X308782Y217928D01*
X309067Y217358D01*
Y216786D01*
X308782Y216214D01*
X308210Y215357D01*
X305354Y212500D01*
X309353D01*
X314138Y217358D02*Y217072D01*
Y217358D02*X314425Y217928D01*
X314708Y218215D01*
X315281Y218500D01*
X316423D01*
X316996Y218215D01*
X317281Y217928D01*
X317566Y217358D01*
Y216786D01*
X317281Y216214D01*
X316709Y215357D01*
X313853Y212500D01*
X317852D01*
X321367Y218500D02*X320510Y218215D01*
X319937Y217358D01*
X319652Y215930D01*
Y215072D01*
X319937Y213643D01*
X320510Y212786D01*
X321367Y212500D01*
X321938D01*
X322795Y212786D01*
X323366Y213643D01*
X323653Y215072D01*
Y215930D02*Y215072D01*
Y215930D02*X323366Y217358D01*
X322795Y218215D01*
X321938Y218500D01*
X321367D02*X321938D01*
X325738Y217358D02*Y217072D01*
Y217358D02*X326024Y217928D01*
X326308Y218215D01*
X326881Y218500D01*
X328022D01*
X328595Y218215D01*
X328880Y217928D01*
X329165Y217358D01*
Y216786D01*
X328880Y216214D01*
X328309Y215357D01*
X325453Y212500D01*
X329452D01*
X331252Y217358D02*X331822Y217644D01*
X332680Y218500D01*
Y212500D01*
X337180Y218500D02*Y214214D01*
X337466Y213356D01*
X338036Y212786D01*
X338894Y212500D01*
X339464D01*
X340322Y212786D01*
X340894Y213356D01*
X341179Y214214D01*
Y218500D02*Y214214D01*
X344978Y218500D02*Y212500D01*
X342979Y218500D02*X346978D01*
X353063Y217072D02*X352777Y217642D01*
X352205Y218214D01*
X351635Y218500D01*
X350491D02*X351635D01*
X350491D02*X349921Y218214D01*
X349348Y217642D01*
X349063Y217072D01*
X348778Y216214D01*
Y214784D01*
X349063Y213928D01*
X349348Y213356D01*
X349921Y212786D01*
X350491Y212500D01*
X351635D01*
X352205Y212786D01*
X352777Y213356D01*
X353063Y213928D01*
X202286Y233500D02*X200000Y227500D01*
X202286Y233500D02*X204572Y227500D01*
X200858Y229500D02*X203716D01*
X206372Y231500D02*Y228645D01*
X206657Y227788D01*
X207230Y227502D01*
X208087D01*
X208658Y227788D01*
X209515Y228645D01*
Y231500D02*Y227502D01*
X212173Y233500D02*Y228643D01*
X212456Y227786D01*
X213029Y227500D01*
X213601D01*
X211315Y231500D02*X213314D01*
X215401Y233500D02*Y227500D01*
Y230357D02*X216256Y231216D01*
X216829Y231500D01*
X217685D01*
X218257Y231216D01*
X218543Y230357D01*
Y227500D01*
X221771Y231500D02*X221198Y231217D01*
X220627Y230646D01*
X220343Y229789D01*
Y229216D01*
X220627Y228359D01*
X221198Y227788D01*
X221771Y227502D01*
X222628D01*
X223199Y227788D01*
X223769Y228359D01*
X224056Y229216D01*
Y229789D02*Y229216D01*
Y229789D02*X223769Y230646D01*
X223199Y231217D01*
X222628Y231500D01*
X221771D02*X222628D01*
X225856D02*Y227502D01*
Y229786D02*X226141Y230646D01*
X226714Y231216D01*
X227284Y231500D01*
X228142D01*
X230227Y229900D02*X229942Y229614D01*
X230227Y229328D01*
X230512Y229614D01*
X230227Y229900D01*
Y227899D02*X229942Y227612D01*
X230227Y227329D01*
X230512Y227612D01*
X230227Y227899D01*
X202000Y248500D02*Y242500D01*
X200000Y248500D02*X203999D01*
X206084Y246514D02*Y242515D01*
X205799Y248515D02*X206084Y248228D01*
X206371Y248515D01*
X206084Y248800D01*
X205799Y248515D01*
X209029Y248500D02*Y243643D01*
X209312Y242786D01*
X209885Y242500D01*
X210457D01*
X208171Y246500D02*X210170D01*
X212257Y248500D02*Y242500D01*
X214057Y244789D02*X217483D01*
Y245359D02*Y244789D01*
Y245359D02*X217198Y245930D01*
X216913Y246217D01*
X216341Y246500D01*
X215485D02*X216341D01*
X215485D02*X214912Y246217D01*
X214340Y245646D01*
X214057Y244789D01*
Y244216D01*
X214340Y243359D01*
X214912Y242788D01*
X215485Y242502D01*
X216341D01*
X216913Y242788D01*
X217483Y243359D01*
X219568Y244900D02*X219283Y244614D01*
X219568Y244328D01*
X219853Y244614D01*
X219568Y244900D01*
Y242899D02*X219283Y242612D01*
X219568Y242329D01*
X219853Y242612D01*
X219568Y242899D01*
X226639Y248500D02*X224353Y242500D01*
X226639Y248500D02*X228925Y242500D01*
X225211Y244500D02*X228068D01*
X230725Y248500D02*X233009Y245643D01*
Y242500D01*
X235297Y248500D02*X233009Y245643D01*
X239383Y248500D02*X237097Y242500D01*
X239383Y248500D02*X241669Y242500D01*
X237955Y244500D02*X240812D01*
X243469Y248500D02*Y242500D01*
Y248500D02*X246040D01*
X246896Y248214D01*
X247183Y247928D01*
X247468Y247355D01*
Y246786D01*
X247183Y246214D01*
X246896Y245928D01*
X246040Y245643D01*
X243469D02*X246040D01*
X246896Y245357D01*
X247183Y245071D01*
X247468Y244500D01*
Y243643D01*
X247183Y243070D01*
X246896Y242786D01*
X246040Y242500D01*
X243469D02*X246040D01*
X249268Y245500D02*X253018D01*
X254818Y248500D02*Y242500D01*
Y248500D02*X257389D01*
X258245Y248214D01*
X258532Y247928D01*
X258817Y247357D01*
Y246786D01*
X258532Y246214D01*
X258245Y245929D01*
X257389Y245643D01*
X254818D02*X257389D01*
X256817D02*X258817Y242500D01*
X264616Y247642D02*X264044Y248214D01*
X263188Y248500D01*
X262045D02*X263188D01*
X262045D02*X261187Y248214D01*
X260617Y247642D01*
Y247072D01*
X260900Y246499D01*
X261187Y246214D01*
X261760Y245929D01*
X263474Y245357D01*
X264044Y245071D01*
X264329Y244786D01*
X264616Y244214D01*
Y243356D01*
X264044Y242786D01*
X263188Y242500D01*
X262045D02*X263188D01*
X262045D02*X261187Y242786D01*
X260617Y243356D01*
X266416Y242500D02*X270166D01*
X271966Y248500D02*Y242500D01*
Y248500D02*X275678D01*
X271966Y245643D02*X274250D01*
X280178Y245500D02*X283928D01*
X288428Y248500D02*Y242500D01*
Y248500D02*X292141D01*
X288428Y245643D02*X290713D01*
X297370Y246500D02*Y242502D01*
Y245646D02*X296797Y246217D01*
X296227Y246500D01*
X295369D02*X296227D01*
X295369D02*X294799Y246217D01*
X294226Y245646D01*
X293941Y244789D01*
Y244216D01*
X294226Y243359D01*
X294799Y242788D01*
X295369Y242502D01*
X296227D01*
X296797Y242788D01*
X297370Y243359D01*
X299170Y248500D02*Y242500D01*
Y245644D02*X299741Y246216D01*
X300311Y246500D01*
X301169D01*
X301739Y246216D01*
X302312Y245644D01*
X302599Y244788D01*
Y244216D01*
X302312Y243359D01*
X301739Y242786D01*
X301169Y242500D01*
X300311D02*X301169D01*
X300311D02*X299741Y242786D01*
X299170Y243359D01*
X304399Y246500D02*Y242502D01*
Y244786D02*X304684Y245646D01*
X305257Y246216D01*
X305827Y246500D01*
X306685D01*
X308770Y246514D02*Y242515D01*
X308485Y248515D02*X308770Y248228D01*
X309056Y248515D01*
X308770Y248800D01*
X308485Y248515D01*
X314285Y245646D02*X313712Y246217D01*
X313142Y246500D01*
X312284D02*X313142D01*
X312284D02*X311714Y246217D01*
X311141Y245646D01*
X310856Y244789D01*
Y244216D01*
X311141Y243359D01*
X311714Y242788D01*
X312284Y242502D01*
X313142D01*
X313712Y242788D01*
X314285Y243359D01*
X319514Y246500D02*Y242502D01*
Y245646D02*X318941Y246217D01*
X318371Y246500D01*
X317513D02*X318371D01*
X317513D02*X316943Y246217D01*
X316370Y245646D01*
X316085Y244789D01*
Y244216D01*
X316370Y243359D01*
X316943Y242788D01*
X317513Y242502D01*
X318371D01*
X318941Y242788D01*
X319514Y243359D01*
X322172Y248500D02*Y243643D01*
X322456Y242786D01*
X323029Y242500D01*
X323600D01*
X321314Y246500D02*X323314D01*
X325685Y246514D02*Y242515D01*
X325400Y248515D02*X325685Y248228D01*
X325972Y248515D01*
X325685Y248800D01*
X325400Y248515D01*
X329200Y246500D02*X328627Y246217D01*
X328055Y245646D01*
X327772Y244789D01*
Y244216D01*
X328055Y243359D01*
X328627Y242788D01*
X329200Y242502D01*
X330056D01*
X330628Y242788D01*
X331198Y243359D01*
X331484Y244216D01*
Y244789D02*Y244216D01*
Y244789D02*X331198Y245646D01*
X330628Y246217D01*
X330056Y246500D01*
X329200D02*X330056D01*
X333284D02*Y242502D01*
Y245359D02*X334142Y246217D01*
X334712Y246500D01*
X335570D01*
X336140Y246217D01*
X336427Y245359D01*
Y242502D01*
X340927Y248500D02*Y242500D01*
Y248500D02*X342928D01*
X343784Y248214D01*
X344356Y247642D01*
X344641Y247072D01*
X344926Y246214D01*
Y244784D01*
X344641Y243928D01*
X344356Y243356D01*
X343784Y242786D01*
X342928Y242500D01*
X340927D02*X342928D01*
X346726Y246500D02*Y242502D01*
Y244786D02*X347011Y245646D01*
X347584Y246216D01*
X348154Y246500D01*
X349012D01*
X354241D02*Y242502D01*
Y245646D02*X353668Y246217D01*
X353098Y246500D01*
X352240D02*X353098D01*
X352240D02*X351670Y246217D01*
X351097Y245646D01*
X350812Y244789D01*
Y244216D01*
X351097Y243359D01*
X351670Y242788D01*
X352240Y242502D01*
X353098D01*
X353668Y242788D01*
X354241Y243359D01*
X356041Y246500D02*X357182Y242502D01*
X358325Y246500D02*X357182Y242502D01*
X358325Y246500D02*X359470Y242502D01*
X360611Y246500D02*X359470Y242502D01*
X362696Y246514D02*Y242515D01*
X362411Y248515D02*X362696Y248228D01*
X362983Y248515D01*
X362696Y248800D01*
X362411Y248515D01*
X364783Y246500D02*Y242502D01*
Y245359D02*X365641Y246217D01*
X366211Y246500D01*
X367069D01*
X367639Y246217D01*
X367925Y245359D01*
Y242502D01*
X373154Y246500D02*Y241932D01*
X372868Y241074D01*
X372581Y240787D01*
X372011Y240504D01*
X371153D02*X372011D01*
X371153D02*X370583Y240787D01*
X373154Y245646D02*X372581Y246217D01*
X372011Y246500D01*
X371153D02*X372011D01*
X371153D02*X370583Y246217D01*
X370010Y245646D01*
X369725Y244789D01*
Y244216D01*
X370010Y243359D01*
X370583Y242788D01*
X371153Y242502D01*
X372011D01*
X372581Y242788D01*
X373154Y243359D01*
M02*
