G04 start of page 11 for group -4015 idx -4015 *
G04 Title: AYAB-RS_F, toppaste *
G04 Creator: pcb 4.0.2 *
G04 CreationDate: Wed Aug 18 08:19:12 2021 UTC *
G04 For: tom *
G04 Format: Gerber/RS-274X *
G04 PCB-Dimensions (mil): 11000.00 1900.00 *
G04 PCB-Coordinate-Origin: lower left *
%MOIN*%
%FSLAX25Y25*%
%LNTOPPASTE*%
%ADD152C,0.0010*%
%ADD151C,0.0410*%
%ADD150C,0.0400*%
%ADD149C,0.0020*%
%ADD148C,0.0280*%
%ADD147C,0.0080*%
%ADD146C,0.0040*%
%ADD145C,0.0001*%
G54D145*G36*
X667500Y107000D02*X660500D01*
Y98500D01*
X667500D01*
Y107000D01*
G37*
G36*
X683500D02*X676500D01*
Y98500D01*
X683500D01*
Y107000D01*
G37*
G36*
X123264Y150638D02*X120256D01*
Y147490D01*
X123264D01*
Y150638D01*
G37*
G36*
X130744D02*X127736D01*
Y147490D01*
X130744D01*
Y150638D01*
G37*
G36*
X127004Y158510D02*X123996D01*
Y155362D01*
X127004D01*
Y158510D01*
G37*
G36*
X102953Y52701D02*Y47189D01*
X111221D01*
Y52701D01*
X102953D01*
G37*
G36*
Y70811D02*Y65299D01*
X111221D01*
Y70811D01*
X102953D01*
G37*
G36*
X138779Y52701D02*Y47189D01*
X147047D01*
Y52701D01*
X138779D01*
G37*
G36*
Y70811D02*Y65299D01*
X147047D01*
Y70811D01*
X138779D01*
G37*
G36*
X107048Y132819D02*Y127701D01*
X112952D01*
Y132819D01*
X107048D01*
G37*
G36*
Y140299D02*Y135181D01*
X112952D01*
Y140299D01*
X107048D01*
G37*
G36*
X118548D02*Y135181D01*
X124452D01*
Y140299D01*
X118548D01*
G37*
G36*
Y132819D02*Y127701D01*
X124452D01*
Y132819D01*
X118548D01*
G37*
G36*
X712458Y58138D02*Y51840D01*
X719542D01*
Y58138D01*
X712458D01*
G37*
G36*
Y69160D02*Y62862D01*
X719542D01*
Y69160D01*
X712458D01*
G37*
G36*
X132660Y101542D02*X126362D01*
Y94458D01*
X132660D01*
Y101542D01*
G37*
G36*
X121638D02*X115340D01*
Y94458D01*
X121638D01*
Y101542D01*
G37*
G36*
X118488Y110968D02*Y107032D01*
X122820D01*
Y110968D01*
X118488D01*
G37*
G36*
X125180D02*Y107032D01*
X129512D01*
Y110968D01*
X125180D01*
G37*
G36*
X451319Y24952D02*X446201D01*
Y19048D01*
X451319D01*
Y24952D01*
G37*
G36*
X458799D02*X453681D01*
Y19048D01*
X458799D01*
Y24952D01*
G37*
G36*
X391810Y24050D02*Y20150D01*
X397710D01*
Y24050D01*
X391810D01*
G37*
G36*
X381910D02*Y20150D01*
X387810D01*
Y24050D01*
X381910D01*
G37*
G36*
X316810D02*Y20150D01*
X322710D01*
Y24050D01*
X316810D01*
G37*
G36*
X306910D02*Y20150D01*
X312810D01*
Y24050D01*
X306910D01*
G37*
G36*
X341810D02*Y20150D01*
X347710D01*
Y24050D01*
X341810D01*
G37*
G36*
X331910D02*Y20150D01*
X337810D01*
Y24050D01*
X331910D01*
G37*
G36*
X366810D02*Y20150D01*
X372710D01*
Y24050D01*
X366810D01*
G37*
G36*
X356910D02*Y20150D01*
X362810D01*
Y24050D01*
X356910D01*
G37*
G36*
X487059Y24952D02*X481941D01*
Y19048D01*
X487059D01*
Y24952D01*
G37*
G36*
X494539D02*X489421D01*
Y19048D01*
X494539D01*
Y24952D01*
G37*
G36*
X888000Y161500D02*Y159500D01*
X896000D01*
Y161500D01*
X888000D01*
G37*
G36*
Y156500D02*Y154500D01*
X896000D01*
Y156500D01*
X888000D01*
G37*
G36*
Y151500D02*Y149500D01*
X896000D01*
Y151500D01*
X888000D01*
G37*
G36*
Y146500D02*Y144500D01*
X896000D01*
Y146500D01*
X888000D01*
G37*
G36*
Y141500D02*Y139500D01*
X896000D01*
Y141500D01*
X888000D01*
G37*
G36*
Y136500D02*Y134500D01*
X896000D01*
Y136500D01*
X888000D01*
G37*
G36*
Y131500D02*Y129500D01*
X896000D01*
Y131500D01*
X888000D01*
G37*
G36*
Y126500D02*Y124500D01*
X896000D01*
Y126500D01*
X888000D01*
G37*
G36*
Y121500D02*Y119500D01*
X896000D01*
Y121500D01*
X888000D01*
G37*
G36*
X924000D02*Y119500D01*
X932000D01*
Y121500D01*
X924000D01*
G37*
G36*
Y126500D02*Y124500D01*
X932000D01*
Y126500D01*
X924000D01*
G37*
G36*
Y131500D02*Y129500D01*
X932000D01*
Y131500D01*
X924000D01*
G37*
G36*
Y136500D02*Y134500D01*
X932000D01*
Y136500D01*
X924000D01*
G37*
G36*
Y141500D02*Y139500D01*
X932000D01*
Y141500D01*
X924000D01*
G37*
G36*
Y146500D02*Y144500D01*
X932000D01*
Y146500D01*
X924000D01*
G37*
G36*
Y151500D02*Y149500D01*
X932000D01*
Y151500D01*
X924000D01*
G37*
G36*
Y156500D02*Y154500D01*
X932000D01*
Y156500D01*
X924000D01*
G37*
G36*
Y161500D02*Y159500D01*
X932000D01*
Y161500D01*
X924000D01*
G37*
G36*
X863700Y162900D02*X861300D01*
Y154300D01*
X863700D01*
Y162900D01*
G37*
G36*
X858700D02*X856300D01*
Y154300D01*
X858700D01*
Y162900D01*
G37*
G36*
X853700D02*X851300D01*
Y154300D01*
X853700D01*
Y162900D01*
G37*
G36*
X848700D02*X846300D01*
Y154300D01*
X848700D01*
Y162900D01*
G37*
G36*
X843700D02*X841300D01*
Y154300D01*
X843700D01*
Y162900D01*
G37*
G36*
X838700D02*X836300D01*
Y154300D01*
X838700D01*
Y162900D01*
G37*
G36*
X833700D02*X831300D01*
Y154300D01*
X833700D01*
Y162900D01*
G37*
G36*
X828700D02*X826300D01*
Y154300D01*
X828700D01*
Y162900D01*
G37*
G36*
Y126700D02*X826300D01*
Y118100D01*
X828700D01*
Y126700D01*
G37*
G36*
X833700D02*X831300D01*
Y118100D01*
X833700D01*
Y126700D01*
G37*
G36*
X838700D02*X836300D01*
Y118100D01*
X838700D01*
Y126700D01*
G37*
G36*
X843700D02*X841300D01*
Y118100D01*
X843700D01*
Y126700D01*
G37*
G36*
X848700D02*X846300D01*
Y118100D01*
X848700D01*
Y126700D01*
G37*
G36*
X853700D02*X851300D01*
Y118100D01*
X853700D01*
Y126700D01*
G37*
G36*
X858700D02*X856300D01*
Y118100D01*
X858700D01*
Y126700D01*
G37*
G36*
X863700D02*X861300D01*
Y118100D01*
X863700D01*
Y126700D01*
G37*
G36*
X239319Y24452D02*X234201D01*
Y18548D01*
X239319D01*
Y24452D01*
G37*
G36*
X246799D02*X241681D01*
Y18548D01*
X246799D01*
Y24452D01*
G37*
G36*
X216819D02*X211701D01*
Y18548D01*
X216819D01*
Y24452D01*
G37*
G36*
X224299D02*X219181D01*
Y18548D01*
X224299D01*
Y24452D01*
G37*
G36*
X461000Y162000D02*Y160000D01*
X469000D01*
Y162000D01*
X461000D01*
G37*
G36*
Y157000D02*Y155000D01*
X469000D01*
Y157000D01*
X461000D01*
G37*
G36*
Y152000D02*Y150000D01*
X469000D01*
Y152000D01*
X461000D01*
G37*
G36*
Y147000D02*Y145000D01*
X469000D01*
Y147000D01*
X461000D01*
G37*
G36*
Y142000D02*Y140000D01*
X469000D01*
Y142000D01*
X461000D01*
G37*
G36*
Y137000D02*Y135000D01*
X469000D01*
Y137000D01*
X461000D01*
G37*
G36*
Y132000D02*Y130000D01*
X469000D01*
Y132000D01*
X461000D01*
G37*
G36*
Y127000D02*Y125000D01*
X469000D01*
Y127000D01*
X461000D01*
G37*
G36*
Y122000D02*Y120000D01*
X469000D01*
Y122000D01*
X461000D01*
G37*
G36*
X497000D02*Y120000D01*
X505000D01*
Y122000D01*
X497000D01*
G37*
G36*
Y127000D02*Y125000D01*
X505000D01*
Y127000D01*
X497000D01*
G37*
G36*
Y132000D02*Y130000D01*
X505000D01*
Y132000D01*
X497000D01*
G37*
G36*
Y137000D02*Y135000D01*
X505000D01*
Y137000D01*
X497000D01*
G37*
G36*
Y142000D02*Y140000D01*
X505000D01*
Y142000D01*
X497000D01*
G37*
G36*
Y147000D02*Y145000D01*
X505000D01*
Y147000D01*
X497000D01*
G37*
G36*
Y152000D02*Y150000D01*
X505000D01*
Y152000D01*
X497000D01*
G37*
G36*
Y157000D02*Y155000D01*
X505000D01*
Y157000D01*
X497000D01*
G37*
G36*
Y162000D02*Y160000D01*
X505000D01*
Y162000D01*
X497000D01*
G37*
G36*
X37819Y166952D02*X32701D01*
Y161048D01*
X37819D01*
Y166952D01*
G37*
G36*
X45299D02*X40181D01*
Y161048D01*
X45299D01*
Y166952D01*
G37*
G36*
X37819Y155952D02*X32701D01*
Y150048D01*
X37819D01*
Y155952D01*
G37*
G36*
X45299D02*X40181D01*
Y150048D01*
X45299D01*
Y155952D01*
G37*
G36*
X413288Y106079D02*X411516D01*
Y102535D01*
X413288D01*
Y106079D01*
G37*
G36*
Y112772D02*X411516D01*
Y109228D01*
X413288D01*
Y112772D01*
G37*
G36*
X410138Y106079D02*X408366D01*
Y102535D01*
X410138D01*
Y106079D01*
G37*
G36*
Y112772D02*X408366D01*
Y109228D01*
X410138D01*
Y112772D01*
G37*
G36*
X406988Y106079D02*X405216D01*
Y102535D01*
X406988D01*
Y106079D01*
G37*
G36*
Y112772D02*X405216D01*
Y109228D01*
X406988D01*
Y112772D01*
G37*
G36*
X403839Y106079D02*X402067D01*
Y102535D01*
X403839D01*
Y106079D01*
G37*
G36*
Y112772D02*X402067D01*
Y109228D01*
X403839D01*
Y112772D01*
G37*
G36*
X808138Y141042D02*X801840D01*
Y133958D01*
X808138D01*
Y141042D01*
G37*
G36*
X819160D02*X812862D01*
Y133958D01*
X819160D01*
Y141042D01*
G37*
G36*
X392336Y155386D02*X390564D01*
Y151842D01*
X392336D01*
Y155386D01*
G37*
G36*
Y162079D02*X390564D01*
Y158535D01*
X392336D01*
Y162079D01*
G37*
G36*
X389186Y155386D02*X387414D01*
Y151842D01*
X389186D01*
Y155386D01*
G37*
G36*
Y162079D02*X387414D01*
Y158535D01*
X389186D01*
Y162079D01*
G37*
G36*
X386036Y155386D02*X384264D01*
Y151842D01*
X386036D01*
Y155386D01*
G37*
G36*
Y162079D02*X384264D01*
Y158535D01*
X386036D01*
Y162079D01*
G37*
G36*
X382887Y155386D02*X381115D01*
Y151842D01*
X382887D01*
Y155386D01*
G37*
G36*
Y162079D02*X381115D01*
Y158535D01*
X382887D01*
Y162079D01*
G37*
G36*
X391160Y146042D02*X384862D01*
Y138958D01*
X391160D01*
Y146042D01*
G37*
G36*
X380138D02*X373840D01*
Y138958D01*
X380138D01*
Y146042D01*
G37*
G36*
X436700Y161400D02*X434300D01*
Y152800D01*
X436700D01*
Y161400D01*
G37*
G36*
X431700D02*X429300D01*
Y152800D01*
X431700D01*
Y161400D01*
G37*
G36*
X426700D02*X424300D01*
Y152800D01*
X426700D01*
Y161400D01*
G37*
G36*
X421700D02*X419300D01*
Y152800D01*
X421700D01*
Y161400D01*
G37*
G36*
X416700D02*X414300D01*
Y152800D01*
X416700D01*
Y161400D01*
G37*
G36*
X411700D02*X409300D01*
Y152800D01*
X411700D01*
Y161400D01*
G37*
G36*
X406700D02*X404300D01*
Y152800D01*
X406700D01*
Y161400D01*
G37*
G36*
X401700D02*X399300D01*
Y152800D01*
X401700D01*
Y161400D01*
G37*
G36*
Y125200D02*X399300D01*
Y116600D01*
X401700D01*
Y125200D01*
G37*
G36*
X406700D02*X404300D01*
Y116600D01*
X406700D01*
Y125200D01*
G37*
G36*
X411700D02*X409300D01*
Y116600D01*
X411700D01*
Y125200D01*
G37*
G36*
X416700D02*X414300D01*
Y116600D01*
X416700D01*
Y125200D01*
G37*
G36*
X421700D02*X419300D01*
Y116600D01*
X421700D01*
Y125200D01*
G37*
G36*
X426700D02*X424300D01*
Y116600D01*
X426700D01*
Y125200D01*
G37*
G36*
X431700D02*X429300D01*
Y116600D01*
X431700D01*
Y125200D01*
G37*
G36*
X436700D02*X434300D01*
Y116600D01*
X436700D01*
Y125200D01*
G37*
G36*
X840686Y106272D02*X838914D01*
Y102728D01*
X840686D01*
Y106272D01*
G37*
G36*
Y112965D02*X838914D01*
Y109421D01*
X840686D01*
Y112965D01*
G37*
G36*
X837536Y106272D02*X835764D01*
Y102728D01*
X837536D01*
Y106272D01*
G37*
G36*
Y112965D02*X835764D01*
Y109421D01*
X837536D01*
Y112965D01*
G37*
G36*
X834386Y106272D02*X832614D01*
Y102728D01*
X834386D01*
Y106272D01*
G37*
G36*
Y112965D02*X832614D01*
Y109421D01*
X834386D01*
Y112965D01*
G37*
G36*
X831237Y106272D02*X829465D01*
Y102728D01*
X831237D01*
Y106272D01*
G37*
G36*
Y112965D02*X829465D01*
Y109421D01*
X831237D01*
Y112965D01*
G37*
G36*
X814036Y156772D02*X812264D01*
Y153228D01*
X814036D01*
Y156772D01*
G37*
G36*
Y163465D02*X812264D01*
Y159921D01*
X814036D01*
Y163465D01*
G37*
G36*
X810886Y156772D02*X809114D01*
Y153228D01*
X810886D01*
Y156772D01*
G37*
G36*
Y163465D02*X809114D01*
Y159921D01*
X810886D01*
Y163465D01*
G37*
G36*
X807736Y156772D02*X805964D01*
Y153228D01*
X807736D01*
Y156772D01*
G37*
G36*
Y163465D02*X805964D01*
Y159921D01*
X807736D01*
Y163465D01*
G37*
G36*
X804587Y156772D02*X802815D01*
Y153228D01*
X804587D01*
Y156772D01*
G37*
G36*
Y163465D02*X802815D01*
Y159921D01*
X804587D01*
Y163465D01*
G37*
G36*
X704350Y45450D02*X692050D01*
Y21950D01*
X704350D01*
Y45450D01*
G37*
G36*
X681350D02*X669050D01*
Y21950D01*
X681350D01*
Y45450D01*
G37*
G54D146*X857235Y18405D02*X858624Y20430D01*
X857235Y18405D02*X857905Y17735D01*
X859925Y19115D01*
X860465Y18785D01*
X861545Y21375D01*
X861135Y21705D02*X861545Y21375D01*
X860535Y22515D02*X861135Y21705D01*
X860145Y23455D02*X860535Y22515D01*
X860010Y24480D02*X860145Y23455D01*
X860010Y24480D02*X860085Y25265D01*
X860325Y26015D01*
X860705Y26735D01*
X861105Y27215D01*
X861725Y27755D01*
X862445Y28155D01*
X863225Y28395D01*
X864005Y28475D01*
X864785Y28395D01*
X865525Y28175D01*
X866235Y27795D01*
X866745Y27355D01*
X867305Y26725D01*
X867655Y26085D01*
X867905Y25305D01*
X867995Y24515D01*
X867855Y23465D02*X867995Y24515D01*
X867475Y22525D02*X867855Y23465D01*
X866865Y21705D02*X867475Y22525D01*
X866465Y21345D02*X866865Y21705D01*
X866465Y21345D02*X867531Y18789D01*
X868085Y19116D01*
X870085Y17735D01*
X870765Y18405D01*
X869395Y20426D02*X870765Y18405D01*
X869395Y20426D02*X870155Y21925D01*
X870645Y23565D01*
X873085Y24025D01*
X873094Y24975D01*
X870595Y25435D02*X873094Y24975D01*
X870085Y27015D02*X870595Y25435D01*
X869295Y28445D02*X870085Y27015D01*
X869295Y28445D02*X870765Y30585D01*
X870085Y31255D02*X870765Y30585D01*
X867925Y29778D02*X870085Y31255D01*
X866515Y30515D02*X867925Y29778D01*
X864965Y30985D02*X866515Y30515D01*
X864475Y33585D02*X864965Y30985D01*
X863525Y33585D02*X864475D01*
X863045Y30995D02*X863525Y33585D01*
X861505Y30515D02*X863045Y30995D01*
X860075Y29775D02*X861505Y30515D01*
X857915Y31256D02*X860075Y29775D01*
X857245Y30595D02*X857915Y31256D01*
X857245Y30595D02*X858685Y28405D01*
X857918Y27005D02*X858685Y28405D01*
X857918Y27005D02*X857925Y27025D01*
X857905Y26965D02*X857925Y27025D01*
X857415Y25435D02*X857905Y26965D01*
X854905Y24975D02*X857415Y25435D01*
X854905Y24975D02*Y24025D01*
X857365Y23575D01*
X857685Y22465D01*
X857855Y21895D01*
X858515Y20635D01*
X858624Y20430D01*
G54D147*X857825Y30745D02*X859885Y29395D01*
X855225Y24545D02*X857435Y23845D01*
X857825Y30745D02*X859325Y28415D01*
X857805Y18275D02*X859155Y20395D01*
X857805Y18275D02*X859665Y19615D01*
X860135Y19330D02*X861015Y21340D01*
X866915Y21300D02*X867725Y19450D01*
X867945Y19750D02*X870135Y18345D01*
X855225Y24565D02*X857525Y24965D01*
X863925Y33305D02*X864485Y30775D01*
X863335Y30835D02*X863925Y33305D01*
X868775Y28525D02*X870095Y30595D01*
X870415Y24070D02*X872675Y24490D01*
X870284Y25037D02*X872675Y24490D01*
X867795Y29325D02*X870095Y30595D01*
X868795Y20570D02*X870135Y18345D01*
G54D148*X858325Y24465D02*X859925Y20865D01*
X858325Y24465D02*X860125Y28365D01*
X863925Y30165D01*
X868125Y28365D01*
X869725Y24465D01*
X868125Y20665D02*X869725Y24465D01*
G54D149*X991400Y167050D02*X991584Y167277D01*
X991584Y167278D02*X991709Y167501D01*
X991709Y167500D02*X992053Y168121D01*
X992064Y168150D02*X992639Y168900D01*
X993043Y169425D01*
X993043Y169426D02*X993298Y170524D01*
X993134Y171595D02*X993298Y170524D01*
X992259Y172646D02*X993134Y171595D01*
X991200Y173441D02*X992278Y172634D01*
X989999Y173695D02*X991202Y173439D01*
X988807Y173439D02*X989999Y173695D01*
X987671Y172652D02*X988807Y173439D01*
X987073Y171712D02*X987680Y172666D01*
X986814Y170505D02*X987073Y171712D01*
X986814Y170506D02*X987070Y169315D01*
X987071Y169314D02*X987778Y168318D01*
X987782Y168320D02*X988083Y167839D01*
X988413Y167296D02*X988608Y167062D01*
X988100Y167810D02*X988413Y167296D01*
G54D150*X988800Y170500D02*X989250Y169600D01*
G54D151*X989100Y171100D03*
G54D149*X993100Y170020D02*X993102Y171152D01*
X993070Y169900D02*X993110Y170080D01*
X992870Y169670D02*X993030Y169830D01*
X992600Y169605D02*X992690Y169610D01*
X992170Y169830D02*X992330Y169670D01*
X992103Y170867D02*Y169910D01*
X991710Y171490D02*X992100Y170870D01*
X990700Y172400D02*X991710Y171490D01*
X990620Y172550D02*X990730Y172340D01*
X990595Y172749D02*X990662Y172982D01*
X990770Y173090D02*X990940Y173190D01*
X991850Y172700D02*X992470Y172150D01*
X992460Y172170D02*X993110Y171140D01*
X990290Y167290D02*X990430Y167990D01*
X990400Y167980D02*X990570Y168190D01*
X990640Y168250D02*X990870Y168320D01*
X991170Y168240D02*X991310Y168110D01*
X990290Y167400D02*X990320Y167110D01*
X990310Y167140D02*X990470Y166910D01*
X990443Y166901D02*X990680Y166820D01*
X990489Y166708D02*X990703Y166816D01*
X989551Y166707D02*X990481Y166706D01*
X989252Y166766D02*X989551Y166707D01*
X989036Y166905D02*X989260Y166780D01*
X988930Y166910D02*X989030Y166890D01*
X988410Y167300D02*X988750Y166890D01*
X991180Y173210D02*X991360Y173144D01*
X991855Y172695D01*
X992720Y169600D02*X992880Y169690D01*
X993020Y169830D02*X993070Y169920D01*
X992610Y169590D02*X992789Y169639D01*
X992260Y169710D02*X992476Y169617D01*
X992440Y169620D02*X992650Y169600D01*
X992140Y169890D02*X992230Y169770D01*
X992080Y170100D02*X992170Y169830D01*
X992230Y169760D02*X992410Y169630D01*
X990940Y173190D02*X991200Y173220D01*
X990643Y172930D02*X990770Y173090D01*
X990603Y172748D02*Y172628D01*
X990600Y172670D02*X990627Y172537D01*
X991090Y173207D02*X991330Y173190D01*
X990590Y172730D02*X990610Y172830D01*
X988740Y166880D02*X988930Y166950D01*
X988980Y166909D02*X989112Y166862D01*
X988776Y166893D02*X988950Y166920D01*
X988850Y166905D02*X988990Y166910D01*
X989120Y166870D02*X989254Y166765D01*
X990340Y167020D02*X990600Y166840D01*
X990300Y167240D02*X990350Y167080D01*
X990332Y167138D02*X990380Y167020D01*
X990510Y168140D02*X990680Y168260D01*
X990960Y168320D02*X991170Y168240D01*
X991280Y168150D02*X991420Y167910D01*
X990390Y167860D02*X990480Y168110D01*
X990446Y168015D02*X990494Y168096D01*
X990820Y168310D02*X991020Y168300D01*
X990769Y168289D02*X990890Y168310D01*
X990620Y168230D02*X990730Y168278D01*
X990930Y168310D02*X991090Y168280D01*
X991105Y168265D02*X991250Y168190D01*
X991340Y168080D02*X991430Y167810D01*
X991390Y168000D02*X991410Y167740D01*
X991270Y167130D02*X991302Y167218D01*
X991180Y166900D02*X991450Y167220D01*
G54D152*X991020Y166911D02*X991133Y166978D01*
X990871Y166853D02*X991011Y166901D01*
X990689Y166866D02*X990806Y166853D01*
X990744Y166783D02*X990870Y166840D01*
X990778Y166851D02*X990925Y166866D01*
X990960Y166860D02*X991130Y166850D01*
X991140Y166840D02*X991240Y166790D01*
X991250D02*X991330Y166880D01*
X991440Y167010D01*
X991630Y167260D01*
G54D149*X991250Y167060D02*X991270Y167130D01*
X991292Y167193D02*X991410Y167800D01*
G54D152*X990800Y166820D02*X990960Y166860D01*
X990860Y166858D02*X990940Y166873D01*
X991101Y166949D01*
X991059Y166935D02*X991127Y166987D01*
X991150Y167009D02*X991229Y167140D01*
X990912Y166848D02*X991020Y166860D01*
X991060Y166854D02*X991210Y166820D01*
X991600Y173100D02*X992271Y172500D01*
X993100Y171400D01*
G54D147*X990300Y172200D02*X991400Y171200D01*
X991700Y170900D02*Y169500D01*
X991800Y169600D02*X992300Y169200D01*
X991600Y168300D02*X992400Y169300D01*
X990900Y168900D02*X991600Y168300D01*
X990100Y168500D02*X991000Y168900D01*
X989800Y167200D02*X990100Y168500D01*
X989000Y167200D02*X989800D01*
X988200Y168500D02*X989000Y167200D01*
X989400Y173200D02*X990400D01*
X988400Y172600D02*X989400Y173300D01*
X988400Y172500D02*X989400Y172200D01*
G54D146*Y167600D02*X990400Y166800D01*
G54D147*X991200Y170900D02*Y169500D01*
X991500Y169100D03*
G54D146*Y167400D02*X991700Y168000D01*
X990000Y166800D02*X990400D01*
X992800Y169300D02*X992900Y169500D01*
X990300Y172800D02*X990500Y172600D01*
X990700Y173400D02*X991200Y173300D01*
M02*
