<?xml version="1.0" encoding="UTF-8" standalone="no"?>
<!-- Created with Inkscape (http://www.inkscape.org/) -->

<svg
   xmlns:dc="http://purl.org/dc/elements/1.1/"
   xmlns:cc="http://creativecommons.org/ns#"
   xmlns:rdf="http://www.w3.org/1999/02/22-rdf-syntax-ns#"
   xmlns:svg="http://www.w3.org/2000/svg"
   xmlns="http://www.w3.org/2000/svg"
   xmlns:sodipodi="http://sodipodi.sourceforge.net/DTD/sodipodi-0.dtd"
   xmlns:inkscape="http://www.inkscape.org/namespaces/inkscape"
   width="14in"
   height="8.5in"
   viewBox="0 0 1260 765"
   id="svg23886"
   version="1.1"
   inkscape:version="0.91 r13725"
   sodipodi:docname="910-950_v4.svg">
  <defs
     id="defs23888" />
  <sodipodi:namedview
     id="base"
     pagecolor="#ffffff"
     bordercolor="#666666"
     borderopacity="1.0"
     inkscape:pageopacity="0.0"
     inkscape:pageshadow="2"
     inkscape:zoom="0.8047619"
     inkscape:cx="630"
     inkscape:cy="382.5"
     inkscape:document-units="px"
     inkscape:current-layer="layer1"
     showgrid="false"
     fit-margin-top="0"
     fit-margin-left="0"
     fit-margin-right="0"
     fit-margin-bottom="0"
     inkscape:window-width="1436"
     inkscape:window-height="855"
     inkscape:window-x="0"
     inkscape:window-y="1"
     inkscape:window-maximized="1"
     units="in" />
  <metadata
     id="metadata23891">
    <rdf:RDF>
      <cc:Work
         rdf:about="">
        <dc:format>image/svg+xml</dc:format>
        <dc:type
           rdf:resource="http://purl.org/dc/dcmitype/StillImage" />
        <dc:title></dc:title>
      </cc:Work>
    </rdf:RDF>
  </metadata>
  <g
     inkscape:label="Layer 1"
     inkscape:groupmode="layer"
     id="layer1"
     transform="translate(285.69414,279.86641)">
    <path
       inkscape:connector-curvature="0"
       style="display:inline;opacity:1;fill:none;fill-opacity:1;stroke:#9e3f3f;stroke-width:0.9;stroke-linecap:round;stroke-linejoin:round;stroke-miterlimit:4;stroke-dasharray:none;stroke-opacity:1"
       d="m 719.62739,344.14286 12.50195,0 c 0.9972,0 1.80078,0.80358 1.80078,1.80079 l 0,10.30468 0,1.88086 0,14.96875 c 0,0.9972 -0.80358,1.79883 -1.80078,1.79883 l -34.69727,0 c -0.9972,0 -1.79883,-0.80163 -1.79883,-1.79883 l 0,-16.84961 c 0,-0.9972 0.80163,-1.80078 1.79883,-1.80078 l 20.39453,0 0,-8.5039 c 0,-0.99721 0.80358,-1.80079 1.80079,-1.80079 z"
       id="kh930_J6B" />
    <path
       inkscape:connector-curvature="0"
       style="display:inline;fill:none;fill-opacity:1;fill-rule:evenodd;stroke:#9e3f3f;stroke-width:0.9;stroke-miterlimit:4;stroke-dasharray:none;stroke-opacity:1"
       d="m 710.39692,339.30497 c 0,-8.88183 -13.32031,-8.88183 -13.32031,0 0,8.87695 13.32031,8.87695 13.32031,0"
       id="hole_right_back" />
    <path
       inkscape:connector-curvature="0"
       style="display:inline;fill:none;fill-opacity:1;fill-rule:evenodd;stroke:#9e3f3f;stroke-width:0.9;stroke-miterlimit:4;stroke-dasharray:none;stroke-opacity:1"
       d="m 710.39692,272.70341 c 0,-8.88184 -13.32031,-8.88184 -13.32031,0 0,8.88184 13.32031,8.88184 13.32031,0"
       id="hole_right_front" />
    <rect
       style="display:inline;opacity:1;fill:none;fill-opacity:1;stroke:#9e3f3f;stroke-width:0.9;stroke-linecap:round;stroke-linejoin:round;stroke-miterlimit:4;stroke-dasharray:none;stroke-opacity:1"
       width="182.75652"
       height="41.588818"
       x="270.16263"
       y="238.17447"
       rx="1.8"
       ry="1.8"
       id="panel" />
    <path
       inkscape:connector-curvature="0"
       style="display:inline;fill:none;fill-opacity:1;fill-rule:evenodd;stroke:#9e3f3f;stroke-width:0.9;stroke-miterlimit:4;stroke-dasharray:none;stroke-opacity:1"
       d="m 249.14692,272.70341 c 0,-8.88184 -13.32031,-8.88184 -13.32031,0 0,8.88184 13.32031,8.88184 13.32031,0"
       id="hole_middle_front" />
    <path
       inkscape:connector-curvature="0"
       style="display:inline;fill:none;fill-opacity:1;fill-rule:evenodd;stroke:#9e3f3f;stroke-width:0.9;stroke-miterlimit:4;stroke-dasharray:none;stroke-opacity:1"
       d="m 249.14692,339.30497 c 0,-8.88183 -13.32031,-8.88183 -13.32031,0 0,8.87695 13.32031,8.87695 13.32031,0"
       id="hole_middle_back" />
    <path
       inkscape:connector-curvature="0"
       style="display:inline;opacity:1;fill:none;fill-opacity:1;stroke:#9e3f3f;stroke-width:0.9;stroke-linecap:round;stroke-linejoin:round;stroke-miterlimit:4;stroke-dasharray:none;stroke-opacity:1"
       d="m 23.9184,334.62724 112.16992,0 c 0.9972,0 1.79883,0.80163 1.79883,1.79883 l 0,17.45703 c 0,0.9972 -0.80163,1.80078 -1.79883,1.80078 l -112.16992,0 c -0.9972,0 -1.79883,-0.80358 -1.79883,-1.80078 l 0,-17.45703 c 0,-0.9972 0.80163,-1.79883 1.79883,-1.79883 z"
       id="kh930_J5B" />
    <path
       inkscape:connector-curvature="0"
       style="display:inline;opacity:1;fill:none;fill-opacity:1;stroke:#9e3f3f;stroke-width:0.9;stroke-linecap:round;stroke-linejoin:round;stroke-miterlimit:4;stroke-dasharray:none;stroke-opacity:1"
       d="m -79.75347,334.02763 94.35937,0 c 0.9972,0 1.80078,0.80358 1.80078,1.80078 l 0,17.45508 c 0,0.9972 -0.80358,1.80078 -1.80078,1.80078 l -94.35937,0 c -0.9972,0 -1.80079,-0.80358 -1.80079,-1.80078 l 0,-17.45508 c 0,-0.9972 0.80359,-1.80078 1.80079,-1.80078 z"
       id="kh930_J4B" />
    <path
       inkscape:connector-curvature="0"
       style="display:inline;opacity:1;fill:none;fill-opacity:1;stroke:#9e3f3f;stroke-width:0.9;stroke-linecap:round;stroke-linejoin:round;stroke-miterlimit:4;stroke-dasharray:none;stroke-opacity:1"
       d="m -60.0191,271.80888 68.10156,0 c 0.9972,0 1.79883,0.80163 1.79883,1.79883 l 0,16.67773 c 0,0.9972 -0.80163,1.80078 -1.79883,1.80078 l -68.10156,0 c -0.9972,0 -1.80078,-0.80358 -1.80078,-1.80078 l 0,-16.67773 c 0,-0.9972 0.80358,-1.79883 1.80078,-1.79883 z" 
       id="kh930_J3B" />
    <path
       inkscape:connector-curvature="0"
       style="display:inline;fill:none;stroke:#9e3f3f;stroke-width:0.9;stroke-miterlimit:4;stroke-dasharray:none;stroke-opacity:1"
       d="m 34.225013,270.09109 c 0,11.68461 9.46781,21.15233 21.15234,21.15233 11.67975,0 21.14747,-9.46772 21.14747,-21.15233 0,-11.67967 -9.46772,-21.14748 -21.14747,-21.14748 -11.68453,0 -21.15234,9.46781 -21.15234,21.14748"
       id="kh930_L1" />
    <rect
       y="217.09747"
       x="32.311363"
       height="23.387815"
       width="1.3540316"
       style="display:inline;opacity:1;fill:none;fill-opacity:1;stroke:#9e3f3f;stroke-width:0.9;stroke-linecap:round;stroke-linejoin:round;stroke-miterlimit:4;stroke-dasharray:none;stroke-opacity:1"
       id="kh930_J8J9_right" />
    <rect
       y="-28.072319"
       x="245.22441"
       height="46.037067"
       width="1.3540316"
       style="display:inline;opacity:1;fill:none;fill-opacity:1;stroke:#9e3f3f;stroke-width:0.9;stroke-linecap:round;stroke-linejoin:round;stroke-miterlimit:4;stroke-dasharray:none;stroke-opacity:1"
       transform="matrix(0,1,-1,0,0,0)"
       id="kh930_J8J9_back" />
    <rect
       style="display:inline;opacity:1;fill:none;fill-opacity:1;stroke:#9e3f3f;stroke-width:0.9;stroke-linecap:round;stroke-linejoin:round;stroke-miterlimit:4;stroke-dasharray:none;stroke-opacity:1"
       width="1.3540316"
       height="23.387815"
       x="-23.688591"
       y="217.09747"
       id="kh930_J8J9_left" />
    <path
       inkscape:connector-curvature="0"
       style="display:inline;fill:none;fill-opacity:1;fill-rule:evenodd;stroke:#9e3f3f;stroke-width:0.9;stroke-miterlimit:4;stroke-dasharray:none;stroke-opacity:1"
       d="m -212.10308,272.70341 c 0,-8.88184 -13.32031,-8.88184 -13.32031,0 0,8.88184 13.32031,8.88184 13.32031,0"
       id="hole_left_front" />
    <path
       inkscape:connector-curvature="0"
       style="display:inline;fill:none;fill-opacity:1;fill-rule:evenodd;stroke:#9e3f3f;stroke-width:0.9;stroke-miterlimit:4;stroke-dasharray:none;stroke-opacity:1"
       d="m -212.10308,339.30497 c 0,-8.88183 -13.32031,-8.88183 -13.32031,0 0,8.87695 13.32031,8.87695 13.32031,0"
       id="hole_left_back" />
    <path
       inkscape:connector-curvature="0"
       style="display:inline;opacity:1;fill:none;fill-opacity:1;stroke:#9e3f3f;stroke-width:0.9;stroke-linecap:round;stroke-linejoin:round;stroke-miterlimit:4;stroke-dasharray:none;stroke-opacity:1"
       d="m -236.66168,354.53154 36.43555,0 c 0.9972,0 1.80078,0.80162 1.80078,1.79882 l 0,16.78321 c 0,0.9972 -0.80358,1.79883 -1.80078,1.79883 l -36.43555,0 c -0.9972,0 -1.79883,-0.80163 -1.79883,-1.79883 l 0,-1.06641 -8.74414,0 c -0.9972,0 -1.80078,-0.80358 -1.80078,-1.80078 l 0,-4.94531 c 0,-0.9972 0.80358,-1.79883 1.80078,-1.79883 l 8.74414,0 0,-7.17188 c 0,-0.9972 0.80163,-1.79882 1.79883,-1.79882 z"
       id="kh930_J2B" />
    <rect
       style="display:inline;opacity:1;fill:none;fill-opacity:1;stroke:#9e3f3f;stroke-width:0.9;stroke-linecap:round;stroke-linejoin:round;stroke-miterlimit:4;stroke-dasharray:none;stroke-opacity:1"
       width="1008"
       height="171"
       x="-261.4693"
       y="212.00046"
       rx="11.25"
       ry="11.25"
       id="outline" />
  </g>
</svg>
