<?xml version="1.0" encoding="UTF-8" standalone="no"?>
<!-- Created with Inkscape (http://www.inkscape.org/) -->

<svg
   xmlns:dc="http://purl.org/dc/elements/1.1/"
   xmlns:cc="http://creativecommons.org/ns#"
   xmlns:rdf="http://www.w3.org/1999/02/22-rdf-syntax-ns#"
   xmlns:svg="http://www.w3.org/2000/svg"
   xmlns="http://www.w3.org/2000/svg"
   xmlns:sodipodi="http://sodipodi.sourceforge.net/DTD/sodipodi-0.dtd"
   xmlns:inkscape="http://www.inkscape.org/namespaces/inkscape"
   width="284.73401mm"
   height="48.514mm"
   viewBox="0 0 1008.9 171.9"
   id="svg23245"
   version="1.1"
   inkscape:version="0.91 r13725"
   sodipodi:docname="Reverse.svg">
  <defs
     id="defs23247" />
  <sodipodi:namedview
     id="base"
     pagecolor="#ffffff"
     bordercolor="#666666"
     borderopacity="1.0"
     inkscape:pageopacity="0.0"
     inkscape:pageshadow="2"
     inkscape:zoom="1.0233121"
     inkscape:cx="504.45078"
     inkscape:cy="82.442665"
     inkscape:document-units="px"
     inkscape:current-layer="layer1"
     showgrid="false"
     fit-margin-top="0"
     fit-margin-left="0"
     fit-margin-right="0"
     fit-margin-bottom="0"
     inkscape:window-width="1436"
     inkscape:window-height="855"
     inkscape:window-x="0"
     inkscape:window-y="1"
     inkscape:window-maximized="1" />
  <metadata
     id="metadata23250">
    <rdf:RDF>
      <cc:Work
         rdf:about="">
        <dc:format>image/svg+xml</dc:format>
        <dc:type
           rdf:resource="http://purl.org/dc/dcmitype/StillImage" />
        <dc:title></dc:title>
      </cc:Work>
    </rdf:RDF>
  </metadata>
  <g
     inkscape:label="Layer 1"
     inkscape:groupmode="layer"
     id="layer1"
     transform="translate(284.91367,-335.14422)">
    <rect
       style="display:inline;opacity:1;fill:none;fill-opacity:1;stroke:#9e3f3f;stroke-width:0.89999998;stroke-linecap:round;stroke-linejoin:round;stroke-miterlimit:4;stroke-dasharray:none;stroke-opacity:1"
       id="rect22366"
       width="39.320908"
       height="62.006004"
       x="285.47192"
       y="436.22089" />
    <rect
       style="display:inline;opacity:1;fill:none;fill-opacity:1;stroke:#9e3f3f;stroke-width:0.89999998;stroke-linecap:round;stroke-linejoin:round;stroke-miterlimit:4;stroke-dasharray:none;stroke-opacity:1"
       id="rect22381"
       width="23.163385"
       height="14.890747"
       x="-174.89601"
       y="345.88971" />
    <path
       style="display:inline;opacity:1;fill:none;fill-opacity:1;stroke:#9e3f3f;stroke-width:0.89999998;stroke-linecap:round;stroke-linejoin:round;stroke-miterlimit:4;stroke-dasharray:none;stroke-opacity:1"
       d="m 11.699219,0.44921875 c -6.2325003,0 -11.25000025,5.01749995 -11.25000025,11.25000025 l 0,148.500001 c 0,6.2325 5.01749995,11.25 11.25000025,11.25 l 85.027343,0 8.326168,-10.67188 0,-16.42968 34.33204,0 0,16.42968 8.32617,10.67188 849.48828,0 c 6.23248,0 11.24998,-5.0175 11.24998,-11.25 l 0,-148.500001 c 0,-6.2325003 -5.0175,-11.25000025 -11.24998,-11.25000025 l -985.500001,0 z"
       transform="translate(-284.91289,335.145)"
       id="rect22193-0"
       inkscape:connector-curvature="0" />
    <path
       inkscape:connector-curvature="0"
       style="display:inline;fill:none;fill-opacity:1;fill-rule:evenodd;stroke:#000000;stroke-width:0.90000004;stroke-miterlimit:4;stroke-dasharray:none;stroke-opacity:1"
       d="m -235.09668,396.29792 c 0,-8.88184 -13.32031,-8.88184 -13.32031,0 0,8.88183 13.32031,8.88183 13.32031,0"
       id="path13-8-3" />
    <path
       inkscape:connector-curvature="0"
       style="display:inline;fill:none;fill-opacity:1;fill-rule:evenodd;stroke:#000000;stroke-width:0.90000004;stroke-miterlimit:4;stroke-dasharray:none;stroke-opacity:1"
       d="m -235.09668,462.89948 c 0,-8.88183 -13.32031,-8.88183 -13.32031,0 0,8.87695 13.32031,8.87695 13.32031,0"
       id="path15-1-3" />
    <path
       inkscape:connector-curvature="0"
       style="display:inline;fill:none;fill-opacity:1;fill-rule:evenodd;stroke:#000000;stroke-width:0.90000004;stroke-miterlimit:4;stroke-dasharray:none;stroke-opacity:1"
       d="m 226.15332,396.29792 c 0,-8.88184 -13.32031,-8.88184 -13.32031,0 0,8.88183 13.32031,8.88183 13.32031,0"
       id="path17-6-6" />
    <path
       inkscape:connector-curvature="0"
       style="display:inline;fill:none;fill-opacity:1;fill-rule:evenodd;stroke:#000000;stroke-width:0.90000004;stroke-miterlimit:4;stroke-dasharray:none;stroke-opacity:1"
       d="m 226.15332,462.89948 c 0,-8.88183 -13.32031,-8.88183 -13.32031,0 0,8.87695 13.32031,8.87695 13.32031,0"
       id="path19-7-2" />
    <path
       inkscape:connector-curvature="0"
       style="display:inline;fill:none;fill-opacity:1;fill-rule:evenodd;stroke:#000000;stroke-width:0.90000004;stroke-miterlimit:4;stroke-dasharray:none;stroke-opacity:1"
       d="m 687.40332,396.29792 c 0,-8.88184 -13.32031,-8.88184 -13.32031,0 0,8.88183 13.32031,8.88183 13.32031,0"
       id="path21-9-5" />
    <path
       inkscape:connector-curvature="0"
       style="display:inline;fill:none;fill-opacity:1;fill-rule:evenodd;stroke:#000000;stroke-width:0.90000004;stroke-miterlimit:4;stroke-dasharray:none;stroke-opacity:1"
       d="m 687.40332,462.89948 c 0,-8.88183 -13.32031,-8.88183 -13.32031,0 0,8.87695 13.32031,8.87695 13.32031,0"
       id="path23-3-5" />
  </g>
</svg>
