M48
; DRILL file {KiCad (6.0.10-0)} date 
; FORMAT={-:-/ absolute / inch / decimal}
; #@! TF.CreationDate,2024-08-12T21:48:57-07:00
; #@! TF.GenerationSoftware,Kicad,Pcbnew,(6.0.10-0)
; #@! TF.FileFunction,Plated,1,2,PTH
FMAT,2
INCH
; #@! TA.AperFunction,Plated,PTH,ViaDrill
T1C0.0315
; #@! TA.AperFunction,Plated,PTH,ComponentDrill
T2C0.0315
; #@! TA.AperFunction,Plated,PTH,ComponentDrill
T3C0.0320
; #@! TA.AperFunction,Plated,PTH,ComponentDrill
T4C0.0394
; #@! TA.AperFunction,Plated,PTH,ComponentDrill
T5C0.0400
; #@! TA.AperFunction,Plated,PTH,ComponentDrill
T6C0.0512
; #@! TA.AperFunction,Plated,PTH,ComponentDrill
T7C0.0787
%
G90
G05
T1
X6.377Y-4.409
T2
X4.4995Y-4.3047
X4.4995Y-4.3834
X4.4995Y-4.4621
X4.4995Y-4.5409
X4.4995Y-4.6196
X4.4995Y-4.6984
X4.4995Y-4.7771
X4.4995Y-4.8559
X4.4995Y-4.9346
X4.4995Y-5.0133
X4.9225Y-3.3329
X4.9225Y-3.4116
X4.9225Y-3.4904
X4.9225Y-3.5691
X4.9225Y-3.6479
X4.9225Y-3.7266
X4.9225Y-3.8054
X4.9225Y-3.8841
X5.823Y-4.7503
X5.823Y-4.829
X5.823Y-4.9077
X6.863Y-3.372
X6.863Y-3.4508
X6.863Y-3.5295
X6.863Y-3.6082
X6.863Y-3.687
X6.87Y-4.1733
X6.87Y-4.252
X6.87Y-4.3307
T3
X4.7895Y-4.159
X4.7895Y-4.259
X4.7895Y-4.359
X4.7895Y-4.459
X4.7895Y-4.559
X4.7895Y-4.659
X4.7895Y-4.759
X4.7895Y-4.859
X4.7895Y-4.959
X5.0895Y-4.159
X5.0895Y-4.259
X5.0895Y-4.359
X5.0895Y-4.459
X5.0895Y-4.559
X5.0895Y-4.659
X5.0895Y-4.759
X5.0895Y-4.859
X5.0895Y-4.959
X5.2395Y-3.309
X5.2395Y-3.409
X5.2395Y-3.509
X5.2395Y-3.609
X5.2395Y-3.709
X5.2395Y-3.809
X5.2395Y-3.909
X5.2395Y-4.009
X5.2395Y-4.109
X5.2395Y-4.334
X5.2395Y-4.434
X5.2395Y-4.534
X5.2395Y-4.634
X5.2395Y-4.734
X5.2395Y-4.834
X5.2395Y-4.934
X5.2395Y-5.034
X5.2395Y-5.134
X5.5395Y-3.309
X5.5395Y-3.409
X5.5395Y-3.509
X5.5395Y-3.609
X5.5395Y-3.709
X5.5395Y-3.809
X5.5395Y-3.909
X5.5395Y-4.009
X5.5395Y-4.109
X5.5395Y-4.334
X5.5395Y-4.434
X5.5395Y-4.534
X5.5395Y-4.634
X5.5395Y-4.734
X5.5395Y-4.834
X5.5395Y-4.934
X5.5395Y-5.034
X5.5395Y-5.134
X5.702Y-3.409
X5.702Y-3.509
X5.702Y-3.609
X5.702Y-3.709
X5.702Y-3.809
X5.702Y-3.909
X5.702Y-4.009
X5.702Y-4.109
X5.702Y-4.209
X5.777Y-4.334
X5.877Y-4.334
X6.002Y-3.409
X6.002Y-3.509
X6.002Y-3.609
X6.002Y-3.709
X6.002Y-3.809
X6.002Y-3.909
X6.002Y-4.009
X6.002Y-4.109
X6.002Y-4.209
X6.077Y-4.334
X6.177Y-3.6965
X6.177Y-3.7965
X6.177Y-3.884
X6.177Y-3.984
X6.177Y-4.334
X6.3645Y-3.6965
X6.3645Y-3.7965
X6.3645Y-3.884
X6.3645Y-3.984
X7.052Y-3.384
X7.052Y-3.484
X7.052Y-3.5715
X7.052Y-3.6715
T4
X4.6145Y-4.2161
X4.6145Y-4.3145
X4.6145Y-4.4129
X4.6145Y-4.5114
X4.6145Y-4.6098
X4.6145Y-4.7082
X4.6145Y-4.8066
X4.6145Y-4.9051
X4.6145Y-5.0035
X4.6145Y-5.1019
X5.0395Y-3.2645
X5.0395Y-3.3629
X5.0395Y-3.4614
X5.0395Y-3.5598
X5.0395Y-3.6582
X5.0395Y-3.7566
X5.0395Y-3.8551
X5.0395Y-3.9535
X5.2795Y-3.184
X5.3795Y-3.184
X5.4795Y-3.184
X5.5795Y-3.184
X5.6395Y-5.084
X5.6795Y-3.184
X5.7395Y-5.084
X5.7795Y-3.184
X5.8395Y-5.084
X5.8795Y-3.184
X5.927Y-4.7106
X5.927Y-4.809
X5.927Y-4.9074
X5.9395Y-5.084
X5.9795Y-3.184
X6.0395Y-5.084
X6.0795Y-3.184
X6.1395Y-5.084
X6.1795Y-3.184
X6.2395Y-5.084
X6.3395Y-3.184
X6.3395Y-5.084
X6.4395Y-3.184
X6.5395Y-3.184
X6.5395Y-5.084
X6.6145Y-3.3786
X6.6145Y-3.477
X6.6145Y-3.5754
X6.6145Y-3.6739
X6.6145Y-3.7723
X6.6145Y-3.8707
X6.6145Y-3.9691
X6.6145Y-4.0676
X6.6145Y-4.166
X6.6145Y-4.2644
X6.6395Y-3.184
X6.6395Y-5.084
X6.7395Y-3.184
X6.7395Y-5.084
X6.752Y-3.3746
X6.752Y-3.4731
X6.752Y-3.5715
X6.752Y-3.6699
X6.752Y-3.7684
X6.7645Y-4.1731
X6.7645Y-4.2715
X6.7645Y-4.3699
X6.8395Y-3.184
X6.8395Y-5.084
X6.9395Y-3.184
X6.9395Y-5.084
X7.0395Y-3.184
X7.0395Y-5.084
T5
X6.227Y-3.409
X6.227Y-3.509
X6.3245Y-4.609
X6.3245Y-4.709
X6.3245Y-4.809
X6.3245Y-4.909
T6
X6.6208Y-4.734
X6.7684Y-4.734
X7.0145Y-4.5371
X7.0145Y-4.9309
T7
X7.0645Y-3.9746
X7.0645Y-4.1715
X7.0645Y-4.3684
X7.0645Y-4.6636
T0
M30
