%TF.GenerationSoftware,KiCad,Pcbnew,(6.0.10-0)*%
%TF.CreationDate,2024-08-12T21:49:00-07:00*%
%TF.ProjectId,arduino_shield,61726475-696e-46f5-9f73-6869656c642e,1.4TH Rev A*%
%TF.SameCoordinates,Original*%
%TF.FileFunction,Soldermask,Top*%
%TF.FilePolarity,Negative*%
%FSLAX46Y46*%
G04 Gerber Fmt 4.6, Leading zero omitted, Abs format (unit mm)*
G04 Created by KiCad (PCBNEW (6.0.10-0)) date 2024-08-12 21:49:00*
%MOMM*%
%LPD*%
G01*
G04 APERTURE LIST*
G04 Aperture macros list*
%AMFreePoly0*
4,1,17,0.309468,0.696321,0.696321,0.309468,0.711200,0.273547,0.711200,-0.273547,0.696321,-0.309468,0.309468,-0.696321,0.273547,-0.711200,-0.273547,-0.711200,-0.309468,-0.696321,-0.696321,-0.309468,-0.711200,-0.273547,-0.711200,0.273547,-0.696321,0.309468,-0.309468,0.696321,-0.273547,0.711200,0.273547,0.711200,0.309468,0.696321,0.309468,0.696321,$1*%
G04 Aperture macros list end*
%ADD10C,1.524000*%
%ADD11O,2.743200X1.422400*%
%ADD12O,3.149600X1.625600*%
%ADD13C,2.286000*%
%ADD14O,3.117600X1.609600*%
%ADD15FreePoly0,180.000000*%
%ADD16FreePoly0,90.000000*%
%ADD17C,3.000000*%
%ADD18O,1.609600X3.117600*%
%ADD19FreePoly0,0.000000*%
%ADD20O,6.101600X3.101600*%
G04 APERTURE END LIST*
D10*
%TO.C,JP7A0*%
X174498000Y-106000800D03*
X174498000Y-108000800D03*
X174498000Y-110000800D03*
%TD*%
D11*
%TO.C,IC4*%
X144830800Y-86588600D03*
X144830800Y-89128600D03*
X144830800Y-91668600D03*
X144830800Y-94208600D03*
X144830800Y-96748600D03*
X144830800Y-99288600D03*
X144830800Y-101828600D03*
X144830800Y-104368600D03*
X144830800Y-106908600D03*
X152450800Y-106908600D03*
X152450800Y-104368600D03*
X152450800Y-101828600D03*
X152450800Y-99288600D03*
X152450800Y-96748600D03*
X152450800Y-94208600D03*
X152450800Y-91668600D03*
X152450800Y-89128600D03*
X152450800Y-86588600D03*
%TD*%
D12*
%TO.C,JP6*%
X158165800Y-89128600D03*
X158165800Y-86588600D03*
%TD*%
D13*
%TO.C,X1*%
X178168300Y-115243600D03*
X178168300Y-125243600D03*
X171918300Y-120243600D03*
X168168300Y-120243600D03*
%TD*%
D10*
%TO.C,JP4A0*%
X114287300Y-127338600D03*
X114287300Y-125338600D03*
X114287300Y-123338600D03*
X114287300Y-121338600D03*
X114287300Y-119338600D03*
X114287300Y-117338600D03*
X114287300Y-115338600D03*
X114287300Y-113338600D03*
X114287300Y-111338600D03*
X114287300Y-109338600D03*
%TD*%
D14*
%TO.C,JP4*%
X117208300Y-129588600D03*
X117208300Y-127088600D03*
X117208300Y-124588600D03*
X117208300Y-122088600D03*
X117208300Y-119588600D03*
X117208300Y-117088600D03*
X117208300Y-114588600D03*
X117208300Y-112088600D03*
X117208300Y-109588600D03*
X117208300Y-107088600D03*
%TD*%
D15*
%TO.C,R1*%
X149275800Y-110083600D03*
X146735800Y-110083600D03*
%TD*%
D10*
%TO.C,JP8A0*%
X174320200Y-85649300D03*
X174320200Y-87649300D03*
X174320200Y-89649300D03*
X174320200Y-91649300D03*
X174320200Y-93649300D03*
%TD*%
D11*
%TO.C,IC3*%
X133083300Y-110083600D03*
X133083300Y-112623600D03*
X133083300Y-115163600D03*
X133083300Y-117703600D03*
X133083300Y-120243600D03*
X133083300Y-122783600D03*
X133083300Y-125323600D03*
X133083300Y-127863600D03*
X133083300Y-130403600D03*
X140703300Y-130403600D03*
X140703300Y-127863600D03*
X140703300Y-125323600D03*
X140703300Y-122783600D03*
X140703300Y-120243600D03*
X140703300Y-117703600D03*
X140703300Y-115163600D03*
X140703300Y-112623600D03*
X140703300Y-110083600D03*
%TD*%
D16*
%TO.C,R5*%
X161658300Y-101193600D03*
X161658300Y-98653600D03*
%TD*%
%TO.C,LED1*%
X179120800Y-88493600D03*
X179120800Y-85953600D03*
%TD*%
%TO.C,R4*%
X156895800Y-101193600D03*
X156895800Y-98653600D03*
%TD*%
D14*
%TO.C,JP3*%
X128003300Y-100418600D03*
X128003300Y-97918600D03*
X128003300Y-95418600D03*
X128003300Y-92918600D03*
X128003300Y-90418600D03*
X128003300Y-87918600D03*
X128003300Y-85418600D03*
X128003300Y-82918600D03*
%TD*%
D17*
%TO.C,ARD1*%
X181343300Y-96113600D03*
X181343300Y-124053600D03*
X130543300Y-80873600D03*
X129273300Y-129133600D03*
D18*
X178803300Y-80873600D03*
X176263300Y-80873600D03*
X173723300Y-80873600D03*
X171183300Y-80873600D03*
X150863300Y-129133600D03*
X168643300Y-80873600D03*
X166103300Y-80873600D03*
X153403300Y-129133600D03*
X163563300Y-80873600D03*
X161023300Y-80873600D03*
X156959300Y-80873600D03*
X154419300Y-80873600D03*
X151879300Y-80873600D03*
X149339300Y-80873600D03*
X146799300Y-80873600D03*
X144259300Y-80873600D03*
X166103300Y-129133600D03*
X168643300Y-129133600D03*
X171183300Y-129133600D03*
X173723300Y-129133600D03*
X176263300Y-129133600D03*
X178803300Y-129133600D03*
X139179300Y-80873600D03*
X155943300Y-129133600D03*
X158483300Y-129133600D03*
X141719300Y-80873600D03*
X145783300Y-129133600D03*
X143243300Y-129133600D03*
X148323300Y-129133600D03*
X134099300Y-80873600D03*
X136639300Y-80873600D03*
X161023300Y-129133600D03*
%TD*%
D16*
%TO.C,LED3*%
X156895800Y-96431100D03*
X156895800Y-93891100D03*
%TD*%
D10*
%TO.C,JP2A0*%
X147904200Y-124656600D03*
X147904200Y-122656600D03*
X147904200Y-120656600D03*
%TD*%
D14*
%TO.C,JP7*%
X171818300Y-105996100D03*
X171818300Y-108496100D03*
X171818300Y-110996100D03*
%TD*%
D19*
%TO.C,R2*%
X154355800Y-110083600D03*
X156895800Y-110083600D03*
%TD*%
D20*
%TO.C,JP1*%
X179438300Y-118456100D03*
X179438300Y-110956100D03*
X179438300Y-105956100D03*
X179438300Y-100956100D03*
%TD*%
D14*
%TO.C,JP5*%
X168008300Y-85816100D03*
X168008300Y-88316100D03*
X168008300Y-90816100D03*
X168008300Y-93316100D03*
X168008300Y-95816100D03*
X168008300Y-98316100D03*
X168008300Y-100816100D03*
X168008300Y-103316100D03*
X168008300Y-105816100D03*
X168008300Y-108316100D03*
%TD*%
D16*
%TO.C,R3*%
X179120800Y-93256100D03*
X179120800Y-90716100D03*
%TD*%
D11*
%TO.C,IC2*%
X140703300Y-104368600D03*
X140703300Y-101828600D03*
X140703300Y-99288600D03*
X140703300Y-96748600D03*
X140703300Y-94208600D03*
X140703300Y-91668600D03*
X140703300Y-89128600D03*
X140703300Y-86588600D03*
X140703300Y-84048600D03*
X133083300Y-84048600D03*
X133083300Y-86588600D03*
X133083300Y-89128600D03*
X133083300Y-91668600D03*
X133083300Y-94208600D03*
X133083300Y-96748600D03*
X133083300Y-99288600D03*
X133083300Y-101828600D03*
X133083300Y-104368600D03*
%TD*%
D16*
%TO.C,LED2*%
X161658300Y-96431100D03*
X161658300Y-93891100D03*
%TD*%
D14*
%TO.C,JP2*%
X150545800Y-124648600D03*
X150545800Y-122148600D03*
X150545800Y-119648600D03*
%TD*%
D11*
%TO.C,IC1*%
X129273300Y-125958600D03*
X129273300Y-123418600D03*
X129273300Y-120878600D03*
X129273300Y-118338600D03*
X129273300Y-115798600D03*
X129273300Y-113258600D03*
X129273300Y-110718600D03*
X129273300Y-108178600D03*
X129273300Y-105638600D03*
X121653300Y-105638600D03*
X121653300Y-108178600D03*
X121653300Y-110718600D03*
X121653300Y-113258600D03*
X121653300Y-115798600D03*
X121653300Y-118338600D03*
X121653300Y-120878600D03*
X121653300Y-123418600D03*
X121653300Y-125958600D03*
%TD*%
D10*
%TO.C,JP3A0*%
X125031500Y-98655900D03*
X125031500Y-96655900D03*
X125031500Y-94655900D03*
X125031500Y-92655900D03*
X125031500Y-90655900D03*
X125031500Y-88655900D03*
X125031500Y-86655900D03*
X125031500Y-84655900D03*
%TD*%
D14*
%TO.C,JP8*%
X171500800Y-85716100D03*
X171500800Y-88216100D03*
X171500800Y-90716100D03*
X171500800Y-93216100D03*
X171500800Y-95716100D03*
%TD*%
D12*
%TO.C,JP9*%
X160642300Y-124688600D03*
X160642300Y-122148600D03*
X160642300Y-119608600D03*
X160642300Y-117068600D03*
%TD*%
M02*
