<?xml version="1.0" encoding="UTF-8" standalone="no"?>
<!-- Created with Inkscape (http://www.inkscape.org/) -->

<svg
   xmlns:dc="http://purl.org/dc/elements/1.1/"
   xmlns:cc="http://creativecommons.org/ns#"
   xmlns:rdf="http://www.w3.org/1999/02/22-rdf-syntax-ns#"
   xmlns:svg="http://www.w3.org/2000/svg"
   xmlns="http://www.w3.org/2000/svg"
   xmlns:sodipodi="http://sodipodi.sourceforge.net/DTD/sodipodi-0.dtd"
   xmlns:inkscape="http://www.inkscape.org/namespaces/inkscape"
   width="14in"
   height="8.5in"
   viewBox="0 0 1260 765"
   id="svg24542"
   version="1.1"
   inkscape:version="0.91 r13725"
   sodipodi:docname="900v2.svg">
  <defs
     id="defs24544" />
  <sodipodi:namedview
     id="base"
     pagecolor="#ffffff"
     bordercolor="#666666"
     borderopacity="1.0"
     inkscape:pageopacity="0.0"
     inkscape:pageshadow="2"
     inkscape:zoom="1.005055"
     inkscape:cx="822.84053"
     inkscape:cy="6.3523671"
     inkscape:document-units="px"
     inkscape:current-layer="layer1"
     showgrid="false"
     fit-margin-top="0"
     fit-margin-left="0"
     fit-margin-right="0"
     fit-margin-bottom="0"
     inkscape:window-width="1436"
     inkscape:window-height="855"
     inkscape:window-x="0"
     inkscape:window-y="1"
     inkscape:window-maximized="1"
     units="in" />
  <metadata
     id="metadata24547">
    <rdf:RDF>
      <cc:Work
         rdf:about="">
        <dc:format>image/svg+xml</dc:format>
        <dc:type
           rdf:resource="http://purl.org/dc/dcmitype/StillImage" />
        <dc:title></dc:title>
      </cc:Work>
    </rdf:RDF>
  </metadata>
  <g
     inkscape:label="Layer 1"
     inkscape:groupmode="layer"
     id="layer1"
     transform="translate(163.87615,220.33745)">
    <path
       style="display:inline;opacity:1;fill:none;fill-opacity:1;stroke:#9e3f3f;stroke-width:0.89999998;stroke-linecap:round;stroke-linejoin:round;stroke-miterlimit:4;stroke-dasharray:none;stroke-opacity:1"
       d="m -132.17615,353.21255 c -6.2325,0 -11.25,5.0175 -11.25,11.25 l 0,148.5 c 0,6.2325 5.0175,11.25 11.25,11.25 l 985.5,0 c 6.2325,0 11.25,-5.0175 11.25,-11.25 l 0,-148.5 c 0,-6.2325 -5.0175,-11.25 -11.25,-11.25 l -985.5,0 z m 226.53125,5.09766 1.35351,0 0,23.38671 -1.35351,0 0,-23.38671 z m 56,0 1.35351,0 0,23.38671 -1.35351,0 0,-23.38671 z m 239.65234,21.07617 179.15625,0 c 0.9972,0 1.79883,0.80358 1.79883,1.80078 l 0,37.98828 c 0,0.9972 -0.80163,1.80078 -1.79883,1.80078 l -179.15625,0 c -0.9972,0 -1.80078,-0.80358 -1.80078,-1.80078 l 0,-37.98828 c 0,-0.9972 0.80358,-1.80078 1.80078,-1.80078 z m -289.92773,7.05078 46.03711,0 0,1.35351 -46.03711,0 0,-1.35351 z m 73.3418,3.71875 c 11.67975,0 21.14648,9.46681 21.14648,21.14648 0,11.68461 -9.46673,21.15235 -21.14648,21.15235 -11.68454,0 -21.15235,-9.46774 -21.15235,-21.15235 0,-11.67967 9.46782,-21.14648 21.15235,-21.14648 z m -274.14063,17.09765 c 3.33008,0 6.66016,2.22119 6.66016,6.66211 0,8.88184 -13.32032,8.88184 -13.32032,0 0,-4.44092 3.33008,-6.66211 6.66016,-6.66211 z m 461.25,0 c 3.33008,0 6.66016,2.22119 6.66016,6.66211 0,8.88184 -13.32032,8.88184 -13.32032,0 0,-4.44092 3.33008,-6.66211 6.66016,-6.66211 z m 461.25,0 c 3.33008,0 6.66016,2.22119 6.66016,6.66211 0,8.88184 -13.32032,8.88184 -13.32032,0 0,-4.44092 3.33008,-6.66211 6.66016,-6.66211 z m -957.1543,19.97657 48.5586,0 c 0.9972,0 1.79883,0.80163 1.79883,1.79883 l 0,16.16992 c 0,0.9972 -0.80163,1.79883 -1.79883,1.79883 l -48.5586,0 c -0.9972,0 -1.80078,-0.80163 -1.80078,-1.79883 l 0,-16.16992 c 0,-0.9972 0.80358,-1.79883 1.80078,-1.79883 z m 187.99219,10.32617 58.31836,0 c 0.9972,0 1.80078,0.80358 1.80078,1.80078 l 0,16.50586 17.70508,0 c 0.9972,0 1.80078,0.80163 1.80078,1.79883 l 0,19.84765 c 0,0.9972 -0.80358,1.79883 -1.80078,1.79883 l -79.94336,0 c -0.9972,0 -1.80078,-0.80163 -1.80078,-1.79883 l 0,-19.84765 c 0,-0.9972 0.80358,-1.79883 1.80078,-1.79883 l 0.31836,0 0,-16.50586 c 0,-0.9972 0.80358,-1.80078 1.80078,-1.80078 z m 102.61719,16.87305 94.27929,0 c 0.99722,0 1.79883,0.80358 1.79883,1.80078 l 0,14.95117 c 0,0.9972 -0.80162,1.79883 -1.79883,1.79883 l -94.27929,0 c -0.9972,0 -1.80078,-0.80163 -1.80078,-1.79883 l 0,-14.95117 c 0,-0.9972 0.80358,-1.80078 1.80078,-1.80078 z m -255.95508,19.42578 c 3.33008,0 6.66016,2.22119 6.66016,6.66211 0,8.87695 -13.32032,8.87695 -13.32032,0 0,-4.44092 3.33008,-6.66211 6.66016,-6.66211 z m 461.25,0 c 3.33008,0 6.66016,2.22119 6.66016,6.66211 0,8.87695 -13.32032,8.87695 -13.32032,0 0,-4.44092 3.33008,-6.66211 6.66016,-6.66211 z m 461.25,0 c 3.33008,0 6.66016,2.22119 6.66016,6.66211 0,8.87695 -13.32032,8.87695 -13.32032,0 0,-4.44092 3.33008,-6.66211 6.66016,-6.66211 z m -41.36523,11.49804 17.6914,0 c 0.9972,0 1.79883,0.80358 1.79883,1.80079 l 0,7.64843 8.96484,0 c 0.9972,0 1.79883,0.80358 1.79883,1.80078 l 0,15.32422 c 0,0.9972 -0.80163,1.79883 -1.79883,1.79883 l -28.45507,0 c -0.9972,0 -1.80079,-0.80163 -1.80079,-1.79883 l 0,-15.32422 c 0,-0.18436 0.0349,-0.36011 0.0859,-0.52734 -0.0506,-0.16671 -0.0859,-0.34168 -0.0859,-0.52539 l 0,-8.39648 c 0,-0.99721 0.80359,-1.80079 1.80079,-1.80079 z"
       id="rect22193-0-0"
       inkscape:connector-curvature="0" />
  </g>
</svg>
