<?xml version="1.0" encoding="UTF-8" standalone="no"?>
<!-- Created with Inkscape (http://www.inkscape.org/) -->

<svg
   xmlns:dc="http://purl.org/dc/elements/1.1/"
   xmlns:cc="http://creativecommons.org/ns#"
   xmlns:rdf="http://www.w3.org/1999/02/22-rdf-syntax-ns#"
   xmlns:svg="http://www.w3.org/2000/svg"
   xmlns="http://www.w3.org/2000/svg"
   xmlns:sodipodi="http://sodipodi.sourceforge.net/DTD/sodipodi-0.dtd"
   xmlns:inkscape="http://www.inkscape.org/namespaces/inkscape"
   width="14in"
   height="8.5in"
   viewBox="0 0 1260 765"
   id="svg25193"
   version="1.1"
   inkscape:version="0.91 r13725"
   sodipodi:docname="930-940v2.svg">
  <defs
     id="defs25195" />
  <sodipodi:namedview
     id="base"
     pagecolor="#ffffff"
     bordercolor="#666666"
     borderopacity="1.0"
     inkscape:pageopacity="0.0"
     inkscape:pageshadow="2"
     inkscape:zoom="0.8047619"
     inkscape:cx="630"
     inkscape:cy="382.5"
     inkscape:document-units="px"
     inkscape:current-layer="layer1"
     showgrid="false"
     fit-margin-top="0"
     fit-margin-left="0"
     fit-margin-right="0"
     fit-margin-bottom="0"
     inkscape:window-width="1436"
     inkscape:window-height="855"
     inkscape:window-x="0"
     inkscape:window-y="1"
     inkscape:window-maximized="1"
     units="in" />
  <metadata
     id="metadata25198">
    <rdf:RDF>
      <cc:Work
         rdf:about="">
        <dc:format>image/svg+xml</dc:format>
        <dc:type
           rdf:resource="http://purl.org/dc/dcmitype/StillImage" />
        <dc:title></dc:title>
      </cc:Work>
    </rdf:RDF>
  </metadata>
  <g
     inkscape:label="Layer 1"
     inkscape:groupmode="layer"
     id="layer1"
     transform="translate(195.79453,218.16211)">
    <path
       style="display:inline;opacity:1;fill:none;fill-opacity:1;stroke:#9e3f3f;stroke-width:0.89999998;stroke-linecap:round;stroke-linejoin:round;stroke-miterlimit:4;stroke-dasharray:none;stroke-opacity:1"
       d="m -164.09453,355.38789 c -6.2325,0 -11.25,5.0175 -11.25,11.25 l 0,148.5 c 0,6.2325 5.0175,11.25 11.25,11.25 l 985.5,0 c 6.2325,0 11.25,-5.0175 11.25,-11.25 l 0,-148.5 c 0,-6.2325 -5.0175,-11.25 -11.25,-11.25 l -985.5,0 z m 226.53125,5.09766 1.35351,0 0,23.38671 -1.35351,0 0,-23.38671 z m 56,0 1.35351,0 0,23.38671 -1.35351,0 0,-23.38671 z m 239.65234,21.07617 179.15625,0 c 0.9972,0 1.79883,0.80358 1.79883,1.80078 l 0,37.98828 c 0,0.9972 -0.80163,1.80078 -1.79883,1.80078 l -179.15625,0 c -0.9972,0 -1.80078,-0.80358 -1.80078,-1.80078 l 0,-37.98828 c 0,-0.9972 0.80358,-1.80078 1.80078,-1.80078 z m -289.92773,7.05078 46.03711,0 0,1.35351 -46.03711,0 0,-1.35351 z m 73.3418,3.71875 c 11.67975,0 21.14648,9.46681 21.14648,21.14648 0,11.68461 -9.46673,21.15235 -21.14648,21.15235 -11.68454,0 -21.15235,-9.46774 -21.15235,-21.15235 0,-11.67967 9.46782,-21.14648 21.15235,-21.14648 z M -132.6375,409.4289 c 3.33008,0 6.66016,2.22119 6.66016,6.66211 0,8.88184 -13.32032,8.88184 -13.32032,0 0,-4.44092 3.33008,-6.66211 6.66016,-6.66211 z m 461.25,0 c 3.33008,0 6.66016,2.22119 6.66016,6.66211 0,8.88184 -13.32032,8.88184 -13.32032,0 0,-4.44092 3.33008,-6.66211 6.66016,-6.66211 z m 461.25,0 c 3.33008,0 6.66016,2.22119 6.66016,6.66211 0,8.88184 -13.32032,8.88184 -13.32032,0 0,-4.44092 3.33008,-6.66211 6.66016,-6.66211 z m -763.75586,5.76563 68.10156,0 c 0.9972,0 1.79883,0.80163 1.79883,1.79883 l 0,16.67773 c 0,0.9972 -0.80163,1.80078 -1.79883,1.80078 l -68.10156,0 c -0.9972,0 -1.80078,-0.80358 -1.80078,-1.80078 l 0,-16.67773 c 0,-0.9972 0.80358,-1.79883 1.80078,-1.79883 z m -158.74414,60.83594 c 3.33008,0 6.66016,2.22119 6.66016,6.66211 0,8.87695 -13.32032,8.87695 -13.32032,0 0,-4.44092 3.33008,-6.66211 6.66016,-6.66211 z m 461.25,0 c 3.33008,0 6.66016,2.22119 6.66016,6.66211 0,8.87695 -13.32032,8.87695 -13.32032,0 0,-4.44092 3.33008,-6.66211 6.66016,-6.66211 z m 461.25,0 c 3.33008,0 6.66016,2.22119 6.66016,6.66211 0,8.87695 -13.32032,8.87695 -13.32032,0 0,-4.44092 3.33008,-6.66211 6.66016,-6.66211 z m -783.49023,1.38281 94.35937,0 c 0.9972,0 1.80078,0.80358 1.80078,1.80078 l 0,17.45508 c 0,0.9972 -0.80358,1.80078 -1.80078,1.80078 l -94.35937,0 c -0.9972,0 -1.80079,-0.80358 -1.80079,-1.80078 l 0,-17.45508 c 0,-0.9972 0.80359,-1.80078 1.80079,-1.80078 z m 103.67187,0.59961 112.16992,0 c 0.9972,0 1.79883,0.80163 1.79883,1.79883 l 0,17.45703 c 0,0.9972 -0.80163,1.80078 -1.79883,1.80078 l -112.16992,0 c -0.9972,0 -1.79883,-0.80358 -1.79883,-1.80078 l 0,-17.45703 c 0,-0.9972 0.80163,-1.79883 1.79883,-1.79883 z m 695.70899,9.51562 12.50195,0 c 0.9972,0 1.80078,0.80358 1.80078,1.80079 l 0,10.30468 0,1.88086 0,14.96875 c 0,0.9972 -0.80358,1.79883 -1.80078,1.79883 l -34.69727,0 c -0.9972,0 -1.79883,-0.80163 -1.79883,-1.79883 l 0,-16.84961 c 0,-0.9972 0.80163,-1.80078 1.79883,-1.80078 l 20.39453,0 0,-8.5039 c 0,-0.99721 0.80358,-1.80079 1.80079,-1.80079 z m -956.28907,10.38868 36.43555,0 c 0.9972,0 1.80078,0.80162 1.80078,1.79882 l 0,16.78321 c 0,0.9972 -0.80358,1.79883 -1.80078,1.79883 l -36.43555,0 c -0.9972,0 -1.79883,-0.80163 -1.79883,-1.79883 l 0,-1.06641 -8.74414,0 c -0.9972,0 -1.80078,-0.80358 -1.80078,-1.80078 l 0,-4.94531 c 0,-0.9972 0.80358,-1.79883 1.80078,-1.79883 l 8.74414,0 0,-7.17188 c 0,-0.9972 0.80163,-1.79882 1.79883,-1.79882 z"
       id="rect22193-0-09"
       inkscape:connector-curvature="0" />
  </g>
</svg>
