G04 start of page 15 for group -1 layer_idx 16777221 *
G04 Title: AYAB-RS_E, <virtual group> *
G04 Creator: pcb-rnd 1.2.8 *
G04 CreationDate: 2018-05-30 20:35:32 UTC *
G04 For: Windell H. Oskay *
G04 Format: Gerber/RS-274X *
G04 PCB-Dimensions: 1100000 207000 *
G04 PCB-Coordinate-Origin: lower left *
%MOIN*%
%FSLAX25Y25*%
%LNFAB*%
%ADD219C,0.0110*%
%ADD218C,0.0100*%
%ADD217C,0.0060*%
%ADD216C,0.0080*%
G54D216*X548400Y67100D02*X551600D01*
X548400D02*Y63900D01*
X551600D01*
Y67100D02*Y63900D01*
X546800Y68700D02*X553200D01*
X546800D02*Y62300D01*
X553200D01*
Y68700D02*Y62300D01*
X1060900Y67100D02*X1064100D01*
X1060900D02*Y63900D01*
X1064100D01*
Y67100D02*Y63900D01*
X1059300Y68700D02*X1065700D01*
X1059300D02*Y62300D01*
X1065700D01*
Y68700D02*Y62300D01*
X1060900Y141100D02*X1064100D01*
X1060900D02*Y137900D01*
X1064100D01*
Y141100D02*Y137900D01*
X1059300Y142700D02*X1065700D01*
X1059300D02*Y136300D01*
X1065700D01*
Y142700D02*Y136300D01*
X548400Y141100D02*X551600D01*
X548400D02*Y137900D01*
X551600D01*
Y141100D02*Y137900D01*
X546800Y142700D02*X553200D01*
X546800D02*Y136300D01*
X553200D01*
Y142700D02*Y136300D01*
X35900Y141100D02*X39100D01*
X35900D02*Y137900D01*
X39100D01*
Y141100D02*Y137900D01*
X34300Y142700D02*X40700D01*
X34300D02*Y136300D01*
X40700D01*
Y142700D02*Y136300D01*
X35900Y67100D02*X39100D01*
X35900D02*Y63900D01*
X39100D01*
Y67100D02*Y63900D01*
X34300Y68700D02*X40700D01*
X34300D02*Y62300D01*
X40700D01*
Y68700D02*Y62300D01*
X13400Y219850D02*X16600D01*
X13400D02*Y216650D01*
X16600D01*
Y219850D02*Y216650D01*
X11800Y221450D02*X18200D01*
X11800D02*Y215050D01*
X18200D01*
Y221450D02*Y215050D01*
G54D217*X140000Y220500D02*Y214500D01*
Y220500D02*X143999Y214500D01*
Y220500D02*Y214500D01*
X147512Y220500D02*X146942Y220214D01*
X146369Y219642D01*
X146084Y219072D01*
X145799Y218214D01*
Y216786D01*
X146084Y215926D01*
Y215928D02*X146369Y215356D01*
X146942Y214786D01*
X147512Y214500D01*
X148657D01*
X149227Y214786D01*
X149798Y215356D01*
X150085Y215928D01*
X150368Y216786D01*
Y218214D02*Y216786D01*
Y218214D02*X150085Y219072D01*
X149798Y219642D01*
X149227Y220214D01*
X148657Y220500D01*
X147512D02*X148657D01*
X101428Y219644D02*X101142Y220215D01*
X100284Y220500D01*
X99714D02*X100284D01*
X99714D02*X98855Y220215D01*
X98285Y219358D01*
X98000Y217930D01*
Y216501D01*
X98285Y215358D01*
X98855Y214786D01*
X99714Y214500D01*
X100000D01*
X100856Y214786D01*
X101428Y215358D01*
X101712Y216216D01*
Y216501D02*Y216216D01*
Y216501D02*X101428Y217357D01*
X100856Y217930D01*
X100000Y218214D01*
X99714D02*X100000D01*
X99714D02*X98855Y217930D01*
X98285Y217357D01*
X98000Y216501D01*
X46714Y220500D02*X45858Y220215D01*
X45285Y219358D01*
X45000Y217930D01*
Y217072D01*
X45285Y215643D01*
X45858Y214786D01*
X46714Y214500D01*
X47286D01*
X48142Y214786D01*
X48714Y215643D01*
X49000Y217072D01*
Y217930D02*Y217072D01*
Y217930D02*X48714Y219358D01*
X48142Y220215D01*
X47286Y220500D01*
X46714D02*X47286D01*
X51086Y214950D02*X50801Y214664D01*
X51086Y214380D01*
X51371Y214664D01*
X51086Y214950D01*
X53171Y219358D02*X53741Y219644D01*
X54599Y220500D01*
Y214500D01*
X59255Y220500D02*X56399Y216501D01*
X60683D01*
X59255Y220500D02*Y214500D01*
X63911Y220500D02*X63053Y220215D01*
X62768Y219644D01*
Y219072D01*
X63053Y218500D01*
X63624Y218214D01*
X64767Y217930D01*
X65625Y217644D01*
X66195Y217072D01*
X66482Y216501D01*
Y215643D01*
X66195Y215073D01*
X65909Y214786D01*
X65052Y214500D01*
X63911D02*X65052D01*
X63911D02*X63053Y214786D01*
X62768Y215073D01*
X62483Y215643D01*
Y216501D02*Y215643D01*
Y216501D02*X62768Y217072D01*
X63338Y217644D01*
X64196Y217930D01*
X65339Y218214D01*
X65909Y218500D01*
X66195Y219072D01*
Y219644D02*Y219072D01*
Y219644D02*X65909Y220215D01*
X65052Y220500D01*
X63911D02*X65052D01*
X644700Y90000D02*G75*G03X646300Y90000I800J0D01*G01*
G75*G03X644700Y90000I-800J0D01*G01*
X643100D02*G75*G03X647900Y90000I2400J0D01*G01*
G75*G03X643100Y90000I-2400J0D01*G01*
X14200Y233250D02*G75*G03X15800Y233250I800J0D01*G01*
G75*G03X14200Y233250I-800J0D01*G01*
X12600D02*G75*G03X17400Y233250I2400J0D01*G01*
G75*G03X12600Y233250I-2400J0D01*G01*
X135000Y235500D02*X137284Y232643D01*
Y229500D01*
X139572Y235500D02*X137284Y232643D01*
X141372Y235500D02*Y229500D01*
Y235500D02*X145086D01*
X141372Y232643D02*X143657D01*
X141372Y229500D02*X145086D01*
X150885Y234642D02*X150314Y235214D01*
X149457Y235500D01*
X148314D02*X149457D01*
X148314D02*X147456Y235214D01*
X146886Y234642D01*
Y234072D01*
X147170Y233499D01*
X147456Y233214D01*
X148029Y232929D01*
X149744Y232357D01*
X150314Y232071D01*
X150599Y231786D01*
X150885Y231214D01*
Y230356D01*
X150314Y229786D01*
X149457Y229500D01*
X148314D02*X149457D01*
X148314D02*X147456Y229786D01*
X146886Y230356D01*
X98000Y234358D02*X98570Y234644D01*
X99428Y235500D01*
Y229500D01*
X46714Y235500D02*X45858Y235215D01*
X45285Y234358D01*
X45000Y232930D01*
Y232072D01*
X45285Y230643D01*
X45858Y229786D01*
X46714Y229500D01*
X47286D01*
X48142Y229786D01*
X48714Y230643D01*
X49000Y232072D01*
Y232930D02*Y232072D01*
Y232930D02*X48714Y234358D01*
X48142Y235215D01*
X47286Y235500D01*
X46714D02*X47286D01*
X51086Y229950D02*X50801Y229664D01*
X51086Y229380D01*
X51371Y229664D01*
X51086Y229950D01*
X53171Y234358D02*X53741Y234644D01*
X54599Y235500D01*
Y229500D01*
X56684Y234358D02*Y234072D01*
Y234358D02*X56970Y234928D01*
X57254Y235215D01*
X57827Y235500D01*
X58968D01*
X59541Y235215D01*
X59826Y234928D01*
X60111Y234358D01*
Y233786D01*
X59826Y233214D01*
X59255Y232357D01*
X56399Y229500D01*
X60398D01*
X62769Y235500D02*X65627D01*
X62769D02*X62483Y232930D01*
X62769Y233214D01*
X63626Y233500D01*
X64484D01*
X65340Y233214D01*
X65912Y232644D01*
X66198Y231786D01*
Y231216D01*
X65912Y230358D01*
X65340Y229786D01*
X64484Y229500D01*
X63626D02*X64484D01*
X63626D02*X62769Y229786D01*
X62483Y230073D01*
X62198Y230643D01*
X872600Y69400D02*X877400Y64600D01*
X872600D02*X877400Y69400D01*
X873400Y68600D02*X876600D01*
X873400D02*Y65400D01*
X876600D01*
Y68600D02*Y65400D01*
X1060100Y174400D02*X1064900Y169600D01*
X1060100D02*X1064900Y174400D01*
X1060900Y173600D02*X1064100D01*
X1060900D02*Y170400D01*
X1064100D01*
Y173600D02*Y170400D01*
X12600Y250650D02*X17400Y245850D01*
X12600D02*X17400Y250650D01*
X13400Y249850D02*X16600D01*
X13400D02*Y246650D01*
X16600D01*
Y249850D02*Y246650D01*
X140000Y250500D02*Y244500D01*
Y250500D02*X143999Y244500D01*
Y250500D02*Y244500D01*
X147512Y250500D02*X146942Y250214D01*
X146369Y249642D01*
X146084Y249072D01*
X145799Y248214D01*
Y246786D01*
X146084Y245926D01*
Y245928D02*X146369Y245356D01*
X146942Y244786D01*
X147512Y244500D01*
X148657D01*
X149227Y244786D01*
X149798Y245356D01*
X150085Y245928D01*
X150368Y246786D01*
Y248214D02*Y246786D01*
Y248214D02*X150085Y249072D01*
X149798Y249642D01*
X149227Y250214D01*
X148657Y250500D01*
X147512D02*X148657D01*
X98285Y249358D02*Y249072D01*
Y249358D02*X98572Y249928D01*
X98855Y250215D01*
X99428Y250500D01*
X100570D01*
X101142Y250215D01*
X101428Y249928D01*
X101712Y249358D01*
Y248786D01*
X101428Y248214D01*
X100856Y247357D01*
X98000Y244500D01*
X101999D01*
X46714Y250500D02*X45858Y250215D01*
X45285Y249358D01*
X45000Y247930D01*
Y247072D01*
X45285Y245643D01*
X45858Y244786D01*
X46714Y244500D01*
X47286D01*
X48142Y244786D01*
X48714Y245643D01*
X49000Y247072D01*
Y247930D02*Y247072D01*
Y247930D02*X48714Y249358D01*
X48142Y250215D01*
X47286Y250500D01*
X46714D02*X47286D01*
X51086Y244950D02*X50801Y244664D01*
X51086Y244380D01*
X51371Y244664D01*
X51086Y244950D01*
X53171Y249358D02*X53741Y249644D01*
X54599Y250500D01*
Y244500D01*
X56684Y249358D02*Y249072D01*
Y249358D02*X56970Y249928D01*
X57254Y250215D01*
X57827Y250500D01*
X58968D01*
X59541Y250215D01*
X59826Y249928D01*
X60111Y249358D01*
Y248786D01*
X59826Y248214D01*
X59255Y247357D01*
X56399Y244500D01*
X60398D01*
X63912Y250500D02*X63056Y250215D01*
X62483Y249358D01*
X62198Y247930D01*
Y247072D01*
X62483Y245643D01*
X63056Y244786D01*
X63912Y244500D01*
X64484D01*
X65340Y244786D01*
X65912Y245643D01*
X66198Y247072D01*
Y247930D02*Y247072D01*
Y247930D02*X65912Y249358D01*
X65340Y250215D01*
X64484Y250500D01*
X63912D02*X64484D01*
X645500Y68200D02*Y61800D01*
X642300Y65000D02*X648700D01*
X643900Y66600D02*X647100D01*
X643900D02*Y63400D01*
X647100D01*
Y66600D02*Y63400D01*
X627500Y80700D02*Y74300D01*
X624300Y77500D02*X630700D01*
X625900Y79100D02*X629100D01*
X625900D02*Y75900D01*
X629100D01*
Y79100D02*Y75900D01*
X699500Y95200D02*Y88800D01*
X696300Y92000D02*X702700D01*
X697900Y93600D02*X701100D01*
X697900D02*Y90400D01*
X701100D01*
Y93600D02*Y90400D01*
X15000Y266450D02*Y260050D01*
X11800Y263250D02*X18200D01*
X13400Y264850D02*X16600D01*
X13400D02*Y261650D01*
X16600D01*
Y264850D02*Y261650D01*
X135000Y265500D02*X137284Y262642D01*
Y259500D01*
X139572Y265500D02*X137284Y262642D01*
X141372Y265500D02*Y259500D01*
Y265500D02*X145086D01*
X141372Y262642D02*X143657D01*
X141372Y259500D02*X145086D01*
X150885Y264642D02*X150314Y265214D01*
X149457Y265500D01*
X148314D02*X149457D01*
X148314D02*X147456Y265214D01*
X146886Y264642D01*
Y264072D01*
X147170Y263499D01*
X147456Y263214D01*
X148029Y262929D01*
X149744Y262358D01*
X150314Y262071D01*
X150599Y261786D01*
X150885Y261214D01*
Y260356D01*
X150314Y259786D01*
X149457Y259500D01*
X148314D02*X149457D01*
X148314D02*X147456Y259786D01*
X146886Y260356D01*
X98570Y265500D02*X101712D01*
X99998Y263214D01*
X100856D01*
X101426Y262930D01*
X101712Y262644D01*
X101999Y261786D01*
Y261216D01*
X101712Y260358D01*
X101142Y259786D01*
X100284Y259500D01*
X99428D02*X100284D01*
X99428D02*X98570Y259786D01*
X98285Y260073D01*
X98000Y260643D01*
X46714Y265500D02*X45858Y265215D01*
X45285Y264358D01*
X45000Y262930D01*
Y262072D01*
X45285Y260643D01*
X45858Y259786D01*
X46714Y259500D01*
X47286D01*
X48142Y259786D01*
X48714Y260643D01*
X49000Y262072D01*
Y262930D02*Y262072D01*
Y262930D02*X48714Y264358D01*
X48142Y265215D01*
X47286Y265500D01*
X46714D02*X47286D01*
X51086Y259950D02*X50801Y259664D01*
X51086Y259380D01*
X51371Y259664D01*
X51086Y259950D01*
X53171Y264358D02*X53741Y264644D01*
X54599Y265500D01*
Y259500D01*
X56399Y264358D02*X56969Y264644D01*
X57827Y265500D01*
Y259500D01*
X61341Y265500D02*X60485Y265215D01*
X59912Y264358D01*
X59627Y262930D01*
Y262072D01*
X59912Y260643D01*
X60485Y259786D01*
X61341Y259500D01*
X61913D01*
X62769Y259786D01*
X63341Y260643D01*
X63627Y262072D01*
Y262930D02*Y262072D01*
Y262930D02*X63341Y264358D01*
X62769Y265215D01*
X61913Y265500D01*
X61341D02*X61913D01*
X283000Y36500D02*Y33300D01*
Y36500D02*X285773Y38100D01*
X283000Y36500D02*X280227Y38100D01*
X281400Y36500D02*G75*G03X284600Y36500I1600J0D01*G01*
G75*G03X281400Y36500I-1600J0D01*G01*
X423000D02*Y33300D01*
Y36500D02*X425773Y38100D01*
X423000Y36500D02*X420227Y38100D01*
X421400Y36500D02*G75*G03X424600Y36500I1600J0D01*G01*
G75*G03X421400Y36500I-1600J0D01*G01*
X15000Y278250D02*Y275050D01*
Y278250D02*X17773Y279850D01*
X15000Y278250D02*X12227Y279850D01*
X13400Y278250D02*G75*G03X16600Y278250I1600J0D01*G01*
G75*G03X13400Y278250I-1600J0D01*G01*
X140000Y280500D02*Y274500D01*
Y280500D02*X143999Y274500D01*
Y280500D02*Y274500D01*
X147512Y280500D02*X146942Y280214D01*
X146369Y279642D01*
X146084Y279072D01*
X145799Y278214D01*
Y276786D01*
X146084Y275926D01*
Y275928D02*X146369Y275356D01*
X146942Y274786D01*
X147512Y274500D01*
X148657D01*
X149227Y274786D01*
X149798Y275356D01*
X150085Y275928D01*
X150368Y276786D01*
Y278214D02*Y276786D01*
Y278214D02*X150085Y279072D01*
X149798Y279642D01*
X149227Y280214D01*
X148657Y280500D01*
X147512D02*X148657D01*
X98285Y279358D02*Y279072D01*
Y279358D02*X98572Y279928D01*
X98855Y280215D01*
X99428Y280500D01*
X100570D01*
X101142Y280215D01*
X101428Y279928D01*
X101712Y279358D01*
Y278786D01*
X101428Y278214D01*
X100856Y277358D01*
X98000Y274500D01*
X101999D01*
X46714Y280500D02*X45858Y280215D01*
X45285Y279358D01*
X45000Y277930D01*
Y277072D01*
X45285Y275643D01*
X45858Y274786D01*
X46714Y274500D01*
X47286D01*
X48142Y274786D01*
X48714Y275643D01*
X49000Y277072D01*
Y277930D02*Y277072D01*
Y277930D02*X48714Y279358D01*
X48142Y280215D01*
X47286Y280500D01*
X46714D02*X47286D01*
X51086Y274950D02*X50801Y274664D01*
X51086Y274380D01*
X51371Y274664D01*
X51086Y274950D01*
X54885Y280500D02*X54029Y280215D01*
X53456Y279358D01*
X53171Y277930D01*
Y277072D01*
X53456Y275643D01*
X54029Y274786D01*
X54885Y274500D01*
X55457D01*
X56313Y274786D01*
X56885Y275643D01*
X57171Y277072D01*
Y277930D02*Y277072D01*
Y277930D02*X56885Y279358D01*
X56313Y280215D01*
X55457Y280500D01*
X54885D02*X55457D01*
X62684Y278500D02*X62399Y277644D01*
X61827Y277072D01*
X60969Y276786D01*
X60684D02*X60969D01*
X60684D02*X59828Y277072D01*
X59255Y277644D01*
X58971Y278500D01*
Y278786D02*Y278500D01*
Y278786D02*X59255Y279644D01*
X59828Y280215D01*
X60684Y280500D01*
X60969D01*
X61827Y280215D01*
X62399Y279644D01*
X62684Y278500D01*
Y277072D01*
X62399Y275643D01*
X61827Y274786D01*
X60969Y274500D01*
X60399D02*X60969D01*
X60399D02*X59541Y274786D01*
X59255Y275358D01*
X64484Y279358D02*X65054Y279644D01*
X65912Y280500D01*
Y274500D01*
X83400Y116600D02*X86600D01*
X83400D02*Y113400D01*
X86600D01*
Y116600D02*Y113400D01*
X83400Y126600D02*X86600D01*
X83400D02*Y123400D01*
X86600D01*
Y126600D02*Y123400D01*
X83400Y136600D02*X86600D01*
X83400D02*Y133400D01*
X86600D01*
Y136600D02*Y133400D01*
X93400Y126600D02*X96600D01*
X93400D02*Y123400D01*
X96600D01*
Y126600D02*Y123400D01*
X93400Y136600D02*X96600D01*
X93400D02*Y133400D01*
X96600D01*
Y136600D02*Y133400D01*
X83400Y86600D02*X86600D01*
X83400D02*Y83400D01*
X86600D01*
Y86600D02*Y83400D01*
X83400Y96600D02*X86600D01*
X83400D02*Y93400D01*
X86600D01*
Y96600D02*Y93400D01*
X83400Y106600D02*X86600D01*
X83400D02*Y103400D01*
X86600D01*
Y106600D02*Y103400D01*
X93400Y86600D02*X96600D01*
X93400D02*Y83400D01*
X96600D01*
Y86600D02*Y83400D01*
X93400Y96600D02*X96600D01*
X93400D02*Y93400D01*
X96600D01*
Y96600D02*Y93400D01*
X93400Y106600D02*X96600D01*
X93400D02*Y103400D01*
X96600D01*
Y106600D02*Y103400D01*
X93400Y116600D02*X96600D01*
X93400D02*Y113400D01*
X96600D01*
Y116600D02*Y113400D01*
X83400Y66600D02*X86600D01*
X83400D02*Y63400D01*
X86600D01*
Y66600D02*Y63400D01*
X83400Y76600D02*X86600D01*
X83400D02*Y73400D01*
X86600D01*
Y76600D02*Y73400D01*
X83400Y46600D02*X86600D01*
X83400D02*Y43400D01*
X86600D01*
Y46600D02*Y43400D01*
X83400Y56600D02*X86600D01*
X83400D02*Y53400D01*
X86600D01*
Y56600D02*Y53400D01*
X93400Y46600D02*X96600D01*
X93400D02*Y43400D01*
X96600D01*
Y46600D02*Y43400D01*
X93400Y56600D02*X96600D01*
X93400D02*Y53400D01*
X96600D01*
Y56600D02*Y53400D01*
X93400Y66600D02*X96600D01*
X93400D02*Y63400D01*
X96600D01*
Y66600D02*Y63400D01*
X93400Y76600D02*X96600D01*
X93400D02*Y73400D01*
X96600D01*
Y76600D02*Y73400D01*
X163400Y136600D02*X166600D01*
X163400D02*Y133400D01*
X166600D01*
Y136600D02*Y133400D01*
X163400Y126600D02*X166600D01*
X163400D02*Y123400D01*
X166600D01*
Y126600D02*Y123400D01*
X163400Y116600D02*X166600D01*
X163400D02*Y113400D01*
X166600D01*
Y116600D02*Y113400D01*
X163400Y106600D02*X166600D01*
X163400D02*Y103400D01*
X166600D01*
Y106600D02*Y103400D01*
X163400Y96600D02*X166600D01*
X163400D02*Y93400D01*
X166600D01*
Y96600D02*Y93400D01*
X163400Y86600D02*X166600D01*
X163400D02*Y83400D01*
X166600D01*
Y86600D02*Y83400D01*
X153400Y136600D02*X156600D01*
X153400D02*Y133400D01*
X156600D01*
Y136600D02*Y133400D01*
X153400Y126600D02*X156600D01*
X153400D02*Y123400D01*
X156600D01*
Y126600D02*Y123400D01*
X153400Y116600D02*X156600D01*
X153400D02*Y113400D01*
X156600D01*
Y116600D02*Y113400D01*
X153400Y106600D02*X156600D01*
X153400D02*Y103400D01*
X156600D01*
Y106600D02*Y103400D01*
X153400Y96600D02*X156600D01*
X153400D02*Y93400D01*
X156600D01*
Y96600D02*Y93400D01*
X153400Y86600D02*X156600D01*
X153400D02*Y83400D01*
X156600D01*
Y86600D02*Y83400D01*
X163400Y76600D02*X166600D01*
X163400D02*Y73400D01*
X166600D01*
Y76600D02*Y73400D01*
X153400Y76600D02*X156600D01*
X153400D02*Y73400D01*
X156600D01*
Y76600D02*Y73400D01*
X163400Y66600D02*X166600D01*
X163400D02*Y63400D01*
X166600D01*
Y66600D02*Y63400D01*
X153400Y66600D02*X156600D01*
X153400D02*Y63400D01*
X156600D01*
Y66600D02*Y63400D01*
X163400Y56600D02*X166600D01*
X163400D02*Y53400D01*
X166600D01*
Y56600D02*Y53400D01*
X153400Y56600D02*X156600D01*
X153400D02*Y53400D01*
X156600D01*
Y56600D02*Y53400D01*
X163400Y46600D02*X166600D01*
X163400D02*Y43400D01*
X166600D01*
Y46600D02*Y43400D01*
X153400Y46600D02*X156600D01*
X153400D02*Y43400D01*
X156600D01*
Y46600D02*Y43400D01*
X179900Y36600D02*X183100D01*
X179900D02*Y33400D01*
X183100D01*
Y36600D02*Y33400D01*
X197400Y36600D02*X200600D01*
X197400D02*Y33400D01*
X200600D01*
Y36600D02*Y33400D01*
X613400Y52600D02*X616600D01*
X613400D02*Y49400D01*
X616600D01*
Y52600D02*Y49400D01*
X593400Y52600D02*X596600D01*
X593400D02*Y49400D01*
X596600D01*
Y52600D02*Y49400D01*
X83400Y166600D02*X86600D01*
X83400D02*Y163400D01*
X86600D01*
Y166600D02*Y163400D01*
X83400Y176600D02*X86600D01*
X83400D02*Y173400D01*
X86600D01*
Y176600D02*Y173400D01*
X83400Y146600D02*X86600D01*
X83400D02*Y143400D01*
X86600D01*
Y146600D02*Y143400D01*
X83400Y156600D02*X86600D01*
X83400D02*Y153400D01*
X86600D01*
Y156600D02*Y153400D01*
X93400Y146600D02*X96600D01*
X93400D02*Y143400D01*
X96600D01*
Y146600D02*Y143400D01*
X93400Y156600D02*X96600D01*
X93400D02*Y153400D01*
X96600D01*
Y156600D02*Y153400D01*
X93400Y166600D02*X96600D01*
X93400D02*Y163400D01*
X96600D01*
Y166600D02*Y163400D01*
X93400Y176600D02*X96600D01*
X93400D02*Y173400D01*
X96600D01*
Y176600D02*Y173400D01*
X163400Y176600D02*X166600D01*
X163400D02*Y173400D01*
X166600D01*
Y176600D02*Y173400D01*
X153400Y176600D02*X156600D01*
X153400D02*Y173400D01*
X156600D01*
Y176600D02*Y173400D01*
X163400Y166600D02*X166600D01*
X163400D02*Y163400D01*
X166600D01*
Y166600D02*Y163400D01*
X153400Y166600D02*X156600D01*
X153400D02*Y163400D01*
X156600D01*
Y166600D02*Y163400D01*
X163400Y156600D02*X166600D01*
X163400D02*Y153400D01*
X166600D01*
Y156600D02*Y153400D01*
X153400Y156600D02*X156600D01*
X153400D02*Y153400D01*
X156600D01*
Y156600D02*Y153400D01*
X163400Y146600D02*X166600D01*
X163400D02*Y143400D01*
X166600D01*
Y146600D02*Y143400D01*
X153400Y146600D02*X156600D01*
X153400D02*Y143400D01*
X156600D01*
Y146600D02*Y143400D01*
X13400Y294850D02*X16600D01*
X13400D02*Y291650D01*
X16600D01*
Y294850D02*Y291650D01*
X135000Y295500D02*X137284Y292642D01*
Y289500D01*
X139572Y295500D02*X137284Y292642D01*
X141372Y295500D02*Y289500D01*
Y295500D02*X145086D01*
X141372Y292642D02*X143657D01*
X141372Y289500D02*X145086D01*
X150885Y294642D02*X150314Y295214D01*
X149457Y295500D01*
X148314D02*X149457D01*
X148314D02*X147456Y295214D01*
X146886Y294642D01*
Y294072D01*
X147170Y293499D01*
X147456Y293214D01*
X148029Y292929D01*
X149744Y292358D01*
X150314Y292071D01*
X150599Y291786D01*
X150885Y291214D01*
Y290356D01*
X150314Y289786D01*
X149457Y289500D01*
X148314D02*X149457D01*
X148314D02*X147456Y289786D01*
X146886Y290356D01*
X101428Y294644D02*X101142Y295215D01*
X100284Y295500D01*
X99714D02*X100284D01*
X99714D02*X98855Y295215D01*
X98285Y294358D01*
X98000Y292930D01*
Y291501D01*
X98285Y290358D01*
X98855Y289786D01*
X99714Y289500D01*
X100000D01*
X100856Y289786D01*
X101428Y290358D01*
X101712Y291216D01*
Y291501D02*Y291216D01*
Y291501D02*X101428Y292358D01*
X100856Y292930D01*
X100000Y293214D01*
X99714D02*X100000D01*
X99714D02*X98855Y292930D01*
X98285Y292358D01*
X98000Y291501D01*
X105227Y295500D02*X104371Y295215D01*
X103798Y294358D01*
X103513Y292930D01*
Y292072D01*
X103798Y290643D01*
X104371Y289786D01*
X105227Y289500D01*
X105799D01*
X106655Y289786D01*
X107227Y290643D01*
X107513Y292072D01*
Y292930D02*Y292072D01*
Y292930D02*X107227Y294358D01*
X106655Y295215D01*
X105799Y295500D01*
X105227D02*X105799D01*
X46714D02*X45858Y295215D01*
X45285Y294358D01*
X45000Y292930D01*
Y292072D01*
X45285Y290643D01*
X45858Y289786D01*
X46714Y289500D01*
X47286D01*
X48142Y289786D01*
X48714Y290643D01*
X49000Y292072D01*
Y292930D02*Y292072D01*
Y292930D02*X48714Y294358D01*
X48142Y295215D01*
X47286Y295500D01*
X46714D02*X47286D01*
X51086Y289950D02*X50801Y289664D01*
X51086Y289380D01*
X51371Y289664D01*
X51086Y289950D01*
X54885Y295500D02*X54029Y295215D01*
X53456Y294358D01*
X53171Y292930D01*
Y292072D01*
X53456Y290643D01*
X54029Y289786D01*
X54885Y289500D01*
X55457D01*
X56313Y289786D01*
X56885Y290643D01*
X57171Y292072D01*
Y292930D02*Y292072D01*
Y292930D02*X56885Y294358D01*
X56313Y295215D01*
X55457Y295500D01*
X54885D02*X55457D01*
X59541D02*X62684D01*
X60969Y293214D01*
X61827D01*
X62397Y292930D01*
X62684Y292644D01*
X62970Y291786D01*
Y291216D01*
X62684Y290358D01*
X62114Y289786D01*
X61256Y289500D01*
X60399D02*X61256D01*
X60399D02*X59541Y289786D01*
X59256Y290073D01*
X58971Y290643D01*
X66198Y295500D02*X65340Y295215D01*
X65055Y294644D01*
Y294072D01*
X65340Y293500D01*
X65912Y293214D01*
X67055Y292930D01*
X67913Y292644D01*
X68483Y292072D01*
X68769Y291501D01*
Y290643D01*
X68483Y290073D01*
X68196Y289786D01*
X67340Y289500D01*
X66198D02*X67340D01*
X66198D02*X65340Y289786D01*
X65055Y290073D01*
X64770Y290643D01*
Y291501D02*Y290643D01*
Y291501D02*X65055Y292072D01*
X65625Y292644D01*
X66483Y292930D01*
X67626Y293214D01*
X68196Y293500D01*
X68483Y294072D01*
Y294644D02*Y294072D01*
Y294644D02*X68196Y295215D01*
X67340Y295500D01*
X66198D02*X67340D01*
X231672Y131500D02*G75*G03X233272Y131500I800J0D01*G01*
G75*G03X231672Y131500I-800J0D01*G01*
X221830D02*G75*G03X223430Y131500I800J0D01*G01*
G75*G03X221830Y131500I-800J0D01*G01*
X251357D02*G75*G03X252957Y131500I800J0D01*G01*
G75*G03X251357Y131500I-800J0D01*G01*
X241515D02*G75*G03X243115Y131500I800J0D01*G01*
G75*G03X241515Y131500I-800J0D01*G01*
X261200D02*G75*G03X262800Y131500I800J0D01*G01*
G75*G03X261200Y131500I-800J0D01*G01*
X217302Y62000D02*G75*G03X218902Y62000I800J0D01*G01*
G75*G03X217302Y62000I-800J0D01*G01*
X246830D02*G75*G03X248430Y62000I800J0D01*G01*
G75*G03X246830Y62000I-800J0D01*G01*
X236987D02*G75*G03X238587Y62000I800J0D01*G01*
G75*G03X236987Y62000I-800J0D01*G01*
X227145D02*G75*G03X228745Y62000I800J0D01*G01*
G75*G03X227145Y62000I-800J0D01*G01*
X276357D02*G75*G03X277957Y62000I800J0D01*G01*
G75*G03X276357Y62000I-800J0D01*G01*
X266515D02*G75*G03X268115Y62000I800J0D01*G01*
G75*G03X266515Y62000I-800J0D01*G01*
X256672D02*G75*G03X258272Y62000I800J0D01*G01*
G75*G03X256672Y62000I-800J0D01*G01*
X286200D02*G75*G03X287800Y62000I800J0D01*G01*
G75*G03X286200Y62000I-800J0D01*G01*
X754673Y67606D02*G75*G03X756273Y67606I800J0D01*G01*
G75*G03X754673Y67606I-800J0D01*G01*
X744830Y68000D02*G75*G03X746430Y68000I800J0D01*G01*
G75*G03X744830Y68000I-800J0D01*G01*
X764515D02*G75*G03X766115Y68000I800J0D01*G01*
G75*G03X764515Y68000I-800J0D01*G01*
X774358Y67606D02*G75*G03X775958Y67606I800J0D01*G01*
G75*G03X774358Y67606I-800J0D01*G01*
X784200Y68000D02*G75*G03X785800Y68000I800J0D01*G01*
G75*G03X784200Y68000I-800J0D01*G01*
X794043Y67606D02*G75*G03X795643Y67606I800J0D01*G01*
G75*G03X794043Y67606I-800J0D01*G01*
X803885Y68000D02*G75*G03X805485Y68000I800J0D01*G01*
G75*G03X803885Y68000I-800J0D01*G01*
X813728Y67606D02*G75*G03X815328Y67606I800J0D01*G01*
G75*G03X813728Y67606I-800J0D01*G01*
X823570Y68000D02*G75*G03X825170Y68000I800J0D01*G01*
G75*G03X823570Y68000I-800J0D01*G01*
X833413Y67606D02*G75*G03X835013Y67606I800J0D01*G01*
G75*G03X833413Y67606I-800J0D01*G01*
X374755Y62000D02*G75*G03X376355Y62000I800J0D01*G01*
G75*G03X374755Y62000I-800J0D01*G01*
X404283D02*G75*G03X405883Y62000I800J0D01*G01*
G75*G03X404283Y62000I-800J0D01*G01*
X394440D02*G75*G03X396040Y62000I800J0D01*G01*
G75*G03X394440Y62000I-800J0D01*G01*
X384598D02*G75*G03X386198Y62000I800J0D01*G01*
G75*G03X384598Y62000I-800J0D01*G01*
X364913D02*G75*G03X366513Y62000I800J0D01*G01*
G75*G03X364913Y62000I-800J0D01*G01*
X355070D02*G75*G03X356670Y62000I800J0D01*G01*
G75*G03X355070Y62000I-800J0D01*G01*
X345228D02*G75*G03X346828Y62000I800J0D01*G01*
G75*G03X345228Y62000I-800J0D01*G01*
X335385D02*G75*G03X336985Y62000I800J0D01*G01*
G75*G03X335385Y62000I-800J0D01*G01*
X325543D02*G75*G03X327143Y62000I800J0D01*G01*
G75*G03X325543Y62000I-800J0D01*G01*
X315700D02*G75*G03X317300Y62000I800J0D01*G01*
G75*G03X315700Y62000I-800J0D01*G01*
X447200Y138000D02*G75*G03X448800Y138000I800J0D01*G01*
G75*G03X447200Y138000I-800J0D01*G01*
X908200Y67500D02*G75*G03X909800Y67500I800J0D01*G01*
G75*G03X908200Y67500I-800J0D01*G01*
X989830Y98500D02*G75*G03X991430Y98500I800J0D01*G01*
G75*G03X989830Y98500I-800J0D01*G01*
X918043Y67106D02*G75*G03X919643Y67106I800J0D01*G01*
G75*G03X918043Y67106I-800J0D01*G01*
X927885Y67500D02*G75*G03X929485Y67500I800J0D01*G01*
G75*G03X927885Y67500I-800J0D01*G01*
X937728Y67106D02*G75*G03X939328Y67106I800J0D01*G01*
G75*G03X937728Y67106I-800J0D01*G01*
X947570Y67500D02*G75*G03X949170Y67500I800J0D01*G01*
G75*G03X947570Y67500I-800J0D01*G01*
X957413Y67106D02*G75*G03X959013Y67106I800J0D01*G01*
G75*G03X957413Y67106I-800J0D01*G01*
X967255Y67500D02*G75*G03X968855Y67500I800J0D01*G01*
G75*G03X967255Y67500I-800J0D01*G01*
X977098Y67106D02*G75*G03X978698Y67106I800J0D01*G01*
G75*G03X977098Y67106I-800J0D01*G01*
X1064358Y40500D02*G75*G03X1065958Y40500I800J0D01*G01*
G75*G03X1064358Y40500I-800J0D01*G01*
X999673Y98106D02*G75*G03X1001273Y98106I800J0D01*G01*
G75*G03X999673Y98106I-800J0D01*G01*
X1009515Y98500D02*G75*G03X1011115Y98500I800J0D01*G01*
G75*G03X1009515Y98500I-800J0D01*G01*
X1019358Y98106D02*G75*G03X1020958Y98106I800J0D01*G01*
G75*G03X1019358Y98106I-800J0D01*G01*
X1029200Y98500D02*G75*G03X1030800Y98500I800J0D01*G01*
G75*G03X1029200Y98500I-800J0D01*G01*
X1039043Y98106D02*G75*G03X1040643Y98106I800J0D01*G01*
G75*G03X1039043Y98106I-800J0D01*G01*
X1048885Y98500D02*G75*G03X1050485Y98500I800J0D01*G01*
G75*G03X1048885Y98500I-800J0D01*G01*
X1058728Y98106D02*G75*G03X1060328Y98106I800J0D01*G01*
G75*G03X1058728Y98106I-800J0D01*G01*
X1068570Y98500D02*G75*G03X1070170Y98500I800J0D01*G01*
G75*G03X1068570Y98500I-800J0D01*G01*
X1074200Y40500D02*G75*G03X1075800Y40500I800J0D01*G01*
G75*G03X1074200Y40500I-800J0D01*G01*
X1078413Y98106D02*G75*G03X1080013Y98106I800J0D01*G01*
G75*G03X1078413Y98106I-800J0D01*G01*
X1084043Y40500D02*G75*G03X1085643Y40500I800J0D01*G01*
G75*G03X1084043Y40500I-800J0D01*G01*
X1011700Y69000D02*G75*G03X1013300Y69000I800J0D01*G01*
G75*G03X1011700Y69000I-800J0D01*G01*
X513200Y196000D02*G75*G03X514800Y196000I800J0D01*G01*
G75*G03X513200Y196000I-800J0D01*G01*
X299700Y194000D02*G75*G03X301300Y194000I800J0D01*G01*
G75*G03X299700Y194000I-800J0D01*G01*
Y181500D02*G75*G03X301300Y181500I800J0D01*G01*
G75*G03X299700Y181500I-800J0D01*G01*
X289857Y194787D02*G75*G03X291457Y194787I800J0D01*G01*
G75*G03X289857Y194787I-800J0D01*G01*
Y182287D02*G75*G03X291457Y182287I800J0D01*G01*
G75*G03X289857Y182287I-800J0D01*G01*
X280015Y194000D02*G75*G03X281615Y194000I800J0D01*G01*
G75*G03X280015Y194000I-800J0D01*G01*
Y181500D02*G75*G03X281615Y181500I800J0D01*G01*
G75*G03X280015Y181500I-800J0D01*G01*
X270172Y194787D02*G75*G03X271772Y194787I800J0D01*G01*
G75*G03X270172Y194787I-800J0D01*G01*
Y182287D02*G75*G03X271772Y182287I800J0D01*G01*
G75*G03X270172Y182287I-800J0D01*G01*
X24700Y89172D02*G75*G03X26300Y89172I800J0D01*G01*
G75*G03X24700Y89172I-800J0D01*G01*
X46200Y40000D02*G75*G03X47800Y40000I800J0D01*G01*
G75*G03X46200Y40000I-800J0D01*G01*
X36357D02*G75*G03X37957Y40000I800J0D01*G01*
G75*G03X36357Y40000I-800J0D01*G01*
X26515D02*G75*G03X28115Y40000I800J0D01*G01*
G75*G03X26515Y40000I-800J0D01*G01*
X34543Y88778D02*G75*G03X36143Y88778I800J0D01*G01*
G75*G03X34543Y88778I-800J0D01*G01*
X44385Y89172D02*G75*G03X45985Y89172I800J0D01*G01*
G75*G03X44385Y89172I-800J0D01*G01*
X14200Y308250D02*G75*G03X15800Y308250I800J0D01*G01*
G75*G03X14200Y308250I-800J0D01*G01*
X135000Y310500D02*X137284Y307642D01*
Y304500D01*
X139572Y310500D02*X137284Y307642D01*
X141372Y310500D02*Y304500D01*
Y310500D02*X145086D01*
X141372Y307642D02*X143657D01*
X141372Y304500D02*X145086D01*
X150885Y309642D02*X150314Y310214D01*
X149457Y310500D01*
X148314D02*X149457D01*
X148314D02*X147456Y310214D01*
X146886Y309642D01*
Y309072D01*
X147170Y308499D01*
X147456Y308214D01*
X148029Y307929D01*
X149744Y307358D01*
X150314Y307071D01*
X150599Y306786D01*
X150885Y306214D01*
Y305356D01*
X150314Y304786D01*
X149457Y304500D01*
X148314D02*X149457D01*
X148314D02*X147456Y304786D01*
X146886Y305356D01*
X101999Y310500D02*X99142Y304500D01*
X98000Y310500D02*X101999D01*
X103799Y309358D02*X104369Y309644D01*
X105227Y310500D01*
Y304500D01*
X46714Y310500D02*X45858Y310215D01*
X45285Y309358D01*
X45000Y307930D01*
Y307072D01*
X45285Y305643D01*
X45858Y304786D01*
X46714Y304500D01*
X47286D01*
X48142Y304786D01*
X48714Y305643D01*
X49000Y307072D01*
Y307930D02*Y307072D01*
Y307930D02*X48714Y309358D01*
X48142Y310215D01*
X47286Y310500D01*
X46714D02*X47286D01*
X51086Y304950D02*X50801Y304664D01*
X51086Y304380D01*
X51371Y304664D01*
X51086Y304950D01*
X54885Y310500D02*X54029Y310215D01*
X53456Y309358D01*
X53171Y307930D01*
Y307072D01*
X53456Y305643D01*
X54029Y304786D01*
X54885Y304500D01*
X55457D01*
X56313Y304786D01*
X56885Y305643D01*
X57171Y307072D01*
Y307930D02*Y307072D01*
Y307930D02*X56885Y309358D01*
X56313Y310215D01*
X55457Y310500D01*
X54885D02*X55457D01*
X59541D02*X62684D01*
X60969Y308214D01*
X61827D01*
X62397Y307930D01*
X62684Y307644D01*
X62970Y306786D01*
Y306216D01*
X62684Y305358D01*
X62114Y304786D01*
X61256Y304500D01*
X60399D02*X61256D01*
X60399D02*X59541Y304786D01*
X59256Y305073D01*
X58971Y305643D01*
X68198Y309644D02*X67913Y310215D01*
X67055Y310500D01*
X66485D02*X67055D01*
X66485D02*X65625Y310215D01*
X65055Y309358D01*
X64770Y307930D01*
Y306501D01*
X65055Y305358D01*
X65625Y304786D01*
X66485Y304500D01*
X66770D01*
X67626Y304786D01*
X68198Y305358D01*
X68483Y306216D01*
Y306501D02*Y306216D01*
Y306501D02*X68198Y307358D01*
X67626Y307930D01*
X66770Y308214D01*
X66485D02*X66770D01*
X66485D02*X65625Y307930D01*
X65055Y307358D01*
X64770Y306501D01*
X281800Y117700D02*X284200Y115300D01*
X281800D02*X284200Y117700D01*
X217800Y87700D02*X220200Y85300D01*
X217800D02*X220200Y87700D01*
X489800Y80700D02*X492200Y78300D01*
X489800D02*X492200Y80700D01*
X777300Y166700D02*X779700Y164300D01*
X777300D02*X779700Y166700D01*
X905300Y140200D02*X907700Y137800D01*
X905300D02*X907700Y140200D01*
X818800Y165200D02*X821200Y162800D01*
X818800D02*X821200Y165200D01*
X375800Y200700D02*X378200Y198300D01*
X375800D02*X378200Y200700D01*
X387800Y150200D02*X390200Y147800D01*
X387800D02*X390200Y150200D01*
X25800Y193200D02*X28200Y190800D01*
X25800D02*X28200Y193200D01*
X230052Y105531D02*X232452Y103131D01*
X230052D02*X232452Y105531D01*
X222178D02*X224578Y103131D01*
X222178D02*X224578Y105531D01*
X237926D02*X240326Y103131D01*
X237926D02*X240326Y105531D01*
X214304D02*X216704Y103131D01*
X214304D02*X216704Y105531D01*
X230682Y84200D02*X233082Y81800D01*
X230682D02*X233082Y84200D01*
X245800Y105531D02*X248200Y103131D01*
X245800D02*X248200Y105531D01*
X246430Y84200D02*X248830Y81800D01*
X246430D02*X248830Y84200D01*
X238556D02*X240956Y81800D01*
X238556D02*X240956Y84200D01*
X262178D02*X264578Y81800D01*
X262178D02*X264578Y84200D01*
X254304D02*X256704Y81800D01*
X254304D02*X256704Y84200D01*
X277926D02*X280326Y81800D01*
X277926D02*X280326Y84200D01*
X270052D02*X272452Y81800D01*
X270052D02*X272452Y84200D01*
X285800D02*X288200Y81800D01*
X285800D02*X288200Y84200D01*
X398300Y86700D02*X400700Y84300D01*
X398300D02*X400700Y86700D01*
X390426D02*X392826Y84300D01*
X390426D02*X392826Y86700D01*
X382552D02*X384952Y84300D01*
X382552D02*X384952Y86700D01*
X374678D02*X377078Y84300D01*
X374678D02*X377078Y86700D01*
X366804D02*X369204Y84300D01*
X366804D02*X369204Y86700D01*
X358930D02*X361330Y84300D01*
X358930D02*X361330Y86700D01*
X351056D02*X353456Y84300D01*
X351056D02*X353456Y86700D01*
X343182D02*X345582Y84300D01*
X343182D02*X345582Y86700D01*
X335308D02*X337708Y84300D01*
X335308D02*X337708Y86700D01*
X327434D02*X329834Y84300D01*
X327434D02*X329834Y86700D01*
X1039800Y42200D02*X1042200Y39800D01*
X1039800D02*X1042200Y42200D01*
X1031926D02*X1034326Y39800D01*
X1031926D02*X1034326Y42200D01*
X1024052D02*X1026452Y39800D01*
X1024052D02*X1026452Y42200D01*
X43674Y116200D02*X46074Y113800D01*
X43674D02*X46074Y116200D01*
X35800D02*X38200Y113800D01*
X35800D02*X38200Y116200D01*
X27926D02*X30326Y113800D01*
X27926D02*X30326Y116200D01*
X13800Y324450D02*X16200Y322050D01*
X13800D02*X16200Y324450D01*
X135000Y325500D02*X137284Y322642D01*
Y319500D01*
X139572Y325500D02*X137284Y322642D01*
X141372Y325500D02*Y319500D01*
Y325500D02*X145086D01*
X141372Y322642D02*X143657D01*
X141372Y319500D02*X145086D01*
X150885Y324642D02*X150314Y325214D01*
X149457Y325500D01*
X148314D02*X149457D01*
X148314D02*X147456Y325214D01*
X146886Y324642D01*
Y324072D01*
X147170Y323499D01*
X147456Y323214D01*
X148029Y322929D01*
X149744Y322358D01*
X150314Y322071D01*
X150599Y321786D01*
X150885Y321214D01*
Y320356D01*
X150314Y319786D01*
X149457Y319500D01*
X148314D02*X149457D01*
X148314D02*X147456Y319786D01*
X146886Y320356D01*
X98570Y325500D02*X101712D01*
X99998Y323214D01*
X100856D01*
X101426Y322930D01*
X101712Y322644D01*
X101999Y321786D01*
Y321216D01*
X101712Y320358D01*
X101142Y319786D01*
X100284Y319500D01*
X99428D02*X100284D01*
X99428D02*X98570Y319786D01*
X98285Y320073D01*
X98000Y320643D01*
X105227Y325500D02*X104369Y325215D01*
X104084Y324644D01*
Y324072D01*
X104369Y323500D01*
X104941Y323214D01*
X106084Y322930D01*
X106942Y322644D01*
X107512Y322072D01*
X107798Y321501D01*
Y320643D01*
X107512Y320073D01*
X107225Y319786D01*
X106369Y319500D01*
X105227D02*X106369D01*
X105227D02*X104369Y319786D01*
X104084Y320073D01*
X103799Y320643D01*
Y321501D02*Y320643D01*
Y321501D02*X104084Y322072D01*
X104654Y322644D01*
X105512Y322930D01*
X106655Y323214D01*
X107225Y323500D01*
X107512Y324072D01*
Y324644D02*Y324072D01*
Y324644D02*X107225Y325215D01*
X106369Y325500D01*
X105227D02*X106369D01*
X46714D02*X45858Y325215D01*
X45285Y324358D01*
X45000Y322930D01*
Y322072D01*
X45285Y320643D01*
X45858Y319786D01*
X46714Y319500D01*
X47286D01*
X48142Y319786D01*
X48714Y320643D01*
X49000Y322072D01*
Y322930D02*Y322072D01*
Y322930D02*X48714Y324358D01*
X48142Y325215D01*
X47286Y325500D01*
X46714D02*X47286D01*
X51086Y319950D02*X50801Y319664D01*
X51086Y319380D01*
X51371Y319664D01*
X51086Y319950D01*
X54885Y325500D02*X54029Y325215D01*
X53456Y324358D01*
X53171Y322930D01*
Y322072D01*
X53456Y320643D01*
X54029Y319786D01*
X54885Y319500D01*
X55457D01*
X56313Y319786D01*
X56885Y320643D01*
X57171Y322072D01*
Y322930D02*Y322072D01*
Y322930D02*X56885Y324358D01*
X56313Y325215D01*
X55457Y325500D01*
X54885D02*X55457D01*
X59541D02*X62684D01*
X60969Y323214D01*
X61827D01*
X62397Y322930D01*
X62684Y322644D01*
X62970Y321786D01*
Y321216D01*
X62684Y320358D01*
X62114Y319786D01*
X61256Y319500D01*
X60399D02*X61256D01*
X60399D02*X59541Y319786D01*
X59256Y320073D01*
X58971Y320643D01*
X65342Y325500D02*X68199D01*
X65342D02*X65055Y322930D01*
X65342Y323214D01*
X66198Y323500D01*
X67056D01*
X67913Y323214D01*
X68484Y322644D01*
X68771Y321786D01*
Y321216D01*
X68484Y320358D01*
X67913Y319786D01*
X67056Y319500D01*
X66198D02*X67056D01*
X66198D02*X65342Y319786D01*
X65055Y320073D01*
X64770Y320643D01*
X342000Y131300D02*Y128100D01*
X340400Y129700D02*X343600D01*
X342000Y156900D02*Y153700D01*
X340400Y155300D02*X343600D01*
X15000Y339850D02*Y336650D01*
X13400Y338250D02*X16600D01*
X135000Y340500D02*X137284Y337642D01*
Y334500D01*
X139572Y340500D02*X137284Y337642D01*
X141372Y340500D02*Y334500D01*
Y340500D02*X145086D01*
X141372Y337642D02*X143657D01*
X141372Y334500D02*X145086D01*
X150885Y339642D02*X150314Y340214D01*
X149457Y340500D01*
X148314D02*X149457D01*
X148314D02*X147456Y340214D01*
X146886Y339642D01*
Y339072D01*
X147170Y338499D01*
X147456Y338214D01*
X148029Y337929D01*
X149744Y337358D01*
X150314Y337071D01*
X150599Y336786D01*
X150885Y336214D01*
Y335356D01*
X150314Y334786D01*
X149457Y334500D01*
X148314D02*X149457D01*
X148314D02*X147456Y334786D01*
X146886Y335356D01*
X98285Y339358D02*Y339072D01*
Y339358D02*X98572Y339928D01*
X98855Y340215D01*
X99428Y340500D01*
X100570D01*
X101142Y340215D01*
X101428Y339928D01*
X101712Y339358D01*
Y338786D01*
X101428Y338214D01*
X100856Y337358D01*
X98000Y334500D01*
X101999D01*
X46714Y340500D02*X45858Y340215D01*
X45285Y339358D01*
X45000Y337930D01*
Y337072D01*
X45285Y335643D01*
X45858Y334786D01*
X46714Y334500D01*
X47286D01*
X48142Y334786D01*
X48714Y335643D01*
X49000Y337072D01*
Y337930D02*Y337072D01*
Y337930D02*X48714Y339358D01*
X48142Y340215D01*
X47286Y340500D01*
X46714D02*X47286D01*
X51086Y334950D02*X50801Y334664D01*
X51086Y334380D01*
X51371Y334664D01*
X51086Y334950D01*
X54885Y340500D02*X54029Y340215D01*
X53456Y339358D01*
X53171Y337930D01*
Y337072D01*
X53456Y335643D01*
X54029Y334786D01*
X54885Y334500D01*
X55457D01*
X56313Y334786D01*
X56885Y335643D01*
X57171Y337072D01*
Y337930D02*Y337072D01*
Y337930D02*X56885Y339358D01*
X56313Y340215D01*
X55457Y340500D01*
X54885D02*X55457D01*
X59541D02*X62684D01*
X60969Y338214D01*
X61827D01*
X62397Y337930D01*
X62684Y337644D01*
X62970Y336786D01*
Y336216D01*
X62684Y335358D01*
X62114Y334786D01*
X61256Y334500D01*
X60399D02*X61256D01*
X60399D02*X59541Y334786D01*
X59256Y335073D01*
X58971Y335643D01*
X66485Y340500D02*X65628Y340215D01*
X65055Y339358D01*
X64770Y337930D01*
Y337072D01*
X65055Y335643D01*
X65628Y334786D01*
X66485Y334500D01*
X67056D01*
X67913Y334786D01*
X68484Y335643D01*
X68771Y337072D01*
Y337930D02*Y337072D01*
Y337930D02*X68484Y339358D01*
X67913Y340215D01*
X67056Y340500D01*
X66485D02*X67056D01*
X131500Y138500D02*Y136900D01*
Y138500D02*X132887Y139300D01*
X131500Y138500D02*X130113Y139300D01*
X65000Y31500D02*Y29900D01*
Y31500D02*X66387Y32300D01*
X65000Y31500D02*X63613Y32300D01*
X199000Y100500D02*Y98900D01*
Y100500D02*X200387Y101300D01*
X199000Y100500D02*X197613Y101300D01*
X239000Y115500D02*Y113900D01*
Y115500D02*X240387Y116300D01*
X239000Y115500D02*X237613Y116300D01*
X501500Y39000D02*Y37400D01*
Y39000D02*X502887Y39800D01*
X501500Y39000D02*X500113Y39800D01*
X469000Y39000D02*Y37400D01*
Y39000D02*X470387Y39800D01*
X469000Y39000D02*X467613Y39800D01*
X857500Y130000D02*Y128400D01*
Y130000D02*X858887Y130800D01*
X857500Y130000D02*X856113Y130800D01*
X352500Y34000D02*Y32400D01*
Y34000D02*X353887Y34800D01*
X352500Y34000D02*X351113Y34800D01*
X425500Y124500D02*Y122900D01*
Y124500D02*X426887Y125300D01*
X425500Y124500D02*X424113Y125300D01*
X430500Y129500D02*Y127900D01*
Y129500D02*X431887Y130300D01*
X430500Y129500D02*X429113Y130300D01*
X869500Y130000D02*Y128400D01*
Y130000D02*X870887Y130800D01*
X869500Y130000D02*X868113Y130800D01*
X794500Y136500D02*Y134900D01*
Y136500D02*X795887Y137300D01*
X794500Y136500D02*X793113Y137300D01*
X815000Y36000D02*Y34400D01*
Y36000D02*X816387Y36800D01*
X815000Y36000D02*X813613Y36800D01*
X381500Y142500D02*Y140900D01*
Y142500D02*X382887Y143300D01*
X381500Y142500D02*X380113Y143300D01*
X376500Y149000D02*Y147400D01*
Y149000D02*X377887Y149800D01*
X376500Y149000D02*X375113Y149800D01*
X442000Y174000D02*Y172400D01*
Y174000D02*X443387Y174800D01*
X442000Y174000D02*X440613Y174800D01*
X442000Y145500D02*Y143900D01*
Y145500D02*X443387Y146300D01*
X442000Y145500D02*X440613Y146300D01*
X433000Y186000D02*Y184400D01*
Y186000D02*X434387Y186800D01*
X433000Y186000D02*X431613Y186800D01*
X291000Y157500D02*Y155900D01*
Y157500D02*X292387Y158300D01*
X291000Y157500D02*X289613Y158300D01*
X15000Y353250D02*Y351650D01*
Y353250D02*X16387Y354050D01*
X15000Y353250D02*X13613Y354050D01*
X135000Y355500D02*X137284Y352642D01*
Y349500D01*
X139572Y355500D02*X137284Y352642D01*
X141372Y355500D02*Y349500D01*
Y355500D02*X145086D01*
X141372Y352642D02*X143657D01*
X141372Y349500D02*X145086D01*
X150885Y354642D02*X150314Y355214D01*
X149457Y355500D01*
X148314D02*X149457D01*
X148314D02*X147456Y355214D01*
X146886Y354642D01*
Y354072D01*
X147170Y353499D01*
X147456Y353214D01*
X148029Y352929D01*
X149744Y352358D01*
X150314Y352071D01*
X150599Y351786D01*
X150885Y351214D01*
Y350356D01*
X150314Y349786D01*
X149457Y349500D01*
X148314D02*X149457D01*
X148314D02*X147456Y349786D01*
X146886Y350356D01*
X98000Y354358D02*X98570Y354644D01*
X99428Y355500D01*
Y349500D01*
X104941Y353500D02*X104656Y352644D01*
X104084Y352072D01*
X103226Y351786D01*
X102941D02*X103226D01*
X102941D02*X102085Y352072D01*
X101512Y352644D01*
X101228Y353500D01*
Y353786D02*Y353500D01*
Y353786D02*X101512Y354644D01*
X102085Y355215D01*
X102941Y355500D01*
X103226D01*
X104084Y355215D01*
X104656Y354644D01*
X104941Y353500D01*
Y352072D01*
X104656Y350643D01*
X104084Y349786D01*
X103226Y349500D01*
X102656D02*X103226D01*
X102656D02*X101798Y349786D01*
X101512Y350358D01*
X46714Y355500D02*X45858Y355215D01*
X45285Y354358D01*
X45000Y352930D01*
Y352072D01*
X45285Y350643D01*
X45858Y349786D01*
X46714Y349500D01*
X47286D01*
X48142Y349786D01*
X48714Y350643D01*
X49000Y352072D01*
Y352930D02*Y352072D01*
Y352930D02*X48714Y354358D01*
X48142Y355215D01*
X47286Y355500D01*
X46714D02*X47286D01*
X51086Y349950D02*X50801Y349664D01*
X51086Y349380D01*
X51371Y349664D01*
X51086Y349950D01*
X54885Y355500D02*X54029Y355215D01*
X53456Y354358D01*
X53171Y352930D01*
Y352072D01*
X53456Y350643D01*
X54029Y349786D01*
X54885Y349500D01*
X55457D01*
X56313Y349786D01*
X56885Y350643D01*
X57171Y352072D01*
Y352930D02*Y352072D01*
Y352930D02*X56885Y354358D01*
X56313Y355215D01*
X55457Y355500D01*
X54885D02*X55457D01*
X59256Y354358D02*Y354072D01*
Y354358D02*X59543Y354928D01*
X59826Y355215D01*
X60399Y355500D01*
X61541D01*
X62114Y355215D01*
X62399Y354928D01*
X62684Y354358D01*
Y353786D01*
X62399Y353214D01*
X61827Y352358D01*
X58971Y349500D01*
X62970D01*
X66485Y355500D02*X65628Y355215D01*
X65055Y354358D01*
X64770Y352930D01*
Y352072D01*
X65055Y350643D01*
X65628Y349786D01*
X66485Y349500D01*
X67056D01*
X67913Y349786D01*
X68484Y350643D01*
X68771Y352072D01*
Y352930D02*Y352072D01*
Y352930D02*X68484Y354358D01*
X67913Y355215D01*
X67056Y355500D01*
X66485D02*X67056D01*
X3999Y369642D02*X3428Y370214D01*
X2571Y370500D01*
X1428D02*X2571D01*
X1428D02*X570Y370214D01*
X0Y369642D01*
Y369072D01*
X284Y368499D01*
X570Y368214D01*
X1143Y367929D01*
X2858Y367358D01*
X3428Y367071D01*
X3712Y366786D01*
X3999Y366214D01*
Y365356D01*
X3428Y364786D01*
X2571Y364500D01*
X1428D02*X2571D01*
X1428D02*X570Y364786D01*
X0Y365356D01*
X6084Y368500D02*X7799Y364502D01*
X9513Y368500D02*X7799Y364502D01*
X7227Y363360D01*
X6657Y362787D01*
X6084Y362500D01*
X5799D02*X6084D01*
X11313Y368500D02*Y364502D01*
Y367359D02*X12168Y368217D01*
X12741Y368500D01*
X13598D01*
X14169Y368217D01*
X14454Y367359D01*
Y364502D01*
Y367359D02*X15312Y368217D01*
X15882Y368500D01*
X16740D01*
X17310Y368217D01*
X17597Y367359D01*
Y364502D01*
X19397Y370500D02*Y364500D01*
Y367644D02*X19968Y368216D01*
X20538Y368500D01*
X21396D01*
X21966Y368216D01*
X22539Y367644D01*
X22826Y366788D01*
Y366216D01*
X22539Y365360D01*
X21966Y364786D01*
X21396Y364500D01*
X20538D02*X21396D01*
X20538D02*X19968Y364786D01*
X19397Y365360D01*
X26054Y368500D02*X25481Y368217D01*
X24909Y367646D01*
X24626Y366789D01*
Y366216D01*
X24909Y365360D01*
X25481Y364788D01*
X26054Y364502D01*
X26910D01*
X27482Y364788D01*
X28052Y365360D01*
X28338Y366216D01*
Y366789D02*Y366216D01*
Y366789D02*X28052Y367646D01*
X27482Y368217D01*
X26910Y368500D01*
X26054D02*X26910D01*
X30138Y370500D02*Y364500D01*
X0Y361500D02*X31938D01*
X41000Y370500D02*Y364500D01*
Y370500D02*X43001D01*
X43858Y370214D01*
X44429Y369642D01*
X44714Y369072D01*
X44999Y368214D01*
Y366784D01*
X44714Y365928D01*
X44429Y365356D01*
X43858Y364786D01*
X43001Y364500D01*
X41000D02*X43001D01*
X47084Y368514D02*Y364515D01*
X46799Y370515D02*X47084Y370228D01*
X47371Y370515D01*
X47084Y370800D01*
X46799Y370515D01*
X52600Y368500D02*Y364502D01*
Y367646D02*X52027Y368217D01*
X51457Y368500D01*
X50599D02*X51457D01*
X50599D02*X50029Y368217D01*
X49456Y367646D01*
X49171Y366789D01*
Y366216D01*
X49456Y365360D01*
X50029Y364788D01*
X50599Y364502D01*
X51457D01*
X52027Y364788D01*
X52600Y365360D01*
X54400Y368500D02*Y364502D01*
Y367359D02*X55255Y368217D01*
X55828Y368500D01*
X56684D01*
X57256Y368217D01*
X57541Y367359D01*
Y364502D01*
Y367359D02*X58399Y368217D01*
X58969Y368500D01*
X59827D01*
X60397Y368217D01*
X60683Y367359D01*
Y364502D01*
X62768Y364950D02*X62483Y364664D01*
X62768Y364380D01*
X63053Y364664D01*
X62768Y364950D01*
X69553Y372000D02*X68981Y371428D01*
X68410Y370572D01*
X67837Y369428D01*
X67553Y368000D01*
Y366856D01*
X67837Y365428D01*
X68410Y364286D01*
X68981Y363429D01*
X69553Y362858D01*
X71353Y370500D02*X72853D01*
X72103D02*Y364500D01*
X71353D02*X72853D01*
X74653Y368500D02*Y364502D01*
Y367359D02*X75511Y368217D01*
X76081Y368500D01*
X76939D01*
X77509Y368217D01*
X77795Y367359D01*
Y364502D01*
X83024Y367646D02*X82451Y368217D01*
X81881Y368500D01*
X81023D02*X81881D01*
X81023D02*X80453Y368217D01*
X79880Y367646D01*
X79595Y366789D01*
Y366216D01*
X79880Y365360D01*
X80453Y364788D01*
X81023Y364502D01*
X81881D01*
X82451Y364788D01*
X83024Y365360D01*
X84824Y370500D02*Y364500D01*
Y367358D02*X85679Y368216D01*
X86252Y368500D01*
X87109D01*
X87680Y368216D01*
X87967Y367358D01*
Y364500D01*
X89767Y372000D02*X90337Y371428D01*
X90910Y370572D01*
X91481Y369428D01*
X91765Y368000D01*
Y366856D01*
X91481Y365428D01*
X90910Y364286D01*
X90337Y363429D01*
X89767Y362858D01*
X41000Y361500D02*X93565D01*
X99286Y369072D02*X98999Y369642D01*
X98428Y370214D01*
X97858Y370500D01*
X96713D02*X97858D01*
X96713D02*X96143Y370214D01*
X95570Y369642D01*
X95285Y369072D01*
X95000Y368214D01*
Y366784D01*
X95285Y365928D01*
X95570Y365356D01*
X96143Y364786D01*
X96713Y364500D01*
X97858D01*
X98428Y364786D01*
X98999Y365356D01*
X99286Y365928D01*
X102514Y368500D02*X101941Y368217D01*
X101369Y367646D01*
X101086Y366789D01*
Y366216D01*
X101369Y365360D01*
X101941Y364788D01*
X102514Y364502D01*
X103370D01*
X103942Y364788D01*
X104512Y365360D01*
X104798Y366216D01*
Y366789D02*Y366216D01*
Y366789D02*X104512Y367646D01*
X103942Y368217D01*
X103370Y368500D01*
X102514D02*X103370D01*
X106598D02*Y365644D01*
X106883Y364788D01*
X107456Y364502D01*
X108313D01*
X108884Y364788D01*
X109741Y365644D01*
Y368500D02*Y364502D01*
X111541Y368500D02*Y364502D01*
Y367359D02*X112399Y368217D01*
X112969Y368500D01*
X113827D01*
X114397Y368217D01*
X114683Y367359D01*
Y364502D01*
X117341Y370500D02*Y365643D01*
X117625Y364786D01*
X118198Y364500D01*
X118769D01*
X116483Y368500D02*X118483D01*
X95000Y361500D02*X120569D01*
X130000Y370500D02*Y364500D01*
Y370500D02*X132571D01*
X133428Y370214D01*
X133714Y369928D01*
X133999Y369357D01*
Y368499D01*
X133714Y367929D01*
X133428Y367642D01*
X132571Y367358D01*
X130000D02*X132571D01*
X135799Y370500D02*Y364500D01*
X141028Y368500D02*Y364502D01*
Y367646D02*X140455Y368217D01*
X139885Y368500D01*
X139027D02*X139885D01*
X139027D02*X138457Y368217D01*
X137884Y367646D01*
X137599Y366789D01*
Y366216D01*
X137884Y365360D01*
X138457Y364788D01*
X139027Y364502D01*
X139885D01*
X140455Y364788D01*
X141028Y365360D01*
X143686Y370500D02*Y365643D01*
X143970Y364786D01*
X144543Y364500D01*
X145114D01*
X142828Y368500D02*X144828D01*
X146914Y366789D02*X150340D01*
Y367359D02*Y366789D01*
Y367359D02*X150055Y367930D01*
X149770Y368217D01*
X149199Y368500D01*
X148342D02*X149199D01*
X148342D02*X147769Y368217D01*
X147198Y367646D01*
X146914Y366789D01*
Y366216D01*
X147198Y365360D01*
X147769Y364788D01*
X148342Y364502D01*
X149199D01*
X149770Y364788D01*
X150340Y365360D01*
X155566Y370500D02*Y364500D01*
Y367644D02*X154996Y368216D01*
X154425Y368500D01*
X153568D02*X154425D01*
X153568D02*X152995Y368216D01*
X152424Y367644D01*
X152140Y366788D01*
Y366216D01*
X152424Y365360D01*
X152995Y364786D01*
X153568Y364500D01*
X154425D01*
X154996Y364786D01*
X155566Y365360D01*
X157366Y369357D02*Y369072D01*
Y369357D02*X157653Y369928D01*
X157936Y370214D01*
X158509Y370500D01*
X159651D01*
X160224Y370214D01*
X160509Y369928D01*
X160794Y369357D01*
Y368786D01*
X160509Y368216D01*
X160224Y367929D01*
X159081Y367358D01*
Y366501D01*
Y365073D02*X158794Y364786D01*
X159081Y364500D01*
X159364Y364786D01*
X159081Y365073D01*
X130000Y361500D02*X162594D01*
X2000Y385500D02*Y379500D01*
X0Y385500D02*X3999D01*
X5799D02*Y379500D01*
Y382358D02*X6654Y383216D01*
X7227Y383500D01*
X8084D01*
X8655Y383216D01*
X8942Y382358D01*
Y379500D01*
X10742Y381789D02*X14168D01*
Y382359D02*Y381789D01*
Y382359D02*X13883Y382930D01*
X13598Y383217D01*
X13026Y383500D01*
X12170D02*X13026D01*
X12170D02*X11597Y383217D01*
X11025Y382646D01*
X10742Y381789D01*
Y381216D01*
X11025Y380360D01*
X11597Y379788D01*
X12170Y379502D01*
X13026D01*
X13598Y379788D01*
X14168Y380360D01*
X15968Y383500D02*Y379502D01*
Y381786D02*X16253Y382646D01*
X16826Y383216D01*
X17396Y383500D01*
X18254D01*
X20054Y381789D02*X23480D01*
Y382359D02*Y381789D01*
Y382359D02*X23195Y382930D01*
X22910Y383217D01*
X22338Y383500D01*
X21482D02*X22338D01*
X21482D02*X20909Y383217D01*
X20337Y382646D01*
X20054Y381789D01*
Y381216D01*
X20337Y380360D01*
X20909Y379788D01*
X21482Y379502D01*
X22338D01*
X22910Y379788D01*
X23480Y380360D01*
X31409Y383500D02*Y379502D01*
Y382646D02*X30836Y383217D01*
X30266Y383500D01*
X29408D02*X30266D01*
X29408D02*X28838Y383217D01*
X28265Y382646D01*
X27980Y381789D01*
Y381216D01*
X28265Y380360D01*
X28838Y379788D01*
X29408Y379502D01*
X30266D01*
X30836Y379788D01*
X31409Y380360D01*
X33209Y383500D02*Y379502D01*
Y381786D02*X33494Y382646D01*
X34067Y383216D01*
X34637Y383500D01*
X35495D01*
X37295Y381789D02*X40721D01*
Y382359D02*Y381789D01*
Y382359D02*X40436Y382930D01*
X40151Y383217D01*
X39579Y383500D01*
X38723D02*X39579D01*
X38723D02*X38150Y383217D01*
X37578Y382646D01*
X37295Y381789D01*
Y381216D01*
X37578Y380360D01*
X38150Y379788D01*
X38723Y379502D01*
X39579D01*
X40151Y379788D01*
X40721Y380360D01*
X45221Y384358D02*X45791Y384644D01*
X46649Y385500D01*
Y379500D01*
X50163Y385500D02*X49307Y385215D01*
X48734Y384358D01*
X48449Y382930D01*
Y382072D01*
X48734Y380643D01*
X49307Y379786D01*
X50163Y379500D01*
X50735D01*
X51591Y379786D01*
X52163Y380643D01*
X52449Y382072D01*
Y382930D02*Y382072D01*
Y382930D02*X52163Y384358D01*
X51591Y385215D01*
X50735Y385500D01*
X50163D02*X50735D01*
X60375D02*Y379500D01*
Y382644D02*X59805Y383216D01*
X59234Y383500D01*
X58377D02*X59234D01*
X58377D02*X57804Y383216D01*
X57233Y382644D01*
X56949Y381788D01*
Y381216D01*
X57233Y380360D01*
X57804Y379786D01*
X58377Y379500D01*
X59234D01*
X59805Y379786D01*
X60375Y380360D01*
X62460Y383514D02*Y379515D01*
X62175Y385515D02*X62460Y385228D01*
X62747Y385515D01*
X62460Y385800D01*
X62175Y385515D01*
X66261Y385500D02*X66831D01*
X66261D02*X65688Y385215D01*
X65402Y384358D01*
Y379500D01*
X64547Y383500D02*X66546D01*
X70346Y385500D02*X70916D01*
X70346D02*X69773Y385215D01*
X69486Y384358D01*
Y379500D01*
X68631Y383500D02*X70631D01*
X72716Y381789D02*X76142D01*
Y382359D02*Y381789D01*
Y382359D02*X75857Y382930D01*
X75572Y383217D01*
X75000Y383500D01*
X74144D02*X75000D01*
X74144D02*X73571Y383217D01*
X72999Y382646D01*
X72716Y381789D01*
Y381216D01*
X72999Y380360D01*
X73571Y379788D01*
X74144Y379502D01*
X75000D01*
X75572Y379788D01*
X76142Y380360D01*
X77942Y383500D02*Y379502D01*
Y381786D02*X78227Y382646D01*
X78800Y383216D01*
X79370Y383500D01*
X80228D01*
X82028Y381789D02*X85454D01*
Y382359D02*Y381789D01*
Y382359D02*X85169Y382930D01*
X84884Y383217D01*
X84312Y383500D01*
X83456D02*X84312D01*
X83456D02*X82883Y383217D01*
X82311Y382646D01*
X82028Y381789D01*
Y381216D01*
X82311Y380360D01*
X82883Y379788D01*
X83456Y379502D01*
X84312D01*
X84884Y379788D01*
X85454Y380360D01*
X87254Y383500D02*Y379502D01*
Y382359D02*X88112Y383217D01*
X88682Y383500D01*
X89540D01*
X90110Y383217D01*
X90396Y382359D01*
Y379502D01*
X93054Y385500D02*Y380643D01*
X93338Y379786D01*
X93911Y379500D01*
X94482D01*
X92196Y383500D02*X94196D01*
X102408Y385500D02*Y379500D01*
Y382644D02*X101838Y383216D01*
X101267Y383500D01*
X100410D02*X101267D01*
X100410D02*X99837Y383216D01*
X99266Y382644D01*
X98982Y381788D01*
Y381216D01*
X99266Y380360D01*
X99837Y379786D01*
X100410Y379500D01*
X101267D01*
X101838Y379786D01*
X102408Y380360D01*
X104208Y383500D02*Y379502D01*
Y381786D02*X104493Y382646D01*
X105066Y383216D01*
X105636Y383500D01*
X106494D01*
X108579Y383514D02*Y379515D01*
X108294Y385515D02*X108579Y385228D01*
X108866Y385515D01*
X108579Y385800D01*
X108294Y385515D01*
X110666Y385500D02*Y379500D01*
X112466Y385500D02*Y379500D01*
X120107Y382646D02*X119822Y383216D01*
X118964Y383500D01*
X118107D02*X118964D01*
X118107D02*X117249Y383216D01*
X116966Y382646D01*
X117249Y382072D01*
X117821Y381786D01*
X119250Y381501D01*
X119822Y381216D01*
X120107Y380644D01*
Y380358D01*
X119822Y379788D01*
X118964Y379502D01*
X118107D02*X118964D01*
X118107D02*X117249Y379788D01*
X116966Y380358D01*
X122192Y383514D02*Y379515D01*
X121907Y385515D02*X122192Y385228D01*
X122478Y385515D01*
X122192Y385800D01*
X121907Y385515D01*
X127421Y383500D02*X124278Y379502D01*
Y383500D02*X127421D01*
X124278Y379502D02*X127421D01*
X129221Y381789D02*X132647D01*
Y382359D02*Y381789D01*
Y382359D02*X132362Y382930D01*
X132077Y383217D01*
X131505Y383500D01*
X130649D02*X131505D01*
X130649D02*X130076Y383217D01*
X129504Y382646D01*
X129221Y381789D01*
Y381216D01*
X129504Y380360D01*
X130076Y379788D01*
X130649Y379502D01*
X131505D01*
X132077Y379788D01*
X132647Y380360D01*
X137588Y382646D02*X137303Y383216D01*
X136445Y383500D01*
X135588D02*X136445D01*
X135588D02*X134730Y383216D01*
X134447Y382646D01*
X134730Y382072D01*
X135302Y381786D01*
X136731Y381501D01*
X137303Y381216D01*
X137588Y380644D01*
Y380358D01*
X137303Y379788D01*
X136445Y379502D01*
X135588D02*X136445D01*
X135588D02*X134730Y379788D01*
X134447Y380358D01*
X142088Y383500D02*Y380644D01*
X142373Y379788D01*
X142946Y379502D01*
X143802D01*
X144374Y379788D01*
X145230Y380644D01*
Y383500D02*Y379502D01*
X150171Y382646D02*X149886Y383216D01*
X149028Y383500D01*
X148172D02*X149028D01*
X148172D02*X147314Y383216D01*
X147030Y382646D01*
X147314Y382072D01*
X147885Y381786D01*
X149315Y381501D01*
X149886Y381216D01*
X150171Y380644D01*
Y380358D01*
X149886Y379788D01*
X149028Y379502D01*
X148172D02*X149028D01*
X148172D02*X147314Y379788D01*
X147030Y380358D01*
X151971Y381789D02*X155397D01*
Y382359D02*Y381789D01*
Y382359D02*X155112Y382930D01*
X154827Y383217D01*
X154256Y383500D01*
X153399D02*X154256D01*
X153399D02*X152826Y383217D01*
X152255Y382646D01*
X151971Y381789D01*
Y381216D01*
X152255Y380360D01*
X152826Y379788D01*
X153399Y379502D01*
X154256D01*
X154827Y379788D01*
X155397Y380360D01*
X160623Y385500D02*Y379500D01*
Y382644D02*X160053Y383216D01*
X159482Y383500D01*
X158625D02*X159482D01*
X158625D02*X158052Y383216D01*
X157481Y382644D01*
X157197Y381788D01*
Y381216D01*
X157481Y380360D01*
X158052Y379786D01*
X158625Y379500D01*
X159482D01*
X160053Y379786D01*
X160623Y380360D01*
X165408Y383514D02*Y379515D01*
X165123Y385515D02*X165408Y385228D01*
X165695Y385515D01*
X165408Y385800D01*
X165123Y385515D01*
X167495Y383500D02*Y379502D01*
Y382359D02*X168353Y383217D01*
X168923Y383500D01*
X169781D01*
X170351Y383217D01*
X170637Y382359D01*
Y379502D01*
X175995Y385500D02*Y380643D01*
X176279Y379786D01*
X176852Y379500D01*
X177423D01*
X175137Y383500D02*X177137D01*
X179223Y385500D02*Y379500D01*
Y382358D02*X180078Y383216D01*
X180651Y383500D01*
X181508D01*
X182079Y383216D01*
X182366Y382358D01*
Y379500D01*
X184451Y383514D02*Y379515D01*
X184166Y385515D02*X184451Y385228D01*
X184737Y385515D01*
X184451Y385800D01*
X184166Y385515D01*
X189678Y382646D02*X189393Y383216D01*
X188535Y383500D01*
X187679D02*X188535D01*
X187679D02*X186821Y383216D01*
X186537Y382646D01*
X186821Y382072D01*
X187392Y381786D01*
X188822Y381501D01*
X189393Y381216D01*
X189678Y380644D01*
Y380358D01*
X189393Y379788D01*
X188535Y379502D01*
X187679D02*X188535D01*
X187679D02*X186821Y379788D01*
X186537Y380358D01*
X194178Y385500D02*Y379500D01*
X199407Y383500D02*Y379502D01*
Y382646D02*X198834Y383217D01*
X198264Y383500D01*
X197406D02*X198264D01*
X197406D02*X196836Y383217D01*
X196263Y382646D01*
X195978Y381789D01*
Y381216D01*
X196263Y380360D01*
X196836Y379788D01*
X197406Y379502D01*
X198264D01*
X198834Y379788D01*
X199407Y380360D01*
X201492Y383500D02*X203207Y379502D01*
X204921Y383500D02*X203207Y379502D01*
X202635Y378360D01*
X202065Y377787D01*
X201492Y377500D01*
X201207D02*X201492D01*
X208149Y383500D02*X207576Y383217D01*
X207005Y382646D01*
X206721Y381789D01*
Y381216D01*
X207005Y380360D01*
X207576Y379788D01*
X208149Y379502D01*
X209006D01*
X209577Y379788D01*
X210147Y380360D01*
X210434Y381216D01*
Y381789D02*Y381216D01*
Y381789D02*X210147Y382646D01*
X209577Y383217D01*
X209006Y383500D01*
X208149D02*X209006D01*
X212234D02*Y380644D01*
X212519Y379788D01*
X213092Y379502D01*
X213948D01*
X214520Y379788D01*
X215376Y380644D01*
Y383500D02*Y379502D01*
X218034Y385500D02*Y380643D01*
X218318Y379786D01*
X218891Y379500D01*
X219462D01*
X217176Y383500D02*X219176D01*
X221834Y379664D02*X221549Y379380D01*
X221262Y379664D01*
X221549Y379950D01*
X221834Y379664D01*
Y379094D01*
X221262Y378522D01*
X226619Y384358D02*Y384072D01*
Y384358D02*X226905Y384928D01*
X227189Y385215D01*
X227762Y385500D01*
X228903D01*
X229476Y385215D01*
X229761Y384928D01*
X230046Y384358D01*
Y383786D01*
X229761Y383214D01*
X229190Y382358D01*
X226334Y379500D01*
X230333D01*
X233847Y385500D02*X232991Y385215D01*
X232418Y384358D01*
X232133Y382930D01*
Y382072D01*
X232418Y380643D01*
X232991Y379786D01*
X233847Y379500D01*
X234419D01*
X235275Y379786D01*
X235847Y380643D01*
X236133Y382072D01*
Y382930D02*Y382072D01*
Y382930D02*X235847Y384358D01*
X235275Y385215D01*
X234419Y385500D01*
X233847D02*X234419D01*
X240789D02*X237933Y381501D01*
X242217D01*
X240789Y385500D02*Y379500D01*
X246717Y385500D02*Y379500D01*
Y382358D02*X247572Y383216D01*
X248145Y383500D01*
X249002D01*
X249573Y383216D01*
X249860Y382358D01*
Y379500D01*
X253088Y383500D02*X252515Y383217D01*
X251943Y382646D01*
X251660Y381789D01*
Y381216D01*
X251943Y380360D01*
X252515Y379788D01*
X253088Y379502D01*
X253944D01*
X254516Y379788D01*
X255086Y380360D01*
X255372Y381216D01*
Y381789D02*Y381216D01*
Y381789D02*X255086Y382646D01*
X254516Y383217D01*
X253944Y383500D01*
X253088D02*X253944D01*
X257172Y385500D02*Y379500D01*
X258972Y381789D02*X262398D01*
Y382359D02*Y381789D01*
Y382359D02*X262113Y382930D01*
X261828Y383217D01*
X261257Y383500D01*
X260400D02*X261257D01*
X260400D02*X259827Y383217D01*
X259256Y382646D01*
X258972Y381789D01*
Y381216D01*
X259256Y380360D01*
X259827Y379788D01*
X260400Y379502D01*
X261257D01*
X261828Y379788D01*
X262398Y380360D01*
X267339Y382646D02*X267054Y383216D01*
X266196Y383500D01*
X265340D02*X266196D01*
X265340D02*X264482Y383216D01*
X264198Y382646D01*
X264482Y382072D01*
X265053Y381786D01*
X266483Y381501D01*
X267054Y381216D01*
X267339Y380644D01*
Y380358D01*
X267054Y379788D01*
X266196Y379502D01*
X265340D02*X266196D01*
X265340D02*X264482Y379788D01*
X264198Y380358D01*
X272697Y385500D02*Y380643D01*
X272981Y379786D01*
X273554Y379500D01*
X274125D01*
X271839Y383500D02*X273839D01*
X277353D02*X276780Y383217D01*
X276209Y382646D01*
X275925Y381789D01*
Y381216D01*
X276209Y380360D01*
X276780Y379788D01*
X277353Y379502D01*
X278210D01*
X278781Y379788D01*
X279351Y380360D01*
X279638Y381216D01*
Y381789D02*Y381216D01*
Y381789D02*X279351Y382646D01*
X278781Y383217D01*
X278210Y383500D01*
X277353D02*X278210D01*
X282296Y385500D02*Y380643D01*
X282579Y379786D01*
X283152Y379500D01*
X283724D01*
X281438Y383500D02*X283437D01*
X288953D02*Y379502D01*
Y382646D02*X288380Y383217D01*
X287810Y383500D01*
X286952D02*X287810D01*
X286952D02*X286382Y383217D01*
X285809Y382646D01*
X285524Y381789D01*
Y381216D01*
X285809Y380360D01*
X286382Y379788D01*
X286952Y379502D01*
X287810D01*
X288380Y379788D01*
X288953Y380360D01*
X290753Y385500D02*Y379500D01*
G54D218*X12550Y206950D02*X11269Y206886D01*
X10026Y206695D01*
X8826Y206389D01*
X7677Y205970D01*
X6584Y205444D01*
X5553Y204819D01*
X4591Y204101D01*
X3705Y203295D01*
X2899Y202408D01*
X2180Y201447D01*
X1555Y200416D01*
X1030Y199323D01*
X611Y198173D01*
X304Y196973D01*
X115Y195730D01*
X50Y194450D01*
Y29448D01*
X115Y28167D01*
X304Y26923D01*
X611Y25724D01*
X1030Y24574D01*
X1555Y23481D01*
X2180Y22451D01*
X2899Y21489D01*
X3705Y20602D01*
X4591Y19796D01*
X5553Y19078D01*
X6584Y18453D01*
X7677Y17927D01*
X8826Y17508D01*
X10026Y17201D01*
X11269Y17012D01*
X12550Y16948D01*
X13338Y16899D01*
X14574Y16845D01*
X15484Y16754D01*
X16330Y16493D01*
X17094Y16079D01*
X17759Y15531D01*
X18306Y14865D01*
X18720Y14101D01*
X18980Y13256D01*
X19072Y12348D01*
X18980Y11438D01*
X18720Y10591D01*
X18306Y9826D01*
X17759Y9160D01*
X17094Y8611D01*
X16330Y8197D01*
X15484Y7935D01*
X14574Y7844D01*
X13338Y7795D01*
X50Y7747D01*
Y48D01*
X1100051D01*
Y7747D01*
X1086770Y7795D01*
X1085533Y7844D01*
X1084623Y7935D01*
X1083777Y8197D01*
X1083013Y8611D01*
X1082348Y9160D01*
X1081801Y9826D01*
X1081387Y10591D01*
X1081126Y11438D01*
X1081035Y12348D01*
X1081126Y13256D01*
X1081387Y14101D01*
X1081801Y14865D01*
X1082348Y15531D01*
X1083013Y16079D01*
X1083777Y16493D01*
X1084623Y16754D01*
X1085533Y16845D01*
X1086770Y16899D01*
X1087551Y16948D01*
X1088833Y17012D01*
X1090077Y17201D01*
X1091277Y17508D01*
X1092426Y17927D01*
X1093520Y18453D01*
X1094551Y19078D01*
X1095512Y19796D01*
X1096398Y20602D01*
X1097203Y21489D01*
X1097923Y22451D01*
X1098546Y23481D01*
X1099071Y24574D01*
X1099491Y25724D01*
X1099798Y26923D01*
X1099987Y28167D01*
X1100051Y29448D01*
Y194450D01*
X1099987Y195730D01*
X1099798Y196973D01*
X1099491Y198173D01*
X1099071Y199323D01*
X1098546Y200416D01*
X1097923Y201447D01*
X1097203Y202408D01*
X1096398Y203295D01*
X1095512Y204101D01*
X1094551Y204819D01*
X1093520Y205444D01*
X1092426Y205970D01*
X1091277Y206389D01*
X1090077Y206695D01*
X1088833Y206886D01*
X1087551Y206950D01*
X12550D01*
G54D219*X821641Y15250D02*X820596Y14725D01*
X819545Y13677D01*
X819022Y12632D01*
X818500Y11059D01*
Y8441D01*
X819022Y6865D01*
Y6868D02*X819545Y5820D01*
X820596Y4775D01*
X821641Y4250D01*
X823739D01*
X824784Y4775D01*
X825832Y5820D01*
X826357Y6868D01*
X826876Y8441D01*
Y11059D02*Y8441D01*
Y11059D02*X826357Y12632D01*
X825832Y13677D01*
X824784Y14725D01*
X823739Y15250D01*
X821641D02*X823739D01*
X830177D02*Y7393D01*
X830702Y5820D01*
X831747Y4775D01*
X833320Y4250D01*
X834365D01*
X835938Y4775D01*
X836986Y5820D01*
X837508Y7393D01*
Y15250D02*Y7393D01*
X844474Y15250D02*Y4250D01*
X840808Y15250D02*X848140D01*
X851440D02*Y4250D01*
X857723D01*
X861023Y15250D02*X863773D01*
X862398D02*Y4250D01*
X861023D02*X863773D01*
X867073Y15250D02*Y4250D01*
Y15250D02*X874405Y4250D01*
Y15250D02*Y4250D01*
X877705Y15250D02*Y4250D01*
Y15250D02*X884514D01*
X877705Y10011D02*X881893D01*
X877705Y4250D02*X884514D01*
G54D217*X458120Y-3500D02*Y-9500D01*
Y-3500D02*X460691D01*
X461547Y-3786D01*
X461834Y-4072D01*
X462119Y-4644D01*
Y-5214D01*
X461834Y-5786D01*
X461547Y-6072D01*
X460691Y-6358D01*
X458120D02*X460691D01*
X461547Y-6642D01*
X461834Y-6929D01*
X462119Y-7500D01*
Y-8357D01*
X461834Y-8930D01*
X461547Y-9214D01*
X460691Y-9500D01*
X458120D02*X460691D01*
X465347Y-5500D02*X464774Y-5783D01*
X464202Y-6354D01*
X463919Y-7211D01*
Y-7784D01*
X464202Y-8640D01*
X464774Y-9212D01*
X465347Y-9498D01*
X466203D01*
X466775Y-9212D01*
X467345Y-8640D01*
X467631Y-7784D01*
Y-7211D02*Y-7784D01*
Y-7211D02*X467345Y-6354D01*
X466775Y-5783D01*
X466203Y-5500D01*
X465347D02*X466203D01*
X472860D02*Y-9498D01*
Y-6354D02*X472287Y-5783D01*
X471717Y-5500D01*
X470859D02*X471717D01*
X470859D02*X470289Y-5783D01*
X469716Y-6354D01*
X469431Y-7211D01*
Y-7784D01*
X469716Y-8640D01*
X470289Y-9212D01*
X470859Y-9498D01*
X471717D01*
X472287Y-9212D01*
X472860Y-8640D01*
X474660Y-5500D02*Y-9498D01*
Y-7214D02*X474945Y-6354D01*
X475518Y-5784D01*
X476088Y-5500D01*
X476946D01*
X482172Y-3500D02*Y-9500D01*
Y-6356D02*X481602Y-5784D01*
X481031Y-5500D01*
X480174D02*X481031D01*
X480174D02*X479601Y-5784D01*
X479030Y-6356D01*
X478746Y-7212D01*
Y-7784D01*
X479030Y-8640D01*
X479601Y-9214D01*
X480174Y-9500D01*
X481031D01*
X481602Y-9214D01*
X482172Y-8640D01*
X488100Y-5500D02*X487527Y-5783D01*
X486956Y-6354D01*
X486672Y-7211D01*
Y-7784D01*
X486956Y-8640D01*
X487527Y-9212D01*
X488100Y-9498D01*
X488957D01*
X489528Y-9212D01*
X490098Y-8640D01*
X490385Y-7784D01*
Y-7211D02*Y-7784D01*
Y-7211D02*X490098Y-6354D01*
X489528Y-5783D01*
X488957Y-5500D01*
X488100D02*X488957D01*
X492185D02*Y-8356D01*
X492470Y-9212D01*
X493043Y-9498D01*
X493899D01*
X494471Y-9212D01*
X495327Y-8356D01*
Y-5500D02*Y-9498D01*
X497985Y-3500D02*Y-8357D01*
X498269Y-9214D01*
X498842Y-9500D01*
X499413D01*
X497127Y-5500D02*X499127D01*
X501213Y-3500D02*Y-9500D01*
X503298Y-5486D02*Y-9485D01*
X503013Y-3485D02*X503298Y-3772D01*
X503585Y-3485D01*
X503298Y-3200D01*
X503013Y-3485D01*
X505385Y-5500D02*Y-9498D01*
Y-6641D02*X506243Y-5783D01*
X506813Y-5500D01*
X507671D01*
X508241Y-5783D01*
X508527Y-6641D01*
Y-9498D01*
X510327Y-7211D02*X513753D01*
Y-6641D02*Y-7211D01*
Y-6641D02*X513468Y-6070D01*
X513183Y-5783D01*
X512612Y-5500D01*
X511755D02*X512612D01*
X511755D02*X511182Y-5783D01*
X510611Y-6354D01*
X510327Y-7211D01*
Y-7784D01*
X510611Y-8640D01*
X511182Y-9212D01*
X511755Y-9498D01*
X512612D01*
X513183Y-9212D01*
X513753Y-8640D01*
X518538Y-5486D02*Y-9485D01*
X518253Y-3485D02*X518538Y-3772D01*
X518825Y-3485D01*
X518538Y-3200D01*
X518253Y-3485D01*
X523766Y-6354D02*X523481Y-5784D01*
X522623Y-5500D01*
X521766D02*X522623D01*
X521766D02*X520908Y-5784D01*
X520625Y-6354D01*
X520908Y-6928D01*
X521480Y-7214D01*
X522909Y-7499D01*
X523481Y-7784D01*
X523766Y-8356D01*
Y-8642D01*
X523481Y-9212D01*
X522623Y-9498D01*
X521766D02*X522623D01*
X521766D02*X520908Y-9212D01*
X520625Y-8642D01*
X529124Y-3500D02*Y-8357D01*
X529407Y-9214D01*
X529980Y-9500D01*
X530552D01*
X528266Y-5500D02*X530265D01*
X532352Y-3500D02*Y-9500D01*
Y-6642D02*X533207Y-5784D01*
X533780Y-5500D01*
X534636D01*
X535208Y-5784D01*
X535494Y-6642D01*
Y-9500D01*
X537294Y-7211D02*X540720D01*
Y-6641D02*Y-7211D01*
Y-6641D02*X540435Y-6070D01*
X540150Y-5783D01*
X539579Y-5500D01*
X538722D02*X539579D01*
X538722D02*X538149Y-5783D01*
X537578Y-6354D01*
X537294Y-7211D01*
Y-7784D01*
X537578Y-8640D01*
X538149Y-9212D01*
X538722Y-9498D01*
X539579D01*
X540150Y-9212D01*
X540720Y-8640D01*
X548649Y-6354D02*X548076Y-5783D01*
X547506Y-5500D01*
X546648D02*X547506D01*
X546648D02*X546078Y-5783D01*
X545505Y-6354D01*
X545220Y-7211D01*
Y-7784D01*
X545505Y-8640D01*
X546078Y-9212D01*
X546648Y-9498D01*
X547506D01*
X548076Y-9212D01*
X548649Y-8640D01*
X550449Y-7211D02*X553875D01*
Y-6641D02*Y-7211D01*
Y-6641D02*X553590Y-6070D01*
X553305Y-5783D01*
X552734Y-5500D01*
X551877D02*X552734D01*
X551877D02*X551304Y-5783D01*
X550733Y-6354D01*
X550449Y-7211D01*
Y-7784D01*
X550733Y-8640D01*
X551304Y-9212D01*
X551877Y-9498D01*
X552734D01*
X553305Y-9212D01*
X553875Y-8640D01*
X555675Y-5500D02*Y-9498D01*
Y-6641D02*X556533Y-5783D01*
X557103Y-5500D01*
X557961D01*
X558531Y-5783D01*
X558818Y-6641D01*
Y-9498D01*
X561476Y-3500D02*Y-8357D01*
X561759Y-9214D01*
X562332Y-9500D01*
X562904D01*
X560618Y-5500D02*X562617D01*
X564704Y-7211D02*X568130D01*
Y-6641D02*Y-7211D01*
Y-6641D02*X567845Y-6070D01*
X567560Y-5783D01*
X566988Y-5500D01*
X566132D02*X566988D01*
X566132D02*X565559Y-5783D01*
X564987Y-6354D01*
X564704Y-7211D01*
Y-7784D01*
X564987Y-8640D01*
X565559Y-9212D01*
X566132Y-9498D01*
X566988D01*
X567560Y-9212D01*
X568130Y-8640D01*
X569930Y-5500D02*Y-9498D01*
Y-7214D02*X570215Y-6354D01*
X570788Y-5784D01*
X571358Y-5500D01*
X572216D01*
X574016Y-3500D02*Y-9500D01*
X576101Y-5486D02*Y-9485D01*
X575816Y-3485D02*X576101Y-3772D01*
X576387Y-3485D01*
X576101Y-3200D01*
X575816Y-3485D01*
X578187Y-5500D02*Y-9498D01*
Y-6641D02*X579045Y-5783D01*
X579615Y-5500D01*
X580473D01*
X581043Y-5783D01*
X581330Y-6641D01*
Y-9498D01*
X583130Y-7211D02*X586556D01*
Y-6641D02*Y-7211D01*
Y-6641D02*X586271Y-6070D01*
X585986Y-5783D01*
X585414Y-5500D01*
X584558D02*X585414D01*
X584558D02*X583985Y-5783D01*
X583413Y-6354D01*
X583130Y-7211D01*
Y-7784D01*
X583413Y-8640D01*
X583985Y-9212D01*
X584558Y-9498D01*
X585414D01*
X585986Y-9212D01*
X586556Y-8640D01*
X592484Y-5500D02*X591911Y-5783D01*
X591339Y-6354D01*
X591056Y-7211D01*
Y-7784D01*
X591339Y-8640D01*
X591911Y-9212D01*
X592484Y-9498D01*
X593340D01*
X593912Y-9212D01*
X594482Y-8640D01*
X594768Y-7784D01*
Y-7211D02*Y-7784D01*
Y-7211D02*X594482Y-6354D01*
X593912Y-5783D01*
X593340Y-5500D01*
X592484D02*X593340D01*
X598283Y-3500D02*X598853D01*
X598283D02*X597710Y-3785D01*
X597423Y-4642D01*
Y-9500D01*
X596568Y-5500D02*X598568D01*
X604211Y-3500D02*Y-8357D01*
X604494Y-9214D01*
X605067Y-9500D01*
X605639D01*
X603353Y-5500D02*X605352D01*
X607439Y-3500D02*Y-9500D01*
Y-6642D02*X608294Y-5784D01*
X608867Y-5500D01*
X609723D01*
X610295Y-5784D01*
X610581Y-6642D01*
Y-9500D01*
X612666Y-5486D02*Y-9485D01*
X612381Y-3485D02*X612666Y-3772D01*
X612953Y-3485D01*
X612666Y-3200D01*
X612381Y-3485D01*
X617894Y-6354D02*X617609Y-5784D01*
X616751Y-5500D01*
X615894D02*X616751D01*
X615894D02*X615036Y-5784D01*
X614753Y-6354D01*
X615036Y-6928D01*
X615608Y-7214D01*
X617037Y-7499D01*
X617609Y-7784D01*
X617894Y-8356D01*
Y-8642D01*
X617609Y-9212D01*
X616751Y-9498D01*
X615894D02*X616751D01*
X615894D02*X615036Y-9212D01*
X614753Y-8642D01*
X622394Y-5500D02*Y-11500D01*
Y-6354D02*X622965Y-5784D01*
X623535Y-5500D01*
X624393D01*
X624965Y-5784D01*
X625536Y-6354D01*
X625823Y-7214D01*
Y-7784D01*
X625536Y-8642D01*
X624965Y-9212D01*
X624393Y-9498D01*
X623535D02*X624393D01*
X623535D02*X622965Y-9212D01*
X622394Y-8642D01*
X631052Y-5500D02*Y-9498D01*
Y-6354D02*X630479Y-5783D01*
X629909Y-5500D01*
X629051D02*X629909D01*
X629051D02*X628481Y-5783D01*
X627908Y-6354D01*
X627623Y-7211D01*
Y-7784D01*
X627908Y-8640D01*
X628481Y-9212D01*
X629051Y-9498D01*
X629909D01*
X630479Y-9212D01*
X631052Y-8640D01*
X633710Y-3500D02*Y-8357D01*
X633993Y-9214D01*
X634566Y-9500D01*
X635138D01*
X632852Y-5500D02*X634851D01*
X636938Y-3500D02*Y-9500D01*
Y-6642D02*X637793Y-5784D01*
X638366Y-5500D01*
X639222D01*
X639794Y-5784D01*
X640080Y-6642D01*
Y-9500D01*
X200000Y235500D02*Y229500D01*
Y235500D02*X202001D01*
X202858Y235214D01*
X203429Y234642D01*
X203714Y234072D01*
X203999Y233214D01*
Y231784D01*
X203714Y230928D01*
X203429Y230356D01*
X202858Y229786D01*
X202001Y229500D01*
X200000D02*X202001D01*
X209228Y233500D02*Y229502D01*
Y232646D02*X208655Y233217D01*
X208085Y233500D01*
X207227D02*X208085D01*
X207227D02*X206657Y233217D01*
X206084Y232646D01*
X205799Y231789D01*
Y231216D01*
X206084Y230359D01*
X206657Y229788D01*
X207227Y229502D01*
X208085D01*
X208655Y229788D01*
X209228Y230359D01*
X211886Y235500D02*Y230643D01*
X212170Y229786D01*
X212743Y229500D01*
X213314D01*
X211028Y233500D02*X213028D01*
X215114Y231789D02*X218540D01*
Y232359D02*Y231789D01*
Y232359D02*X218255Y232930D01*
X217970Y233217D01*
X217399Y233500D01*
X216542D02*X217399D01*
X216542D02*X215969Y233217D01*
X215398Y232646D01*
X215114Y231789D01*
Y231216D01*
X215398Y230359D01*
X215969Y229788D01*
X216542Y229502D01*
X217399D01*
X217970Y229788D01*
X218540Y230359D01*
X220625Y231900D02*X220340Y231614D01*
X220625Y231328D01*
X220910Y231614D01*
X220625Y231900D01*
Y229899D02*X220340Y229612D01*
X220625Y229329D01*
X220910Y229612D01*
X220625Y229899D01*
X225695Y234358D02*Y234072D01*
Y234358D02*X225982Y234928D01*
X226265Y235215D01*
X226838Y235500D01*
X227980D01*
X228553Y235215D01*
X228838Y234928D01*
X229123Y234358D01*
Y233786D01*
X228838Y233214D01*
X228266Y232357D01*
X225410Y229500D01*
X229409D01*
X232924Y235500D02*X232067Y235215D01*
X231494Y234358D01*
X231209Y232930D01*
Y232072D01*
X231494Y230643D01*
X232067Y229786D01*
X232924Y229500D01*
X233495D01*
X234352Y229786D01*
X234923Y230643D01*
X235210Y232072D01*
Y232930D02*Y232072D01*
Y232930D02*X234923Y234358D01*
X234352Y235215D01*
X233495Y235500D01*
X232924D02*X233495D01*
X237010Y234358D02*X237580Y234644D01*
X238438Y235500D01*
Y229500D01*
X241666Y235500D02*X240808Y235215D01*
X240523Y234644D01*
Y234072D01*
X240808Y233500D01*
X241379Y233214D01*
X242522Y232930D01*
X243380Y232644D01*
X243950Y232072D01*
X244237Y231501D01*
Y230643D01*
X243950Y230073D01*
X243664Y229786D01*
X242807Y229500D01*
X241666D02*X242807D01*
X241666D02*X240808Y229786D01*
X240523Y230073D01*
X240238Y230643D01*
Y231501D02*Y230643D01*
Y231501D02*X240523Y232072D01*
X241093Y232644D01*
X241951Y232930D01*
X243094Y233214D01*
X243664Y233500D01*
X243950Y234072D01*
Y234644D02*Y234072D01*
Y234644D02*X243664Y235215D01*
X242807Y235500D01*
X241666D02*X242807D01*
X246037Y232500D02*X249787D01*
X253301Y235500D02*X252445Y235215D01*
X251872Y234358D01*
X251587Y232930D01*
Y232072D01*
X251872Y230643D01*
X252445Y229786D01*
X253301Y229500D01*
X253873D01*
X254729Y229786D01*
X255301Y230643D01*
X255587Y232072D01*
Y232930D02*Y232072D01*
Y232930D02*X255301Y234358D01*
X254729Y235215D01*
X253873Y235500D01*
X253301D02*X253873D01*
X257959D02*X260816D01*
X257959D02*X257672Y232930D01*
X257959Y233214D01*
X258815Y233500D01*
X259673D01*
X260530Y233214D01*
X261101Y232644D01*
X261388Y231786D01*
Y231216D01*
X261101Y230358D01*
X260530Y229786D01*
X259673Y229500D01*
X258815D02*X259673D01*
X258815D02*X257959Y229786D01*
X257672Y230073D01*
X257387Y230643D01*
X263188Y232500D02*X266938D01*
X269308Y235500D02*X272450D01*
X270736Y233214D01*
X271594D01*
X272164Y232930D01*
X272450Y232644D01*
X272737Y231786D01*
Y231216D01*
X272450Y230358D01*
X271880Y229786D01*
X271022Y229500D01*
X270166D02*X271022D01*
X270166D02*X269308Y229786D01*
X269023Y230073D01*
X268738Y230643D01*
X276251Y235500D02*X275395Y235215D01*
X274822Y234358D01*
X274537Y232930D01*
Y232072D01*
X274822Y230643D01*
X275395Y229786D01*
X276251Y229500D01*
X276823D01*
X277679Y229786D01*
X278251Y230643D01*
X278537Y232072D01*
Y232930D02*Y232072D01*
Y232930D02*X278251Y234358D01*
X277679Y235215D01*
X276823Y235500D01*
X276251D02*X276823D01*
X283322Y234358D02*Y234072D01*
Y234358D02*X283609Y234928D01*
X283892Y235215D01*
X284465Y235500D01*
X285607D01*
X286180Y235215D01*
X286465Y234928D01*
X286750Y234358D01*
Y233786D01*
X286465Y233214D01*
X285893Y232357D01*
X283037Y229500D01*
X287036D01*
X290551Y235500D02*X289694Y235215D01*
X289121Y234358D01*
X288836Y232930D01*
Y232072D01*
X289121Y230643D01*
X289694Y229786D01*
X290551Y229500D01*
X291122D01*
X291979Y229786D01*
X292550Y230643D01*
X292837Y232072D01*
Y232930D02*Y232072D01*
Y232930D02*X292550Y234358D01*
X291979Y235215D01*
X291122Y235500D01*
X290551D02*X291122D01*
X294922Y231900D02*X294637Y231614D01*
X294922Y231328D01*
X295207Y231614D01*
X294922Y231900D01*
Y229899D02*X294637Y229612D01*
X294922Y229329D01*
X295207Y229612D01*
X294922Y229899D01*
X297577Y235500D02*X300719D01*
X299005Y233214D01*
X299863D01*
X300433Y232930D01*
X300719Y232644D01*
X301006Y231786D01*
Y231216D01*
X300719Y230358D01*
X300149Y229786D01*
X299291Y229500D01*
X298435D02*X299291D01*
X298435D02*X297577Y229786D01*
X297292Y230073D01*
X297007Y230643D01*
X303377Y235500D02*X306235D01*
X303377D02*X303091Y232930D01*
X303377Y233214D01*
X304234Y233500D01*
X305092D01*
X305948Y233214D01*
X306520Y232644D01*
X306806Y231786D01*
Y231216D01*
X306520Y230358D01*
X305948Y229786D01*
X305092Y229500D01*
X304234D02*X305092D01*
X304234D02*X303377Y229786D01*
X303091Y230073D01*
X302806Y230643D01*
X308891Y231900D02*X308606Y231614D01*
X308891Y231328D01*
X309176Y231614D01*
X308891Y231900D01*
Y229899D02*X308606Y229612D01*
X308891Y229329D01*
X309176Y229612D01*
X308891Y229899D01*
X311546Y235500D02*X314689D01*
X312974Y233214D01*
X313832D01*
X314402Y232930D01*
X314689Y232644D01*
X314975Y231786D01*
Y231216D01*
X314689Y230358D01*
X314119Y229786D01*
X313261Y229500D01*
X312404D02*X313261D01*
X312404D02*X311546Y229786D01*
X311261Y230073D01*
X310976Y230643D01*
X317060Y234358D02*Y234072D01*
Y234358D02*X317347Y234928D01*
X317630Y235215D01*
X318203Y235500D01*
X319345D01*
X319918Y235215D01*
X320203Y234928D01*
X320488Y234358D01*
Y233786D01*
X320203Y233214D01*
X319631Y232357D01*
X316775Y229500D01*
X320774D01*
X325274Y235500D02*Y231214D01*
X325561Y230356D01*
X326131Y229786D01*
X326989Y229500D01*
X327559D01*
X328417Y229786D01*
X328988Y230356D01*
X329273Y231214D01*
Y235500D02*Y231214D01*
X333073Y235500D02*Y229500D01*
X331073Y235500D02*X335072D01*
X341158Y234072D02*X340871Y234642D01*
X340300Y235214D01*
X339730Y235500D01*
X338585D02*X339730D01*
X338585D02*X338015Y235214D01*
X337442Y234642D01*
X337157Y234072D01*
X336872Y233214D01*
Y231784D01*
X337157Y230928D01*
X337442Y230356D01*
X338015Y229786D01*
X338585Y229500D01*
X339730D01*
X340300Y229786D01*
X340871Y230356D01*
X341158Y230928D01*
X202286Y250500D02*X200000Y244500D01*
X202286Y250500D02*X204572Y244500D01*
X200858Y246500D02*X203716D01*
X206372Y248500D02*Y245645D01*
X206657Y244788D01*
X207230Y244502D01*
X208087D01*
X208658Y244788D01*
X209515Y245645D01*
Y248500D02*Y244502D01*
X212173Y250500D02*Y245643D01*
X212456Y244786D01*
X213029Y244500D01*
X213601D01*
X211315Y248500D02*X213314D01*
X215401Y250500D02*Y244500D01*
Y247357D02*X216256Y248216D01*
X216829Y248500D01*
X217685D01*
X218257Y248216D01*
X218543Y247357D01*
Y244500D01*
X221771Y248500D02*X221198Y248217D01*
X220627Y247646D01*
X220343Y246789D01*
Y246216D01*
X220627Y245359D01*
X221198Y244788D01*
X221771Y244502D01*
X222628D01*
X223199Y244788D01*
X223769Y245359D01*
X224056Y246216D01*
Y246789D02*Y246216D01*
Y246789D02*X223769Y247646D01*
X223199Y248217D01*
X222628Y248500D01*
X221771D02*X222628D01*
X225856D02*Y244502D01*
Y246786D02*X226141Y247646D01*
X226714Y248216D01*
X227284Y248500D01*
X228142D01*
X230227Y246900D02*X229942Y246614D01*
X230227Y246328D01*
X230512Y246614D01*
X230227Y246900D01*
Y244899D02*X229942Y244612D01*
X230227Y244329D01*
X230512Y244612D01*
X230227Y244899D01*
X235012Y250500D02*X236440Y244500D01*
X237869Y250500D02*X236440Y244500D01*
X237869Y250500D02*X239297Y244500D01*
X240725Y250500D02*X239297Y244500D01*
X242810Y248514D02*Y244515D01*
X242525Y250515D02*X242810Y250228D01*
X243097Y250515D01*
X242810Y250800D01*
X242525Y250515D01*
X244897Y248500D02*Y244502D01*
Y247359D02*X245755Y248217D01*
X246325Y248500D01*
X247183D01*
X247753Y248217D01*
X248039Y247359D01*
Y244502D01*
X253265Y250500D02*Y244500D01*
Y247644D02*X252695Y248216D01*
X252124Y248500D01*
X251267D02*X252124D01*
X251267D02*X250694Y248216D01*
X250123Y247644D01*
X249839Y246788D01*
Y246216D01*
X250123Y245359D01*
X250694Y244786D01*
X251267Y244500D01*
X252124D01*
X252695Y244786D01*
X253265Y245359D01*
X255065Y246789D02*X258491D01*
Y247359D02*Y246789D01*
Y247359D02*X258206Y247930D01*
X257921Y248217D01*
X257350Y248500D01*
X256493D02*X257350D01*
X256493D02*X255920Y248217D01*
X255349Y247646D01*
X255065Y246789D01*
Y246216D01*
X255349Y245359D01*
X255920Y244788D01*
X256493Y244502D01*
X257350D01*
X257921Y244788D01*
X258491Y245359D01*
X260291Y250500D02*Y244500D01*
X262091Y250500D02*Y244500D01*
X266591Y250500D02*Y244500D01*
X270592Y250500D02*Y244500D01*
X266591Y247643D02*X270592D01*
X272677Y244950D02*X272392Y244664D01*
X272677Y244380D01*
X272962Y244664D01*
X272677Y244950D01*
X279175Y250500D02*X278605Y250214D01*
X278032Y249642D01*
X277747Y249072D01*
X277462Y248214D01*
Y246786D01*
X277747Y245926D01*
Y245928D02*X278032Y245356D01*
X278605Y244786D01*
X279175Y244500D01*
X280319D01*
X280889Y244786D01*
X281461Y245356D01*
X281747Y245928D01*
X282031Y246786D01*
Y248214D02*Y246786D01*
Y248214D02*X281747Y249072D01*
X281461Y249642D01*
X280889Y250214D01*
X280319Y250500D01*
X279175D02*X280319D01*
X286972Y247646D02*X286687Y248216D01*
X285829Y248500D01*
X284972D02*X285829D01*
X284972D02*X284114Y248216D01*
X283831Y247646D01*
X284114Y247072D01*
X284686Y246786D01*
X286115Y246501D01*
X286687Y246216D01*
X286972Y245645D01*
Y245358D01*
X286687Y244788D01*
X285829Y244502D01*
X284972D02*X285829D01*
X284972D02*X284114Y244788D01*
X283831Y245358D01*
X288772Y250500D02*Y244500D01*
X291628Y248500D02*X288772Y245643D01*
X289913Y246788D02*X291914Y244500D01*
X297143Y248500D02*Y244502D01*
Y247646D02*X296570Y248217D01*
X296000Y248500D01*
X295142D02*X296000D01*
X295142D02*X294572Y248217D01*
X293999Y247646D01*
X293714Y246789D01*
Y246216D01*
X293999Y245359D01*
X294572Y244788D01*
X295142Y244502D01*
X296000D01*
X296570Y244788D01*
X297143Y245359D01*
X299228Y248500D02*X300943Y244502D01*
X302657Y248500D02*X300943Y244502D01*
X300371Y243360D01*
X299801Y242787D01*
X299228Y242500D01*
X298943D02*X299228D01*
X202000Y265500D02*Y259500D01*
X200000Y265500D02*X203999D01*
X206084Y263514D02*Y259515D01*
X205799Y265515D02*X206084Y265228D01*
X206371Y265515D01*
X206084Y265800D01*
X205799Y265515D01*
X209029Y265500D02*Y260643D01*
X209312Y259786D01*
X209885Y259500D01*
X210457D01*
X208171Y263500D02*X210170D01*
X212257Y265500D02*Y259500D01*
X214057Y261789D02*X217483D01*
Y262359D02*Y261789D01*
Y262359D02*X217198Y262930D01*
X216913Y263217D01*
X216341Y263500D01*
X215485D02*X216341D01*
X215485D02*X214912Y263217D01*
X214340Y262646D01*
X214057Y261789D01*
Y261216D01*
X214340Y260359D01*
X214912Y259788D01*
X215485Y259502D01*
X216341D01*
X216913Y259788D01*
X217483Y260359D01*
X219568Y261900D02*X219283Y261614D01*
X219568Y261328D01*
X219853Y261614D01*
X219568Y261900D01*
Y259899D02*X219283Y259612D01*
X219568Y259329D01*
X219853Y259612D01*
X219568Y259899D01*
X226639Y265500D02*X224353Y259500D01*
X226639Y265500D02*X228925Y259500D01*
X225211Y261500D02*X228068D01*
X230725Y265500D02*X233009Y262642D01*
Y259500D01*
X235297Y265500D02*X233009Y262642D01*
X239383Y265500D02*X237097Y259500D01*
X239383Y265500D02*X241669Y259500D01*
X237955Y261500D02*X240812D01*
X243469Y265500D02*Y259500D01*
Y265500D02*X246040D01*
X246896Y265214D01*
X247183Y264928D01*
X247468Y264356D01*
Y263786D01*
X247183Y263214D01*
X246896Y262928D01*
X246040Y262642D01*
X243469D02*X246040D01*
X246896Y262358D01*
X247183Y262071D01*
X247468Y261500D01*
Y260643D01*
X247183Y260070D01*
X246896Y259786D01*
X246040Y259500D01*
X243469D02*X246040D01*
X249268Y262500D02*X253018D01*
X254818Y265500D02*Y259500D01*
Y265500D02*X257389D01*
X258245Y265214D01*
X258532Y264928D01*
X258817Y264357D01*
Y263786D01*
X258532Y263214D01*
X258245Y262929D01*
X257389Y262642D01*
X254818D02*X257389D01*
X256817D02*X258817Y259500D01*
X264616Y264642D02*X264044Y265214D01*
X263188Y265500D01*
X262045D02*X263188D01*
X262045D02*X261187Y265214D01*
X260617Y264642D01*
Y264072D01*
X260900Y263499D01*
X261187Y263214D01*
X261760Y262929D01*
X263474Y262358D01*
X264044Y262071D01*
X264329Y261786D01*
X264616Y261214D01*
Y260356D01*
X264044Y259786D01*
X263188Y259500D01*
X262045D02*X263188D01*
X262045D02*X261187Y259786D01*
X260617Y260356D01*
X266416Y259500D02*X270166D01*
X271966Y265500D02*Y259500D01*
Y265500D02*X275680D01*
X271966Y262642D02*X274250D01*
X271966Y259500D02*X275680D01*
X280180Y262500D02*X283930D01*
X288430Y265500D02*Y259500D01*
Y265500D02*X292142D01*
X288430Y262642D02*X290714D01*
X297371Y263500D02*Y259502D01*
Y262646D02*X296798Y263217D01*
X296228Y263500D01*
X295370D02*X296228D01*
X295370D02*X294800Y263217D01*
X294227Y262646D01*
X293942Y261789D01*
Y261216D01*
X294227Y260359D01*
X294800Y259788D01*
X295370Y259502D01*
X296228D01*
X296798Y259788D01*
X297371Y260359D01*
X299171Y265500D02*Y259500D01*
Y262644D02*X299743Y263216D01*
X300313Y263500D01*
X301171D01*
X301741Y263216D01*
X302314Y262644D01*
X302600Y261788D01*
Y261216D01*
X302314Y260359D01*
X301741Y259786D01*
X301171Y259500D01*
X300313D02*X301171D01*
X300313D02*X299743Y259786D01*
X299171Y260359D01*
X304400Y263500D02*Y259502D01*
Y261786D02*X304685Y262646D01*
X305258Y263216D01*
X305828Y263500D01*
X306686D01*
X308771Y263514D02*Y259515D01*
X308486Y265515D02*X308771Y265228D01*
X309058Y265515D01*
X308771Y265800D01*
X308486Y265515D01*
X314287Y262646D02*X313714Y263217D01*
X313144Y263500D01*
X312286D02*X313144D01*
X312286D02*X311716Y263217D01*
X311143Y262646D01*
X310858Y261789D01*
Y261216D01*
X311143Y260359D01*
X311716Y259788D01*
X312286Y259502D01*
X313144D01*
X313714Y259788D01*
X314287Y260359D01*
X319516Y263500D02*Y259502D01*
Y262646D02*X318943Y263217D01*
X318373Y263500D01*
X317515D02*X318373D01*
X317515D02*X316945Y263217D01*
X316372Y262646D01*
X316087Y261789D01*
Y261216D01*
X316372Y260359D01*
X316945Y259788D01*
X317515Y259502D01*
X318373D01*
X318943Y259788D01*
X319516Y260359D01*
X322174Y265500D02*Y260643D01*
X322457Y259786D01*
X323030Y259500D01*
X323602D01*
X321316Y263500D02*X323315D01*
X325687Y263514D02*Y259515D01*
X325402Y265515D02*X325687Y265228D01*
X325973Y265515D01*
X325687Y265800D01*
X325402Y265515D01*
X329201Y263500D02*X328628Y263217D01*
X328057Y262646D01*
X327773Y261789D01*
Y261216D01*
X328057Y260359D01*
X328628Y259788D01*
X329201Y259502D01*
X330058D01*
X330629Y259788D01*
X331199Y260359D01*
X331486Y261216D01*
Y261789D02*Y261216D01*
Y261789D02*X331199Y262646D01*
X330629Y263217D01*
X330058Y263500D01*
X329201D02*X330058D01*
X333286D02*Y259502D01*
Y262359D02*X334144Y263217D01*
X334714Y263500D01*
X335572D01*
X336142Y263217D01*
X336428Y262359D01*
Y259502D01*
X340928Y265500D02*Y259500D01*
Y265500D02*X342929D01*
X343786Y265214D01*
X344357Y264642D01*
X344642Y264072D01*
X344927Y263214D01*
Y261784D01*
X344642Y260928D01*
X344357Y260356D01*
X343786Y259786D01*
X342929Y259500D01*
X340928D02*X342929D01*
X346727Y263500D02*Y259502D01*
Y261786D02*X347012Y262646D01*
X347585Y263216D01*
X348155Y263500D01*
X349013D01*
X354242D02*Y259502D01*
Y262646D02*X353669Y263217D01*
X353099Y263500D01*
X352241D02*X353099D01*
X352241D02*X351671Y263217D01*
X351098Y262646D01*
X350813Y261789D01*
Y261216D01*
X351098Y260359D01*
X351671Y259788D01*
X352241Y259502D01*
X353099D01*
X353669Y259788D01*
X354242Y260359D01*
X356042Y263500D02*X357184Y259502D01*
X358327Y263500D02*X357184Y259502D01*
X358327Y263500D02*X359471Y259502D01*
X360613Y263500D02*X359471Y259502D01*
X362698Y263514D02*Y259515D01*
X362413Y265515D02*X362698Y265228D01*
X362984Y265515D01*
X362698Y265800D01*
X362413Y265515D01*
X364784Y263500D02*Y259502D01*
Y262359D02*X365642Y263217D01*
X366212Y263500D01*
X367070D01*
X367640Y263217D01*
X367927Y262359D01*
Y259502D01*
X373156Y263500D02*Y258932D01*
X372869Y258074D01*
X372583Y257787D01*
X372013Y257504D01*
X371155D02*X372013D01*
X371155D02*X370585Y257787D01*
X373156Y262646D02*X372583Y263217D01*
X372013Y263500D01*
X371155D02*X372013D01*
X371155D02*X370585Y263217D01*
X370012Y262646D01*
X369727Y261789D01*
Y261216D01*
X370012Y260359D01*
X370585Y259788D01*
X371155Y259502D01*
X372013D01*
X372583Y259788D01*
X373156Y260359D01*
M02*
