M48
INCH
T143C0.035
T142C0.020
T141C0.110
T140C0.125
T139C0.035
T138C0.030
T137C0.036
T136C0.038
%
T142
X006500Y003150
X012150Y013800
X019900Y010050
X023900Y011550
X029100Y015150
X032900Y016750
X035250Y003400
X038150Y017400
X039400Y016750
X043050Y012700
X044200Y017400
X044200Y014550
X046900Y003900
X050150Y003900
X081500Y003600
X081600Y013600
X085750Y013000
X086950Y013000
T138
X034200Y015530
X034200Y012970
T143
X021900Y008650
X028300Y011650
X049100Y007950
T139
X002913Y011500
X003700Y011500
X004487Y011500
X021550Y010433
X022338Y010433
X023125Y010433
X023188Y008300
X023913Y010433
X023976Y008300
X024700Y010433
X024763Y008300
X025550Y008300
X026338Y008300
X027125Y008300
X027913Y008300
X028700Y008300
X032863Y008550
X033651Y008550
X034438Y008550
X035226Y008550
X036013Y008550
X036800Y008550
X037588Y008550
X038375Y008550
X039163Y008550
X039950Y008550
X102525Y004100
X103313Y004100
X104100Y004100
T137
X002550Y008917
X002731Y004000
X003534Y008878
X003716Y004000
X004519Y008917
X004700Y004000
X021810Y006200
X022263Y013150
X022794Y006200
X023247Y013150
X023779Y006200
X024231Y013150
X024763Y006200
X025216Y013150
X025747Y006200
X026200Y013150
X026731Y006200
X027097Y019479
X027097Y018229
X027716Y006200
X028081Y019400
X028081Y018150
X028700Y006200
X029066Y019479
X029066Y018229
X030050Y019400
X030050Y018150
X031650Y006200
X032634Y006200
X033619Y006200
X034603Y006200
X035587Y006200
X036571Y006200
X037556Y006200
X038540Y006200
X039524Y006200
X040508Y006200
X042700Y019600
X044800Y013800
X074563Y006800
X075547Y006761
X076531Y006800
X077516Y006761
X078500Y006800
X079484Y006761
X080469Y006800
X081453Y006761
X082437Y006800
X083421Y006761
X090900Y006750
X091884Y006711
X092869Y006750
X093853Y006711
X094837Y006750
X095821Y006711
X096806Y006750
X097790Y006711
X099063Y009850
X100047Y009811
X101031Y009850
X101250Y006900
X102016Y009811
X103000Y009850
X103984Y009811
X104969Y009850
X105953Y009811
X106516Y004050
X106937Y009850
X107500Y004050
X107921Y009811
X108484Y004050
T136
X008500Y017500
X008500Y016500
X008500Y015500
X008500Y014500
X008500Y013500
X008500Y012500
X008500Y011500
X008500Y010500
X008500Y009500
X008500Y008500
X008500Y007500
X008500Y006500
X008500Y005500
X008500Y004500
X009500Y017500
X009500Y016500
X009500Y015500
X009500Y014500
X009500Y013500
X009500Y012500
X009500Y011500
X009500Y010500
X009500Y009500
X009500Y008500
X009500Y007500
X009500Y006500
X009500Y005500
X009500Y004500
X015500Y017500
X015500Y016500
X015500Y015500
X015500Y014500
X015500Y013500
X015500Y012500
X015500Y011500
X015500Y010500
X015500Y009500
X015500Y008500
X015500Y007500
X015500Y006500
X015500Y005500
X015500Y004500
X016500Y017500
X016500Y016500
X016500Y015500
X016500Y014500
X016500Y013500
X016500Y012500
X016500Y011500
X016500Y010500
X016500Y009500
X016500Y008500
X016500Y007500
X016500Y006500
X016500Y005500
X016500Y004500
X018150Y003500
X019900Y003500
X059500Y005100
X061500Y005100
T141
X062750Y007750
X064550Y006500
X069950Y009200
T140
X064550Y009000
M30
