M48
INCH
T157C0.030
T156C0.125
T155C0.110
T154C0.035
T153C0.035
T152C0.036
T151C0.020
T150C0.038
%
T151
X044200Y014550
X044200Y017400
X037650Y014900
X085750Y013000
X046900Y003900
X050150Y003900
X019900Y010050
X023900Y011550
X038150Y014250
X006500Y003150
X081500Y003600
X079450Y013650
X086950Y013000
X043050Y012950
X042550Y012450
X035250Y003400
X013150Y013850
X029100Y015750
X043300Y018600
T157
X034200Y012970
X034200Y015530
T154
X028300Y011650
X038900Y014900
X002700Y019200
X049100Y007950
X021900Y008650
X037700Y019950
X082000Y016400
X090650Y013900
X077850Y016550
T153
X032863Y008550
X034438Y008550
X035226Y008550
X036013Y008550
X002913Y011500
X003700Y011500
X023125Y010433
X022338Y010433
X004487Y011500
X025550Y008300
X023913Y010433
X021550Y010433
X102525Y004100
X023188Y008300
X039950Y008550
X024700Y010433
X027913Y008300
X024763Y008300
X023976Y008300
X028700Y008300
X027125Y008300
X104100Y004100
X026338Y008300
X036800Y008550
X037588Y008550
X038375Y008550
X103313Y004100
X039163Y008550
X033651Y008550
T152
X099063Y009850
X023247Y013150
X022263Y013150
X025216Y013150
X024232Y013150
X026200Y013150
X021810Y006200
X024763Y006200
X023779Y006200
X022794Y006200
X027716Y006200
X026732Y006200
X025747Y006200
X028700Y006200
X075547Y006761
X074563Y006800
X076532Y006800
X077516Y006761
X078500Y006800
X079484Y006761
X080468Y006800
X081453Y006761
X082437Y006800
X083421Y006761
X037556Y006200
X040508Y006200
X039524Y006200
X038540Y006200
X036571Y006200
X035587Y006200
X034603Y006200
X033618Y006200
X032634Y006200
X031650Y006200
X044800Y013800
X090900Y006750
X091884Y006711
X092868Y006750
X093853Y006711
X094837Y006750
X095821Y006711
X096806Y006750
X097790Y006711
X106516Y004050
X100047Y009811
X101032Y009850
X102016Y009811
X103000Y009850
X103984Y009811
X104968Y009850
X105953Y009811
X106937Y009850
X107500Y004050
X107921Y009811
X108484Y004050
X101250Y006900
X051400Y019600
X030050Y019400
X030050Y018150
X029066Y019479
X029066Y018229
X028082Y019400
X028082Y018150
X027097Y019479
X027097Y018229
X002550Y008917
X004700Y004000
X003716Y004000
X002732Y004000
X003534Y008878
X004518Y008917
T150
X008500Y016500
X009500Y007500
X009500Y006500
X008500Y017500
X008500Y014500
X008500Y015500
X009500Y014500
X019900Y003500
X018150Y003500
X015500Y004500
X016500Y004500
X061500Y005100
X059500Y005100
X009500Y012500
X008500Y013500
X008500Y012500
X016500Y013500
X015500Y005500
X009500Y015500
X009500Y016500
X009500Y017500
X008500Y009500
X008500Y008500
X016500Y017500
X015500Y017500
X009500Y005500
X009500Y004500
X008500Y005500
X016500Y005500
X015500Y006500
X016500Y006500
X008500Y004500
X016500Y016500
X008500Y007500
X015500Y007500
X008500Y006500
X016500Y007500
X015500Y008500
X015500Y009500
X009500Y011500
X009500Y010500
X015500Y010500
X015500Y011500
X015500Y012500
X009500Y009500
X009500Y008500
X008500Y010500
X015500Y013500
X016500Y008500
X015500Y016500
X016500Y009500
X016500Y010500
X016500Y011500
X016500Y012500
X016500Y015500
X008500Y011500
X015500Y015500
X016500Y014500
X015500Y014500
X009500Y013500
T155
X064550Y006500
X062750Y007750
X069950Y009200
T156
X064550Y009000
M30
