G04 start of page 13 for group -4015 idx -4015 *
G04 Title: AYAB-RS_F, toppaste *
G04 Creator: pcb 20140316 *
G04 CreationDate: Mon 08 Feb 2021 04:53:57 AM GMT UTC *
G04 For: tom *
G04 Format: Gerber/RS-274X *
G04 PCB-Dimensions (mil): 11000.00 1900.00 *
G04 PCB-Coordinate-Origin: lower left *
%MOIN*%
%FSLAX25Y25*%
%LNTOPPASTE*%
%ADD222R,0.1230X0.1230*%
%ADD221R,0.0177X0.0177*%
%ADD220R,0.0240X0.0240*%
%ADD219R,0.0200X0.0200*%
%ADD218R,0.0390X0.0390*%
%ADD217R,0.0394X0.0394*%
%ADD216R,0.0630X0.0630*%
%ADD215R,0.0512X0.0512*%
%ADD214R,0.0551X0.0551*%
%ADD213R,0.0301X0.0301*%
%ADD212R,0.0700X0.0700*%
G54D212*X664000Y103500D02*Y102000D01*
X680000Y103500D02*Y102000D01*
G54D213*X121760Y149134D02*Y148993D01*
X129240Y149134D02*Y148993D01*
X125500Y157007D02*Y156866D01*
G54D214*X105709Y49945D02*X108465D01*
X105709Y68055D02*X108465D01*
X141535Y49945D02*X144291D01*
X141535Y68055D02*X144291D01*
G54D215*X109607Y130260D02*X110393D01*
X109607Y137740D02*X110393D01*
X121107D02*X121893D01*
X121107Y130260D02*X121893D01*
G54D216*X715607Y54989D02*X716393D01*
X715607Y66011D02*X716393D01*
X129511Y98393D02*Y97607D01*
X118489Y98393D02*Y97607D01*
G54D217*X120457Y109000D02*X120851D01*
X127149D02*X127543D01*
G54D215*X448760Y22393D02*Y21607D01*
X456240Y22393D02*Y21607D01*
G54D218*X393760Y22100D02*X395760D01*
X383860D02*X385860D01*
X318760D02*X320760D01*
X308860D02*X310860D01*
X343760D02*X345760D01*
X333860D02*X335860D01*
X368760D02*X370760D01*
X358860D02*X360860D01*
G54D215*X484500Y22393D02*Y21607D01*
X491980Y22393D02*Y21607D01*
G54D219*X889000Y160500D02*X895000D01*
X889000Y155500D02*X895000D01*
X889000Y150500D02*X895000D01*
X889000Y145500D02*X895000D01*
X889000Y140500D02*X895000D01*
X889000Y135500D02*X895000D01*
X889000Y130500D02*X895000D01*
X889000Y125500D02*X895000D01*
X889000Y120500D02*X895000D01*
X925000D02*X931000D01*
X925000Y125500D02*X931000D01*
X925000Y130500D02*X931000D01*
X925000Y135500D02*X931000D01*
X925000Y140500D02*X931000D01*
X925000Y145500D02*X931000D01*
X925000Y150500D02*X931000D01*
X925000Y155500D02*X931000D01*
X925000Y160500D02*X931000D01*
G54D220*X862500Y161700D02*Y155500D01*
X857500Y161700D02*Y155500D01*
X852500Y161700D02*Y155500D01*
X847500Y161700D02*Y155500D01*
X842500Y161700D02*Y155500D01*
X837500Y161700D02*Y155500D01*
X832500Y161700D02*Y155500D01*
X827500Y161700D02*Y155500D01*
Y125500D02*Y119300D01*
X832500Y125500D02*Y119300D01*
X837500Y125500D02*Y119300D01*
X842500Y125500D02*Y119300D01*
X847500Y125500D02*Y119300D01*
X852500Y125500D02*Y119300D01*
X857500Y125500D02*Y119300D01*
X862500Y125500D02*Y119300D01*
G54D215*X236760Y21893D02*Y21107D01*
X244240Y21893D02*Y21107D01*
X214260Y21893D02*Y21107D01*
X221740Y21893D02*Y21107D01*
G54D219*X462000Y161000D02*X468000D01*
X462000Y156000D02*X468000D01*
X462000Y151000D02*X468000D01*
X462000Y146000D02*X468000D01*
X462000Y141000D02*X468000D01*
X462000Y136000D02*X468000D01*
X462000Y131000D02*X468000D01*
X462000Y126000D02*X468000D01*
X462000Y121000D02*X468000D01*
X498000D02*X504000D01*
X498000Y126000D02*X504000D01*
X498000Y131000D02*X504000D01*
X498000Y136000D02*X504000D01*
X498000Y141000D02*X504000D01*
X498000Y146000D02*X504000D01*
X498000Y151000D02*X504000D01*
X498000Y156000D02*X504000D01*
X498000Y161000D02*X504000D01*
G54D215*X35260Y164393D02*Y163607D01*
X42740Y164393D02*Y163607D01*
X35260Y153393D02*Y152607D01*
X42740Y153393D02*Y152607D01*
G54D221*X412402Y105193D02*Y103421D01*
Y111886D02*Y110114D01*
X409252Y105193D02*Y103421D01*
Y111886D02*Y110114D01*
X406102Y105193D02*Y103421D01*
Y111886D02*Y110114D01*
X402953Y105193D02*Y103421D01*
Y111886D02*Y110114D01*
G54D216*X804989Y137893D02*Y137107D01*
X816011Y137893D02*Y137107D01*
G54D221*X391450Y154500D02*Y152728D01*
Y161193D02*Y159421D01*
X388300Y154500D02*Y152728D01*
Y161193D02*Y159421D01*
X385150Y154500D02*Y152728D01*
Y161193D02*Y159421D01*
X382001Y154500D02*Y152728D01*
Y161193D02*Y159421D01*
G54D216*X388011Y142893D02*Y142107D01*
X376989Y142893D02*Y142107D01*
G54D220*X435500Y160200D02*Y154000D01*
X430500Y160200D02*Y154000D01*
X425500Y160200D02*Y154000D01*
X420500Y160200D02*Y154000D01*
X415500Y160200D02*Y154000D01*
X410500Y160200D02*Y154000D01*
X405500Y160200D02*Y154000D01*
X400500Y160200D02*Y154000D01*
Y124000D02*Y117800D01*
X405500Y124000D02*Y117800D01*
X410500Y124000D02*Y117800D01*
X415500Y124000D02*Y117800D01*
X420500Y124000D02*Y117800D01*
X425500Y124000D02*Y117800D01*
X430500Y124000D02*Y117800D01*
X435500Y124000D02*Y117800D01*
G54D221*X839800Y105386D02*Y103614D01*
Y112079D02*Y110307D01*
X836650Y105386D02*Y103614D01*
Y112079D02*Y110307D01*
X833500Y105386D02*Y103614D01*
Y112079D02*Y110307D01*
X830351Y105386D02*Y103614D01*
Y112079D02*Y110307D01*
X813150Y155886D02*Y154114D01*
Y162579D02*Y160807D01*
X810000Y155886D02*Y154114D01*
Y162579D02*Y160807D01*
X806850Y155886D02*Y154114D01*
Y162579D02*Y160807D01*
X803701Y155886D02*Y154114D01*
Y162579D02*Y160807D01*
G54D222*X698200Y39300D02*Y28100D01*
X675200Y39300D02*Y28100D01*
M02*
