G04 start of page 11 for group -4015 idx -4015 *
G04 Title: AYAB-RS_F, toppaste *
G04 Creator: pcb 20140316 *
G04 CreationDate: Mon 08 Feb 2021 11:07:46 PM GMT UTC *
G04 For: tom *
G04 Format: Gerber/RS-274X *
G04 PCB-Dimensions (mil): 11000.00 1900.00 *
G04 PCB-Coordinate-Origin: lower left *
%MOIN*%
%FSLAX25Y25*%
%LNTOPPASTE*%
%ADD181C,0.0280*%
%ADD180C,0.0080*%
%ADD179C,0.0040*%
%ADD178R,0.1230X0.1230*%
%ADD177R,0.0177X0.0177*%
%ADD176R,0.0240X0.0240*%
%ADD175R,0.0200X0.0200*%
%ADD174R,0.0390X0.0390*%
%ADD173R,0.0394X0.0394*%
%ADD172R,0.0630X0.0630*%
%ADD171R,0.0512X0.0512*%
%ADD170R,0.0551X0.0551*%
%ADD169R,0.0301X0.0301*%
%ADD168R,0.0700X0.0700*%
G54D168*X664000Y103500D02*Y102000D01*
X680000Y103500D02*Y102000D01*
G54D169*X121760Y149134D02*Y148993D01*
X129240Y149134D02*Y148993D01*
X125500Y157007D02*Y156866D01*
G54D170*X105709Y49945D02*X108465D01*
X105709Y68055D02*X108465D01*
X141535Y49945D02*X144291D01*
X141535Y68055D02*X144291D01*
G54D171*X109607Y130260D02*X110393D01*
X109607Y137740D02*X110393D01*
X121107D02*X121893D01*
X121107Y130260D02*X121893D01*
G54D172*X715607Y54989D02*X716393D01*
X715607Y66011D02*X716393D01*
X129511Y98393D02*Y97607D01*
X118489Y98393D02*Y97607D01*
G54D173*X120457Y109000D02*X120851D01*
X127149D02*X127543D01*
G54D171*X448760Y22393D02*Y21607D01*
X456240Y22393D02*Y21607D01*
G54D174*X393760Y22100D02*X395760D01*
X383860D02*X385860D01*
X318760D02*X320760D01*
X308860D02*X310860D01*
X343760D02*X345760D01*
X333860D02*X335860D01*
X368760D02*X370760D01*
X358860D02*X360860D01*
G54D171*X484500Y22393D02*Y21607D01*
X491980Y22393D02*Y21607D01*
G54D175*X889000Y160500D02*X895000D01*
X889000Y155500D02*X895000D01*
X889000Y150500D02*X895000D01*
X889000Y145500D02*X895000D01*
X889000Y140500D02*X895000D01*
X889000Y135500D02*X895000D01*
X889000Y130500D02*X895000D01*
X889000Y125500D02*X895000D01*
X889000Y120500D02*X895000D01*
X925000D02*X931000D01*
X925000Y125500D02*X931000D01*
X925000Y130500D02*X931000D01*
X925000Y135500D02*X931000D01*
X925000Y140500D02*X931000D01*
X925000Y145500D02*X931000D01*
X925000Y150500D02*X931000D01*
X925000Y155500D02*X931000D01*
X925000Y160500D02*X931000D01*
G54D176*X862500Y161700D02*Y155500D01*
X857500Y161700D02*Y155500D01*
X852500Y161700D02*Y155500D01*
X847500Y161700D02*Y155500D01*
X842500Y161700D02*Y155500D01*
X837500Y161700D02*Y155500D01*
X832500Y161700D02*Y155500D01*
X827500Y161700D02*Y155500D01*
Y125500D02*Y119300D01*
X832500Y125500D02*Y119300D01*
X837500Y125500D02*Y119300D01*
X842500Y125500D02*Y119300D01*
X847500Y125500D02*Y119300D01*
X852500Y125500D02*Y119300D01*
X857500Y125500D02*Y119300D01*
X862500Y125500D02*Y119300D01*
G54D171*X236760Y21893D02*Y21107D01*
X244240Y21893D02*Y21107D01*
X214260Y21893D02*Y21107D01*
X221740Y21893D02*Y21107D01*
G54D175*X462000Y161000D02*X468000D01*
X462000Y156000D02*X468000D01*
X462000Y151000D02*X468000D01*
X462000Y146000D02*X468000D01*
X462000Y141000D02*X468000D01*
X462000Y136000D02*X468000D01*
X462000Y131000D02*X468000D01*
X462000Y126000D02*X468000D01*
X462000Y121000D02*X468000D01*
X498000D02*X504000D01*
X498000Y126000D02*X504000D01*
X498000Y131000D02*X504000D01*
X498000Y136000D02*X504000D01*
X498000Y141000D02*X504000D01*
X498000Y146000D02*X504000D01*
X498000Y151000D02*X504000D01*
X498000Y156000D02*X504000D01*
X498000Y161000D02*X504000D01*
G54D171*X35260Y164393D02*Y163607D01*
X42740Y164393D02*Y163607D01*
X35260Y153393D02*Y152607D01*
X42740Y153393D02*Y152607D01*
G54D177*X412402Y105193D02*Y103421D01*
Y111886D02*Y110114D01*
X409252Y105193D02*Y103421D01*
Y111886D02*Y110114D01*
X406102Y105193D02*Y103421D01*
Y111886D02*Y110114D01*
X402953Y105193D02*Y103421D01*
Y111886D02*Y110114D01*
G54D172*X804989Y137893D02*Y137107D01*
X816011Y137893D02*Y137107D01*
G54D177*X391450Y154500D02*Y152728D01*
Y161193D02*Y159421D01*
X388300Y154500D02*Y152728D01*
Y161193D02*Y159421D01*
X385150Y154500D02*Y152728D01*
Y161193D02*Y159421D01*
X382001Y154500D02*Y152728D01*
Y161193D02*Y159421D01*
G54D172*X388011Y142893D02*Y142107D01*
X376989Y142893D02*Y142107D01*
G54D176*X435500Y160200D02*Y154000D01*
X430500Y160200D02*Y154000D01*
X425500Y160200D02*Y154000D01*
X420500Y160200D02*Y154000D01*
X415500Y160200D02*Y154000D01*
X410500Y160200D02*Y154000D01*
X405500Y160200D02*Y154000D01*
X400500Y160200D02*Y154000D01*
Y124000D02*Y117800D01*
X405500Y124000D02*Y117800D01*
X410500Y124000D02*Y117800D01*
X415500Y124000D02*Y117800D01*
X420500Y124000D02*Y117800D01*
X425500Y124000D02*Y117800D01*
X430500Y124000D02*Y117800D01*
X435500Y124000D02*Y117800D01*
G54D177*X839800Y105386D02*Y103614D01*
Y112079D02*Y110307D01*
X836650Y105386D02*Y103614D01*
Y112079D02*Y110307D01*
X833500Y105386D02*Y103614D01*
Y112079D02*Y110307D01*
X830351Y105386D02*Y103614D01*
Y112079D02*Y110307D01*
X813150Y155886D02*Y154114D01*
Y162579D02*Y160807D01*
X810000Y155886D02*Y154114D01*
Y162579D02*Y160807D01*
X806850Y155886D02*Y154114D01*
Y162579D02*Y160807D01*
X803701Y155886D02*Y154114D01*
Y162579D02*Y160807D01*
G54D178*X698200Y39300D02*Y28100D01*
X675200Y39300D02*Y28100D01*
G54D179*X857235Y18405D02*X858624Y20430D01*
X857235Y18405D02*X857905Y17735D01*
X859925Y19115D01*
X860465Y18785D01*
X861545Y21375D01*
X861135Y21705D02*X861545Y21375D01*
X860535Y22515D02*X861135Y21705D01*
X860145Y23455D02*X860535Y22515D01*
X860010Y24480D02*X860145Y23455D01*
X860010Y24480D02*X860085Y25265D01*
X860325Y26015D01*
X860705Y26735D01*
X861105Y27215D01*
X861725Y27755D01*
X862445Y28155D01*
X863225Y28395D01*
X864005Y28475D01*
X864785Y28395D01*
X865525Y28175D01*
X866235Y27795D01*
X866745Y27355D01*
X867305Y26725D01*
X867655Y26085D01*
X867905Y25305D01*
X867995Y24515D01*
X867855Y23465D02*X867995Y24515D01*
X867475Y22525D02*X867855Y23465D01*
X866865Y21705D02*X867475Y22525D01*
X866465Y21345D02*X866865Y21705D01*
X866465Y21345D02*X867531Y18789D01*
X868085Y19116D01*
X870085Y17735D01*
X870765Y18405D01*
X869395Y20426D02*X870765Y18405D01*
X869395Y20426D02*X870155Y21925D01*
X870645Y23565D01*
X873085Y24025D01*
X873094Y24975D01*
X870595Y25435D02*X873094Y24975D01*
X870085Y27015D02*X870595Y25435D01*
X869295Y28445D02*X870085Y27015D01*
X869295Y28445D02*X870765Y30585D01*
X870085Y31255D02*X870765Y30585D01*
X867925Y29778D02*X870085Y31255D01*
X866515Y30515D02*X867925Y29778D01*
X864965Y30985D02*X866515Y30515D01*
X864475Y33585D02*X864965Y30985D01*
X863525Y33585D02*X864475D01*
X863045Y30995D02*X863525Y33585D01*
X861505Y30515D02*X863045Y30995D01*
X860075Y29775D02*X861505Y30515D01*
X857915Y31256D02*X860075Y29775D01*
X857245Y30595D02*X857915Y31256D01*
X857245Y30595D02*X858685Y28405D01*
X857918Y27005D02*X858685Y28405D01*
X857918Y27005D02*X857925Y27025D01*
X857905Y26965D02*X857925Y27025D01*
X857415Y25435D02*X857905Y26965D01*
X854905Y24975D02*X857415Y25435D01*
X854905Y24975D02*Y24025D01*
X857365Y23575D01*
X857685Y22465D01*
X857855Y21895D01*
X858515Y20635D01*
X858624Y20430D01*
G54D180*X857825Y30745D02*X859885Y29395D01*
X855225Y24545D02*X857435Y23845D01*
X857825Y30745D02*X859325Y28415D01*
X857805Y18275D02*X859155Y20395D01*
X857805Y18275D02*X859665Y19615D01*
X860135Y19330D02*X861015Y21340D01*
X866915Y21300D02*X867725Y19450D01*
X867945Y19750D02*X870135Y18345D01*
X855225Y24565D02*X857525Y24965D01*
X863925Y33305D02*X864485Y30775D01*
X863335Y30835D02*X863925Y33305D01*
X868775Y28525D02*X870095Y30595D01*
X870415Y24070D02*X872675Y24490D01*
X870284Y25037D02*X872675Y24490D01*
X867795Y29325D02*X870095Y30595D01*
X868795Y20570D02*X870135Y18345D01*
G54D181*X858325Y24465D02*X859925Y20865D01*
X858325Y24465D02*X860125Y28365D01*
X863925Y30165D01*
X868125Y28365D01*
X869725Y24465D01*
X868125Y20665D02*X869725Y24465D01*
M02*
