G04 start of page 9 for group -4063 idx -4063 *
G04 Title: AYAB-RS_D, componentmask *
G04 Creator: pcb 20140316 *
G04 CreationDate: Fri Dec 25 22:38:06 2015 UTC *
G04 For: oskay *
G04 Format: Gerber/RS-274X *
G04 PCB-Dimensions (mil): 11000.00 2070.00 *
G04 PCB-Coordinate-Origin: lower left *
%MOIN*%
%FSLAX25Y25*%
%LNTOPMASK*%
%ADD172R,0.0450X0.0450*%
%ADD171R,0.0300X0.0300*%
%ADD170R,0.0750X0.0750*%
%ADD169R,0.0350X0.0350*%
%ADD168R,0.0800X0.0800*%
%ADD167R,0.0494X0.0494*%
%ADD166R,0.0730X0.0730*%
%ADD165R,0.0654X0.0654*%
%ADD164R,0.0634X0.0634*%
%ADD163R,0.0632X0.0632*%
%ADD162R,0.0612X0.0612*%
%ADD161C,0.1000*%
%ADD160R,0.0401X0.0401*%
%ADD159C,0.0970*%
%ADD158C,0.1260*%
%ADD157C,0.1540*%
%ADD156C,0.1760*%
%ADD155C,0.2260*%
%ADD154C,0.2110*%
%ADD153C,0.0759*%
%ADD152C,0.0669*%
%ADD151C,0.0739*%
%ADD150C,0.0920*%
%ADD149C,0.0800*%
%ADD148C,0.0001*%
%ADD147C,0.0760*%
G54D147*X165000Y135000D03*
Y125000D03*
Y115000D03*
Y105000D03*
Y95000D03*
Y85000D03*
Y75000D03*
Y65000D03*
Y55000D03*
Y45000D03*
G54D148*G36*
X195200Y38800D02*Y31200D01*
X202800D01*
Y38800D01*
X195200D01*
G37*
G36*
X177700D02*Y31200D01*
X185300D01*
Y38800D01*
X177700D01*
G37*
G54D149*X155000Y125000D03*
Y115000D03*
Y105000D03*
Y95000D03*
Y85000D03*
Y75000D03*
Y65000D03*
Y55000D03*
Y45000D03*
G54D148*G36*
X296700Y197800D02*Y190200D01*
X304300D01*
Y197800D01*
X296700D01*
G37*
G36*
Y185300D02*Y177700D01*
X304300D01*
Y185300D01*
X296700D01*
G37*
G54D147*X290657Y194787D03*
Y182287D03*
X280815Y194000D03*
Y181500D03*
X270972Y194787D03*
Y182287D03*
G54D150*X342000Y155300D03*
G54D148*G36*
X258306Y135194D02*Y127806D01*
X265694D01*
Y135194D01*
X258306D01*
G37*
G54D151*X252157Y131500D03*
X242315D03*
X232472D03*
X222630D03*
G54D150*X342000Y129700D03*
G54D148*G36*
X283306Y65694D02*Y58306D01*
X290694D01*
Y65694D01*
X283306D01*
G37*
G54D151*X277157Y62000D03*
X267315D03*
X257472D03*
X247630D03*
X237787D03*
X227945D03*
X218102D03*
G54D148*G36*
X283654Y86346D02*Y79654D01*
X290346D01*
Y86346D01*
X283654D01*
G37*
G54D152*X279126Y83000D03*
X271252D03*
X336508Y85500D03*
X328634D03*
X263378Y83000D03*
X255504D03*
X247630D03*
X239756D03*
X231882D03*
G54D148*G36*
X243654Y107678D02*Y100985D01*
X250346D01*
Y107678D01*
X243654D01*
G37*
G54D152*X239126Y104331D03*
X231252D03*
X223378D03*
X215504D03*
G54D147*X85000Y125000D03*
Y135000D03*
Y145000D03*
Y155000D03*
Y165000D03*
Y175000D03*
Y75000D03*
Y85000D03*
Y95000D03*
Y105000D03*
G54D148*G36*
X81200Y48800D02*Y41200D01*
X88800D01*
Y48800D01*
X81200D01*
G37*
G54D147*X85000Y55000D03*
G54D149*X95000Y45000D03*
Y55000D03*
G54D147*X85000Y65000D03*
G54D149*X95000D03*
Y75000D03*
Y85000D03*
G54D148*G36*
X21700Y92972D02*Y85372D01*
X29300D01*
Y92972D01*
X21700D01*
G37*
G54D147*X35343Y88779D03*
X45185Y89172D03*
G54D148*G36*
X43206Y43794D02*Y36206D01*
X50794D01*
Y43794D01*
X43206D01*
G37*
G36*
X41528Y118346D02*Y111654D01*
X48220D01*
Y118346D01*
X41528D01*
G37*
G54D152*X37000Y115000D03*
X29126D03*
G54D153*X37157Y40000D03*
X27315D03*
G54D147*X165000Y175000D03*
Y165000D03*
Y155000D03*
G54D149*X155000Y175000D03*
Y165000D03*
Y155000D03*
G54D147*X165000Y145000D03*
G54D149*X155000D03*
Y135000D03*
G54D147*X85000Y115000D03*
G54D149*X95000Y95000D03*
Y105000D03*
Y115000D03*
Y125000D03*
Y135000D03*
Y145000D03*
Y155000D03*
Y165000D03*
Y175000D03*
G54D154*X645500Y90000D03*
G54D155*Y65000D03*
G54D156*X627500Y77500D03*
G54D148*G36*
X396154Y88846D02*Y82154D01*
X402846D01*
Y88846D01*
X396154D01*
G37*
G54D152*X391626Y85500D03*
X383752D03*
X375878D03*
X368004D03*
X360130D03*
X352256D03*
X344382D03*
G54D148*G36*
X401389Y65694D02*Y58306D01*
X408776D01*
Y65694D01*
X401389D01*
G37*
G36*
X610700Y55300D02*Y46700D01*
X619300D01*
Y55300D01*
X610700D01*
G37*
G36*
X590700D02*Y46700D01*
X599300D01*
Y55300D01*
X590700D01*
G37*
G54D151*X395240Y62000D03*
X385398D03*
X375555D03*
X365713D03*
X355870D03*
X346028D03*
X336185D03*
X326343D03*
X316500D03*
G54D148*G36*
X1081149Y44194D02*Y36806D01*
X1088536D01*
Y44194D01*
X1081149D01*
G37*
G54D151*X1075000Y40500D03*
X1065157D03*
G54D148*G36*
X1037654Y44346D02*Y37654D01*
X1044346D01*
Y44346D01*
X1037654D01*
G37*
G54D152*X1033126Y41000D03*
X1025252D03*
G54D148*G36*
X741830Y71800D02*Y64200D01*
X749430D01*
Y71800D01*
X741830D01*
G37*
G54D147*X755472Y67606D03*
X765315Y68000D03*
X775157Y67606D03*
X785000Y68000D03*
X794843Y67606D03*
X804685Y68000D03*
X814528Y67606D03*
X824370Y68000D03*
X834213Y67606D03*
G54D148*G36*
X986830Y102300D02*Y94700D01*
X994430D01*
Y102300D01*
X986830D01*
G37*
G54D147*X1000472Y98106D03*
X1010315Y98500D03*
X1020157Y98106D03*
X1030000Y98500D03*
X1039843Y98106D03*
X1049685Y98500D03*
X1059528Y98106D03*
X1069370Y98500D03*
X1079213Y98106D03*
G54D148*G36*
X905200Y71300D02*Y63700D01*
X912800D01*
Y71300D01*
X905200D01*
G37*
G54D147*X918843Y67106D03*
X928685Y67500D03*
X938528Y67106D03*
X948370Y67500D03*
X958213Y67106D03*
X968055Y67500D03*
X977898Y67106D03*
G54D157*X1062500Y139500D03*
Y65500D03*
G54D158*Y172000D03*
X875000Y67000D03*
G54D157*X550000Y139500D03*
Y65500D03*
X37500Y139500D03*
Y65500D03*
G54D159*X283000Y36500D03*
X423000D03*
G54D160*X121760Y166134D02*Y165993D01*
X129240Y166134D02*Y165993D01*
X125500Y174007D02*Y173866D01*
G54D161*X142500Y169500D03*
G54D162*X109607Y147260D02*X110393D01*
X109607Y154740D02*X110393D01*
X121107D02*X121893D01*
X121107Y147260D02*X121893D01*
G54D163*X35260Y170393D02*Y169607D01*
X42740Y170393D02*Y169607D01*
X35260Y181393D02*Y180607D01*
X42740Y181393D02*Y180607D01*
G54D161*X16000Y181000D03*
G54D164*X105709Y66945D02*X108465D01*
G54D161*X57500Y54500D03*
G54D164*X105709Y85055D02*X108465D01*
X141535Y66945D02*X144291D01*
G54D165*X141535Y85055D02*X144291D01*
G54D166*X129511Y115393D02*Y114607D01*
X118489Y115393D02*Y114607D01*
G54D167*X120457Y126000D02*X120851D01*
X127149D02*X127543D01*
G54D161*X142500Y97000D03*
G54D168*X664000Y120500D02*Y119000D01*
X680000Y120500D02*Y119000D01*
G54D169*X688200Y50000D02*X693800D01*
X673600D02*X679300D01*
G54D161*X682500Y74500D03*
G54D170*X715607Y71989D02*X716393D01*
X715607Y83011D02*X716393D01*
G54D161*X737500Y109500D03*
G54D171*X889000Y177500D02*X895000D01*
X889000Y172500D02*X895000D01*
X889000Y167500D02*X895000D01*
X889000Y162500D02*X895000D01*
X889000Y157500D02*X895000D01*
G54D161*X1090000Y187000D03*
G54D171*X889000Y152500D02*X895000D01*
X889000Y147500D02*X895000D01*
X889000Y142500D02*X895000D01*
X889000Y137500D02*X895000D01*
X925000D02*X931000D01*
X925000Y142500D02*X931000D01*
X925000Y147500D02*X931000D01*
X925000Y152500D02*X931000D01*
X925000Y157500D02*X931000D01*
X925000Y162500D02*X931000D01*
X925000Y167500D02*X931000D01*
X925000Y172500D02*X931000D01*
X925000Y177500D02*X931000D01*
G54D161*X1002500Y37000D03*
G54D171*X862500Y178700D02*Y172500D01*
X857500Y178700D02*Y172500D01*
X852500Y178700D02*Y172500D01*
X847500Y178700D02*Y172500D01*
X842500Y178700D02*Y172500D01*
X837500Y178700D02*Y172500D01*
X832500Y178700D02*Y172500D01*
X827500Y178700D02*Y172500D01*
Y142500D02*Y136300D01*
X832500Y142500D02*Y136300D01*
X837500Y142500D02*Y136300D01*
X842500Y142500D02*Y136300D01*
X847500Y142500D02*Y136300D01*
X852500Y142500D02*Y136300D01*
X857500Y142500D02*Y136300D01*
X862500Y142500D02*Y136300D01*
G54D161*X880000Y134500D03*
Y197000D03*
G54D163*X448760Y39393D02*Y38607D01*
X456240Y39393D02*Y38607D01*
G54D172*X393760Y39100D02*X395760D01*
X383860D02*X385860D01*
X368760D02*X370760D01*
X358860D02*X360860D01*
G54D163*X484500Y39393D02*Y38607D01*
X491980Y39393D02*Y38607D01*
G54D161*X510000Y34500D03*
G54D172*X318760Y39100D02*X320760D01*
X308860D02*X310860D01*
X343760D02*X345760D01*
X333860D02*X335860D01*
G54D162*X236760Y38893D02*Y38107D01*
X244240Y38893D02*Y38107D01*
X214260Y38893D02*Y38107D01*
X221740Y38893D02*Y38107D01*
G54D161*X262500Y37000D03*
G54D171*X462000Y178000D02*X468000D01*
X462000Y173000D02*X468000D01*
X462000Y168000D02*X468000D01*
X462000Y163000D02*X468000D01*
X462000Y158000D02*X468000D01*
X462000Y153000D02*X468000D01*
X462000Y148000D02*X468000D01*
X462000Y143000D02*X468000D01*
X462000Y138000D02*X468000D01*
X498000D02*X504000D01*
X498000Y143000D02*X504000D01*
X498000Y148000D02*X504000D01*
X498000Y153000D02*X504000D01*
X498000Y158000D02*X504000D01*
X498000Y163000D02*X504000D01*
X498000Y168000D02*X504000D01*
X498000Y173000D02*X504000D01*
X498000Y178000D02*X504000D01*
G54D161*X502500Y195500D03*
G54D171*X435500Y177200D02*Y171000D01*
X430500Y177200D02*Y171000D01*
X425500Y177200D02*Y171000D01*
X420500Y177200D02*Y171000D01*
X415500Y177200D02*Y171000D01*
X410500Y177200D02*Y171000D01*
X405500Y177200D02*Y171000D01*
X400500Y177200D02*Y171000D01*
G54D161*Y195500D03*
X255000Y190500D03*
G54D171*X400500Y141000D02*Y134800D01*
G54D161*Y124000D03*
G54D171*X405500Y141000D02*Y134800D01*
X410500Y141000D02*Y134800D01*
X415500Y141000D02*Y134800D01*
X420500Y141000D02*Y134800D01*
X425500Y141000D02*Y134800D01*
X430500Y141000D02*Y134800D01*
X435500Y141000D02*Y134800D01*
M02*
