M48
INCH
T133C0.035
T132C0.020
T131C0.110
T130C0.125
T129C0.035
T128C0.030
T127C0.036
T126C0.038
%
T132
X006500Y001450
X013150Y012150
X019900Y008350
X023900Y009850
X029100Y014050
X035250Y001700
X037650Y013200
X038150Y012550
X042550Y010750
X043050Y011250
X043300Y016900
X044200Y015700
X044200Y012850
X046900Y002200
X050150Y002200
X079450Y011950
X081500Y001900
X085750Y011300
X086950Y011300
T128
X034200Y013830
X034200Y011270
T133
X002700Y017500
X021900Y006950
X028300Y009950
X037700Y018250
X038900Y013200
X049100Y006250
X077850Y014850
X082000Y014700
X090650Y012200
T129
X002913Y009800
X003700Y009800
X004487Y009800
X021550Y008733
X022338Y008733
X023125Y008733
X023188Y006600
X023913Y008733
X023976Y006600
X024700Y008733
X024763Y006600
X025550Y006600
X026338Y006600
X027125Y006600
X027913Y006600
X028700Y006600
X032863Y006850
X033651Y006850
X034438Y006850
X035226Y006850
X036013Y006850
X036800Y006850
X037588Y006850
X038375Y006850
X039163Y006850
X039950Y006850
X102525Y002400
X103313Y002400
X104100Y002400
T127
X002550Y007217
X002732Y002300
X003534Y007178
X003716Y002300
X004518Y007217
X004700Y002300
X021810Y004500
X022263Y011450
X022794Y004500
X023247Y011450
X023779Y004500
X024232Y011450
X024763Y004500
X025216Y011450
X025747Y004500
X026200Y011450
X026732Y004500
X027097Y017779
X027097Y016529
X027716Y004500
X028082Y017700
X028082Y016450
X028700Y004500
X029066Y017779
X029066Y016529
X030050Y017700
X030050Y016450
X031650Y004500
X032634Y004500
X033619Y004500
X034603Y004500
X035587Y004500
X036571Y004500
X037556Y004500
X038540Y004500
X039524Y004500
X040508Y004500
X044800Y012100
X051400Y017900
X074563Y005100
X075547Y005061
X076531Y005100
X077516Y005061
X078500Y005100
X079484Y005061
X080469Y005100
X081453Y005061
X082437Y005100
X083421Y005061
X090900Y005050
X091884Y005011
X092868Y005050
X093853Y005011
X094837Y005050
X095821Y005011
X096806Y005050
X097790Y005011
X099063Y008150
X100047Y008111
X101031Y008150
X101250Y005200
X102016Y008111
X103000Y008150
X103984Y008111
X104969Y008150
X105953Y008111
X106516Y002350
X106937Y008150
X107500Y002350
X107921Y008111
X108484Y002350
T126
X008500Y015800
X008500Y014800
X008500Y013800
X008500Y012800
X008500Y011800
X008500Y010800
X008500Y009800
X008500Y008800
X008500Y007800
X008500Y006800
X008500Y005800
X008500Y004800
X008500Y003800
X008500Y002800
X009500Y015800
X009500Y014800
X009500Y013800
X009500Y012800
X009500Y011800
X009500Y010800
X009500Y009800
X009500Y008800
X009500Y007800
X009500Y006800
X009500Y005800
X009500Y004800
X009500Y003800
X009500Y002800
X015500Y015800
X015500Y014800
X015500Y013800
X015500Y012800
X015500Y011800
X015500Y010800
X015500Y009800
X015500Y008800
X015500Y007800
X015500Y006800
X015500Y005800
X015500Y004800
X015500Y003800
X015500Y002800
X016500Y015800
X016500Y014800
X016500Y013800
X016500Y012800
X016500Y011800
X016500Y010800
X016500Y009800
X016500Y008800
X016500Y007800
X016500Y006800
X016500Y005800
X016500Y004800
X016500Y003800
X016500Y002800
X018150Y001800
X019900Y001800
X059500Y003400
X061500Y003400
T131
X062750Y006050
X064550Y004800
X069950Y007500
T130
X064550Y007300
M30
