G04 start of page 11 for group 1 layer_idx 9 *
G04 Title: AYAB-RS_E, top_silk *
G04 Creator: pcb-rnd 1.2.8 *
G04 CreationDate: 2018-05-30 20:35:32 UTC *
G04 For: Windell H. Oskay *
G04 Format: Gerber/RS-274X *
G04 PCB-Dimensions: 1100000 207000 *
G04 PCB-Coordinate-Origin: lower left *
%MOIN*%
%FSLAX25Y25*%
%LNTOPSILK*%
%ADD206C,0.0074*%
%ADD205C,0.0062*%
%ADD204C,0.0110*%
%ADD203C,0.0066*%
%ADD202C,0.0082*%
%ADD201C,0.0119*%
%ADD200C,0.0073*%
%ADD199C,0.0067*%
%ADD198C,0.0061*%
%ADD197C,0.0064*%
%ADD196C,0.0050*%
%ADD195C,0.0250*%
%ADD194C,0.0060*%
%ADD193C,0.0080*%
%ADD192C,0.0080*%
%ADD191C,0.0070*%
%ADD190C,0.0150*%
%ADD189C,0.0100*%
%ADD188C,0.0120*%
G54D188*X630500Y33500D02*X634500D01*
X642500D02*X638500D01*
X641000D02*X637000D01*
G54D189*X671200Y38600D02*X688900D01*
X696300Y55700D02*Y44300D01*
G54D190*X756500Y59000D02*X753000D01*
G54D189*X696300Y44300D02*X688900Y38600D01*
G54D190*X728500Y59000D02*X782500D01*
X731000D02*X727500D01*
X780500D02*X777000D01*
G54D189*X671200Y61400D02*Y38600D01*
Y61400D02*X688900D01*
X696300Y55700D01*
G54D190*X727500Y59000D02*X728000Y59500D01*
X728500Y59000D01*
X753000D02*X753500Y59500D01*
X754000Y59000D01*
X796500D02*X797000Y59500D01*
X777000Y59000D02*X777500Y59500D01*
X778000Y59000D01*
X781500Y60000D02*X728500D01*
X796500Y62000D02*Y59000D01*
X797000Y59500D02*X797500Y59000D01*
X800000D02*X796500D01*
Y60500D01*
X797500Y61500D01*
X802500Y59000D02*Y60500D01*
Y62000D02*Y59000D01*
Y60500D02*X803500Y61500D01*
X807000Y60500D02*Y60000D01*
X802500Y59000D02*X803000Y59500D01*
X803500Y59000D01*
X806000D02*X802500D01*
X808000Y61500D02*X807000Y60500D01*
X808000Y59000D02*Y62500D01*
X846000Y59000D02*Y60500D01*
Y62000D02*Y59000D01*
Y60500D02*X847000Y61500D01*
X782500Y59000D02*Y62500D01*
Y61500D02*X781500Y60500D01*
Y60000D01*
X777000Y62000D02*Y59000D01*
Y60500D01*
X778000Y61500D01*
X850500Y60000D02*X797500D01*
X846000Y59000D02*X846500Y59500D01*
X847000Y59000D01*
X849500D02*X846000D01*
X850500Y60500D02*Y60000D01*
X851500Y61500D02*X850500Y60500D01*
X797500Y61500D02*X851500D01*
X754000D02*X808000D01*
X807000Y60000D02*X754000D01*
X797500Y59000D02*X851500D01*
X754000D02*X808000D01*
X891000Y61500D02*Y58500D01*
Y60000D01*
X851500Y59000D02*Y62500D01*
X796500D01*
X782500D02*X727500D01*
X728500Y61500D02*X782500D01*
X808000Y62500D02*X753000D01*
G54D189*X740709Y62882D02*X839134D01*
G54D190*X727500Y62000D02*Y59000D01*
Y60500D01*
X728500Y61500D01*
X753000Y62000D02*Y59000D01*
Y60500D01*
X754000Y61500D01*
G54D189*X90000Y180000D02*Y40000D01*
X113200Y87800D02*Y64200D01*
X105548Y158799D02*Y143201D01*
G54D191*X118689Y167245D02*Y172755D01*
X122430D01*
X132311Y167245D02*Y172755D01*
X128570D01*
X124894Y167245D02*X126106D01*
G54D189*X117048Y158799D02*X125952D01*
X113839Y120043D02*Y109957D01*
Y120043D02*X134161D01*
G54D192*X116989Y129468D02*X131011D01*
X116989Y122532D02*X131011D01*
G54D189*X134161Y120043D02*Y109957D01*
X113839D02*X134161D01*
G54D192*X131011Y129468D02*Y122532D01*
G54D189*X116150Y84850D02*Y78950D01*
Y73050D02*Y67150D01*
G54D192*X116989Y129468D02*Y122532D01*
G54D189*X114675Y78950D02*X116150Y73050D01*
X105548Y143201D02*X114452D01*
X105548Y158799D02*X114452D01*
Y143201D01*
X125952Y158799D02*Y143201D01*
X117048D02*X125952D01*
X117048Y158799D02*Y143201D01*
X160000Y180000D02*Y40000D01*
X113200Y64200D02*X136800D01*
Y87800D02*Y64200D01*
X114675Y67150D02*X135325D01*
X114675Y84850D02*X135325D01*
X113200Y87800D02*X136800D01*
X213181Y119295D02*X271843D01*
X265150Y138193D02*X271843Y131500D01*
X213181D02*Y119295D01*
X271843Y138587D02*Y119295D01*
X266331Y138193D02*X271055Y133469D01*
X265150Y138587D02*Y138193D01*
X271055Y132287D02*X271843Y133075D01*
Y138587D02*X220268D01*
X213181Y131500D02*X220268Y138587D01*
G54D193*X209205Y110040D02*X209992Y109252D01*
X211173Y110433D02*X208811Y108071D01*
X210386Y109646D01*
Y110040D02*Y109646D01*
X208811Y110040D02*X210386D01*
X208811D02*X209205D01*
X208811Y109252D02*X209992D01*
X209205Y107677D02*X208811Y108071D01*
Y110827D02*Y108071D01*
Y110827D02*X209205Y110433D01*
X211567D01*
X211173D02*X211567D01*
G54D189*X208024Y111221D02*Y93898D01*
G54D193*Y107677D02*X209598D01*
X213142Y111221D01*
X212748D02*X213142D01*
X212748D02*X209205Y107677D01*
X252906D02*X249362Y111221D01*
X249756D01*
X250937Y110433D02*X251331D01*
X252512Y109252D02*X253693D01*
X252118Y110040D02*X253693D01*
X253299D01*
X252512Y109252D01*
X251331Y110433D02*X253693Y108071D01*
X252118Y109646D01*
Y110040D01*
X249756Y111221D02*X253299Y107677D01*
X253693Y110827D02*X253299Y110433D01*
X250937D01*
X254480Y107677D02*X252906D01*
X253299D02*X253693Y108071D01*
Y110827D01*
G54D189*X254480Y111221D02*Y93898D01*
Y111221D02*X208024D01*
X254480Y93898D02*X208024D01*
X208260Y49795D02*X296843D01*
Y69087D02*X215346D01*
X290150Y68693D02*X296843Y62000D01*
X208260D02*Y49795D01*
Y62000D02*X215346Y69087D01*
G54D193*X292906Y86346D02*X289362Y89890D01*
X289756D01*
X290937Y89102D02*X291331D01*
X292512Y87921D02*X293693D01*
X292118Y88709D02*X293693D01*
X293299D01*
X292512Y87921D01*
X291331Y89102D02*X293693Y86740D01*
X292118Y88315D01*
Y88709D01*
X289756Y89890D02*X293299Y86346D01*
X293693Y89496D02*X293299Y89102D01*
X290937D01*
X294480Y86346D02*X292906D01*
X293299D02*X293693Y86740D01*
Y89496D01*
G54D189*X296843Y69087D02*Y49795D01*
X291331Y68693D02*X296055Y63969D01*
X290150Y69087D02*Y68693D01*
X296055Y62787D02*X296843Y63575D01*
X232701Y42952D02*X248299D01*
X224402Y89890D02*Y72567D01*
G54D193*Y86346D02*X225976D01*
X225583D02*X225189Y86740D01*
Y89496D02*Y86740D01*
Y89496D02*X225583Y89102D01*
X225189Y88709D02*X225583D01*
X225976Y86346D02*X229520Y89890D01*
X229126D02*X225583Y86346D01*
Y89102D02*X227945D01*
X227551D02*X227945D01*
X226764Y88709D02*Y88315D01*
X225583Y88709D02*X226370Y87921D01*
X229126Y89890D02*X229520D01*
X227551Y89102D02*X225189Y86740D01*
X226764Y88315D01*
X225189Y88709D02*X226764D01*
X225189Y87921D02*X226370D01*
G54D189*X210201Y42952D02*X225799D01*
X294480Y89890D02*X224402D01*
X294480Y72567D02*X224402D01*
X306658Y62000D02*Y49795D01*
Y62000D02*X313744Y69087D01*
G54D194*X312200Y47400D02*Y44400D01*
X313700Y45900D02*X312200Y47400D01*
X312600Y47000D01*
Y45200D01*
X312800Y45400D02*Y46400D01*
G54D189*X294480Y89890D02*Y72567D01*
X160000Y40000D02*X170000D01*
X194000D02*X204000D01*
X194000D02*X204000D01*
X176500D02*X186500D01*
X176500D02*X186500D01*
X170000D02*Y180000D01*
Y170000D02*Y180000D01*
X160000D01*
X266051Y186815D02*X305421D01*
X266051Y199315D02*X305421D01*
X266051D02*Y189472D01*
X305421D01*
Y199315D02*Y189472D01*
X295579Y199315D02*Y189472D01*
X266051Y186815D02*Y176972D01*
X305421D01*
Y186815D02*Y176972D01*
X295579Y186815D02*Y176972D01*
G54D194*X312600Y45200D02*X312800Y45400D01*
G54D189*X31201Y185452D02*Y176548D01*
Y185452D02*X46799D01*
X31201Y174452D02*Y165548D01*
X46799Y174452D02*Y165548D01*
X31201D02*X46799D01*
Y185452D02*Y176548D01*
X31201D02*X46799D01*
X31201Y174452D02*X46799D01*
X80000Y180000D02*X90000D01*
X80000D02*Y40000D01*
Y50000D02*Y40000D01*
X90000D01*
X52354Y121890D02*X21646D01*
G54D193*X22433Y120709D02*X24008D01*
X22433D02*X22827D01*
X26370Y121890D02*X26764D01*
X22433Y121496D02*X22827Y121102D01*
X25189D01*
X24795D02*X25189D01*
X24008Y120709D02*Y120315D01*
X22827Y120709D02*X23614Y119921D01*
X22433D02*X23614D01*
X50386D02*X51567D01*
Y118740D02*X49992Y120315D01*
Y120709D01*
X51567D01*
X51173D01*
X50386Y119921D01*
X21646Y118346D02*X23220D01*
X26764Y121890D01*
X26370D02*X22827Y118346D01*
X22433Y121496D02*Y118740D01*
X24795Y121102D02*X22433Y118740D01*
X24008Y120315D01*
X22827Y118346D02*X22433Y118740D01*
X51567D02*Y121496D01*
X51173Y121102D01*
X48811D01*
X49205D01*
X51567Y118740D01*
X52354Y118346D02*X50780D01*
X47236Y121890D01*
X47630D01*
X51173Y118346D01*
X51567Y118740D01*
G54D189*X52354Y121890D02*Y104567D01*
X21646D01*
Y121890D02*Y104567D01*
X20579Y84054D02*X50106D01*
Y93896D02*Y84054D01*
X20579Y93896D02*X50106D01*
X20579D02*Y84054D01*
X30421Y93896D02*Y84054D01*
X80000Y50000D02*X90000D01*
X194000Y30000D02*X204000D01*
Y40000D02*Y30000D01*
X194000Y40000D02*Y30000D01*
X204000Y40000D02*Y30000D01*
X248299Y34048D02*X232701D01*
X225799D02*X210201D01*
G54D191*X311260Y34000D02*X309460Y36100D01*
X316560Y43500D02*Y42100D01*
X307060Y36100D02*X309460D01*
G54D189*X176500Y30000D02*X186500D01*
Y40000D02*Y30000D01*
Y40000D02*Y30000D01*
X176500Y40000D02*Y30000D01*
X232701Y34048D02*Y42952D01*
X248299D02*Y34048D01*
X210201D02*Y42952D01*
X225799D02*Y34048D01*
G54D194*X309900Y45900D02*X316700D01*
X312200Y44400D02*X313700Y45900D01*
G54D191*X317060Y43500D02*Y42100D01*
G54D194*X314200Y47400D02*Y44400D01*
G54D191*X306960Y42100D02*X323460D01*
X316560Y43500D02*X317460D01*
Y42100D01*
X317060D02*X317460D01*
X311260Y34000D02*X319460D01*
X321360Y36100D02*X319560Y34000D01*
X321360Y36100D02*X323660D01*
Y42100D02*Y36100D01*
G54D194*X336000Y46200D02*X342800D01*
G54D191*X342060Y43500D02*Y42100D01*
X331960D02*X348460D01*
X341560Y43500D02*Y42100D01*
Y43500D02*X342460D01*
Y42100D01*
X342060D02*X342460D01*
X356960D02*X373460D01*
X367060D02*X367460D01*
X366560Y43500D02*Y42100D01*
Y43500D02*X367460D01*
Y42100D01*
X367060Y43500D02*Y42100D01*
G54D194*X395600Y47700D02*Y45900D01*
X367200Y46400D02*X374000D01*
X370100Y45900D02*Y46900D01*
G54D189*X414926Y69087D02*X313744D01*
X316500D02*X314926D01*
X408233Y68693D02*X414926Y62000D01*
G54D194*X395200Y48100D02*Y45100D01*
X396700Y46600D02*X395200Y48100D01*
X395600Y47700D01*
X395800Y46100D02*Y47100D01*
G54D191*X396360Y36100D02*X394560Y34000D01*
G54D194*X392900Y46600D02*X399700D01*
X395200Y45100D02*X396700Y46600D01*
X395600Y45900D02*X395800Y46100D01*
G54D189*X414138Y62787D02*X414926Y63575D01*
Y69087D02*Y49795D01*
X409414Y68693D02*X414138Y63969D01*
X408233Y69087D02*Y68693D01*
G54D194*X397200Y48100D02*Y45100D01*
G54D191*X398660Y42100D02*Y36100D01*
X396360D02*X398660D01*
X381960Y42100D02*X398460D01*
X392060D02*X392460D01*
X391560Y43500D02*Y42100D01*
X392460Y43500D02*Y42100D01*
X392060Y43500D02*Y42100D01*
X382060Y36100D02*X384460D01*
X386260Y34000D02*X394460D01*
X386260D02*X384460Y36100D01*
X391560Y43500D02*X392460D01*
G54D194*X369500Y47900D02*Y44900D01*
X371000Y46400D01*
X369900Y45700D02*X370100Y45900D01*
X371500Y47900D02*Y44900D01*
X371000Y46400D02*X369500Y47900D01*
X369900Y47500D01*
G54D191*X348660Y42100D02*Y36100D01*
X332060D02*X334460D01*
X346360D02*X344560Y34000D01*
X336260D02*X344460D01*
X336260D02*X334460Y36100D01*
X346360D02*X348660D01*
G54D194*X369900Y47500D02*Y45700D01*
G54D191*X373660Y42100D02*Y36100D01*
X357060D02*X359460D01*
X361260Y34000D02*X359460Y36100D01*
X371360D02*X369560Y34000D01*
X371360Y36100D02*X373660D01*
X361260Y34000D02*X369460D01*
G54D194*X338300Y47700D02*Y44700D01*
G54D190*X329500Y154900D02*X336700D01*
X333100Y158600D02*Y151400D01*
X329300Y129600D02*X336500D01*
G54D194*X339800Y46200D02*X338300Y47700D01*
X338700Y47300D01*
Y45500D01*
X338900Y45700D02*Y46700D01*
X340300Y47700D02*Y44700D01*
G54D189*X406980Y75067D02*X321154D01*
X406980Y92390D02*X321154D01*
G54D193*X401862D02*X402256D01*
X325878D02*X326272D01*
G54D189*X321154D02*Y75067D01*
G54D193*X321941Y91996D02*X322335Y91602D01*
X321941Y91209D02*X322335D01*
X321941Y91996D02*Y89240D01*
X323516Y91209D02*Y90815D01*
X321941Y91209D02*X323516D01*
X322335D02*X323122Y90421D01*
X321941D02*X323122D01*
X321154Y88846D02*X322728D01*
X322335D02*X321941Y89240D01*
X323516Y90815D01*
X324303Y91602D02*X324697D01*
X324303D02*X321941Y89240D01*
X322728Y88846D02*X326272Y92390D01*
X325878D02*X322335Y88846D01*
Y91602D02*X324697D01*
X406980Y88846D02*X405406D01*
X405799D02*X406193Y89240D01*
X405406Y88846D02*X401862Y92390D01*
X403437Y91602D02*X403831D01*
X404618Y90815D02*Y91209D01*
X402256Y92390D02*X405799Y88846D01*
X404618Y91209D02*X406193D01*
X405799D01*
X405012Y90421D01*
X406193D01*
Y89240D02*Y91996D01*
X405799Y91602D01*
X403437D01*
X403831D02*X406193Y89240D01*
X404618Y90815D01*
G54D189*X406980Y92390D02*Y75067D01*
G54D194*X338300Y44700D02*X339800Y46200D01*
X338700Y45500D02*X338900Y45700D01*
G54D189*X460000Y180000D02*Y136000D01*
X436700Y165200D02*Y143200D01*
X420200D02*X436700D01*
X399300Y168800D02*Y143200D01*
X415800D01*
X414469Y121307D02*X415453D01*
Y128000D02*Y121307D01*
X414469Y128000D02*X415453D01*
X399902Y121307D02*X400886D01*
X399902Y128000D02*Y121307D01*
Y128000D02*X400886D01*
X460000Y136000D02*X506000D01*
Y180000D02*Y136000D01*
X393517Y170614D02*X394501D01*
Y177307D02*Y170614D01*
X393517Y177307D02*X394501D01*
X378950Y170614D02*X379934D01*
X378950Y177307D02*Y170614D01*
Y177307D02*X379934D01*
X460000Y180000D02*X480500D01*
X485500D02*X506000D01*
X392661Y164543D02*Y154457D01*
X372339D02*X392661D01*
X372339Y164543D02*Y154457D01*
Y164543D02*X392661D01*
X420200Y168800D02*X433100D01*
X436700Y165200D01*
X399300Y168800D02*X415800D01*
X444701Y34548D02*Y43452D01*
X460299D01*
Y34548D01*
X444701D01*
X620000Y56000D02*Y46000D01*
X610000Y56000D02*X620000D01*
X610000D02*Y46000D01*
X620000Y56000D02*Y46000D01*
X610000Y56000D02*X620000D01*
G54D188*X656500Y33500D02*X660500D01*
X658500Y35500D02*Y31500D01*
X648000Y33500D02*X654500D01*
G54D189*X600000Y56000D02*Y46000D01*
Y56000D02*Y46000D01*
X590000Y56000D02*X600000D01*
X590000D02*X600000D01*
X590000D02*Y46000D01*
X480441Y43452D02*Y34548D01*
Y43452D02*X496039D01*
X610000Y46000D02*X620000D01*
X590000D02*X600000D01*
X496039Y43452D02*Y34548D01*
X51331Y46693D02*X56055Y41969D01*
X50150Y47087D02*Y46693D01*
X56843Y47087D02*X24953D01*
X50150Y46693D02*X56843Y40000D01*
X17866Y27795D02*X56843D01*
Y47087D02*Y27795D01*
X56055Y40787D02*X56843Y41575D01*
X17866Y40000D02*Y27795D01*
Y40000D02*X24953Y47087D01*
X480441Y34548D02*X496039D01*
X306658Y49795D02*X414926D01*
G54D190*X8000Y82000D02*X9000Y83000D01*
X8000Y80500D02*Y82000D01*
X11500Y80500D02*X8000D01*
X8500Y81000D02*X9000Y80500D01*
X8000D02*X8500Y81000D01*
X62000Y81500D02*X9000D01*
X62000Y82000D02*Y81500D01*
X63000Y83000D02*X62000Y82000D01*
X9000Y83000D02*X63000D01*
Y84000D02*X8000D01*
X63000Y80500D02*Y84000D01*
X9000Y80500D02*X63000D01*
X8000Y83500D02*Y80500D01*
X891000Y58500D02*X891500Y59000D01*
G54D189*X710957Y67339D02*X721043D01*
X839134Y72724D02*Y62882D01*
X740709Y72724D02*X839134D01*
X740709D02*Y62882D01*
X750551Y72724D02*Y62882D01*
G54D194*X670600Y131200D02*Y128200D01*
X672100Y129700D02*X670600Y131200D01*
X671000Y130800D01*
Y129000D01*
X671200Y129200D01*
Y130200D02*Y129200D01*
X668300Y129700D02*X675100D01*
X670600Y128200D02*X672100Y129700D01*
G54D189*X657500Y125500D02*X686500D01*
G54D194*X672600Y131200D02*Y128200D01*
G54D191*X668900Y119700D02*X675200D01*
X672800D02*X673100D01*
G54D189*X657500Y114000D02*X686500D01*
G54D191*X673600Y121500D02*Y118000D01*
G54D189*X686500Y125500D02*Y114000D01*
X710957Y87661D02*Y67339D01*
Y87661D02*X721043D01*
Y67339D01*
G54D191*X671100Y121500D02*Y118000D01*
X671200D01*
X671850Y119350D02*X671600Y119100D01*
Y120200D02*X671100Y120700D01*
Y121500D02*X672900Y119700D01*
X671850Y120750D02*Y119350D01*
X671600Y120200D02*Y119100D01*
X672800Y119700D02*X671100Y118000D01*
X671200D02*X672900Y119700D01*
X671850Y120750D01*
G54D189*X847200Y144700D02*X863700D01*
X841867Y121500D02*X842851D01*
Y128193D02*Y121500D01*
X841867Y128193D02*X842851D01*
X847200Y170300D02*X860100D01*
X863700Y166700D01*
Y144700D01*
G54D190*X891500Y59000D02*X892000Y58500D01*
G54D189*X887000Y179500D02*Y135500D01*
X933000D01*
Y179500D02*Y135500D01*
X887000Y179500D02*X907500D01*
X912500D02*X933000D01*
X815217Y172000D02*X816201D01*
Y178693D02*Y172000D01*
X815217Y178693D02*X816201D01*
X800650Y172000D02*X801634D01*
X800650Y178693D02*Y172000D01*
Y178693D02*X801634D01*
X826300Y170300D02*X842800D01*
X826300D02*Y144700D01*
X827300Y121500D02*X828284D01*
X827300Y128193D02*Y121500D01*
Y128193D02*X828284D01*
X826300Y144700D02*X842800D01*
X800339Y149457D02*Y159543D01*
X820661D01*
Y149457D01*
X800339D01*
X904079Y72224D02*Y62382D01*
X913921Y72224D02*Y62382D01*
G54D190*X894500Y58500D02*X891000D01*
Y60000D02*X892000Y61000D01*
X944000Y58500D02*X940500D01*
Y60000D01*
X941500Y61000D01*
X945000Y60000D02*Y59500D01*
X892000D01*
X940500Y58500D02*X941000Y59000D01*
X941500Y58500D01*
X892000D02*X946000D01*
Y62000D02*X891000D01*
X892000Y61000D02*X946000D01*
X945000Y60000D01*
X940500Y61500D02*Y58500D01*
X941500D02*X995500D01*
X994500Y59500D02*X941500D01*
X995500Y58500D02*Y62000D01*
Y61000D02*X994500Y60000D01*
Y59500D01*
X995500Y62000D02*X940500D01*
X941500Y61000D02*X995500D01*
G54D189*X904079Y62382D02*X982819D01*
X904079Y72224D02*X982819D01*
G54D190*X946000Y58500D02*Y62000D01*
X972500Y91000D02*X973500Y92000D01*
X972500Y92500D02*Y89500D01*
X973000Y90000D01*
X973500Y89500D01*
X976000D02*X972500D01*
Y91000D01*
X1027500Y93000D02*X972500D01*
X973500Y92000D02*X1027500D01*
X1026500Y90500D02*X973500D01*
X1011500Y89500D02*Y91000D01*
X1012500Y92000D01*
X1011500Y89500D02*X1012000Y90000D01*
X1012500Y89500D01*
X1015000D02*X1011500D01*
G54D189*X985709Y93382D02*X1084134D01*
G54D190*X1022000Y89500D02*Y91000D01*
X1023000Y92000D01*
X1011500Y92500D02*Y89500D01*
X1022000D02*X1022500Y90000D01*
X1023000Y89500D01*
X1025500D02*X1022000D01*
X1027500Y92000D02*X1026500Y91000D01*
Y90500D01*
X1022000Y92500D02*Y89500D01*
G54D193*X1044937Y47102D02*X1045331D01*
X1022496Y47890D02*X1022890D01*
X1020921Y47102D02*X1021315D01*
X1043362Y47890D02*X1043756D01*
X1047693Y47496D02*X1047299Y47102D01*
X1044937D01*
G54D189*X1087993Y47587D02*Y47193D01*
X1055709Y28295D02*X1094686D01*
Y47587D02*X1062796D01*
X1055709Y40500D02*Y28295D01*
Y40500D02*X1062796Y47587D01*
X1094686D02*Y28295D01*
X1089174Y47193D02*X1093898Y42469D01*
Y41287D02*X1094686Y42075D01*
X1087993Y47193D02*X1094686Y40500D01*
X982819Y72224D02*Y62382D01*
G54D193*X1046906Y44346D02*X1043362Y47890D01*
X1043756D02*X1047299Y44346D01*
X1046118Y46709D02*X1047693D01*
X1047299D01*
X1046512Y45921D01*
X1047693D01*
Y44740D02*Y47496D01*
X1045331Y47102D02*X1047693Y44740D01*
X1046118Y46315D01*
Y46709D01*
G54D189*X1017772Y47890D02*Y30567D01*
G54D193*X1018559Y47496D02*X1018953Y47102D01*
X1018559Y46709D02*X1018953D01*
X1017772Y44346D02*X1019346D01*
X1018953D02*X1018559Y44740D01*
Y47496D02*Y44740D01*
Y46709D02*X1020134D01*
X1018953D02*X1019740Y45921D01*
X1018559D02*X1019740D01*
X1020921Y47102D02*X1018559Y44740D01*
X1020134Y46315D01*
Y46709D02*Y46315D01*
X1019346Y44346D02*X1022890Y47890D01*
X1022496D02*X1018953Y44346D01*
Y47102D02*X1021315D01*
G54D189*X1048480Y47890D02*Y30567D01*
G54D193*Y44346D02*X1046906D01*
X1047299D02*X1047693Y44740D01*
G54D189*X1048480Y47890D02*X1017772D01*
X1048480Y30567D02*X1017772D01*
G54D190*X973500Y89500D02*X1027500D01*
Y93000D01*
X1041500Y91000D02*X1042500Y92000D01*
X1045000Y89500D02*X1041500D01*
Y91000D01*
X1061000Y89500D02*Y91000D01*
X1065500D02*Y90500D01*
X1061000Y89500D02*X1061500Y90000D01*
X1062000Y89500D01*
X1064500D02*X1061000D01*
X1091000D02*X1091500Y90000D01*
X1091000Y89500D02*Y91000D01*
X1096500Y93000D02*X1041500D01*
X1095500Y90500D02*X1042500D01*
X1091000Y91000D02*X1092000Y92000D01*
X1066500D02*X1065500Y91000D01*
X1061000D02*X1062000Y92000D01*
X1095500Y91000D02*Y90500D01*
X1091000Y92500D02*Y89500D01*
X1091500Y90000D02*X1092000Y89500D01*
X1094500D02*X1091000D01*
X1066500D02*Y93000D01*
X1061000Y92500D02*Y89500D01*
X1096500D02*Y93000D01*
X1042500Y92000D02*X1096500D01*
X1095500Y91000D01*
X1012500Y89500D02*X1066500D01*
Y93000D02*X1011500D01*
X1012500Y92000D02*X1066500D01*
X1065500Y90500D02*X1012500D01*
X1041500Y92500D02*Y89500D01*
X1042000Y90000D01*
X1042500Y89500D01*
G54D189*X985709Y103224D02*X1084134D01*
X985709D02*Y93382D01*
X995551Y103224D02*Y93382D01*
G54D190*X1042500Y89500D02*X1096500D01*
G54D189*X1084134Y103224D02*Y93382D01*
X550000Y125500D02*G75*G02X536000Y139500I0J14000D01*G01*
G75*G02X550000Y153500I14000J0D01*G01*
X536000Y65500D02*G75*G02X550000Y79500I14000J0D01*G01*
G54D188*X646500Y35500D02*G75*G03X644500Y33500I0J-2000D01*G01*
X632500Y37500D02*G75*G03X628500Y33500I0J-4000D01*G01*
X632500Y37500D02*G75*G02X636500Y33500I0J-4000D01*G01*
X642500D02*G75*G03X646500Y29500I4000J0D01*G01*
Y37500D02*G75*G03X642500Y33500I0J-4000D01*G01*
X644500D02*G75*G03X646500Y31500I2000J0D01*G01*
X628500Y33500D02*G75*G03X632500Y29500I4000J0D01*G01*
X636500Y33500D02*G75*G02X632500Y29500I-4000J0D01*G01*
G54D189*X564000Y139500D02*G75*G02X550000Y125500I-14000J0D01*G01*
Y153500D02*G75*G02X564000Y139500I0J-14000D01*G01*
X550000Y79500D02*G75*G02X564000Y65500I0J-14000D01*G01*
G54D188*X646500Y31500D02*G75*G03X648500Y33500I0J2000D01*G01*
G54D195*X645500D02*G75*G02X646500Y32500I0J-1000D01*G01*
G75*G02X647500Y33500I1000J0D01*G01*
G75*G02X646500Y34500I0J1000D01*G01*
G54D188*X662500Y33500D02*G75*G02X658500Y29500I-4000J0D01*G01*
X654500Y33500D02*G75*G03X658500Y29500I4000J0D01*G01*
Y37500D02*G75*G03X654500Y33500I0J-4000D01*G01*
X658500Y37500D02*G75*G02X662500Y33500I0J-4000D01*G01*
X648500D02*G75*G03X646500Y35500I-2000J0D01*G01*
G54D189*X51500Y65500D02*G75*G02X37500Y51500I-14000J0D01*G01*
G75*G02X23500Y65500I0J14000D01*G01*
G75*G02X37500Y79500I14000J0D01*G01*
G75*G02X51500Y65500I0J-14000D01*G01*
X125000Y69100D02*G75*G03X125000Y82900I0J6900D01*G01*
G75*G03X125000Y69100I0J-6900D01*G01*
G75*G03X125000Y82900I0J6900D01*G01*
X564000Y65500D02*G75*G02X550000Y51500I-14000J0D01*G01*
G75*G02X536000Y65500I0J14000D01*G01*
X1076500Y139500D02*G75*G02X1062500Y125500I-14000J0D01*G01*
X1076500Y65500D02*G75*G02X1062500Y51500I-14000J0D01*G01*
Y79500D02*G75*G02X1076500Y65500I0J-14000D01*G01*
G54D194*X921500Y38500D02*G75*G02X928500Y31500I0J-7000D01*G01*
X914500D02*G75*G02X921500Y38500I7000J0D01*G01*
Y24500D02*G75*G03X928500Y31500I0J7000D01*G01*
X914500D02*G75*G03X921500Y24500I7000J0D01*G01*
G54D189*X1062500Y125500D02*G75*G02X1048500Y139500I0J14000D01*G01*
X1062500Y51500D02*G75*G02X1048500Y65500I0J14000D01*G01*
G75*G02X1062500Y79500I14000J0D01*G01*
X907500Y179500D02*G75*G03X912500Y179500I2500J0D01*G01*
X51500Y139500D02*G75*G02X37500Y125500I-14000J0D01*G01*
G75*G02X23500Y139500I0J14000D01*G01*
G75*G02X37500Y153500I14000J0D01*G01*
G75*G02X51500Y139500I0J-14000D01*G01*
G54D196*X121510Y169213D02*G75*G03X122010Y169213I250J0D01*G01*
G75*G03X121510Y169213I-250J0D01*G01*
G54D189*X480500Y180000D02*G75*G03X485500Y180000I2500J0D01*G01*
X1048500Y139500D02*G75*G02X1062500Y153500I14000J0D01*G01*
G54D190*X318600Y142400D02*G75*G03X365600Y142400I23500J0D01*G01*
G75*G03X318600Y142400I-23500J0D01*G01*
G54D189*X1062500Y153500D02*G75*G02X1076500Y139500I0J-14000D01*G01*
G54D197*X3500Y177500D02*X9900D01*
X3500D02*Y173844D01*
Y171924D02*X9900D01*
Y167962D01*
X6852Y171924D02*Y169487D01*
X3500Y171924D02*Y167962D01*
Y166042D02*X9900D01*
Y162082D01*
X6852Y166042D02*Y163606D01*
X3500Y158030D02*X9900D01*
Y160162D02*Y155897D01*
G54D194*X69237Y157360D02*X67500Y152800D01*
X69237Y157360D02*X70975Y152800D01*
X68152Y154320D02*X70324D01*
X72776Y157360D02*X75164D01*
X73861Y155623D01*
X74513D01*
X74946Y155407D01*
X75164Y155189D01*
X75382Y154537D01*
Y154104D01*
X75164Y153452D01*
X74731Y153018D01*
X74079Y152800D01*
X73428D02*X74079D01*
X73428D02*X72776Y153018D01*
X72559Y153235D01*
X72343Y153669D01*
X55000Y111123D02*X55513Y111379D01*
X56285Y112150D01*
Y106750D01*
X22741Y169941D02*Y166021D01*
Y169941D02*X24421D01*
X24980Y169754D01*
X25167Y169568D01*
X25354Y169194D01*
Y168821D01*
X25167Y168447D01*
X24980Y168261D01*
X24421Y168074D01*
X22741D02*X24421D01*
X24047D02*X25354Y166021D01*
X29142Y169941D02*X27275Y166021D01*
X26530Y169941D02*X29142D01*
G54D198*X32552Y101520D02*X31973Y102099D01*
X31105Y102389D01*
X29947D02*X31105D01*
X29947D02*X29078Y102099D01*
X28500Y101520D01*
Y100942D01*
X28787Y100361D01*
X29078Y100073D01*
X29658Y99784D01*
X31396Y99205D01*
X31973Y98914D01*
X32262Y98625D01*
X32552Y98046D01*
Y97177D01*
X31973Y96599D01*
X31105Y96309D01*
X29947D02*X31105D01*
X29947D02*X29078Y96599D01*
X28500Y97177D01*
X34376Y99349D02*X38176D01*
X44053Y102389D02*X41157Y96309D01*
X40000Y102389D02*X44053D01*
G54D194*X66500Y107360D02*X68236Y102800D01*
X69975Y107360D02*X68236Y102800D01*
X71343Y107360D02*X72483D01*
X71913D02*Y102800D01*
X71343D02*X72483D01*
X73851Y107360D02*Y102800D01*
Y107360D02*X76890Y102800D01*
Y107360D02*Y102800D01*
X69237Y147360D02*X67500Y142800D01*
X69237Y147360D02*X70975Y142800D01*
X68152Y144320D02*X70324D01*
X72559Y146492D02*Y146275D01*
Y146492D02*X72777Y146926D01*
X72993Y147143D01*
X73428Y147360D01*
X74296D01*
X74731Y147143D01*
X74948Y146926D01*
X75164Y146492D01*
Y146057D01*
X74948Y145623D01*
X74513Y144972D01*
X72343Y142800D01*
X75382D01*
X50737Y128860D02*X49000Y124300D01*
X50737Y128860D02*X52475Y124300D01*
X49652Y125820D02*X51824D01*
X55146Y128860D02*X54495Y128643D01*
X54059Y127992D01*
X53843Y126907D01*
Y126255D01*
X54059Y125169D01*
X54495Y124518D01*
X55146Y124300D01*
X55580D01*
X56231Y124518D01*
X56665Y125169D01*
X56883Y126255D01*
Y126907D02*Y126255D01*
Y126907D02*X56665Y127992D01*
X56231Y128643D01*
X55580Y128860D01*
X55146D02*X55580D01*
X60817D02*X58251Y124300D01*
X62185Y128860D02*Y124300D01*
Y128860D02*X65008D01*
X62185Y126688D02*X63921D01*
X62185Y124300D02*X65008D01*
X67678Y128860D02*X67245Y128642D01*
X66809Y128208D01*
X66592Y127775D01*
X66376Y127123D01*
Y126037D01*
X66592Y125384D01*
Y125385D02*X66809Y124951D01*
X67245Y124518D01*
X67678Y124300D01*
X68548D01*
X68981Y124518D01*
X69415Y124951D01*
X69633Y125385D01*
X69848Y126037D01*
Y127123D02*Y126037D01*
Y127123D02*X69633Y127775D01*
X69415Y128208D01*
X68981Y128642D01*
X68548Y128860D01*
X67678D02*X68548D01*
X71216D02*Y124300D01*
X73821D01*
X75189Y128860D02*Y124300D01*
Y128860D02*X77143D01*
X77794Y128642D01*
X78012Y128426D01*
X78228Y127991D01*
Y127557D01*
X78012Y127123D01*
X77794Y126906D01*
X77143Y126688D01*
X75189D02*X77143D01*
X76709D02*X78228Y124300D01*
X9564Y93490D02*X10077Y93746D01*
X10849Y94517D01*
Y89117D01*
X6040Y185500D02*X3500Y183499D01*
X6040Y181500D01*
X7240Y184738D02*Y184548D01*
Y184738D02*X7431Y185119D01*
X7620Y185309D01*
X8002Y185500D01*
X8763D01*
X9145Y185309D01*
X9335Y185119D01*
X9525Y184738D01*
Y184357D01*
X9335Y183977D01*
X9145Y183786D01*
X8383Y183405D01*
Y182834D01*
Y181882D02*X8192Y181691D01*
X8383Y181500D01*
X8572Y181691D01*
X8383Y181882D01*
X10725Y185500D02*X13265Y183499D01*
X10725Y181500D01*
X22721Y184971D02*Y181171D01*
Y184971D02*X24349D01*
X24892Y184790D01*
X25073Y184609D01*
X25254Y184247D01*
Y183885D01*
X25073Y183523D01*
X24892Y183343D01*
X24349Y183161D01*
X22721D02*X24349D01*
X23987D02*X25254Y181171D01*
X27298Y184971D02*X26755Y184790D01*
X26574Y184429D01*
Y184067D01*
X26755Y183705D01*
X27117Y183523D01*
X27841Y183344D01*
X28384Y183162D01*
X28745Y182800D01*
X28926Y182438D01*
Y181895D01*
X28745Y181534D01*
X28564Y181352D01*
X28021Y181171D01*
X27298D02*X28021D01*
X27298D02*X26755Y181352D01*
X26574Y181534D01*
X26394Y181895D01*
Y182438D02*Y181895D01*
Y182438D02*X26574Y182800D01*
X26935Y183162D01*
X27479Y183344D01*
X28203Y183523D01*
X28564Y183705D01*
X28745Y184067D01*
Y184429D02*Y184067D01*
Y184429D02*X28564Y184790D01*
X28021Y184971D01*
X27298D02*X28021D01*
X9905Y77172D02*Y74124D01*
X9715Y73552D01*
X9524Y73363D01*
X9143Y73172D01*
X8763D02*X9143D01*
X8763D02*X8381Y73363D01*
X8191Y73552D01*
X8000Y74124D01*
Y74505D02*Y74124D01*
X13771Y77172D02*X11866Y73172D01*
X11105Y77172D02*X13771D01*
X16495D02*X14971Y73172D01*
X16495Y77172D02*X18019Y73172D01*
X15543Y74505D02*X17448D01*
G54D199*X5574Y115820D02*Y110699D01*
X5255Y109738D01*
X4934Y109421D01*
X4294Y109100D01*
X3656D02*X4294D01*
X3656D02*X3014Y109421D01*
X2695Y109738D01*
X2374Y110699D01*
Y111339D02*Y110699D01*
X7910Y114542D02*Y114221D01*
Y114542D02*X8230Y115180D01*
X8548Y115501D01*
X9190Y115820D01*
X10468D01*
X11110Y115501D01*
X11429Y115180D01*
X11748Y114542D01*
Y113900D01*
X11429Y113260D01*
X10789Y112300D01*
X7590Y109100D01*
X12069D01*
X18885Y114221D02*X18564Y114859D01*
X17924Y115499D01*
X17286Y115820D01*
X16004D02*X17286D01*
X16004D02*X15365Y115499D01*
X14724Y114859D01*
X14404Y114221D01*
X14085Y113260D01*
Y111659D01*
X14404Y110699D01*
X14724Y110059D01*
X15365Y109421D01*
X16004Y109100D01*
X17286D01*
X17924Y109421D01*
X18564Y110059D01*
X18885Y110699D01*
G54D194*X65500Y57360D02*Y52800D01*
Y57360D02*X67454D01*
X68105Y57142D01*
X68323Y56926D01*
X68539Y56491D01*
Y56057D01*
X68323Y55623D01*
X68105Y55406D01*
X67454Y55188D01*
X65500D02*X67454D01*
X67020D02*X68539Y52800D01*
X72946Y56708D02*X72512Y57142D01*
X71861Y57360D01*
X70993D02*X71861D01*
X70993D02*X70340Y57142D01*
X69907Y56708D01*
Y56275D01*
X70123Y55839D01*
X70340Y55623D01*
X70776Y55406D01*
X72079Y54972D01*
X72512Y54754D01*
X72729Y54537D01*
X72946Y54103D01*
Y53451D01*
X72512Y53018D01*
X71861Y52800D01*
X70993D02*X71861D01*
X70993D02*X70340Y53018D01*
X69907Y53451D01*
X75834Y57360D02*Y52800D01*
X74314Y57360D02*X77354D01*
X69257Y86275D02*X69039Y86708D01*
X68606Y87142D01*
X68172Y87360D01*
X67303D02*X68172D01*
X67303D02*X66869Y87142D01*
X66434Y86708D01*
X66218Y86275D01*
X66000Y85623D01*
Y84536D01*
X66218Y83885D01*
X66434Y83451D01*
X66869Y83018D01*
X67303Y82800D01*
X68172D01*
X68606Y83018D01*
X69039Y83451D01*
X69257Y83885D01*
Y84536D02*Y83885D01*
X68172Y84536D02*X69257D01*
X70625Y87360D02*Y82800D01*
Y87360D02*X73664Y82800D01*
Y87360D02*Y82800D01*
X75032Y87360D02*Y82800D01*
Y87360D02*X76553D01*
X77204Y87142D01*
X77638Y86708D01*
X77855Y86275D01*
X78071Y85623D01*
Y84536D01*
X77855Y83885D01*
X77638Y83451D01*
X77204Y83018D01*
X76553Y82800D01*
X75032D02*X76553D01*
X68757Y96275D02*X68539Y96708D01*
X68106Y97142D01*
X67672Y97360D01*
X66803D02*X67672D01*
X66803D02*X66369Y97142D01*
X65934Y96708D01*
X65718Y96275D01*
X65500Y95623D01*
Y94536D01*
X65718Y93885D01*
X65934Y93451D01*
X66369Y93018D01*
X66803Y92800D01*
X67672D01*
X68106Y93018D01*
X68539Y93451D01*
X68757Y93885D01*
Y94536D02*Y93885D01*
X67672Y94536D02*X68757D01*
X70125Y97360D02*Y92800D01*
Y97360D02*X73164Y92800D01*
Y97360D02*Y92800D01*
X74532Y97360D02*Y92800D01*
Y97360D02*X76053D01*
X76704Y97142D01*
X77138Y96708D01*
X77355Y96275D01*
X77571Y95623D01*
Y94536D01*
X77355Y93885D01*
X77138Y93451D01*
X76704Y93018D01*
X76053Y92800D01*
X74532D02*X76053D01*
X69433Y67360D02*X71822D01*
X70518Y65623D01*
X71171D01*
X71604Y65407D01*
X71822Y65189D01*
X72039Y64537D01*
Y64104D01*
X71822Y63452D01*
X71388Y63018D01*
X70736Y62800D01*
X70085D02*X70736D01*
X70085D02*X69433Y63018D01*
X69217Y63235D01*
X69000Y63669D01*
X73407Y67360D02*X75143Y62800D01*
X76882Y67360D02*X75143Y62800D01*
X69434Y77360D02*X71606D01*
X69434D02*X69217Y75407D01*
X69434Y75623D01*
X70085Y75840D01*
X70737D01*
X71388Y75623D01*
X71823Y75189D01*
X72040Y74537D01*
Y74104D01*
X71823Y73452D01*
X71388Y73018D01*
X70737Y72800D01*
X70085D02*X70737D01*
X70085D02*X69434Y73018D01*
X69217Y73235D01*
X69000Y73669D01*
X73408Y77360D02*X75145Y72800D01*
X76883Y77360D02*X75145Y72800D01*
X124693Y95492D02*X124144Y96041D01*
X123322Y96316D01*
X122225D02*X123322D01*
X122225D02*X121401Y96041D01*
X120854Y95492D01*
Y94945D01*
X121126Y94395D01*
X121401Y94121D01*
X121951Y93848D01*
X123597Y93299D01*
X124144Y93024D01*
X124418Y92751D01*
X124693Y92202D01*
Y91378D01*
X124144Y90831D01*
X123322Y90556D01*
X122225D02*X123322D01*
X122225D02*X121401Y90831D01*
X120854Y91378D01*
X126421Y95220D02*X126968Y95494D01*
X127792Y96316D01*
Y90556D01*
G54D200*X113000Y53180D02*Y45900D01*
Y53180D02*X116119D01*
X117159Y52832D01*
X117506Y52487D01*
X117852Y51793D01*
Y51100D01*
X117506Y50406D01*
X117159Y50061D01*
X116119Y49713D01*
X113000D02*X116119D01*
X115426D02*X117852Y45900D01*
X120036Y48677D02*X124193D01*
Y49369D02*Y48677D01*
Y49369D02*X123847Y50062D01*
X123501Y50410D01*
X122808Y50754D01*
X121769D02*X122808D01*
X121769D02*X121074Y50410D01*
X120380Y49717D01*
X120036Y48677D01*
Y47982D01*
X120380Y46943D01*
X121074Y46249D01*
X121769Y45902D01*
X122808D01*
X123501Y46249D01*
X124193Y46943D01*
X130188Y49717D02*X129842Y50408D01*
X128801Y50754D01*
X127762D02*X128801D01*
X127762D02*X126721Y50408D01*
X126377Y49717D01*
X126721Y49021D01*
X127414Y48674D01*
X129149Y48328D01*
X129842Y47982D01*
X130188Y47289D01*
Y46941D01*
X129842Y46249D01*
X128801Y45902D01*
X127762D02*X128801D01*
X127762D02*X126721Y46249D01*
X126377Y46941D01*
X132372Y48677D02*X136529D01*
Y49369D02*Y48677D01*
Y49369D02*X136183Y50062D01*
X135837Y50410D01*
X135144Y50754D01*
X134105D02*X135144D01*
X134105D02*X133410Y50410D01*
X132716Y49717D01*
X132372Y48677D01*
Y47982D01*
X132716Y46943D01*
X133410Y46249D01*
X134105Y45902D01*
X135144D01*
X135837Y46249D01*
X136529Y46943D01*
X139754Y53180D02*Y47287D01*
X140098Y46248D01*
X140793Y45900D01*
X141487D01*
X138713Y50754D02*X141139D01*
G54D194*X145040Y96000D02*X142500Y93999D01*
X145040Y92000D01*
X146240Y95238D02*Y95048D01*
Y95238D02*X146431Y95619D01*
X146620Y95809D01*
X147002Y96000D01*
X147763D01*
X148145Y95809D01*
X148335Y95619D01*
X148525Y95238D01*
Y94857D01*
X148335Y94477D01*
X148145Y94286D01*
X147383Y93905D01*
Y93334D01*
Y92382D02*X147192Y92191D01*
X147383Y92000D01*
X147572Y92191D01*
X147383Y92382D01*
X149725Y96000D02*X152265Y93999D01*
X149725Y92000D01*
X60040Y53500D02*X57500Y51499D01*
X60040Y49500D01*
X61240Y52738D02*Y52548D01*
Y52738D02*X61431Y53119D01*
X61620Y53309D01*
X62002Y53500D01*
X62763D01*
X63145Y53309D01*
X63335Y53119D01*
X63525Y52738D01*
Y52357D01*
X63335Y51977D01*
X63145Y51786D01*
X62383Y51405D01*
Y50834D01*
Y49882D02*X62192Y49691D01*
X62383Y49500D01*
X62572Y49691D01*
X62383Y49882D01*
X64725Y53500D02*X67265Y51499D01*
X64725Y49500D01*
X63237Y117360D02*X61500Y112800D01*
X63237Y117360D02*X64975Y112800D01*
X62152Y114320D02*X64324D01*
X66343Y117360D02*Y112800D01*
Y117360D02*X68297D01*
X68948Y117142D01*
X69165Y116926D01*
X69382Y116491D01*
Y116057D01*
X69165Y115623D01*
X68948Y115406D01*
X68297Y115188D01*
X66343D02*X68297D01*
X67862D02*X69382Y112800D01*
X70750Y117360D02*Y112800D01*
Y117360D02*X73573D01*
X70750Y115188D02*X72486D01*
X70750Y112800D02*X73573D01*
X74941Y117360D02*Y112800D01*
Y117360D02*X77762D01*
X74941Y115188D02*X76677D01*
X139639Y115598D02*X139452Y115970D01*
X139078Y116344D01*
X138706Y116531D01*
X137958D02*X138706D01*
X137958D02*X137586Y116344D01*
X137211Y115970D01*
X137025Y115598D01*
X136839Y115037D01*
Y114104D01*
X137025Y113544D01*
X137211Y113171D01*
X137586Y112798D01*
X137958Y112611D01*
X138706D01*
X139078Y112798D01*
X139452Y113171D01*
X139639Y113544D01*
X140815Y115785D02*X141187Y115971D01*
X141748Y116531D01*
Y112611D01*
X135481Y127024D02*X135294Y127396D01*
X134920Y127770D01*
X134548Y127957D01*
X133800D02*X134548D01*
X133800D02*X133428Y127770D01*
X133053Y127396D01*
X132867Y127024D01*
X132681Y126463D01*
Y125530D01*
X132867Y124970D01*
X133053Y124597D01*
X133428Y124224D01*
X133800Y124037D01*
X134548D01*
X134920Y124224D01*
X135294Y124597D01*
X135481Y124970D01*
X136843Y127211D02*Y127024D01*
Y127211D02*X137030Y127584D01*
X137215Y127771D01*
X137590Y127957D01*
X138336D01*
X138710Y127771D01*
X138896Y127584D01*
X139082Y127211D01*
Y126837D01*
X138896Y126463D01*
X138523Y125904D01*
X136657Y124037D01*
X139270D01*
X55237Y176360D02*X53500Y171800D01*
X55237Y176360D02*X56975Y171800D01*
X54152Y173320D02*X56324D01*
X58777Y176360D02*X60949D01*
X58777D02*X58559Y174407D01*
X58777Y174623D01*
X59428Y174840D01*
X60080D01*
X60731Y174623D01*
X61165Y174189D01*
X61383Y173537D01*
Y173104D01*
X61165Y172452D01*
X60731Y172018D01*
X60080Y171800D01*
X59428D02*X60080D01*
X59428D02*X58777Y172018D01*
X58559Y172235D01*
X58343Y172669D01*
X65317Y176360D02*X62751Y171800D01*
X69724Y175708D02*X69290Y176142D01*
X68639Y176360D01*
X67771D02*X68639D01*
X67771D02*X67118Y176142D01*
X66685Y175708D01*
Y175275D01*
X66901Y174839D01*
X67118Y174623D01*
X67554Y174406D01*
X68857Y173972D01*
X69290Y173754D01*
X69507Y173537D01*
X69724Y173103D01*
Y172451D01*
X69290Y172018D01*
X68639Y171800D01*
X67771D02*X68639D01*
X67771D02*X67118Y172018D01*
X66685Y172451D01*
X74349Y175275D02*X74132Y175708D01*
X73697Y176142D01*
X73264Y176360D01*
X72394D02*X73264D01*
X72394D02*X71961Y176142D01*
X71526Y175708D01*
X71309Y175275D01*
X71092Y174623D01*
Y173536D01*
X71309Y172885D01*
X71526Y172451D01*
X71961Y172018D01*
X72394Y171800D01*
X73264D01*
X73697Y172018D01*
X74132Y172451D01*
X74349Y172885D01*
X75717Y176360D02*Y171800D01*
X78322D01*
X131780Y179734D02*X131403Y179545D01*
X131025Y179168D01*
X130837Y178792D01*
X130649Y178225D01*
Y177283D01*
X130837Y176716D01*
X131025Y176339D01*
X131403Y175963D01*
X131780Y175774D01*
X132535D01*
X132911Y175963D01*
X133288Y176339D01*
X133477Y176716D01*
X133666Y177283D01*
Y178225D02*Y177283D01*
Y178225D02*X133477Y178792D01*
X133288Y179168D01*
X132911Y179545D01*
X132535Y179734D01*
X131780D02*X132535D01*
X132346Y176528D02*X133477Y175397D01*
X134854Y178981D02*X135230Y179169D01*
X135796Y179734D01*
Y175774D01*
X54237Y167360D02*X52500Y162800D01*
X54237Y167360D02*X55975Y162800D01*
X53152Y164320D02*X55324D01*
X59513Y167360D02*X57343Y164321D01*
X60599D01*
X59513Y167360D02*Y162800D01*
X64533Y167360D02*X61967Y162800D01*
X68940Y166708D02*X68506Y167142D01*
X67855Y167360D01*
X66986D02*X67855D01*
X66986D02*X66334Y167142D01*
X65901Y166708D01*
Y166275D01*
X66116Y165839D01*
X66334Y165623D01*
X66769Y165406D01*
X68072Y164972D01*
X68506Y164754D01*
X68722Y164537D01*
X68940Y164103D01*
Y163451D01*
X68506Y163018D01*
X67855Y162800D01*
X66986D02*X67855D01*
X66986D02*X66334Y163018D01*
X65901Y163451D01*
X70308Y167360D02*Y162800D01*
Y167360D02*X71829D01*
X72480Y167142D01*
X72914Y166708D01*
X73131Y166275D01*
X73347Y165623D01*
Y164536D01*
X73131Y163885D01*
X72914Y163451D01*
X72480Y163018D01*
X71829Y162800D01*
X70308D02*X71829D01*
X76453Y167360D02*X74715Y162800D01*
X76453Y167360D02*X78190Y162800D01*
X75367Y164320D02*X77539D01*
X106789Y161701D02*X111629D01*
X106789Y163775D02*Y161701D01*
Y163775D02*X107020Y164466D01*
X107250Y164697D01*
X107711Y164927D01*
X108172D01*
X108633Y164697D01*
X108863Y164466D01*
X109094Y163775D01*
Y161701D01*
Y163314D02*X111629Y164927D01*
X106789Y168683D02*X110015Y166379D01*
Y169835D02*Y166379D01*
X106789Y168683D02*X111629D01*
X128559Y148221D02*X132479D01*
X128559Y149901D02*Y148221D01*
Y149901D02*X128746Y150460D01*
X128932Y150647D01*
X129306Y150834D01*
X129679D01*
X130053Y150647D01*
X130239Y150460D01*
X130426Y149901D01*
Y148221D01*
Y149527D02*X132479Y150834D01*
X129305Y152010D02*X129119Y152382D01*
X128559Y152943D01*
X132479D01*
X145040Y168500D02*X142500Y166499D01*
X145040Y164500D01*
X146240Y167738D02*Y167548D01*
Y167738D02*X146431Y168119D01*
X146620Y168309D01*
X147002Y168500D01*
X147763D01*
X148145Y168309D01*
X148335Y168119D01*
X148525Y167738D01*
Y167357D01*
X148335Y166977D01*
X148145Y166786D01*
X147383Y166405D01*
Y165834D01*
Y164882D02*X147192Y164691D01*
X147383Y164500D01*
X147572Y164691D01*
X147383Y164882D01*
X149725Y168500D02*X152265Y166499D01*
X149725Y164500D01*
X53722Y136870D02*X52000Y132350D01*
X53722Y136870D02*X55444Y132350D01*
X52646Y133856D02*X54799D01*
X56800Y136010D02*X57230Y136225D01*
X57876Y136870D01*
Y132350D01*
X61776Y136870D02*X59232Y132350D01*
X63132Y136870D02*Y132350D01*
Y136870D02*X65930D01*
X63132Y134717D02*X64853D01*
X63132Y132350D02*X65930D01*
X68576Y136870D02*X68147Y136654D01*
X67715Y136224D01*
X67500Y135794D01*
X67286Y135148D01*
Y134072D01*
X67500Y133425D01*
Y133426D02*X67715Y132995D01*
X68147Y132566D01*
X68576Y132350D01*
X69438D01*
X69868Y132566D01*
X70298Y132995D01*
X70514Y133426D01*
X70728Y134072D01*
Y135148D02*Y134072D01*
Y135148D02*X70514Y135794D01*
X70298Y136224D01*
X69868Y136654D01*
X69438Y136870D01*
X68576D02*X69438D01*
X72084D02*Y132350D01*
X74666D01*
X76022Y136870D02*Y132350D01*
X78604D01*
X173000Y177360D02*Y172800D01*
Y177360D02*X174521D01*
X175172Y177142D01*
X175606Y176708D01*
X175823Y176275D01*
X176039Y175623D01*
Y174536D01*
X175823Y173885D01*
X175606Y173451D01*
X175172Y173018D01*
X174521Y172800D01*
X173000D02*X174521D01*
X178710Y177360D02*X178059Y177143D01*
X177624Y176492D01*
X177407Y175407D01*
Y174755D01*
X177624Y173669D01*
X178059Y173018D01*
X178710Y172800D01*
X179145D01*
X179796Y173018D01*
X180230Y173669D01*
X180448Y174755D01*
Y175407D02*Y174755D01*
Y175407D02*X180230Y176492D01*
X179796Y177143D01*
X179145Y177360D01*
X178710D02*X179145D01*
X173000Y167360D02*Y162800D01*
Y167360D02*X174521D01*
X175172Y167142D01*
X175606Y166708D01*
X175823Y166275D01*
X176039Y165623D01*
Y164536D01*
X175823Y163885D01*
X175606Y163451D01*
X175172Y163018D01*
X174521Y162800D01*
X173000D02*X174521D01*
X177407Y166492D02*X177840Y166709D01*
X178493Y167360D01*
Y162800D01*
X173000Y157360D02*Y152800D01*
Y157360D02*X174521D01*
X175172Y157142D01*
X175606Y156708D01*
X175823Y156275D01*
X176039Y155623D01*
Y154536D01*
X175823Y153885D01*
X175606Y153451D01*
X175172Y153018D01*
X174521Y152800D01*
X173000D02*X174521D01*
X177624Y156492D02*Y156275D01*
Y156492D02*X177842Y156926D01*
X178057Y157143D01*
X178493Y157360D01*
X179360D01*
X179796Y157143D01*
X180012Y156926D01*
X180229Y156492D01*
Y156057D01*
X180012Y155623D01*
X179578Y154972D01*
X177407Y152800D01*
X180446D01*
X184381Y157360D02*X181814Y152800D01*
X185749Y157360D02*Y152800D01*
Y157360D02*X188571D01*
X185749Y155188D02*X187485D01*
X185749Y152800D02*X188571D01*
X189939Y157360D02*Y152800D01*
Y157360D02*X192979Y152800D01*
Y157360D02*Y152800D01*
X197604Y156275D02*X197386Y156708D01*
X196951Y157142D01*
X196518Y157360D01*
X195648D02*X196518D01*
X195648D02*X195215Y157142D01*
X194780Y156708D01*
X194563Y156275D01*
X194347Y155623D01*
Y154536D01*
X194563Y153885D01*
X194780Y153451D01*
X195215Y153018D01*
X195648Y152800D01*
X196518D01*
X196951Y153018D01*
X197386Y153451D01*
X197604Y153885D01*
X200709Y157360D02*X198972Y152800D01*
X200709Y157360D02*X202446Y152800D01*
X199624Y154320D02*X201795D01*
X173000Y147360D02*Y142800D01*
Y147360D02*X174521D01*
X175172Y147142D01*
X175606Y146708D01*
X175823Y146275D01*
X176039Y145623D01*
Y144536D01*
X175823Y143885D01*
X175606Y143451D01*
X175172Y143018D01*
X174521Y142800D01*
X173000D02*X174521D01*
X177840Y147360D02*X180229D01*
X178926Y145623D01*
X179578D01*
X180011Y145407D01*
X180229Y145189D01*
X180446Y144537D01*
Y144104D01*
X180229Y143452D01*
X179796Y143018D01*
X179143Y142800D01*
X178493D02*X179143D01*
X178493D02*X177840Y143018D01*
X177624Y143235D01*
X177407Y143669D01*
X184381Y147360D02*X181814Y142800D01*
X185749Y147360D02*Y142800D01*
Y147360D02*X188571D01*
X185749Y145188D02*X187485D01*
X185749Y142800D02*X188571D01*
X189939Y147360D02*Y142800D01*
Y147360D02*X192979Y142800D01*
Y147360D02*Y142800D01*
X197604Y146275D02*X197386Y146708D01*
X196951Y147142D01*
X196518Y147360D01*
X195648D02*X196518D01*
X195648D02*X195215Y147142D01*
X194780Y146708D01*
X194563Y146275D01*
X194347Y145623D01*
Y144536D01*
X194563Y143885D01*
X194780Y143451D01*
X195215Y143018D01*
X195648Y142800D01*
X196518D01*
X196951Y143018D01*
X197386Y143451D01*
X197604Y143885D01*
X198972Y147360D02*Y142800D01*
Y147360D02*X200925D01*
X201576Y147142D01*
X201794Y146926D01*
X202011Y146490D01*
Y146057D01*
X201794Y145623D01*
X201576Y145405D01*
X200925Y145188D01*
X198972D02*X200925D01*
X201576Y144972D01*
X201794Y144754D01*
X202011Y144320D01*
Y143669D01*
X201794Y143233D01*
X201576Y143018D01*
X200925Y142800D01*
X198972D02*X200925D01*
X173000Y137360D02*Y132800D01*
Y137360D02*X174521D01*
X175172Y137142D01*
X175606Y136708D01*
X175823Y136275D01*
X176039Y135623D01*
Y134536D01*
X175823Y133885D01*
X175606Y133451D01*
X175172Y133018D01*
X174521Y132800D01*
X173000D02*X174521D01*
X179578Y137360D02*X177407Y134321D01*
X180663D01*
X179578Y137360D02*Y132800D01*
X184597Y137360D02*X182031Y132800D01*
X185965Y137360D02*Y132800D01*
Y137360D02*X188788D01*
X185965Y135188D02*X187701D01*
X185965Y132800D02*X188788D01*
X190156Y137360D02*Y132800D01*
Y137360D02*X193195Y132800D01*
Y137360D02*Y132800D01*
X197820Y136275D02*X197602Y136708D01*
X197168Y137142D01*
X196735Y137360D01*
X195865D02*X196735D01*
X195865D02*X195432Y137142D01*
X194996Y136708D01*
X194780Y136275D01*
X194563Y135623D01*
Y134536D01*
X194780Y133885D01*
X194996Y133451D01*
X195432Y133018D01*
X195865Y132800D01*
X196735D01*
X197168Y133018D01*
X197602Y133451D01*
X197820Y133885D01*
X202445Y136275D02*X202227Y136708D01*
X201793Y137142D01*
X201360Y137360D01*
X200490D02*X201360D01*
X200490D02*X200057Y137142D01*
X199621Y136708D01*
X199405Y136275D01*
X199188Y135623D01*
Y134536D01*
X199405Y133885D01*
X199621Y133451D01*
X200057Y133018D01*
X200490Y132800D01*
X201360D01*
X201793Y133018D01*
X202227Y133451D01*
X202445Y133885D01*
X289792Y165539D02*X289358Y165105D01*
X289140Y164454D01*
Y163585D01*
X289358Y162933D01*
X289792Y162500D01*
X290225D01*
X290661Y162715D01*
X290877Y162933D01*
X291094Y163369D01*
X291528Y164672D01*
X291746Y165105D01*
X291963Y165322D01*
X292397Y165539D01*
X293049D01*
X293482Y165105D01*
X293700Y164454D01*
Y163585D01*
X293482Y162933D01*
X293049Y162500D01*
X289140Y166907D02*X293700D01*
X289140Y168428D02*Y166907D01*
Y168428D02*X289358Y169079D01*
X289792Y169513D01*
X290225Y169730D01*
X290877Y169946D01*
X291964D01*
X292615Y169730D01*
X293049Y169513D01*
X293482Y169079D01*
X293700Y168428D01*
Y166907D01*
X289140Y173052D02*X293700Y171314D01*
X289140Y173052D02*X293700Y174789D01*
X292180Y174138D02*Y171967D01*
X270225Y166257D02*X269792Y166039D01*
X269358Y165606D01*
X269140Y165172D01*
Y164303D01*
X269358Y163869D01*
X269792Y163434D01*
X270225Y163218D01*
X270877Y163000D01*
X271964D01*
X272615Y163218D01*
X273049Y163434D01*
X273482Y163869D01*
X273700Y164303D01*
Y165172D02*Y164303D01*
Y165172D02*X273482Y165606D01*
X273049Y166039D01*
X272615Y166257D01*
X271964D02*X272615D01*
X271964D02*Y165172D01*
X269140Y167625D02*X273700D01*
X269140D02*X273700Y170664D01*
X269140D02*X273700D01*
X269140Y172032D02*X273700D01*
X269140Y173553D02*Y172032D01*
Y173553D02*X269358Y174204D01*
X269792Y174638D01*
X270225Y174855D01*
X270877Y175071D01*
X271964D01*
X272615Y174855D01*
X273049Y174638D01*
X273482Y174204D01*
X273700Y173553D01*
Y172032D01*
X275500Y143123D02*X276013Y143379D01*
X276785Y144150D01*
Y138750D01*
X277243Y127060D02*Y122671D01*
X276970Y121847D01*
X276695Y121575D01*
X276146Y121300D01*
X275599D02*X276146D01*
X275599D02*X275049Y121575D01*
X274775Y121847D01*
X274500Y122671D01*
Y123220D02*Y122671D01*
X279518Y127060D02*X282535D01*
X280889Y124865D01*
X281713D01*
X282260Y124593D01*
X282535Y124318D01*
X282810Y123495D01*
Y122947D01*
X282535Y122124D01*
X281988Y121575D01*
X281164Y121300D01*
X280342D02*X281164D01*
X280342D02*X279518Y121575D01*
X279245Y121850D01*
X278971Y122397D01*
X284538Y127060D02*Y121300D01*
Y127060D02*X287006D01*
X287829Y126785D01*
X288104Y126511D01*
X288377Y125961D01*
Y125414D01*
X288104Y124865D01*
X287829Y124590D01*
X287006Y124317D01*
X284538D02*X287006D01*
X287829Y124043D01*
X288104Y123768D01*
X288377Y123220D01*
Y122397D01*
X288104Y121847D01*
X287829Y121575D01*
X287006Y121300D01*
X284538D02*X287006D01*
X257540Y189500D02*X255000Y187499D01*
X257540Y185500D01*
X258740Y188738D02*Y188548D01*
Y188738D02*X258931Y189119D01*
X259120Y189309D01*
X259502Y189500D01*
X260263D01*
X260645Y189309D01*
X260835Y189119D01*
X261025Y188738D01*
Y188357D01*
X260835Y187977D01*
X260645Y187786D01*
X259883Y187405D01*
Y186834D01*
Y185882D02*X259692Y185691D01*
X259883Y185500D01*
X260072Y185691D01*
X259883Y185882D01*
X262225Y189500D02*X264765Y187499D01*
X262225Y185500D01*
X260377Y104821D02*Y100219D01*
X260090Y99355D01*
X259801Y99069D01*
X259226Y98781D01*
X258652D02*X259226D01*
X258652D02*X258075Y99069D01*
X257788Y99355D01*
X257500Y100219D01*
Y100794D02*Y100219D01*
X262762Y104821D02*X265926D01*
X264200Y102520D01*
X265064D01*
X265637Y102234D01*
X265926Y101946D01*
X266214Y101082D01*
Y100508D01*
X265926Y99645D01*
X265352Y99069D01*
X264488Y98781D01*
X263626D02*X264488D01*
X263626D02*X262762Y99069D01*
X262475Y99358D01*
X262189Y99932D01*
X272340Y103383D02*X272052Y103957D01*
X271477Y104533D01*
X270903Y104821D01*
X269751D02*X270903D01*
X269751D02*X269177Y104533D01*
X268600Y103957D01*
X268313Y103383D01*
X268026Y102520D01*
Y101081D01*
X268313Y100219D01*
X268600Y99643D01*
X269177Y99069D01*
X269751Y98781D01*
X270903D01*
X271477Y99069D01*
X272052Y99643D01*
X272340Y100219D01*
X173000Y127360D02*Y122800D01*
Y127360D02*X174521D01*
X175172Y127142D01*
X175606Y126708D01*
X175823Y126275D01*
X176039Y125623D01*
Y124536D01*
X175823Y123885D01*
X175606Y123451D01*
X175172Y123018D01*
X174521Y122800D01*
X173000D02*X174521D01*
X177842Y127360D02*X180013D01*
X177842D02*X177624Y125407D01*
X177842Y125623D01*
X178493Y125840D01*
X179145D01*
X179796Y125623D01*
X180230Y125189D01*
X180448Y124537D01*
Y124104D01*
X180230Y123452D01*
X179796Y123018D01*
X179145Y122800D01*
X178493D02*X179145D01*
X178493D02*X177842Y123018D01*
X177624Y123235D01*
X177407Y123669D01*
X184382Y127360D02*X181816Y122800D01*
X185750Y127360D02*Y122800D01*
X188355D01*
X189723Y127360D02*Y122800D01*
Y127360D02*X192545D01*
X189723Y125188D02*X191459D01*
X189723Y122800D02*X192545D01*
X193913Y127360D02*Y122800D01*
Y127360D02*X195434D01*
X196085Y127142D01*
X196519Y126708D01*
X196736Y126275D01*
X196953Y125623D01*
Y124536D01*
X196736Y123885D01*
X196519Y123451D01*
X196085Y123018D01*
X195434Y122800D01*
X193913D02*X195434D01*
X198755Y127360D02*X200927D01*
X198755D02*X198537Y125407D01*
X198755Y125623D01*
X199406Y125840D01*
X200058D01*
X200709Y125623D01*
X201143Y125189D01*
X201361Y124537D01*
Y124104D01*
X201143Y123452D01*
X200709Y123018D01*
X200058Y122800D01*
X199406D02*X200058D01*
X199406D02*X198755Y123018D01*
X198537Y123235D01*
X198321Y123669D01*
X173000Y117360D02*Y112800D01*
Y117360D02*X174521D01*
X175172Y117142D01*
X175606Y116708D01*
X175823Y116275D01*
X176039Y115623D01*
Y114536D01*
X175823Y113885D01*
X175606Y113451D01*
X175172Y113018D01*
X174521Y112800D01*
X173000D02*X174521D01*
X180012Y116709D02*X179796Y117143D01*
X179143Y117360D01*
X178710D02*X179143D01*
X178710D02*X178057Y117143D01*
X177624Y116492D01*
X177407Y115407D01*
Y114321D01*
X177624Y113452D01*
X178057Y113018D01*
X178710Y112800D01*
X178927D01*
X179578Y113018D01*
X180012Y113452D01*
X180229Y114104D01*
Y114321D02*Y114104D01*
Y114321D02*X180012Y114972D01*
X179578Y115407D01*
X178927Y115623D01*
X178710D02*X178927D01*
X178710D02*X178057Y115407D01*
X177624Y114972D01*
X177407Y114321D01*
X184163Y117360D02*X181597Y112800D01*
X185531Y117360D02*Y112800D01*
X188136D01*
X189504Y117360D02*Y112800D01*
Y117360D02*X192326D01*
X189504Y115188D02*X191240D01*
X189504Y112800D02*X192326D01*
X193694Y117360D02*Y112800D01*
Y117360D02*X195215D01*
X195866Y117142D01*
X196300Y116708D01*
X196517Y116275D01*
X196734Y115623D01*
Y114536D01*
X196517Y113885D01*
X196300Y113451D01*
X195866Y113018D01*
X195215Y112800D01*
X193694D02*X195215D01*
X200707Y116709D02*X200490Y117143D01*
X199838Y117360D01*
X199405D02*X199838D01*
X199405D02*X198751Y117143D01*
X198318Y116492D01*
X198102Y115407D01*
Y114321D01*
X198318Y113452D01*
X198751Y113018D01*
X199405Y112800D01*
X199621D01*
X200272Y113018D01*
X200707Y113452D01*
X200923Y114104D01*
Y114321D02*Y114104D01*
Y114321D02*X200707Y114972D01*
X200272Y115407D01*
X199621Y115623D01*
X199405D02*X199621D01*
X199405D02*X198751Y115407D01*
X198318Y114972D01*
X198102Y114321D01*
X258500Y115123D02*X259013Y115379D01*
X259785Y116150D01*
Y110750D01*
X173000Y107360D02*Y102800D01*
Y107360D02*X174521D01*
X175172Y107142D01*
X175606Y106708D01*
X175823Y106275D01*
X176039Y105623D01*
Y104536D01*
X175823Y103885D01*
X175606Y103451D01*
X175172Y103018D01*
X174521Y102800D01*
X173000D02*X174521D01*
X180446Y107360D02*X178275Y102800D01*
X177407Y107360D02*X180446D01*
X173000Y77360D02*Y72800D01*
Y77360D02*X174521D01*
X175172Y77142D01*
X175606Y76708D01*
X175823Y76275D01*
X176039Y75623D01*
Y74536D01*
X175823Y73885D01*
X175606Y73451D01*
X175172Y73018D01*
X174521Y72800D01*
X173000D02*X174521D01*
X177407Y76492D02*X177840Y76709D01*
X178493Y77360D01*
Y72800D01*
X181164Y77360D02*X180513Y77143D01*
X180077Y76492D01*
X179861Y75407D01*
Y74755D01*
X180077Y73669D01*
X180513Y73018D01*
X181164Y72800D01*
X181598D01*
X182249Y73018D01*
X182683Y73669D01*
X182901Y74755D01*
Y75407D02*Y74755D01*
Y75407D02*X182683Y76492D01*
X182249Y77143D01*
X181598Y77360D01*
X181164D02*X181598D01*
X173000Y67360D02*Y62800D01*
Y67360D02*X174521D01*
X175172Y67142D01*
X175606Y66708D01*
X175823Y66275D01*
X176039Y65623D01*
Y64536D01*
X175823Y63885D01*
X175606Y63451D01*
X175172Y63018D01*
X174521Y62800D01*
X173000D02*X174521D01*
X177407Y66492D02*X177840Y66709D01*
X178493Y67360D01*
Y62800D01*
X179861Y66492D02*X180294Y66709D01*
X180946Y67360D01*
Y62800D01*
X173000Y57360D02*Y52800D01*
Y57360D02*X174521D01*
X175172Y57142D01*
X175606Y56708D01*
X175823Y56275D01*
X176039Y55623D01*
Y54536D01*
X175823Y53885D01*
X175606Y53451D01*
X175172Y53018D01*
X174521Y52800D01*
X173000D02*X174521D01*
X177407Y56492D02*X177840Y56709D01*
X178493Y57360D01*
Y52800D01*
X180077Y56492D02*Y56275D01*
Y56492D02*X180295Y56926D01*
X180510Y57143D01*
X180946Y57360D01*
X181813D01*
X182249Y57143D01*
X182465Y56926D01*
X182682Y56492D01*
Y56057D01*
X182465Y55623D01*
X182031Y54972D01*
X179861Y52800D01*
X182900D01*
X173000Y97360D02*Y92800D01*
Y97360D02*X174521D01*
X175172Y97142D01*
X175606Y96708D01*
X175823Y96275D01*
X176039Y95623D01*
Y94536D01*
X175823Y93885D01*
X175606Y93451D01*
X175172Y93018D01*
X174521Y92800D01*
X173000D02*X174521D01*
X178493Y97360D02*X177840Y97143D01*
X177624Y96709D01*
Y96275D01*
X177840Y95840D01*
X178275Y95623D01*
X179143Y95407D01*
X179796Y95189D01*
X180229Y94755D01*
X180446Y94321D01*
Y93669D01*
X180229Y93235D01*
X180011Y93018D01*
X179360Y92800D01*
X178493D02*X179360D01*
X178493D02*X177840Y93018D01*
X177624Y93235D01*
X177407Y93669D01*
Y94321D02*Y93669D01*
Y94321D02*X177624Y94755D01*
X178057Y95189D01*
X178709Y95407D01*
X179578Y95623D01*
X180011Y95840D01*
X180229Y96275D01*
Y96709D02*Y96275D01*
Y96709D02*X180011Y97143D01*
X179360Y97360D01*
X178493D02*X179360D01*
X173000Y87360D02*Y82800D01*
Y87360D02*X174521D01*
X175172Y87142D01*
X175606Y86708D01*
X175823Y86275D01*
X176039Y85623D01*
Y84536D01*
X175823Y83885D01*
X175606Y83451D01*
X175172Y83018D01*
X174521Y82800D01*
X173000D02*X174521D01*
X180229Y85840D02*X180012Y85189D01*
X179578Y84755D01*
X178926Y84537D01*
X178709D02*X178926D01*
X178709D02*X178058Y84755D01*
X177623Y85189D01*
X177407Y85840D01*
Y86057D02*Y85840D01*
Y86057D02*X177623Y86709D01*
X178058Y87143D01*
X178709Y87360D01*
X178926D01*
X179578Y87143D01*
X180012Y86709D01*
X180229Y85840D01*
Y84755D01*
X180012Y83669D01*
X179578Y83018D01*
X178926Y82800D01*
X178493D02*X178926D01*
X178493D02*X177840Y83018D01*
X177623Y83452D01*
X184163Y87360D02*X181597Y82800D01*
X185531Y87360D02*Y82800D01*
Y87360D02*X187485D01*
X188136Y87142D01*
X188354Y86926D01*
X188570Y86490D01*
Y86057D01*
X188354Y85623D01*
X188136Y85405D01*
X187485Y85188D01*
X185531D02*X187485D01*
X188136Y84972D01*
X188354Y84754D01*
X188570Y84320D01*
Y83669D01*
X188354Y83233D01*
X188136Y83018D01*
X187485Y82800D01*
X185531D02*X187485D01*
X189938Y87360D02*Y84103D01*
X190156Y83451D01*
X190589Y83018D01*
X191241Y82800D01*
X191674D01*
X192326Y83018D01*
X192761Y83451D01*
X192977Y84103D01*
Y87360D02*Y84103D01*
X197385Y87360D02*X194345Y82800D01*
Y87360D02*X197385D01*
X194345Y82800D02*X197385D01*
X201792Y87360D02*X198753Y82800D01*
Y87360D02*X201792D01*
X198753Y82800D02*X201792D01*
X203160Y87360D02*Y82800D01*
Y87360D02*X205983D01*
X203160Y85188D02*X204896D01*
X203160Y82800D02*X205983D01*
X207351Y87360D02*Y82800D01*
Y87360D02*X209304D01*
X209955Y87142D01*
X210173Y86926D01*
X210390Y86491D01*
Y86057D01*
X210173Y85623D01*
X209955Y85406D01*
X209304Y85188D01*
X207351D02*X209304D01*
X208870D02*X210390Y82800D01*
X193743Y58060D02*Y53671D01*
X193470Y52847D01*
X193195Y52575D01*
X192646Y52300D01*
X192099D02*X192646D01*
X192099D02*X191549Y52575D01*
X191275Y52847D01*
X191000Y53671D01*
Y54220D02*Y53671D01*
X198213Y58060D02*X195471Y54221D01*
X199584D01*
X198213Y58060D02*Y52300D01*
X201312Y58060D02*Y52300D01*
Y58060D02*X203780D01*
X204602Y57785D01*
X204877Y57511D01*
X205151Y56961D01*
Y56414D01*
X204877Y55865D01*
X204602Y55590D01*
X203780Y55317D01*
X201312D02*X203780D01*
X204602Y55043D01*
X204877Y54768D01*
X205151Y54220D01*
Y53397D01*
X204877Y52847D01*
X204602Y52575D01*
X203780Y52300D01*
X201312D02*X203780D01*
X208377Y80490D02*Y75888D01*
X208090Y75024D01*
X207801Y74738D01*
X207226Y74450D01*
X206652D02*X207226D01*
X206652D02*X206075Y74738D01*
X205788Y75024D01*
X205500Y75888D01*
Y76463D02*Y75888D01*
X213064Y80490D02*X210189Y76464D01*
X214501D01*
X213064Y80490D02*Y74450D01*
X220627Y79052D02*X220339Y79626D01*
X219763Y80202D01*
X219190Y80490D01*
X218038D02*X219190D01*
X218038D02*X217464Y80202D01*
X216887Y79626D01*
X216600Y79052D01*
X216313Y78189D01*
Y76750D01*
X216600Y75888D01*
X216887Y75312D01*
X217464Y74738D01*
X218038Y74450D01*
X219190D01*
X219763Y74738D01*
X220339Y75312D01*
X220627Y75888D01*
G54D201*X319500Y196500D02*X320635Y195931D01*
X321205Y195368D01*
X321771Y194229D01*
Y193094D01*
X321205Y191961D01*
X320635Y191392D01*
X320069Y190257D01*
Y189124D01*
X321205Y187986D01*
X320635Y195931D02*X321205Y194798D01*
Y193663D01*
X320635Y192531D01*
X320069Y191961D01*
X319500Y190823D01*
Y189691D01*
X320069Y188555D01*
X322337Y187417D01*
X320069Y186285D01*
X319500Y185149D01*
Y184017D01*
X320069Y182878D01*
X320635Y182312D01*
X321205Y181177D01*
Y180041D01*
X320635Y178906D01*
X321205Y186854D02*X320069Y185715D01*
Y184580D01*
X320635Y183448D01*
X321205Y182878D01*
X321771Y181743D01*
Y180611D01*
X321205Y179472D01*
X320635Y178906D01*
X319500Y178340D01*
G54D194*X279292Y166539D02*X278858Y166105D01*
X278640Y165454D01*
Y164585D01*
X278858Y163933D01*
X279292Y163500D01*
X279725D01*
X280161Y163715D01*
X280377Y163933D01*
X280594Y164369D01*
X281028Y165672D01*
X281246Y166105D01*
X281463Y166322D01*
X281897Y166539D01*
X282549D01*
X282982Y166105D01*
X283200Y165454D01*
Y164585D01*
X282982Y163933D01*
X282549Y163500D01*
X279725Y171164D02*X279292Y170946D01*
X278858Y170512D01*
X278640Y170079D01*
Y169209D01*
X278858Y168776D01*
X279292Y168340D01*
X279725Y168124D01*
X280377Y167907D01*
X281464D01*
X282115Y168124D01*
X282549Y168340D01*
X282982Y168776D01*
X283200Y169209D01*
Y170079D02*Y169209D01*
Y170079D02*X282982Y170512D01*
X282549Y170946D01*
X282115Y171164D01*
X278640Y172532D02*X283200D01*
Y175137D02*Y172532D01*
X311165Y196000D02*Y192952D01*
X310975Y192380D01*
X310784Y192191D01*
X310403Y192000D01*
X310023D02*X310403D01*
X310023D02*X309641Y192191D01*
X309451Y192380D01*
X309260Y192952D01*
Y193333D02*Y192952D01*
X313317Y196000D02*X312745Y195810D01*
X312555Y195429D01*
Y195048D01*
X312745Y194667D01*
X313126Y194476D01*
X313888Y194287D01*
X314460Y194096D01*
X314840Y193715D01*
X315031Y193334D01*
Y192762D01*
X314840Y192382D01*
X314649Y192191D01*
X314078Y192000D01*
X313317D02*X314078D01*
X313317D02*X312745Y192191D01*
X312555Y192382D01*
X312365Y192762D01*
Y193334D02*Y192762D01*
Y193334D02*X312555Y193715D01*
X312935Y194096D01*
X313507Y194287D01*
X314269Y194476D01*
X314649Y194667D01*
X314840Y195048D01*
Y195429D02*Y195048D01*
Y195429D02*X314649Y195810D01*
X314078Y196000D01*
X313317D02*X314078D01*
X311665Y183500D02*Y180452D01*
X311475Y179880D01*
X311284Y179691D01*
X310903Y179500D01*
X310523D02*X310903D01*
X310523D02*X310141Y179691D01*
X309951Y179880D01*
X309760Y180452D01*
Y180833D02*Y180452D01*
X315340Y182167D02*X315150Y181596D01*
X314769Y181215D01*
X314197Y181024D01*
X314007D02*X314197D01*
X314007D02*X313436Y181215D01*
X313054Y181596D01*
X312865Y182167D01*
Y182357D02*Y182167D01*
Y182357D02*X313054Y182929D01*
X313436Y183310D01*
X314007Y183500D01*
X314197D01*
X314769Y183310D01*
X315150Y182929D01*
X315340Y182167D01*
Y181215D01*
X315150Y180262D01*
X314769Y179691D01*
X314197Y179500D01*
X313817D02*X314197D01*
X313817D02*X313245Y179691D01*
X313054Y180072D01*
X365452Y175743D02*Y171943D01*
Y175743D02*X367080D01*
X367623Y175562D01*
X367804Y175381D01*
X367985Y175019D01*
Y174657D01*
X367804Y174295D01*
X367623Y174115D01*
X367080Y173933D01*
X365452D02*X367080D01*
X366718D02*X367985Y171943D01*
X369125Y175743D02*Y171943D01*
Y175743D02*X371657Y171943D01*
Y175743D02*Y171943D01*
X373158Y175743D02*X375149D01*
X374063Y174295D01*
X374606D01*
X374967Y174116D01*
X375149Y173934D01*
X375330Y173391D01*
Y173030D01*
X375149Y172486D01*
X374788Y172124D01*
X374244Y171943D01*
X373702D02*X374244D01*
X373702D02*X373158Y172124D01*
X372978Y172306D01*
X372797Y172667D01*
X325000Y190660D02*X326340D01*
X325670D02*Y185300D01*
X325000D02*X326340D01*
X328203Y189640D02*Y189384D01*
Y189640D02*X328459Y190149D01*
X328712Y190405D01*
X329224Y190660D01*
X330243D01*
X330755Y190405D01*
X331010Y190149D01*
X331265Y189640D01*
Y189128D01*
X331010Y188618D01*
X330499Y187853D01*
X327948Y185300D01*
X331520D01*
X336957Y189384D02*X336701Y189894D01*
X336190Y190404D01*
X335681Y190660D01*
X334659D02*X335681D01*
X334659D02*X334150Y190404D01*
X333638Y189894D01*
X333383Y189384D01*
X333128Y188618D01*
Y187341D01*
X333383Y186576D01*
X333638Y186065D01*
X334150Y185556D01*
X334659Y185300D01*
X335681D01*
X336190Y185556D01*
X336701Y186065D01*
X336957Y186576D01*
X340977Y190660D02*Y185300D01*
Y190660D02*X343274D01*
X344039Y190404D01*
X344295Y190149D01*
X344549Y189638D01*
Y189128D01*
X344295Y188618D01*
X344039Y188362D01*
X343274Y188107D01*
X340977D02*X343274D01*
X344039Y187853D01*
X344295Y187597D01*
X344549Y187086D01*
Y186321D01*
X344295Y185809D01*
X344039Y185556D01*
X343274Y185300D01*
X340977D02*X343274D01*
X346157Y188874D02*Y185301D01*
Y187342D02*X346412Y188110D01*
X346924Y188619D01*
X347433Y188874D01*
X348199D01*
X349807Y187345D02*X352868D01*
Y187854D02*Y187345D01*
Y187854D02*X352613Y188365D01*
X352359Y188621D01*
X351848Y188874D01*
X351083D02*X351848D01*
X351083D02*X350571Y188621D01*
X350061Y188110D01*
X349807Y187345D01*
Y186833D01*
X350061Y186068D01*
X350571Y185557D01*
X351083Y185301D01*
X351848D01*
X352359Y185557D01*
X352868Y186068D01*
X357539Y188874D02*Y185301D01*
Y188110D02*X357027Y188621D01*
X356518Y188874D01*
X355752D02*X356518D01*
X355752D02*X355242Y188621D01*
X354731Y188110D01*
X354476Y187345D01*
Y186833D01*
X354731Y186068D01*
X355242Y185557D01*
X355752Y185301D01*
X356518D01*
X357027Y185557D01*
X357539Y186068D01*
X359147Y190660D02*Y185300D01*
X361699Y188874D02*X359147Y186321D01*
X360167Y187344D02*X361955Y185300D01*
X364838Y188874D02*X364326Y188621D01*
X363816Y188110D01*
X363563Y187345D01*
Y186833D01*
X363816Y186068D01*
X364326Y185557D01*
X364838Y185301D01*
X365603D01*
X366114Y185557D01*
X366623Y186068D01*
X366879Y186833D01*
Y187345D02*Y186833D01*
Y187345D02*X366623Y188110D01*
X366114Y188621D01*
X365603Y188874D01*
X364838D02*X365603D01*
X368487D02*Y186322D01*
X368742Y185557D01*
X369254Y185301D01*
X370019D01*
X370529Y185557D01*
X371294Y186322D01*
Y188874D02*Y185301D01*
X373669Y190660D02*Y186321D01*
X373922Y185556D01*
X374434Y185300D01*
X374945D01*
X372902Y188874D02*X374689D01*
X379358Y188110D02*X379104Y188619D01*
X378337Y188874D01*
X377572D02*X378337D01*
X377572D02*X376806Y188619D01*
X376553Y188110D01*
X376806Y187598D01*
X377316Y187342D01*
X378593Y187088D01*
X379104Y186833D01*
X379358Y186322D01*
Y186066D01*
X379104Y185557D01*
X378337Y185301D01*
X377572D02*X378337D01*
X377572D02*X376806Y185557D01*
X376553Y186066D01*
X381540Y131500D02*X379000Y129499D01*
X381540Y127500D01*
X382740Y130738D02*Y130548D01*
Y130738D02*X382931Y131119D01*
X383120Y131309D01*
X383502Y131500D01*
X384263D01*
X384645Y131309D01*
X384835Y131119D01*
X385025Y130738D01*
Y130357D01*
X384835Y129977D01*
X384645Y129786D01*
X383883Y129405D01*
Y128834D01*
Y127882D02*X383692Y127691D01*
X383883Y127500D01*
X384072Y127691D01*
X383883Y127882D01*
X386225Y131500D02*X388765Y129499D01*
X386225Y127500D01*
X365696Y164059D02*X365505Y164439D01*
X365124Y164820D01*
X364744Y165011D01*
X363981D02*X364744D01*
X363981D02*X363601Y164820D01*
X363219Y164439D01*
X363029Y164059D01*
X362839Y163487D01*
Y162534D01*
X363029Y161963D01*
X363219Y161582D01*
X363601Y161202D01*
X363981Y161011D01*
X364744D01*
X365124Y161202D01*
X365505Y161582D01*
X365696Y161963D01*
X369181Y164440D02*X368991Y164821D01*
X368419Y165011D01*
X368039D02*X368419D01*
X368039D02*X367466Y164821D01*
X367086Y164250D01*
X366896Y163298D01*
Y162345D01*
X367086Y161583D01*
X367466Y161202D01*
X368039Y161011D01*
X368229D01*
X368800Y161202D01*
X369181Y161583D01*
X369371Y162155D01*
Y162345D02*Y162155D01*
Y162345D02*X369181Y162916D01*
X368800Y163298D01*
X368229Y163487D01*
X368039D02*X368229D01*
X368039D02*X367466Y163298D01*
X367086Y162916D01*
X366896Y162345D01*
X395500Y142554D02*Y138440D01*
Y142554D02*X395225Y143378D01*
X394678Y143925D01*
X393854Y144200D01*
X393307D02*X393854D01*
X393307D02*X392483Y143925D01*
X391935Y143378D01*
X391661Y142554D01*
Y138440D01*
X386369D02*X389386D01*
X386369D02*X388015Y140635D01*
X387191D02*X388015D01*
X387191D02*X386644Y140907D01*
X386369Y141182D01*
X386094Y142005D01*
Y142553D02*Y142005D01*
Y142553D02*X386369Y143376D01*
X386916Y143925D01*
X387740Y144200D01*
X388562D01*
X389386Y143925D01*
X389659Y143650D01*
X389933Y143103D01*
X481446Y132500D02*X485560D01*
X481446D02*X480622Y132225D01*
X480075Y131678D01*
X479800Y130854D01*
Y130307D01*
X480075Y129483D01*
X480622Y128935D01*
X481446Y128661D01*
X485560D01*
Y126384D02*Y123641D01*
Y126384D02*X483093Y126659D01*
X483365Y126384D01*
X483640Y125562D01*
Y124738D01*
X483365Y123916D01*
X482818Y123368D01*
X481995Y123092D01*
X481447D02*X481995D01*
X481447D02*X480624Y123368D01*
X480075Y123916D01*
X479800Y124738D01*
Y125562D02*Y124738D01*
Y125562D02*X480075Y126384D01*
X480350Y126659D01*
X480897Y126933D01*
X456540Y187500D02*X454000Y185499D01*
X456540Y183500D01*
X457740Y186738D02*Y186548D01*
Y186738D02*X457931Y187119D01*
X458120Y187309D01*
X458502Y187500D01*
X459263D01*
X459645Y187309D01*
X459835Y187119D01*
X460025Y186738D01*
Y186357D01*
X459835Y185977D01*
X459645Y185786D01*
X458883Y185405D01*
Y184834D01*
Y183882D02*X458692Y183691D01*
X458883Y183500D01*
X459072Y183691D01*
X458883Y183882D01*
X461225Y187500D02*X463765Y185499D01*
X461225Y183500D01*
G54D202*X494000Y201350D02*Y193070D01*
X488877D02*X494000D01*
X490847Y197013D02*X494000D01*
X486393Y201350D02*Y193070D01*
X482845D02*X486393D01*
X482845D02*X481663Y193465D01*
X481267Y193859D01*
X480874Y194647D01*
Y195436D02*Y194647D01*
Y195436D02*X481267Y196225D01*
X481663Y196618D01*
X482845Y197013D01*
X486393D01*
X483633D02*X480874Y201350D01*
X476026Y193070D02*X476813Y193465D01*
X477604Y194254D01*
X477997Y195041D01*
X478390Y196225D01*
Y198195D02*Y196225D01*
Y198195D02*X477997Y199381D01*
Y199379D02*X477604Y200168D01*
X476813Y200955D01*
X476026Y201350D01*
X474447D02*X476026D01*
X474447D02*X473660Y200955D01*
X472871Y200168D01*
X472476Y199379D01*
X472085Y198195D01*
Y196225D01*
X472476Y195041D01*
X472871Y194254D01*
X473660Y193465D01*
X474447Y193070D01*
X476026D01*
X469601Y201350D02*Y193070D01*
X464082Y201350D01*
Y193070D01*
X458839Y201350D02*Y193070D01*
X456080D02*X461598D01*
G54D203*X310600Y123940D02*Y117300D01*
X314393D01*
X316385Y122677D02*X317016Y122992D01*
X317965Y123940D01*
Y117300D01*
G54D194*X510540Y118000D02*X508000Y115999D01*
X510540Y114000D01*
X511740Y117238D02*Y117048D01*
Y117238D02*X511931Y117619D01*
X512120Y117809D01*
X512502Y118000D01*
X513263D01*
X513645Y117809D01*
X513835Y117619D01*
X514025Y117238D01*
Y116857D01*
X513835Y116477D01*
X513645Y116286D01*
X512883Y115905D01*
Y115334D01*
Y114382D02*X512692Y114191D01*
X512883Y114000D01*
X513072Y114191D01*
X512883Y114382D01*
X515225Y118000D02*X517765Y115999D01*
X515225Y114000D01*
X402500Y117000D02*Y113000D01*
Y117000D02*X404214D01*
X404785Y116809D01*
X404976Y116619D01*
X405166Y116238D01*
Y115857D01*
X404976Y115476D01*
X404785Y115286D01*
X404214Y115095D01*
X402500D02*X404214D01*
X403833D02*X405166Y113000D01*
X406366Y117000D02*Y113000D01*
Y117000D02*X409032Y113000D01*
Y117000D02*Y113000D01*
X412136Y117000D02*X410232Y114334D01*
X413088D01*
X412136Y117000D02*Y113000D01*
X299425Y163454D02*X303333D01*
X301379Y165408D02*Y161500D01*
X299140Y169382D02*Y167210D01*
X301093Y166993D01*
X300877Y167210D01*
X300660Y167861D01*
Y168513D02*Y167861D01*
Y168513D02*X300877Y169164D01*
X301311Y169599D01*
X301963Y169816D01*
X302396D01*
X303048Y169599D01*
X303482Y169164D01*
X303700Y168513D01*
Y167861D01*
X303482Y167210D01*
X303265Y166993D01*
X302831Y166776D01*
X299140Y171184D02*X303700Y172921D01*
X299140Y174659D02*X303700Y172921D01*
X300000Y71140D02*X300509Y71395D01*
X301276Y72160D01*
Y66800D01*
X299000Y90123D02*X299513Y90379D01*
X300285Y91150D01*
Y85750D01*
X60500Y47360D02*X62236Y42800D01*
X63975Y47360D02*X62236Y42800D01*
X65343Y47360D02*Y44103D01*
X65560Y43451D01*
X65994Y43018D01*
X66646Y42800D01*
X67079D01*
X67731Y43018D01*
X68165Y43451D01*
X68382Y44103D01*
Y47360D02*Y44103D01*
X72789Y46708D02*X72355Y47142D01*
X71704Y47360D01*
X70835D02*X71704D01*
X70835D02*X70183Y47142D01*
X69750Y46708D01*
Y46275D01*
X69965Y45839D01*
X70183Y45623D01*
X70619Y45406D01*
X71922Y44972D01*
X72355Y44754D01*
X72571Y44537D01*
X72789Y44103D01*
Y43451D01*
X72355Y43018D01*
X71704Y42800D01*
X70835D02*X71704D01*
X70835D02*X70183Y43018D01*
X69750Y43451D01*
X74157Y47360D02*Y42800D01*
Y47360D02*X76111D01*
X76762Y47142D01*
X76980Y46926D01*
X77196Y46490D01*
Y46057D01*
X76980Y45623D01*
X76762Y45405D01*
X76111Y45188D01*
X74157D02*X76111D01*
X76762Y44972D01*
X76980Y44754D01*
X77196Y44320D01*
Y43669D01*
X76980Y43233D01*
X76762Y43018D01*
X76111Y42800D01*
X74157D02*X76111D01*
X173000Y47360D02*Y42800D01*
Y47360D02*X174521D01*
X175172Y47142D01*
X175606Y46708D01*
X175823Y46275D01*
X176039Y45623D01*
Y44536D01*
X175823Y43885D01*
X175606Y43451D01*
X175172Y43018D01*
X174521Y42800D01*
X173000D02*X174521D01*
X177407Y46492D02*X177840Y46709D01*
X178493Y47360D01*
Y42800D01*
X180294Y47360D02*X182682D01*
X181379Y45623D01*
X182031D01*
X182464Y45407D01*
X182682Y45189D01*
X182900Y44537D01*
Y44104D01*
X182682Y43452D01*
X182249Y43018D01*
X181597Y42800D01*
X180946D02*X181597D01*
X180946D02*X180294Y43018D01*
X180077Y43235D01*
X179861Y43669D01*
X420307Y60070D02*Y55711D01*
X420035Y54893D01*
X419762Y54623D01*
X419217Y54350D01*
X418674D02*X419217D01*
X418674D02*X418128Y54623D01*
X417856Y54893D01*
X417583Y55711D01*
Y56256D02*Y55711D01*
X422568Y60070D02*X425292D01*
X422568D02*X422295Y57620D01*
X422568Y57891D01*
X423385Y58164D01*
X424202D01*
X425019Y57891D01*
X425564Y57347D01*
X425837Y56529D01*
Y55986D01*
X425564Y55168D01*
X425019Y54623D01*
X424202Y54350D01*
X423385D02*X424202D01*
X423385D02*X422568Y54623D01*
X422295Y54896D01*
X422023Y55440D01*
X427553Y60070D02*Y54350D01*
Y60070D02*X430004D01*
X430821Y59797D01*
X431094Y59525D01*
X431365Y58979D01*
Y58436D01*
X431094Y57891D01*
X430821Y57618D01*
X430004Y57346D01*
X427553D02*X430004D01*
X430821Y57074D01*
X431094Y56801D01*
X431365Y56256D01*
Y55440D01*
X431094Y54893D01*
X430821Y54623D01*
X430004Y54350D01*
X427553D02*X430004D01*
X418000Y69123D02*X418513Y69379D01*
X419285Y70150D01*
Y64750D01*
X411500Y95123D02*X412013Y95379D01*
X412785Y96150D01*
Y90750D01*
X382260Y48100D02*Y44100D01*
Y48100D02*X383594D01*
X384165Y47909D01*
X384546Y47528D01*
X384736Y47148D01*
X384926Y46576D01*
Y45623D01*
X384736Y45052D01*
X384546Y44671D01*
X384165Y44291D01*
X383594Y44100D01*
X382260D02*X383594D01*
X386506Y48100D02*X388601D01*
X387458Y46576D01*
X388030D01*
X388410Y46387D01*
X388601Y46196D01*
X388792Y45624D01*
Y45244D01*
X388601Y44672D01*
X388221Y44291D01*
X387649Y44100D01*
X387078D02*X387649D01*
X387078D02*X386506Y44291D01*
X386316Y44482D01*
X386126Y44862D01*
X357560Y48000D02*Y44000D01*
Y48000D02*X358894D01*
X359465Y47809D01*
X359846Y47428D01*
X360036Y47048D01*
X360226Y46476D01*
Y45523D01*
X360036Y44952D01*
X359846Y44571D01*
X359465Y44191D01*
X358894Y44000D01*
X357560D02*X358894D01*
X361616Y47239D02*Y47048D01*
Y47239D02*X361807Y47619D01*
X361996Y47810D01*
X362378Y48000D01*
X363139D01*
X363521Y47810D01*
X363711Y47619D01*
X363901Y47239D01*
Y46857D01*
X363711Y46476D01*
X363330Y45905D01*
X361426Y44000D01*
X364092D01*
X413377Y86490D02*Y81888D01*
X413090Y81024D01*
X412801Y80738D01*
X412226Y80450D01*
X411652D02*X412226D01*
X411652D02*X411075Y80738D01*
X410788Y81024D01*
X410500Y81888D01*
Y82463D02*Y81888D01*
X415764Y86490D02*X418640D01*
X415764D02*X415475Y83903D01*
X415764Y84189D01*
X416626Y84477D01*
X417490D01*
X418352Y84189D01*
X418927Y83615D01*
X419216Y82751D01*
Y82177D01*
X418927Y81314D01*
X418352Y80738D01*
X417490Y80450D01*
X416626D02*X417490D01*
X416626D02*X415764Y80738D01*
X415475Y81027D01*
X415189Y81601D01*
X425342Y85052D02*X425053Y85626D01*
X424478Y86202D01*
X423904Y86490D01*
X422752D02*X423904D01*
X422752D02*X422178Y86202D01*
X421602Y85626D01*
X421315Y85052D01*
X421028Y84189D01*
Y82750D01*
X421315Y81888D01*
X421602Y81312D01*
X422178Y80738D01*
X422752Y80450D01*
X423904D01*
X424478Y80738D01*
X425053Y81312D01*
X425342Y81888D01*
X587588Y143630D02*X585500Y138150D01*
X587588Y143630D02*X589676Y138150D01*
X586284Y139976D02*X588893D01*
X591320Y143630D02*Y138150D01*
X592964Y143630D02*Y138150D01*
X597074Y143630D02*X599160Y141020D01*
Y138150D01*
X601250Y143630D02*X599160Y141020D01*
X606025Y141804D02*Y138151D01*
Y141023D02*X605502Y141545D01*
X604981Y141804D01*
X604198D02*X604981D01*
X604198D02*X603677Y141545D01*
X603154Y141023D01*
X602894Y140241D01*
Y139717D01*
X603154Y138935D01*
X603677Y138413D01*
X604198Y138151D01*
X604981D01*
X605502Y138413D01*
X606025Y138935D01*
X607669Y141804D02*Y138151D01*
Y140238D02*X607930Y141023D01*
X608453Y141543D01*
X608974Y141804D01*
X609757D01*
X611401D02*Y138151D01*
Y140761D02*X612185Y141545D01*
X612705Y141804D01*
X613489D01*
X614010Y141545D01*
X614271Y140761D01*
Y138151D01*
X618784Y141023D02*X618524Y141543D01*
X617740Y141804D01*
X616958D02*X617740D01*
X616958D02*X616174Y141543D01*
X615915Y141023D01*
X616174Y140500D01*
X616696Y140238D01*
X618002Y139978D01*
X618524Y139717D01*
X618784Y139195D01*
Y138934D01*
X618524Y138413D01*
X617740Y138151D01*
X616958D02*X617740D01*
X616958D02*X616174Y138413D01*
X615915Y138934D01*
X624982Y143630D02*X622894Y138150D01*
X624982Y143630D02*X627070Y138150D01*
X623678Y139976D02*X626288D01*
X628714Y141804D02*Y138151D01*
Y140238D02*X628974Y141023D01*
X629498Y141543D01*
X630018Y141804D01*
X630802D01*
X632446Y140241D02*X635575D01*
Y140761D02*Y140241D01*
Y140761D02*X635315Y141283D01*
X635054Y141545D01*
X634532Y141804D01*
X633750D02*X634532D01*
X633750D02*X633227Y141545D01*
X632705Y141023D01*
X632446Y140241D01*
Y139717D01*
X632705Y138935D01*
X633227Y138413D01*
X633750Y138151D01*
X634532D01*
X635054Y138413D01*
X635575Y138935D01*
X639685Y143630D02*Y138150D01*
Y143630D02*X642033D01*
X642815Y143368D01*
X643077Y143108D01*
X643337Y142585D01*
Y142064D01*
X643077Y141542D01*
X642815Y141280D01*
X642033Y141020D01*
X639685D02*X642033D01*
X642815Y140760D01*
X643077Y140498D01*
X643337Y139976D01*
Y139194D01*
X643077Y138671D01*
X642815Y138412D01*
X642033Y138150D01*
X639685D02*X642033D01*
X644981Y140241D02*X648110D01*
Y140761D02*Y140241D01*
Y140761D02*X647850Y141283D01*
X647590Y141545D01*
X647068Y141804D01*
X646286D02*X647068D01*
X646286D02*X645762Y141545D01*
X645240Y141023D01*
X644981Y140241D01*
Y139717D01*
X645240Y138935D01*
X645762Y138413D01*
X646286Y138151D01*
X647068D01*
X647590Y138413D01*
X648110Y138935D01*
X652886Y141804D02*Y138151D01*
Y141023D02*X652363Y141545D01*
X651842Y141804D01*
X651059D02*X651842D01*
X651059D02*X650538Y141545D01*
X650015Y141023D01*
X649754Y140241D01*
Y139717D01*
X650015Y138935D01*
X650538Y138413D01*
X651059Y138151D01*
X651842D01*
X652363Y138413D01*
X652886Y138935D01*
X654530Y141804D02*Y139195D01*
X654791Y138413D01*
X655314Y138151D01*
X656096D01*
X656618Y138413D01*
X657400Y139195D01*
Y141804D02*Y138151D01*
X659828Y143630D02*Y139194D01*
X660087Y138412D01*
X660610Y138150D01*
X661132D01*
X659044Y141804D02*X660871D01*
X663037Y141816D02*Y138164D01*
X662776Y143644D02*X663037Y143382D01*
X663298Y143644D01*
X663037Y143904D01*
X662776Y143644D01*
X666508Y143630D02*X667029D01*
X666508D02*X665985Y143370D01*
X665723Y142587D01*
Y138150D01*
X664942Y141804D02*X666768D01*
X668673D02*Y139195D01*
X668933Y138413D01*
X669456Y138151D01*
X670239D01*
X670761Y138413D01*
X671543Y139195D01*
Y141804D02*Y138151D01*
X673187Y143630D02*Y138150D01*
X687161Y141804D02*X688204Y138151D01*
X689247Y141804D02*X688204Y138151D01*
X689247Y141804D02*X690293Y138151D01*
X691335Y141804D02*X690293Y138151D01*
X692979Y141804D02*X694022Y138151D01*
X695066Y141804D02*X694022Y138151D01*
X695066Y141804D02*X696111Y138151D01*
X697154Y141804D02*X696111Y138151D01*
X698798Y141804D02*X699840Y138151D01*
X700884Y141804D02*X699840Y138151D01*
X700884Y141804D02*X701930Y138151D01*
X702972Y141804D02*X701930Y138151D01*
X704876Y138561D02*X704616Y138299D01*
X704876Y138040D01*
X705137Y138299D01*
X704876Y138561D01*
X709913Y141804D02*Y138151D01*
Y141023D02*X709389Y141545D01*
X708869Y141804D01*
X708085D02*X708869D01*
X708085D02*X707564Y141545D01*
X707041Y141023D01*
X706781Y140241D01*
Y139717D01*
X707041Y138935D01*
X707564Y138413D01*
X708085Y138151D01*
X708869D01*
X709389Y138413D01*
X709913Y138935D01*
X711817Y141804D02*X713383Y138151D01*
X714949Y141804D02*X713383Y138151D01*
X712861Y137109D01*
X712340Y136585D01*
X711817Y136324D01*
X711557D02*X711817D01*
X719725Y141804D02*Y138151D01*
Y141023D02*X719201Y141545D01*
X718681Y141804D01*
X717897D02*X718681D01*
X717897D02*X717376Y141545D01*
X716853Y141023D01*
X716593Y140241D01*
Y139717D01*
X716853Y138935D01*
X717376Y138413D01*
X717897Y138151D01*
X718681D01*
X719201Y138413D01*
X719725Y138935D01*
X721369Y143630D02*Y138150D01*
Y141022D02*X721890Y141543D01*
X722411Y141804D01*
X723195D01*
X723715Y141543D01*
X724239Y141022D01*
X724500Y140239D01*
Y139717D01*
X724239Y138935D01*
X723715Y138412D01*
X723195Y138150D01*
X722411D02*X723195D01*
X722411D02*X721890Y138412D01*
X721369Y138935D01*
X726144Y140890D02*X729569D01*
X731213Y143630D02*Y138150D01*
X733822Y141804D02*X731213Y139194D01*
X732256Y140239D02*X734084Y138150D01*
X735728Y141804D02*Y138151D01*
Y140761D02*X736511Y141545D01*
X737032Y141804D01*
X737815D01*
X738336Y141545D01*
X738598Y140761D01*
Y138151D01*
X740502Y141816D02*Y138164D01*
X740242Y143644D02*X740502Y143382D01*
X740764Y143644D01*
X740502Y143904D01*
X740242Y143644D01*
X743191Y143630D02*Y139194D01*
X743450Y138412D01*
X743974Y138150D01*
X744496D01*
X742408Y141804D02*X744234D01*
X746923Y143630D02*Y139194D01*
X747182Y138412D01*
X747705Y138150D01*
X748227D01*
X746140Y141804D02*X747966D01*
X750132Y141816D02*Y138164D01*
X749871Y143644D02*X750132Y143382D01*
X750393Y143644D01*
X750132Y143904D01*
X749871Y143644D01*
X752037Y141804D02*Y138151D01*
Y140761D02*X752821Y141545D01*
X753342Y141804D01*
X754125D01*
X754646Y141545D01*
X754908Y140761D01*
Y138151D01*
X759683Y141804D02*Y137631D01*
X759422Y136847D01*
X759160Y136585D01*
X758639Y136327D01*
X757856D02*X758639D01*
X757856D02*X757335Y136585D01*
X759683Y141023D02*X759160Y141545D01*
X758639Y141804D01*
X757856D02*X758639D01*
X757856D02*X757335Y141545D01*
X756812Y141023D01*
X756552Y140241D01*
Y139717D01*
X756812Y138935D01*
X757335Y138413D01*
X757856Y138151D01*
X758639D01*
X759160Y138413D01*
X759683Y138935D01*
X761588Y138561D02*X761327Y138299D01*
X761588Y138040D01*
X761848Y138299D01*
X761588Y138561D01*
X766624Y141023D02*X766100Y141545D01*
X765580Y141804D01*
X764796D02*X765580D01*
X764796D02*X764276Y141545D01*
X763752Y141023D01*
X763492Y140241D01*
Y139717D01*
X763752Y138935D01*
X764276Y138413D01*
X764796Y138151D01*
X765580D01*
X766100Y138413D01*
X766624Y138935D01*
X769572Y141804D02*X769049Y141545D01*
X768527Y141023D01*
X768268Y140241D01*
Y139717D01*
X768527Y138935D01*
X769049Y138413D01*
X769572Y138151D01*
X770354D01*
X770876Y138413D01*
X771397Y138935D01*
X771659Y139717D01*
Y140241D02*Y139717D01*
Y140241D02*X771397Y141023D01*
X770876Y141545D01*
X770354Y141804D01*
X769572D02*X770354D01*
X773303D02*Y138151D01*
Y140761D02*X774083Y141545D01*
X774607Y141804D01*
X775389D01*
X775911Y141545D01*
X776171Y140761D01*
Y138151D01*
Y140761D02*X776955Y141545D01*
X777476Y141804D01*
X778259D01*
X778780Y141545D01*
X779041Y140761D01*
Y138151D01*
X675000Y111050D02*Y106210D01*
X673386D02*X675000D01*
X673386D02*X672695Y106441D01*
X672234Y106902D01*
X672004Y107362D01*
X671774Y108054D01*
Y109207D02*Y108054D01*
Y109207D02*X672004Y109898D01*
X672234Y110359D01*
X672695Y110819D01*
X673386Y111050D01*
X675000D01*
X670322Y107131D02*X669862Y106901D01*
X669170Y106210D01*
Y111050D02*Y106210D01*
X685040Y73500D02*X682500Y71499D01*
X685040Y69500D01*
X686240Y72738D02*Y72548D01*
Y72738D02*X686431Y73119D01*
X686620Y73309D01*
X687002Y73500D01*
X687763D01*
X688145Y73309D01*
X688335Y73119D01*
X688525Y72738D01*
Y72357D01*
X688335Y71977D01*
X688145Y71786D01*
X687383Y71405D01*
Y70834D01*
Y69882D02*X687192Y69691D01*
X687383Y69500D01*
X687572Y69691D01*
X687383Y69882D01*
X689725Y73500D02*X692265Y71499D01*
X689725Y69500D01*
X740040Y108500D02*X737500Y106499D01*
X740040Y104500D01*
X741240Y107738D02*Y107548D01*
Y107738D02*X741431Y108119D01*
X741620Y108309D01*
X742002Y108500D01*
X742763D01*
X743145Y108309D01*
X743335Y108119D01*
X743525Y107738D01*
Y107357D01*
X743335Y106977D01*
X743145Y106786D01*
X742383Y106405D01*
Y105834D01*
Y104882D02*X742192Y104691D01*
X742383Y104500D01*
X742572Y104691D01*
X742383Y104882D01*
X744725Y108500D02*X747265Y106499D01*
X744725Y104500D01*
X745000Y80623D02*X745513Y80879D01*
X746285Y81650D01*
Y76250D01*
X907500Y81623D02*X908013Y81879D01*
X908785Y82650D01*
Y77250D01*
G54D204*X782832Y86177D02*X781784Y87225D01*
X780214Y87750D01*
X778118D02*X780214D01*
X778118D02*X776545Y87225D01*
X775500Y86177D01*
Y85132D01*
X776020Y84082D01*
X776545Y83559D01*
X777596Y83036D01*
X780739Y81989D01*
X781784Y81464D01*
X782306Y80941D01*
X782832Y79893D01*
Y78320D01*
X781784Y77275D01*
X780214Y76750D01*
X778118D02*X780214D01*
X778118D02*X776545Y77275D01*
X775500Y78320D01*
X786132Y82250D02*X793007D01*
X797354Y87750D02*X802593D01*
X797354D02*X796829Y83039D01*
X797354Y83559D01*
X798925Y84084D01*
X800498D01*
X802068Y83559D01*
X803116Y82514D01*
X803641Y80941D01*
Y79896D01*
X803116Y78323D01*
X802068Y77275D01*
X800498Y76750D01*
X798925D02*X800498D01*
X798925D02*X797354Y77275D01*
X796829Y77800D01*
X796307Y78846D01*
G54D194*X823787Y144479D02*Y140365D01*
Y144479D02*X823512Y145303D01*
X822965Y145850D01*
X822141Y146125D01*
X821594D02*X822141D01*
X821594D02*X820770Y145850D01*
X820222Y145303D01*
X819948Y144479D01*
Y140365D01*
X817946Y141736D02*Y141461D01*
X817671Y140914D01*
X817399Y140639D01*
X816849Y140365D01*
X815753D02*X816849D01*
X815753D02*X815203Y140639D01*
X814930Y140914D01*
X814656Y141461D01*
Y142011D02*Y141461D01*
Y142011D02*X814930Y142560D01*
X815478Y143382D01*
X818220Y146125D01*
X814381D02*X818220D01*
X882540Y133500D02*X880000Y131499D01*
X882540Y129500D01*
X883740Y132738D02*Y132548D01*
Y132738D02*X883931Y133119D01*
X884120Y133309D01*
X884502Y133500D01*
X885263D01*
X885645Y133309D01*
X885835Y133119D01*
X886025Y132738D01*
Y132357D01*
X885835Y131977D01*
X885645Y131786D01*
X884883Y131405D01*
Y130834D01*
Y129882D02*X884692Y129691D01*
X884883Y129500D01*
X885072Y129691D01*
X884883Y129882D01*
X887225Y133500D02*X889765Y131499D01*
X887225Y129500D01*
X829602Y115807D02*Y111807D01*
Y115807D02*X831316D01*
X831887Y115616D01*
X832078Y115426D01*
X832268Y115045D01*
Y114664D01*
X832078Y114283D01*
X831887Y114093D01*
X831316Y113902D01*
X829602D02*X831316D01*
X830935D02*X832268Y111807D01*
X833468Y115807D02*Y111807D01*
Y115807D02*X836134Y111807D01*
Y115807D02*Y111807D01*
X837524Y115046D02*Y114855D01*
Y115046D02*X837715Y115426D01*
X837904Y115617D01*
X838286Y115807D01*
X839047D01*
X839429Y115617D01*
X839619Y115426D01*
X839809Y115046D01*
Y114664D01*
X839619Y114283D01*
X839238Y113712D01*
X837334Y111807D01*
X840000D01*
X793196Y156059D02*X793005Y156439D01*
X792624Y156820D01*
X792244Y157011D01*
X791481D02*X792244D01*
X791481D02*X791101Y156820D01*
X790719Y156439D01*
X790529Y156059D01*
X790339Y155487D01*
Y154534D01*
X790529Y153963D01*
X790719Y153582D01*
X791101Y153202D01*
X791481Y153011D01*
X792244D01*
X792624Y153202D01*
X793005Y153582D01*
X793196Y153963D01*
X794777Y157011D02*X796682D01*
X794777D02*X794586Y155298D01*
X794777Y155487D01*
X795348Y155678D01*
X795920D01*
X796491Y155487D01*
X796872Y155107D01*
X797063Y154535D01*
Y154155D01*
X796872Y153583D01*
X796491Y153202D01*
X795920Y153011D01*
X795348D02*X795920D01*
X795348D02*X794777Y153202D01*
X794586Y153393D01*
X794396Y153773D01*
X803752Y168307D02*Y164307D01*
Y168307D02*X805466D01*
X806037Y168116D01*
X806228Y167926D01*
X806418Y167545D01*
Y167164D01*
X806228Y166783D01*
X806037Y166593D01*
X805466Y166402D01*
X803752D02*X805466D01*
X805085D02*X806418Y164307D01*
X807618Y168307D02*Y164307D01*
Y168307D02*X810284Y164307D01*
Y168307D02*Y164307D01*
X811484Y167546D02*X811864Y167736D01*
X812436Y168307D01*
Y164307D01*
G54D197*X1087610Y128000D02*X1094050D01*
X1087610Y130760D02*Y128000D01*
Y130760D02*X1087918Y131679D01*
X1088223Y131986D01*
X1088837Y132292D01*
X1089450D01*
X1090064Y131986D01*
X1090370Y131679D01*
X1090677Y130760D01*
Y128000D01*
Y130146D02*X1094050Y132292D01*
X1087610Y135834D02*Y134224D01*
Y135029D02*X1094050D01*
Y135834D02*Y134224D01*
X1089143Y142366D02*X1088531Y142059D01*
X1087918Y141447D01*
X1087610Y140833D01*
Y139607D01*
X1087918Y138993D01*
X1088531Y138380D01*
X1089143Y138074D01*
X1090064Y137766D01*
X1091598D01*
X1092517Y138074D01*
X1093131Y138380D01*
X1093742Y138993D01*
X1094050Y139607D01*
Y140833D02*Y139607D01*
Y140833D02*X1093742Y141447D01*
X1093131Y142059D01*
X1092517Y142366D01*
X1091598D02*X1092517D01*
X1091598D02*Y140833D01*
X1087610Y144298D02*X1094050D01*
X1087610Y148592D02*X1094050D01*
X1090677D02*Y144298D01*
X1087610Y152670D02*X1094050D01*
X1087610Y154816D02*Y150524D01*
G54D205*X989000Y114235D02*X989597Y114534D01*
X990495Y115430D01*
Y109150D01*
G54D204*X1024718Y116699D02*X1023671Y117747D01*
X1022100Y118272D01*
X1020005D02*X1022100D01*
X1020005D02*X1018432Y117747D01*
X1017387Y116699D01*
Y115654D01*
X1017907Y114604D01*
X1018432Y114081D01*
X1019483Y113558D01*
X1022626Y112511D01*
X1023671Y111986D01*
X1024193Y111463D01*
X1024718Y110415D01*
Y108842D01*
X1023671Y107797D01*
X1022100Y107272D01*
X1020005D02*X1022100D01*
X1020005D02*X1018432Y107797D01*
X1017387Y108842D01*
X1028019Y112772D02*X1034894D01*
X1038716Y116179D02*Y115654D01*
Y116179D02*X1039241Y117224D01*
X1039761Y117749D01*
X1040812Y118272D01*
X1042904D01*
X1043955Y117749D01*
X1044477Y117224D01*
X1045000Y116179D01*
Y115129D01*
X1044477Y114081D01*
X1043430Y112511D01*
X1038194Y107272D01*
X1045525D01*
X585500Y199260D02*Y188300D01*
X592805Y199260D02*X585500Y191952D01*
X588108Y194561D02*X592805Y188300D01*
X596093Y195608D02*Y188303D01*
Y193522D02*X597660Y195090D01*
X598701Y195608D01*
X600269D01*
X601310Y195090D01*
X601833Y193522D01*
Y188303D01*
X605642Y195632D02*Y188327D01*
X605121Y199287D02*X605642Y198764D01*
X606165Y199287D01*
X605642Y199808D01*
X605121Y199287D01*
X611020Y199260D02*Y190388D01*
X611538Y188823D01*
X612585Y188300D01*
X613629D01*
X609453Y195608D02*X613106D01*
X618484Y199260D02*Y190388D01*
X619002Y188823D01*
X620049Y188300D01*
X621093D01*
X616917Y195608D02*X620569D01*
X624901Y195632D02*Y188327D01*
X624381Y199287D02*X624901Y198764D01*
X625425Y199287D01*
X624901Y199808D01*
X624381Y199287D01*
X628713Y195608D02*Y188303D01*
Y193522D02*X630280Y195090D01*
X631321Y195608D01*
X632888D01*
X633930Y195090D01*
X634453Y193522D01*
Y188303D01*
X644005Y195608D02*Y187262D01*
X643481Y185694D01*
X642958Y185171D01*
X641917Y184653D01*
X640349D02*X641917D01*
X640349D02*X639308Y185171D01*
X644005Y194046D02*X642958Y195090D01*
X641917Y195608D01*
X640349D02*X641917D01*
X640349D02*X639308Y195090D01*
X638262Y194046D01*
X637741Y192481D01*
Y191435D01*
X638262Y189870D01*
X639308Y188826D01*
X640349Y188303D01*
X641917D01*
X642958Y188826D01*
X644005Y189870D01*
X652225Y199260D02*Y188300D01*
Y199260D02*X656398Y188300D01*
X660576Y199260D02*X656398Y188300D01*
X660576Y199260D02*Y188300D01*
X670128Y195608D02*Y188303D01*
Y194046D02*X669081Y195090D01*
X668040Y195608D01*
X666473D02*X668040D01*
X666473D02*X665431Y195090D01*
X664385Y194046D01*
X663864Y192481D01*
Y191435D01*
X664385Y189870D01*
X665431Y188826D01*
X666473Y188303D01*
X668040D01*
X669081Y188826D01*
X670128Y189870D01*
X679679Y194046D02*X678633Y195090D01*
X677592Y195608D01*
X676024D02*X677592D01*
X676024D02*X674983Y195090D01*
X673936Y194046D01*
X673416Y192481D01*
Y191435D01*
X673936Y189870D01*
X674983Y188826D01*
X676024Y188303D01*
X677592D01*
X678633Y188826D01*
X679679Y189870D01*
X682967Y199260D02*Y188300D01*
Y193520D02*X684529Y195087D01*
X685576Y195608D01*
X687140D01*
X688184Y195087D01*
X688708Y193520D01*
Y188300D01*
X692516Y195632D02*Y188327D01*
X691996Y199287D02*X692516Y198764D01*
X693040Y199287D01*
X692516Y199808D01*
X691996Y199287D01*
X696328Y195608D02*Y188303D01*
Y193522D02*X697895Y195090D01*
X698936Y195608D01*
X700503D01*
X701545Y195090D01*
X702068Y193522D01*
Y188303D01*
X705356Y192481D02*X711614D01*
Y193522D02*Y192481D01*
Y193522D02*X711094Y194566D01*
X710573Y195090D01*
X709529Y195608D01*
X707964D02*X709529D01*
X707964D02*X706918Y195090D01*
X705874Y194046D01*
X705356Y192481D01*
Y191435D01*
X705874Y189870D01*
X706918Y188826D01*
X707964Y188303D01*
X709529D01*
X710573Y188826D01*
X711614Y189870D01*
X727662Y196652D02*X727139Y197693D01*
X726095Y198737D01*
X725054Y199260D01*
X722963D02*X725054D01*
X722963D02*X721922Y198737D01*
X720875Y197693D01*
X720355Y196652D01*
X719834Y195084D01*
Y192473D01*
X720355Y190908D01*
X720875Y189865D01*
X721922Y188823D01*
X722963Y188300D01*
X725054D01*
X726095Y188823D01*
X727139Y189865D01*
X727662Y190908D01*
X733559Y195608D02*X732512Y195090D01*
X731468Y194046D01*
X730950Y192481D01*
Y191435D01*
X731468Y189870D01*
X732512Y188826D01*
X733559Y188303D01*
X735123D01*
X736167Y188826D01*
X737208Y189870D01*
X737732Y191435D01*
Y192481D02*Y191435D01*
Y192481D02*X737208Y194046D01*
X736167Y195090D01*
X735123Y195608D01*
X733559D02*X735123D01*
X741020D02*Y188303D01*
Y193522D02*X742587Y195090D01*
X743628Y195608D01*
X745196D01*
X746237Y195090D01*
X746760Y193522D01*
Y188303D01*
X751615Y199260D02*Y190388D01*
X752133Y188823D01*
X753180Y188300D01*
X754224D01*
X750048Y195608D02*X753701D01*
X757512D02*Y188303D01*
Y192476D02*X758033Y194046D01*
X759079Y195087D01*
X760120Y195608D01*
X761688D01*
X767584D02*X766537Y195090D01*
X765494Y194046D01*
X764976Y192481D01*
Y191435D01*
X765494Y189870D01*
X766537Y188826D01*
X767584Y188303D01*
X769149D01*
X770193Y188826D01*
X771234Y189870D01*
X771757Y191435D01*
Y192481D02*Y191435D01*
Y192481D02*X771234Y194046D01*
X770193Y195090D01*
X769149Y195608D01*
X767584D02*X769149D01*
X775045Y199260D02*Y188300D01*
X783265Y199260D02*Y188300D01*
Y199260D02*X787962D01*
X789526Y198737D01*
X790049Y198216D01*
X790570Y197169D01*
Y196128D01*
X790049Y195084D01*
X789526Y194561D01*
X787962Y194040D01*
X783265D02*X787962D01*
X789526Y193520D01*
X790049Y192996D01*
X790570Y191952D01*
Y190388D01*
X790049Y189341D01*
X789526Y188823D01*
X787962Y188300D01*
X783265D02*X787962D01*
X796467Y195608D02*X795420Y195090D01*
X794376Y194046D01*
X793858Y192481D01*
Y191435D01*
X794376Y189870D01*
X795420Y188826D01*
X796467Y188303D01*
X798031D01*
X799075Y188826D01*
X800116Y189870D01*
X800640Y191435D01*
Y192481D02*Y191435D01*
Y192481D02*X800116Y194046D01*
X799075Y195090D01*
X798031Y195608D01*
X796467D02*X798031D01*
X810191D02*Y188303D01*
Y194046D02*X809145Y195090D01*
X808103Y195608D01*
X806536D02*X808103D01*
X806536D02*X805495Y195090D01*
X804448Y194046D01*
X803928Y192481D01*
Y191435D01*
X804448Y189870D01*
X805495Y188826D01*
X806536Y188303D01*
X808103D01*
X809145Y188826D01*
X810191Y189870D01*
X813479Y195608D02*Y188303D01*
Y192476D02*X814000Y194046D01*
X815047Y195087D01*
X816088Y195608D01*
X817655D01*
X827201Y199260D02*Y188300D01*
Y194043D02*X826160Y195087D01*
X825116Y195608D01*
X823551D02*X825116D01*
X823551D02*X822505Y195087D01*
X821461Y194043D01*
X820943Y192478D01*
Y191435D01*
X821461Y189870D01*
X822505Y188823D01*
X823551Y188300D01*
X825116D01*
X826160Y188823D01*
X827201Y189870D01*
X935832Y85177D02*X934784Y86225D01*
X933214Y86750D01*
X931118D02*X933214D01*
X931118D02*X929545Y86225D01*
X928500Y85177D01*
Y84132D01*
X929020Y83082D01*
X929545Y82559D01*
X930596Y82036D01*
X933739Y80989D01*
X934784Y80464D01*
X935306Y79941D01*
X935832Y78893D01*
Y77320D01*
X934784Y76275D01*
X933214Y75750D01*
X931118D02*X933214D01*
X931118D02*X929545Y76275D01*
X928500Y77320D01*
X939132Y81250D02*X946007D01*
X950352Y86750D02*X956113D01*
X952970Y82559D01*
X954543D01*
X955588Y82039D01*
X956113Y81514D01*
X956638Y79941D01*
Y78896D01*
X956113Y77323D01*
X955068Y76275D01*
X953495Y75750D01*
X951925D02*X953495D01*
X951925D02*X950352Y76275D01*
X949829Y76800D01*
X949307Y77846D01*
G54D194*X1028302Y86074D02*Y82051D01*
X1028051Y81296D01*
X1027799Y81046D01*
X1027296Y80794D01*
X1026794D02*X1027296D01*
X1026794D02*X1026290Y81046D01*
X1026039Y81296D01*
X1025787Y82051D01*
Y82554D02*Y82051D01*
X1030136Y85069D02*Y84817D01*
Y85069D02*X1030389Y85571D01*
X1030638Y85823D01*
X1031142Y86074D01*
X1032147D01*
X1032651Y85823D01*
X1032902Y85571D01*
X1033153Y85069D01*
Y84565D01*
X1032902Y84062D01*
X1032399Y83309D01*
X1029886Y80794D01*
X1033405D01*
X1037000Y86074D02*X1034989Y80794D01*
X1037000Y86074D02*X1039012Y80794D01*
X1035744Y82554D02*X1038258D01*
X714300Y57953D02*X713753Y57678D01*
X713204Y57129D01*
X712929Y56582D01*
Y55483D01*
X713204Y54936D01*
X713753Y54386D01*
X714300Y54113D01*
X715124Y53839D01*
X716496D01*
X717318Y54113D01*
X717867Y54386D01*
X718414Y54936D01*
X718689Y55483D01*
Y56582D02*Y55483D01*
Y56582D02*X718414Y57129D01*
X717867Y57678D01*
X717318Y57953D01*
X712929Y62423D02*X716768Y59681D01*
Y63794D02*Y59681D01*
X712929Y62423D02*X718689D01*
G54D203*X1082505Y57840D02*Y52780D01*
X1082190Y51831D01*
X1081873Y51517D01*
X1081240Y51200D01*
X1080610D02*X1081240D01*
X1080610D02*X1079975Y51517D01*
X1079660Y51831D01*
X1079343Y52780D01*
Y53413D02*Y52780D01*
X1088290Y56892D02*X1087975Y57525D01*
X1087025Y57840D01*
X1086395D02*X1087025D01*
X1086395D02*X1085444Y57525D01*
X1084813Y56577D01*
X1084497Y54996D01*
Y53414D01*
X1084813Y52150D01*
X1085444Y51517D01*
X1086395Y51200D01*
X1086710D01*
X1087658Y51517D01*
X1088290Y52150D01*
X1088606Y53099D01*
Y53414D02*Y53099D01*
Y53414D02*X1088290Y54362D01*
X1087658Y54996D01*
X1086710Y55310D01*
X1086395D02*X1086710D01*
X1086395D02*X1085444Y54996D01*
X1084813Y54362D01*
X1084497Y53414D01*
X1090598Y57840D02*Y51200D01*
Y57840D02*X1093443D01*
X1094391Y57523D01*
X1094708Y57208D01*
X1095023Y56573D01*
Y55943D01*
X1094708Y55310D01*
X1094391Y54993D01*
X1093443Y54678D01*
X1090598D02*X1093443D01*
X1094391Y54362D01*
X1094708Y54045D01*
X1095023Y53413D01*
Y52465D01*
X1094708Y51831D01*
X1094391Y51517D01*
X1093443Y51200D01*
X1090598D02*X1093443D01*
G54D194*X783302Y55574D02*Y51551D01*
X783051Y50796D01*
X782799Y50546D01*
X782296Y50294D01*
X781794D02*X782296D01*
X781794D02*X781290Y50546D01*
X781039Y50796D01*
X780787Y51551D01*
Y52054D02*Y51551D01*
X785389Y55574D02*X787903D01*
X785389D02*X785136Y53313D01*
X785389Y53562D01*
X786142Y53814D01*
X786897D01*
X787651Y53562D01*
X788154Y53061D01*
X788406Y52306D01*
Y51804D01*
X788154Y51049D01*
X787651Y50546D01*
X786897Y50294D01*
X786142D02*X786897D01*
X786142D02*X785389Y50546D01*
X785136Y50798D01*
X784886Y51300D01*
X792002Y55574D02*X789990Y50294D01*
X792002Y55574D02*X794013Y50294D01*
X790745Y52054D02*X793260D01*
X939377Y55990D02*Y51388D01*
X939090Y50524D01*
X938801Y50238D01*
X938226Y49950D01*
X937652D02*X938226D01*
X937652D02*X937075Y50238D01*
X936788Y50524D01*
X936500Y51388D01*
Y51963D02*Y51388D01*
X941762Y55990D02*X944926D01*
X943200Y53689D01*
X944064D01*
X944637Y53403D01*
X944926Y53115D01*
X945214Y52251D01*
Y51677D01*
X944926Y50814D01*
X944352Y50238D01*
X943488Y49950D01*
X942626D02*X943488D01*
X942626D02*X941762Y50238D01*
X941475Y50527D01*
X941189Y51101D01*
X949327Y55990D02*X947026Y49950D01*
X949327Y55990D02*X951629Y49950D01*
X947890Y51963D02*X950766D01*
G54D206*X1021024Y58650D02*Y53011D01*
X1020673Y51953D01*
X1020319Y51603D01*
X1019615Y51250D01*
X1018912D02*X1019615D01*
X1018912D02*X1018205Y51603D01*
X1017853Y51953D01*
X1017500Y53011D01*
Y53716D02*Y53011D01*
X1027472Y57594D02*X1027120Y58298D01*
X1026062Y58650D01*
X1025359D02*X1026062D01*
X1025359D02*X1024299Y58298D01*
X1023596Y57242D01*
X1023244Y55481D01*
Y53718D01*
X1023596Y52308D01*
X1024299Y51603D01*
X1025359Y51250D01*
X1025710D01*
X1026767Y51603D01*
X1027472Y52308D01*
X1027823Y53366D01*
Y53718D02*Y53366D01*
Y53718D02*X1027472Y54774D01*
X1026767Y55481D01*
X1025710Y55831D01*
X1025359D02*X1025710D01*
X1025359D02*X1024299Y55481D01*
X1023596Y54774D01*
X1023244Y53718D01*
X1035328Y56889D02*X1034975Y57592D01*
X1034270Y58297D01*
X1033567Y58650D01*
X1032156D02*X1033567D01*
X1032156D02*X1031453Y58297D01*
X1030746Y57592D01*
X1030395Y56889D01*
X1030043Y55831D01*
Y54068D01*
X1030395Y53011D01*
X1030746Y52306D01*
X1031453Y51603D01*
X1032156Y51250D01*
X1033567D01*
X1034270Y51603D01*
X1034975Y52306D01*
X1035328Y53011D01*
G54D194*X909733Y194287D02*X913847D01*
X909733D02*X908909Y194012D01*
X908362Y193465D01*
X908087Y192641D01*
Y192094D01*
X908362Y191270D01*
X908909Y190722D01*
X909733Y190448D01*
X913847D01*
Y185978D02*X910008Y188720D01*
Y184607D01*
X908087Y185978D02*X913847D01*
X1092540Y186000D02*X1090000Y183999D01*
X1092540Y182000D01*
X1093740Y185238D02*Y185048D01*
Y185238D02*X1093931Y185619D01*
X1094120Y185809D01*
X1094502Y186000D01*
X1095263D01*
X1095645Y185809D01*
X1095835Y185619D01*
X1096025Y185238D01*
Y184857D01*
X1095835Y184477D01*
X1095645Y184286D01*
X1094883Y183905D01*
Y183334D01*
Y182382D02*X1094692Y182191D01*
X1094883Y182000D01*
X1095072Y182191D01*
X1094883Y182382D01*
X1097225Y186000D02*X1099765Y183999D01*
X1097225Y182000D01*
X878040Y178500D02*X875500Y176499D01*
X878040Y174500D01*
X879240Y177738D02*Y177548D01*
Y177738D02*X879431Y178119D01*
X879620Y178309D01*
X880002Y178500D01*
X880763D01*
X881145Y178309D01*
X881335Y178119D01*
X881525Y177738D01*
Y177357D01*
X881335Y176977D01*
X881145Y176786D01*
X880383Y176405D01*
Y175834D01*
Y174882D02*X880192Y174691D01*
X880383Y174500D01*
X880572Y174691D01*
X880383Y174882D01*
X882725Y178500D02*X885265Y176499D01*
X882725Y174500D01*
G54D197*X84500Y35182D02*X85108Y35486D01*
X86023Y36400D01*
Y30000D01*
G54D194*X240701Y31941D02*Y28021D01*
Y31941D02*X242381D01*
X242940Y31754D01*
X243127Y31568D01*
X243314Y31194D01*
Y30821D01*
X243127Y30447D01*
X242940Y30261D01*
X242381Y30074D01*
X240701D02*X242381D01*
X242007D02*X243314Y28021D01*
X246729Y31381D02*X246543Y31755D01*
X245982Y31941D01*
X245610D02*X245982D01*
X245610D02*X245048Y31755D01*
X244676Y31195D01*
X244490Y30262D01*
Y29328D01*
X244676Y28582D01*
X245048Y28208D01*
X245610Y28021D01*
X245796D01*
X246356Y28208D01*
X246729Y28582D01*
X246915Y29142D01*
Y29328D02*Y29142D01*
Y29328D02*X246729Y29888D01*
X246356Y30262D01*
X245796Y30447D01*
X245610D02*X245796D01*
X245610D02*X245048Y30262D01*
X244676Y29888D01*
X244490Y29328D01*
X218701Y31941D02*Y28021D01*
Y31941D02*X220381D01*
X220940Y31754D01*
X221127Y31568D01*
X221314Y31194D01*
Y30821D01*
X221127Y30447D01*
X220940Y30261D01*
X220381Y30074D01*
X218701D02*X220381D01*
X220007D02*X221314Y28021D01*
X222863Y31941D02*X224730D01*
X222863D02*X222676Y30262D01*
X222863Y30447D01*
X223423Y30635D01*
X223983D01*
X224543Y30447D01*
X224916Y30075D01*
X225103Y29515D01*
Y29142D01*
X224916Y28582D01*
X224543Y28208D01*
X223983Y28021D01*
X223423D02*X223983D01*
X223423D02*X222863Y28208D01*
X222676Y28395D01*
X222490Y28768D01*
X384454Y29075D02*Y25167D01*
X382500Y27121D02*X386408D01*
X390597Y27840D02*X390381Y27189D01*
X389946Y26755D01*
X389294Y26537D01*
X389078D02*X389294D01*
X389078D02*X388427Y26755D01*
X387991Y27189D01*
X387776Y27840D01*
Y28057D02*Y27840D01*
Y28057D02*X387991Y28709D01*
X388427Y29143D01*
X389078Y29360D01*
X389294D01*
X389946Y29143D01*
X390381Y28709D01*
X390597Y27840D01*
Y26755D01*
X390381Y25669D01*
X389946Y25018D01*
X389294Y24800D01*
X388861D02*X389294D01*
X388861D02*X388209Y25018D01*
X387991Y25452D01*
X391965Y29360D02*X393702Y24800D01*
X395440Y29360D02*X393702Y24800D01*
X358454Y29075D02*Y25167D01*
X356500Y27121D02*X360408D01*
X362210Y29360D02*X364382D01*
X362210D02*X361993Y27407D01*
X362210Y27623D01*
X362861Y27840D01*
X363513D01*
X364164Y27623D01*
X364599Y27189D01*
X364816Y26537D01*
Y26104D01*
X364599Y25452D01*
X364164Y25018D01*
X363513Y24800D01*
X362861D02*X363513D01*
X362861D02*X362210Y25018D01*
X361993Y25235D01*
X361776Y25669D01*
X366184Y29360D02*X367921Y24800D01*
X369659Y29360D02*X367921Y24800D01*
X449701Y31711D02*Y26871D01*
Y31711D02*X451775D01*
X452466Y31480D01*
X452697Y31250D01*
X452927Y30789D01*
Y30328D01*
X452697Y29867D01*
X452466Y29637D01*
X451775Y29406D01*
X449701D02*X451775D01*
X451314D02*X452927Y26871D01*
X454839Y31711D02*X457374D01*
X455991Y29867D01*
X456683D01*
X457143Y29638D01*
X457374Y29407D01*
X457605Y28715D01*
Y28255D01*
X457374Y27563D01*
X456914Y27102D01*
X456222Y26871D01*
X455531D02*X456222D01*
X455531D02*X454839Y27102D01*
X454609Y27333D01*
X454379Y27793D01*
X310960Y29280D02*Y24400D01*
Y29280D02*X312587D01*
X313284Y29047D01*
X313749Y28582D01*
X313981Y28119D01*
X314213Y27421D01*
Y26258D01*
X313981Y25561D01*
X313749Y25097D01*
X313284Y24633D01*
X312587Y24400D01*
X310960D02*X312587D01*
X318464Y28583D02*X318232Y29048D01*
X317535Y29280D01*
X317071D02*X317535D01*
X317071D02*X316372Y29048D01*
X315908Y28352D01*
X315677Y27190D01*
Y26027D01*
X315908Y25098D01*
X316372Y24633D01*
X317071Y24400D01*
X317303D01*
X317999Y24633D01*
X318464Y25098D01*
X318696Y25796D01*
Y26027D02*Y25796D01*
Y26027D02*X318464Y26724D01*
X317999Y27190D01*
X317303Y27421D01*
X317071D02*X317303D01*
X317071D02*X316372Y27190D01*
X315908Y26724D01*
X315677Y26027D01*
X336160Y29580D02*Y24700D01*
Y29580D02*X337787D01*
X338484Y29347D01*
X338949Y28882D01*
X339181Y28419D01*
X339413Y27721D01*
Y26558D01*
X339181Y25861D01*
X338949Y25397D01*
X338484Y24933D01*
X337787Y24700D01*
X336160D02*X337787D01*
X341341Y29580D02*X343665D01*
X341341D02*X341108Y27490D01*
X341341Y27721D01*
X342038Y27954D01*
X342736D01*
X343432Y27721D01*
X343897Y27257D01*
X344130Y26559D01*
Y26096D01*
X343897Y25398D01*
X343432Y24933D01*
X342736Y24700D01*
X342038D02*X342736D01*
X342038D02*X341341Y24933D01*
X341108Y25166D01*
X340877Y25630D01*
X265040Y36000D02*X262500Y33999D01*
X265040Y32000D01*
X266240Y35238D02*Y35048D01*
Y35238D02*X266431Y35619D01*
X266620Y35809D01*
X267002Y36000D01*
X267763D01*
X268145Y35809D01*
X268335Y35619D01*
X268525Y35238D01*
Y34857D01*
X268335Y34477D01*
X268145Y34286D01*
X267383Y33905D01*
Y33334D01*
Y32382D02*X267192Y32191D01*
X267383Y32000D01*
X267572Y32191D01*
X267383Y32382D01*
X269725Y36000D02*X272265Y33999D01*
X269725Y32000D01*
X1045000Y29123D02*X1045513Y29379D01*
X1046285Y30150D01*
Y24750D01*
X681957Y34638D02*X681726Y35098D01*
X681265Y35559D01*
X680805Y35790D01*
X679882D02*X680805D01*
X679882D02*X679422Y35559D01*
X678960Y35098D01*
X678730Y34638D01*
X678500Y33946D01*
Y32793D01*
X678730Y32102D01*
X678960Y31641D01*
X679422Y31181D01*
X679882Y30950D01*
X680805D01*
X681265Y31181D01*
X681726Y31641D01*
X681957Y32102D01*
X683869Y35790D02*X686404D01*
X685021Y33946D01*
X685713D01*
X686173Y33717D01*
X686404Y33486D01*
X686635Y32794D01*
Y32334D01*
X686404Y31642D01*
X685944Y31181D01*
X685252Y30950D01*
X684561D02*X685252D01*
X684561D02*X683869Y31181D01*
X683639Y31412D01*
X683409Y31872D01*
X484421Y31671D02*Y26831D01*
Y31671D02*X486495D01*
X487186Y31440D01*
X487417Y31210D01*
X487647Y30749D01*
Y30288D01*
X487417Y29827D01*
X487186Y29597D01*
X486495Y29366D01*
X484421D02*X486495D01*
X486034D02*X487647Y26831D01*
X489329Y30750D02*Y30519D01*
Y30750D02*X489560Y31210D01*
X489789Y31441D01*
X490251Y31671D01*
X491172D01*
X491634Y31441D01*
X491864Y31210D01*
X492094Y30750D01*
Y30288D01*
X491864Y29827D01*
X491403Y29136D01*
X489099Y26831D01*
X492325D01*
X518040Y27000D02*X515500Y24999D01*
X518040Y23000D01*
X519240Y26238D02*Y26048D01*
Y26238D02*X519431Y26619D01*
X519620Y26809D01*
X520002Y27000D01*
X520763D01*
X521145Y26809D01*
X521335Y26619D01*
X521525Y26238D01*
Y25857D01*
X521335Y25477D01*
X521145Y25286D01*
X520383Y24905D01*
Y24334D01*
Y23382D02*X520192Y23191D01*
X520383Y23000D01*
X520572Y23191D01*
X520383Y23382D01*
X522725Y27000D02*X525265Y24999D01*
X522725Y23000D01*
X5805Y36290D02*Y32602D01*
X5575Y31910D01*
X5344Y31681D01*
X4883Y31450D01*
X4423D02*X4883D01*
X4423D02*X3961Y31681D01*
X3731Y31910D01*
X3500Y32602D01*
Y33063D02*Y32602D01*
X7487Y35369D02*Y35138D01*
Y35369D02*X7718Y35829D01*
X7947Y36060D01*
X8409Y36290D01*
X9330D01*
X9792Y36060D01*
X10022Y35829D01*
X10252Y35369D01*
Y34907D01*
X10022Y34446D01*
X9561Y33755D01*
X7257Y31450D01*
X10483D01*
X11935Y36290D02*Y31450D01*
Y36290D02*X14009D01*
X14700Y36059D01*
X14931Y35829D01*
X15161Y35367D01*
Y34907D01*
X14931Y34446D01*
X14700Y34215D01*
X14009Y33985D01*
X11935D02*X14009D01*
X14700Y33755D01*
X14931Y33524D01*
X15161Y33063D01*
Y32372D01*
X14931Y31910D01*
X14700Y31681D01*
X14009Y31450D01*
X11935D02*X14009D01*
X920700Y32814D02*X920486Y33239D01*
X920059Y33666D01*
X919634Y33880D01*
X918779D02*X919634D01*
X918779D02*X918353Y33666D01*
X917926Y33239D01*
X917713Y32814D01*
X917500Y32173D01*
Y31106D01*
X917713Y30466D01*
X917926Y30040D01*
X918353Y29614D01*
X918779Y29400D01*
X919634D01*
X920059Y29614D01*
X920486Y30040D01*
X920700Y30466D01*
X925244Y32814D02*X925030Y33239D01*
X924603Y33666D01*
X924177Y33880D01*
X923323D02*X924177D01*
X923323D02*X922897Y33666D01*
X922469Y33239D01*
X922257Y32814D01*
X922044Y32173D01*
Y31106D01*
X922257Y30466D01*
X922469Y30040D01*
X922897Y29614D01*
X923323Y29400D01*
X924177D01*
X924603Y29614D01*
X925030Y30040D01*
X925244Y30466D01*
X936328Y32884D02*X936072Y33394D01*
X935562Y33904D01*
X935053Y34160D01*
X934030D02*X935053D01*
X934030D02*X933521Y33904D01*
X933009Y33394D01*
X932755Y32884D01*
X932500Y32118D01*
Y30841D01*
X932755Y30076D01*
X933009Y29565D01*
X933521Y29056D01*
X934030Y28800D01*
X935053D01*
X935562Y29056D01*
X936072Y29565D01*
X936328Y30076D01*
X941765Y32884D02*X941509Y33394D01*
X940998Y33904D01*
X940489Y34160D01*
X939467D02*X940489D01*
X939467D02*X938957Y33904D01*
X938446Y33394D01*
X938191Y32884D01*
X937936Y32118D01*
Y30841D01*
X938191Y30076D01*
X938446Y29565D01*
X938957Y29056D01*
X939467Y28800D01*
X940489D01*
X940998Y29056D01*
X941509Y29565D01*
X941765Y30076D01*
X943373Y31480D02*X946723D01*
X948331Y34160D02*Y28800D01*
Y34160D02*X950628D01*
X951393Y33904D01*
X951649Y33649D01*
X951903Y33138D01*
Y32628D01*
X951649Y32118D01*
X951393Y31862D01*
X950628Y31607D01*
X948331D02*X950628D01*
X951393Y31353D01*
X951649Y31097D01*
X951903Y30586D01*
Y29821D01*
X951649Y29309D01*
X951393Y29056D01*
X950628Y28800D01*
X948331D02*X950628D01*
X953511Y34160D02*X955552Y31607D01*
Y28800D01*
X957596Y34160D02*X955552Y31607D01*
X959204Y31480D02*X962554D01*
X967734Y33394D02*X967223Y33904D01*
X966458Y34160D01*
X965437D02*X966458D01*
X965437D02*X964671Y33904D01*
X964162Y33394D01*
Y32884D01*
X964415Y32372D01*
X964671Y32118D01*
X965183Y31863D01*
X966714Y31353D01*
X967223Y31097D01*
X967478Y30842D01*
X967734Y30332D01*
Y29565D01*
X967223Y29056D01*
X966458Y28800D01*
X965437D02*X966458D01*
X965437D02*X964671Y29056D01*
X964162Y29565D01*
X971384Y34160D02*X969342Y28800D01*
X971384Y34160D02*X973426Y28800D01*
X970108Y30586D02*X972661D01*
X979998Y34160D02*X977446Y30588D01*
X981273D01*
X979998Y34160D02*Y28800D01*
X983136Y29202D02*X982881Y28946D01*
X983136Y28693D01*
X983391Y28946D01*
X983136Y29202D01*
X986530Y34160D02*X985765Y33905D01*
X985253Y33140D01*
X984999Y31865D01*
Y31098D01*
X985253Y29821D01*
X985765Y29056D01*
X986530Y28800D01*
X987041D01*
X987806Y29056D01*
X988316Y29821D01*
X988572Y31098D01*
Y31865D02*Y31098D01*
Y31865D02*X988316Y33140D01*
X987806Y33905D01*
X987041Y34160D01*
X986530D02*X987041D01*
X632822Y24340D02*X632605Y23689D01*
X632171Y23255D01*
X631518Y23037D01*
X631302D02*X631518D01*
X631302D02*X630651Y23255D01*
X630215Y23689D01*
X630000Y24340D01*
Y24557D02*Y24340D01*
Y24557D02*X630215Y25209D01*
X630651Y25643D01*
X631302Y25860D01*
X631518D01*
X632171Y25643D01*
X632605Y25209D01*
X632822Y24340D01*
Y23255D01*
X632605Y22169D01*
X632171Y21518D01*
X631518Y21300D01*
X631085D02*X631518D01*
X631085D02*X630433Y21518D01*
X630215Y21952D01*
X636242Y25860D02*X637978Y21300D01*
X639716Y25860D02*X637978Y21300D01*
X643136Y25860D02*Y21300D01*
Y25860D02*X644657D01*
X645308Y25642D01*
X645742Y25208D01*
X645959Y24775D01*
X646175Y24123D01*
Y23036D01*
X645959Y22385D01*
X645742Y21951D01*
X645308Y21518D01*
X644657Y21300D01*
X643136D02*X644657D01*
X650800Y24775D02*X650583Y25208D01*
X650148Y25642D01*
X649715Y25860D01*
X648845D02*X649715D01*
X648845D02*X648412Y25642D01*
X647977Y25208D01*
X647760Y24775D01*
X647543Y24123D01*
Y23036D01*
X647760Y22385D01*
X647977Y21951D01*
X648412Y21518D01*
X648845Y21300D01*
X649715D01*
X650148Y21518D01*
X650583Y21951D01*
X650800Y22385D01*
X654220Y25860D02*X655360D01*
X654790D02*Y21300D01*
X654220D02*X655360D01*
X656728Y25860D02*Y21300D01*
Y25860D02*X659768Y21300D01*
Y25860D02*Y21300D01*
X1090500Y25123D02*X1091013Y25379D01*
X1091785Y26150D01*
Y20750D01*
X1007040Y46000D02*X1004500Y43999D01*
X1007040Y42000D01*
X1008240Y45238D02*Y45048D01*
Y45238D02*X1008431Y45619D01*
X1008620Y45809D01*
X1009002Y46000D01*
X1009763D01*
X1010145Y45809D01*
X1010335Y45619D01*
X1010525Y45238D01*
Y44857D01*
X1010335Y44477D01*
X1010145Y44286D01*
X1009383Y43905D01*
Y43334D01*
Y42382D02*X1009192Y42191D01*
X1009383Y42000D01*
X1009572Y42191D01*
X1009383Y42382D01*
X1011725Y46000D02*X1014265Y43999D01*
X1011725Y42000D01*
X54500Y24623D02*X55013Y24879D01*
X55785Y25650D01*
Y20250D01*
X41366Y12000D02*X40833Y11467D01*
X40299Y10667D01*
X39765Y9599D01*
X39500Y8266D01*
Y7199D01*
X39765Y5867D01*
X40299Y4800D01*
X40833Y4000D01*
X41366Y3467D01*
X43046Y10600D02*Y5000D01*
Y10600D02*X45446D01*
X46245Y10333D01*
X46513Y10067D01*
X46779Y9532D01*
Y9000D01*
X46513Y8466D01*
X46245Y8199D01*
X45446Y7933D01*
X43046D02*X45446D01*
X46245Y7667D01*
X46513Y7400D01*
X46779Y6866D01*
Y6067D01*
X46513Y5532D01*
X46245Y5267D01*
X45446Y5000D01*
X43046D02*X45446D01*
X48459Y10600D02*Y5000D01*
Y10600D02*X50858D01*
X51658Y10333D01*
X51925Y10067D01*
X52191Y9533D01*
Y9000D01*
X51925Y8466D01*
X51658Y8200D01*
X50858Y7933D01*
X48459D02*X50858D01*
X50325D02*X52191Y5000D01*
X53871Y10600D02*Y5000D01*
Y10600D02*X57337D01*
X53871Y7933D02*X56003D01*
X53871Y5000D02*X57337D01*
X61151Y10600D02*X59017Y5000D01*
X61151Y10600D02*X63285Y5000D01*
X59818Y6866D02*X62485D01*
X64965Y10600D02*Y5000D01*
X68697Y10600D02*X64965Y6866D01*
X66297Y8199D02*X68697Y5000D01*
X70377Y7800D02*X73877D01*
X77156Y10600D02*X76624Y10333D01*
X76089Y9799D01*
X75823Y9267D01*
X75557Y8466D01*
Y7134D01*
X75823Y6331D01*
Y6333D02*X76089Y5799D01*
X76624Y5267D01*
X77156Y5000D01*
X78224D01*
X78756Y5267D01*
X79289Y5799D01*
X79557Y6333D01*
X79821Y7134D01*
Y8466D02*Y7134D01*
Y8466D02*X79557Y9267D01*
X79289Y9799D01*
X78756Y10333D01*
X78224Y10600D01*
X77156D02*X78224D01*
X81501D02*Y5000D01*
Y10600D02*X84966D01*
X81501Y7933D02*X83634D01*
X86646Y10600D02*Y5000D01*
Y10600D02*X90111D01*
X86646Y7933D02*X88779D01*
X96445Y10600D02*X94311Y5000D01*
X96445Y10600D02*X98579Y5000D01*
X95112Y6866D02*X97779D01*
X103991Y9799D02*X103458Y10333D01*
X102658Y10600D01*
X101591D02*X102658D01*
X101591D02*X100791Y10333D01*
X100259Y9799D01*
Y9267D01*
X100523Y8732D01*
X100791Y8466D01*
X101325Y8200D01*
X102926Y7667D01*
X103458Y7400D01*
X103724Y7134D01*
X103991Y6600D01*
Y5799D01*
X103458Y5267D01*
X102658Y5000D01*
X101591D02*X102658D01*
X101591D02*X100791Y5267D01*
X100259Y5799D01*
X109403Y9799D02*X108870Y10333D01*
X108071Y10600D01*
X107004D02*X108071D01*
X107004D02*X106203Y10333D01*
X105671Y9799D01*
Y9267D01*
X105936Y8732D01*
X106203Y8466D01*
X106738Y8200D01*
X108338Y7667D01*
X108870Y7400D01*
X109136Y7134D01*
X109403Y6600D01*
Y5799D01*
X108870Y5267D01*
X108071Y5000D01*
X107004D02*X108071D01*
X107004D02*X106203Y5267D01*
X105671Y5799D01*
X111083Y10600D02*Y5000D01*
Y10600D02*X114550D01*
X111083Y7933D02*X113216D01*
X111083Y5000D02*X114550D01*
X116230Y10600D02*Y5000D01*
Y10600D02*X118362Y5000D01*
X120497Y10600D02*X118362Y5000D01*
X120497Y10600D02*Y5000D01*
X122177Y10600D02*Y5000D01*
Y10600D02*X124577D01*
X125376Y10333D01*
X125643Y10067D01*
X125909Y9532D01*
Y9000D01*
X125643Y8466D01*
X125376Y8199D01*
X124577Y7933D01*
X122177D02*X124577D01*
X125376Y7667D01*
X125643Y7400D01*
X125909Y6866D01*
Y6067D01*
X125643Y5532D01*
X125376Y5267D01*
X124577Y5000D01*
X122177D02*X124577D01*
X127589Y10600D02*Y5000D01*
X130788D01*
X132468Y10600D02*X134601Y7933D01*
Y5000D01*
X136736Y10600D02*X134601Y7933D01*
X142802Y10600D02*Y5000D01*
X140936Y10600D02*X144668D01*
X148482D02*X146348Y5000D01*
X148482Y10600D02*X150615Y5000D01*
X147149Y6866D02*X149816D01*
X152295Y10600D02*Y5000D01*
Y10600D02*X154695D01*
X155494Y10333D01*
X155762Y10067D01*
X156028Y9532D01*
Y9000D01*
X155762Y8466D01*
X155494Y8199D01*
X154695Y7933D01*
X152295D02*X154695D01*
X155494Y7667D01*
X155762Y7400D01*
X156028Y6866D01*
Y6067D01*
X155762Y5532D01*
X155494Y5267D01*
X154695Y5000D01*
X152295D02*X154695D01*
X157708Y12000D02*X158240Y11467D01*
X158775Y10667D01*
X159308Y9599D01*
X159573Y8266D01*
Y7199D01*
X159308Y5867D01*
X158775Y4800D01*
X158240Y4000D01*
X157708Y3467D01*
G54D203*X197243Y25260D02*X196926Y25890D01*
X196295Y26523D01*
X195662Y26840D01*
X194397D02*X195662D01*
X194397D02*X193765Y26523D01*
X193132Y25890D01*
X192817Y25260D01*
X192500Y24310D01*
Y22728D01*
X192817Y21780D01*
X193132Y21148D01*
X193765Y20517D01*
X194397Y20200D01*
X195662D01*
X196295Y20517D01*
X196926Y21148D01*
X197243Y21780D01*
Y22728D02*Y21780D01*
X195662Y22728D02*X197243D01*
X199235Y26840D02*Y20200D01*
Y26840D02*X203660Y20200D01*
Y26840D02*Y20200D01*
X205652Y26840D02*Y20200D01*
Y26840D02*X207867D01*
X208814Y26523D01*
X209447Y25890D01*
X209762Y25260D01*
X210078Y24310D01*
Y22728D01*
X209762Y21780D01*
X209447Y21148D01*
X208814Y20517D01*
X207867Y20200D01*
X205652D02*X207867D01*
X174132Y26840D02*X177295D01*
X174132D02*X173815Y23996D01*
X174132Y24310D01*
X175080Y24627D01*
X176030D01*
X176978Y24310D01*
X177610Y23679D01*
X177927Y22730D01*
Y22099D01*
X177610Y21150D01*
X176978Y20517D01*
X176030Y20200D01*
X175080D02*X176030D01*
X175080D02*X174132Y20517D01*
X173815Y20834D01*
X173500Y21465D01*
X179919Y26840D02*X182447Y20200D01*
X184979Y26840D02*X182447Y20200D01*
G54D194*X612228Y42794D02*X612013Y43224D01*
X611583Y43654D01*
X611153Y43870D01*
X610292D02*X611153D01*
X610292D02*X609861Y43654D01*
X609431Y43224D01*
X609216Y42794D01*
X609000Y42148D01*
Y41071D01*
X609216Y40426D01*
X609431Y39995D01*
X609861Y39566D01*
X610292Y39350D01*
X611153D01*
X611583Y39566D01*
X612013Y39995D01*
X612228Y40426D01*
Y41071D02*Y40426D01*
X611153Y41071D02*X612228D01*
X613584Y43870D02*Y39350D01*
Y43870D02*X616597Y39350D01*
Y43870D02*Y39350D01*
X617953Y43870D02*Y39350D01*
Y43870D02*X619460D01*
X620106Y43654D01*
X620536Y43224D01*
X620751Y42794D01*
X620966Y42148D01*
Y41071D01*
X620751Y40426D01*
X620536Y39995D01*
X620106Y39566D01*
X619460Y39350D01*
X617953D02*X619460D01*
X594020Y42154D02*X593788Y41457D01*
X593323Y40992D01*
X592625Y40759D01*
X592393D02*X592625D01*
X592393D02*X591697Y40992D01*
X591231Y41457D01*
X591000Y42154D01*
Y42386D02*Y42154D01*
Y42386D02*X591231Y43083D01*
X591697Y43548D01*
X592393Y43780D01*
X592625D01*
X593323Y43548D01*
X593788Y43083D01*
X594020Y42154D01*
Y40992D01*
X593788Y39830D01*
X593323Y39133D01*
X592625Y38900D01*
X592161D02*X592625D01*
X592161D02*X591464Y39133D01*
X591231Y39598D01*
X595484Y43780D02*X597342Y38900D01*
X599202Y43780D02*X597342Y38900D01*
G54D204*X906652Y14260D02*Y3300D01*
X903000Y14260D02*X910305D01*
X916722D02*X915681Y13737D01*
X914634Y12693D01*
X914113Y11652D01*
X913593Y10084D01*
Y7476D01*
X914113Y5906D01*
Y5908D02*X914634Y4865D01*
X915681Y3823D01*
X916722Y3300D01*
X918813D01*
X919854Y3823D01*
X920898Y4865D01*
X921421Y5908D01*
X921939Y7476D01*
Y10084D02*Y7476D01*
Y10084D02*X921421Y11652D01*
X920898Y12693D01*
X919854Y13737D01*
X918813Y14260D01*
X916722D02*X918813D01*
X925227D02*Y3300D01*
Y14260D02*X929923D01*
X931488Y13737D01*
X932011Y13216D01*
X932532Y12172D01*
Y10605D01*
X932011Y9564D01*
X931488Y9040D01*
X929923Y8520D01*
X925227D02*X929923D01*
X948057Y12693D02*X947013Y13737D01*
X945448Y14260D01*
X943360D02*X945448D01*
X943360D02*X941793Y13737D01*
X940752Y12693D01*
Y11652D01*
X941270Y10605D01*
X941793Y10084D01*
X942840Y9564D01*
X945971Y8520D01*
X947013Y7996D01*
X947533Y7476D01*
X948057Y6432D01*
Y4865D01*
X947013Y3823D01*
X945448Y3300D01*
X943360D02*X945448D01*
X943360D02*X941793Y3823D01*
X940752Y4865D01*
X951345Y14260D02*X954085D01*
X952715D02*Y3300D01*
X951345D02*X954085D01*
X957373Y14260D02*Y3300D01*
X963634D01*
X966922Y14260D02*Y3300D01*
X974226Y14260D02*X966922Y6952D01*
X969530Y9561D02*X974226Y3300D01*
M02*
