G04 start of page 12 for group -4078 idx -4078 *
G04 Title: AYAB-RS_F, bottomsilk *
G04 Creator: pcb 4.0.2 *
G04 CreationDate: Tue Aug 17 15:24:43 2021 UTC *
G04 For: tom *
G04 Format: Gerber/RS-274X *
G04 PCB-Dimensions (mil): 11000.00 1900.00 *
G04 PCB-Coordinate-Origin: lower left *
%MOIN*%
%FSLAX25Y25*%
%LNBOTTOMSILK*%
%ADD192C,0.0093*%
%ADD191C,0.0060*%
%ADD190C,0.0110*%
%ADD189C,0.0250*%
%ADD188C,0.0100*%
%ADD187C,0.0120*%
G54D187*X616500Y10000D02*X620500D01*
X608500D02*X612500D01*
X610000D02*X614000D01*
X590500D02*X594500D01*
X592500Y12000D02*Y8000D01*
X596500Y10000D02*X603000D01*
G54D188*X1076500Y48500D02*G75*G02X1062500Y34500I-14000J0D01*G01*
G75*G02X1048500Y48500I0J14000D01*G01*
X889000Y50000D02*G75*G02X875000Y36000I-14000J0D01*G01*
G75*G02X861000Y50000I0J14000D01*G01*
G75*G02X875000Y64000I14000J0D01*G01*
G75*G02X889000Y50000I0J-14000D01*G01*
X1048500Y48500D02*G75*G02X1062500Y62500I14000J0D01*G01*
Y108500D02*G75*G02X1048500Y122500I0J14000D01*G01*
G75*G02X1062500Y136500I14000J0D01*G01*
Y141000D02*G75*G02X1048500Y155000I0J14000D01*G01*
G75*G02X1062500Y169000I14000J0D01*G01*
Y62500D02*G75*G02X1076500Y48500I0J-14000D01*G01*
Y122500D02*G75*G02X1062500Y108500I-14000J0D01*G01*
Y136500D02*G75*G02X1076500Y122500I0J-14000D01*G01*
Y155000D02*G75*G02X1062500Y141000I-14000J0D01*G01*
Y169000D02*G75*G02X1076500Y155000I0J-14000D01*G01*
X51500Y122500D02*G75*G02X37500Y108500I-14000J0D01*G01*
G75*G02X23500Y122500I0J14000D01*G01*
G75*G02X37500Y136500I14000J0D01*G01*
G75*G02X51500Y122500I0J-14000D01*G01*
Y48500D02*G75*G02X37500Y34500I-14000J0D01*G01*
G75*G02X23500Y48500I0J14000D01*G01*
G75*G02X37500Y62500I14000J0D01*G01*
G75*G02X51500Y48500I0J-14000D01*G01*
X564000Y122500D02*G75*G02X550000Y108500I-14000J0D01*G01*
G75*G02X536000Y122500I0J14000D01*G01*
G75*G02X550000Y136500I14000J0D01*G01*
G75*G02X564000Y122500I0J-14000D01*G01*
Y48500D02*G75*G02X550000Y34500I-14000J0D01*G01*
G75*G02X536000Y48500I0J14000D01*G01*
G75*G02X550000Y62500I14000J0D01*G01*
G75*G02X564000Y48500I0J-14000D01*G01*
G54D187*X608500Y10000D02*G75*G03X604500Y14000I-4000J0D01*G01*
Y6000D02*G75*G03X608500Y10000I0J4000D01*G01*
X606500D02*G75*G03X604500Y12000I-2000J0D01*G01*
Y8000D02*G75*G03X606500Y10000I0J2000D01*G01*
X604500Y12000D02*G75*G03X602500Y10000I0J-2000D01*G01*
X622500D02*G75*G03X618500Y14000I-4000J0D01*G01*
Y6000D02*G75*G03X622500Y10000I0J4000D01*G01*
X614500D02*G75*G02X618500Y14000I4000J0D01*G01*
Y6000D02*G75*G02X614500Y10000I0J4000D01*G01*
X602500D02*G75*G03X604500Y8000I2000J0D01*G01*
G54D189*X605500Y10000D02*G75*G02X604500Y11000I0J1000D01*G01*
G75*G02X603500Y10000I-1000J0D01*G01*
G75*G02X604500Y9000I0J-1000D01*G01*
G54D187*X596500Y10000D02*G75*G03X592500Y14000I-4000J0D01*G01*
Y6000D02*G75*G03X596500Y10000I0J4000D01*G01*
X588500D02*G75*G02X592500Y14000I4000J0D01*G01*
Y6000D02*G75*G02X588500Y10000I0J4000D01*G01*
G54D190*X117811Y81200D02*X128851D01*
X117811Y85403D01*
X128851Y89612D02*X117811Y85403D01*
Y89612D02*X128851D01*
X122023Y92924D02*Y99228D01*
X123072D01*
X124123Y98704D01*
X124650Y98180D01*
X125172Y97128D01*
Y95552D02*Y97128D01*
Y95552D02*X124650Y94498D01*
X123599Y93446D01*
X122023Y92924D01*
X120968D02*X122023D01*
X120968D02*X119393Y93446D01*
X118341Y94498D01*
X117814Y95552D01*
Y97128D01*
X118341Y98180D01*
X119393Y99228D01*
X119914Y104119D02*X128851D01*
X119914D02*X118338Y104641D01*
X117811Y105695D01*
Y106747D01*
X125172Y102540D02*Y106219D01*
X117814Y110059D02*X125172D01*
X122017D02*X123599Y110583D01*
X124648Y111637D01*
X125172Y112686D01*
Y114265D01*
Y120204D02*X124650Y119150D01*
X123599Y118098D01*
X122023Y117577D01*
X120968D02*X122023D01*
X120968D02*X119393Y118098D01*
X118341Y119150D01*
X117814Y120204D01*
Y121780D01*
X118341Y122832D01*
X119393Y123881D01*
X120968Y124408D01*
X122023D01*
X123599Y123881D01*
X124650Y122832D01*
X125172Y121780D01*
Y120204D02*Y121780D01*
X117811Y132688D02*X128851D01*
X117811Y136891D01*
X128851Y141100D02*X117811Y136891D01*
Y141100D02*X128851D01*
X117839Y144937D02*X125197D01*
X128879Y144412D02*X128351Y144937D01*
X128879Y145464D01*
X129403Y144937D01*
X128879Y144412D01*
X117814Y148776D02*X125172D01*
X123072D02*X124650Y150355D01*
X125172Y151403D01*
Y152982D01*
X124650Y154031D01*
X123072Y154558D01*
X117814D02*X123072D01*
X117839Y158395D02*X125197D01*
X128879Y157870D02*X128351Y158395D01*
X128879Y158922D01*
X129403Y158395D01*
X128879Y157870D01*
G54D191*X278792Y154961D02*X278358Y155395D01*
X278140Y156046D01*
Y156915D01*
X278358Y157567D01*
X278792Y158000D01*
X279225D01*
X279661Y157785D01*
X279877Y157567D01*
X280094Y157131D01*
X280528Y155828D01*
X280746Y155395D01*
X280963Y155179D01*
X281397Y154961D01*
X282049D01*
X282482Y155395D01*
X282700Y156046D01*
Y156915D01*
X282482Y157567D01*
X282049Y158000D01*
X279225Y150336D02*X278792Y150554D01*
X278358Y150988D01*
X278140Y151421D01*
Y152291D01*
X278358Y152724D01*
X278792Y153160D01*
X279225Y153376D01*
X279877Y153593D01*
X280964D01*
X281615Y153376D01*
X282049Y153160D01*
X282482Y152724D01*
X282700Y152291D01*
Y151421D02*Y152291D01*
Y151421D02*X282482Y150988D01*
X282049Y150554D01*
X281615Y150336D01*
X278140Y148968D02*X282700D01*
Y146363D02*Y148968D01*
X289292Y154961D02*X288858Y155395D01*
X288640Y156046D01*
Y156915D01*
X288858Y157567D01*
X289292Y158000D01*
X289725D01*
X290161Y157785D01*
X290377Y157567D01*
X290594Y157131D01*
X291028Y155828D01*
X291246Y155395D01*
X291463Y155179D01*
X291897Y154961D01*
X292549D01*
X292982Y155395D01*
X293200Y156046D01*
Y156915D01*
X292982Y157567D01*
X292549Y158000D01*
X288640Y153593D02*X293200D01*
X288640Y152072D02*Y153593D01*
Y152072D02*X288858Y151421D01*
X289292Y150987D01*
X289725Y150770D01*
X290377Y150554D01*
X291464D01*
X292115Y150770D01*
X292549Y150987D01*
X292982Y151421D01*
X293200Y152072D01*
Y153593D01*
X288640Y147448D02*X293200Y149186D01*
X288640Y147448D02*X293200Y145711D01*
X291680Y146362D02*Y148533D01*
X298925Y156046D02*X302833D01*
X300879Y154092D02*Y158000D01*
X298640Y150118D02*Y152290D01*
X300593Y152507D01*
X300377Y152290D01*
X300160Y151639D01*
Y150987D02*Y151639D01*
Y150987D02*X300377Y150336D01*
X300811Y149901D01*
X301463Y149684D01*
X301896D01*
X302548Y149901D01*
X302982Y150336D01*
X303200Y150987D01*
Y151639D01*
X302982Y152290D01*
X302765Y152507D01*
X302331Y152724D01*
X298640Y148316D02*X303200Y146579D01*
X298640Y144841D02*X303200Y146579D01*
X269725Y154743D02*X269292Y154961D01*
X268858Y155394D01*
X268640Y155828D01*
Y156697D01*
X268858Y157131D01*
X269292Y157566D01*
X269725Y157782D01*
X270377Y158000D01*
X271464D01*
X272115Y157782D01*
X272549Y157566D01*
X272982Y157131D01*
X273200Y156697D01*
Y155828D02*Y156697D01*
Y155828D02*X272982Y155394D01*
X272549Y154961D01*
X272115Y154743D01*
X271464D02*X272115D01*
X271464D02*Y155828D01*
X268640Y153375D02*X273200D01*
X268640D02*X273200Y150336D01*
X268640D02*X273200D01*
X268640Y148968D02*X273200D01*
X268640Y147447D02*Y148968D01*
Y147447D02*X268858Y146796D01*
X269292Y146362D01*
X269725Y146145D01*
X270377Y145929D01*
X271464D01*
X272115Y146145D01*
X272549Y146362D01*
X272982Y146796D01*
X273200Y147447D01*
Y148968D01*
X617679Y20840D02*X617895Y20189D01*
X618329Y19755D01*
X618982Y19537D01*
X619198D01*
X619849Y19755D01*
X620285Y20189D01*
X620500Y20840D01*
Y21057D01*
X620285Y21709D01*
X619849Y22143D01*
X619198Y22360D01*
X618982D02*X619198D01*
X618982D02*X618329Y22143D01*
X617895Y21709D01*
X617679Y20840D01*
Y19755D02*Y20840D01*
Y19755D02*X617895Y18669D01*
X618329Y18018D01*
X618982Y17800D01*
X619415D01*
X620067Y18018D01*
X620285Y18452D01*
X614258Y22360D02*X612522Y17800D01*
X610784Y22360D02*X612522Y17800D01*
X607364D02*Y22360D01*
X605843D02*X607364D01*
X605843D02*X605192Y22142D01*
X604758Y21708D01*
X604541Y21275D01*
X604325Y20623D01*
Y19536D02*Y20623D01*
Y19536D02*X604541Y18885D01*
X604758Y18451D01*
X605192Y18018D01*
X605843Y17800D01*
X607364D01*
X599700Y21275D02*X599917Y21708D01*
X600352Y22142D01*
X600785Y22360D01*
X601655D01*
X602088Y22142D01*
X602523Y21708D01*
X602740Y21275D01*
X602957Y20623D01*
Y19536D02*Y20623D01*
Y19536D02*X602740Y18885D01*
X602523Y18451D01*
X602088Y18018D01*
X601655Y17800D01*
X600785D02*X601655D01*
X600785D02*X600352Y18018D01*
X599917Y18451D01*
X599700Y18885D01*
X595140Y22360D02*X596280D01*
X595710Y17800D02*Y22360D01*
X595140Y17800D02*X596280D01*
X593772D02*Y22360D01*
X590732Y17800D01*
Y22360D01*
G54D188*X627000Y73000D02*X635500D01*
X627000D02*Y69500D01*
X627500Y69000D01*
X627000Y52500D02*Y18000D01*
X625500Y16500D01*
X664500D01*
X663500Y17500D01*
Y73000D02*Y17500D01*
X655000Y73000D02*X663500D01*
X90000Y163000D02*Y23000D01*
X160000Y163000D02*Y23000D01*
Y8000D01*
X90000Y178000D02*Y163000D01*
Y178000D02*X160000D01*
Y163000D01*
X90000Y16000D02*X98000Y8000D01*
X160000D01*
X90000Y23000D02*Y16000D01*
X110000Y7000D02*X140000D01*
Y27000D02*Y7000D01*
X110000Y27000D02*X140000D01*
X110000D02*Y7000D01*
X115000Y18000D02*Y14000D01*
X135000Y18000D02*Y14000D01*
G54D191*X640940Y32257D02*X645329D01*
X646153Y32530D01*
X646425Y32805D01*
X646700Y33354D01*
Y33901D01*
X646425Y34451D01*
X646153Y34725D01*
X645329Y35000D01*
X644780D02*X645329D01*
X642036Y30529D02*X641762Y29982D01*
X640940Y29158D01*
X646700D01*
G54D192*X124052Y34000D02*X130680D01*
X124052D02*X122725Y34443D01*
X121843Y35325D01*
X121400Y36652D01*
Y37533D01*
X121843Y38860D01*
X122725Y39744D01*
X124052Y40185D01*
X130680D01*
X128914Y42969D02*X129355Y43851D01*
X130680Y45178D01*
X121400D02*X130680D01*
M02*
