G04 start of page 4 for group 4 idx 1 *
G04 Title: AYAB-RS_F, bottom *
G04 Creator: pcb 4.0.2 *
G04 CreationDate: Wed Aug 18 08:19:12 2021 UTC *
G04 For: tom *
G04 Format: Gerber/RS-274X *
G04 PCB-Dimensions (mil): 11000.00 1900.00 *
G04 PCB-Coordinate-Origin: lower left *
%MOIN*%
%FSLAX25Y25*%
%LNBOTTOM*%
%ADD77C,0.1250*%
%ADD76C,0.0352*%
%ADD75C,0.0380*%
%ADD74C,0.0910*%
%ADD73C,0.1480*%
%ADD72C,0.0360*%
%ADD71C,0.0200*%
%ADD70C,0.1100*%
%ADD69C,0.0650*%
%ADD68C,0.0460*%
%ADD67C,0.0560*%
%ADD66C,0.2100*%
%ADD65C,0.1700*%
%ADD64C,0.2200*%
%ADD63C,0.2050*%
%ADD62C,0.0636*%
%ADD61C,0.0679*%
%ADD60C,0.0800*%
%ADD59C,0.0750*%
%ADD58C,0.0001*%
%ADD57C,0.0350*%
%ADD56C,0.0300*%
%ADD55C,0.0600*%
%ADD54C,0.0500*%
%ADD53C,0.0700*%
%ADD52C,0.0400*%
%ADD51C,0.1000*%
%ADD50C,0.0250*%
%ADD49C,0.0150*%
G54D49*X815000Y19000D02*Y6000D01*
G54D50*X1083500Y14000D02*X848500D01*
X835500Y27000D01*
X834500D01*
G54D49*X995500Y89500D02*X758500D01*
X985500Y86000D02*X990000Y81500D01*
G54D51*X974000Y71000D02*X968500Y76500D01*
G54D49*X761500Y92500D02*X1005000D01*
X1010000Y87500D01*
X1020000Y86500D02*X1011000Y95500D01*
X764000D01*
X767200Y98800D02*X1019200D01*
X1030000Y88000D01*
G54D52*X1078000Y67500D02*X1069000D01*
G54D49*X1000000Y81000D02*Y85000D01*
X995500Y89500D01*
X1010000Y87500D02*Y81000D01*
X1020000D02*Y86500D01*
X1030000Y88000D02*Y81000D01*
X1040000D02*Y88000D01*
X1050000Y88500D02*Y81000D01*
X1059685D02*Y85815D01*
G54D53*X1069370Y81500D02*Y70630D01*
G54D54*X1075500Y70500D02*X1079213Y74213D01*
G54D55*Y80713D01*
Y68713D01*
G54D51*X974500Y70500D02*X1070000D01*
G54D49*X1065157Y23000D02*Y28657D01*
X1067000Y30500D01*
X1092000D01*
X1040748Y23500D02*X1065157D01*
X1094000Y11000D02*Y28500D01*
X1092000Y30500D01*
G54D50*X1084843Y23000D02*Y15343D01*
X1083500Y14000D01*
G54D51*X1012500Y70500D02*Y52000D01*
G54D50*X1041248Y23500D02*X1041000Y23252D01*
X1025000Y23500D02*Y14000D01*
X1066000Y70500D02*X1069750Y66750D01*
G54D52*X1069370Y70630D02*X1069500Y70500D01*
X1075500D01*
X1066000D02*X1068750Y73250D01*
X1078250D01*
X1079213Y68713D02*X1078000Y67500D01*
G54D49*X756000Y86000D02*X985500D01*
G54D51*X734500Y76500D02*X968500D01*
G54D49*X1059685Y85815D02*X1037000Y108500D01*
X779000D02*X1037000D01*
G54D52*X128000Y10000D02*X728000D01*
G54D49*X68255Y5742D02*X1089256D01*
X1094000Y11000D01*
G54D51*X500500Y57000D02*X535000Y22500D01*
X563000D01*
G54D49*X520000Y80000D02*X573500D01*
X404000Y72500D02*X577000D01*
X424000Y76500D03*
X469000Y22000D02*Y57500D01*
G54D51*X595000Y34000D02*X585250Y43750D01*
G54D52*Y44750D01*
G54D50*X78000Y58000D02*X84500D01*
G54D52*X117000D02*X116500Y58500D01*
G54D50*X247630Y66000D02*Y59130D01*
X237787Y49287D01*
Y45000D01*
X227945D02*Y50445D01*
X233500Y56000D01*
X235500D01*
X239756Y60256D01*
X283000Y99500D02*X289000Y93500D01*
G54D49*X420000Y107500D02*X425500D01*
X247000Y87331D02*Y92500D01*
X231252Y87331D02*Y93248D01*
X247000Y92500D02*X246000Y93500D01*
X236000D01*
X222565Y107065D01*
G54D50*X239756Y60256D02*Y66000D01*
X231882D02*Y60882D01*
X229000Y58000D01*
X222500D01*
X218102Y53602D01*
Y45000D01*
G54D52*X85000Y58000D02*X117000D01*
G54D50*X85000Y98000D02*X95000D01*
G54D52*X95500D02*X116500D01*
X728000Y10000D02*X745500Y27500D01*
G54D51*X563000Y22500D02*X635500Y95000D01*
X716000D01*
G54D50*X745000Y27000D02*X835300D01*
G54D49*X573500Y80000D02*X606000Y112500D01*
X604500Y116500D02*X571000Y83000D01*
X606000Y112500D02*X741500D01*
X743000Y116500D02*X604500D01*
X577000Y72500D02*X608000Y103500D01*
X607500Y108500D02*X575500Y76500D01*
X571000Y83000D02*X513500D01*
X608000Y103500D02*X738500D01*
X758500Y89500D02*X739500Y108500D01*
X607500D01*
X738500Y103500D02*X756000Y86000D01*
X602500Y120000D02*X746000D01*
X749500Y123500D02*X600500D01*
X599000Y127000D02*X753000D01*
X757500Y130000D02*X597000D01*
X753000Y127000D02*X775000Y105000D01*
X779000Y108500D02*X757500Y130000D01*
X749500Y123500D02*X771000Y102000D01*
X741000Y173000D02*X794500Y119500D01*
G54D50*X778500Y148500D02*X805500Y121500D01*
G54D49*X746000Y120000D02*X767200Y98800D01*
X725500Y169000D02*X781500Y113000D01*
G54D50*X748000Y179000D02*X778500Y148500D01*
G54D49*X741500Y112500D02*X761500Y92500D01*
X764000Y95500D02*X743000Y116500D01*
X775000Y105000D02*X1033500D01*
X1050000Y88500D01*
X771000Y102000D02*X1026000D01*
X1040000Y88000D02*X1026000Y102000D01*
X781500Y113000D02*X857500D01*
G54D50*X805500Y121500D02*X866000D01*
X869500Y118000D01*
X906500Y122000D02*X881500Y147000D01*
X820500D01*
X869500Y118000D02*Y113000D01*
G54D49*X155000Y68000D02*X143000D01*
X131500Y79500D01*
Y121500D01*
G54D52*X117000Y58000D02*Y21000D01*
X128000Y10000D01*
X181500Y18000D02*Y10000D01*
G54D49*X501500D02*Y22000D01*
G54D50*X352500Y17000D02*Y10000D01*
G54D51*X500500Y57000D02*X319000D01*
G54D55*X336508Y68000D02*Y57492D01*
G54D52*X337000Y57000D01*
G54D55*X328634Y68000D02*Y57134D01*
G54D52*X328500Y57000D01*
X326343Y45000D02*X326500Y45157D01*
G54D55*Y57500D01*
G54D52*X395157Y46000D02*X395000Y45843D01*
G54D49*X383752Y68000D02*Y74752D01*
X389000Y80000D01*
X232315Y115685D02*Y114500D01*
G54D50*X252000D02*Y119500D01*
X262500Y115000D02*X292500D01*
G54D49*X222565Y107065D02*Y114435D01*
X368004Y68000D02*Y80004D01*
X376500Y116500D02*X384000Y109000D01*
G54D54*X295000Y99500D02*X271000Y75500D01*
G54D49*X399500Y68000D02*X404000Y72500D01*
X395500Y76500D02*X424000D01*
X391626Y68000D02*Y72626D01*
X395500Y76500D01*
X375878Y76378D02*Y68000D01*
X360130Y77630D02*Y68000D01*
X352256D02*Y74756D01*
X344382Y76882D02*Y68000D01*
G54D54*X199000Y18000D02*Y59500D01*
X215000Y75500D01*
X271000D01*
G54D50*X52500Y12500D02*X67500Y27500D01*
Y47500D01*
X78000Y58000D01*
X85000Y78000D02*X56000D01*
X52000Y82000D01*
G54D49*X65000Y14500D02*Y9000D01*
X68255Y5742D01*
G54D50*X16000Y17500D02*X21000Y12500D01*
X52500D01*
X46843Y24000D02*X47000Y23843D01*
Y12500D01*
X16000Y68500D02*Y17500D01*
X37000Y97000D02*X37157Y96843D01*
X52000Y82000D02*X37157D01*
X25500Y80500D02*X29126Y84626D01*
Y97000D01*
X37000D02*Y82000D01*
X25500Y72172D02*Y80500D01*
X25000Y72043D02*X19500Y72000D01*
X16000Y68500D01*
X25157Y72330D02*X25500Y72672D01*
X37000Y82000D02*X35000Y80000D01*
Y71043D01*
G54D49*X506500Y86000D02*X568500D01*
X566000Y89000D02*X501500D01*
X495500Y92000D02*X564000D01*
X562000Y95000D02*X488500D01*
X575500Y76500D02*X424000D01*
X389000Y80000D02*X520000D01*
X513500Y83000D02*X382500D01*
G54D54*X448000Y113500D02*X434000Y99500D01*
G54D49*X420000Y107500D02*X418500Y109000D01*
X384000D01*
X391500Y113000D02*X423000D01*
X423500Y112500D01*
X430500D01*
G54D54*X448000Y120500D02*Y113500D01*
G54D50*Y121000D02*X447500Y121500D01*
X448000Y121000D02*X449000Y122000D01*
G54D49*X448000Y121000D02*X450000Y123000D01*
Y161500D01*
X442500Y169000D01*
G54D56*X447500Y121500D02*X394000D01*
X389000Y126500D01*
Y132000D01*
G54D49*X381500Y126000D02*Y137000D01*
X376500Y141500D02*Y116500D01*
X381500Y125500D02*Y123000D01*
X391500Y113000D01*
X381500Y137000D02*X418500Y174000D01*
X412500Y177500D02*X376500Y141500D01*
X444500Y174000D02*X418500D01*
X451500Y173000D02*X447000Y177500D01*
X412500D01*
X382500Y83000D02*X375878Y76378D01*
G54D50*X223378Y76122D02*X223500Y76000D01*
X215504Y87831D02*Y82496D01*
X217500Y80500D01*
X255000D01*
X262000Y87500D01*
G54D49*X368004Y80004D02*X374000Y86000D01*
X371500Y89000D02*X360130Y77630D01*
X352256Y74756D02*X369500Y92000D01*
X362500Y95000D02*X344382Y76882D01*
X374000Y86000D02*X507000D01*
X501500Y89000D02*X371500D01*
X369500Y92000D02*X495500D01*
X489000Y95000D02*X362500D01*
G54D54*X434000Y99500D02*X295000D01*
G54D49*X222130Y114000D02*X222630Y114500D01*
G54D50*X262000Y87500D02*Y114500D01*
G54D49*X232472D02*X232500Y105000D01*
X239000Y98500D01*
X199000Y83500D02*Y95000D01*
X176000Y118000D01*
X165000D01*
G54D54*X316500Y45000D02*Y56993D01*
G54D56*X287000Y66000D02*Y45000D01*
G54D50*X277157D02*Y54157D01*
X279126Y56126D01*
Y66000D01*
X271252D02*Y57252D01*
X267315Y53315D01*
Y45000D01*
X263378Y66000D02*Y58878D01*
X257472Y52972D01*
Y45000D01*
X255504Y66000D02*Y61004D01*
X247630Y53130D01*
Y45000D01*
G54D52*X116500Y58500D02*Y145000D01*
X148000Y176500D01*
G54D50*X129500Y158000D02*X112500Y175000D01*
G54D52*X148000Y176500D02*X258500D01*
G54D50*X112500Y175000D02*X27000D01*
X254500Y176500D02*X252500D01*
X253500D02*X259500D01*
G54D49*X231252Y93248D02*X196500Y128000D01*
X165000D01*
G54D50*X442000Y128500D02*Y157000D01*
X252000Y119500D02*X271000Y138500D01*
X270972Y138528D01*
X292500Y115000D02*X300500Y123000D01*
X270972Y138528D02*Y165287D01*
X300500Y123000D02*Y164500D01*
G54D49*X291000Y140500D02*Y165000D01*
X290500Y165500D01*
G54D50*X291000Y166000D02*Y176000D01*
X281000D02*Y166000D01*
X300500Y177000D02*Y185000D01*
X271000Y166000D02*Y176000D01*
X263000Y185000D02*X254500Y176500D01*
X259500D02*X268000Y185000D01*
X265500D01*
X258000Y177500D01*
X263000Y185000D02*X344500D01*
X347000Y182500D01*
X377000D01*
G54D52*X510500D01*
X514000Y179000D01*
G54D50*X219000Y75500D02*Y69000D01*
G54D51*X627500Y60500D02*X640000Y48000D01*
X645500D01*
G54D49*X745630Y51000D02*X745500Y50870D01*
G54D57*Y27000D01*
G54D49*X568500Y86000D02*X602500Y120000D01*
X600500Y123500D02*X566000Y89000D01*
X564000Y92000D02*X599000Y127000D01*
X597000Y130000D02*X562000Y95000D01*
G54D51*X734500Y76500D02*X716000Y95000D01*
X699500Y75000D02*Y95000D01*
G54D49*X451500Y173000D02*X741000D01*
X725500Y169000D02*X449500D01*
X442500D02*X433000D01*
X449500D02*X444500Y174000D01*
G54D50*X514000Y179000D02*X748000D01*
G54D53*X165000Y118000D03*
Y108000D03*
Y98000D03*
Y88000D03*
Y78000D03*
Y68000D03*
Y58000D03*
Y48000D03*
Y38000D03*
Y28000D03*
G54D58*G36*
X195500Y21500D02*Y14500D01*
X202500D01*
Y21500D01*
X195500D01*
G37*
G36*
X178000D02*Y14500D01*
X185000D01*
Y21500D01*
X178000D01*
G37*
G54D59*X155000Y108000D03*
Y98000D03*
Y88000D03*
Y78000D03*
Y68000D03*
Y58000D03*
Y48000D03*
Y38000D03*
Y28000D03*
G54D58*G36*
X297000Y180500D02*Y173500D01*
X304000D01*
Y180500D01*
X297000D01*
G37*
G36*
Y168000D02*Y161000D01*
X304000D01*
Y168000D01*
X297000D01*
G37*
G54D53*X290657Y177787D03*
Y165287D03*
X280815Y177000D03*
Y164500D03*
X270972Y177787D03*
Y165287D03*
G54D60*X342000Y138300D03*
G54D58*G36*
X258606Y117894D02*Y111106D01*
X265394D01*
Y117894D01*
X258606D01*
G37*
G54D61*X252157Y114500D03*
X242315D03*
X232472D03*
X222630D03*
G54D60*X342000Y112700D03*
G54D58*G36*
X283606Y48394D02*Y41606D01*
X290394D01*
Y48394D01*
X283606D01*
G37*
G54D61*X277157Y45000D03*
X267315D03*
X257472D03*
X247630D03*
X237787D03*
X227945D03*
X218102D03*
G54D58*G36*
X283819Y69181D02*Y62819D01*
X290181D01*
Y69181D01*
X283819D01*
G37*
G54D62*X279126Y66000D03*
X271252D03*
X336508Y68500D03*
X328634D03*
X263378Y66000D03*
X255504D03*
X247630D03*
X239756D03*
X231882D03*
G54D58*G36*
X243819Y90512D02*Y84150D01*
X250181D01*
Y90512D01*
X243819D01*
G37*
G54D62*X239126Y87331D03*
X231252D03*
X223378D03*
X215504D03*
G54D53*X85000Y108000D03*
Y118000D03*
Y128000D03*
Y138000D03*
Y148000D03*
Y158000D03*
Y58000D03*
Y68000D03*
Y78000D03*
Y88000D03*
G54D58*G36*
X81500Y31500D02*Y24500D01*
X88500D01*
Y31500D01*
X81500D01*
G37*
G54D53*X85000Y38000D03*
G54D59*X95000Y28000D03*
Y38000D03*
G54D53*X85000Y48000D03*
G54D59*X95000D03*
Y58000D03*
Y68000D03*
G54D58*G36*
X22000Y75672D02*Y68672D01*
X29000D01*
Y75672D01*
X22000D01*
G37*
G54D53*X35343Y71778D03*
X45185Y72172D03*
G54D58*G36*
X43606Y26394D02*Y19606D01*
X50394D01*
Y26394D01*
X43606D01*
G37*
G36*
X41693Y101181D02*Y94819D01*
X48055D01*
Y101181D01*
X41693D01*
G37*
G54D62*X37000Y98000D03*
X29126D03*
G54D61*X37157Y23000D03*
X27315D03*
G54D53*X165000Y158000D03*
Y148000D03*
Y138000D03*
G54D59*X155000Y158000D03*
Y148000D03*
Y138000D03*
G54D53*X165000Y128000D03*
G54D59*X155000D03*
Y118000D03*
G54D53*X85000Y98000D03*
G54D59*X95000Y78000D03*
Y88000D03*
Y98000D03*
Y108000D03*
Y118000D03*
Y128000D03*
Y138000D03*
Y148000D03*
Y158000D03*
G54D63*X645500Y73000D03*
G54D64*Y48000D03*
G54D65*X627500Y60500D03*
G54D58*G36*
X396319Y71681D02*Y65319D01*
X402681D01*
Y71681D01*
X396319D01*
G37*
G54D62*X391626Y68500D03*
X383752D03*
X375878D03*
X368004D03*
X360130D03*
X352256D03*
X344382D03*
G54D58*G36*
X401690Y48394D02*Y41606D01*
X408477D01*
Y48394D01*
X401690D01*
G37*
G36*
X611000Y38000D02*Y30000D01*
X619000D01*
Y38000D01*
X611000D01*
G37*
G36*
X591000D02*Y30000D01*
X599000D01*
Y38000D01*
X591000D01*
G37*
G54D61*X395240Y45000D03*
X385398D03*
X375555D03*
X365713D03*
X355870D03*
X346028D03*
X336185D03*
X326343D03*
X316500D03*
G54D58*G36*
X1081449Y26894D02*Y20106D01*
X1088236D01*
Y26894D01*
X1081449D01*
G37*
G54D61*X1075000Y23500D03*
X1065158D03*
G54D58*G36*
X1037819Y27181D02*Y20819D01*
X1044181D01*
Y27181D01*
X1037819D01*
G37*
G54D62*X1033126Y24000D03*
X1025252D03*
G54D58*G36*
X742130Y54500D02*Y47500D01*
X749130D01*
Y54500D01*
X742130D01*
G37*
G54D53*X755473Y50606D03*
X765315Y51000D03*
X775158Y50606D03*
X785000Y51000D03*
X794843Y50606D03*
X804685Y51000D03*
X814528Y50606D03*
X824370Y51000D03*
X834213Y50606D03*
G54D58*G36*
X987130Y85000D02*Y78000D01*
X994130D01*
Y85000D01*
X987130D01*
G37*
G54D53*X1000473Y81106D03*
X1010315Y81500D03*
X1020158Y81106D03*
X1030000Y81500D03*
X1039843Y81106D03*
X1049685Y81500D03*
X1059528Y81106D03*
X1069370Y81500D03*
X1079213Y81106D03*
G54D58*G36*
X905500Y54000D02*Y47000D01*
X912500D01*
Y54000D01*
X905500D01*
G37*
G54D53*X918843Y50106D03*
X928685Y50500D03*
X938528Y50106D03*
X948370Y50500D03*
X958213Y50106D03*
X968055Y50500D03*
X977898Y50106D03*
G54D66*X699500Y75000D03*
G54D67*X815000Y19000D03*
G54D68*X869500Y113000D03*
X794500Y119500D03*
X857500Y113000D03*
G54D53*X1012500Y52000D03*
G54D69*X778500Y148500D03*
X906500Y122000D03*
X820000Y147000D03*
G54D68*X131500Y121500D03*
G54D67*X65000Y14500D03*
G54D55*X27000Y175000D03*
G54D53*X283000Y99500D03*
G54D68*X291000Y140500D03*
X352500Y17000D03*
G54D55*X389000Y132000D03*
G54D68*X381500Y125500D03*
X376500Y132000D03*
G54D55*X219000Y69500D03*
G54D68*X199000Y83500D03*
X239000Y98500D03*
G54D53*X514000Y179000D03*
G54D68*X501500Y22000D03*
G54D53*X491000Y62500D03*
G54D67*X469000Y22000D03*
G54D53*X448000Y121000D03*
G54D68*X442000Y157000D03*
Y128500D03*
X425500Y107500D03*
X430500Y112500D03*
X433000Y169000D03*
G54D55*X377000Y182500D03*
G54D70*G54D71*G54D72*G54D73*G54D57*G54D71*G54D73*G54D57*G54D73*G54D74*G54D57*G54D71*G54D57*G54D71*G54D57*G54D71*G54D73*G54D72*G54D73*G54D71*G54D57*G54D71*G54D74*G54D72*G54D71*G54D57*G54D75*G54D72*G54D56*G54D72*G54D56*G54D72*G54D76*G54D75*G54D72*G54D76*G54D72*G54D75*G54D77*G54D70*G54D76*G54D72*G54D75*G54D72*G54D76*G54D72*M02*
