G04 start of page 11 for group -4079 idx -4079 *
G04 Title: AYAB-RS_D, topsilk *
G04 Creator: pcb 20140316 *
G04 CreationDate: Fri Dec 25 22:38:06 2015 UTC *
G04 For: oskay *
G04 Format: Gerber/RS-274X *
G04 PCB-Dimensions (mil): 11000.00 2070.00 *
G04 PCB-Coordinate-Origin: lower left *
%MOIN*%
%FSLAX25Y25*%
%LNTOPSILK*%
%ADD204C,0.0067*%
%ADD203C,0.0074*%
%ADD202C,0.0066*%
%ADD201C,0.0080*%
%ADD200C,0.0080*%
%ADD199C,0.0050*%
%ADD198C,0.0061*%
%ADD197C,0.0073*%
%ADD196C,0.0119*%
%ADD195C,0.0082*%
%ADD194C,0.0110*%
%ADD193C,0.0062*%
%ADD192C,0.0064*%
%ADD191C,0.0100*%
%ADD190C,0.0120*%
%ADD189C,0.0250*%
%ADD188C,0.0150*%
%ADD187C,0.0070*%
%ADD186C,0.0060*%
G54D186*X954127Y163470D02*X954327Y163270D01*
X954127Y164470D02*Y163470D01*
G54D187*X948942Y164819D02*X952224D01*
X959131Y166500D02*X951753D01*
X959131Y166501D02*X951753D01*
X953939Y164829D02*X954378Y164840D01*
G54D188*X954327Y163470D02*X956027Y157970D01*
X954127Y158770D02*X954327Y163470D01*
G54D187*X953310Y158763D02*X953939Y164829D01*
X950694Y150468D02*X947413D01*
X950694Y150469D02*X947413D01*
G54D188*X943327Y155970D02*X945427Y160070D01*
X942527Y153370D02*X943327Y155970D01*
X945727Y158570D02*X942527Y153370D01*
G54D187*X941629Y150495D02*X946582Y158579D01*
G54D188*X941627Y151470D02*X942327Y156470D01*
G54D187*X941015Y150495D02*X941629D01*
X941715Y156848D02*X941015Y150495D01*
X952224Y164818D02*X950694Y150468D01*
G54D188*X949327Y151270D02*X950427Y163470D01*
X949927Y151270D02*X949327D01*
X951327Y164170D02*X949927Y151270D01*
X949427Y164170D02*X951327D01*
G54D187*X952224Y164819D02*X950694Y150469D01*
G54D188*X956527Y151870D02*X954227Y159070D01*
X956527Y152170D02*Y151870D01*
X956027Y157970D02*X956627Y156270D01*
G54D187*X956554Y150495D02*X953310Y158763D01*
G54D188*X956627Y156270D02*Y152070D01*
G54D187*X956956Y150495D02*X956554D01*
X954378Y164840D02*X957617Y156620D01*
X956956Y150495D01*
X947413Y150468D02*X948942Y164818D01*
X947413Y150469D02*X948942Y164819D01*
G54D188*X948327Y151170D02*X949427Y164170D01*
G54D187*X949500Y166501D02*X942057D01*
G54D188*X946627Y163970D02*X945727Y158570D01*
X942327Y156470D02*X946627Y163970D01*
G54D187*X946582Y158579D02*X947254Y164829D01*
X946599D01*
X941715Y156848D01*
G54D186*X949027Y138370D02*X949427Y137970D01*
X948927Y138370D02*X949027D01*
G54D187*X947257Y141591D02*X949270Y137251D01*
X948956Y138742D02*X947709Y141591D01*
X947257D01*
X949270Y137251D02*X951284Y141591D01*
X950903D01*
X949585Y138742D01*
X949548Y138671D01*
X949477Y138606D01*
X949309Y138541D01*
X949130Y138569D01*
X949028Y138641D01*
X948956Y138742D01*
X952986Y141591D02*Y137321D01*
X953470Y141591D02*X952986D01*
Y137321D02*X953470D01*
Y141591D01*
X955764Y145308D02*Y137321D01*
X956248D01*
X953469Y144411D02*X953549Y144533D01*
X956248Y137321D02*Y145308D01*
X953549Y144533D02*X953578Y144683D01*
X953550Y144837D01*
X953471Y144957D01*
X953349Y145035D01*
X953193Y145063D01*
X956248Y145308D02*X955764D01*
X953193Y145063D02*X953052Y145037D01*
X952942Y144963D01*
X952871Y144843D01*
X952846Y144683D01*
X952872Y144529D01*
X952944Y144407D01*
X953054Y144327D01*
X953193Y144298D01*
X953347Y144328D01*
X953469Y144411D01*
X942475Y137832D02*X942779Y137559D01*
X943769Y137563D02*X943434Y137665D01*
X943133Y137825D01*
X942871Y138034D01*
X942655Y138284D01*
X942488Y138566D01*
X942055Y138549D02*X942232Y138165D01*
X942475Y137832D01*
X942779Y137559D02*X943142Y137354D01*
X943560Y137225D01*
X944030Y137180D01*
X944523Y137228D01*
X944944Y137351D01*
X944516Y137574D02*X944132Y137527D01*
X943769Y137563D01*
X944944Y137351D02*X945289Y137519D01*
X945555Y137701D01*
X945381Y137945D01*
X945348Y137977D01*
X945123Y137836D01*
X944846Y137689D01*
X944516Y137574D01*
X942673Y139579D02*X945939D01*
X945133Y141383D02*X944802Y141552D01*
X944432Y141657D01*
X944030Y141694D01*
Y141449D02*X944589Y141335D01*
X945041Y141026D01*
X945136Y139648D02*X942743D01*
X945934Y140166D02*X945825Y140541D01*
X945351Y140573D02*X945484Y140029D01*
X945825Y140541D02*X945651Y140872D01*
X945418Y141154D01*
X945133Y141383D01*
X945041Y141026D02*X945351Y140573D01*
X945939Y139579D02*X945958Y139683D01*
X945973Y139752D01*
X945934Y140166D01*
X945484Y140029D02*X945455Y139853D01*
X945348Y139713D01*
X945136Y139648D01*
X943149Y141515D02*X942786Y141306D01*
X942481Y141029D01*
X942572Y140587D02*X942932Y141038D01*
X943433Y141339D01*
X944030Y141694D02*X943565Y141647D01*
X943149Y141515D01*
X943433Y141339D02*X944030Y141449D01*
X942481Y141029D02*X942236Y140695D01*
X942467Y139508D02*X942673Y139579D01*
X942743Y139648D02*X942532Y139713D01*
X942467Y139784D01*
X942396Y140029D02*X942572Y140587D01*
X942467Y139784D02*X942396Y139887D01*
Y140029D01*
X942236Y140695D02*X942057Y140312D01*
X941946Y139889D01*
X941909Y139437D01*
X941946Y138975D01*
X942055Y138549D01*
X942488Y138566D02*X942376Y138872D01*
X942325Y139192D01*
X942356Y139368D01*
X942467Y139508D01*
X975394Y171798D02*X975301Y171936D01*
X975163Y172035D01*
X974994Y172072D01*
X975301Y171936D02*X975162Y172034D01*
X974994Y172071D01*
Y172072D02*X967768D01*
Y176976D01*
X973866D01*
X974994Y172071D02*X967768D01*
Y176976D01*
X973865D01*
Y179125D02*X967768D01*
X973866Y179124D02*X967768D01*
X974300Y177411D02*Y178691D01*
Y177410D02*Y178691D01*
X974266Y178860D01*
X974300Y178691D02*X974265Y178860D01*
X974266D02*X974172Y178998D01*
X974034Y179090D01*
X973865Y179125D01*
X974265Y178860D02*X974172Y178997D01*
X974035Y179090D01*
X973866Y179124D01*
X973865Y176976D02*X974034Y177010D01*
X974172Y177104D01*
X973866Y176976D02*X974035Y177010D01*
X974172Y177104D01*
X974266Y177242D01*
X974300Y177411D01*
X974172Y177104D02*X974265Y177242D01*
X974300Y177410D01*
X967768Y179125D02*Y183791D01*
X965424Y185505D02*Y170379D01*
X967768Y179124D02*Y183791D01*
X974994D02*X975162Y183828D01*
X975301Y183926D01*
X975394Y184065D01*
X975429Y184224D01*
Y185505D01*
G54D189*X967027Y178070D02*X973127D01*
G54D187*X975428Y170379D02*Y171638D01*
X975394Y171798D01*
X967768Y183791D02*X974994D01*
X975163Y183829D01*
X975301Y183927D01*
X975394Y184065D01*
X975428Y184225D01*
Y185505D01*
X975394Y185674D01*
X975301Y185812D01*
X975163Y185905D01*
X975301Y185812D02*X975162Y185905D01*
X975429Y185505D02*X975394Y185674D01*
X965859Y185938D02*X965680Y185905D01*
X965543Y185812D01*
X965455Y185674D01*
X965424Y185505D01*
X975163Y185905D02*X974994Y185938D01*
X965859D01*
X975162Y185905D02*X974994Y185940D01*
X965859D01*
X965680Y185905D01*
X960704Y185912D02*X960096Y185907D01*
X960704Y185912D02*X960096Y185906D01*
G54D189*X966527Y184770D02*X974427Y184870D01*
G54D187*X978532Y178842D02*X978474Y178935D01*
X978391Y179011D02*X978276Y179062D01*
X978120Y179081D01*
X976774D01*
X976564Y179043D01*
X976432Y178935D02*X976389Y178770D01*
X976448Y178560D01*
G54D188*X977327Y178270D02*X977927Y178370D01*
G54D189*X966427Y170970D02*X966527Y184770D01*
G54D187*X965543Y170073D02*X965680Y169980D01*
X965859Y169945D01*
X960096Y185907D02*X955138Y177829D01*
X960010Y179554D02*X960704Y185912D01*
X960096Y185906D02*X955138Y177829D01*
G54D188*X956727Y177770D02*X958727Y180870D01*
X960127Y185070D02*X959127Y179570D01*
X955827Y173870D02*X956727Y177770D01*
X959127Y179570D02*X955827Y173870D01*
X955727Y177670D02*X960127Y185070D01*
G54D189*X974227Y170970D02*X966427D01*
G54D187*X965424Y170379D02*X965455Y170211D01*
X965543Y170073D01*
X965859Y169945D02*X974994D01*
X975163Y169980D01*
X975301Y170073D01*
X975394Y170211D01*
X975428Y170379D01*
X980485Y169945D02*X980533Y169863D01*
X980615Y169786D01*
X980729Y169729D01*
X980615Y169785D02*X980729Y169728D01*
X980484Y169945D02*X980534Y169862D01*
X980615Y169785D01*
X981375Y169945D02*X985411Y178561D01*
X981374Y169945D02*X985411Y178560D01*
X983393Y178843D02*X980940Y173438D01*
X983393Y178842D02*X980941Y173440D01*
G54D188*X987927Y178070D02*X988027Y170670D01*
X984527Y178570D02*X981027Y170470D01*
X984027Y178170D02*X984527Y178570D01*
X980927Y171770D02*X984027Y178170D01*
G54D187*X974994Y169945D02*X975162Y169980D01*
X975301Y170073D01*
X975394Y170211D02*X975429Y170379D01*
Y171638D01*
X975394Y171797D01*
X975301Y171936D01*
X981121Y169729D02*X981236Y169786D01*
X981323Y169863D01*
X981375Y169945D01*
X981236Y169785D02*X981323Y169862D01*
X981374Y169945D01*
X980729Y169729D02*X980875Y169707D01*
X980984D01*
X981121Y169729D01*
X980729Y169728D02*X980876Y169706D01*
X980984D01*
X981121Y169728D01*
X981236Y169785D01*
G54D188*X987527Y164970D02*X987927Y164270D01*
X988027Y165170D02*X987527Y164970D01*
X988527Y164870D02*X988027Y165170D01*
X988527Y164270D02*Y164870D01*
X988027Y170670D02*X988527D01*
G54D187*X978532Y178843D02*X978474Y178935D01*
X978391Y179011D01*
X978275Y179063D01*
X978119Y179082D01*
X976774D01*
X976564Y179043D01*
X976432Y178935D01*
X976389Y178771D01*
X976449Y178561D01*
X980940Y173438D02*X980919D01*
X980941Y173440D02*X980919D01*
X976448Y178560D02*X980484Y169945D01*
X980919Y173438D02*X978532Y178843D01*
X976449Y178561D02*X980485Y169945D01*
X980919Y173440D02*X978532Y178842D01*
G54D188*X981027Y170470D02*X977827Y177870D01*
X977927Y178370D02*X980927Y171770D01*
G54D187*X985411Y178561D02*X985461Y178771D01*
X985417Y178935D01*
X985283Y179043D01*
X985064Y179082D01*
X985461Y178770D02*X985417Y178935D01*
X985283Y179043D02*X985064Y179081D01*
Y179082D02*X984022D01*
X983832Y179078D01*
X983659Y179052D01*
X985064Y179081D02*X984023D01*
X983832Y179078D01*
X983659Y179052D02*X983510Y178981D01*
X983658Y179051D02*X983509Y178981D01*
X983510D02*X983393Y178843D01*
X983509Y178981D02*X983393Y178842D01*
X985411Y178560D02*X985461Y178770D01*
X983832Y179078D02*X983658Y179051D01*
X988319Y182813D02*X988841Y182917D01*
X989268Y183199D01*
X989557Y183620D01*
X988319Y182815D02*X988841Y182918D01*
X989268Y183199D01*
G54D188*X988727Y184170D02*X988527Y184770D01*
G54D187*X989268Y183199D02*X989558Y183620D01*
Y184669D02*X989268Y185095D01*
G54D188*X988327Y183570D02*X988727Y184170D01*
G54D187*X989268Y185095D02*X988841Y185380D01*
X988319Y185483D01*
X987804Y185380D01*
X989557Y183620D02*X989664Y184138D01*
X989557Y184669D01*
X989268Y185095D01*
X989558Y183620D02*X989664Y184138D01*
X989558Y184669D01*
G54D188*X988527Y184770D02*X987727Y184070D01*
G54D187*X988992Y179082D02*X987690D01*
X987530Y179048D01*
X988992Y179081D02*X987690D01*
X989427Y178647D02*X989392Y178816D01*
X989299Y178954D01*
X989425Y178648D02*X989391Y178816D01*
X989298Y178954D01*
X989299D02*X989160Y179048D01*
X988992Y179082D01*
X989298Y178954D02*X989161Y179047D01*
X988992Y179081D01*
X987690D02*X987530Y179047D01*
X987391Y178954D01*
X987292Y178816D01*
X987255Y178648D01*
X987804Y185380D02*X987391Y185095D01*
X987804Y185380D02*X987392Y185095D01*
X987391D02*X987116Y184669D01*
X987017Y184138D01*
X987392Y185095D02*X987117Y184669D01*
X987018Y184138D01*
X987017D02*X987116Y183620D01*
X987391Y183199D01*
X987804Y182917D01*
X987018Y184138D02*X987117Y183620D01*
X987392Y183199D01*
X987804Y182918D01*
Y182917D02*X988319Y182813D01*
X987804Y182918D02*X988319Y182815D01*
G54D188*X993727Y170670D02*X993927Y185270D01*
X993227Y170670D02*X993727D01*
X993027Y184970D02*X993227Y170670D01*
X988527D02*X988627Y178570D01*
G54D187*X955138Y177829D02*X954471Y171573D01*
X955127D01*
G54D188*X950427Y173170D02*X951227Y173370D01*
G54D187*X954318Y185923D02*X952789Y171573D01*
X949506D02*X951036Y185923D01*
G54D188*X951227Y173370D02*X952727Y183970D01*
X951827Y185070D02*X950427Y173170D01*
X953627Y184970D02*X951827Y185070D01*
X952127Y172270D02*X953627Y184970D01*
X950127Y172270D02*X952127D01*
G54D187*X948415Y177638D02*X947786Y171573D01*
X947342Y171568D02*X944103Y179782D01*
X947342Y171567D02*X944103Y179781D01*
X955127Y171573D02*X960010Y179554D01*
G54D188*X955027Y172570D02*X955727Y177670D01*
G54D187*X948942Y164818D02*X952224D01*
X952789Y171573D02*X949506D01*
X949810Y169875D02*X949500Y166500D01*
X949810Y169874D02*X949500Y166501D01*
X951753Y166500D02*X952061Y169875D01*
X951753Y166501D02*X952061Y169874D01*
X947786Y171573D02*X947342Y171568D01*
X947786Y171573D02*X947342Y171567D01*
X942427Y169875D02*X949810D01*
X942427Y169874D02*X949810D01*
X949500Y166500D02*X942057D01*
G54D188*X943227Y168270D02*X948227Y168170D01*
X942027Y167470D02*X943227Y168270D01*
X948827Y167370D02*X942027Y167470D01*
X942827Y169070D02*X948927Y169170D01*
X941427Y168270D02*X942827Y169070D01*
X948927Y169170D02*X948827Y167370D01*
G54D187*X940452Y168176D02*X942427Y169875D01*
X940452Y168177D02*X942427Y169874D01*
X942057Y166500D02*X940452Y168176D01*
X942057Y166501D02*X940452Y168177D01*
X944769Y185907D02*X945165D01*
X951036Y185923D02*X954318D01*
X945165Y185907D02*X948415Y177638D01*
X945165Y185906D02*X948415Y177638D01*
G54D188*X945127Y184670D02*X947627Y177470D01*
X944927Y182870D02*X946927Y176570D01*
X947427Y172770D02*X944727Y180070D01*
X947627Y177470D02*X947427Y172770D01*
G54D187*X944103Y179782D02*X944769Y185907D01*
Y185906D02*X945165D01*
X944103Y179781D02*X944769Y185906D01*
G54D188*X944727Y180070D02*X944927Y182870D01*
X952527Y168070D02*X958427Y168270D01*
X958627Y169170D02*X952627Y168970D01*
X952327Y166970D02*X959027Y167570D01*
G54D187*X952061Y169875D02*X959500D01*
X952061Y169874D02*X959500D01*
G54D188*X952627Y168970D02*X952527Y168070D01*
X960127Y168370D02*X958627Y169170D01*
X959027Y167570D02*X960127Y168370D01*
G54D187*X961106Y168204D02*X959131Y166500D01*
X961106Y168204D02*X959131Y166501D01*
X959500Y169875D02*X961106Y168204D01*
X959500Y169874D02*X961106Y168204D01*
X964893Y152112D02*X965096Y151934D01*
X965424Y151681D01*
X965095Y151934D02*X965423Y151681D01*
X965424D02*X965874Y151383D01*
X965423Y151681D02*X965874Y151383D01*
X964892Y152112D02*X965095Y151934D01*
X967884Y152845D02*X967342Y153124D01*
X966877Y153408D01*
X966507Y153663D01*
X966251Y153858D01*
X966507Y153663D02*X966251Y153857D01*
X965723Y154049D02*X965525Y153957D01*
X965349Y153783D01*
X965055Y153306D01*
X965525Y153956D02*X965349Y153783D01*
X965055Y153306D02*X964763Y152829D01*
X964655Y152576D01*
X966251Y153858D02*X966129Y153957D01*
X965928Y154052D01*
X965723Y154049D01*
X966251Y153857D02*X966129Y153956D01*
X965928Y154051D01*
X965723Y154049D01*
X965525Y153956D01*
X964655Y152576D02*X964665Y152389D01*
X964757Y152242D01*
X964893Y152112D01*
X964665Y152389D02*X964756Y152242D01*
X964892Y152112D01*
X965874Y151383D02*X966441Y151070D01*
X967122Y150774D01*
X967911Y150525D01*
X968804Y150353D01*
X966441Y151070D02*X967122Y150775D01*
X967910Y150525D01*
X968803Y150354D01*
G54D189*X966127Y152570D02*X967927Y151670D01*
G54D187*X974800Y153743D02*X974897Y154608D01*
X976503Y155086D02*X976603Y154088D01*
X976889Y153173D01*
X976605Y156065D02*X976503Y155086D01*
Y155085D02*X976603Y154088D01*
X976605Y156065D02*X976503Y155085D01*
X974897Y154608D02*X974795Y155588D01*
X974503Y156440D01*
X974794Y155588D02*X974503Y156440D01*
X974043Y157178D01*
X974503Y156440D02*X974043Y157179D01*
X977351Y157792D02*X976895Y156973D01*
X976605Y156065D01*
X977351Y157792D02*X976896Y156973D01*
X976605Y156065D01*
X974799Y153743D02*X974897Y154608D01*
X974794Y155588D01*
X974043Y157178D02*X973438Y157820D01*
X972708Y158380D01*
X974043Y157179D02*X973437Y157820D01*
X972708Y158380D01*
X971876Y158874D01*
X970963Y159319D01*
X969992Y159729D01*
X972708Y158380D02*X971876Y158875D01*
X970963Y159319D01*
G54D189*X973527Y155470D02*X971827Y157570D01*
X973327Y153270D02*X973527Y155470D01*
G54D187*X969703Y157335D02*X970398Y156981D01*
X969704Y157334D02*X970399Y156980D01*
X970398Y156981D02*X970990Y156621D01*
X970399Y156980D02*X970991Y156621D01*
X970990D02*X971478Y156249D01*
X970991Y156621D02*X971479Y156249D01*
X972301Y154990D02*X972357Y154500D01*
X972311Y154078D01*
X972176Y153682D01*
X972303Y154990D02*X972359Y154499D01*
X972312Y154078D01*
X972177Y153682D01*
X971478Y156249D02*X971860Y155858D01*
X972135Y155440D01*
X972301Y154990D01*
X971479Y156249D02*X971862Y155857D01*
X972137Y155440D01*
X972303Y154990D01*
X968804Y150353D02*X969797Y150288D01*
X970870Y150377D01*
X971848Y150631D01*
X969797Y150290D02*X970869Y150378D01*
X968803Y150354D02*X969797Y150290D01*
X970869Y150378D02*X971848Y150632D01*
X971289Y152743D02*X970848Y152543D01*
X970341Y152417D01*
X969776Y152373D01*
X969119Y152437D01*
G54D189*X969927Y151370D02*X971627Y151670D01*
X967927D02*X969927Y151370D01*
G54D187*X974518Y152935D02*X974800Y153743D01*
X974518Y152935D02*X974799Y153743D01*
X972176Y153682D02*X971958Y153321D01*
X971660Y153005D01*
X972177Y153682D02*X971959Y153321D01*
X971661Y153005D01*
X971660D02*X971288Y152742D01*
X970847Y152543D01*
X970341Y152416D01*
X969775Y152372D01*
X969119Y152436D01*
X968482Y152604D01*
X967884Y152845D01*
X969119Y152437D02*X968482Y152605D01*
X967884Y152845D01*
X971661Y153005D02*X971289Y152743D01*
X971848Y150631D02*X972717Y151032D01*
X973462Y151561D01*
X971848Y150632D02*X972717Y151032D01*
X973461Y151562D01*
G54D189*X971627Y151670D02*X973327Y153270D01*
G54D187*X973462Y151561D02*X974067Y152202D01*
X974518Y152935D01*
X973461Y151562D02*X974067Y152202D01*
X969992Y159729D02*X969318Y160024D01*
X968732Y160327D01*
X968233Y160643D01*
X967822Y160977D01*
X969992Y159730D02*X969319Y160025D01*
X968732Y160327D01*
X967822Y160977D02*X967501Y161336D01*
X967270Y161725D01*
X967131Y162149D01*
X967085Y162615D01*
X967117Y162947D01*
X967270Y161725D02*X967131Y162150D01*
X967085Y162616D01*
X970963Y159319D02*X969992Y159730D01*
X967117Y162947D02*X967219Y163295D01*
X967398Y163640D01*
X967117Y162948D02*X967219Y163295D01*
X968010Y164248D02*X968457Y164474D01*
X969007Y164624D01*
X969667Y164678D01*
X968010Y164248D02*X968458Y164474D01*
X969008Y164623D01*
X969667Y164677D01*
X965386Y164650D02*X965033Y163941D01*
X964828Y163221D01*
X965033Y163940D02*X964829Y163221D01*
X967398Y163640D02*X967660Y163964D01*
X968010Y164248D01*
X967398Y163640D02*X967659Y163964D01*
X968010Y164248D01*
X965386Y164649D02*X965033Y163940D01*
X964828Y163221D02*X964763Y162529D01*
X964829Y163221D02*X964763Y162529D01*
X964846Y161601D01*
X965084Y160793D01*
X965462Y160092D01*
X967085Y162616D02*X967117Y162948D01*
G54D189*X966027Y162170D02*X966327Y163870D01*
X966827Y160270D02*X966027Y162170D01*
G54D187*X965462Y160092D02*X965964Y159483D01*
X966575Y158952D01*
X965462Y160092D02*X965964Y159482D01*
X966575Y158952D01*
X968062Y158070D02*X968907Y157690D01*
X969703Y157335D01*
X966575Y158952D02*X967280Y158486D01*
X968062Y158070D01*
X966575Y158952D02*X967280Y158485D01*
X968062Y158070D01*
G54D189*X971827Y157570D02*X966827Y160270D01*
G54D187*X968062Y158070D02*X968908Y157690D01*
X969704Y157334D01*
X969667Y164678D02*X970173Y164632D01*
X970685Y164510D01*
X971183Y164336D01*
X971647Y164135D01*
X969667Y164677D02*X970173Y164631D01*
X970685Y164510D01*
X971647Y164135D02*X972055Y163929D01*
X972389Y163744D01*
X972055Y163929D02*X972389Y163743D01*
Y163744D02*X972627Y163602D01*
X972749Y163528D01*
X972984Y163440D01*
X972389Y163743D02*X972627Y163601D01*
X972749Y163527D01*
X972984Y163440D02*X973198Y163460D01*
X973389Y163573D01*
X972984Y163439D02*X973198Y163459D01*
X973389Y163573D01*
X972749Y163527D02*X972984Y163439D01*
X973389Y163573D02*X973552Y163766D01*
X973833Y164192D01*
X973389Y163573D02*X973551Y163766D01*
X973833Y164192D01*
X970580Y166709D02*X969754Y166761D01*
X968499Y166652D01*
X967445Y166350D01*
X970579Y166709D02*X969753Y166760D01*
X968498Y166651D01*
X967444Y166349D01*
X967445Y166350D02*X966582Y165891D01*
X967444Y166349D02*X966582Y165890D01*
Y165891D02*X965899Y165312D01*
X966582Y165890D02*X965899Y165312D01*
X965386Y164650D01*
X965899Y165312D02*X965386Y164649D01*
G54D189*X968527Y165670D02*X969927Y165770D01*
X967227Y164970D02*X968527Y165670D01*
X966327Y163870D02*X967227Y164970D01*
G54D187*X973833Y164192D02*X974115Y164634D01*
X974220Y164875D01*
X974205Y165095D01*
X974112Y165274D01*
X973985Y165393D01*
X974205Y165095D02*X974113Y165275D01*
X973986Y165394D01*
X973543Y165680D02*X973142Y165902D01*
X973985Y165393D02*X973828Y165501D01*
X973543Y165680D01*
X973986Y165394D02*X973829Y165503D01*
X973544Y165681D01*
X973142Y165903D01*
Y165902D02*X972634Y166142D01*
X972031Y166374D01*
X973142Y165903D02*X972634Y166142D01*
X971342Y166571D02*X970579Y166709D01*
X972031Y166374D02*X971343Y166572D01*
X970580Y166709D01*
X972031Y166374D02*X971342Y166571D01*
G54D189*X969927Y165770D02*X972827Y164970D01*
G54D187*X960761Y141694D02*X960221Y141619D01*
X961195Y141656D02*X960761Y141694D01*
X960221Y141619D02*X959811Y141445D01*
X959528Y141247D01*
X959373Y141102D01*
X959514Y140929D02*X959971Y141197D01*
X960588Y141314D01*
X960893Y141291D01*
X961173Y141216D01*
X959373Y141102D02*X959249Y141029D01*
X959106Y141012D01*
X958966Y141049D01*
X958852Y141141D01*
X958786Y141244D01*
X958678Y141591D01*
X958542D01*
X959025Y140234D02*X959063Y140376D01*
X958542Y141591D02*Y137321D01*
X959025D01*
Y140234D01*
X959063Y140376D02*X959221Y140649D01*
X959514Y140929D01*
X961173Y141216D02*X961422Y141086D01*
X961630Y140896D01*
X962085Y141070D02*X961840Y141346D01*
X961549Y141541D01*
X961195Y141656D01*
X962639Y140755D02*X962775Y140874D01*
X962771Y141168D02*X962606Y141033D01*
X962422Y140945D01*
X962221Y140967D01*
X962085Y141070D01*
X961977Y139752D02*Y137321D01*
X962432D01*
Y139784D01*
X962775Y140874D02*X962953Y140999D01*
X963415Y141218D01*
X964028Y141314D01*
X963603Y141601D02*X963121Y141391D01*
X962771Y141168D01*
X964028Y141314D02*X964331Y141285D01*
X964613Y141196D01*
X964621Y141654D02*X964168Y141694D01*
X965070Y140859D02*X965316Y140362D01*
X965384Y139752D01*
X965867Y139713D02*X965773Y140525D01*
X965486Y141141D01*
X965265Y141367D01*
X964613Y141196D02*X964864Y141053D01*
X965070Y140859D01*
X965265Y141367D02*X964982Y141541D01*
X964621Y141654D01*
X964168Y141694D02*X963603Y141601D01*
X962432Y139784D02*X962427Y139962D01*
X962415Y140122D01*
X962403Y140244D01*
X962395Y140305D01*
X962432Y140512D01*
X962498Y140652D01*
X962533Y140673D01*
X962639Y140755D01*
X961630Y140896D02*X961897Y140381D01*
X961977Y139752D01*
X965384D02*Y137321D01*
X965867D02*Y139713D01*
X965384Y137321D02*X965867D01*
X967836Y138985D02*X967766Y138756D01*
X967743Y138498D01*
X967767Y138191D01*
X967836Y137929D01*
X967945Y137708D01*
X968090Y137527D01*
X968440Y137736D02*X968207Y138101D01*
X968124Y138537D01*
X968090Y137527D02*X968267Y137381D01*
X968476Y137272D01*
X968718Y137204D01*
X968992Y137180D01*
X969368Y137225D01*
X969904Y137499D02*X970103Y137669D01*
X969914Y137561D01*
X969368Y137225D02*X969666Y137341D01*
X969904Y137499D01*
X969914Y137561D02*X969707Y137473D01*
X969480Y137413D01*
X969236Y137391D01*
X968792Y137485D01*
X968440Y137736D01*
X968124Y138537D02*X968153Y138791D01*
X968237Y139026D01*
X968369Y139233D01*
X968542Y139405D01*
X968745Y139530D01*
X968972Y139616D01*
X969218Y139666D01*
X969480Y139681D01*
X969839Y139662D01*
X970695Y139231D02*Y138363D01*
X970657Y138189D01*
X970427Y137913D01*
X970103Y137669D01*
X970278Y137738D01*
X970348Y137771D01*
X970538Y137825D01*
X970728Y137771D01*
X970798Y137701D01*
X970973Y137321D01*
X971113D01*
Y139855D01*
X969724Y141694D02*Y141662D01*
X969114Y141649D01*
X968611Y141591D01*
X968356Y141527D01*
X968227Y141488D01*
X968264Y141210D01*
X968820Y141345D01*
X969584Y141417D01*
X969860Y141393D01*
X970119Y141316D01*
X970345Y141186D01*
X970521Y140999D01*
X970637Y140774D01*
X971053Y140671D02*X970868Y141244D01*
X970718Y141433D01*
X970502Y141575D01*
X970183Y141663D01*
X969724Y141694D01*
X970637Y140774D02*X970700Y140527D01*
X970725Y140256D01*
X970728Y139958D01*
Y139855D01*
X971113D02*X971053Y140671D01*
X970728Y139855D02*X970678Y139739D01*
X970592Y139648D01*
X970439Y139593D01*
X970278Y139610D01*
X970201Y139632D01*
X969998Y139681D01*
X970136Y139610D02*X970361Y139542D01*
X970555Y139437D01*
X970625Y139366D01*
X970695Y139231D01*
X969998Y139681D02*X969709Y139730D01*
X969377Y139752D01*
X968634Y139642D01*
X968124Y139366D01*
X967954Y139188D01*
X967836Y138985D01*
X969839Y139662D02*X970136Y139610D01*
X983683Y138535D02*X983892Y138151D01*
X984167Y137820D01*
X984498Y137551D01*
X984875Y137350D01*
X985288Y137224D01*
X985398Y137603D02*X985063Y137713D01*
X984763Y137887D01*
X984502Y138116D01*
X984288Y138394D01*
X984128Y138712D01*
X985288Y137224D02*X985728Y137180D01*
X986214Y137243D01*
X986225Y137629D02*X985761Y137564D01*
X985398Y137603D01*
X986214Y137243D02*X986628Y137417D01*
X986579Y137789D02*X986225Y137629D01*
X986628Y137417D02*X986974Y137682D01*
X987259Y138016D01*
X987048Y138189D01*
X986846Y137993D01*
X986579Y137789D01*
X984128Y138712D02*X984027Y139062D01*
X983992Y139437D01*
X984027Y139809D01*
X984127Y140159D01*
X984287Y140477D01*
X984500Y140756D01*
X984760Y140988D01*
X985061Y141164D01*
X985397Y141276D01*
X985761Y141314D01*
X986430Y141164D02*X986945Y140794D01*
X987188Y140999D01*
X986890Y141294D01*
X985761Y141314D02*X986430Y141164D01*
X986890Y141294D02*X986564Y141512D01*
X986193Y141647D01*
X985761Y141694D01*
X989234Y141591D02*Y137321D01*
X989723D01*
Y141591D01*
X989234D01*
X989478Y145063D02*X989331Y145035D01*
X989210Y144955D01*
X989128Y144834D01*
X989634Y145035D02*X989478Y145063D01*
X989128Y144834D02*X989098Y144683D01*
X989128Y144536D01*
X989212Y144413D01*
X989333Y144329D01*
X989478Y144298D01*
X989632Y144328D01*
X989754Y144411D01*
X989834Y144533D01*
X989863Y144683D01*
X989835Y144837D01*
X989756Y144957D01*
X989634Y145035D01*
X993818Y141694D02*X993353Y141647D01*
X992934Y141514D01*
X992567Y141305D01*
X993194Y141338D02*X993785Y141449D01*
X992567Y141305D02*X992255Y141027D01*
X992003Y140692D01*
X991818Y140309D01*
X991703Y139888D01*
X992185Y140029D02*X992358Y140582D01*
X994221Y141658D02*X993818Y141694D01*
X992185Y139887D02*Y140029D01*
X992358Y140582D02*X992706Y141034D01*
X993194Y141338D01*
X991703Y139888D02*X991664Y139437D01*
X991703Y138977D01*
X991815Y138551D01*
X992167Y138875D02*X992120Y139192D01*
X992148Y139368D01*
X992256Y139508D01*
X992467Y139579D01*
X992532Y139648D02*X992325Y139713D01*
X992256Y139784D01*
X992185Y139887D01*
X991815Y138551D02*X991998Y138167D01*
X992247Y137835D01*
X992557Y137561D01*
X992434Y138289D02*X992273Y138571D01*
X992167Y138875D01*
X992557Y137561D02*X992926Y137355D01*
X993195Y137667D02*X992899Y137828D01*
X994263Y137567D02*X993889Y137527D01*
X992926Y137355D02*X993347Y137225D01*
X993818Y137180D01*
X994301Y137228D01*
X993889Y137527D02*X993526Y137563D01*
X993195Y137667D01*
X992899Y137828D02*X992644Y138038D01*
X992434Y138289D01*
X975209Y141314D02*X975723Y141265D01*
X976130Y141157D01*
X976398Y141049D01*
X976495Y140999D01*
X976598Y140896D01*
X976668Y140755D01*
Y138671D01*
X976631Y145308D02*Y141796D01*
X977118Y137321D02*Y145308D01*
X976631D01*
Y141796D02*X976560Y141591D01*
X976495Y141520D01*
X976346Y141448D01*
X976181Y141449D01*
X976014Y141516D01*
X975800Y141591D01*
X975489Y141661D01*
X975106Y141694D01*
X976668Y138671D02*X976631Y138537D01*
X976577Y138430D01*
X976493Y138294D01*
X975763Y137689D02*X975139Y137564D01*
X974778Y137607D01*
X974964Y137180D02*X975514Y137272D01*
X974778Y137607D02*X974451Y137727D01*
X974164Y137913D01*
X974194Y137355D02*X974563Y137225D01*
X974964Y137180D01*
X975514Y137272D02*X975929Y137476D01*
X973473Y139437D02*X973505Y139804D01*
X973600Y140152D01*
X973182Y140330D02*X973063Y139902D01*
X973956Y140750D02*X974209Y140984D01*
X974505Y141162D01*
X974840Y141275D01*
X975209Y141314D01*
X975106Y141694D02*X974676Y141649D01*
X974281Y141521D01*
X973926Y141317D01*
X973620Y141045D01*
X973600Y140152D02*X973751Y140470D01*
X973956Y140750D01*
X973620Y141045D02*X973370Y140714D01*
X973182Y140330D01*
X973063Y139902D02*X973023Y139437D01*
X974164Y137913D02*X973923Y138151D01*
X973590Y138743D01*
X973473Y139437D01*
X973579Y137835D02*X973864Y137561D01*
X974194Y137355D01*
X973023Y139437D02*X973061Y138977D01*
X973170Y138551D01*
X973345Y138167D01*
X973579Y137835D01*
X976493Y138294D02*X976373Y138140D01*
X976213Y137977D01*
X975929Y137476D02*X976192Y137679D01*
X976284Y137771D01*
X976213Y137977D02*X975763Y137689D01*
X976284Y137771D02*X976379Y137839D01*
X976495Y137874D01*
X976643Y137854D01*
X976771Y137771D01*
X976842Y137701D01*
X976907Y137630D01*
X977015Y137321D01*
X977118D01*
G54D188*X325500Y187500D02*X338500D01*
X62000Y81500D02*X9000D01*
Y80500D02*X63000D01*
X62000Y82000D02*Y81500D01*
X63000Y83000D02*X62000Y82000D01*
X63000Y80500D02*Y84000D01*
X9000Y83000D02*X63000D01*
Y84000D02*X8000D01*
Y82000D02*X9000Y83000D01*
X8000Y80500D02*Y82000D01*
X11500Y80500D02*X8000D01*
X8500Y81000D02*X9000Y80500D01*
X8000D02*X8500Y81000D01*
X8000Y83500D02*Y80500D01*
G54D186*X309900Y45900D02*X316700D01*
X313700D02*X312200Y47400D01*
X312600Y47000D01*
Y45200D01*
X312200Y47400D02*Y44400D01*
X313700Y45900D01*
X312600Y45200D02*X312800Y45400D01*
Y46400D01*
X314200Y47400D02*Y44400D01*
X336000Y46200D02*X342800D01*
X339800D02*X338300Y47700D01*
X338700Y47300D01*
Y45500D01*
X338900Y45700D02*Y46700D01*
X338300Y47700D02*Y44700D01*
X339800Y46200D01*
X338700Y45500D02*X338900Y45700D01*
X340300Y47700D02*Y44700D01*
X392900Y46600D02*X399700D01*
X396700D02*X395200Y48100D01*
X395600Y47700D01*
Y45900D01*
X395800Y46100D02*Y47100D01*
X395200Y48100D02*Y45100D01*
X396700Y46600D01*
X395600Y45900D02*X395800Y46100D01*
X397200Y48100D02*Y45100D01*
X367200Y46400D02*X374000D01*
X369500Y47900D02*Y44900D01*
X371000Y46400D01*
X369900Y47500D02*Y45700D01*
X370100Y45900D01*
Y46900D01*
X371000Y46400D02*X369500Y47900D01*
X369900Y47500D01*
X371500Y47900D02*Y44900D01*
G54D187*X994559Y185505D02*X994524Y185674D01*
X994431Y185812D01*
X994558Y185505D02*X994523Y185674D01*
X994430Y185812D01*
X994124Y185938D02*X992822D01*
X992663Y185905D01*
X992524Y185812D01*
X994124Y185940D02*X992822D01*
X992663Y185905D01*
X992524Y185812D02*X992425Y185674D01*
X992524Y185812D02*X992426Y185674D01*
X992425D02*X992388Y185505D01*
X992426Y185674D02*X992389Y185505D01*
X994431Y185812D02*X994292Y185905D01*
X994124Y185938D01*
X994430Y185812D02*X994293Y185905D01*
X994124Y185940D01*
X1005252Y185918D02*X1005191Y186013D01*
X1005089Y186097D01*
X1005190Y186013D02*X1005089Y186096D01*
Y186097D02*X1004971Y186155D01*
X1004861Y186178D01*
X1004492D01*
X1004971Y186155D02*X1004861Y186177D01*
X1004492D01*
X1005251Y185917D02*X1005190Y186013D01*
X1005089Y186096D02*X1004971Y186155D01*
X1004492Y186178D02*X1004360Y186148D01*
X1004237Y186069D01*
X1004492Y186177D02*X1004360Y186147D01*
X1004237Y186069D01*
X1004138Y185958D01*
X1004079Y185830D01*
X1004237Y186069D02*X1004138Y185957D01*
X1004079Y185830D01*
X1001259Y170466D02*X1001253Y170247D01*
X1001329Y170084D01*
X1001259Y170466D02*X1001253Y170248D01*
X1001329Y170084D01*
X1003302Y169972D02*X1003431Y170043D01*
X1003303Y169972D02*X1003431Y170043D01*
X1003531Y170146D01*
X1003581Y170270D01*
X1001693Y169945D02*X1003168D01*
X1003302Y169972D01*
X1001692Y169945D02*X1003168D01*
X1003303Y169972D01*
X1001329Y170084D02*X1001478Y169981D01*
X1001693Y169945D01*
X1001478Y169981D02*X1001692Y169945D01*
X1003581Y170270D02*X1005229Y180470D01*
X1005317D02*X1009440Y169966D01*
X1003581Y170270D02*X1005230Y180470D01*
X1005317D01*
G54D188*X1004727Y179970D02*X1002927Y170770D01*
X1010127Y170470D02*X1005227Y182370D01*
G54D187*X1005229Y180470D02*X1005317D01*
X1010027Y174243D02*X1005252Y185918D01*
X1004079Y185830D02*X1001259Y170466D01*
G54D188*X1002027Y170570D02*X1004727Y185470D01*
G54D187*X1005317Y180470D02*X1009441Y169967D01*
X1010027Y174242D02*X1005251Y185917D01*
G54D188*X1005227Y182370D02*X1004727Y179970D01*
Y185470D02*X1009827Y172870D01*
G54D187*X1009440Y169966D02*X1009495Y169871D01*
X1009586Y169788D01*
X1009495Y169871D02*X1009587Y169788D01*
X1010243Y169707D02*X1010389Y169729D01*
X1010243Y169706D02*X1010389Y169729D01*
X1010503Y169788D01*
X1010585Y169871D01*
X1010634Y169966D01*
X1010585Y169871D02*X1010633Y169967D01*
X1009441D02*X1009495Y169871D01*
X1009586Y169788D02*X1009702Y169729D01*
X1009831Y169707D01*
X1010243D01*
X1009587Y169788D02*X1009702Y169729D01*
X1009831Y169706D01*
X1010243D01*
X1010634Y169966D02*X1014735Y180470D01*
X1014800D02*X1016493Y170270D01*
X1016552Y170146D01*
X1016653Y170043D01*
X1010633Y169967D02*X1014735Y180470D01*
X1014801D02*X1016493Y170270D01*
X1010113Y174243D02*X1010027D01*
X1010113Y174242D02*X1010027D01*
G54D188*X1013127Y178870D02*X1010127Y170470D01*
X1009827Y172870D02*X1010827Y174170D01*
G54D187*X1016653Y170043D02*X1016783Y169972D01*
X1016927Y169945D01*
X1018424D01*
X1016927D02*X1018425D01*
X1018424D02*X1018625Y169981D01*
X1018768Y170084D01*
X1018425Y169945D02*X1018627Y169981D01*
X1018769Y170084D01*
X1018843Y170248D01*
X1018768Y170084D02*X1018842Y170247D01*
X1018836Y170466D01*
X1018843Y170248D02*X1018837Y170466D01*
G54D188*X1018027Y170570D02*X1017127D01*
X1015727Y158870D02*X1015527Y161870D01*
X1018127Y158970D02*X1015727Y158870D01*
X1018127Y158570D02*Y158970D01*
X1015527Y158370D02*X1018127Y158570D01*
X1013327Y158470D02*X1014627D01*
X1013327Y159070D02*Y158470D01*
X1014627Y159170D02*X1013327Y159070D01*
X1014627Y161870D02*Y159170D01*
X1005327Y158270D02*X1007227Y158570D01*
X1005027Y158670D02*X1007327Y159170D01*
X1003527Y157070D02*X1005327Y158270D01*
X1003427Y158170D02*X1005027Y158670D01*
X1009427Y156670D02*X1008227Y158170D01*
X1008727Y158670D02*X1009727Y157370D01*
X1007327Y159170D02*X1008727Y158670D01*
G54D187*X1016015Y185830D02*X1015960Y185958D01*
X1015866Y186069D01*
X1015744Y186148D01*
X1015603Y186178D01*
X1015867Y186069D02*X1015744Y186147D01*
X1015603Y186177D01*
X1016016Y185830D02*X1015960Y185957D01*
X1015867Y186069D01*
X1018836Y170466D02*X1016015Y185830D01*
G54D188*X1017127Y170570D02*X1015227Y182870D01*
X1015327Y185370D02*X1018027Y170570D01*
G54D187*X1014865Y185918D02*X1010113Y174243D01*
X1014735Y180470D02*X1014800D01*
X1014735D02*X1014801D01*
X1018837Y170466D02*X1016016Y185830D01*
X1014866Y185917D02*X1010113Y174242D01*
G54D188*X1010827Y174170D02*X1015327Y185370D01*
X1015227Y182870D02*X1013127Y178870D01*
G54D187*X1015603Y186178D02*X1015235D01*
X1015603Y186177D02*X1015234D01*
X1014920Y186013D02*X1014865Y185918D01*
X1015235Y186178D02*X1015118Y186155D01*
X1015009Y186097D01*
X1014920Y186013D01*
X1015234Y186177D02*X1015118Y186155D01*
X1015009Y186096D01*
X1014920Y186013D01*
X1014866Y185917D01*
X1020800Y172788D02*X1020857Y172108D01*
X1021020Y171501D01*
X1021282Y170974D01*
X1021633Y170532D01*
X1022065Y170178D01*
X1022567Y169920D01*
X1023132Y169761D01*
G54D188*X1022627Y165170D02*X1021827Y164670D01*
X1023127D02*X1022627Y165170D01*
X1022527Y164270D02*X1023127Y164670D01*
X1021927Y171670D02*X1022627Y170870D01*
X1021727Y173370D02*X1021927Y171670D01*
X1022627Y174570D02*X1021727Y173370D01*
G54D187*X1023132Y169761D02*X1023752Y169707D01*
X1024714Y169823D01*
X1025494Y170114D01*
G54D188*X1023727Y170570D02*X1025527Y170970D01*
X1022627Y170870D02*X1023727Y170570D01*
X1024827Y174970D02*X1022627Y174570D01*
X1026927Y174370D02*X1024827Y174970D01*
G54D187*X1025494Y170114D02*X1026102Y170494D01*
X1026552Y170879D01*
X1026768Y170270D01*
X1026847Y170119D01*
X1026931Y170019D01*
X1027031Y169963D01*
X1027160Y169945D01*
X1027810D01*
X1027969Y169980D01*
X1028109Y170073D01*
X1028207Y170211D01*
X1028244Y170379D01*
Y175240D01*
X1028227Y176076D01*
G54D188*X1026627Y177070D02*X1026927Y174370D01*
X1027627Y170670D02*X1026627Y177070D01*
X1027627Y175370D02*Y170670D01*
X1026927Y177770D02*X1027627Y175370D01*
X1027427Y156370D02*X1027327Y157670D01*
X1025527Y170970D02*X1026727Y171970D01*
G54D187*X1028227Y176076D02*X1028155Y176849D01*
X1028002Y177543D01*
X1027740Y178143D01*
X1027342Y178636D01*
X1026780Y179007D01*
X1026026Y179240D01*
X1025054Y179320D01*
X1024439Y179301D01*
G54D188*X1026227Y178170D02*X1026927Y177770D01*
X1024627Y178470D02*X1026227Y178170D01*
X1022127Y177870D02*X1024627Y178470D01*
G54D187*X987256Y170379D02*X987293Y170211D01*
X987256Y178647D02*Y170379D01*
X987255D02*X987292Y170211D01*
X989427Y170379D02*Y178647D01*
X987530Y179048D02*X987391Y178954D01*
X987293Y178816D01*
X987256Y178647D01*
X989391Y170211D02*X989425Y170379D01*
Y178648D01*
X987255D02*Y170379D01*
X992388D02*X992425Y170211D01*
X992524Y170073D01*
X992663Y169980D01*
X992822Y169945D01*
X992389Y170379D02*X992426Y170211D01*
X992524Y170073D01*
X992822Y169945D02*X994124D01*
X994292Y169980D01*
X994431Y170073D01*
X994124Y169945D02*X994293Y169980D01*
X994430Y170073D01*
X994431D02*X994524Y170211D01*
X994559Y170379D01*
X994430Y170073D02*X994523Y170211D01*
X994558Y170379D01*
X994559D02*Y185505D01*
X994558Y170379D02*Y185505D01*
X992388D02*Y170379D01*
X992389Y185505D02*Y170379D01*
X987293Y170211D02*X987391Y170073D01*
X987292Y170211D02*X987391Y170073D01*
X987530Y169980D01*
X987690Y169945D01*
X988992D01*
X989160Y169980D01*
X989299Y170073D01*
X988992Y169945D02*X989161Y169980D01*
X989298Y170073D01*
X989299D02*X989392Y170211D01*
X989427Y170379D01*
X989298Y170073D02*X989391Y170211D01*
X988526Y163500D02*X988954Y163782D01*
X989243Y164203D01*
X988954Y163782D02*X989244Y164203D01*
X987077Y165678D02*X986802Y165251D01*
X986703Y164720D01*
X986802Y164203D01*
X987077Y163782D01*
X987490Y163500D01*
X988004Y163397D02*X988526Y163500D01*
X987490D02*X988004Y163397D01*
X988005Y163396D02*X988526Y163500D01*
X987490D02*X988005Y163396D01*
X989243Y164203D02*X989350Y164720D01*
X989243Y165251D01*
X989244Y164203D02*X989350Y164720D01*
X989244Y165251D01*
X988526Y165963D02*X988004Y166066D01*
X988526Y165963D02*X988005Y166066D01*
X988004D02*X987490Y165963D01*
X987077Y165678D01*
X989243Y165251D02*X988954Y165678D01*
X988526Y165963D01*
X989244Y165251D02*X988954Y165678D01*
X988005Y166066D02*X987490Y165963D01*
X989111Y159230D02*X989077Y159399D01*
X988983Y159537D01*
X988845Y159630D01*
X989112Y159230D02*X989077Y159399D01*
X988984Y159537D01*
X988846Y159630D01*
X988845D02*X988677Y159663D01*
X988846Y159630D02*X988677Y159665D01*
Y159663D02*X987375D01*
X988677Y159665D02*X987375D01*
Y159663D02*X987216Y159630D01*
X987375Y159665D02*X987216Y159630D01*
X987077Y159537D01*
X986977Y159399D01*
X986940Y159230D01*
X987077Y159537D02*X986979Y159399D01*
X986941Y159230D01*
X993978Y159517D02*X993200Y159066D01*
X993978Y159517D02*X993200Y159067D01*
Y159066D02*X992540Y158473D01*
X992007Y157760D01*
X991614Y156946D01*
X992540Y158474D02*X992007Y157760D01*
X991614Y156946D02*X991370Y156055D01*
X993587Y156523D02*X993744Y156909D01*
X993966Y157256D01*
X994246Y157557D01*
X993501Y156105D02*X993587Y156523D01*
X993966Y157256D02*X994246Y157556D01*
Y157557D02*X994578Y157803D01*
X994246Y157556D02*X994578Y157803D01*
X993200Y159067D02*X992540Y158474D01*
X992007Y157760D02*X991613Y156946D01*
X991286Y155107D02*X991370Y154146D01*
X991286Y155106D02*X991370Y154146D01*
X991614Y153246D01*
X993857Y153354D02*X993619Y153768D01*
X993856Y153353D02*X993619Y153768D01*
X993462Y154213D01*
X993619Y153768D02*X993461Y154212D01*
X993462Y154213D02*X993392Y154673D01*
X993461Y154212D02*X993391Y154673D01*
X991370Y156055D02*X991286Y155107D01*
X991613Y156946D02*X991370Y156054D01*
X991286Y155106D01*
X993392Y154673D02*X999599D01*
X993391D02*X999598D01*
X993500Y156105D02*X993587Y156523D01*
X997865Y156504D02*X997928Y156105D01*
X993500D01*
X997928D02*X993501D01*
X999971Y156557D02*X999732Y157367D01*
X999352Y158088D01*
X999732Y157367D02*X999351Y158088D01*
X999352D02*X998844Y158706D01*
X998225Y159210D01*
X997509Y159586D01*
X999351Y158088D02*X998844Y158707D01*
X998225Y159211D01*
X997509Y159587D01*
X997274Y157532D02*X997531Y157228D01*
X997274Y157532D02*X997530Y157227D01*
X997531Y157228D02*X997730Y156882D01*
X997530Y157227D02*X997730Y156881D01*
Y156882D02*X997865Y156504D01*
X997730Y156881D02*X997865Y156504D01*
X997509Y159586D02*X996710Y159821D01*
X995844Y159903D01*
X994863Y159803D01*
X993978Y159517D01*
X997509Y159587D02*X996710Y159822D01*
X994863Y159804D02*X993978Y159517D01*
X994578Y157803D02*X994956Y157988D01*
X995373Y158105D01*
X995822Y158145D01*
X996234Y158103D01*
X996618Y157979D01*
X996967Y157786D01*
X997274Y157532D01*
X995823Y158145D02*X996234Y158102D01*
X996618Y157979D01*
X996710Y159822D02*X995844Y159904D01*
X994863Y159804D01*
X995373Y158105D02*X995823Y158145D01*
X1024439Y179301D02*X1023869Y179248D01*
X1023354Y179173D01*
X1023869Y179248D02*X1023353Y179173D01*
X1023354D02*X1022900Y179085D01*
X1023353Y179173D02*X1022900Y179084D01*
Y179085D02*X1022518Y178993D01*
X1022216Y178909D01*
X1022002Y178841D01*
X1022900Y179084D02*X1022518Y178993D01*
X1022215Y178908D01*
X1022002Y178840D01*
Y178841D02*X1021886Y178800D01*
X1021750Y178721D01*
X1021885Y178799D02*X1021750Y178720D01*
Y178721D02*X1021647Y178610D01*
X1021750Y178720D02*X1021647Y178609D01*
Y178610D02*X1021593Y178458D01*
X1021604Y178257D01*
X1021778Y177411D01*
X1021603Y178256D02*X1021777Y177410D01*
X1022002Y178840D02*X1021885Y178799D01*
X1021778Y177411D02*X1021846Y177243D01*
X1021953Y177112D01*
X1022732Y177170D02*X1023346Y177305D01*
X1024065Y177411D01*
X1021777Y177410D02*X1021846Y177243D01*
X1021953Y177112D02*X1022097Y177038D01*
X1022277Y177041D01*
X1022732Y177170D01*
X1021953Y177112D02*X1022098Y177038D01*
X1022277Y177041D01*
X1024065Y177411D02*X1024838Y177454D01*
X1024065Y177411D02*X1024837Y177454D01*
X1024838D02*X1025235Y177427D01*
X1025555Y177343D01*
X1025804Y177200D01*
X1025990Y176993D01*
X1026120Y176719D01*
X1024837Y177454D02*X1025235Y177427D01*
X1026120Y176719D02*X1026201Y176374D01*
X1026241Y175955D01*
X1026247Y175458D01*
X1026100Y175499D01*
X1025705Y175588D01*
X1025130Y175677D01*
X1024446Y175718D01*
X1025705Y175588D02*X1025131Y175677D01*
X1024447Y175717D01*
X1026101Y175498D02*X1025705Y175588D01*
X1024641Y174308D02*X1025210Y174262D01*
X1025686Y174155D01*
X1026036Y174032D01*
X1028245Y170379D02*Y175240D01*
X1028227Y176076D01*
X1028155Y176848D01*
X1026241Y175955D02*X1026248Y175458D01*
X1026101Y175498D01*
X1026036Y174032D02*X1026226Y173938D01*
Y172484D01*
X1025925Y172112D01*
X1025450Y171738D01*
X1024852Y171450D01*
X1028155Y176848D02*X1028002Y177542D01*
X1027740Y178143D01*
X1027341Y178636D01*
X1026779Y179006D01*
X1026026Y179240D01*
X1024446Y175718D02*X1023623Y175660D01*
X1022897Y175492D01*
X1022272Y175226D01*
X1021753Y174872D01*
X1023623Y175659D02*X1022897Y175492D01*
X1022272Y175225D01*
X1021753Y174872D02*X1021342Y174440D01*
X1021752Y174871D02*X1021342Y174440D01*
X1021043Y173942D01*
X1021342Y174440D02*X1021044Y173942D01*
X1024447Y175717D02*X1023623Y175659D01*
X1022272Y175225D02*X1021752Y174871D01*
X1022775Y172809D02*X1022911Y173437D01*
X1023293Y173908D01*
X1022911Y173437D02*X1023293Y173909D01*
X1024852Y171450D02*X1024186Y171334D01*
X1023609Y171449D01*
X1023163Y171763D01*
X1022877Y172232D01*
X1022775Y172809D01*
X1023163Y171763D02*X1022877Y172231D01*
X1022775Y172809D01*
X1021043Y173942D02*X1020862Y173388D01*
X1020800Y172788D01*
X1020862Y173388D02*X1020801Y172788D01*
X1020857Y172108D01*
X1021021Y171501D01*
X1021282Y170974D01*
X1021634Y170531D01*
X1021647Y178609D02*X1021592Y178457D01*
X1021603Y178256D01*
X1021044Y173942D02*X1020862Y173388D01*
X1021634Y170531D02*X1022065Y170178D01*
X1022568Y169919D01*
X1023134Y169760D01*
X1023753Y169706D01*
X1024714Y169822D01*
X1025493Y170113D01*
X1026102Y170494D01*
X1026552Y170879D02*X1026769Y170270D01*
X1026848Y170119D01*
X1026932Y170018D01*
X1027031Y169962D01*
X1027159Y169945D01*
X1027810D01*
X1028207Y170211D02*X1028245Y170379D01*
X1025210Y174261D02*X1025686Y174155D01*
X1026037Y174032D01*
X1026227Y173938D01*
Y172484D01*
X1025925Y172113D01*
X1025450Y171739D01*
X1024852Y171450D01*
X1023293Y173908D02*X1023883Y174204D01*
X1024642Y174307D01*
X1025210Y174261D01*
X1023293Y173909D02*X1023883Y174205D01*
X1024641Y174308D01*
X1030343Y174525D02*X1030427Y173564D01*
X1030669Y172664D01*
X1031055Y171846D01*
X1031570Y171131D01*
X1032198Y170539D01*
G54D188*X1031327Y172970D02*X1032227Y171670D01*
X1031127Y175070D02*X1031327Y172970D01*
X1032727Y171870D02*X1031727Y174470D01*
X1032627Y171370D02*X1032727Y171870D01*
G54D187*X1032198Y170539D02*X1032926Y170090D01*
X1033738Y169806D01*
X1034619Y169707D01*
X1035261Y169762D01*
X1035830Y169907D01*
G54D188*X1033927Y170770D02*X1032627Y171370D01*
G54D187*X1033063Y178947D02*X1032299Y178507D01*
G54D188*X1034527Y178570D02*X1032227Y177570D01*
X1033527Y177670D02*X1035427Y177970D01*
X1032327Y176970D02*X1033527Y177670D01*
G54D187*X1032299Y178507D02*X1031637Y177924D01*
X1031095Y177215D01*
X1030688Y176400D01*
X1030432Y175497D01*
X1030343Y174525D01*
X1032471D02*X1032519Y175087D01*
X1032661Y175612D01*
X1032888Y176087D01*
X1033195Y176502D01*
G54D188*X1032227Y177570D02*X1031127Y175070D01*
X1031727Y174470D02*X1032327Y176970D01*
G54D187*X1035830Y169907D02*X1036324Y170112D01*
X1036738Y170347D01*
X1035830Y169906D02*X1036324Y170112D01*
X1036738Y170346D01*
Y170347D02*X1037067Y170582D01*
X1036738Y170346D02*X1037067Y170582D01*
X1037308Y170787D01*
X1037455Y170932D01*
X1037506Y170987D01*
X1037700Y170336D01*
X1037455Y170932D02*X1037505Y170987D01*
X1037701Y170335D01*
G54D188*X1038427Y170770D02*X1037327Y171970D01*
G54D187*X1037700Y170336D02*X1037761Y170174D01*
X1037849Y170051D01*
X1037966Y169973D01*
X1038113Y169945D01*
X1037762Y170174D02*X1037850Y170051D01*
X1037966Y169973D01*
X1038113Y169945D02*X1038786D01*
X1038954Y169980D01*
X1039092Y170073D01*
X1039185Y170211D01*
X1039219Y170379D01*
X1039186Y170211D02*X1039220Y170379D01*
X1037701Y170335D02*X1037762Y170174D01*
X1039092Y170073D02*X1039186Y170211D01*
X1037050Y176782D02*Y173048D01*
Y176781D02*Y173048D01*
X1036982Y172921D01*
X1036860Y172734D01*
X1036681Y172511D01*
X1036444Y172275D01*
X1036147Y172051D01*
X1036860Y172734D02*X1036682Y172511D01*
X1036445Y172275D01*
X1036148Y172051D01*
X1039219Y185505D02*X1039185Y185674D01*
X1039092Y185812D01*
X1038954Y185905D01*
X1038786Y185938D01*
X1037463D01*
X1039186Y185674D02*X1039092Y185812D01*
X1039220Y185505D02*X1039186Y185674D01*
X1038954Y185905D02*X1038786Y185940D01*
X1037462D01*
X1037463Y185938D02*X1037302Y185905D01*
X1037163Y185812D01*
X1037065Y185674D01*
X1037028Y185505D01*
X1037065Y185674D02*X1037027Y185505D01*
X1037028D02*Y178820D01*
X1037027Y185505D02*Y178821D01*
X1037462Y185940D02*X1037302Y185905D01*
X1035646Y179252D02*X1034836Y179320D01*
X1033914Y179224D01*
X1033063Y178947D01*
X1033195Y176502D02*X1033574Y176844D01*
X1034018Y177103D01*
X1034521Y177266D01*
X1035075Y177323D01*
X1035877Y177239D01*
X1036502Y177053D01*
X1036906Y176866D01*
X1037050Y176782D01*
G54D188*X1035427Y177970D02*X1036827Y177770D01*
G54D187*X1039219Y170379D02*Y185505D01*
G54D188*X1038427Y185170D02*Y170770D01*
G54D187*X1039220Y170379D02*Y185505D01*
X1036906Y176866D02*X1037050Y176781D01*
G54D188*X1037627Y185170D02*X1037827Y177970D01*
X1037727Y176470D02*X1037627Y172670D01*
X1037327Y177170D02*X1037727Y176470D01*
X1036827Y177770D02*X1037327Y177170D01*
X1035627Y170770D02*X1033927D01*
X1037327Y171970D02*X1035627Y170770D01*
G54D187*X1037028Y178820D02*X1036767Y178926D01*
X1036298Y179095D01*
X1037027Y178821D02*X1036768Y178926D01*
X1036299Y179095D01*
X1035878Y177238D02*X1036502Y177052D01*
X1036906Y176866D01*
X1036298Y179095D02*X1035646Y179252D01*
X1036299Y179095D02*X1035646Y179251D01*
G54D188*X1037827Y177970D02*X1034527Y178570D01*
G54D187*X1022521Y163397D02*X1023042Y163500D01*
X1023470Y163782D01*
X1023759Y164203D01*
X1023865Y164720D01*
X1023470Y163782D02*X1023760Y164203D01*
X1023865Y164720D02*X1023759Y165251D01*
X1023470Y165678D01*
X1023760Y165251D02*X1023470Y165678D01*
X1022521Y163396D02*X1023042Y163500D01*
X1023760Y164203D02*X1023867Y164720D01*
X1023760Y165251D01*
X1023470Y165678D02*X1023042Y165963D01*
X1022521Y166066D01*
X1022006Y165963D01*
X1021592Y165678D01*
X1021318Y165251D01*
X1022006Y165963D02*X1021593Y165678D01*
X1021318Y165251D01*
X1021218Y164720D01*
X1021318Y164203D01*
Y165251D02*X1021219Y164720D01*
X1021318Y164203D01*
X1022006Y163500D02*X1022521Y163397D01*
X1022006Y163500D02*X1022521Y163396D01*
X1021318Y164203D02*X1021592Y163782D01*
X1022006Y163500D01*
X1021318Y164203D02*X1021593Y163782D01*
X1022006Y163500D01*
X1023628Y159230D02*X1023593Y159399D01*
X1023500Y159537D01*
X1023362Y159630D01*
X1023193Y159663D01*
X1023362Y159630D02*X1023193Y159665D01*
Y159663D02*X1021892D01*
X1023193Y159665D02*X1021891D01*
X1021892Y159663D02*X1021732Y159630D01*
X1021592Y159537D01*
X1021891Y159665D02*X1021732Y159630D01*
X1021593Y159537D01*
X1021592D02*X1021494Y159399D01*
X1021457Y159230D01*
X1021593Y159537D02*X1021494Y159399D01*
X1036147Y172051D02*X1035789Y171862D01*
X1035367Y171731D01*
X1034879Y171682D01*
X1034358Y171741D01*
X1035789Y171861D02*X1035367Y171730D01*
X1036148Y172051D02*X1035789Y171861D01*
X1034358Y171741D02*X1033890Y171909D01*
X1035367Y171730D02*X1034880Y171681D01*
X1034359Y171740D01*
X1033890Y171909D01*
X1031570Y171130D02*X1032198Y170538D01*
X1032925Y170090D01*
X1033737Y169806D01*
X1034618Y169706D01*
X1035260Y169761D01*
X1035830Y169906D01*
X1033890Y171909D02*X1033478Y172175D01*
X1033130Y172525D01*
X1033890Y171909D02*X1033478Y172174D01*
X1033130Y172525D01*
X1035646Y179251D02*X1034836Y179320D01*
X1033914Y179224D02*X1033063Y178946D01*
X1032299Y178507D01*
X1031638Y177923D01*
X1031096Y177215D01*
X1030689Y176400D01*
X1030433Y175497D01*
X1030344Y174524D01*
X1032470D02*X1032519Y175087D01*
X1032660Y175612D01*
X1032888Y176087D01*
X1033195Y176501D01*
X1033574Y176844D01*
X1034018Y177102D01*
X1034521Y177266D01*
X1035075Y177323D02*X1035878Y177238D01*
X1033130Y172525D02*X1032849Y172948D01*
X1032643Y173430D01*
X1033130Y172525D02*X1032849Y172947D01*
X1032642Y173430D01*
X1030344Y174524D02*X1030428Y173563D01*
X1030671Y172664D01*
X1031056Y171846D01*
X1031570Y171130D01*
X1032643Y173430D02*X1032515Y173960D01*
X1032471Y174525D01*
X1032642Y173430D02*X1032514Y173960D01*
X1032470Y174524D01*
G54D188*X1041500Y92500D02*Y89500D01*
Y91000D01*
Y89500D02*X1042000Y90000D01*
X1042500Y89500D01*
X1045000D02*X1041500D01*
Y91000D02*X1042500Y92000D01*
X1096500Y89500D02*Y93000D01*
Y92000D02*X1095500Y91000D01*
Y90500D01*
X1091000Y92500D02*Y89500D01*
X1091500Y90000D01*
X1092000Y89500D01*
X1094500D02*X1091000D01*
Y91000D01*
X1092000Y92000D01*
X1042500Y89500D02*X1096500D01*
Y93000D02*X1041500D01*
X1042500Y92000D02*X1096500D01*
X1095500Y90500D02*X1042500D01*
X1012500Y89500D02*X1066500D01*
X1015000D02*X1011500D01*
Y91000D01*
X1012500Y92000D01*
X1066500D01*
X1065500Y90500D02*X1012500D01*
X1066500Y93000D02*X1011500D01*
X1066500Y89500D02*Y93000D01*
Y92000D02*X1065500Y91000D01*
Y90500D01*
X1061000Y92500D02*Y89500D01*
X1061500Y90000D01*
X1062000Y89500D01*
X1064500D02*X1061000D01*
Y91000D01*
X1062000Y92000D01*
G54D187*X976889Y153173D02*X977338Y152356D01*
X977930Y151653D01*
X978641Y151080D01*
X976889Y153173D02*X977338Y152357D01*
X977930Y151654D01*
X978641Y151080D01*
G54D188*X979127Y151670D02*X977627Y153670D01*
G54D187*X981277Y150288D02*X982385Y150426D01*
X983355Y150815D01*
X981277Y150290D02*X982385Y150427D01*
X983355Y150816D01*
X979451Y150650D02*X980336Y150382D01*
X981277Y150288D01*
X978641Y151080D02*X979451Y150650D01*
X979810Y152746D02*X979424Y153091D01*
X978641Y151080D02*X979451Y150651D01*
X979809Y152746D02*X979424Y153092D01*
G54D188*X978427Y152770D02*X979727Y151770D01*
G54D187*X979451Y150651D02*X980337Y150383D01*
X981277Y150290D01*
X980755Y152322D02*X980256Y152486D01*
X979809Y152746D01*
G54D188*X979727Y151770D02*X981727Y151670D01*
X981627Y150970D02*X979127Y151670D01*
G54D187*X981299Y152263D02*X980756Y152321D01*
X981298Y152265D02*X980755Y152322D01*
X980756Y152321D02*X980257Y152485D01*
X979810Y152746D01*
X983044Y152951D02*X982607Y152614D01*
X982046Y152363D01*
X981298Y152265D01*
X983355Y150815D02*X984170Y151424D01*
X984814Y152220D01*
X983355Y150816D02*X984170Y151425D01*
X984814Y152220D01*
X984885Y152386D01*
X984874Y152551D01*
X984790Y152709D01*
X989111Y150962D02*Y159230D01*
G54D188*X988227Y158870D02*X988327Y151370D01*
X987627Y158770D02*X988227Y158870D01*
X987627Y151370D02*Y158770D01*
G54D187*X986940Y159230D02*Y150962D01*
X989112D02*Y159230D01*
X986941D02*Y150962D01*
X984034Y153370D02*X983883Y153456D01*
X984034Y153370D02*X983884Y153455D01*
X983883Y153456D02*X983729Y153477D01*
X983575Y153429D01*
X983884Y153455D02*X983729Y153477D01*
X983575Y153429D02*X983425Y153306D01*
X983044Y152950D02*X982606Y152614D01*
X982046Y152362D01*
X981299Y152263D01*
X984790Y152709D02*X984640Y152850D01*
X984034Y153370D01*
X984790Y152709D02*X984641Y152849D01*
X984034Y153370D01*
X983575Y153429D02*X983425Y153305D01*
X983044Y152950D01*
X983425Y153306D02*X983044Y152951D01*
G54D188*X981727Y151670D02*X983727Y152570D01*
X984227Y152370D02*X981627Y150970D01*
G54D187*X982362Y157644D02*X982791Y157367D01*
X983143Y157038D01*
X982362Y157643D02*X982791Y157366D01*
X983143Y157038D01*
X983275Y156924D01*
X983415Y156840D01*
X983571Y156834D01*
X983415Y156840D02*X983570Y156834D01*
X983571D02*X983752Y156951D01*
X984510Y157625D01*
X983570Y156834D02*X983750Y156952D01*
X984510Y157624D01*
Y157625D02*X984640Y157769D01*
X984700Y157934D01*
X984687Y158106D01*
X984597Y158275D01*
X983920Y158969D01*
X984687Y158106D02*X984597Y158276D01*
X983920Y158970D01*
X984510Y157624D02*X984640Y157769D01*
G54D188*X983527Y157870D02*X981727Y158670D01*
X983827Y158170D02*X983527Y157870D01*
X982127Y159170D02*X983827Y158170D01*
G54D187*X979424Y153091D02*X979109Y153511D01*
X978872Y153995D01*
X979424Y153092D02*X979108Y153511D01*
X978872Y153994D01*
G54D188*X978127Y153970D02*X978427Y152770D01*
G54D187*X978872Y153995D02*X978724Y154530D01*
X978672Y155107D01*
X978724Y154530D02*X978672Y155106D01*
G54D188*X977927Y155670D02*X978127Y153970D01*
G54D187*X978872Y153994D02*X978724Y154530D01*
G54D188*X977627Y153670D02*X977227Y155770D01*
G54D187*X979825Y157427D02*X980275Y157686D01*
X980777Y157850D01*
X980275Y157686D02*X980777Y157849D01*
X981868Y157835D02*X982362Y157644D01*
X980777Y157850D02*X981321Y157907D01*
X981868Y157835D01*
X980777Y157849D02*X981320Y157906D01*
X981867Y157835D01*
X982362Y157643D01*
X983920Y158969D02*X983152Y159479D01*
X982281Y159795D01*
X981299Y159903D01*
X983920Y158970D02*X983151Y159480D01*
X982281Y159796D01*
X981298Y159904D01*
X980363Y159807D01*
X978725Y155670D02*X978875Y156195D01*
X979116Y156670D01*
X979435Y157085D01*
X979825Y157427D01*
X978875Y156194D02*X979115Y156670D01*
X979435Y157084D01*
X979824Y157427D01*
X978725Y155669D02*X978875Y156194D01*
X978672Y155107D02*X978725Y155670D01*
X978672Y155106D02*X978725Y155669D01*
G54D188*X978327Y157170D02*X977927Y155670D01*
X977227Y155770D02*X978227Y157670D01*
G54D187*X981299Y159903D02*X980363Y159806D01*
X979478Y159528D01*
X979824Y157427D02*X980275Y157686D01*
X980363Y159807D02*X979478Y159529D01*
G54D188*X981727Y158670D02*X979827Y158170D01*
X980327Y159170D02*X982127D01*
G54D187*X979478Y159528D02*X978665Y159088D01*
X977949Y158503D01*
X978665Y159088D02*X977949Y158504D01*
X979478Y159529D02*X978665Y159088D01*
X977949Y158503D02*X977351Y157792D01*
X977949Y158504D02*X977351Y157792D01*
G54D188*X979827Y158170D02*X978327Y157170D01*
X978227Y157670D02*X980327Y159170D01*
G54D187*X991614Y153246D02*X992008Y152429D01*
X992542Y151713D01*
X994877Y150388D02*X995865Y150288D01*
X994877Y150389D02*X995866Y150290D01*
X992542Y151713D02*X993205Y151121D01*
X993987Y150672D01*
X994877Y150388D01*
X993205Y151121D02*X993987Y150673D01*
X994877Y150389D01*
G54D188*X993927Y152070D02*X995727Y151570D01*
X993327Y152670D02*X993927Y152070D01*
X996027Y151070D02*X993627Y151770D01*
G54D187*X996018Y152220D02*X995478Y152275D01*
X996017Y152220D02*X995477Y152275D01*
X995478D02*X994985Y152430D01*
X995477Y152275D02*X994984Y152430D01*
X994985D02*X994546Y152670D01*
X994984Y152430D02*X994546Y152670D01*
X994168Y152983D02*X993857Y153354D01*
X994546Y152670D02*X994168Y152983D01*
X994546Y152670D02*X994167Y152982D01*
X993856Y153353D01*
G54D188*X992827Y154070D02*X993327Y152670D01*
X993627Y151770D02*X992127Y154070D01*
X998527Y151770D02*X996027Y151070D01*
X998327Y152070D02*X998527Y151770D01*
X992927Y155870D02*X992827Y154070D01*
X993927Y155370D02*X992927Y155870D01*
X992127Y154070D02*X992227Y156270D01*
X998527Y155470D02*X993927Y155370D01*
X998327Y156770D02*X998527Y155470D01*
X999227Y155570D02*X998327Y156770D01*
X999227Y156070D02*Y155570D01*
X998627Y157570D02*X999227Y156070D01*
X992227Y156270D02*X993227Y157870D01*
X997727Y158570D02*X998627Y157570D01*
X996127Y158970D02*X997727Y158570D01*
X994527Y158770D02*X996127Y158970D01*
X993227Y157870D02*X994527Y158770D01*
G54D187*X995865Y150288D02*X996953Y150389D01*
X997892Y150652D01*
X995866Y150290D02*X996953Y150390D01*
X997892Y150653D01*
X998524Y153024D02*X998383Y153040D01*
X998226Y152982D01*
X998036Y152872D01*
X997644Y152651D01*
X998226Y152982D02*X998036Y152871D01*
X997644Y152651D01*
X997165Y152440D01*
X996617Y152283D01*
X996018Y152220D01*
X997165Y152440D02*X996616Y152282D01*
X996017Y152220D01*
X997892Y150652D02*X998664Y151022D01*
X997892Y150653D02*X998664Y151022D01*
X999252Y151440D01*
X998664Y151022D02*X999251Y151440D01*
X999391Y151894D02*X999294Y152025D01*
X998665Y152915D01*
X998524Y153024D01*
X999294Y152026D02*X998665Y152915D01*
X999398Y151608D02*X999436Y151757D01*
X999252Y151440D02*X999398Y151607D01*
X999435Y151756D01*
X999391Y151894D01*
X999251Y151440D02*X999398Y151608D01*
X999436Y151757D02*X999392Y151895D01*
X999294Y152026D01*
X1002380Y150562D02*X1002539Y150528D01*
X1003732D01*
X1002379Y150563D02*X1002539Y150529D01*
X1003732D01*
Y150528D02*X1003979Y150553D01*
X1003732Y150529D02*X1003979Y150554D01*
Y150553D02*X1004139Y150631D01*
X1003979Y150554D02*X1004139Y150631D01*
X1004227Y150766D01*
X1004253Y150962D01*
X1002104D02*X1002142Y150794D01*
X1002240Y150655D01*
X1002380Y150562D01*
X1002105Y150962D02*X1002142Y150793D01*
X1002240Y150656D01*
X1002379Y150563D01*
X1003336Y159644D02*X1003211Y159663D01*
X1002539D01*
X1003211Y159665D02*X1002539D01*
Y159663D02*X1002380Y159630D01*
X1002539Y159665D02*X1002379Y159630D01*
X1002380D02*X1002240Y159537D01*
X1002379Y159630D02*X1002240Y159537D01*
X1002142Y159399D01*
X1002104Y159230D01*
X1002142Y159399D02*X1002105Y159230D01*
X1003336Y159645D02*X1003211Y159665D01*
X1004253Y150962D02*Y156538D01*
X1002104Y159230D02*Y150962D01*
X1004253D02*Y156540D01*
X1003952Y158728D02*X1003841Y158623D01*
X1002105Y159230D02*Y150962D01*
G54D188*X1003627Y151270D02*X1003527Y157070D01*
X1002927Y159070D02*X1003427Y158170D01*
X1002927Y151370D02*Y159070D01*
G54D187*X1003581Y159404D02*X1003529Y159508D01*
X1003445Y159590D01*
X1003336Y159644D01*
X1003581Y159404D02*X1003529Y159509D01*
X1003445Y159591D01*
X1004156Y158895D02*X1003952Y158727D01*
X1003840Y158622D01*
X1003581Y159404D01*
X1004156Y158896D02*X1003952Y158728D01*
X1003841Y158623D02*X1003581Y159404D01*
X1003445Y159591D02*X1003336Y159645D01*
G54D186*X1008527Y144670D02*X1008127D01*
G54D187*X1008046Y144843D02*X1008021Y144683D01*
X1008047Y144529D01*
X1004061Y141662D02*X1003855Y141591D01*
X1003436D01*
Y141244D01*
X1003855D01*
X1004009Y141206D01*
X1004131Y141102D01*
X1004202Y140967D01*
X1004653Y138466D02*Y140896D01*
X1004685Y141037D01*
X1004793Y141173D01*
X1005000Y141244D01*
X1006145D01*
Y141591D01*
X1005000D01*
X1004845Y141629D01*
X1004723Y141731D01*
X1004202Y143185D02*Y141938D01*
X1004164Y141764D01*
X1004061Y141662D01*
X1004723Y141731D02*X1004653Y141835D01*
Y143185D01*
X1004202D01*
X994301Y137228D02*X994711Y137351D01*
X995046Y137519D01*
X995310Y137701D01*
X995103Y137945D01*
X994869Y137804D01*
X994589Y137669D01*
X994263Y137567D01*
X992467Y139579D02*X995728D01*
X994931Y139648D02*X992532D01*
X999657Y141670D02*X999381Y141608D01*
X999135Y141520D01*
X998923Y141417D01*
X998745Y141306D01*
X998611Y141201D01*
X998527Y141125D01*
X998506Y141102D01*
X998435Y141070D01*
X998487Y140809D02*X998680Y140967D01*
X999182Y141212D01*
X999824Y141314D01*
X998435Y141070D02*X998235Y140987D01*
X998023Y141037D01*
X997914Y141173D01*
Y141210D01*
X997778Y141591D01*
X997638D01*
Y137321D01*
X998088D01*
Y140234D01*
X998125Y140342D01*
X998212Y140512D01*
X998332Y140652D01*
X998487Y140809D01*
X995728Y139579D02*Y139752D01*
X995692Y140167D01*
X995587Y140543D01*
X995136Y140577D02*X995278Y140029D01*
X995247Y139853D01*
X995136Y139713D01*
X994931Y139648D01*
X994913Y141384D02*X994588Y141553D01*
X994221Y141658D01*
X993785Y141449D02*X994350Y141336D01*
X994814Y141030D01*
X995587Y140543D02*X995418Y140874D01*
X995192Y141156D01*
X994913Y141384D01*
X994814Y141030D02*X995136Y140577D01*
G54D188*X976000Y89500D02*X972500D01*
Y91000D01*
X973500Y92000D01*
X1027500Y89500D02*Y93000D01*
Y92000D02*X1026500Y91000D01*
Y90500D01*
X973500Y89500D02*X1027500D01*
Y93000D02*X972500D01*
X973500Y92000D02*X1027500D01*
X1026500Y90500D02*X973500D01*
X1022000Y92500D02*Y89500D01*
X1022500Y90000D01*
X1023000Y89500D01*
X1025500D02*X1022000D01*
Y91000D01*
X1023000Y92000D01*
X1011500Y92500D02*Y89500D01*
X1012000Y90000D01*
X1012500Y89500D01*
G54D187*X986940Y150962D02*X986977Y150794D01*
X987077Y150655D01*
X987216Y150562D01*
X987375Y150528D01*
X986979Y150793D02*X987077Y150656D01*
X987216Y150563D01*
X987375Y150529D01*
Y150528D02*X988677D01*
X987375Y150529D02*X988677D01*
X989077Y150794D02*X989111Y150962D01*
X989077Y150793D02*X989112Y150962D01*
G54D186*X989627Y144670D02*X989327D01*
G54D187*X986941Y150962D02*X986979Y150793D01*
X988677Y150528D02*X988845Y150562D01*
X988983Y150655D01*
X989077Y150794D01*
X988677Y150529D02*X988846Y150563D01*
X988984Y150656D01*
X989077Y150793D01*
G54D190*X630500Y33500D02*X634500D01*
X642500D02*X638500D01*
X641000D02*X637000D01*
X656500D02*X660500D01*
X648000D02*X654500D01*
X658500Y35500D02*Y31500D01*
G54D188*X796500Y62000D02*Y59000D01*
Y60500D01*
X782500Y59000D02*Y62500D01*
X796500Y59000D02*X797000Y59500D01*
X797500Y59000D01*
X851500D01*
X850500Y60000D02*X797500D01*
X846000Y59000D02*Y60500D01*
X847000Y61500D01*
X802500Y59000D02*Y60500D01*
X803500Y61500D01*
X851500Y59000D02*Y62500D01*
Y61500D02*X850500Y60500D01*
X851500Y62500D02*X796500D01*
X800000Y59000D02*X796500D01*
X797500Y61500D02*X851500D01*
X846000Y62000D02*Y59000D01*
X808000D02*Y62500D01*
X802500Y62000D02*Y59000D01*
X850500Y60500D02*Y60000D01*
X846000Y59000D02*X846500Y59500D01*
X847000Y59000D01*
X849500D02*X846000D01*
X796500Y60500D02*X797500Y61500D01*
X808000D02*X807000Y60500D01*
Y60000D01*
X802500Y59000D02*X803000Y59500D01*
X803500Y59000D01*
X806000D02*X802500D01*
X727500Y62000D02*Y59000D01*
Y60500D01*
Y59000D02*X728000Y59500D01*
X728500Y59000D01*
X731000D02*X727500D01*
Y60500D02*X728500Y61500D01*
X777000Y60500D02*X778000Y61500D01*
X782500D02*X781500Y60500D01*
Y60000D01*
X777000Y62000D02*Y59000D01*
X777500Y59500D01*
X778000Y59000D01*
X780500D02*X777000D01*
X754000D02*X808000D01*
X807000Y60000D02*X754000D01*
X808000Y62500D02*X753000D01*
X754000Y61500D02*X808000D01*
X753000Y59000D02*Y60500D01*
X754000Y61500D01*
X782500Y62500D02*X727500D01*
X728500Y61500D02*X782500D01*
X777000Y59000D02*Y60500D01*
X728500Y59000D02*X782500D01*
X781500Y60000D02*X728500D01*
X753000Y62000D02*Y59000D01*
X753500Y59500D01*
X754000Y59000D01*
X756500D02*X753000D01*
G54D187*X979117Y140465D02*X979174Y140267D01*
X979270Y140089D01*
X979409Y139926D01*
X979804Y139624D01*
X979762Y140150D02*X979651Y140306D01*
X979576Y140489D01*
X979804Y139624D02*X980314Y139366D01*
X980764Y139160D01*
X981151Y139410D02*X980553Y139713D01*
X980206Y139861D01*
X979896Y140029D01*
X979762Y140150D01*
X980520Y137495D02*X980061Y137537D01*
X979695Y137631D01*
X979438Y137735D01*
X979370Y137462D02*X979661Y137326D01*
X980042Y137222D01*
X980520Y137180D01*
X979438Y137735D02*X979306Y137804D01*
X979164Y137598D01*
X979370Y137462D01*
G54D186*X668300Y129700D02*X675100D01*
X670600Y131200D02*Y128200D01*
X671000Y130800D02*Y129000D01*
X671200Y130200D02*Y129200D01*
X672600Y131200D02*Y128200D01*
X670600D02*X672100Y129700D01*
X671000Y129000D02*X671200Y129200D01*
X672100Y129700D02*X670600Y131200D01*
X671000Y130800D01*
G54D187*X980764Y139160D02*X981111Y138954D01*
X981250Y138812D01*
X981595Y139089D02*X981151Y139410D01*
X981886Y137885D02*X981980Y138292D01*
X981954Y138544D01*
X981879Y138750D01*
X981758Y138926D01*
X981250Y138812D02*X981361Y138641D01*
X981433Y138452D01*
X981459Y138259D01*
X981758Y138926D02*X981595Y139089D01*
X981459Y138259D02*X981436Y138086D01*
X981371Y137923D01*
X981271Y137781D01*
X981145Y137669D01*
X980850Y137533D01*
X980520Y137495D01*
Y137180D02*X981151Y137276D01*
X981608Y137528D01*
X981886Y137885D01*
X980450Y141694D02*X979797Y141596D01*
X980085Y141367D02*X980450Y141417D01*
X980839Y141380D01*
X979797Y141596D02*X979382Y141351D01*
X979608Y140963D02*X979793Y141210D01*
X980085Y141367D01*
X979382Y141351D02*X979163Y141025D01*
X979099Y140689D01*
X979117Y140465D01*
X979576Y140489D02*X979549Y140689D01*
X979608Y140963D01*
X980859Y141667D02*X980450Y141694D01*
X980839Y141380D02*X981163Y141295D01*
X981473Y141511D02*X981202Y141600D01*
X980859Y141667D01*
X981163Y141295D02*X981400Y141202D01*
X981530Y141141D01*
X981665Y141417D01*
X981473Y141511D01*
X985761Y141694D02*X985325Y141649D01*
X984909Y141520D01*
X984527Y141314D01*
X984189Y141041D01*
X983906Y140709D01*
X983691Y140325D01*
X983553Y139898D01*
X983505Y139437D01*
X983551Y138966D01*
X983683Y138535D01*
G54D186*X976827Y140570D02*Y141470D01*
G54D188*X972500Y92500D02*Y89500D01*
X973000Y90000D01*
X973500Y89500D01*
X891000Y61500D02*Y58500D01*
X891500Y59000D01*
X892000Y58500D01*
X894500D02*X891000D01*
Y60000D01*
X892000Y61000D01*
Y58500D02*X946000D01*
Y62000D02*X891000D01*
X892000Y61000D02*X946000D01*
X945000Y59500D02*X892000D01*
X946000Y58500D02*Y62000D01*
Y61000D02*X945000Y60000D01*
Y59500D01*
X940500Y61500D02*Y58500D01*
X941000Y59000D01*
X941500Y58500D01*
X995500D02*Y62000D01*
Y61000D02*X994500Y60000D01*
Y59500D01*
X944000Y58500D02*X940500D01*
Y60000D01*
X941500Y61000D01*
Y58500D02*X995500D01*
Y62000D02*X940500D01*
X941500Y61000D02*X995500D01*
X994500Y59500D02*X941500D01*
X1026627Y157070D02*X1027527Y155870D01*
G54D187*X1026055Y156362D02*X1026298Y155931D01*
X1026619Y155546D01*
X1027007Y155205D01*
X1026055Y156362D02*X1026298Y155930D01*
X1026619Y155546D01*
X1025846Y157386D02*X1025900Y156846D01*
X1026055Y156362D01*
X1025847Y157385D02*X1025901Y156845D01*
X1026055Y156362D01*
X1028344Y156664D02*X1028053Y156969D01*
X1027952Y157363D01*
X1028345Y156664D02*X1028054Y156969D01*
X1027952Y157363D01*
X1030016Y155850D02*X1028803Y156400D01*
X1028345Y156664D01*
G54D188*X1027027Y158570D02*X1026627Y157070D01*
G54D187*X1027019Y159410D02*X1026587Y159075D01*
X1027019Y159410D02*X1026587Y159076D01*
Y159075D02*X1026257Y158688D01*
X1026587Y159076D02*X1026257Y158688D01*
X1026026Y158264D01*
X1026257Y158688D02*X1026027Y158264D01*
X1026026D02*X1025890Y157824D01*
X1025846Y157386D01*
X1026027Y158264D02*X1025891Y157824D01*
X1025847Y157385D01*
G54D188*X1028527Y159170D02*X1027027Y158570D01*
X1028227Y158370D02*X1029227Y158770D01*
X1027327Y157670D02*X1028227Y158370D01*
X1027527Y155870D02*X1030527Y154170D01*
G54D187*X1027933Y154632D02*X1028450Y154391D01*
X1029256Y154008D01*
X1027448Y154901D02*X1027933Y154632D01*
X1027007Y155205D02*X1027448Y154902D01*
X1029406Y156128D02*X1028803Y156400D01*
X1028344Y156664D01*
X1027448Y154902D02*X1027933Y154632D01*
X1027007Y155205D02*X1027448Y154901D01*
X1029256Y154008D02*X1029802Y153669D01*
G54D188*X1030927Y154270D02*X1027427Y156370D01*
G54D187*X1026041Y151244D02*X1026510Y150930D01*
X1027168Y150620D01*
X1028016Y150384D01*
X1029059Y150290D01*
X1029790Y150347D01*
X1025954Y151328D02*X1026041Y151244D01*
G54D188*X1026627Y151770D02*X1029227Y151170D01*
G54D187*X1032203Y154091D02*X1031923Y154535D01*
X1032382Y153578D02*X1032204Y154092D01*
X1031923Y154535D01*
X1031551Y154919D01*
X1031923Y154535D02*X1031551Y154920D01*
Y154919D02*X1031101Y155259D01*
X1031551Y154920D02*X1031101Y155260D01*
Y155259D02*X1030585Y155565D01*
X1030016Y155850D01*
X1029406Y156128D01*
X1031101Y155260D02*X1030585Y155565D01*
X1029790Y150347D02*X1030448Y150509D01*
X1031026Y150763D01*
X1031516Y151098D01*
X1031911Y151499D01*
X1032202Y151955D01*
X1032382Y152453D01*
G54D188*X1029227Y151170D02*X1030827Y151670D01*
G54D187*X1032382Y152453D02*X1032444Y152980D01*
X1032382Y153578D01*
X1029802Y153669D02*X1030111Y153323D01*
X1030208Y152915D01*
X1030129Y152573D01*
X1029904Y152329D01*
G54D188*X1030827Y152770D02*X1030927Y154270D01*
X1031427Y153670D02*X1030827Y152770D01*
X1031527D02*X1031427Y153670D01*
X1030827Y151670D02*X1031527Y152770D01*
G54D187*X1029079Y152134D02*X1028671Y152159D01*
X1028283Y152226D01*
X1027927Y152320D01*
X1027612Y152427D01*
X1027348Y152535D01*
X1027147Y152629D01*
X1027019Y152695D01*
X1026974Y152720D01*
X1026794Y152782D01*
X1026624Y152780D01*
X1026483Y152720D01*
X1026388Y152612D01*
X1025912Y151721D01*
X1025877Y151577D01*
X1029300Y158017D02*X1029629Y157963D01*
X1029943Y157886D01*
X1030230Y157798D01*
X1030476Y157711D01*
X1029300Y158017D02*X1029629Y157962D01*
X1029943Y157886D01*
X1030476Y157711D02*X1030668Y157634D01*
X1030793Y157580D01*
X1030838Y157559D01*
X1030476Y157710D02*X1030668Y157634D01*
X1030793Y157580D02*X1030837Y157559D01*
X1030838D02*X1030997Y157522D01*
X1031166Y157543D01*
X1031323Y157620D01*
X1031444Y157754D01*
X1030997Y157523D02*X1031166Y157543D01*
X1030230Y157798D02*X1030476Y157710D01*
X1030837Y157559D02*X1030997Y157523D01*
X1031323Y157620D02*X1031446Y157755D01*
X1028971Y159903D02*X1028207Y159842D01*
X1028169Y157830D02*X1028305Y157915D01*
X1028482Y157981D01*
X1028703Y158022D01*
X1028971Y158037D01*
Y159904D02*X1028207Y159843D01*
X1027558Y159672D01*
X1028207Y159842D02*X1027558Y159671D01*
X1027019Y159410D01*
X1027558Y159672D02*X1027019Y159410D01*
X1028168Y157831D02*X1028305Y157916D01*
X1028482Y157981D01*
X1028703Y158023D01*
X1028971Y158037D01*
X1029300Y158017D01*
X1027952Y157363D02*X1027963Y157492D01*
X1028001Y157615D01*
X1028068Y157729D01*
X1028168Y157831D01*
X1028068Y157729D02*X1028169Y157830D01*
X1031444Y157754D02*X1031857Y158536D01*
X1031446Y157755D02*X1031858Y158535D01*
X1031857Y158536D02*X1031912Y158711D01*
X1031858Y158535D02*X1031912Y158710D01*
Y158711D02*X1031890Y158894D01*
X1031803Y159061D01*
X1031912Y158710D02*X1031890Y158893D01*
X1031802Y159061D01*
X1031803D02*X1031663Y159187D01*
X1031230Y159427D01*
X1031802Y159061D02*X1031662Y159187D01*
X1031229Y159427D01*
X1031230D02*X1030626Y159659D01*
X1029868Y159834D01*
X1031229Y159427D02*X1030626Y159659D01*
X1029867Y159835D01*
X1029868Y159834D02*X1028971Y159903D01*
X1029867Y159835D02*X1028971Y159904D01*
G54D188*X1031027Y158570D02*X1028527Y159170D01*
X1029227Y158770D02*X1031027Y158570D01*
G54D187*X999599Y154673D02*X999742Y154700D01*
X999869Y154776D01*
X999965Y154893D01*
X999598Y154673D02*X999742Y154700D01*
X999869Y154776D02*X999964Y154893D01*
X1000054Y155670D02*X999971Y156557D01*
X1000054Y155671D02*X999971Y156557D01*
X999965Y154893D02*X1000011Y155041D01*
X1000041Y155365D01*
X1000054Y155670D01*
X1000011Y155042D02*X1000041Y155365D01*
X999964Y154893D02*X1000011Y155042D01*
X1000041Y155365D02*X1000054Y155671D01*
X1008681Y150962D02*X1008715Y150794D01*
X1008808Y150655D02*X1008946Y150562D01*
X1004253Y156538D02*X1004341Y156691D01*
X1004503Y156890D01*
X1004736Y157115D01*
X1005034Y157345D01*
X1004253Y156540D02*X1004341Y156692D01*
X1004503Y156890D01*
X1005034Y157345D02*X1005393Y157560D01*
X1005809Y157739D01*
X1006277Y157861D01*
X1005393Y157560D02*X1005809Y157738D01*
X1006277Y157861D01*
X1006792Y157907D01*
X1007216Y157869D01*
X1006793Y157906D02*X1007216Y157869D01*
X1007591Y157759D01*
X1007216Y157869D02*X1007591Y157758D01*
X1006277Y157861D02*X1006793Y157906D01*
X1007591Y157759D02*X1007914Y157576D01*
X1008184Y157324D01*
X1007591Y157758D02*X1007914Y157576D01*
X1008184Y157323D01*
Y157324D02*X1008398Y157003D01*
X1008553Y156616D01*
X1008648Y156164D01*
X1008184Y157323D02*X1008398Y157003D01*
X1008554Y156615D01*
X1008649Y156164D01*
X1008648D02*X1008681Y155650D01*
X1010381Y157975D02*X1009993Y158620D01*
X1008649Y156164D02*X1008681Y155649D01*
X1010381Y157976D02*X1009993Y158620D01*
X1009475Y159153D01*
X1008818Y159557D01*
X1009475Y159154D02*X1008818Y159558D01*
X1010850Y155562D02*X1010801Y156428D01*
X1010647Y157238D01*
X1010381Y157975D01*
X1010850Y155563D02*X1010801Y156429D01*
X1010647Y157240D01*
X1010381Y157976D01*
X1009993Y158620D02*X1009475Y159154D01*
X1008681Y155650D02*Y150962D01*
X1010850D02*Y155562D01*
X1008681Y155649D02*Y150962D01*
X1010850D02*Y155563D01*
G54D188*X1010127Y151370D02*X1009427D01*
X1010027Y153070D02*X1010127Y151370D01*
G54D187*X1008715Y150794D02*X1008808Y150655D01*
X1008681Y150962D02*X1008715Y150793D01*
X1008808Y150656D01*
X1008946Y150562D02*X1009114Y150528D01*
X1010417D01*
X1008808Y150656D02*X1008946Y150563D01*
X1009114Y150529D01*
X1010417D01*
Y150528D02*X1010585Y150562D01*
X1010723Y150655D01*
X1010417Y150529D02*X1010585Y150563D01*
X1010723Y150656D01*
Y150655D02*X1010816Y150794D01*
X1010850Y150962D01*
X1010723Y150656D02*X1010816Y150793D01*
X1010850Y150962D01*
G54D188*X1009427Y151370D02*Y156670D01*
X1009727Y157370D02*X1010027Y153070D01*
G54D187*X1008818Y159557D02*X1008013Y159813D01*
X1008818Y159558D02*X1008013Y159814D01*
Y159813D02*X1007053Y159903D01*
X1008013Y159814D02*X1007052Y159904D01*
X1005797Y159727D02*X1005272Y159543D01*
X1004820Y159328D01*
X1005271Y159544D02*X1004820Y159329D01*
X1007053Y159903D02*X1006392Y159855D01*
X1005797Y159727D01*
X1007052Y159904D02*X1006392Y159856D01*
X1005797Y159728D01*
X1005271Y159544D01*
X1004820Y159328D02*X1004447Y159104D01*
X1004156Y158895D01*
X1004820Y159329D02*X1004447Y159105D01*
X1004156Y158896D01*
X1014035Y153023D02*X1014061Y152439D01*
X1014144Y151909D01*
X1014294Y151443D01*
X1014061Y152439D02*X1014145Y151910D01*
X1014294Y151443D02*X1014520Y151045D01*
X1014830Y150725D01*
X1014295Y151443D02*X1014521Y151046D01*
X1014831Y150726D01*
X1014145Y151910D02*X1014295Y151443D01*
X1014830Y150725D02*X1015234Y150487D01*
X1015740Y150339D01*
X1014831Y150726D02*X1015235Y150488D01*
X1015740Y150340D01*
G54D188*X1016527Y151670D02*X1015727Y152170D01*
X1014927Y151770D02*X1015827Y151070D01*
G54D187*X1015740Y150339D02*X1016357Y150288D01*
X1016780Y150313D01*
X1017211Y150379D01*
X1015740Y150340D02*X1016357Y150290D01*
X1016781Y150314D01*
X1017210Y150380D01*
X1017211Y150379D02*X1017631Y150474D01*
X1018025Y150587D01*
X1018378Y150707D01*
X1018025Y150588D02*X1018378Y150707D01*
X1017210Y150380D02*X1017631Y150475D01*
X1018025Y150588D01*
X1017282Y152375D02*X1016900Y152329D01*
X1016744Y152337D01*
X1016605Y152365D01*
X1016482Y152417D01*
X1016379Y152500D01*
X1016296Y152619D01*
X1016234Y152778D01*
X1016379Y152500D02*X1016296Y152618D01*
X1016234Y152778D01*
X1016196Y152983D01*
X1016184Y153240D01*
X1016234Y152778D02*X1016196Y152984D01*
X1016184Y153241D01*
X1018289Y152741D02*X1018029Y152622D01*
X1017676Y152486D01*
X1017282Y152375D01*
G54D188*X1018427Y151870D02*X1016527Y151670D01*
X1018427Y151370D02*Y151870D01*
X1015827Y151070D02*X1018427Y151370D01*
G54D187*X1016184Y153240D02*Y157776D01*
Y153241D02*Y157776D01*
X1018506D01*
X1016184D02*X1018505D01*
X1018506D02*X1018674Y157810D01*
X1014035Y157776D02*Y153023D01*
X1018505Y157776D02*X1018674Y157810D01*
G54D188*X1015727Y152170D02*X1015527Y158370D01*
X1014627Y158470D02*X1014927Y151770D01*
G54D187*X1018674Y157810D02*X1018812Y157904D01*
X1018906Y158042D01*
X1018940Y158211D01*
X1018906Y158042D02*X1018940Y158210D01*
Y158211D02*Y159230D01*
X1018906Y159408D01*
X1018812Y159544D01*
X1018674Y159632D01*
X1018906Y159408D02*X1018812Y159545D01*
X1018674Y159632D02*X1018506Y159663D01*
X1016184D01*
X1018505Y159665D02*X1016184D01*
X1018940Y158210D02*Y159230D01*
X1018812Y159545D02*X1018674Y159634D01*
X1018505Y159665D01*
X1016184Y159663D02*Y162225D01*
Y159665D02*Y162224D01*
X1014469Y162637D02*X1014301Y162603D01*
X1014162Y162510D01*
X1014069Y162372D01*
X1014035Y162204D01*
X1014301Y162603D02*X1014163Y162510D01*
X1014069Y162372D01*
X1015771Y162659D02*X1014469Y162637D01*
X1014035Y162204D02*Y159663D01*
Y162204D02*Y159665D01*
X1016184Y162225D02*X1016150Y162393D01*
X1016059Y162532D01*
X1016184Y162224D02*X1016149Y162393D01*
X1016059Y162531D01*
Y162532D02*X1015927Y162625D01*
X1015771Y162659D01*
X1016059Y162531D02*X1015927Y162625D01*
X1012646Y159230D02*Y158211D01*
X1012677Y158042D01*
X1012765Y157904D01*
X1012647Y159230D02*Y158210D01*
X1012678Y158042D01*
X1012765Y157904D02*X1012902Y157810D01*
X1013081Y157776D01*
X1012903Y157810D02*X1013080Y157776D01*
X1013081D02*X1014035D01*
X1013080D02*X1014035D01*
X1012678Y158042D02*X1012766Y157904D01*
X1012903Y157810D01*
X1014035Y159663D02*X1013081D01*
X1014035Y159665D02*X1013080D01*
X1013081Y159663D02*X1012902Y159632D01*
X1012765Y159544D01*
X1013080Y159665D02*X1012903Y159634D01*
X1012766Y159545D01*
X1012765Y159544D02*X1012677Y159408D01*
X1012646Y159230D01*
X1012766Y159545D02*X1012678Y159408D01*
X1012647Y159230D01*
X1019243Y151526D02*X1018831Y152545D01*
X1019244Y151526D02*X1018832Y152546D01*
X1018487Y152793D02*X1018289Y152741D01*
X1018486Y152793D02*X1018289Y152741D01*
X1018831Y152545D02*X1018743Y152677D01*
X1018633Y152766D01*
X1018487Y152793D01*
X1018832Y152546D02*X1018744Y152678D01*
X1018634Y152766D01*
X1018486Y152793D01*
X1019176Y151081D02*X1019265Y151206D01*
X1019288Y151356D01*
X1019243Y151526D01*
X1018378Y150707D02*X1018674Y150820D01*
X1018378Y150707D02*X1018673Y150820D01*
X1018674D02*X1018895Y150916D01*
X1019027Y150983D01*
X1019176Y151081D01*
X1018673Y150820D02*X1018894Y150917D01*
X1019026Y150984D01*
X1019176Y151081D01*
X1019265Y151206D02*X1019289Y151356D01*
X1019244Y151526D01*
X1023500Y150655D02*X1023593Y150794D01*
X1023500Y150656D02*X1023593Y150793D01*
Y150794D02*X1023628Y150962D01*
Y159230D01*
X1023593Y150793D02*X1023628Y150962D01*
X1021457D02*X1021494Y150794D01*
X1021592Y150655D01*
X1021457Y150962D02*X1021494Y150793D01*
X1021593Y150656D01*
X1021892Y150528D02*X1023193D01*
X1023362Y150562D01*
X1023500Y150655D01*
X1023193Y150529D02*X1023362Y150563D01*
X1021457Y159230D02*Y150962D01*
G54D188*X1022827Y151370D02*X1022927Y158970D01*
X1022127Y151370D02*X1022827D01*
X1022027Y158970D02*X1022127Y151370D01*
G54D187*X1021592Y150655D02*X1021732Y150562D01*
X1021892Y150528D01*
X1021593Y150656D02*X1021732Y150563D01*
X1021891Y150529D01*
X1023193D01*
X1023362Y150563D02*X1023500Y150656D01*
X1026042Y151244D02*X1026510Y150930D01*
X1027167Y150620D01*
X1028016Y150383D01*
X1029059Y150288D01*
X1029789Y150345D01*
X1030447Y150508D01*
X1031025Y150763D01*
X1031515Y151098D01*
X1031910Y151499D01*
X1032201Y151956D01*
X1032381Y152454D01*
X1032443Y152980D01*
X1032381Y153577D01*
X1032203Y154091D01*
X1029256Y154008D02*X1029801Y153669D01*
X1030111Y153323D01*
X1030209Y152915D01*
X1030130Y152573D01*
X1029904Y152329D01*
X1029549Y152183D01*
X1029079Y152134D01*
X1028671Y152160D01*
X1028284Y152226D01*
X1027927Y152319D01*
X1027612Y152427D01*
X1027349Y152534D01*
X1027148Y152628D01*
X1027020Y152694D01*
X1026975Y152719D01*
X1026795Y152782D01*
X1026625Y152779D01*
X1026483Y152719D01*
X1026389Y152611D01*
X1025911Y151722D01*
X1025877Y151577D01*
X1025895Y151442D01*
X1025954Y151328D01*
X1026042Y151244D01*
X1035221Y153023D02*X1035247Y152439D01*
X1035330Y151909D01*
X1035247Y152439D02*X1035330Y151910D01*
Y151909D02*X1035481Y151443D01*
X1035707Y151045D01*
X1035481Y151443D02*X1035707Y151046D01*
X1035330Y151910D02*X1035481Y151443D01*
G54D188*X1035827Y159270D02*X1034627Y159070D01*
X1035827Y161770D02*Y159270D01*
G54D187*X1035221Y159663D02*X1034267D01*
X1035221Y159665D02*X1034266D01*
X1037369Y159663D02*Y162225D01*
Y159665D02*Y162224D01*
G54D188*X1036827Y158870D02*X1036627Y161870D01*
G54D187*X1037369Y162225D02*X1037335Y162393D01*
X1037369Y162224D02*X1037335Y162393D01*
X1037244Y162532D01*
X1037335Y162393D02*X1037245Y162531D01*
X1037244Y162532D02*X1037113Y162625D01*
X1036957Y162659D01*
X1037245Y162531D02*X1037113Y162625D01*
X1036957Y162659D02*X1035656Y162637D01*
X1035487Y162603D01*
X1035349Y162510D01*
X1035255Y162372D01*
X1035221Y162204D01*
Y159663D01*
Y162204D02*Y159665D01*
X1034267Y159663D02*X1034088Y159632D01*
X1034266Y159665D02*X1034088Y159634D01*
Y159632D02*X1033951Y159544D01*
X1034088Y159634D02*X1033952Y159545D01*
X1033951Y159544D02*X1033863Y159408D01*
X1033952Y159545D02*X1033863Y159408D01*
X1033832Y159230D01*
X1033863Y158042D02*X1033952Y157904D01*
X1034088Y157810D01*
X1039860D02*X1039998Y157904D01*
X1040091Y158042D01*
X1040125Y158211D01*
X1040091Y158042D02*X1040126Y158210D01*
X1040125Y158211D02*Y159230D01*
X1040126Y158210D02*Y159230D01*
X1039860Y159632D02*X1039692Y159663D01*
X1039860Y159634D02*X1039692Y159665D01*
Y159663D02*X1037369D01*
X1039692Y159665D02*X1037369D01*
G54D188*X1039327Y158770D02*X1036827Y158870D01*
X1039327Y158370D02*Y158770D01*
X1036427Y158270D02*X1039327Y158370D01*
G54D187*X1040125Y159230D02*X1040091Y159408D01*
X1039998Y159544D01*
X1039860Y159632D01*
X1040126Y159230D02*X1040091Y159408D01*
X1039998Y159545D01*
X1039860Y159634D01*
X1035707Y151045D02*X1036017Y150725D01*
X1036420Y150487D01*
X1036926Y150339D01*
X1036017Y150726D02*X1036420Y150488D01*
X1036926Y150340D01*
Y150339D02*X1037543Y150288D01*
X1037967Y150313D01*
X1038397Y150379D01*
X1036926Y150340D02*X1037543Y150290D01*
X1037966Y150314D01*
X1035707Y151046D02*X1036017Y150726D01*
X1037966Y150314D02*X1038396Y150380D01*
G54D188*X1037627Y151570D02*X1036827Y152170D01*
X1036027Y153070D02*X1036227Y151670D01*
X1039527Y151970D02*X1037627Y151570D01*
X1039627D02*X1039527Y151970D01*
X1037227Y151070D02*X1039627Y151570D01*
X1036227Y151670D02*X1037227Y151070D01*
G54D187*X1038397Y150379D02*X1038817Y150474D01*
X1039212Y150587D01*
X1038816Y150475D02*X1039211Y150588D01*
X1038396Y150380D02*X1038816Y150475D01*
X1039212Y150587D02*X1039565Y150707D01*
X1039860Y150820D01*
X1039211Y150588D02*X1039564Y150707D01*
X1039859Y150820D01*
X1040429Y151526D02*X1040017Y152545D01*
X1039929Y152677D01*
X1039819Y152766D01*
X1040430Y151526D02*X1040017Y152546D01*
X1039929Y152678D01*
X1039819Y152766D01*
X1039672Y152793D01*
X1039475Y152741D01*
X1039672Y152793D02*X1039474Y152741D01*
X1039475D02*X1039215Y152622D01*
X1038861Y152486D01*
X1039474Y152741D02*X1039215Y152622D01*
X1038862Y152486D01*
X1039860Y150820D02*X1040081Y150916D01*
X1039859Y150820D02*X1040081Y150917D01*
Y150916D02*X1040213Y150983D01*
X1040081Y150917D02*X1040213Y150984D01*
Y150983D02*X1040362Y151081D01*
X1040213Y150984D02*X1040363Y151081D01*
X1040362D02*X1040451Y151206D01*
X1040475Y151356D01*
X1040429Y151526D01*
X1040363Y151081D02*X1040452Y151206D01*
X1040475Y151356D01*
X1040430Y151526D01*
X1038861Y152486D02*X1038467Y152375D01*
X1038086Y152329D01*
X1037930Y152337D01*
X1038468Y152375D02*X1038086Y152329D01*
X1037931Y152337D01*
X1038862Y152486D02*X1038468Y152375D01*
X1037930Y152337D02*X1037791Y152365D01*
X1037668Y152417D01*
X1037791Y152365D02*X1037669Y152417D01*
X1037668D02*X1037565Y152500D01*
X1037482Y152619D01*
X1037669Y152417D02*X1037565Y152500D01*
X1037482Y152618D01*
X1037931Y152337D02*X1037791Y152365D01*
X1037482Y152619D02*X1037420Y152778D01*
X1037382Y152983D01*
X1037369Y153240D01*
X1037420Y152778D02*X1037382Y152984D01*
X1037369Y153241D01*
X1037482Y152618D02*X1037420Y152778D01*
X1037369Y157776D02*X1039692D01*
X1039860Y157810D01*
X1037369Y153240D02*Y157776D01*
Y153241D02*Y157776D01*
X1035221D02*Y153023D01*
G54D188*X1036827Y152170D02*X1036427Y158270D01*
X1035627Y158570D02*X1036027Y153070D01*
X1034627Y158570D02*X1035627D01*
X1034627Y159070D02*Y158570D01*
G54D187*X1034267Y157776D02*X1035221D01*
X1034266D02*X1035221D01*
X1033832Y159230D02*Y158211D01*
Y159230D02*Y158210D01*
Y158211D02*X1033863Y158042D01*
X1033951Y157904D01*
X1034088Y157810D01*
X1034267Y157776D01*
X1033832Y158210D02*X1033863Y158042D01*
X1034088Y157810D02*X1034266Y157776D01*
X1008368Y145063D02*X1008225Y145037D01*
X1008115Y144963D01*
X1008046Y144843D01*
X1008047Y144529D02*X1008120Y144407D01*
X1008230Y144327D01*
X1008521Y145035D02*X1008368Y145063D01*
X1008230Y144327D02*X1008368Y144298D01*
X1008520Y144328D01*
X1008640Y144411D01*
X1008720Y144533D01*
X1008749Y144683D01*
X1008720Y144837D01*
X1008642Y144957D01*
X1008521Y145035D01*
X1008157Y141591D02*Y137321D01*
X1008645D02*Y141591D01*
X1008157D01*
Y137321D02*X1008645D01*
G54D186*X1004527Y141770D02*X1004427Y141870D01*
X1004527Y140570D02*Y141770D01*
G54D187*X1004202Y140967D02*Y138324D01*
X1004217Y138043D01*
X1004260Y137803D01*
X1004326Y137606D01*
X1004409Y137456D01*
X1004511Y137342D01*
X1004646Y137255D01*
X1004859Y137804D02*X1004697Y138100D01*
X1004653Y138466D01*
X1004646Y137255D02*X1004836Y137200D01*
X1005103Y137180D01*
X1005498Y137220D01*
X1005900Y137321D01*
X1006174Y137425D01*
X1006318Y137495D01*
X1006182Y137842D01*
X1006040Y137765D01*
X1005867Y137685D01*
X1005659Y137623D01*
X1005417Y137598D01*
X1005282Y137606D01*
X1005136Y137638D01*
X1004991Y137701D01*
X1004859Y137804D01*
X999964Y141694D02*X999657Y141670D01*
X999824Y141314D02*X1000117Y141290D01*
X1000388Y141213D01*
X1000629Y141083D01*
X1000834Y140896D01*
X1001284Y141141D02*X1001065Y141367D01*
X1000783Y141541D01*
X1000421Y141654D01*
X999964Y141694D01*
X1001181Y139752D02*Y137321D01*
X1001668D01*
Y139713D01*
X1001571Y140525D01*
X1000834Y140896D02*X1001096Y140385D01*
X1001181Y139752D01*
X1001571Y140525D02*X1001284Y141141D01*
X1011298Y139624D02*X1011803Y139366D01*
X1012255Y139160D01*
X1012606Y138954D01*
X1012660Y139412D02*X1012048Y139713D01*
X1012606Y138954D02*X1012752Y138816D01*
X1012873Y138647D01*
X1012956Y138458D01*
X1012986Y138259D01*
X1012958Y138079D01*
X1012883Y137916D01*
X1013407Y137887D02*X1013506Y138292D01*
X1013482Y138541D01*
X1013410Y138746D01*
X1013291Y138923D01*
X1013127Y139089D01*
X1012660Y139412D01*
X1012014Y137495D02*X1011552Y137537D01*
X1011185Y137631D01*
X1011155Y137326D02*X1011536Y137222D01*
X1010799Y137804D02*X1010659Y137598D01*
X1011185Y137631D02*X1010929Y137735D01*
X1010799Y137804D01*
X1010659Y137598D02*X1010865Y137462D01*
X1011155Y137326D01*
X1011536Y137222D02*X1012014Y137180D01*
X1012883Y137916D02*X1012773Y137776D01*
X1012639Y137669D01*
X1012341Y137535D01*
X1012014Y137495D01*
Y137180D02*X1012650Y137277D01*
X1013118Y137530D01*
X1013407Y137887D01*
X1011945Y141694D02*X1011291Y141596D01*
X1010873Y141351D01*
X1011576Y141367D02*X1011945Y141417D01*
X1010873Y141351D02*X1010653Y141025D01*
X1010588Y140689D01*
X1010607Y140465D01*
X1010666Y140267D01*
X1011253Y140150D02*X1011143Y140306D01*
X1011070Y140489D01*
X1011043Y140689D01*
X1011100Y140963D01*
X1011282Y141210D01*
X1011576Y141367D01*
X1010666Y140267D02*X1010764Y140089D01*
X1010903Y139926D01*
X1011298Y139624D01*
X1012048Y139713D02*X1011701Y139861D01*
X1011390Y140029D01*
X1011253Y140150D01*
X1011945Y141417D02*X1012333Y141380D01*
X1012654Y141295D01*
X1012889Y141202D01*
X1013018Y141141D01*
X1013159Y141417D01*
X1012964Y141511D01*
X1012694Y141600D01*
X1012352Y141667D01*
X1011945Y141694D01*
X1019931Y138221D02*X1019730Y138181D01*
X1019563Y138071D01*
X1019450Y137906D01*
X1019409Y137701D01*
G54D186*X1015427Y141370D02*X1016327D01*
G54D187*X1015693Y140967D02*Y138324D01*
X1016143Y138466D02*Y140896D01*
X1016181Y141037D01*
X1016284Y141173D01*
X1016490Y141244D01*
X1017673D01*
Y141591D01*
X1016490D01*
X1016338Y141629D01*
X1016214Y141731D01*
X1016143Y141835D01*
X1015693Y138324D02*X1015709Y138043D01*
X1015752Y137803D01*
X1015819Y137606D01*
X1015905Y137456D01*
X1016005Y137342D01*
X1016139Y137255D01*
X1016331Y137200D01*
X1016355Y137804D02*X1016253Y137941D01*
X1016188Y138100D01*
X1016153Y138276D01*
X1016143Y138466D01*
X1016331Y137200D02*X1016599Y137180D01*
X1016990Y137220D01*
X1017396Y137321D01*
X1017669Y137425D01*
X1017814Y137495D01*
X1017673Y137842D01*
X1017523Y137765D01*
X1017348Y137685D01*
X1017144Y137623D01*
X1016909Y137598D01*
X1016774Y137606D01*
X1016629Y137638D01*
X1016486Y137701D01*
X1016355Y137804D01*
G54D186*X1019927Y137470D02*Y137870D01*
G54D187*X1019409Y137701D02*X1019451Y137505D01*
X1019565Y137339D01*
X1019732Y137223D01*
X1019931Y137180D01*
X1020135Y137222D01*
X1020300Y137335D01*
X1020410Y137500D01*
X1020450Y137701D01*
X1020411Y137908D01*
X1020302Y138073D01*
X1020137Y138182D01*
X1019931Y138221D01*
X1015693Y143185D02*Y141938D01*
X1016143Y143185D02*X1015693D01*
Y141938D02*X1015660Y141764D01*
X1015557Y141662D01*
X1015346Y141591D01*
X1014928D01*
Y141244D01*
X1015346D01*
X1015500Y141206D01*
X1015623Y141102D01*
X1015693Y140967D01*
X1016143Y141835D02*Y143185D01*
X1024374Y141694D02*X1023937Y141649D01*
X1023522Y141520D01*
X1023673Y141164D02*X1024009Y141276D01*
X1024374Y141314D01*
X1023522Y141520D02*X1023140Y141314D01*
X1022802Y141041D01*
X1023113Y140756D02*X1023373Y140988D01*
X1023673Y141164D01*
X1022802Y141041D02*X1022519Y140709D01*
X1022303Y140325D01*
X1022165Y139898D01*
X1022740Y140159D02*X1022899Y140477D01*
X1023113Y140756D01*
X1022165Y139898D02*X1022117Y139437D01*
X1022165Y138968D01*
X1022301Y138538D01*
X1022740Y138712D02*X1022639Y139062D01*
X1022605Y139437D01*
X1022639Y139809D01*
X1022740Y140159D01*
X1022301Y138538D02*X1022514Y138153D01*
X1022795Y137822D01*
X1023132Y137552D01*
X1023515Y137350D01*
X1023676Y137713D02*X1023375Y137887D01*
X1023115Y138116D01*
X1022901Y138394D01*
X1022740Y138712D01*
X1024374Y141314D02*X1025040Y141164D01*
X1025556Y140794D01*
X1025800Y140999D01*
X1025500Y141294D01*
X1025175Y141512D01*
X1024805Y141647D01*
X1024374Y141694D01*
X1023515Y137350D02*X1023932Y137224D01*
X1024011Y137603D02*X1023676Y137713D01*
X1023932Y137224D02*X1024374Y137180D01*
X1024854Y137242D01*
X1025254Y137415D01*
X1024837Y137629D02*X1024374Y137564D01*
X1024011Y137603D01*
X1025254Y137415D02*X1025587Y137679D01*
X1025865Y138016D01*
X1025659Y138189D01*
X1025458Y137993D01*
X1025192Y137789D01*
X1024837Y137629D01*
X1029653Y141694D02*X1029217Y141648D01*
X1029296Y141277D02*X1029653Y141314D01*
X1029217Y141648D02*X1028812Y141518D01*
X1028446Y141312D01*
X1028128Y141040D01*
X1028663Y140999D02*X1028964Y141169D01*
X1029296Y141277D01*
X1028128Y141040D02*X1027865Y140711D01*
X1027667Y140334D01*
X1027542Y139919D01*
X1027499Y139474D01*
X1027884D02*X1027919Y139843D01*
X1028023Y140188D01*
X1028186Y140500D01*
X1028402Y140773D01*
X1028663Y140999D01*
X1027499Y139474D02*X1027543Y139018D01*
X1027669Y138590D01*
X1027919Y139096D02*X1027884Y139474D01*
X1027669Y138590D02*X1027868Y138200D01*
X1028132Y137860D01*
X1028451Y137577D01*
X1029653Y137564D02*X1029292Y137604D01*
X1028957Y137718D01*
X1028657Y137897D01*
X1028396Y138133D01*
X1028182Y138417D01*
X1028020Y138741D01*
X1027919Y139096D01*
X1028451Y137577D02*X1028817Y137363D01*
X1029220Y137227D01*
X1029653Y137180D01*
X1030085Y137227D01*
X1030012Y137605D02*X1029653Y137564D01*
X1030085Y137227D02*X1030488Y137363D01*
X1030853Y137577D01*
X1031173Y137860D01*
X1031436Y138200D01*
X1030893Y138135D02*X1030638Y137899D01*
X1031101Y138420D02*X1030893Y138135D01*
X1030638Y137899D02*X1030343Y137719D01*
X1030012Y137605D01*
X1031436Y138200D02*X1031636Y138590D01*
X1031762Y139018D01*
X1031806Y139474D01*
X1031762Y139919D01*
X1031355Y139098D02*X1031257Y138744D01*
X1031101Y138420D01*
X1033749Y141591D02*Y137321D01*
X1034199D01*
Y140234D01*
X1034236Y140376D01*
X1034413Y140658D01*
X1031355Y139840D02*X1031389Y139474D01*
X1031355Y139098D01*
X1031762Y139919D02*X1031637Y140334D01*
X1031439Y140711D01*
X1031177Y141040D01*
X1030858Y141312D01*
X1030887Y140769D02*X1031097Y140495D01*
X1031255Y140183D01*
X1031355Y139840D01*
X1030858Y141312D02*X1030493Y141518D01*
X1030088Y141648D01*
X1029653Y141694D01*
Y141314D02*X1030008Y141276D01*
X1030336Y141168D01*
X1030631Y140996D01*
X1030887Y140769D01*
X1035020Y141445D02*X1034739Y141247D01*
X1034584Y141102D01*
X1034720Y140929D02*X1035184Y141197D01*
X1034584Y141102D02*X1034460Y141029D01*
X1034315Y141012D01*
X1034175Y141049D01*
X1034063Y141141D01*
X1033992Y141244D01*
X1034413Y140658D02*X1034720Y140929D01*
X1033992Y141244D02*X1033889Y141591D01*
X1033749D01*
X1035973Y141694D02*X1035430Y141619D01*
X1035020Y141445D01*
X1035184Y141197D02*X1035799Y141314D01*
X1036103Y141291D01*
X1036404Y141656D02*X1035973Y141694D01*
X1036103Y141291D02*X1036383Y141216D01*
X1036632Y141086D01*
X1036840Y140896D01*
X1037106Y140381D01*
X1037049Y141346D02*X1036758Y141541D01*
X1036404Y141656D01*
X1037106Y140381D02*X1037188Y139752D01*
Y137321D01*
X1037639D02*Y139784D01*
X1037632Y140945D02*X1037432Y140967D01*
X1037292Y141070D01*
X1037049Y141346D01*
X1037188Y137321D02*X1037639D01*
Y139784D02*X1037612Y140086D01*
X1037568Y140305D01*
X1037606Y140512D01*
X1037671Y140652D01*
X1037707Y140673D01*
X1037811Y140755D01*
X1037949Y140874D01*
X1038127Y140999D01*
X1038588Y141218D01*
X1037977Y141168D02*X1037811Y141033D01*
X1037632Y140945D01*
X1038588Y141218D02*X1039200Y141314D01*
X1039502Y141285D01*
X1039782Y141196D01*
X1039827Y141654D02*X1039375Y141694D01*
X1038809Y141601D01*
X1038327Y141391D01*
X1037977Y141168D01*
X1039782Y141196D02*X1040032Y141053D01*
X1040242Y140859D02*X1040509Y140364D01*
X1040589Y139752D01*
X1041040Y139713D02*X1040944Y140527D01*
X1040589Y139752D02*Y137321D01*
X1041040D01*
Y139713D01*
X1040944Y140527D02*X1040660Y141141D01*
X1040032Y141053D02*X1040242Y140859D01*
X1040660Y141141D02*X1040450Y141367D01*
X1040178Y141541D01*
X1039827Y141654D01*
G54D191*X51500Y65500D02*G75*G02X37500Y51500I-14000J0D01*G01*
G75*G02X23500Y65500I0J14000D01*G01*
G75*G02X37500Y79500I14000J0D01*G01*
G75*G02X51500Y65500I0J-14000D01*G01*
Y139500D02*G75*G02X37500Y125500I-14000J0D01*G01*
G75*G02X23500Y139500I0J14000D01*G01*
G75*G02X37500Y153500I14000J0D01*G01*
G75*G02X51500Y139500I0J-14000D01*G01*
X564000Y65500D02*G75*G02X550000Y51500I-14000J0D01*G01*
G75*G02X536000Y65500I0J14000D01*G01*
G75*G02X550000Y79500I14000J0D01*G01*
G75*G02X564000Y65500I0J-14000D01*G01*
Y139500D02*G75*G02X550000Y125500I-14000J0D01*G01*
G75*G02X536000Y139500I0J14000D01*G01*
G75*G02X550000Y153500I14000J0D01*G01*
G75*G02X564000Y139500I0J-14000D01*G01*
X1076500D02*G75*G02X1062500Y125500I-14000J0D01*G01*
X1076500Y65500D02*G75*G02X1062500Y51500I-14000J0D01*G01*
Y79500D02*G75*G02X1076500Y65500I0J-14000D01*G01*
X1062500Y125500D02*G75*G02X1048500Y139500I0J14000D01*G01*
X1062500Y51500D02*G75*G02X1048500Y65500I0J14000D01*G01*
G75*G02X1062500Y79500I14000J0D01*G01*
X1048500Y139500D02*G75*G02X1062500Y153500I14000J0D01*G01*
G75*G02X1076500Y139500I0J-14000D01*G01*
G54D186*X921500Y38500D02*G75*G02X928500Y31500I0J-7000D01*G01*
X914500D02*G75*G02X921500Y38500I7000J0D01*G01*
Y24500D02*G75*G03X928500Y31500I0J7000D01*G01*
X914500D02*G75*G03X921500Y24500I7000J0D01*G01*
G54D190*X642500Y33500D02*G75*G03X646500Y29500I4000J0D01*G01*
X644500Y33500D02*G75*G03X646500Y31500I2000J0D01*G01*
G54D189*X645500Y33500D02*G75*G02X646500Y32500I0J-1000D01*G01*
G54D190*Y37500D02*G75*G03X642500Y33500I0J-4000D01*G01*
X646500Y35500D02*G75*G03X644500Y33500I0J-2000D01*G01*
X646500Y31500D02*G75*G03X648500Y33500I0J2000D01*G01*
G54D189*X646500Y32500D02*G75*G02X647500Y33500I1000J0D01*G01*
G75*G02X646500Y34500I0J1000D01*G01*
G54D190*X648500Y33500D02*G75*G03X646500Y35500I-2000J0D01*G01*
X628500Y33500D02*G75*G03X632500Y29500I4000J0D01*G01*
Y37500D02*G75*G03X628500Y33500I0J-4000D01*G01*
X636500D02*G75*G02X632500Y29500I-4000J0D01*G01*
Y37500D02*G75*G02X636500Y33500I0J-4000D01*G01*
X654500D02*G75*G03X658500Y29500I4000J0D01*G01*
Y37500D02*G75*G03X654500Y33500I0J-4000D01*G01*
X662500D02*G75*G02X658500Y29500I-4000J0D01*G01*
Y37500D02*G75*G02X662500Y33500I0J-4000D01*G01*
G54D192*X1087610Y128000D02*X1094050D01*
X1087610Y130760D02*Y128000D01*
Y130760D02*X1087918Y131679D01*
X1088223Y131986D01*
X1088837Y132292D01*
X1089450D01*
X1090064Y131986D01*
X1090370Y131679D01*
X1090677Y130760D01*
Y128000D01*
Y130146D02*X1094050Y132292D01*
X1087610Y135834D02*Y134224D01*
Y135029D02*X1094050D01*
Y135834D02*Y134224D01*
X1089143Y142366D02*X1088531Y142059D01*
X1087918Y141447D01*
X1087610Y140833D01*
Y139606D01*
X1087918Y138993D01*
X1088531Y138380D01*
X1089143Y138074D01*
X1090064Y137766D01*
X1091598D01*
X1092517Y138074D01*
X1093131Y138380D01*
X1093742Y138993D01*
X1094050Y139606D01*
Y140833D02*Y139606D01*
Y140833D02*X1093742Y141447D01*
X1093131Y142059D01*
X1092517Y142366D01*
X1091598D02*X1092517D01*
X1091598D02*Y140833D01*
X1087610Y144298D02*X1094050D01*
X1087610Y148592D02*X1094050D01*
X1090677D02*Y144298D01*
X1087610Y152670D02*X1094050D01*
X1087610Y154816D02*Y150524D01*
G54D193*X989000Y114235D02*X989597Y114534D01*
X990495Y115430D01*
Y109150D01*
G54D194*X1024718Y116699D02*X1023670Y117747D01*
X1022100Y118272D01*
X1020005D02*X1022100D01*
X1020005D02*X1018432Y117747D01*
X1017387Y116699D01*
Y115654D01*
X1017906Y114604D01*
X1018432Y114081D01*
X1019482Y113558D01*
X1022625Y112511D01*
X1023670Y111986D01*
X1024193Y111463D01*
X1024718Y110415D01*
Y108842D01*
X1023670Y107797D01*
X1022100Y107272D01*
X1020005D02*X1022100D01*
X1020005D02*X1018432Y107797D01*
X1017387Y108842D01*
X1028018Y112772D02*X1034893D01*
X1038716Y116179D02*Y115654D01*
Y116179D02*X1039241Y117224D01*
X1039761Y117749D01*
X1040811Y118272D01*
X1042904D01*
X1043954Y117749D01*
X1044477Y117224D01*
X1044999Y116179D01*
Y115129D01*
X1044477Y114081D01*
X1043429Y112511D01*
X1038193Y107272D01*
X1045525D01*
G54D186*X936328Y32884D02*X936072Y33394D01*
X935562Y33904D01*
X935053Y34160D01*
X934030D02*X935053D01*
X934030D02*X933521Y33904D01*
X933009Y33394D01*
X932755Y32884D01*
X932500Y32118D01*
Y30841D01*
X932755Y30076D01*
X933009Y29565D01*
X933521Y29056D01*
X934030Y28800D01*
X935053D01*
X935562Y29056D01*
X936072Y29565D01*
X936328Y30076D01*
X941765Y32884D02*X941509Y33394D01*
X940998Y33904D01*
X940489Y34160D01*
X939467D02*X940489D01*
X939467D02*X938957Y33904D01*
X938446Y33394D01*
X938191Y32884D01*
X937936Y32118D01*
Y30841D01*
X938191Y30076D01*
X938446Y29565D01*
X938957Y29056D01*
X939467Y28800D01*
X940489D01*
X940998Y29056D01*
X941509Y29565D01*
X941765Y30076D01*
X943373Y31480D02*X946723D01*
X948331Y34160D02*Y28800D01*
Y34160D02*X950628D01*
X951393Y33904D01*
X951649Y33649D01*
X951903Y33138D01*
Y32628D01*
X951649Y32118D01*
X951393Y31862D01*
X950628Y31607D01*
X948331D02*X950628D01*
X951393Y31353D01*
X951649Y31097D01*
X951903Y30586D01*
Y29821D01*
X951649Y29309D01*
X951393Y29056D01*
X950628Y28800D01*
X948331D02*X950628D01*
X953511Y34160D02*X955552Y31607D01*
Y28800D01*
X957596Y34160D02*X955552Y31607D01*
X959204Y31480D02*X962554D01*
X967734Y33394D02*X967223Y33904D01*
X966458Y34160D01*
X965437D02*X966458D01*
X965437D02*X964671Y33904D01*
X964162Y33394D01*
Y32884D01*
X964415Y32372D01*
X964671Y32118D01*
X965183Y31863D01*
X966714Y31353D01*
X967223Y31097D01*
X967478Y30842D01*
X967734Y30332D01*
Y29565D01*
X967223Y29056D01*
X966458Y28800D01*
X965437D02*X966458D01*
X965437D02*X964671Y29056D01*
X964162Y29565D01*
X971384Y34160D02*X969342Y28800D01*
X971384Y34160D02*X973426Y28800D01*
X970108Y30586D02*X972661D01*
X979998Y34160D02*X977446Y30588D01*
X981273D01*
X979998Y34160D02*Y28800D01*
X983136Y29202D02*X982881Y28946D01*
X983136Y28693D01*
X983391Y28946D01*
X983136Y29202D01*
X986530Y34160D02*X985765Y33905D01*
X985253Y33140D01*
X984999Y31865D01*
Y31098D01*
X985253Y29821D01*
X985765Y29056D01*
X986530Y28800D01*
X987041D01*
X987806Y29056D01*
X988316Y29821D01*
X988572Y31098D01*
Y31865D02*Y31098D01*
Y31865D02*X988316Y33140D01*
X987806Y33905D01*
X987041Y34160D01*
X986530D02*X987041D01*
X1045000Y29123D02*X1045513Y29379D01*
X1046285Y30150D01*
Y24750D01*
X1090500Y25123D02*X1091013Y25379D01*
X1091785Y26150D01*
Y20750D01*
G54D194*X906652Y14260D02*Y3300D01*
X903000Y14260D02*X910305D01*
X916722D02*X915681Y13737D01*
X914634Y12693D01*
X914113Y11652D01*
X913593Y10084D01*
Y7476D01*
X914113Y5906D01*
Y5908D02*X914634Y4865D01*
X915681Y3823D01*
X916722Y3300D01*
X918813D01*
X919854Y3823D01*
X920898Y4865D01*
X921421Y5908D01*
X921939Y7476D01*
Y10084D02*Y7476D01*
Y10084D02*X921421Y11652D01*
X920898Y12693D01*
X919854Y13737D01*
X918813Y14260D01*
X916722D02*X918813D01*
X925227D02*Y3300D01*
Y14260D02*X929923D01*
X931488Y13737D01*
X932011Y13216D01*
X932532Y12172D01*
Y10605D01*
X932011Y9564D01*
X931488Y9040D01*
X929923Y8520D01*
X925227D02*X929923D01*
X948057Y12693D02*X947013Y13737D01*
X945448Y14260D01*
X943360D02*X945448D01*
X943360D02*X941793Y13737D01*
X940752Y12693D01*
Y11652D01*
X941270Y10605D01*
X941793Y10084D01*
X942840Y9564D01*
X945971Y8520D01*
X947013Y7996D01*
X947533Y7476D01*
X948057Y6432D01*
Y4865D01*
X947013Y3823D01*
X945448Y3300D01*
X943360D02*X945448D01*
X943360D02*X941793Y3823D01*
X940752Y4865D01*
X951345Y14260D02*X954085D01*
X952715D02*Y3300D01*
X951345D02*X954085D01*
X957373Y14260D02*Y3300D01*
X963634D01*
X966922Y14260D02*Y3300D01*
X974226Y14260D02*X966922Y6952D01*
X969530Y9561D02*X974226Y3300D01*
G54D195*X480500Y201350D02*Y193070D01*
X475377D02*X480500D01*
X477347Y197013D02*X480500D01*
X472893Y201350D02*Y193070D01*
X469345D02*X472893D01*
X469345D02*X468163Y193465D01*
X467767Y193859D01*
X467374Y194647D01*
Y195436D02*Y194647D01*
Y195436D02*X467767Y196225D01*
X468163Y196618D01*
X469345Y197013D01*
X472893D01*
X470133D02*X467374Y201350D01*
X462526Y193070D02*X463313Y193465D01*
X464104Y194254D01*
X464497Y195041D01*
X464890Y196225D01*
Y198195D02*Y196225D01*
Y198195D02*X464497Y199381D01*
Y199379D02*X464104Y200168D01*
X463313Y200955D01*
X462526Y201350D01*
X460947D02*X462526D01*
X460947D02*X460160Y200955D01*
X459371Y200168D01*
X458976Y199379D01*
X458585Y198195D01*
Y196225D01*
X458976Y195041D01*
X459371Y194254D01*
X460160Y193465D01*
X460947Y193070D01*
X462526D01*
X456101Y201350D02*Y193070D01*
X450582Y201350D01*
Y193070D01*
X445339Y201350D02*Y193070D01*
X442580D02*X448098D01*
G54D196*X319500Y196500D02*X320635Y195931D01*
X321205Y195368D01*
X321771Y194229D01*
Y193094D01*
X321205Y191961D01*
X320635Y191392D01*
X320069Y190257D01*
Y189124D01*
X321205Y187986D01*
X320635Y195931D02*X321205Y194798D01*
Y193663D01*
X320635Y192531D01*
X320069Y191961D01*
X319500Y190823D01*
Y189691D01*
X320069Y188555D01*
X322337Y187417D01*
X320069Y186285D01*
X319500Y185149D01*
Y184017D01*
X320069Y182878D01*
X320635Y182312D01*
X321205Y181177D01*
Y180041D01*
X320635Y178906D01*
X321205Y186854D02*X320069Y185715D01*
Y184580D01*
X320635Y183448D01*
X321205Y182878D01*
X321771Y181743D01*
Y180611D01*
X321205Y179472D01*
X320635Y178906D01*
X319500Y178340D01*
G54D186*X340500Y190160D02*X341840D01*
X341170D02*Y184800D01*
X340500D02*X341840D01*
X343703Y189140D02*Y188884D01*
Y189140D02*X343959Y189649D01*
X344212Y189905D01*
X344724Y190160D01*
X345743D01*
X346255Y189905D01*
X346510Y189649D01*
X346765Y189140D01*
Y188628D01*
X346510Y188118D01*
X345999Y187353D01*
X343448Y184800D01*
X347020D01*
X352457Y188884D02*X352201Y189394D01*
X351690Y189904D01*
X351181Y190160D01*
X350159D02*X351181D01*
X350159D02*X349650Y189904D01*
X349138Y189394D01*
X348883Y188884D01*
X348628Y188118D01*
Y186841D01*
X348883Y186076D01*
X349138Y185565D01*
X349650Y185056D01*
X350159Y184800D01*
X351181D01*
X351690Y185056D01*
X352201Y185565D01*
X352457Y186076D01*
X356477Y190160D02*Y184800D01*
Y190160D02*X358774D01*
X359539Y189904D01*
X359795Y189649D01*
X360049Y189138D01*
Y188628D01*
X359795Y188118D01*
X359539Y187862D01*
X358774Y187607D01*
X356477D02*X358774D01*
X359539Y187353D01*
X359795Y187097D01*
X360049Y186586D01*
Y185821D01*
X359795Y185309D01*
X359539Y185056D01*
X358774Y184800D01*
X356477D02*X358774D01*
X361657Y188374D02*Y184801D01*
Y186842D02*X361912Y187610D01*
X362424Y188119D01*
X362933Y188374D01*
X363699D01*
X365307Y186845D02*X368368D01*
Y187354D02*Y186845D01*
Y187354D02*X368113Y187865D01*
X367859Y188121D01*
X367348Y188374D01*
X366583D02*X367348D01*
X366583D02*X366071Y188121D01*
X365561Y187610D01*
X365307Y186845D01*
Y186333D01*
X365561Y185568D01*
X366071Y185057D01*
X366583Y184801D01*
X367348D01*
X367859Y185057D01*
X368368Y185568D01*
X373039Y188374D02*Y184801D01*
Y187610D02*X372527Y188121D01*
X372018Y188374D01*
X371252D02*X372018D01*
X371252D02*X370742Y188121D01*
X370231Y187610D01*
X369976Y186845D01*
Y186333D01*
X370231Y185568D01*
X370742Y185057D01*
X371252Y184801D01*
X372018D01*
X372527Y185057D01*
X373039Y185568D01*
X374647Y190160D02*Y184800D01*
X377199Y188374D02*X374647Y185821D01*
X375667Y186844D02*X377455Y184800D01*
X380338Y188374D02*X379826Y188121D01*
X379316Y187610D01*
X379063Y186845D01*
Y186333D01*
X379316Y185568D01*
X379826Y185057D01*
X380338Y184801D01*
X381103D01*
X381614Y185057D01*
X382123Y185568D01*
X382379Y186333D01*
Y186845D02*Y186333D01*
Y186845D02*X382123Y187610D01*
X381614Y188121D01*
X381103Y188374D01*
X380338D02*X381103D01*
X383987D02*Y185822D01*
X384242Y185057D01*
X384754Y184801D01*
X385519D01*
X386029Y185057D01*
X386794Y185822D01*
Y188374D02*Y184801D01*
X389169Y190160D02*Y185821D01*
X389422Y185056D01*
X389934Y184800D01*
X390445D01*
X388402Y188374D02*X390189D01*
X394858Y187610D02*X394604Y188119D01*
X393837Y188374D01*
X393072D02*X393837D01*
X393072D02*X392306Y188119D01*
X392053Y187610D01*
X392306Y187098D01*
X392816Y186842D01*
X394093Y186588D01*
X394604Y186333D01*
X394858Y185822D01*
Y185566D01*
X394604Y185057D01*
X393837Y184801D01*
X393072D02*X393837D01*
X393072D02*X392306Y185057D01*
X392053Y185566D01*
G54D192*X3500Y177500D02*X9900D01*
X3500D02*Y173844D01*
Y171924D02*X9900D01*
Y167962D01*
X6852Y171924D02*Y169487D01*
X3500Y171924D02*Y167962D01*
Y166042D02*X9900D01*
Y162082D01*
X6852Y166042D02*Y163606D01*
X3500Y158030D02*X9900D01*
Y160162D02*Y155897D01*
G54D197*X113000Y53180D02*Y45900D01*
Y53180D02*X116119D01*
X117159Y52832D01*
X117506Y52487D01*
X117852Y51793D01*
Y51100D01*
X117506Y50406D01*
X117159Y50061D01*
X116119Y49713D01*
X113000D02*X116119D01*
X115426D02*X117852Y45900D01*
X120036Y48677D02*X124193D01*
Y49369D02*Y48677D01*
Y49369D02*X123847Y50062D01*
X123501Y50410D01*
X122808Y50754D01*
X121769D02*X122808D01*
X121769D02*X121074Y50410D01*
X120380Y49717D01*
X120036Y48677D01*
Y47982D01*
X120380Y46943D01*
X121074Y46249D01*
X121769Y45902D01*
X122808D01*
X123501Y46249D01*
X124193Y46943D01*
X130188Y49717D02*X129842Y50408D01*
X128801Y50754D01*
X127762D02*X128801D01*
X127762D02*X126721Y50408D01*
X126377Y49717D01*
X126721Y49021D01*
X127414Y48674D01*
X129149Y48328D01*
X129842Y47982D01*
X130188Y47289D01*
Y46941D01*
X129842Y46249D01*
X128801Y45902D01*
X127762D02*X128801D01*
X127762D02*X126721Y46249D01*
X126377Y46941D01*
X132372Y48677D02*X136529D01*
Y49369D02*Y48677D01*
Y49369D02*X136183Y50062D01*
X135837Y50410D01*
X135144Y50754D01*
X134105D02*X135144D01*
X134105D02*X133410Y50410D01*
X132716Y49717D01*
X132372Y48677D01*
Y47982D01*
X132716Y46943D01*
X133410Y46249D01*
X134105Y45902D01*
X135144D01*
X135837Y46249D01*
X136529Y46943D01*
X139754Y53180D02*Y47287D01*
X140098Y46248D01*
X140793Y45900D01*
X141487D01*
X138713Y50754D02*X141139D01*
G54D186*X66500Y107360D02*X68236Y102800D01*
X69975Y107360D02*X68236Y102800D01*
X71343Y107360D02*X72483D01*
X71913D02*Y102800D01*
X71343D02*X72483D01*
X73851Y107360D02*Y102800D01*
Y107360D02*X76890Y102800D01*
Y107360D02*Y102800D01*
X63237Y117360D02*X61500Y112800D01*
X63237Y117360D02*X64975Y112800D01*
X62152Y114320D02*X64324D01*
X66343Y117360D02*Y112800D01*
Y117360D02*X68297D01*
X68948Y117142D01*
X69165Y116926D01*
X69382Y116491D01*
Y116057D01*
X69165Y115623D01*
X68948Y115406D01*
X68297Y115188D01*
X66343D02*X68297D01*
X67862D02*X69382Y112800D01*
X70750Y117360D02*Y112800D01*
Y117360D02*X73573D01*
X70750Y115188D02*X72486D01*
X70750Y112800D02*X73573D01*
X74941Y117360D02*Y112800D01*
Y117360D02*X77762D01*
X74941Y115188D02*X76677D01*
X53722Y136870D02*X52000Y132350D01*
X53722Y136870D02*X55444Y132350D01*
X52646Y133856D02*X54799D01*
X56800Y136010D02*X57230Y136225D01*
X57876Y136870D01*
Y132350D01*
X61776Y136870D02*X59232Y132350D01*
X63132Y136870D02*Y132350D01*
Y136870D02*X65930D01*
X63132Y134717D02*X64853D01*
X63132Y132350D02*X65930D01*
X68576Y136870D02*X68147Y136654D01*
X67715Y136224D01*
X67500Y135794D01*
X67286Y135148D01*
Y134072D01*
X67500Y133425D01*
Y133426D02*X67715Y132995D01*
X68147Y132566D01*
X68576Y132350D01*
X69438D01*
X69868Y132566D01*
X70298Y132995D01*
X70514Y133426D01*
X70728Y134072D01*
Y135148D02*Y134072D01*
Y135148D02*X70514Y135794D01*
X70298Y136224D01*
X69868Y136654D01*
X69438Y136870D01*
X68576D02*X69438D01*
X72084D02*Y132350D01*
X74666D01*
X76022Y136870D02*Y132350D01*
X78604D01*
X50737Y128860D02*X49000Y124300D01*
X50737Y128860D02*X52475Y124300D01*
X49652Y125820D02*X51824D01*
X55146Y128860D02*X54495Y128643D01*
X54059Y127992D01*
X53843Y126907D01*
Y126255D01*
X54059Y125169D01*
X54495Y124518D01*
X55146Y124300D01*
X55580D01*
X56231Y124518D01*
X56665Y125169D01*
X56883Y126255D01*
Y126907D02*Y126255D01*
Y126907D02*X56665Y127992D01*
X56231Y128643D01*
X55580Y128860D01*
X55146D02*X55580D01*
X60817D02*X58251Y124300D01*
X62185Y128860D02*Y124300D01*
Y128860D02*X65008D01*
X62185Y126688D02*X63921D01*
X62185Y124300D02*X65008D01*
X67678Y128860D02*X67245Y128642D01*
X66809Y128208D01*
X66592Y127775D01*
X66376Y127123D01*
Y126037D01*
X66592Y125384D01*
Y125385D02*X66809Y124951D01*
X67245Y124518D01*
X67678Y124300D01*
X68548D01*
X68981Y124518D01*
X69415Y124951D01*
X69633Y125385D01*
X69848Y126037D01*
Y127123D02*Y126037D01*
Y127123D02*X69633Y127775D01*
X69415Y128208D01*
X68981Y128642D01*
X68548Y128860D01*
X67678D02*X68548D01*
X71216D02*Y124300D01*
X73821D01*
X75189Y128860D02*Y124300D01*
Y128860D02*X77143D01*
X77794Y128642D01*
X78012Y128426D01*
X78228Y127991D01*
Y127557D01*
X78012Y127123D01*
X77794Y126906D01*
X77143Y126688D01*
X75189D02*X77143D01*
X76709D02*X78228Y124300D01*
X55000Y111123D02*X55513Y111379D01*
X56285Y112150D01*
Y106750D01*
G54D198*X32552Y101520D02*X31973Y102099D01*
X31105Y102389D01*
X29947D02*X31105D01*
X29947D02*X29078Y102099D01*
X28500Y101520D01*
Y100942D01*
X28787Y100362D01*
X29078Y100073D01*
X29658Y99784D01*
X31396Y99205D01*
X31973Y98915D01*
X32262Y98626D01*
X32552Y98047D01*
Y97177D01*
X31973Y96600D01*
X31105Y96309D01*
X29947D02*X31105D01*
X29947D02*X29078Y96600D01*
X28500Y97177D01*
X34376Y99349D02*X38176D01*
X44053Y102389D02*X41157Y96309D01*
X40000Y102389D02*X44053D01*
G54D186*X9564Y93490D02*X10077Y93746D01*
X10849Y94517D01*
Y89117D01*
X60500Y47360D02*X62236Y42800D01*
X63975Y47360D02*X62236Y42800D01*
X65343Y47360D02*Y44103D01*
X65560Y43451D01*
X65994Y43018D01*
X66646Y42800D01*
X67079D01*
X67731Y43018D01*
X68165Y43451D01*
X68382Y44103D01*
Y47360D02*Y44103D01*
X72789Y46708D02*X72355Y47142D01*
X71704Y47360D01*
X70835D02*X71704D01*
X70835D02*X70183Y47142D01*
X69750Y46708D01*
Y46275D01*
X69965Y45839D01*
X70183Y45623D01*
X70619Y45406D01*
X71922Y44972D01*
X72355Y44754D01*
X72571Y44537D01*
X72789Y44103D01*
Y43451D01*
X72355Y43018D01*
X71704Y42800D01*
X70835D02*X71704D01*
X70835D02*X70183Y43018D01*
X69750Y43451D01*
X74157Y47360D02*Y42800D01*
Y47360D02*X76111D01*
X76762Y47142D01*
X76980Y46926D01*
X77196Y46490D01*
Y46057D01*
X76980Y45623D01*
X76762Y45405D01*
X76111Y45188D01*
X74157D02*X76111D01*
X76762Y44972D01*
X76980Y44754D01*
X77196Y44320D01*
Y43669D01*
X76980Y43233D01*
X76762Y43018D01*
X76111Y42800D01*
X74157D02*X76111D01*
X65500Y57360D02*Y52800D01*
Y57360D02*X67454D01*
X68105Y57142D01*
X68323Y56926D01*
X68539Y56491D01*
Y56057D01*
X68323Y55623D01*
X68105Y55406D01*
X67454Y55188D01*
X65500D02*X67454D01*
X67020D02*X68539Y52800D01*
X72946Y56708D02*X72512Y57142D01*
X71861Y57360D01*
X70993D02*X71861D01*
X70993D02*X70340Y57142D01*
X69907Y56708D01*
Y56275D01*
X70123Y55839D01*
X70340Y55623D01*
X70776Y55406D01*
X72079Y54972D01*
X72512Y54754D01*
X72729Y54537D01*
X72946Y54103D01*
Y53451D01*
X72512Y53018D01*
X71861Y52800D01*
X70993D02*X71861D01*
X70993D02*X70340Y53018D01*
X69907Y53451D01*
X75834Y57360D02*Y52800D01*
X74314Y57360D02*X77354D01*
X69257Y86275D02*X69039Y86708D01*
X68606Y87142D01*
X68172Y87360D01*
X67303D02*X68172D01*
X67303D02*X66869Y87142D01*
X66434Y86708D01*
X66218Y86275D01*
X66000Y85623D01*
Y84536D01*
X66218Y83885D01*
X66434Y83451D01*
X66869Y83018D01*
X67303Y82800D01*
X68172D01*
X68606Y83018D01*
X69039Y83451D01*
X69257Y83885D01*
Y84536D02*Y83885D01*
X68172Y84536D02*X69257D01*
X70625Y87360D02*Y82800D01*
Y87360D02*X73664Y82800D01*
Y87360D02*Y82800D01*
X75032Y87360D02*Y82800D01*
Y87360D02*X76553D01*
X77204Y87142D01*
X77638Y86708D01*
X77855Y86275D01*
X78071Y85623D01*
Y84536D01*
X77855Y83885D01*
X77638Y83451D01*
X77204Y83018D01*
X76553Y82800D01*
X75032D02*X76553D01*
X68757Y96275D02*X68539Y96708D01*
X68106Y97142D01*
X67672Y97360D01*
X66803D02*X67672D01*
X66803D02*X66369Y97142D01*
X65934Y96708D01*
X65718Y96275D01*
X65500Y95623D01*
Y94536D01*
X65718Y93885D01*
X65934Y93451D01*
X66369Y93018D01*
X66803Y92800D01*
X67672D01*
X68106Y93018D01*
X68539Y93451D01*
X68757Y93885D01*
Y94536D02*Y93885D01*
X67672Y94536D02*X68757D01*
X70125Y97360D02*Y92800D01*
Y97360D02*X73164Y92800D01*
Y97360D02*Y92800D01*
X74532Y97360D02*Y92800D01*
Y97360D02*X76053D01*
X76704Y97142D01*
X77138Y96708D01*
X77355Y96275D01*
X77571Y95623D01*
Y94536D01*
X77355Y93885D01*
X77138Y93451D01*
X76704Y93018D01*
X76053Y92800D01*
X74532D02*X76053D01*
X69433Y67360D02*X71821D01*
X70518Y65623D01*
X71171D01*
X71604Y65407D01*
X71821Y65189D01*
X72039Y64537D01*
Y64104D01*
X71821Y63452D01*
X71388Y63018D01*
X70736Y62800D01*
X70085D02*X70736D01*
X70085D02*X69433Y63018D01*
X69217Y63235D01*
X69000Y63669D01*
X73407Y67360D02*X75143Y62800D01*
X76882Y67360D02*X75143Y62800D01*
X69434Y77360D02*X71606D01*
X69434D02*X69217Y75407D01*
X69434Y75623D01*
X70085Y75840D01*
X70737D01*
X71388Y75623D01*
X71823Y75189D01*
X72040Y74537D01*
Y74104D01*
X71823Y73452D01*
X71388Y73018D01*
X70737Y72800D01*
X70085D02*X70737D01*
X70085D02*X69434Y73018D01*
X69217Y73235D01*
X69000Y73669D01*
X73408Y77360D02*X75145Y72800D01*
X76883Y77360D02*X75145Y72800D01*
X69237Y147360D02*X67500Y142800D01*
X69237Y147360D02*X70975Y142800D01*
X68152Y144320D02*X70324D01*
X72559Y146492D02*Y146275D01*
Y146492D02*X72777Y146926D01*
X72993Y147143D01*
X73428Y147360D01*
X74296D01*
X74731Y147143D01*
X74948Y146926D01*
X75164Y146492D01*
Y146057D01*
X74948Y145623D01*
X74513Y144972D01*
X72343Y142800D01*
X75382D01*
X69237Y157360D02*X67500Y152800D01*
X69237Y157360D02*X70975Y152800D01*
X68152Y154320D02*X70324D01*
X72776Y157360D02*X75164D01*
X73861Y155623D01*
X74513D01*
X74946Y155407D01*
X75164Y155189D01*
X75382Y154537D01*
Y154104D01*
X75164Y153452D01*
X74731Y153018D01*
X74079Y152800D01*
X73428D02*X74079D01*
X73428D02*X72776Y153018D01*
X72559Y153235D01*
X72343Y153669D01*
X55237Y176360D02*X53500Y171800D01*
X55237Y176360D02*X56975Y171800D01*
X54152Y173320D02*X56324D01*
X58777Y176360D02*X60949D01*
X58777D02*X58559Y174407D01*
X58777Y174623D01*
X59428Y174840D01*
X60080D01*
X60731Y174623D01*
X61165Y174189D01*
X61383Y173537D01*
Y173104D01*
X61165Y172452D01*
X60731Y172018D01*
X60080Y171800D01*
X59428D02*X60080D01*
X59428D02*X58777Y172018D01*
X58559Y172235D01*
X58343Y172669D01*
X65317Y176360D02*X62751Y171800D01*
X69724Y175708D02*X69290Y176142D01*
X68639Y176360D01*
X67771D02*X68639D01*
X67771D02*X67118Y176142D01*
X66685Y175708D01*
Y175275D01*
X66901Y174839D01*
X67118Y174623D01*
X67554Y174406D01*
X68857Y173972D01*
X69290Y173754D01*
X69507Y173537D01*
X69724Y173103D01*
Y172451D01*
X69290Y172018D01*
X68639Y171800D01*
X67771D02*X68639D01*
X67771D02*X67118Y172018D01*
X66685Y172451D01*
X74349Y175275D02*X74132Y175708D01*
X73697Y176142D01*
X73264Y176360D01*
X72394D02*X73264D01*
X72394D02*X71961Y176142D01*
X71526Y175708D01*
X71309Y175275D01*
X71092Y174623D01*
Y173536D01*
X71309Y172885D01*
X71526Y172451D01*
X71961Y172018D01*
X72394Y171800D01*
X73264D01*
X73697Y172018D01*
X74132Y172451D01*
X74349Y172885D01*
X75717Y176360D02*Y171800D01*
X78322D01*
X54237Y167360D02*X52500Y162800D01*
X54237Y167360D02*X55975Y162800D01*
X53152Y164320D02*X55324D01*
X59513Y167360D02*X57343Y164321D01*
X60599D01*
X59513Y167360D02*Y162800D01*
X64533Y167360D02*X61967Y162800D01*
X68940Y166708D02*X68506Y167142D01*
X67855Y167360D01*
X66986D02*X67855D01*
X66986D02*X66334Y167142D01*
X65901Y166708D01*
Y166275D01*
X66116Y165839D01*
X66334Y165623D01*
X66769Y165406D01*
X68072Y164972D01*
X68506Y164754D01*
X68722Y164537D01*
X68940Y164103D01*
Y163451D01*
X68506Y163018D01*
X67855Y162800D01*
X66986D02*X67855D01*
X66986D02*X66334Y163018D01*
X65901Y163451D01*
X70308Y167360D02*Y162800D01*
Y167360D02*X71829D01*
X72480Y167142D01*
X72914Y166708D01*
X73131Y166275D01*
X73347Y165623D01*
Y164536D01*
X73131Y163885D01*
X72914Y163451D01*
X72480Y163018D01*
X71829Y162800D01*
X70308D02*X71829D01*
X76453Y167360D02*X74715Y162800D01*
X76453Y167360D02*X78190Y162800D01*
X75367Y164320D02*X77539D01*
G54D192*X84500Y35182D02*X85108Y35486D01*
X86023Y36400D01*
Y30000D01*
G54D186*X384454Y29075D02*Y25167D01*
X382500Y27121D02*X386408D01*
X390597Y27840D02*X390381Y27189D01*
X389946Y26755D01*
X389294Y26537D01*
X389078D02*X389294D01*
X389078D02*X388427Y26755D01*
X387991Y27189D01*
X387776Y27840D01*
Y28057D02*Y27840D01*
Y28057D02*X387991Y28709D01*
X388427Y29143D01*
X389078Y29360D01*
X389294D01*
X389946Y29143D01*
X390381Y28709D01*
X390597Y27840D01*
Y26755D01*
X390381Y25669D01*
X389946Y25018D01*
X389294Y24800D01*
X388861D02*X389294D01*
X388861D02*X388209Y25018D01*
X387991Y25452D01*
X391965Y29360D02*X393702Y24800D01*
X395440Y29360D02*X393702Y24800D01*
X358454Y29075D02*Y25167D01*
X356500Y27121D02*X360408D01*
X362210Y29360D02*X364382D01*
X362210D02*X361993Y27407D01*
X362210Y27623D01*
X362861Y27840D01*
X363513D01*
X364164Y27623D01*
X364599Y27189D01*
X364816Y26537D01*
Y26104D01*
X364599Y25452D01*
X364164Y25018D01*
X363513Y24800D01*
X362861D02*X363513D01*
X362861D02*X362210Y25018D01*
X361993Y25235D01*
X361776Y25669D01*
X366184Y29360D02*X367921Y24800D01*
X369659Y29360D02*X367921Y24800D01*
X418000Y69123D02*X418513Y69379D01*
X419285Y70150D01*
Y64750D01*
X54500Y24623D02*X55013Y24879D01*
X55785Y25650D01*
Y20250D01*
X411500Y95123D02*X412013Y95379D01*
X412785Y96150D01*
Y90750D01*
X279292Y166539D02*X278858Y166105D01*
X278640Y165454D01*
Y164585D01*
X278858Y163933D01*
X279292Y163500D01*
X279725D01*
X280161Y163715D01*
X280377Y163933D01*
X280594Y164369D01*
X281028Y165672D01*
X281246Y166105D01*
X281463Y166321D01*
X281897Y166539D01*
X282549D01*
X282982Y166105D01*
X283200Y165454D01*
Y164585D01*
X282982Y163933D01*
X282549Y163500D01*
X279725Y171164D02*X279292Y170946D01*
X278858Y170512D01*
X278640Y170079D01*
Y169209D01*
X278858Y168776D01*
X279292Y168340D01*
X279725Y168124D01*
X280377Y167907D01*
X281464D01*
X282115Y168124D01*
X282549Y168340D01*
X282982Y168776D01*
X283200Y169209D01*
Y170079D02*Y169209D01*
Y170079D02*X282982Y170512D01*
X282549Y170946D01*
X282115Y171164D01*
X278640Y172532D02*X283200D01*
Y175137D02*Y172532D01*
X289792Y165539D02*X289358Y165105D01*
X289140Y164454D01*
Y163585D01*
X289358Y162933D01*
X289792Y162500D01*
X290225D01*
X290661Y162715D01*
X290877Y162933D01*
X291094Y163369D01*
X291528Y164672D01*
X291746Y165105D01*
X291963Y165321D01*
X292397Y165539D01*
X293049D01*
X293482Y165105D01*
X293700Y164454D01*
Y163585D01*
X293482Y162933D01*
X293049Y162500D01*
X289140Y166907D02*X293700D01*
X289140Y168428D02*Y166907D01*
Y168428D02*X289358Y169079D01*
X289792Y169513D01*
X290225Y169730D01*
X290877Y169946D01*
X291964D01*
X292615Y169730D01*
X293049Y169513D01*
X293482Y169079D01*
X293700Y168428D01*
Y166907D01*
X289140Y173052D02*X293700Y171314D01*
X289140Y173052D02*X293700Y174789D01*
X292180Y174138D02*Y171967D01*
X299425Y163454D02*X303333D01*
X301379Y165408D02*Y161500D01*
X299140Y169382D02*Y167210D01*
X301093Y166993D01*
X300877Y167210D01*
X300660Y167861D01*
Y168513D02*Y167861D01*
Y168513D02*X300877Y169164D01*
X301311Y169599D01*
X301963Y169816D01*
X302396D01*
X303048Y169599D01*
X303482Y169164D01*
X303700Y168513D01*
Y167861D01*
X303482Y167210D01*
X303265Y166993D01*
X302831Y166776D01*
X299140Y171184D02*X303700Y172921D01*
X299140Y174659D02*X303700Y172921D01*
X270225Y166257D02*X269792Y166039D01*
X269358Y165606D01*
X269140Y165172D01*
Y164303D01*
X269358Y163869D01*
X269792Y163434D01*
X270225Y163218D01*
X270877Y163000D01*
X271964D01*
X272615Y163218D01*
X273049Y163434D01*
X273482Y163869D01*
X273700Y164303D01*
Y165172D02*Y164303D01*
Y165172D02*X273482Y165606D01*
X273049Y166039D01*
X272615Y166257D01*
X271964D02*X272615D01*
X271964D02*Y165172D01*
X269140Y167625D02*X273700D01*
X269140D02*X273700Y170664D01*
X269140D02*X273700D01*
X269140Y172032D02*X273700D01*
X269140Y173553D02*Y172032D01*
Y173553D02*X269358Y174204D01*
X269792Y174638D01*
X270225Y174855D01*
X270877Y175071D01*
X271964D01*
X272615Y174855D01*
X273049Y174638D01*
X273482Y174204D01*
X273700Y173553D01*
Y172032D01*
X275500Y143123D02*X276013Y143379D01*
X276785Y144150D01*
Y138750D01*
X258500Y115123D02*X259013Y115379D01*
X259785Y116150D01*
Y110750D01*
X173000Y177360D02*Y172800D01*
Y177360D02*X174521D01*
X175172Y177142D01*
X175606Y176708D01*
X175823Y176275D01*
X176039Y175623D01*
Y174536D01*
X175823Y173885D01*
X175606Y173451D01*
X175172Y173018D01*
X174521Y172800D01*
X173000D02*X174521D01*
X178710Y177360D02*X178059Y177143D01*
X177624Y176492D01*
X177407Y175407D01*
Y174755D01*
X177624Y173669D01*
X178059Y173018D01*
X178710Y172800D01*
X179145D01*
X179796Y173018D01*
X180230Y173669D01*
X180448Y174755D01*
Y175407D02*Y174755D01*
Y175407D02*X180230Y176492D01*
X179796Y177143D01*
X179145Y177360D01*
X178710D02*X179145D01*
X173000Y167360D02*Y162800D01*
Y167360D02*X174521D01*
X175172Y167142D01*
X175606Y166708D01*
X175823Y166275D01*
X176039Y165623D01*
Y164536D01*
X175823Y163885D01*
X175606Y163451D01*
X175172Y163018D01*
X174521Y162800D01*
X173000D02*X174521D01*
X177407Y166492D02*X177840Y166709D01*
X178493Y167360D01*
Y162800D01*
X173000Y157360D02*Y152800D01*
Y157360D02*X174521D01*
X175172Y157142D01*
X175606Y156708D01*
X175823Y156275D01*
X176039Y155623D01*
Y154536D01*
X175823Y153885D01*
X175606Y153451D01*
X175172Y153018D01*
X174521Y152800D01*
X173000D02*X174521D01*
X177624Y156492D02*Y156275D01*
Y156492D02*X177842Y156926D01*
X178057Y157143D01*
X178493Y157360D01*
X179360D01*
X179796Y157143D01*
X180012Y156926D01*
X180229Y156492D01*
Y156057D01*
X180012Y155623D01*
X179578Y154972D01*
X177407Y152800D01*
X180446D01*
X184381Y157360D02*X181814Y152800D01*
X185749Y157360D02*Y152800D01*
Y157360D02*X188571D01*
X185749Y155188D02*X187485D01*
X185749Y152800D02*X188571D01*
X189939Y157360D02*Y152800D01*
Y157360D02*X192979Y152800D01*
Y157360D02*Y152800D01*
X197604Y156275D02*X197386Y156708D01*
X196951Y157142D01*
X196518Y157360D01*
X195648D02*X196518D01*
X195648D02*X195215Y157142D01*
X194780Y156708D01*
X194563Y156275D01*
X194347Y155623D01*
Y154536D01*
X194563Y153885D01*
X194780Y153451D01*
X195215Y153018D01*
X195648Y152800D01*
X196518D01*
X196951Y153018D01*
X197386Y153451D01*
X197604Y153885D01*
X200709Y157360D02*X198972Y152800D01*
X200709Y157360D02*X202446Y152800D01*
X199624Y154320D02*X201795D01*
X173000Y147360D02*Y142800D01*
Y147360D02*X174521D01*
X175172Y147142D01*
X175606Y146708D01*
X175823Y146275D01*
X176039Y145623D01*
Y144536D01*
X175823Y143885D01*
X175606Y143451D01*
X175172Y143018D01*
X174521Y142800D01*
X173000D02*X174521D01*
X177840Y147360D02*X180229D01*
X178926Y145623D01*
X179578D01*
X180011Y145407D01*
X180229Y145189D01*
X180446Y144537D01*
Y144104D01*
X180229Y143452D01*
X179796Y143018D01*
X179143Y142800D01*
X178493D02*X179143D01*
X178493D02*X177840Y143018D01*
X177624Y143235D01*
X177407Y143669D01*
X184381Y147360D02*X181814Y142800D01*
X185749Y147360D02*Y142800D01*
Y147360D02*X188571D01*
X185749Y145188D02*X187485D01*
X185749Y142800D02*X188571D01*
X189939Y147360D02*Y142800D01*
Y147360D02*X192979Y142800D01*
Y147360D02*Y142800D01*
X197604Y146275D02*X197386Y146708D01*
X196951Y147142D01*
X196518Y147360D01*
X195648D02*X196518D01*
X195648D02*X195215Y147142D01*
X194780Y146708D01*
X194563Y146275D01*
X194347Y145623D01*
Y144536D01*
X194563Y143885D01*
X194780Y143451D01*
X195215Y143018D01*
X195648Y142800D01*
X196518D01*
X196951Y143018D01*
X197386Y143451D01*
X197604Y143885D01*
X198972Y147360D02*Y142800D01*
Y147360D02*X200925D01*
X201576Y147142D01*
X201794Y146926D01*
X202011Y146490D01*
Y146057D01*
X201794Y145623D01*
X201576Y145405D01*
X200925Y145188D01*
X198972D02*X200925D01*
X201576Y144972D01*
X201794Y144754D01*
X202011Y144320D01*
Y143669D01*
X201794Y143233D01*
X201576Y143018D01*
X200925Y142800D01*
X198972D02*X200925D01*
X173000Y137360D02*Y132800D01*
Y137360D02*X174521D01*
X175172Y137142D01*
X175606Y136708D01*
X175823Y136275D01*
X176039Y135623D01*
Y134536D01*
X175823Y133885D01*
X175606Y133451D01*
X175172Y133018D01*
X174521Y132800D01*
X173000D02*X174521D01*
X179578Y137360D02*X177407Y134321D01*
X180663D01*
X179578Y137360D02*Y132800D01*
X184597Y137360D02*X182031Y132800D01*
X185965Y137360D02*Y132800D01*
Y137360D02*X188788D01*
X185965Y135188D02*X187701D01*
X185965Y132800D02*X188788D01*
X190156Y137360D02*Y132800D01*
Y137360D02*X193195Y132800D01*
Y137360D02*Y132800D01*
X197820Y136275D02*X197602Y136708D01*
X197168Y137142D01*
X196735Y137360D01*
X195865D02*X196735D01*
X195865D02*X195432Y137142D01*
X194996Y136708D01*
X194780Y136275D01*
X194563Y135623D01*
Y134536D01*
X194780Y133885D01*
X194996Y133451D01*
X195432Y133018D01*
X195865Y132800D01*
X196735D01*
X197168Y133018D01*
X197602Y133451D01*
X197820Y133885D01*
X202445Y136275D02*X202227Y136708D01*
X201793Y137142D01*
X201360Y137360D01*
X200490D02*X201360D01*
X200490D02*X200057Y137142D01*
X199621Y136708D01*
X199405Y136275D01*
X199188Y135623D01*
Y134536D01*
X199405Y133885D01*
X199621Y133451D01*
X200057Y133018D01*
X200490Y132800D01*
X201360D01*
X201793Y133018D01*
X202227Y133451D01*
X202445Y133885D01*
X173000Y127360D02*Y122800D01*
Y127360D02*X174521D01*
X175172Y127142D01*
X175606Y126708D01*
X175823Y126275D01*
X176039Y125623D01*
Y124536D01*
X175823Y123885D01*
X175606Y123451D01*
X175172Y123018D01*
X174521Y122800D01*
X173000D02*X174521D01*
X177842Y127360D02*X180013D01*
X177842D02*X177624Y125407D01*
X177842Y125623D01*
X178493Y125840D01*
X179145D01*
X179796Y125623D01*
X180230Y125189D01*
X180448Y124537D01*
Y124104D01*
X180230Y123452D01*
X179796Y123018D01*
X179145Y122800D01*
X178493D02*X179145D01*
X178493D02*X177842Y123018D01*
X177624Y123235D01*
X177407Y123669D01*
X184382Y127360D02*X181816Y122800D01*
X185750Y127360D02*Y122800D01*
X188355D01*
X189723Y127360D02*Y122800D01*
Y127360D02*X192545D01*
X189723Y125188D02*X191459D01*
X189723Y122800D02*X192545D01*
X193913Y127360D02*Y122800D01*
Y127360D02*X195434D01*
X196085Y127142D01*
X196519Y126708D01*
X196736Y126275D01*
X196953Y125623D01*
Y124536D01*
X196736Y123885D01*
X196519Y123451D01*
X196085Y123018D01*
X195434Y122800D01*
X193913D02*X195434D01*
X198755Y127360D02*X200927D01*
X198755D02*X198537Y125407D01*
X198755Y125623D01*
X199406Y125840D01*
X200058D01*
X200709Y125623D01*
X201143Y125189D01*
X201361Y124537D01*
Y124104D01*
X201143Y123452D01*
X200709Y123018D01*
X200058Y122800D01*
X199406D02*X200058D01*
X199406D02*X198755Y123018D01*
X198537Y123235D01*
X198321Y123669D01*
X173000Y117360D02*Y112800D01*
Y117360D02*X174521D01*
X175172Y117142D01*
X175606Y116708D01*
X175823Y116275D01*
X176039Y115623D01*
Y114536D01*
X175823Y113885D01*
X175606Y113451D01*
X175172Y113018D01*
X174521Y112800D01*
X173000D02*X174521D01*
X180012Y116709D02*X179796Y117143D01*
X179143Y117360D01*
X178710D02*X179143D01*
X178710D02*X178057Y117143D01*
X177624Y116492D01*
X177407Y115407D01*
Y114321D01*
X177624Y113452D01*
X178057Y113018D01*
X178710Y112800D01*
X178927D01*
X179578Y113018D01*
X180012Y113452D01*
X180229Y114104D01*
Y114321D02*Y114104D01*
Y114321D02*X180012Y114972D01*
X179578Y115407D01*
X178927Y115623D01*
X178710D02*X178927D01*
X178710D02*X178057Y115407D01*
X177624Y114972D01*
X177407Y114321D01*
X184163Y117360D02*X181597Y112800D01*
X185531Y117360D02*Y112800D01*
X188136D01*
X189504Y117360D02*Y112800D01*
Y117360D02*X192326D01*
X189504Y115188D02*X191240D01*
X189504Y112800D02*X192326D01*
X193694Y117360D02*Y112800D01*
Y117360D02*X195215D01*
X195866Y117142D01*
X196300Y116708D01*
X196517Y116275D01*
X196734Y115623D01*
Y114536D01*
X196517Y113885D01*
X196300Y113451D01*
X195866Y113018D01*
X195215Y112800D01*
X193694D02*X195215D01*
X200707Y116709D02*X200490Y117143D01*
X199838Y117360D01*
X199405D02*X199838D01*
X199405D02*X198751Y117143D01*
X198318Y116492D01*
X198102Y115407D01*
Y114321D01*
X198318Y113452D01*
X198751Y113018D01*
X199405Y112800D01*
X199621D01*
X200272Y113018D01*
X200707Y113452D01*
X200923Y114104D01*
Y114321D02*Y114104D01*
Y114321D02*X200707Y114972D01*
X200272Y115407D01*
X199621Y115623D01*
X199405D02*X199621D01*
X199405D02*X198751Y115407D01*
X198318Y114972D01*
X198102Y114321D01*
X173000Y107360D02*Y102800D01*
Y107360D02*X174521D01*
X175172Y107142D01*
X175606Y106708D01*
X175823Y106275D01*
X176039Y105623D01*
Y104536D01*
X175823Y103885D01*
X175606Y103451D01*
X175172Y103018D01*
X174521Y102800D01*
X173000D02*X174521D01*
X180446Y107360D02*X178275Y102800D01*
X177407Y107360D02*X180446D01*
X173000Y97360D02*Y92800D01*
Y97360D02*X174521D01*
X175172Y97142D01*
X175606Y96708D01*
X175823Y96275D01*
X176039Y95623D01*
Y94536D01*
X175823Y93885D01*
X175606Y93451D01*
X175172Y93018D01*
X174521Y92800D01*
X173000D02*X174521D01*
X178493Y97360D02*X177840Y97143D01*
X177624Y96709D01*
Y96275D01*
X177840Y95840D01*
X178275Y95623D01*
X179143Y95407D01*
X179796Y95189D01*
X180229Y94755D01*
X180446Y94321D01*
Y93669D01*
X180229Y93235D01*
X180011Y93018D01*
X179360Y92800D01*
X178493D02*X179360D01*
X178493D02*X177840Y93018D01*
X177624Y93235D01*
X177407Y93669D01*
Y94321D02*Y93669D01*
Y94321D02*X177624Y94755D01*
X178057Y95189D01*
X178709Y95407D01*
X179578Y95623D01*
X180011Y95840D01*
X180229Y96275D01*
Y96709D02*Y96275D01*
Y96709D02*X180011Y97143D01*
X179360Y97360D01*
X178493D02*X179360D01*
X173000Y77360D02*Y72800D01*
Y77360D02*X174521D01*
X175172Y77142D01*
X175606Y76708D01*
X175823Y76275D01*
X176039Y75623D01*
Y74536D01*
X175823Y73885D01*
X175606Y73451D01*
X175172Y73018D01*
X174521Y72800D01*
X173000D02*X174521D01*
X177407Y76492D02*X177840Y76709D01*
X178493Y77360D01*
Y72800D01*
X181164Y77360D02*X180513Y77143D01*
X180077Y76492D01*
X179861Y75407D01*
Y74755D01*
X180077Y73669D01*
X180513Y73018D01*
X181164Y72800D01*
X181598D01*
X182249Y73018D01*
X182683Y73669D01*
X182901Y74755D01*
Y75407D02*Y74755D01*
Y75407D02*X182683Y76492D01*
X182249Y77143D01*
X181598Y77360D01*
X181164D02*X181598D01*
X173000Y67360D02*Y62800D01*
Y67360D02*X174521D01*
X175172Y67142D01*
X175606Y66708D01*
X175823Y66275D01*
X176039Y65623D01*
Y64536D01*
X175823Y63885D01*
X175606Y63451D01*
X175172Y63018D01*
X174521Y62800D01*
X173000D02*X174521D01*
X177407Y66492D02*X177840Y66709D01*
X178493Y67360D01*
Y62800D01*
X179861Y66492D02*X180294Y66709D01*
X180946Y67360D01*
Y62800D01*
X173000Y57360D02*Y52800D01*
Y57360D02*X174521D01*
X175172Y57142D01*
X175606Y56708D01*
X175823Y56275D01*
X176039Y55623D01*
Y54536D01*
X175823Y53885D01*
X175606Y53451D01*
X175172Y53018D01*
X174521Y52800D01*
X173000D02*X174521D01*
X177407Y56492D02*X177840Y56709D01*
X178493Y57360D01*
Y52800D01*
X180077Y56492D02*Y56275D01*
Y56492D02*X180295Y56926D01*
X180510Y57143D01*
X180946Y57360D01*
X181813D01*
X182249Y57143D01*
X182465Y56926D01*
X182682Y56492D01*
Y56057D01*
X182465Y55623D01*
X182031Y54972D01*
X179861Y52800D01*
X182900D01*
X173000Y47360D02*Y42800D01*
Y47360D02*X174521D01*
X175172Y47142D01*
X175606Y46708D01*
X175823Y46275D01*
X176039Y45623D01*
Y44536D01*
X175823Y43885D01*
X175606Y43451D01*
X175172Y43018D01*
X174521Y42800D01*
X173000D02*X174521D01*
X177407Y46492D02*X177840Y46709D01*
X178493Y47360D01*
Y42800D01*
X180294Y47360D02*X182682D01*
X181379Y45623D01*
X182031D01*
X182464Y45407D01*
X182682Y45189D01*
X182900Y44537D01*
Y44104D01*
X182682Y43452D01*
X182249Y43018D01*
X181597Y42800D01*
X180946D02*X181597D01*
X180946D02*X180294Y43018D01*
X180077Y43235D01*
X179861Y43669D01*
X173000Y87360D02*Y82800D01*
Y87360D02*X174521D01*
X175172Y87142D01*
X175606Y86708D01*
X175823Y86275D01*
X176039Y85623D01*
Y84536D01*
X175823Y83885D01*
X175606Y83451D01*
X175172Y83018D01*
X174521Y82800D01*
X173000D02*X174521D01*
X180229Y85840D02*X180012Y85189D01*
X179578Y84755D01*
X178926Y84537D01*
X178709D02*X178926D01*
X178709D02*X178058Y84755D01*
X177623Y85189D01*
X177407Y85840D01*
Y86057D02*Y85840D01*
Y86057D02*X177623Y86709D01*
X178058Y87143D01*
X178709Y87360D01*
X178926D01*
X179578Y87143D01*
X180012Y86709D01*
X180229Y85840D01*
Y84755D01*
X180012Y83669D01*
X179578Y83018D01*
X178926Y82800D01*
X178493D02*X178926D01*
X178493D02*X177840Y83018D01*
X177623Y83452D01*
X184163Y87360D02*X181597Y82800D01*
X185531Y87360D02*Y82800D01*
Y87360D02*X187485D01*
X188136Y87142D01*
X188354Y86926D01*
X188570Y86490D01*
Y86057D01*
X188354Y85623D01*
X188136Y85405D01*
X187485Y85188D01*
X185531D02*X187485D01*
X188136Y84972D01*
X188354Y84754D01*
X188570Y84320D01*
Y83669D01*
X188354Y83233D01*
X188136Y83018D01*
X187485Y82800D01*
X185531D02*X187485D01*
X189938Y87360D02*Y84103D01*
X190156Y83451D01*
X190589Y83018D01*
X191241Y82800D01*
X191674D01*
X192326Y83018D01*
X192761Y83451D01*
X192977Y84103D01*
Y87360D02*Y84103D01*
X197385Y87360D02*X194345Y82800D01*
Y87360D02*X197385D01*
X194345Y82800D02*X197385D01*
X201792Y87360D02*X198753Y82800D01*
Y87360D02*X201792D01*
X198753Y82800D02*X201792D01*
X203160Y87360D02*Y82800D01*
Y87360D02*X205983D01*
X203160Y85188D02*X204896D01*
X203160Y82800D02*X205983D01*
X207351Y87360D02*Y82800D01*
Y87360D02*X209304D01*
X209955Y87142D01*
X210173Y86926D01*
X210390Y86491D01*
Y86057D01*
X210173Y85623D01*
X209955Y85406D01*
X209304Y85188D01*
X207351D02*X209304D01*
X208870D02*X210390Y82800D01*
X300000Y71140D02*X300509Y71395D01*
X301276Y72160D01*
Y66800D01*
X299000Y90123D02*X299513Y90379D01*
X300285Y91150D01*
Y85750D01*
G54D192*X586000Y173400D02*Y167000D01*
Y173400D02*X588437Y167000D01*
X590877Y173400D02*X588437Y167000D01*
X590877Y173400D02*Y167000D01*
X594320Y171267D02*X593709Y170965D01*
X593099Y170355D01*
X592797Y169442D01*
Y168830D01*
X593099Y167917D01*
X593709Y167307D01*
X594320Y167002D01*
X595234D01*
X595843Y167307D01*
X596451Y167917D01*
X596757Y168830D01*
Y169442D02*Y168830D01*
Y169442D02*X596451Y170355D01*
X595843Y170965D01*
X595234Y171267D01*
X594320D02*X595234D01*
X602331Y173400D02*Y167000D01*
Y170354D02*X601723Y170963D01*
X601114Y171267D01*
X600200D02*X601114D01*
X600200D02*X599589Y170963D01*
X598979Y170354D01*
X598677Y169440D01*
Y168830D01*
X598979Y167917D01*
X599589Y167306D01*
X600200Y167000D01*
X601114D01*
X601723Y167306D01*
X602331Y167917D01*
X604251Y169442D02*X607906D01*
Y170050D02*Y169442D01*
Y170050D02*X607602Y170659D01*
X607298Y170965D01*
X606688Y171267D01*
X605774D02*X606688D01*
X605774D02*X605163Y170965D01*
X604554Y170355D01*
X604251Y169442D01*
Y168830D01*
X604554Y167917D01*
X605163Y167307D01*
X605774Y167002D01*
X606688D01*
X607298Y167307D01*
X607906Y167917D01*
X609826Y173400D02*Y167000D01*
X617064Y173400D02*X614626Y167000D01*
X617064Y173400D02*X619502Y167000D01*
X615541Y169133D02*X618589D01*
X621422Y173400D02*X623859Y170352D01*
Y167000D01*
X626299Y173400D02*X623859Y170352D01*
X630658Y173400D02*X628219Y167000D01*
X630658Y173400D02*X633096Y167000D01*
X629134Y169133D02*X632182D01*
X635016Y173400D02*Y167000D01*
Y173400D02*X637758D01*
X638672Y173094D01*
X638978Y172790D01*
X639282Y172179D01*
Y171571D01*
X638978Y170962D01*
X638672Y170656D01*
X637758Y170352D01*
X635016D02*X637758D01*
X638672Y170048D01*
X638978Y169742D01*
X639282Y169133D01*
Y168219D01*
X638978Y167608D01*
X638672Y167306D01*
X637758Y167000D01*
X635016D02*X637758D01*
X641202Y170200D02*X645202D01*
X647122Y173400D02*Y167000D01*
Y173400D02*X651083D01*
X647122Y170352D02*X649558D01*
X647122Y167000D02*X651083D01*
X653003Y173400D02*Y167000D01*
Y173400D02*X655440Y167000D01*
X657880Y173400D02*X655440Y167000D01*
X657880Y173400D02*Y167000D01*
X664066Y172485D02*X663456Y173094D01*
X662542Y173400D01*
X661323D02*X662542D01*
X661323D02*X660408Y173094D01*
X659800Y172485D01*
Y171877D01*
X660102Y171266D01*
X660408Y170962D01*
X661019Y170658D01*
X662848Y170048D01*
X663456Y169742D01*
X663760Y169438D01*
X664066Y168829D01*
Y167914D01*
X663456Y167306D01*
X662542Y167000D01*
X661323D02*X662542D01*
X661323D02*X660408Y167306D01*
X659800Y167914D01*
X665986Y170200D02*X669986D01*
X671906Y172182D02*X672514Y172486D01*
X673429Y173400D01*
Y167000D01*
X675958Y167174D02*X675654Y166872D01*
X675349Y167174D01*
X675654Y167480D01*
X675958Y167174D01*
Y166566D01*
X675349Y165957D01*
X680758Y173400D02*Y167000D01*
Y173400D02*X683501D01*
X684414Y173094D01*
X684720Y172790D01*
X685024Y172181D01*
Y171571D01*
X684720Y170962D01*
X684414Y170658D01*
X683501Y170352D01*
X680758D02*X683501D01*
X682891D02*X685024Y167000D01*
X686944Y169442D02*X690599D01*
Y170050D02*Y169442D01*
Y170050D02*X690295Y170659D01*
X689991Y170965D01*
X689381Y171267D01*
X688467D02*X689381D01*
X688467D02*X687856Y170965D01*
X687247Y170355D01*
X686944Y169442D01*
Y168830D01*
X687247Y167917D01*
X687856Y167307D01*
X688467Y167002D01*
X689381D01*
X689991Y167307D01*
X690599Y167917D01*
X692519Y171267D02*X694346Y167002D01*
X696173Y171267D02*X694346Y167002D01*
X700973Y173400D02*Y167000D01*
Y173400D02*X703107D01*
X704021Y173094D01*
X704631Y172485D01*
X704935Y171877D01*
X705239Y170962D01*
Y169437D01*
X704935Y168523D01*
X704631Y167914D01*
X704021Y167306D01*
X703107Y167000D01*
X700973D02*X703107D01*
G54D194*X585500Y199260D02*Y188300D01*
X592805Y199260D02*X585500Y191952D01*
X588108Y194561D02*X592805Y188300D01*
X596093Y195608D02*Y188303D01*
Y193522D02*X597660Y195090D01*
X598701Y195608D01*
X600269D01*
X601310Y195090D01*
X601833Y193522D01*
Y188303D01*
X605642Y195632D02*Y188327D01*
X605121Y199287D02*X605642Y198764D01*
X606165Y199287D01*
X605642Y199808D01*
X605121Y199287D01*
X611020Y199260D02*Y190388D01*
X611538Y188823D01*
X612585Y188300D01*
X613629D01*
X609453Y195608D02*X613106D01*
X618484Y199260D02*Y190388D01*
X619002Y188823D01*
X620049Y188300D01*
X621093D01*
X616917Y195608D02*X620569D01*
X624901Y195632D02*Y188327D01*
X624381Y199287D02*X624901Y198764D01*
X625425Y199287D01*
X624901Y199808D01*
X624381Y199287D01*
X628713Y195608D02*Y188303D01*
Y193522D02*X630280Y195090D01*
X631321Y195608D01*
X632888D01*
X633930Y195090D01*
X634453Y193522D01*
Y188303D01*
X644005Y195608D02*Y187262D01*
X643481Y185694D01*
X642958Y185171D01*
X641917Y184653D01*
X640349D02*X641917D01*
X640349D02*X639308Y185171D01*
X644005Y194046D02*X642958Y195090D01*
X641917Y195608D01*
X640349D02*X641917D01*
X640349D02*X639308Y195090D01*
X638262Y194046D01*
X637741Y192481D01*
Y191435D01*
X638262Y189870D01*
X639308Y188826D01*
X640349Y188303D01*
X641917D01*
X642958Y188826D01*
X644005Y189870D01*
X652225Y199260D02*Y188300D01*
Y199260D02*X656398Y188300D01*
X660576Y199260D02*X656398Y188300D01*
X660576Y199260D02*Y188300D01*
X670128Y195608D02*Y188303D01*
Y194046D02*X669081Y195090D01*
X668040Y195608D01*
X666473D02*X668040D01*
X666473D02*X665431Y195090D01*
X664385Y194046D01*
X663864Y192481D01*
Y191435D01*
X664385Y189870D01*
X665431Y188826D01*
X666473Y188303D01*
X668040D01*
X669081Y188826D01*
X670128Y189870D01*
X679679Y194046D02*X678633Y195090D01*
X677592Y195608D01*
X676024D02*X677592D01*
X676024D02*X674983Y195090D01*
X673936Y194046D01*
X673416Y192481D01*
Y191435D01*
X673936Y189870D01*
X674983Y188826D01*
X676024Y188303D01*
X677592D01*
X678633Y188826D01*
X679679Y189870D01*
X682967Y199260D02*Y188300D01*
Y193520D02*X684529Y195087D01*
X685576Y195608D01*
X687140D01*
X688184Y195087D01*
X688708Y193520D01*
Y188300D01*
X692516Y195632D02*Y188327D01*
X691996Y199287D02*X692516Y198764D01*
X693040Y199287D01*
X692516Y199808D01*
X691996Y199287D01*
X696328Y195608D02*Y188303D01*
Y193522D02*X697895Y195090D01*
X698936Y195608D01*
X700503D01*
X701545Y195090D01*
X702068Y193522D01*
Y188303D01*
X705356Y192481D02*X711614D01*
Y193522D02*Y192481D01*
Y193522D02*X711094Y194566D01*
X710573Y195090D01*
X709529Y195608D01*
X707964D02*X709529D01*
X707964D02*X706918Y195090D01*
X705874Y194046D01*
X705356Y192481D01*
Y191435D01*
X705874Y189870D01*
X706918Y188826D01*
X707964Y188303D01*
X709529D01*
X710573Y188826D01*
X711614Y189870D01*
X727662Y196652D02*X727139Y197693D01*
X726095Y198737D01*
X725054Y199260D01*
X722963D02*X725054D01*
X722963D02*X721922Y198737D01*
X720875Y197693D01*
X720355Y196652D01*
X719834Y195084D01*
Y192473D01*
X720355Y190908D01*
X720875Y189865D01*
X721922Y188823D01*
X722963Y188300D01*
X725054D01*
X726095Y188823D01*
X727139Y189865D01*
X727662Y190908D01*
X733559Y195608D02*X732512Y195090D01*
X731468Y194046D01*
X730950Y192481D01*
Y191435D01*
X731468Y189870D01*
X732512Y188826D01*
X733559Y188303D01*
X735123D01*
X736167Y188826D01*
X737208Y189870D01*
X737732Y191435D01*
Y192481D02*Y191435D01*
Y192481D02*X737208Y194046D01*
X736167Y195090D01*
X735123Y195608D01*
X733559D02*X735123D01*
X741020D02*Y188303D01*
Y193522D02*X742587Y195090D01*
X743628Y195608D01*
X745196D01*
X746237Y195090D01*
X746760Y193522D01*
Y188303D01*
X751615Y199260D02*Y190388D01*
X752133Y188823D01*
X753180Y188300D01*
X754224D01*
X750048Y195608D02*X753701D01*
X757512D02*Y188303D01*
Y192476D02*X758033Y194046D01*
X759079Y195087D01*
X760120Y195608D01*
X761688D01*
X767584D02*X766537Y195090D01*
X765494Y194046D01*
X764976Y192481D01*
Y191435D01*
X765494Y189870D01*
X766537Y188826D01*
X767584Y188303D01*
X769149D01*
X770193Y188826D01*
X771234Y189870D01*
X771757Y191435D01*
Y192481D02*Y191435D01*
Y192481D02*X771234Y194046D01*
X770193Y195090D01*
X769149Y195608D01*
X767584D02*X769149D01*
X775045Y199260D02*Y188300D01*
X783265Y199260D02*Y188300D01*
Y199260D02*X787962D01*
X789526Y198737D01*
X790049Y198216D01*
X790570Y197169D01*
Y196128D01*
X790049Y195084D01*
X789526Y194561D01*
X787962Y194040D01*
X783265D02*X787962D01*
X789526Y193520D01*
X790049Y192996D01*
X790570Y191952D01*
Y190388D01*
X790049Y189341D01*
X789526Y188823D01*
X787962Y188300D01*
X783265D02*X787962D01*
X796467Y195608D02*X795420Y195090D01*
X794376Y194046D01*
X793858Y192481D01*
Y191435D01*
X794376Y189870D01*
X795420Y188826D01*
X796467Y188303D01*
X798031D01*
X799075Y188826D01*
X800116Y189870D01*
X800640Y191435D01*
Y192481D02*Y191435D01*
Y192481D02*X800116Y194046D01*
X799075Y195090D01*
X798031Y195608D01*
X796467D02*X798031D01*
X810191D02*Y188303D01*
Y194046D02*X809145Y195090D01*
X808103Y195608D01*
X806536D02*X808103D01*
X806536D02*X805495Y195090D01*
X804448Y194046D01*
X803928Y192481D01*
Y191435D01*
X804448Y189870D01*
X805495Y188826D01*
X806536Y188303D01*
X808103D01*
X809145Y188826D01*
X810191Y189870D01*
X813479Y195608D02*Y188303D01*
Y192476D02*X814000Y194046D01*
X815047Y195087D01*
X816088Y195608D01*
X817655D01*
X827201Y199260D02*Y188300D01*
Y194043D02*X826160Y195087D01*
X825116Y195608D01*
X823551D02*X825116D01*
X823551D02*X822505Y195087D01*
X821461Y194043D01*
X820943Y192478D01*
Y191435D01*
X821461Y189870D01*
X822505Y188823D01*
X823551Y188300D01*
X825116D01*
X826160Y188823D01*
X827201Y189870D01*
G54D186*X587588Y143630D02*X585500Y138150D01*
X587588Y143630D02*X589676Y138150D01*
X586284Y139976D02*X588893D01*
X591320Y143630D02*Y138150D01*
X592964Y143630D02*Y138150D01*
X597074Y143630D02*X599160Y141020D01*
Y138150D01*
X601250Y143630D02*X599160Y141020D01*
X606025Y141804D02*Y138151D01*
Y141023D02*X605502Y141545D01*
X604981Y141804D01*
X604198D02*X604981D01*
X604198D02*X603677Y141545D01*
X603154Y141023D01*
X602894Y140241D01*
Y139717D01*
X603154Y138935D01*
X603677Y138413D01*
X604198Y138151D01*
X604981D01*
X605502Y138413D01*
X606025Y138935D01*
X607669Y141804D02*Y138151D01*
Y140238D02*X607930Y141023D01*
X608453Y141543D01*
X608974Y141804D01*
X609757D01*
X611401D02*Y138151D01*
Y140761D02*X612185Y141545D01*
X612705Y141804D01*
X613489D01*
X614010Y141545D01*
X614271Y140761D01*
Y138151D01*
X618784Y141023D02*X618524Y141543D01*
X617740Y141804D01*
X616958D02*X617740D01*
X616958D02*X616174Y141543D01*
X615915Y141023D01*
X616174Y140500D01*
X616696Y140238D01*
X618002Y139978D01*
X618524Y139717D01*
X618784Y139195D01*
Y138934D01*
X618524Y138413D01*
X617740Y138151D01*
X616958D02*X617740D01*
X616958D02*X616174Y138413D01*
X615915Y138934D01*
X624982Y143630D02*X622894Y138150D01*
X624982Y143630D02*X627070Y138150D01*
X623678Y139976D02*X626288D01*
X628714Y141804D02*Y138151D01*
Y140238D02*X628974Y141023D01*
X629498Y141543D01*
X630018Y141804D01*
X630802D01*
X632446Y140241D02*X635575D01*
Y140761D02*Y140241D01*
Y140761D02*X635315Y141283D01*
X635054Y141545D01*
X634532Y141804D01*
X633750D02*X634532D01*
X633750D02*X633227Y141545D01*
X632705Y141023D01*
X632446Y140241D01*
Y139717D01*
X632705Y138935D01*
X633227Y138413D01*
X633750Y138151D01*
X634532D01*
X635054Y138413D01*
X635575Y138935D01*
X639685Y143630D02*Y138150D01*
Y143630D02*X642033D01*
X642815Y143368D01*
X643077Y143108D01*
X643337Y142585D01*
Y142064D01*
X643077Y141542D01*
X642815Y141280D01*
X642033Y141020D01*
X639685D02*X642033D01*
X642815Y140760D01*
X643077Y140498D01*
X643337Y139976D01*
Y139194D01*
X643077Y138671D01*
X642815Y138412D01*
X642033Y138150D01*
X639685D02*X642033D01*
X644981Y140241D02*X648110D01*
Y140761D02*Y140241D01*
Y140761D02*X647850Y141283D01*
X647590Y141545D01*
X647068Y141804D01*
X646286D02*X647068D01*
X646286D02*X645762Y141545D01*
X645240Y141023D01*
X644981Y140241D01*
Y139717D01*
X645240Y138935D01*
X645762Y138413D01*
X646286Y138151D01*
X647068D01*
X647590Y138413D01*
X648110Y138935D01*
X652886Y141804D02*Y138151D01*
Y141023D02*X652363Y141545D01*
X651842Y141804D01*
X651059D02*X651842D01*
X651059D02*X650538Y141545D01*
X650015Y141023D01*
X649754Y140241D01*
Y139717D01*
X650015Y138935D01*
X650538Y138413D01*
X651059Y138151D01*
X651842D01*
X652363Y138413D01*
X652886Y138935D01*
X654530Y141804D02*Y139195D01*
X654791Y138413D01*
X655314Y138151D01*
X656096D01*
X656618Y138413D01*
X657400Y139195D01*
Y141804D02*Y138151D01*
X659828Y143630D02*Y139194D01*
X660087Y138412D01*
X660610Y138150D01*
X661132D01*
X659044Y141804D02*X660871D01*
X663037Y141816D02*Y138164D01*
X662776Y143644D02*X663037Y143382D01*
X663298Y143644D01*
X663037Y143904D01*
X662776Y143644D01*
X666508Y143630D02*X667029D01*
X666508D02*X665985Y143370D01*
X665723Y142587D01*
Y138150D01*
X664942Y141804D02*X666768D01*
X668673D02*Y139195D01*
X668933Y138413D01*
X669456Y138151D01*
X670239D01*
X670761Y138413D01*
X671543Y139195D01*
Y141804D02*Y138151D01*
X673187Y143630D02*Y138150D01*
X687161Y141804D02*X688204Y138151D01*
X689247Y141804D02*X688204Y138151D01*
X689247Y141804D02*X690293Y138151D01*
X691335Y141804D02*X690293Y138151D01*
X692979Y141804D02*X694022Y138151D01*
X695066Y141804D02*X694022Y138151D01*
X695066Y141804D02*X696111Y138151D01*
X697154Y141804D02*X696111Y138151D01*
X698798Y141804D02*X699840Y138151D01*
X700884Y141804D02*X699840Y138151D01*
X700884Y141804D02*X701930Y138151D01*
X702972Y141804D02*X701930Y138151D01*
X704876Y138561D02*X704616Y138299D01*
X704876Y138040D01*
X705137Y138299D01*
X704876Y138561D01*
X709913Y141804D02*Y138151D01*
Y141023D02*X709389Y141545D01*
X708869Y141804D01*
X708085D02*X708869D01*
X708085D02*X707564Y141545D01*
X707041Y141023D01*
X706781Y140241D01*
Y139717D01*
X707041Y138935D01*
X707564Y138413D01*
X708085Y138151D01*
X708869D01*
X709389Y138413D01*
X709913Y138935D01*
X711817Y141804D02*X713383Y138151D01*
X714949Y141804D02*X713383Y138151D01*
X712861Y137109D01*
X712340Y136585D01*
X711817Y136324D01*
X711557D02*X711817D01*
X719725Y141804D02*Y138151D01*
Y141023D02*X719201Y141545D01*
X718681Y141804D01*
X717897D02*X718681D01*
X717897D02*X717376Y141545D01*
X716853Y141023D01*
X716593Y140241D01*
Y139717D01*
X716853Y138935D01*
X717376Y138413D01*
X717897Y138151D01*
X718681D01*
X719201Y138413D01*
X719725Y138935D01*
X721369Y143630D02*Y138150D01*
Y141022D02*X721890Y141543D01*
X722411Y141804D01*
X723195D01*
X723715Y141543D01*
X724239Y141022D01*
X724500Y140239D01*
Y139717D01*
X724239Y138935D01*
X723715Y138412D01*
X723195Y138150D01*
X722411D02*X723195D01*
X722411D02*X721890Y138412D01*
X721369Y138935D01*
X726144Y140890D02*X729569D01*
X731213Y143630D02*Y138150D01*
X733822Y141804D02*X731213Y139194D01*
X732256Y140239D02*X734084Y138150D01*
X735728Y141804D02*Y138151D01*
Y140761D02*X736511Y141545D01*
X737032Y141804D01*
X737815D01*
X738336Y141545D01*
X738598Y140761D01*
Y138151D01*
X740502Y141816D02*Y138164D01*
X740242Y143644D02*X740502Y143382D01*
X740764Y143644D01*
X740502Y143904D01*
X740242Y143644D01*
X743191Y143630D02*Y139194D01*
X743450Y138412D01*
X743974Y138150D01*
X744496D01*
X742408Y141804D02*X744234D01*
X746923Y143630D02*Y139194D01*
X747182Y138412D01*
X747705Y138150D01*
X748227D01*
X746140Y141804D02*X747966D01*
X750132Y141816D02*Y138164D01*
X749871Y143644D02*X750132Y143382D01*
X750393Y143644D01*
X750132Y143904D01*
X749871Y143644D01*
X752037Y141804D02*Y138151D01*
Y140761D02*X752821Y141545D01*
X753342Y141804D01*
X754125D01*
X754646Y141545D01*
X754908Y140761D01*
Y138151D01*
X759683Y141804D02*Y137631D01*
X759422Y136847D01*
X759160Y136585D01*
X758639Y136327D01*
X757856D02*X758639D01*
X757856D02*X757335Y136585D01*
X759683Y141023D02*X759160Y141545D01*
X758639Y141804D01*
X757856D02*X758639D01*
X757856D02*X757335Y141545D01*
X756812Y141023D01*
X756552Y140241D01*
Y139717D01*
X756812Y138935D01*
X757335Y138413D01*
X757856Y138151D01*
X758639D01*
X759160Y138413D01*
X759683Y138935D01*
X761588Y138561D02*X761327Y138299D01*
X761588Y138040D01*
X761848Y138299D01*
X761588Y138561D01*
X766624Y141023D02*X766100Y141545D01*
X765580Y141804D01*
X764796D02*X765580D01*
X764796D02*X764276Y141545D01*
X763752Y141023D01*
X763492Y140241D01*
Y139717D01*
X763752Y138935D01*
X764276Y138413D01*
X764796Y138151D01*
X765580D01*
X766100Y138413D01*
X766624Y138935D01*
X769572Y141804D02*X769049Y141545D01*
X768527Y141023D01*
X768268Y140241D01*
Y139717D01*
X768527Y138935D01*
X769049Y138413D01*
X769572Y138151D01*
X770354D01*
X770876Y138413D01*
X771397Y138935D01*
X771659Y139717D01*
Y140241D02*Y139717D01*
Y140241D02*X771397Y141023D01*
X770876Y141545D01*
X770354Y141804D01*
X769572D02*X770354D01*
X773303D02*Y138151D01*
Y140761D02*X774083Y141545D01*
X774607Y141804D01*
X775389D01*
X775911Y141545D01*
X776171Y140761D01*
Y138151D01*
Y140761D02*X776955Y141545D01*
X777476Y141804D01*
X778259D01*
X778780Y141545D01*
X779041Y140761D01*
Y138151D01*
X585500Y153630D02*Y148150D01*
Y153630D02*X588892D01*
X585500Y151020D02*X587587D01*
X585500Y148150D02*X588892D01*
X590536Y151804D02*X592101Y148151D01*
X593665Y151804D02*X592101Y148151D01*
X595570Y151816D02*Y148164D01*
X595309Y153644D02*X595570Y153382D01*
X595831Y153644D01*
X595570Y153904D01*
X595309Y153644D01*
X597475Y153630D02*Y148150D01*
X601585Y153630D02*Y148150D01*
Y153630D02*X603672Y148150D01*
X605761Y153630D02*X603672Y148150D01*
X605761Y153630D02*Y148150D01*
X610537Y151804D02*Y148151D01*
Y151023D02*X610013Y151545D01*
X609493Y151804D01*
X608709D02*X609493D01*
X608709D02*X608189Y151545D01*
X607665Y151023D01*
X607405Y150241D01*
Y149717D01*
X607665Y148935D01*
X608189Y148413D01*
X608709Y148151D01*
X609493D01*
X610013Y148413D01*
X610537Y148935D01*
X615310Y153630D02*Y148150D01*
Y151022D02*X614789Y151543D01*
X614267Y151804D01*
X613485D02*X614267D01*
X613485D02*X612962Y151543D01*
X612440Y151022D01*
X612181Y150239D01*
Y149717D01*
X612440Y148935D01*
X612962Y148412D01*
X613485Y148150D01*
X614267D01*
X614789Y148412D01*
X615310Y148935D01*
X623072Y152846D02*X622550Y153368D01*
X621768Y153630D01*
X620724D02*X621768D01*
X620724D02*X619940Y153368D01*
X619420Y152846D01*
Y152326D01*
X619679Y151802D01*
X619940Y151542D01*
X620464Y151282D01*
X622030Y150760D01*
X622550Y150498D01*
X622811Y150238D01*
X623072Y149716D01*
Y148932D01*
X622550Y148412D01*
X621768Y148150D01*
X620724D02*X621768D01*
X620724D02*X619940Y148412D01*
X619420Y148932D01*
X627848Y151023D02*X627325Y151545D01*
X626804Y151804D01*
X626021D02*X626804D01*
X626021D02*X625500Y151545D01*
X624977Y151023D01*
X624716Y150241D01*
Y149717D01*
X624977Y148935D01*
X625500Y148413D01*
X626021Y148151D01*
X626804D01*
X627325Y148413D01*
X627848Y148935D01*
X629752Y151816D02*Y148164D01*
X629492Y153644D02*X629752Y153382D01*
X630014Y153644D01*
X629752Y153904D01*
X629492Y153644D01*
X631658Y150241D02*X634787D01*
Y150761D02*Y150241D01*
Y150761D02*X634527Y151283D01*
X634267Y151545D01*
X633745Y151804D01*
X632962D02*X633745D01*
X632962D02*X632439Y151545D01*
X631917Y151023D01*
X631658Y150241D01*
Y149717D01*
X631917Y148935D01*
X632439Y148413D01*
X632962Y148151D01*
X633745D01*
X634267Y148413D01*
X634787Y148935D01*
X636431Y151804D02*Y148151D01*
Y150761D02*X637215Y151545D01*
X637735Y151804D01*
X638519D01*
X639040Y151545D01*
X639301Y150761D01*
Y148151D01*
X641729Y153630D02*Y149194D01*
X641988Y148412D01*
X642511Y148150D01*
X643033D01*
X640945Y151804D02*X642772D01*
X644938Y151816D02*Y148164D01*
X644677Y153644D02*X644938Y153382D01*
X645199Y153644D01*
X644938Y153904D01*
X644677Y153644D01*
X649712Y151023D02*X649452Y151543D01*
X648668Y151804D01*
X647886D02*X648668D01*
X647886D02*X647102Y151543D01*
X646843Y151023D01*
X647102Y150500D01*
X647624Y150238D01*
X648930Y149978D01*
X649452Y149717D01*
X649712Y149195D01*
Y148934D01*
X649452Y148413D01*
X648668Y148151D01*
X647886D02*X648668D01*
X647886D02*X647102Y148413D01*
X646843Y148934D01*
X652140Y153630D02*Y149194D01*
X652399Y148412D01*
X652922Y148150D01*
X653444D01*
X651356Y151804D02*X653182D01*
X687146Y150241D02*X690275D01*
Y150761D02*Y150241D01*
Y150761D02*X690015Y151283D01*
X689754Y151545D01*
X689232Y151804D01*
X688450D02*X689232D01*
X688450D02*X687927Y151545D01*
X687405Y151023D01*
X687146Y150241D01*
Y149717D01*
X687405Y148935D01*
X687927Y148413D01*
X688450Y148151D01*
X689232D01*
X689754Y148413D01*
X690275Y148935D01*
X691919Y151804D02*Y148151D01*
Y150761D02*X692700Y151545D01*
X693223Y151804D01*
X694005D01*
X694527Y151545D01*
X694788Y150761D01*
Y148151D01*
Y150761D02*X695571Y151545D01*
X696092Y151804D01*
X696876D01*
X697396Y151545D01*
X697658Y150761D01*
Y148151D01*
X702171Y151023D02*X701910Y151543D01*
X701127Y151804D01*
X700344D02*X701127D01*
X700344D02*X699561Y151543D01*
X699302Y151023D01*
X699561Y150500D01*
X700083Y150238D01*
X701388Y149978D01*
X701910Y149717D01*
X702171Y149195D01*
Y148934D01*
X701910Y148413D01*
X701127Y148151D01*
X700344D02*X701127D01*
X700344D02*X699561Y148413D01*
X699302Y148934D01*
X703815Y153630D02*Y148150D01*
X705719Y148561D02*X705459Y148299D01*
X705719Y148040D01*
X705979Y148299D01*
X705719Y148561D01*
X707623Y151804D02*Y149195D01*
X707884Y148413D01*
X708407Y148151D01*
X709189D01*
X709711Y148413D01*
X710493Y149195D01*
Y151804D02*Y148151D01*
X715006Y151023D02*X714746Y151543D01*
X713962Y151804D01*
X713180D02*X713962D01*
X713180D02*X712396Y151543D01*
X712137Y151023D01*
X712396Y150500D01*
X712918Y150238D01*
X714224Y149978D01*
X714746Y149717D01*
X715006Y149195D01*
Y148934D01*
X714746Y148413D01*
X713962Y148151D01*
X713180D02*X713962D01*
X713180D02*X712396Y148413D01*
X712137Y148934D01*
X719734Y153630D02*X716650Y148150D01*
X722682Y153630D02*X721899Y153370D01*
X721638Y152848D01*
Y152326D01*
X721899Y151804D01*
X722421Y151542D01*
X723465Y151283D01*
X724248Y151022D01*
X724769Y150500D01*
X725031Y149978D01*
Y149194D01*
X724769Y148673D01*
X724507Y148412D01*
X723725Y148150D01*
X722682D02*X723725D01*
X722682D02*X721899Y148412D01*
X721638Y148673D01*
X721378Y149194D01*
Y149978D02*Y149194D01*
Y149978D02*X721638Y150500D01*
X722159Y151022D01*
X722943Y151283D01*
X723987Y151542D01*
X724507Y151804D01*
X724769Y152326D01*
Y152848D02*Y152326D01*
Y152848D02*X724507Y153370D01*
X723725Y153630D01*
X722682D02*X723725D01*
X727195D02*X730065D01*
X728499Y151542D01*
X729283D01*
X729804Y151283D01*
X730065Y151022D01*
X730327Y150238D01*
Y149717D01*
X730065Y148934D01*
X729545Y148412D01*
X728761Y148150D01*
X727979D02*X728761D01*
X727979D02*X727195Y148412D01*
X726935Y148673D01*
X726675Y149194D01*
X732493Y153630D02*X735103D01*
X732493D02*X732231Y151283D01*
X732493Y151542D01*
X733275Y151804D01*
X734059D01*
X734841Y151542D01*
X735363Y151022D01*
X735625Y150238D01*
Y149717D01*
X735363Y148934D01*
X734841Y148412D01*
X734059Y148150D01*
X733275D02*X734059D01*
X733275D02*X732493Y148412D01*
X732231Y148673D01*
X731971Y149194D01*
X920700Y32814D02*X920486Y33239D01*
X920059Y33666D01*
X919634Y33880D01*
X918779D02*X919634D01*
X918779D02*X918353Y33666D01*
X917926Y33239D01*
X917713Y32814D01*
X917500Y32173D01*
Y31106D01*
X917713Y30466D01*
X917926Y30040D01*
X918353Y29614D01*
X918779Y29400D01*
X919634D01*
X920059Y29614D01*
X920486Y30040D01*
X920700Y30466D01*
X925244Y32814D02*X925030Y33239D01*
X924603Y33666D01*
X924177Y33880D01*
X923323D02*X924177D01*
X923323D02*X922897Y33666D01*
X922469Y33239D01*
X922257Y32814D01*
X922044Y32173D01*
Y31106D01*
X922257Y30466D01*
X922469Y30040D01*
X922897Y29614D01*
X923323Y29400D01*
X924177D01*
X924603Y29614D01*
X925030Y30040D01*
X925244Y30466D01*
X632821Y24340D02*X632605Y23689D01*
X632171Y23255D01*
X631518Y23037D01*
X631302D02*X631518D01*
X631302D02*X630651Y23255D01*
X630215Y23689D01*
X630000Y24340D01*
Y24557D02*Y24340D01*
Y24557D02*X630215Y25209D01*
X630651Y25643D01*
X631302Y25860D01*
X631518D01*
X632171Y25643D01*
X632605Y25209D01*
X632821Y24340D01*
Y23255D01*
X632605Y22169D01*
X632171Y21518D01*
X631518Y21300D01*
X631085D02*X631518D01*
X631085D02*X630433Y21518D01*
X630215Y21952D01*
X636242Y25860D02*X637978Y21300D01*
X639716Y25860D02*X637978Y21300D01*
X643136Y25860D02*Y21300D01*
Y25860D02*X644657D01*
X645308Y25642D01*
X645742Y25208D01*
X645959Y24775D01*
X646175Y24123D01*
Y23036D01*
X645959Y22385D01*
X645742Y21951D01*
X645308Y21518D01*
X644657Y21300D01*
X643136D02*X644657D01*
X650800Y24775D02*X650583Y25208D01*
X650148Y25642D01*
X649715Y25860D01*
X648845D02*X649715D01*
X648845D02*X648412Y25642D01*
X647977Y25208D01*
X647760Y24775D01*
X647543Y24123D01*
Y23036D01*
X647760Y22385D01*
X647977Y21951D01*
X648412Y21518D01*
X648845Y21300D01*
X649715D01*
X650148Y21518D01*
X650583Y21951D01*
X650800Y22385D01*
X654220Y25860D02*X655360D01*
X654790D02*Y21300D01*
X654220D02*X655360D01*
X656728Y25860D02*Y21300D01*
Y25860D02*X659768Y21300D01*
Y25860D02*Y21300D01*
X745000Y80623D02*X745513Y80879D01*
X746285Y81650D01*
Y76250D01*
X907500Y81623D02*X908013Y81879D01*
X908785Y82650D01*
Y77250D01*
G54D194*X782832Y86177D02*X781784Y87225D01*
X780214Y87750D01*
X778118D02*X780214D01*
X778118D02*X776545Y87225D01*
X775500Y86177D01*
Y85132D01*
X776020Y84082D01*
X776545Y83559D01*
X777596Y83036D01*
X780739Y81989D01*
X781784Y81464D01*
X782306Y80941D01*
X782832Y79893D01*
Y78320D01*
X781784Y77275D01*
X780214Y76750D01*
X778118D02*X780214D01*
X778118D02*X776545Y77275D01*
X775500Y78320D01*
X786132Y82250D02*X793007D01*
X797354Y87750D02*X802593D01*
X797354D02*X796829Y83039D01*
X797354Y83559D01*
X798925Y84084D01*
X800498D01*
X802068Y83559D01*
X803116Y82514D01*
X803641Y80941D01*
Y79896D01*
X803116Y78323D01*
X802068Y77275D01*
X800498Y76750D01*
X798925D02*X800498D01*
X798925D02*X797354Y77275D01*
X796829Y77800D01*
X796307Y78846D01*
X935832Y85177D02*X934784Y86225D01*
X933214Y86750D01*
X931118D02*X933214D01*
X931118D02*X929545Y86225D01*
X928500Y85177D01*
Y84132D01*
X929020Y83082D01*
X929545Y82559D01*
X930596Y82036D01*
X933739Y80989D01*
X934784Y80464D01*
X935306Y79941D01*
X935832Y78893D01*
Y77320D01*
X934784Y76275D01*
X933214Y75750D01*
X931118D02*X933214D01*
X931118D02*X929545Y76275D01*
X928500Y77320D01*
X939132Y81250D02*X946007D01*
X950352Y86750D02*X956113D01*
X952970Y82559D01*
X954543D01*
X955588Y82039D01*
X956113Y81514D01*
X956638Y79941D01*
Y78896D01*
X956113Y77323D01*
X955068Y76275D01*
X953495Y75750D01*
X951925D02*X953495D01*
X951925D02*X950352Y76275D01*
X949829Y76800D01*
X949307Y77846D01*
G54D186*X612228Y42794D02*X612013Y43224D01*
X611583Y43654D01*
X611153Y43870D01*
X610292D02*X611153D01*
X610292D02*X609861Y43654D01*
X609431Y43224D01*
X609216Y42794D01*
X609000Y42148D01*
Y41071D01*
X609216Y40426D01*
X609431Y39995D01*
X609861Y39566D01*
X610292Y39350D01*
X611153D01*
X611583Y39566D01*
X612013Y39995D01*
X612228Y40426D01*
Y41071D02*Y40426D01*
X611153Y41071D02*X612228D01*
X613584Y43870D02*Y39350D01*
Y43870D02*X616597Y39350D01*
Y43870D02*Y39350D01*
X617953Y43870D02*Y39350D01*
Y43870D02*X619460D01*
X620106Y43654D01*
X620536Y43224D01*
X620751Y42794D01*
X620966Y42148D01*
Y41071D01*
X620751Y40426D01*
X620536Y39995D01*
X620106Y39566D01*
X619460Y39350D01*
X617953D02*X619460D01*
G54D187*X668900Y119700D02*X675200D01*
X673600Y121500D02*Y118000D01*
X672800Y119700D02*X673100D01*
X672800D02*X671100Y118000D01*
Y121500D02*Y118000D01*
Y121500D02*X672900Y119700D01*
X671100Y118000D02*X671200D01*
X672900Y119700D01*
X671850Y120750D01*
Y119350D01*
X671600Y119100D01*
Y120200D02*Y119100D01*
Y120200D02*X671100Y120700D01*
G54D191*X686500Y125500D02*Y114000D01*
X657500D02*X686500D01*
X657500Y125500D02*X686500D01*
X696300Y44300D02*X688900Y38600D01*
X671200D02*X688900D01*
X671200Y61400D02*Y38600D01*
Y61400D02*X688900D01*
X696300Y55700D01*
Y44300D01*
X710957Y67339D02*X721043D01*
X710957Y87661D02*Y67339D01*
Y87661D02*X721043D01*
Y67339D01*
X740709Y62882D02*X839134D01*
Y72724D02*Y62882D01*
X740709Y72724D02*X839134D01*
X740709D02*Y62882D01*
X750551Y72724D02*Y62882D01*
X610000Y46000D02*X620000D01*
Y56000D02*Y46000D01*
X610000Y56000D02*X620000D01*
X610000D02*Y46000D01*
X620000Y56000D02*Y46000D01*
X610000Y56000D02*X620000D01*
X590000Y46000D02*X600000D01*
Y56000D02*Y46000D01*
X590000Y56000D02*X600000D01*
X590000D02*Y46000D01*
X600000Y56000D02*Y46000D01*
X590000Y56000D02*X600000D01*
X90000Y180000D02*Y40000D01*
X80000Y180000D02*X90000D01*
X80000D02*Y40000D01*
X90000D01*
X80000Y50000D02*X90000D01*
X80000D02*Y40000D01*
X113200Y64200D02*X136800D01*
X113200Y87800D02*X136800D01*
X113200D02*Y64200D01*
X136800Y87800D02*Y64200D01*
X114675Y67150D02*X135325D01*
X114675Y84850D02*X135325D01*
X116150D02*Y78950D01*
Y73050D02*Y67150D01*
X114675Y78950D02*X116150Y73050D01*
X125000Y69100D02*G75*G03X125000Y69100I0J6900D01*G01*
G75*G03X125000Y82900I0J6900D01*G01*
X134161Y120043D02*Y109957D01*
X113839D02*X134161D01*
X113839Y120043D02*Y109957D01*
Y120043D02*X134161D01*
X160000Y180000D02*Y40000D01*
X170000D01*
Y180000D01*
X160000D01*
X170000Y170000D02*Y180000D01*
G54D187*X118689Y167245D02*Y172755D01*
X122430D01*
X132311Y167245D02*Y172755D01*
X128570D01*
X124894Y167245D02*X126106D01*
G54D199*X121510Y169213D02*G75*G03X121510Y169213I250J0D01*G01*
G54D191*X117048Y158799D02*X125952D01*
Y143201D01*
X117048D02*X125952D01*
X117048Y158799D02*Y143201D01*
X17866Y27795D02*X56843D01*
Y47087D02*Y27795D01*
X51331Y46693D02*X56055Y41969D01*
X50150Y47087D02*Y46693D01*
X56055Y40787D02*X56843Y41575D01*
Y47087D02*X24953D01*
X50150Y46693D02*X56843Y40000D01*
X17866D02*Y27795D01*
Y40000D02*X24953Y47087D01*
X31201Y174452D02*Y165548D01*
Y174452D02*X46799D01*
Y165548D01*
X31201D02*X46799D01*
X31201Y185452D02*Y176548D01*
Y185452D02*X46799D01*
Y176548D01*
X31201D02*X46799D01*
X105548Y143201D02*X114452D01*
X105548Y158799D02*Y143201D01*
Y158799D02*X114452D01*
Y143201D01*
G54D200*X116989Y129468D02*Y122532D01*
Y129468D02*X131011D01*
Y122532D01*
X116989D02*X131011D01*
G54D191*X20579Y84054D02*X50106D01*
Y93897D02*Y84054D01*
X20579Y93897D02*X50106D01*
X20579D02*Y84054D01*
X30421Y93897D02*Y84054D01*
X52354Y121890D02*Y104567D01*
Y121890D02*X21646D01*
X52354Y104567D02*X21646D01*
G54D201*X52354Y118346D02*X50780D01*
X47236Y121890D01*
X47630D01*
X51173Y118346D01*
X51567Y118740D01*
Y121496D01*
X51173Y121102D01*
X48811D01*
X49205D01*
X51567Y118740D01*
X49992Y120315D01*
Y120709D01*
X51567D01*
X51173D01*
X50386Y119921D01*
X51567D01*
G54D191*X21646Y121890D02*Y104567D01*
G54D201*Y118346D02*X23220D01*
X26764Y121890D01*
X26370D02*X26764D01*
X26370D02*X22827Y118346D01*
X22433Y118740D01*
Y121496D02*Y118740D01*
Y121496D02*X22827Y121102D01*
X25189D01*
X24795D02*X25189D01*
X24795D02*X22433Y118740D01*
X24008Y120315D01*
Y120709D02*Y120315D01*
X22433Y120709D02*X24008D01*
X22433D02*X22827D01*
X23614Y119921D01*
X22433D02*X23614D01*
G54D191*X213181Y119295D02*X271843D01*
Y138587D02*Y119295D01*
X266331Y138193D02*X271055Y133469D01*
X265150Y138587D02*Y138193D01*
X271055Y132287D02*X271843Y133075D01*
Y138587D02*X220268D01*
X265150Y138193D02*X271843Y131500D01*
X213181D02*Y119295D01*
Y131500D02*X220268Y138587D01*
G54D187*X306960Y42100D02*X323460D01*
X316560Y43500D02*Y42100D01*
Y43500D02*X317460D01*
Y42100D01*
X317060D02*X317460D01*
X317060Y43500D02*Y42100D01*
X323660D02*Y36100D01*
X307060D02*X309460D01*
X321360D02*X319560Y34000D01*
X311260D02*X319460D01*
X311260D02*X309460Y36100D01*
X321360D02*X323660D01*
G54D191*X176500Y30000D02*X186500D01*
Y40000D02*Y30000D01*
X176500Y40000D02*X186500D01*
X176500D02*Y30000D01*
X186500Y40000D02*Y30000D01*
X176500Y40000D02*X186500D01*
X210201Y34048D02*Y42952D01*
X225799D01*
Y34048D01*
X210201D01*
X194000Y30000D02*X204000D01*
Y40000D02*Y30000D01*
X194000Y40000D02*X204000D01*
X194000D02*Y30000D01*
X204000Y40000D02*Y30000D01*
X194000Y40000D02*X204000D01*
X208260Y49795D02*X296843D01*
Y69087D02*Y49795D01*
X291331Y68693D02*X296055Y63969D01*
X290150Y69087D02*Y68693D01*
X296055Y62787D02*X296843Y63575D01*
Y69087D02*X215346D01*
X290150Y68693D02*X296843Y62000D01*
X208260D02*Y49795D01*
Y62000D02*X215346Y69087D01*
X232701Y34048D02*Y42952D01*
X248299D01*
Y34048D01*
X232701D01*
X266051Y199315D02*X305421D01*
X266051D02*Y189472D01*
X305421D01*
Y199315D02*Y189472D01*
X295579Y199315D02*Y189472D01*
X266051Y186815D02*X305421D01*
X266051D02*Y176972D01*
X305421D01*
Y186815D02*Y176972D01*
X295579Y186815D02*Y176972D01*
G54D188*X329500Y154900D02*X336700D01*
X333100Y158600D02*Y151400D01*
X329300Y129600D02*X336500D01*
X318600Y142400D02*G75*G03X318600Y142400I23500J0D01*G01*
G54D191*X294480Y89890D02*Y72567D01*
Y89890D02*X224402D01*
X294480Y72567D02*X224402D01*
G54D201*X294480Y86346D02*X292906D01*
X289362Y89890D01*
X289756D01*
X293299Y86346D01*
X293693Y86740D01*
Y89496D01*
X293299Y89102D01*
X290937D01*
X291331D01*
X293693Y86740D01*
X292118Y88315D01*
Y88709D01*
X293693D01*
X293299D01*
X292512Y87921D01*
X293693D01*
G54D191*X224402Y89890D02*Y72567D01*
G54D201*Y86346D02*X225976D01*
X229520Y89890D01*
X229126D02*X229520D01*
X229126D02*X225583Y86346D01*
X225189Y86740D01*
Y89496D02*Y86740D01*
Y89496D02*X225583Y89102D01*
X227945D01*
X227551D02*X227945D01*
X227551D02*X225189Y86740D01*
X226764Y88315D01*
Y88709D02*Y88315D01*
X225189Y88709D02*X226764D01*
X225189D02*X225583D01*
X226370Y87921D01*
X225189D02*X226370D01*
G54D191*X254480Y111221D02*Y93898D01*
Y111221D02*X208024D01*
X254480Y93898D02*X208024D01*
G54D201*X254480Y107678D02*X252906D01*
X249362Y111221D01*
X249756D01*
X253299Y107678D01*
X253693Y108071D01*
Y110827D01*
X253299Y110433D01*
X250937D01*
X251331D01*
X253693Y108071D01*
X252118Y109646D01*
Y110040D01*
X253693D01*
X253299D01*
X252512Y109252D01*
X253693D01*
G54D191*X208024Y111221D02*Y93898D01*
G54D201*Y107678D02*X209598D01*
X213142Y111221D01*
X212748D02*X213142D01*
X212748D02*X209205Y107678D01*
X208811Y108071D01*
Y110827D02*Y108071D01*
Y110827D02*X209205Y110433D01*
X211567D01*
X211173D02*X211567D01*
X211173D02*X208811Y108071D01*
X210386Y109646D01*
Y110040D02*Y109646D01*
X208811Y110040D02*X210386D01*
X208811D02*X209205D01*
X209992Y109252D01*
X208811D02*X209992D01*
G54D187*X381960Y42100D02*X398460D01*
X391560Y43500D02*Y42100D01*
Y43500D02*X392460D01*
Y42100D01*
X392060D02*X392460D01*
X392060Y43500D02*Y42100D01*
X398660D02*Y36100D01*
X382060D02*X384460D01*
X396360D02*X394560Y34000D01*
X386260D02*X394460D01*
X386260D02*X384460Y36100D01*
X396360D02*X398660D01*
X331960Y42100D02*X348460D01*
X341560Y43500D02*Y42100D01*
Y43500D02*X342460D01*
Y42100D01*
X342060D02*X342460D01*
X342060Y43500D02*Y42100D01*
X348660D02*Y36100D01*
X332060D02*X334460D01*
X346360D02*X344560Y34000D01*
X336260D02*X344460D01*
X336260D02*X334460Y36100D01*
X346360D02*X348660D01*
X356960Y42100D02*X373460D01*
X366560Y43500D02*Y42100D01*
Y43500D02*X367460D01*
Y42100D01*
X367060D02*X367460D01*
X367060Y43500D02*Y42100D01*
X373660D02*Y36100D01*
X357060D02*X359460D01*
X371360D02*X369560Y34000D01*
X361260D02*X369460D01*
X361260D02*X359460Y36100D01*
X371360D02*X373660D01*
G54D191*X306657Y62000D02*Y49795D01*
X414925D01*
Y69087D02*Y49795D01*
X409413Y68693D02*X414138Y63969D01*
X408232Y69087D02*Y68693D01*
X414138Y62787D02*X414925Y63575D01*
X306657Y62000D02*X313744Y69087D01*
X414925D02*X313744D01*
X316500D02*X314925D01*
X408232Y68693D02*X414925Y62000D01*
X406980Y92390D02*Y75067D01*
Y92390D02*X321154D01*
X406980Y75067D02*X321154D01*
Y92390D02*Y75067D01*
G54D201*X406980Y88846D02*X405406D01*
X401862Y92390D01*
X402256D01*
X405799Y88846D01*
X406193Y89240D01*
Y91996D01*
X405799Y91602D01*
X403437D01*
X403831D01*
X406193Y89240D01*
X404618Y90815D01*
Y91209D01*
X406193D01*
X405799D01*
X405012Y90421D01*
X406193D01*
X321154Y88846D02*X322728D01*
X326272Y92390D01*
X325878D02*X326272D01*
X325878D02*X322335Y88846D01*
X321941Y89240D01*
Y91996D02*Y89240D01*
Y91996D02*X322335Y91602D01*
X324697D01*
X324303D02*X324697D01*
X324303D02*X321941Y89240D01*
X323516Y90815D01*
Y91209D02*Y90815D01*
X321941Y91209D02*X323516D01*
X321941D02*X322335D01*
X323122Y90421D01*
X321941D02*X323122D01*
G54D191*X460000Y180000D02*Y136000D01*
X506000D01*
Y180000D02*Y136000D01*
X460000Y180000D02*X480500D01*
X485500D02*X506000D01*
X480500D02*G75*G03X485500Y180000I2500J0D01*G01*
X420200Y168800D02*X433100D01*
X436700Y165200D01*
Y143200D01*
X420200D02*X436700D01*
X399300Y168800D02*X415800D01*
X399300D02*Y143200D01*
X415800D01*
X444701Y34548D02*Y43452D01*
X460299D01*
Y34548D01*
X444701D01*
X480441Y43452D02*Y34548D01*
Y43452D02*X496039D01*
Y34548D01*
X480441D02*X496039D01*
X1055709Y28295D02*X1094685D01*
Y47587D02*Y28295D01*
X1089173Y47193D02*X1093898Y42469D01*
X1087992Y47587D02*Y47193D01*
X1093898Y41287D02*X1094685Y42075D01*
Y47587D02*X1062795D01*
X1087992Y47193D02*X1094685Y40500D01*
X1055709D02*Y28295D01*
Y40500D02*X1062795Y47587D01*
X985709Y93382D02*X1084134D01*
Y103224D02*Y93382D01*
X985709Y103224D02*X1084134D01*
X985709D02*Y93382D01*
X995551Y103224D02*Y93382D01*
X1048480Y47890D02*Y30567D01*
Y47890D02*X1017772D01*
X1048480Y30567D02*X1017772D01*
G54D201*X1048480Y44346D02*X1046906D01*
X1043362Y47890D01*
X1043756D01*
X1047299Y44346D01*
X1047693Y44740D01*
Y47496D01*
X1047299Y47102D01*
X1044937D01*
X1045331D01*
X1047693Y44740D01*
X1046118Y46315D01*
Y46709D01*
X1047693D01*
X1047299D01*
X1046512Y45921D01*
X1047693D01*
G54D191*X1017772Y47890D02*Y30567D01*
G54D201*Y44346D02*X1019346D01*
X1022890Y47890D01*
X1022496D02*X1022890D01*
X1022496D02*X1018953Y44346D01*
X1018559Y44740D01*
Y47496D02*Y44740D01*
Y47496D02*X1018953Y47102D01*
X1021315D01*
X1020921D02*X1021315D01*
X1020921D02*X1018559Y44740D01*
X1020134Y46315D01*
Y46709D02*Y46315D01*
X1018559Y46709D02*X1020134D01*
X1018559D02*X1018953D01*
X1019740Y45921D01*
X1018559D02*X1019740D01*
G54D191*X887000Y179500D02*Y135500D01*
X933000D01*
Y179500D02*Y135500D01*
X887000Y179500D02*X907500D01*
X912500D02*X933000D01*
X907500D02*G75*G03X912500Y179500I2500J0D01*G01*
X847200Y170300D02*X860100D01*
X863700Y166700D01*
Y144700D01*
X847200D02*X863700D01*
X826300Y170300D02*X842800D01*
X826300D02*Y144700D01*
X842800D01*
X904079Y62382D02*X982819D01*
Y72224D02*Y62382D01*
X904079Y72224D02*X982819D01*
X904079D02*Y62382D01*
X913921Y72224D02*Y62382D01*
G54D186*X675000Y111050D02*Y106210D01*
X673386D02*X675000D01*
X673386D02*X672695Y106441D01*
X672234Y106902D01*
X672004Y107362D01*
X671774Y108054D01*
Y109207D02*Y108054D01*
Y109207D02*X672004Y109898D01*
X672234Y110359D01*
X672695Y110819D01*
X673386Y111050D01*
X675000D01*
X670322Y107131D02*X669862Y106901D01*
X669170Y106210D01*
Y111050D02*Y106210D01*
X681957Y34638D02*X681726Y35098D01*
X681265Y35559D01*
X680805Y35790D01*
X679882D02*X680805D01*
X679882D02*X679422Y35559D01*
X678960Y35098D01*
X678730Y34638D01*
X678500Y33946D01*
Y32793D01*
X678730Y32102D01*
X678960Y31641D01*
X679422Y31181D01*
X679882Y30950D01*
X680805D01*
X681265Y31181D01*
X681726Y31641D01*
X681957Y32102D01*
X683869Y35790D02*X686404D01*
X685021Y33946D01*
X685713D01*
X686173Y33717D01*
X686404Y33486D01*
X686635Y32794D01*
Y32334D01*
X686404Y31642D01*
X685944Y31181D01*
X685252Y30950D01*
X684561D02*X685252D01*
X684561D02*X683869Y31181D01*
X683639Y31412D01*
X683409Y31872D01*
X714300Y57953D02*X713753Y57678D01*
X713204Y57129D01*
X712929Y56582D01*
Y55483D01*
X713204Y54936D01*
X713753Y54386D01*
X714300Y54113D01*
X715124Y53839D01*
X716496D01*
X717318Y54113D01*
X717867Y54386D01*
X718414Y54936D01*
X718689Y55483D01*
Y56582D02*Y55483D01*
Y56582D02*X718414Y57129D01*
X717867Y57678D01*
X717318Y57953D01*
X712929Y62423D02*X716768Y59681D01*
Y63794D02*Y59681D01*
X712929Y62423D02*X718689D01*
X909733Y194287D02*X913847D01*
X909733D02*X908910Y194012D01*
X908362Y193465D01*
X908087Y192641D01*
Y192094D01*
X908362Y191271D01*
X908910Y190722D01*
X909733Y190448D01*
X913847D01*
Y185979D02*X910008Y188720D01*
Y184608D01*
X908087Y185979D02*X913847D01*
X821287Y158979D02*Y154865D01*
Y158979D02*X821012Y159803D01*
X820465Y160350D01*
X819641Y160625D01*
X819094D02*X819641D01*
X819094D02*X818271Y160350D01*
X817722Y159803D01*
X817448Y158979D01*
Y154865D01*
X815447Y156236D02*Y155961D01*
X815172Y155414D01*
X814900Y155139D01*
X814349Y154865D01*
X813254D02*X814349D01*
X813254D02*X812704Y155139D01*
X812430Y155414D01*
X812156Y155961D01*
Y156511D02*Y155961D01*
Y156511D02*X812430Y157060D01*
X812979Y157882D01*
X815720Y160625D01*
X811881D02*X815720D01*
G54D202*X1082505Y57840D02*Y52780D01*
X1082189Y51831D01*
X1081872Y51517D01*
X1081240Y51200D01*
X1080609D02*X1081240D01*
X1080609D02*X1079975Y51517D01*
X1079660Y51831D01*
X1079343Y52780D01*
Y53413D02*Y52780D01*
X1088290Y56892D02*X1087975Y57525D01*
X1087025Y57840D01*
X1086394D02*X1087025D01*
X1086394D02*X1085443Y57525D01*
X1084812Y56577D01*
X1084497Y54996D01*
Y53414D01*
X1084812Y52150D01*
X1085443Y51517D01*
X1086394Y51200D01*
X1086710D01*
X1087657Y51517D01*
X1088290Y52150D01*
X1088605Y53099D01*
Y53414D02*Y53099D01*
Y53414D02*X1088290Y54362D01*
X1087657Y54996D01*
X1086710Y55310D01*
X1086394D02*X1086710D01*
X1086394D02*X1085443Y54996D01*
X1084812Y54362D01*
X1084497Y53414D01*
X1090597Y57840D02*Y51200D01*
Y57840D02*X1093443D01*
X1094390Y57523D01*
X1094707Y57208D01*
X1095023Y56573D01*
Y55943D01*
X1094707Y55310D01*
X1094390Y54993D01*
X1093443Y54678D01*
X1090597D02*X1093443D01*
X1094390Y54362D01*
X1094707Y54045D01*
X1095023Y53413D01*
Y52465D01*
X1094707Y51831D01*
X1094390Y51517D01*
X1093443Y51200D01*
X1090597D02*X1093443D01*
G54D186*X783302Y55574D02*Y51550D01*
X783051Y50795D01*
X782799Y50546D01*
X782296Y50294D01*
X781795D02*X782296D01*
X781795D02*X781290Y50546D01*
X781040Y50795D01*
X780787Y51550D01*
Y52053D02*Y51550D01*
X785389Y55574D02*X787904D01*
X785389D02*X785137Y53313D01*
X785389Y53562D01*
X786143Y53814D01*
X786898D01*
X787651Y53562D01*
X788154Y53060D01*
X788406Y52305D01*
Y51804D01*
X788154Y51049D01*
X787651Y50546D01*
X786898Y50294D01*
X786143D02*X786898D01*
X786143D02*X785389Y50546D01*
X785137Y50798D01*
X784886Y51300D01*
X792002Y55574D02*X789990Y50294D01*
X792002Y55574D02*X794014Y50294D01*
X790745Y52053D02*X793260D01*
X1028302Y86074D02*Y82050D01*
X1028051Y81295D01*
X1027799Y81046D01*
X1027296Y80794D01*
X1026795D02*X1027296D01*
X1026795D02*X1026290Y81046D01*
X1026040Y81295D01*
X1025787Y82050D01*
Y82553D02*Y82050D01*
X1030137Y85069D02*Y84817D01*
Y85069D02*X1030389Y85571D01*
X1030638Y85823D01*
X1031143Y86074D01*
X1032147D01*
X1032651Y85823D01*
X1032902Y85571D01*
X1033153Y85069D01*
Y84565D01*
X1032902Y84062D01*
X1032399Y83308D01*
X1029886Y80794D01*
X1033405D01*
X1037001Y86074D02*X1034989Y80794D01*
X1037001Y86074D02*X1039012Y80794D01*
X1035744Y82553D02*X1038259D01*
X939377Y55990D02*Y51388D01*
X939090Y50524D01*
X938801Y50238D01*
X938226Y49950D01*
X937652D02*X938226D01*
X937652D02*X937075Y50238D01*
X936788Y50524D01*
X936500Y51388D01*
Y51963D02*Y51388D01*
X941762Y55990D02*X944926D01*
X943200Y53689D01*
X944064D01*
X944637Y53403D01*
X944926Y53115D01*
X945214Y52251D01*
Y51677D01*
X944926Y50814D01*
X944352Y50238D01*
X943488Y49950D01*
X942626D02*X943488D01*
X942626D02*X941762Y50238D01*
X941475Y50527D01*
X941189Y51101D01*
X949327Y55990D02*X947026Y49950D01*
X949327Y55990D02*X951629Y49950D01*
X947890Y51963D02*X950766D01*
G54D203*X1021024Y58650D02*Y53011D01*
X1020673Y51953D01*
X1020319Y51603D01*
X1019615Y51250D01*
X1018912D02*X1019615D01*
X1018912D02*X1018205Y51603D01*
X1017853Y51953D01*
X1017500Y53011D01*
Y53716D02*Y53011D01*
X1027472Y57594D02*X1027120Y58298D01*
X1026062Y58650D01*
X1025359D02*X1026062D01*
X1025359D02*X1024299Y58298D01*
X1023596Y57242D01*
X1023244Y55481D01*
Y53718D01*
X1023596Y52308D01*
X1024299Y51603D01*
X1025359Y51250D01*
X1025710D01*
X1026767Y51603D01*
X1027472Y52308D01*
X1027823Y53366D01*
Y53718D02*Y53366D01*
Y53718D02*X1027472Y54774D01*
X1026767Y55481D01*
X1025710Y55831D01*
X1025359D02*X1025710D01*
X1025359D02*X1024299Y55481D01*
X1023596Y54774D01*
X1023244Y53718D01*
X1035328Y56889D02*X1034975Y57592D01*
X1034270Y58297D01*
X1033567Y58650D01*
X1032156D02*X1033567D01*
X1032156D02*X1031453Y58297D01*
X1030746Y57592D01*
X1030395Y56889D01*
X1030043Y55831D01*
Y54068D01*
X1030395Y53011D01*
X1030746Y52306D01*
X1031453Y51603D01*
X1032156Y51250D01*
X1033567D01*
X1034270Y51603D01*
X1034975Y52306D01*
X1035328Y53011D01*
G54D186*X594020Y42154D02*X593788Y41457D01*
X593323Y40992D01*
X592625Y40759D01*
X592393D02*X592625D01*
X592393D02*X591697Y40992D01*
X591231Y41457D01*
X591000Y42154D01*
Y42386D02*Y42154D01*
Y42386D02*X591231Y43083D01*
X591697Y43548D01*
X592393Y43780D01*
X592625D01*
X593323Y43548D01*
X593788Y43083D01*
X594020Y42154D01*
Y40992D01*
X593788Y39830D01*
X593323Y39133D01*
X592625Y38900D01*
X592161D02*X592625D01*
X592161D02*X591464Y39133D01*
X591231Y39598D01*
X595484Y43780D02*X597342Y38900D01*
X599202Y43780D02*X597342Y38900D01*
X124693Y95492D02*X124145Y96041D01*
X123322Y96316D01*
X122225D02*X123322D01*
X122225D02*X121402Y96041D01*
X120854Y95492D01*
Y94945D01*
X121126Y94395D01*
X121402Y94121D01*
X121952Y93848D01*
X123598Y93299D01*
X124145Y93024D01*
X124418Y92750D01*
X124693Y92202D01*
Y91378D01*
X124145Y90831D01*
X123322Y90556D01*
X122225D02*X123322D01*
X122225D02*X121402Y90831D01*
X120854Y91378D01*
X126421Y95220D02*X126969Y95494D01*
X127792Y96316D01*
Y90556D01*
X131780Y179734D02*X131403Y179545D01*
X131025Y179168D01*
X130837Y178792D01*
X130649Y178225D01*
Y177283D01*
X130837Y176716D01*
X131025Y176339D01*
X131403Y175963D01*
X131780Y175774D01*
X132535D01*
X132911Y175963D01*
X133288Y176339D01*
X133477Y176716D01*
X133666Y177283D01*
Y178225D02*Y177283D01*
Y178225D02*X133477Y178792D01*
X133288Y179168D01*
X132911Y179545D01*
X132535Y179734D01*
X131780D02*X132535D01*
X132346Y176528D02*X133477Y175397D01*
X134854Y178981D02*X135230Y179169D01*
X135796Y179734D01*
Y175774D01*
X106789Y161701D02*X111629D01*
X106789Y163775D02*Y161701D01*
Y163775D02*X107020Y164466D01*
X107250Y164697D01*
X107711Y164927D01*
X108172D01*
X108633Y164697D01*
X108863Y164466D01*
X109094Y163775D01*
Y161701D01*
Y163314D02*X111629Y164927D01*
X106789Y168683D02*X110015Y166379D01*
Y169835D02*Y166379D01*
X106789Y168683D02*X111629D01*
X128559Y148221D02*X132479D01*
X128559Y149901D02*Y148221D01*
Y149901D02*X128746Y150460D01*
X128933Y150647D01*
X129306Y150834D01*
X129679D01*
X130053Y150647D01*
X130239Y150460D01*
X130426Y149901D01*
Y148221D01*
Y149527D02*X132479Y150834D01*
X129305Y152010D02*X129119Y152382D01*
X128559Y152943D01*
X132479D01*
X139639Y115598D02*X139452Y115970D01*
X139078Y116344D01*
X138706Y116531D01*
X137958D02*X138706D01*
X137958D02*X137586Y116344D01*
X137211Y115970D01*
X137025Y115598D01*
X136839Y115037D01*
Y114104D01*
X137025Y113544D01*
X137211Y113171D01*
X137586Y112798D01*
X137958Y112611D01*
X138706D01*
X139078Y112798D01*
X139452Y113171D01*
X139639Y113544D01*
X140815Y115785D02*X141187Y115971D01*
X141748Y116531D01*
Y112611D01*
X135481Y127024D02*X135294Y127396D01*
X134920Y127770D01*
X134548Y127957D01*
X133800D02*X134548D01*
X133800D02*X133428Y127770D01*
X133053Y127396D01*
X132867Y127024D01*
X132681Y126463D01*
Y125530D01*
X132867Y124970D01*
X133053Y124597D01*
X133428Y124224D01*
X133800Y124037D01*
X134548D01*
X134920Y124224D01*
X135294Y124597D01*
X135481Y124970D01*
X136843Y127211D02*Y127024D01*
Y127211D02*X137030Y127584D01*
X137215Y127771D01*
X137590Y127957D01*
X138336D01*
X138710Y127771D01*
X138896Y127584D01*
X139082Y127211D01*
Y126837D01*
X138896Y126463D01*
X138523Y125904D01*
X136657Y124037D01*
X139270D01*
X449701Y31711D02*Y26871D01*
Y31711D02*X451775D01*
X452466Y31480D01*
X452697Y31250D01*
X452927Y30789D01*
Y30328D01*
X452697Y29867D01*
X452466Y29637D01*
X451775Y29406D01*
X449701D02*X451775D01*
X451314D02*X452927Y26871D01*
X454839Y31711D02*X457374D01*
X455991Y29867D01*
X456683D01*
X457143Y29638D01*
X457374Y29407D01*
X457605Y28715D01*
Y28255D01*
X457374Y27563D01*
X456914Y27102D01*
X456222Y26871D01*
X455531D02*X456222D01*
X455531D02*X454839Y27102D01*
X454609Y27333D01*
X454379Y27793D01*
X484421Y31671D02*Y26831D01*
Y31671D02*X486495D01*
X487186Y31440D01*
X487417Y31210D01*
X487647Y30749D01*
Y30288D01*
X487417Y29827D01*
X487186Y29597D01*
X486495Y29366D01*
X484421D02*X486495D01*
X486034D02*X487647Y26831D01*
X489329Y30750D02*Y30519D01*
Y30750D02*X489560Y31210D01*
X489789Y31441D01*
X490251Y31671D01*
X491172D01*
X491634Y31441D01*
X491864Y31210D01*
X492094Y30750D01*
Y30288D01*
X491864Y29827D01*
X491403Y29136D01*
X489099Y26831D01*
X492325D01*
X420307Y60070D02*Y55711D01*
X420035Y54893D01*
X419762Y54623D01*
X419217Y54350D01*
X418674D02*X419217D01*
X418674D02*X418128Y54623D01*
X417856Y54893D01*
X417583Y55711D01*
Y56256D02*Y55711D01*
X422568Y60070D02*X425292D01*
X422568D02*X422295Y57620D01*
X422568Y57891D01*
X423384Y58164D01*
X424202D01*
X425019Y57891D01*
X425564Y57347D01*
X425837Y56529D01*
Y55986D01*
X425564Y55168D01*
X425019Y54623D01*
X424202Y54350D01*
X423384D02*X424202D01*
X423384D02*X422568Y54623D01*
X422295Y54896D01*
X422023Y55440D01*
X427553Y60070D02*Y54350D01*
Y60070D02*X430004D01*
X430820Y59797D01*
X431093Y59525D01*
X431365Y58979D01*
Y58436D01*
X431093Y57891D01*
X430820Y57618D01*
X430004Y57346D01*
X427553D02*X430004D01*
X430820Y57074D01*
X431093Y56801D01*
X431365Y56256D01*
Y55440D01*
X431093Y54893D01*
X430820Y54623D01*
X430004Y54350D01*
X427553D02*X430004D01*
X413377Y86490D02*Y81888D01*
X413090Y81024D01*
X412801Y80738D01*
X412226Y80450D01*
X411652D02*X412226D01*
X411652D02*X411075Y80738D01*
X410788Y81024D01*
X410500Y81888D01*
Y82463D02*Y81888D01*
X415764Y86490D02*X418640D01*
X415764D02*X415475Y83903D01*
X415764Y84189D01*
X416626Y84477D01*
X417490D01*
X418352Y84189D01*
X418927Y83615D01*
X419216Y82751D01*
Y82177D01*
X418927Y81314D01*
X418352Y80738D01*
X417490Y80450D01*
X416626D02*X417490D01*
X416626D02*X415764Y80738D01*
X415475Y81027D01*
X415189Y81601D01*
X425342Y85052D02*X425053Y85626D01*
X424478Y86202D01*
X423904Y86490D01*
X422752D02*X423904D01*
X422752D02*X422178Y86202D01*
X421602Y85626D01*
X421315Y85052D01*
X421028Y84189D01*
Y82750D01*
X421315Y81888D01*
X421602Y81312D01*
X422178Y80738D01*
X422752Y80450D01*
X423904D01*
X424478Y80738D01*
X425053Y81312D01*
X425342Y81888D01*
X311165Y196000D02*Y192952D01*
X310975Y192380D01*
X310784Y192191D01*
X310403Y192000D01*
X310023D02*X310403D01*
X310023D02*X309641Y192191D01*
X309451Y192380D01*
X309260Y192952D01*
Y193333D02*Y192952D01*
X313317Y196000D02*X312745Y195810D01*
X312555Y195429D01*
Y195048D01*
X312745Y194667D01*
X313126Y194476D01*
X313888Y194287D01*
X314460Y194096D01*
X314840Y193715D01*
X315031Y193334D01*
Y192762D01*
X314840Y192382D01*
X314649Y192191D01*
X314078Y192000D01*
X313317D02*X314078D01*
X313317D02*X312745Y192191D01*
X312555Y192382D01*
X312365Y192762D01*
Y193334D02*Y192762D01*
Y193334D02*X312555Y193715D01*
X312935Y194096D01*
X313507Y194287D01*
X314269Y194476D01*
X314649Y194667D01*
X314840Y195048D01*
Y195429D02*Y195048D01*
Y195429D02*X314649Y195810D01*
X314078Y196000D01*
X313317D02*X314078D01*
X311665Y183500D02*Y180452D01*
X311475Y179880D01*
X311284Y179691D01*
X310903Y179500D01*
X310523D02*X310903D01*
X310523D02*X310141Y179691D01*
X309951Y179880D01*
X309760Y180452D01*
Y180833D02*Y180452D01*
X315340Y182167D02*X315150Y181596D01*
X314769Y181215D01*
X314197Y181024D01*
X314007D02*X314197D01*
X314007D02*X313436Y181215D01*
X313054Y181596D01*
X312865Y182167D01*
Y182357D02*Y182167D01*
Y182357D02*X313054Y182929D01*
X313436Y183310D01*
X314007Y183500D01*
X314197D01*
X314769Y183310D01*
X315150Y182929D01*
X315340Y182167D01*
Y181215D01*
X315150Y180262D01*
X314769Y179691D01*
X314197Y179500D01*
X313817D02*X314197D01*
X313817D02*X313245Y179691D01*
X313054Y180072D01*
X277243Y127060D02*Y122671D01*
X276970Y121847D01*
X276695Y121575D01*
X276146Y121300D01*
X275599D02*X276146D01*
X275599D02*X275049Y121575D01*
X274775Y121847D01*
X274500Y122671D01*
Y123220D02*Y122671D01*
X279518Y127060D02*X282535D01*
X280889Y124865D01*
X281713D01*
X282260Y124593D01*
X282535Y124318D01*
X282810Y123495D01*
Y122947D01*
X282535Y122124D01*
X281988Y121575D01*
X281164Y121300D01*
X280342D02*X281164D01*
X280342D02*X279518Y121575D01*
X279245Y121850D01*
X278971Y122397D01*
X284538Y127060D02*Y121300D01*
Y127060D02*X287006D01*
X287829Y126785D01*
X288104Y126511D01*
X288377Y125961D01*
Y125414D01*
X288104Y124865D01*
X287829Y124590D01*
X287006Y124317D01*
X284538D02*X287006D01*
X287829Y124043D01*
X288104Y123768D01*
X288377Y123220D01*
Y122397D01*
X288104Y121847D01*
X287829Y121575D01*
X287006Y121300D01*
X284538D02*X287006D01*
X260377Y104821D02*Y100219D01*
X260090Y99355D01*
X259801Y99070D01*
X259226Y98781D01*
X258652D02*X259226D01*
X258652D02*X258075Y99070D01*
X257788Y99355D01*
X257500Y100219D01*
Y100794D02*Y100219D01*
X262762Y104821D02*X265926D01*
X264200Y102520D01*
X265064D01*
X265637Y102234D01*
X265926Y101946D01*
X266214Y101082D01*
Y100509D01*
X265926Y99645D01*
X265352Y99070D01*
X264488Y98781D01*
X263626D02*X264488D01*
X263626D02*X262762Y99070D01*
X262475Y99358D01*
X262189Y99932D01*
X272340Y103384D02*X272052Y103957D01*
X271477Y104533D01*
X270903Y104821D01*
X269751D02*X270903D01*
X269751D02*X269177Y104533D01*
X268600Y103957D01*
X268313Y103384D01*
X268026Y102520D01*
Y101081D01*
X268313Y100219D01*
X268600Y99643D01*
X269177Y99070D01*
X269751Y98781D01*
X270903D01*
X271477Y99070D01*
X272052Y99643D01*
X272340Y100219D01*
X382260Y48100D02*Y44100D01*
Y48100D02*X383594D01*
X384165Y47909D01*
X384546Y47528D01*
X384736Y47148D01*
X384926Y46576D01*
Y45623D01*
X384736Y45052D01*
X384546Y44671D01*
X384165Y44291D01*
X383594Y44100D01*
X382260D02*X383594D01*
X386506Y48100D02*X388601D01*
X387458Y46576D01*
X388030D01*
X388410Y46387D01*
X388601Y46196D01*
X388792Y45624D01*
Y45244D01*
X388601Y44672D01*
X388221Y44291D01*
X387649Y44100D01*
X387078D02*X387649D01*
X387078D02*X386506Y44291D01*
X386316Y44482D01*
X386126Y44862D01*
X310960Y29280D02*Y24400D01*
Y29280D02*X312587D01*
X313284Y29047D01*
X313749Y28582D01*
X313981Y28119D01*
X314212Y27421D01*
Y26258D01*
X313981Y25561D01*
X313749Y25097D01*
X313284Y24633D01*
X312587Y24400D01*
X310960D02*X312587D01*
X318464Y28583D02*X318232Y29048D01*
X317534Y29280D01*
X317071D02*X317534D01*
X317071D02*X316372Y29048D01*
X315908Y28352D01*
X315676Y27190D01*
Y26027D01*
X315908Y25098D01*
X316372Y24633D01*
X317071Y24400D01*
X317303D01*
X317999Y24633D01*
X318464Y25098D01*
X318696Y25796D01*
Y26027D02*Y25796D01*
Y26027D02*X318464Y26724D01*
X317999Y27190D01*
X317303Y27421D01*
X317071D02*X317303D01*
X317071D02*X316372Y27190D01*
X315908Y26724D01*
X315676Y26027D01*
X336160Y29580D02*Y24700D01*
Y29580D02*X337787D01*
X338484Y29347D01*
X338949Y28882D01*
X339181Y28419D01*
X339412Y27721D01*
Y26558D01*
X339181Y25861D01*
X338949Y25397D01*
X338484Y24933D01*
X337787Y24700D01*
X336160D02*X337787D01*
X341341Y29580D02*X343665D01*
X341341D02*X341108Y27490D01*
X341341Y27721D01*
X342038Y27954D01*
X342736D01*
X343432Y27721D01*
X343897Y27257D01*
X344130Y26559D01*
Y26096D01*
X343897Y25398D01*
X343432Y24933D01*
X342736Y24700D01*
X342038D02*X342736D01*
X342038D02*X341341Y24933D01*
X341108Y25166D01*
X340876Y25630D01*
X357560Y48000D02*Y44000D01*
Y48000D02*X358894D01*
X359465Y47809D01*
X359846Y47428D01*
X360036Y47048D01*
X360226Y46476D01*
Y45523D01*
X360036Y44952D01*
X359846Y44571D01*
X359465Y44191D01*
X358894Y44000D01*
X357560D02*X358894D01*
X361616Y47239D02*Y47048D01*
Y47239D02*X361807Y47619D01*
X361996Y47810D01*
X362378Y48000D01*
X363139D01*
X363521Y47810D01*
X363711Y47619D01*
X363901Y47239D01*
Y46857D01*
X363711Y46476D01*
X363330Y45905D01*
X361426Y44000D01*
X364092D01*
X240701Y31941D02*Y28021D01*
Y31941D02*X242381D01*
X242940Y31754D01*
X243127Y31568D01*
X243314Y31194D01*
Y30821D01*
X243127Y30447D01*
X242940Y30261D01*
X242381Y30074D01*
X240701D02*X242381D01*
X242007D02*X243314Y28021D01*
X246729Y31381D02*X246543Y31755D01*
X245982Y31941D01*
X245610D02*X245982D01*
X245610D02*X245048Y31755D01*
X244676Y31195D01*
X244490Y30262D01*
Y29328D01*
X244676Y28582D01*
X245048Y28208D01*
X245610Y28021D01*
X245796D01*
X246356Y28208D01*
X246729Y28582D01*
X246915Y29142D01*
Y29328D02*Y29142D01*
Y29328D02*X246729Y29888D01*
X246356Y30262D01*
X245796Y30447D01*
X245610D02*X245796D01*
X245610D02*X245048Y30262D01*
X244676Y29888D01*
X244490Y29328D01*
X481446Y132500D02*X485560D01*
X481446D02*X480622Y132225D01*
X480075Y131678D01*
X479800Y130854D01*
Y130307D01*
X480075Y129483D01*
X480622Y128935D01*
X481446Y128661D01*
X485560D01*
Y126384D02*Y123641D01*
Y126384D02*X483093Y126659D01*
X483365Y126384D01*
X483640Y125562D01*
Y124738D01*
X483365Y123916D01*
X482818Y123368D01*
X481995Y123092D01*
X481447D02*X481995D01*
X481447D02*X480624Y123368D01*
X480075Y123916D01*
X479800Y124738D01*
Y125562D02*Y124738D01*
Y125562D02*X480075Y126384D01*
X480350Y126659D01*
X480897Y126933D01*
X396000Y155554D02*Y151440D01*
Y155554D02*X395725Y156378D01*
X395178Y156925D01*
X394354Y157200D01*
X393807D02*X394354D01*
X393807D02*X392983Y156925D01*
X392435Y156378D01*
X392161Y155554D01*
Y151440D01*
X386869D02*X389886D01*
X386869D02*X388515Y153635D01*
X387691D02*X388515D01*
X387691D02*X387144Y153907D01*
X386869Y154182D01*
X386594Y155005D01*
Y155553D02*Y155005D01*
Y155553D02*X386869Y156376D01*
X387416Y156925D01*
X388240Y157200D01*
X389062D01*
X389886Y156925D01*
X390159Y156650D01*
X390433Y156103D01*
G54D202*X367100Y129940D02*Y123300D01*
X370893D01*
X372885Y128677D02*X373516Y128992D01*
X374465Y129940D01*
Y123300D01*
G54D186*X5805Y36290D02*Y32602D01*
X5575Y31910D01*
X5344Y31681D01*
X4883Y31450D01*
X4423D02*X4883D01*
X4423D02*X3961Y31681D01*
X3731Y31910D01*
X3500Y32602D01*
Y33063D02*Y32602D01*
X7487Y35369D02*Y35138D01*
Y35369D02*X7718Y35829D01*
X7947Y36060D01*
X8409Y36290D01*
X9330D01*
X9792Y36060D01*
X10022Y35829D01*
X10252Y35369D01*
Y34907D01*
X10022Y34446D01*
X9561Y33755D01*
X7257Y31450D01*
X10483D01*
X11935Y36290D02*Y31450D01*
Y36290D02*X14009D01*
X14700Y36059D01*
X14931Y35829D01*
X15161Y35367D01*
Y34907D01*
X14931Y34446D01*
X14700Y34215D01*
X14009Y33985D01*
X11935D02*X14009D01*
X14700Y33755D01*
X14931Y33524D01*
X15161Y33063D01*
Y32372D01*
X14931Y31910D01*
X14700Y31681D01*
X14009Y31450D01*
X11935D02*X14009D01*
G54D202*X197243Y25260D02*X196926Y25890D01*
X196295Y26523D01*
X195662Y26840D01*
X194397D02*X195662D01*
X194397D02*X193765Y26523D01*
X193132Y25890D01*
X192817Y25260D01*
X192500Y24310D01*
Y22728D01*
X192817Y21780D01*
X193132Y21148D01*
X193765Y20517D01*
X194397Y20200D01*
X195662D01*
X196295Y20517D01*
X196926Y21148D01*
X197243Y21780D01*
Y22728D02*Y21780D01*
X195662Y22728D02*X197243D01*
X199235Y26840D02*Y20200D01*
Y26840D02*X203660Y20200D01*
Y26840D02*Y20200D01*
X205652Y26840D02*Y20200D01*
Y26840D02*X207867D01*
X208814Y26523D01*
X209447Y25890D01*
X209762Y25260D01*
X210078Y24310D01*
Y22728D01*
X209762Y21780D01*
X209447Y21148D01*
X208814Y20517D01*
X207867Y20200D01*
X205652D02*X207867D01*
X174132Y26840D02*X177295D01*
X174132D02*X173815Y23996D01*
X174132Y24310D01*
X175080Y24627D01*
X176030D01*
X176978Y24310D01*
X177610Y23679D01*
X177927Y22730D01*
Y22099D01*
X177610Y21150D01*
X176978Y20517D01*
X176030Y20200D01*
X175080D02*X176030D01*
X175080D02*X174132Y20517D01*
X173815Y20834D01*
X173500Y21465D01*
X179919Y26840D02*X182447Y20200D01*
X184979Y26840D02*X182447Y20200D01*
G54D186*X193743Y58060D02*Y53671D01*
X193470Y52847D01*
X193195Y52575D01*
X192646Y52300D01*
X192099D02*X192646D01*
X192099D02*X191549Y52575D01*
X191275Y52847D01*
X191000Y53671D01*
Y54220D02*Y53671D01*
X198213Y58060D02*X195471Y54221D01*
X199584D01*
X198213Y58060D02*Y52300D01*
X201312Y58060D02*Y52300D01*
Y58060D02*X203780D01*
X204602Y57785D01*
X204877Y57511D01*
X205151Y56961D01*
Y56414D01*
X204877Y55865D01*
X204602Y55590D01*
X203780Y55317D01*
X201312D02*X203780D01*
X204602Y55043D01*
X204877Y54768D01*
X205151Y54220D01*
Y53397D01*
X204877Y52847D01*
X204602Y52575D01*
X203780Y52300D01*
X201312D02*X203780D01*
X218701Y31941D02*Y28021D01*
Y31941D02*X220381D01*
X220940Y31754D01*
X221127Y31568D01*
X221314Y31194D01*
Y30821D01*
X221127Y30447D01*
X220940Y30261D01*
X220381Y30074D01*
X218701D02*X220381D01*
X220007D02*X221314Y28021D01*
X222863Y31941D02*X224730D01*
X222863D02*X222676Y30262D01*
X222863Y30447D01*
X223423Y30635D01*
X223983D01*
X224543Y30447D01*
X224916Y30075D01*
X225103Y29515D01*
Y29142D01*
X224916Y28582D01*
X224543Y28208D01*
X223983Y28021D01*
X223423D02*X223983D01*
X223423D02*X222863Y28208D01*
X222676Y28395D01*
X222490Y28768D01*
X208377Y80490D02*Y75888D01*
X208090Y75024D01*
X207801Y74738D01*
X207226Y74450D01*
X206652D02*X207226D01*
X206652D02*X206075Y74738D01*
X205788Y75024D01*
X205500Y75888D01*
Y76463D02*Y75888D01*
X213064Y80490D02*X210189Y76464D01*
X214501D01*
X213064Y80490D02*Y74450D01*
X220627Y79052D02*X220339Y79626D01*
X219763Y80202D01*
X219190Y80490D01*
X218038D02*X219190D01*
X218038D02*X217464Y80202D01*
X216887Y79626D01*
X216600Y79052D01*
X216313Y78189D01*
Y76750D01*
X216600Y75888D01*
X216887Y75312D01*
X217464Y74738D01*
X218038Y74450D01*
X219190D01*
X219763Y74738D01*
X220339Y75312D01*
X220627Y75888D01*
X9905Y77172D02*Y74124D01*
X9715Y73552D01*
X9524Y73363D01*
X9143Y73172D01*
X8763D02*X9143D01*
X8763D02*X8381Y73363D01*
X8191Y73552D01*
X8000Y74124D01*
Y74505D02*Y74124D01*
X13771Y77172D02*X11866Y73172D01*
X11105Y77172D02*X13771D01*
X16495D02*X14971Y73172D01*
X16495Y77172D02*X18019Y73172D01*
X15543Y74505D02*X17448D01*
G54D204*X5574Y115820D02*Y110699D01*
X5255Y109738D01*
X4934Y109421D01*
X4294Y109100D01*
X3656D02*X4294D01*
X3656D02*X3014Y109421D01*
X2695Y109738D01*
X2374Y110699D01*
Y111339D02*Y110699D01*
X7910Y114542D02*Y114221D01*
Y114542D02*X8230Y115180D01*
X8548Y115501D01*
X9190Y115820D01*
X10468D01*
X11110Y115501D01*
X11429Y115180D01*
X11748Y114542D01*
Y113900D01*
X11429Y113260D01*
X10789Y112300D01*
X7590Y109100D01*
X12069D01*
X18885Y114221D02*X18564Y114859D01*
X17924Y115499D01*
X17286Y115820D01*
X16004D02*X17286D01*
X16004D02*X15365Y115499D01*
X14724Y114859D01*
X14405Y114221D01*
X14085Y113260D01*
Y111659D01*
X14405Y110699D01*
X14724Y110059D01*
X15365Y109421D01*
X16004Y109100D01*
X17286D01*
X17924Y109421D01*
X18564Y110059D01*
X18885Y110699D01*
G54D186*X22741Y169941D02*Y166021D01*
Y169941D02*X24421D01*
X24980Y169754D01*
X25167Y169568D01*
X25354Y169194D01*
Y168821D01*
X25167Y168448D01*
X24980Y168262D01*
X24421Y168074D01*
X22741D02*X24421D01*
X24047D02*X25354Y166021D01*
X29142Y169941D02*X27275Y166021D01*
X26530Y169941D02*X29142D01*
X22721Y184971D02*Y181171D01*
Y184971D02*X24349D01*
X24892Y184790D01*
X25073Y184609D01*
X25254Y184247D01*
Y183885D01*
X25073Y183523D01*
X24892Y183343D01*
X24349Y183161D01*
X22721D02*X24349D01*
X23987D02*X25254Y181171D01*
X27298Y184971D02*X26755Y184790D01*
X26574Y184429D01*
Y184067D01*
X26755Y183705D01*
X27117Y183523D01*
X27841Y183344D01*
X28384Y183162D01*
X28745Y182800D01*
X28926Y182438D01*
Y181895D01*
X28745Y181534D01*
X28564Y181352D01*
X28021Y181171D01*
X27298D02*X28021D01*
X27298D02*X26755Y181352D01*
X26574Y181534D01*
X26394Y181895D01*
Y182438D02*Y181895D01*
Y182438D02*X26574Y182800D01*
X26935Y183162D01*
X27479Y183344D01*
X28202Y183523D01*
X28564Y183705D01*
X28745Y184067D01*
Y184429D02*Y184067D01*
Y184429D02*X28564Y184790D01*
X28021Y184971D01*
X27298D02*X28021D01*
M02*
