G04 start of page 10 for group 11 layer_idx 11 *
G04 Title: AYAB-RS_E, bottom_mask *
G04 Creator: pcb-rnd 1.2.8 *
G04 CreationDate: 2018-05-30 20:35:32 UTC *
G04 For: Windell H. Oskay *
G04 Format: Gerber/RS-274X *
G04 PCB-Dimensions: 1100000 207000 *
G04 PCB-Coordinate-Origin: lower left *
%MOIN*%
%FSLAX25Y25*%
%LNBOTTOMMASK*%
%ADD187C,0.0759*%
%ADD186C,0.1260*%
%ADD185C,0.0920*%
%ADD184C,0.1760*%
%ADD183C,0.2110*%
%ADD182C,0.2260*%
%ADD181C,0.1540*%
%ADD180C,0.0970*%
%ADD179C,0.0669*%
%ADD178C,0.0739*%
%ADD177C,0.0001*%
%ADD176C,0.0800*%
%ADD175C,0.0760*%
G54D175*X85000Y115000D03*
Y125000D03*
Y135000D03*
G54D176*X95000Y125000D03*
Y135000D03*
G54D175*X85000Y85000D03*
Y95000D03*
Y105000D03*
G54D176*X95000Y85000D03*
Y95000D03*
Y105000D03*
Y115000D03*
G54D175*X85000Y65000D03*
Y75000D03*
G54D177*G36*
X81200Y48800D02*X88800D01*
Y41200D01*
X81200D01*
Y48800D01*
G37*
G54D175*X85000Y55000D03*
G54D176*X95000Y45000D03*
Y55000D03*
Y65000D03*
Y75000D03*
G54D175*X165000Y135000D03*
Y125000D03*
Y115000D03*
Y105000D03*
Y95000D03*
Y85000D03*
G54D176*X155000Y135000D03*
Y125000D03*
Y115000D03*
Y105000D03*
Y95000D03*
Y85000D03*
G54D178*X232472Y131500D03*
X222630D03*
G54D179*X231252Y104331D03*
X223378D03*
G54D178*X252157Y131500D03*
X242315D03*
G54D179*X239126Y104331D03*
X215504D03*
X231882Y83000D03*
G54D177*G36*
X243654Y107678D02*X250346D01*
Y100984D01*
X243654D01*
Y107678D01*
G37*
G54D179*X247630Y83000D03*
X239756D03*
X263378D03*
X255504D03*
X279126D03*
X271252D03*
G54D177*G36*
X258306Y135194D02*X265694D01*
Y127806D01*
X258306D01*
Y135194D01*
G37*
G54D175*X165000Y75000D03*
G54D176*X155000D03*
G54D175*X165000Y65000D03*
G54D176*X155000D03*
G54D178*X218102Y62000D03*
X247630D03*
X237787D03*
X227945D03*
X277157D03*
X267315D03*
X257472D03*
G54D175*X165000Y55000D03*
G54D176*X155000D03*
G54D175*X165000Y45000D03*
G54D176*X155000D03*
G54D177*G36*
X177700Y38800D02*X185300D01*
Y31200D01*
X177700D01*
Y38800D01*
G37*
G36*
X195200D02*X202800D01*
Y31200D01*
X195200D01*
Y38800D01*
G37*
G54D180*X283000Y36500D03*
G54D177*G36*
X283306Y65694D02*X290694D01*
Y58307D01*
X283306D01*
Y65694D01*
G37*
G36*
X283654Y86346D02*X290346D01*
Y79654D01*
X283654D01*
Y86346D01*
G37*
G54D181*X550000Y65500D03*
G54D177*G36*
X610700Y55300D02*X619300D01*
Y46700D01*
X610700D01*
Y55300D01*
G37*
G36*
X590700D02*X599300D01*
Y46700D01*
X590700D01*
Y55300D01*
G37*
G54D182*X645500Y65000D03*
G54D183*Y90000D03*
G54D184*X627500Y77500D03*
G54D175*X755473Y67606D03*
G54D177*G36*
X741830Y71800D02*X749430D01*
Y64200D01*
X741830D01*
Y71800D01*
G37*
G54D175*X765315Y68000D03*
X775158Y67606D03*
X785000Y68000D03*
X794843Y67606D03*
X804685Y68000D03*
X814528Y67606D03*
X824370Y68000D03*
X834213Y67606D03*
G54D178*X375555Y62000D03*
G54D177*G36*
X396154Y88846D02*X402846D01*
Y82154D01*
X396154D01*
Y88846D01*
G37*
G54D179*X391626Y85500D03*
X383752D03*
G54D177*G36*
X401390Y65694D02*X408776D01*
Y58307D01*
X401390D01*
Y65694D01*
G37*
G54D178*X395240Y62000D03*
X385398D03*
G54D179*X375878Y85500D03*
G54D178*X365713Y62000D03*
G54D179*X368004Y85500D03*
X360130D03*
X352256D03*
G54D178*X355870Y62000D03*
X346028D03*
G54D179*X344382Y85500D03*
X336508D03*
X328634D03*
G54D178*X336185Y62000D03*
X326343D03*
X316500D03*
G54D180*X423000Y36500D03*
G54D185*X342000Y129700D03*
G54D186*X875000Y67000D03*
G54D177*G36*
X905200Y71300D02*X912800D01*
Y63700D01*
X905200D01*
Y71300D01*
G37*
G36*
X986830Y102300D02*X994430D01*
Y94700D01*
X986830D01*
Y102300D01*
G37*
G54D175*X918843Y67106D03*
X928685Y67500D03*
X938528Y67106D03*
X948370Y67500D03*
X958213Y67106D03*
X968055Y67500D03*
X977898Y67106D03*
G54D178*X1065158Y40500D03*
G54D177*G36*
X1037654Y44346D02*X1044346D01*
Y37654D01*
X1037654D01*
Y44346D01*
G37*
G54D179*X1033126Y41000D03*
X1025252D03*
G54D175*X1000473Y98106D03*
X1010315Y98500D03*
X1020158Y98106D03*
X1030000Y98500D03*
X1039843Y98106D03*
X1049685Y98500D03*
X1059528Y98106D03*
X1069370Y98500D03*
G54D178*X1075000Y40500D03*
G54D175*X1079213Y98106D03*
G54D177*G36*
X1081150Y44194D02*X1088536D01*
Y36806D01*
X1081150D01*
Y44194D01*
G37*
G54D181*X1062500Y65500D03*
Y139500D03*
G54D186*Y172000D03*
G54D185*X342000Y155300D03*
G54D181*X550000Y139500D03*
G54D177*G36*
X296700Y197800D02*X304300D01*
Y190200D01*
X296700D01*
Y197800D01*
G37*
G36*
Y185300D02*X304300D01*
Y177700D01*
X296700D01*
Y185300D01*
G37*
G54D175*X290657Y194787D03*
Y182287D03*
X280815Y194000D03*
Y181500D03*
X270972Y194787D03*
Y182287D03*
G54D181*X37500Y139500D03*
G54D175*X85000Y165000D03*
Y175000D03*
Y145000D03*
Y155000D03*
G54D176*X95000Y145000D03*
Y155000D03*
Y165000D03*
Y175000D03*
G54D175*X165000D03*
G54D176*X155000D03*
G54D175*X165000Y165000D03*
G54D176*X155000D03*
G54D175*X165000Y155000D03*
G54D176*X155000D03*
G54D175*X165000Y145000D03*
G54D176*X155000D03*
G54D177*G36*
X21700Y92972D02*X29300D01*
Y85372D01*
X21700D01*
Y92972D01*
G37*
G54D181*X37500Y65500D03*
G54D177*G36*
X43206Y43794D02*X50794D01*
Y36206D01*
X43206D01*
Y43794D01*
G37*
G54D187*X37157Y40000D03*
X27315D03*
G54D175*X35343Y88778D03*
X45185Y89172D03*
G54D177*G36*
X41528Y118346D02*X48220D01*
Y111654D01*
X41528D01*
Y118346D01*
G37*
G54D179*X37000Y115000D03*
X29126D03*
M02*
