G04 start of page 4 for group 7 layer_idx 6 *
G04 Title: AYAB-RS_E, global_outline *
G04 Creator: pcb-rnd 1.2.8 *
G04 CreationDate: 2018-05-30 20:35:32 UTC *
G04 For: Windell H. Oskay *
G04 Format: Gerber/RS-274X *
G04 PCB-Dimensions: 1100000 207000 *
G04 PCB-Coordinate-Origin: lower left *
%MOIN*%
%FSLAX25Y25*%
%LNOUTLINE*%
%ADD90C,0.0110*%
%ADD89C,0.0100*%
G54D89*X8826Y206389D02*X7677Y205970D01*
X6584Y205444D01*
X5553Y204819D01*
X4591Y204101D01*
X12550Y206950D02*X11269Y206886D01*
X10026Y206695D01*
X8826Y206389D01*
X4591Y204101D02*X3705Y203295D01*
X2899Y202408D01*
X2180Y201447D01*
X1555Y200416D01*
X1030Y199323D01*
X611Y198173D01*
X50Y194450D02*Y29448D01*
X611Y198173D02*X304Y196973D01*
X115Y195730D01*
X50Y194450D01*
Y29448D02*X115Y28167D01*
X50Y7747D02*Y48D01*
X115Y28167D02*X304Y26923D01*
X611Y25724D01*
X1030Y24574D01*
X1555Y23481D01*
X2180Y22451D01*
X4591Y19796D02*X5553Y19078D01*
X2180Y22451D02*X2899Y21489D01*
X3705Y20602D01*
X4591Y19796D01*
X5553Y19078D02*X6584Y18453D01*
X7677Y17927D01*
X8826Y17508D01*
X10026Y17201D01*
X11269Y17012D01*
X15484Y16754D02*X16330Y16493D01*
X11269Y17012D02*X12550Y16948D01*
X13338Y16899D01*
X14574Y16845D01*
X15484Y16754D01*
X16330Y16493D02*X17094Y16079D01*
X17759Y15531D01*
X18306Y14865D01*
X18720Y14101D01*
X18980Y13256D01*
X19072Y12348D01*
X18306Y9826D02*X17759Y9160D01*
X19072Y12348D02*X18980Y11438D01*
X18720Y10591D01*
X18306Y9826D01*
X17759Y9160D02*X17094Y8611D01*
X16330Y8197D01*
X15484Y7935D01*
X14574Y7844D01*
X13338Y7795D01*
X50Y7747D01*
X1086770Y7795D02*X1085533Y7844D01*
X1084623Y7935D01*
X50Y48D02*X1100051D01*
Y7747D01*
X1086770Y7795D01*
X1084623Y7935D02*X1083777Y8197D01*
X1083013Y8611D01*
X1082348Y9160D01*
X1081126Y11438D02*X1081035Y12348D01*
X1081126Y13256D01*
X1081387Y14101D01*
X1081801Y14865D01*
X1082348Y9160D02*X1081801Y9826D01*
X1081387Y10591D01*
X1081126Y11438D01*
X1081801Y14865D02*X1082348Y15531D01*
X1083013Y16079D01*
X1083777Y16493D01*
X1084623Y16754D01*
X1085533Y16845D01*
X1086770Y16899D01*
X1090077Y17201D02*X1091277Y17508D01*
X1086770Y16899D02*X1087551Y16948D01*
X1088833Y17012D01*
X1090077Y17201D01*
X1091277Y17508D02*X1092426Y17927D01*
X1093520Y18453D01*
X1094551Y19078D01*
X1095512Y19796D01*
X1096398Y20602D01*
X1097203Y21489D01*
X1099071Y24574D02*X1099491Y25724D01*
X1097203Y21489D02*X1097923Y22451D01*
X1098546Y23481D01*
X1099071Y24574D01*
X1099491Y25724D02*X1099798Y26923D01*
X1099987Y28167D01*
X1100051Y29448D01*
Y194450D02*X1099987Y195730D01*
X1099798Y196973D01*
X1099491Y198173D01*
X1099071Y199323D01*
X1098546Y200416D01*
X1097923Y201447D01*
X1100051Y29448D02*Y194450D01*
X1097923Y201447D02*X1097203Y202408D01*
X1096398Y203295D01*
X1095512Y204101D01*
X1092426Y205970D02*X1091277Y206389D01*
X1090077Y206695D01*
X1088833Y206886D01*
X1087551Y206950D01*
X1095512Y204101D02*X1094551Y204819D01*
X1093520Y205444D01*
X1092426Y205970D01*
X1087551Y206950D02*X12550D01*
G54D90*X821641Y15250D02*X820596Y14725D01*
X819545Y13677D01*
X819022Y12632D01*
X818500Y11059D01*
Y8441D01*
X819022Y6865D01*
Y6868D02*X819545Y5820D01*
X820596Y4775D01*
X821641Y4250D01*
X823739D01*
X824784Y4775D01*
X825832Y5820D01*
X826357Y6868D01*
X826876Y8441D01*
Y11059D02*Y8441D01*
Y11059D02*X826357Y12632D01*
X825832Y13677D01*
X824784Y14725D01*
X823739Y15250D01*
X821641D02*X823739D01*
X830177D02*Y7393D01*
X830702Y5820D01*
X831747Y4775D01*
X833320Y4250D01*
X834365D01*
X835938Y4775D01*
X836986Y5820D01*
X837508Y7393D01*
Y15250D02*Y7393D01*
X844474Y15250D02*Y4250D01*
X840808Y15250D02*X848140D01*
X851440D02*Y4250D01*
X857723D01*
X861023Y15250D02*X863773D01*
X862398D02*Y4250D01*
X861023D02*X863773D01*
X867073Y15250D02*Y4250D01*
Y15250D02*X874405Y4250D01*
Y15250D02*Y4250D01*
X877705Y15250D02*Y4250D01*
Y15250D02*X884514D01*
X877705Y10011D02*X881893D01*
X877705Y4250D02*X884514D01*
M02*
