G04 start of page 10 for group -4062 idx -4062 *
G04 Title: AYAB-RS_D, soldermask *
G04 Creator: pcb 20140316 *
G04 CreationDate: Fri Dec 25 22:38:06 2015 UTC *
G04 For: oskay *
G04 Format: Gerber/RS-274X *
G04 PCB-Dimensions (mil): 11000.00 2070.00 *
G04 PCB-Coordinate-Origin: lower left *
%MOIN*%
%FSLAX25Y25*%
%LNBOTTOMMASK*%
%ADD185C,0.0970*%
%ADD184C,0.1260*%
%ADD183C,0.1540*%
%ADD182C,0.1760*%
%ADD181C,0.2260*%
%ADD180C,0.2110*%
%ADD179C,0.0759*%
%ADD178C,0.0669*%
%ADD177C,0.0739*%
%ADD176C,0.0920*%
%ADD175C,0.0800*%
%ADD174C,0.0001*%
%ADD173C,0.0760*%
G54D173*X165000Y135000D03*
Y125000D03*
Y115000D03*
Y105000D03*
Y95000D03*
Y85000D03*
Y75000D03*
Y65000D03*
Y55000D03*
Y45000D03*
G54D174*G36*
X195200Y38800D02*Y31200D01*
X202800D01*
Y38800D01*
X195200D01*
G37*
G36*
X177700D02*Y31200D01*
X185300D01*
Y38800D01*
X177700D01*
G37*
G54D175*X155000Y125000D03*
Y115000D03*
Y105000D03*
Y95000D03*
Y85000D03*
Y75000D03*
Y65000D03*
Y55000D03*
Y45000D03*
G54D174*G36*
X296700Y197800D02*Y190200D01*
X304300D01*
Y197800D01*
X296700D01*
G37*
G36*
Y185300D02*Y177700D01*
X304300D01*
Y185300D01*
X296700D01*
G37*
G54D173*X290657Y194787D03*
Y182287D03*
X280815Y194000D03*
Y181500D03*
X270972Y194787D03*
Y182287D03*
G54D176*X342000Y155300D03*
G54D174*G36*
X258306Y135194D02*Y127806D01*
X265694D01*
Y135194D01*
X258306D01*
G37*
G54D177*X252157Y131500D03*
X242315D03*
X232472D03*
X222630D03*
G54D176*X342000Y129700D03*
G54D174*G36*
X283306Y65694D02*Y58306D01*
X290694D01*
Y65694D01*
X283306D01*
G37*
G54D177*X277157Y62000D03*
X267315D03*
X257472D03*
X247630D03*
X237787D03*
X227945D03*
X218102D03*
G54D174*G36*
X283654Y86346D02*Y79654D01*
X290346D01*
Y86346D01*
X283654D01*
G37*
G54D178*X279126Y83000D03*
X271252D03*
X336508Y85500D03*
X328634D03*
X263378Y83000D03*
X255504D03*
X247630D03*
X239756D03*
X231882D03*
G54D174*G36*
X243654Y107678D02*Y100985D01*
X250346D01*
Y107678D01*
X243654D01*
G37*
G54D178*X239126Y104331D03*
X231252D03*
X223378D03*
X215504D03*
G54D173*X85000Y125000D03*
Y135000D03*
Y145000D03*
Y155000D03*
Y165000D03*
Y175000D03*
Y75000D03*
Y85000D03*
Y95000D03*
Y105000D03*
G54D174*G36*
X81200Y48800D02*Y41200D01*
X88800D01*
Y48800D01*
X81200D01*
G37*
G54D173*X85000Y55000D03*
G54D175*X95000Y45000D03*
Y55000D03*
G54D173*X85000Y65000D03*
G54D175*X95000D03*
Y75000D03*
Y85000D03*
G54D174*G36*
X21700Y92972D02*Y85372D01*
X29300D01*
Y92972D01*
X21700D01*
G37*
G54D173*X35343Y88779D03*
X45185Y89172D03*
G54D174*G36*
X43206Y43794D02*Y36206D01*
X50794D01*
Y43794D01*
X43206D01*
G37*
G36*
X41528Y118346D02*Y111654D01*
X48220D01*
Y118346D01*
X41528D01*
G37*
G54D178*X37000Y115000D03*
X29126D03*
G54D179*X37157Y40000D03*
X27315D03*
G54D173*X165000Y175000D03*
Y165000D03*
Y155000D03*
G54D175*X155000Y175000D03*
Y165000D03*
Y155000D03*
G54D173*X165000Y145000D03*
G54D175*X155000D03*
Y135000D03*
G54D173*X85000Y115000D03*
G54D175*X95000Y95000D03*
Y105000D03*
Y115000D03*
Y125000D03*
Y135000D03*
Y145000D03*
Y155000D03*
Y165000D03*
Y175000D03*
G54D180*X645500Y90000D03*
G54D181*Y65000D03*
G54D182*X627500Y77500D03*
G54D174*G36*
X396154Y88846D02*Y82154D01*
X402846D01*
Y88846D01*
X396154D01*
G37*
G54D178*X391626Y85500D03*
X383752D03*
X375878D03*
X368004D03*
X360130D03*
X352256D03*
X344382D03*
G54D174*G36*
X401389Y65694D02*Y58306D01*
X408776D01*
Y65694D01*
X401389D01*
G37*
G36*
X610700Y55300D02*Y46700D01*
X619300D01*
Y55300D01*
X610700D01*
G37*
G36*
X590700D02*Y46700D01*
X599300D01*
Y55300D01*
X590700D01*
G37*
G54D177*X395240Y62000D03*
X385398D03*
X375555D03*
X365713D03*
X355870D03*
X346028D03*
X336185D03*
X326343D03*
X316500D03*
G54D174*G36*
X1081149Y44194D02*Y36806D01*
X1088536D01*
Y44194D01*
X1081149D01*
G37*
G54D177*X1075000Y40500D03*
X1065157D03*
G54D174*G36*
X1037654Y44346D02*Y37654D01*
X1044346D01*
Y44346D01*
X1037654D01*
G37*
G54D178*X1033126Y41000D03*
X1025252D03*
G54D174*G36*
X741830Y71800D02*Y64200D01*
X749430D01*
Y71800D01*
X741830D01*
G37*
G54D173*X755472Y67606D03*
X765315Y68000D03*
X775157Y67606D03*
X785000Y68000D03*
X794843Y67606D03*
X804685Y68000D03*
X814528Y67606D03*
X824370Y68000D03*
X834213Y67606D03*
G54D174*G36*
X986830Y102300D02*Y94700D01*
X994430D01*
Y102300D01*
X986830D01*
G37*
G54D173*X1000472Y98106D03*
X1010315Y98500D03*
X1020157Y98106D03*
X1030000Y98500D03*
X1039843Y98106D03*
X1049685Y98500D03*
X1059528Y98106D03*
X1069370Y98500D03*
X1079213Y98106D03*
G54D174*G36*
X905200Y71300D02*Y63700D01*
X912800D01*
Y71300D01*
X905200D01*
G37*
G54D173*X918843Y67106D03*
X928685Y67500D03*
X938528Y67106D03*
X948370Y67500D03*
X958213Y67106D03*
X968055Y67500D03*
X977898Y67106D03*
G54D183*X1062500Y139500D03*
Y65500D03*
G54D184*Y172000D03*
X875000Y67000D03*
G54D183*X550000Y139500D03*
Y65500D03*
X37500Y139500D03*
Y65500D03*
G54D185*X283000Y36500D03*
X423000D03*
M02*
