G04 start of page 2 for group 3 layer_idx 0 *
G04 Title: AYAB-RS_E, top_copper *
G04 Creator: pcb-rnd 1.2.8 *
G04 CreationDate: 2018-05-30 20:35:32 UTC *
G04 For: Windell H. Oskay *
G04 Format: Gerber/RS-274X *
G04 PCB-Dimensions: 1100000 207000 *
G04 PCB-Coordinate-Origin: lower left *
%MOIN*%
%FSLAX25Y25*%
%LNTOP*%
%ADD63C,0.1200*%
%ADD62C,0.0300*%
%ADD61C,0.1250*%
%ADD60C,0.1100*%
%ADD59C,0.1480*%
%ADD58C,0.0910*%
%ADD57C,0.0350*%
%ADD56C,0.0352*%
%ADD55C,0.0360*%
%ADD54C,0.0380*%
%ADD53C,0.0650*%
%ADD52C,0.2100*%
%ADD51C,0.0800*%
%ADD50C,0.1700*%
%ADD49C,0.2050*%
%ADD48C,0.2200*%
%ADD47C,0.0636*%
%ADD46C,0.0679*%
%ADD45C,0.0560*%
%ADD44C,0.0460*%
%ADD43C,0.0001*%
%ADD42C,0.0750*%
%ADD41C,0.0700*%
%ADD40C,0.0119*%
%ADD39C,0.0200*%
%ADD38C,0.0900*%
%ADD37C,0.1000*%
%ADD36C,0.0600*%
%ADD35C,0.0500*%
%ADD34C,0.0150*%
%ADD33C,0.0100*%
%ADD32C,0.0400*%
%ADD31C,0.0250*%
G54D31*X95000Y125000D02*X85000D01*
X95000Y145000D02*X85000D01*
X95000Y155000D02*X85000D01*
Y95000D02*X84843Y95157D01*
X85000Y135000D02*X95000D01*
Y105000D02*X85000D01*
G54D32*X95000Y95000D02*X79000D01*
X75000Y91000D01*
X95000Y85000D02*X75000D01*
G54D31*X85000Y95000D02*Y85000D01*
X95000Y95000D02*Y85000D01*
G54D33*X95055Y85055D01*
G54D34*X65000Y31500D02*Y112000D01*
X29126Y114000D02*X29000Y113874D01*
X45185Y115689D02*Y89172D01*
X65000Y112000D02*X78000Y125000D01*
X44874Y115000D02*X45000Y114874D01*
X44874Y115000D02*X55000D01*
X75000Y135000D01*
X44874Y116000D02*X45185Y115689D01*
X15000Y92000D02*X25000Y102000D01*
X45185D01*
X78000Y125000D02*X85000D01*
X75000Y135000D02*X85000D01*
X54607Y170393D02*X60000Y165000D01*
X85500D01*
G54D32*X75000Y33000D02*X81000Y27000D01*
X75000Y33000D02*Y91000D01*
G54D31*X95000Y55000D02*X85000D01*
Y65000D02*X95000D01*
G54D34*X107000Y59500D02*Y67000D01*
X194000Y42000D02*X178000Y58000D01*
X199000Y64000D02*X208000Y55000D01*
X203500Y52500D02*X190500Y65500D01*
X187000Y63500D02*X201000Y49500D01*
X183000Y61000D02*X197500Y46500D01*
X202500D01*
X231000D02*X349000D01*
G54D31*X344382Y85000D02*Y79382D01*
X352256Y85000D02*Y79256D01*
X346028Y73028D01*
X368004Y77504D02*X365713Y75213D01*
X360130Y85000D02*Y78630D01*
X355870Y74370D01*
X368004Y85000D02*Y77504D01*
G54D34*X351500Y44000D02*X349000Y46500D01*
G54D31*X399500Y85000D02*Y77500D01*
X405083Y71917D01*
Y62000D01*
G54D34*X401500Y42700D02*X400500Y43700D01*
G54D31*X391626Y85000D02*Y76874D01*
X383752Y85000D02*Y74748D01*
X385398Y73102D01*
Y62000D01*
X375878Y85000D02*Y63378D01*
X391626Y76874D02*X395240Y73260D01*
Y62000D01*
X375878Y63378D02*X375000Y62500D01*
G54D34*X400500Y43700D02*X379200D01*
G54D31*X344382Y79382D02*X336185Y71185D01*
Y62000D01*
G54D35*X326343Y70343D02*Y62000D01*
X336508Y80508D02*X326343Y70343D01*
G54D31*X346028Y73028D02*Y62000D01*
X355870Y74370D02*Y62000D01*
X365713Y75213D02*Y62000D01*
G54D35*X336508Y85000D02*Y80508D01*
X316500Y72866D02*Y62000D01*
X328634Y85000D02*X316500Y72866D01*
G54D34*X279000Y83126D02*X279126Y83000D01*
Y88126D01*
X281000Y90000D01*
X263500Y83500D02*X264000Y83000D01*
X281000Y90000D02*X317000D01*
X271252Y83000D02*Y87752D01*
X315500Y83000D02*X287000D01*
X315500D02*X325500Y93000D01*
X271252Y87752D02*X276500Y93000D01*
X315000D01*
X263378Y83000D02*Y87378D01*
X239756Y83000D02*Y88756D01*
X243500Y92500D01*
X251500D01*
X255504Y83000D02*Y87004D01*
X247630Y83000D02*Y87630D01*
X249000Y89000D01*
X252500D01*
X470000Y93000D02*X325500D01*
G54D31*X95000Y45000D02*X85000D01*
X95055Y54945D02*X95000Y55000D01*
G54D34*X102500D01*
X107000Y59500D01*
G54D31*X95055Y85055D02*X107087D01*
G54D34*X15000Y53157D02*Y92000D01*
X775000Y84000D02*Y68000D01*
X785000D02*Y79500D01*
X795000Y76000D02*Y68000D01*
G54D31*X835000D02*Y28000D01*
X825000Y68000D02*X835000D01*
G54D34*X815000D02*Y36000D01*
G54D31*X805000Y68000D02*Y28000D01*
X755000Y68000D02*Y28000D01*
G54D35*X1001000Y72000D02*X1004000Y69000D01*
G54D34*X978500Y73500D02*Y68000D01*
G54D32*X988750Y72750D02*Y26250D01*
G54D35*X1004000Y69000D02*X1012500D01*
G54D34*X904500Y87500D02*X797000D01*
X799500Y90000D02*X912000D01*
X938500Y68000D02*Y73000D01*
X891500Y85000D02*X908500Y68000D01*
X794500Y85000D02*X891500D01*
X918500Y68000D02*Y73500D01*
X904500Y87500D01*
X912000Y90000D02*X928500Y73500D01*
Y68000D01*
X938500Y73000D02*X918500Y93000D01*
X802000D01*
X948500Y68000D02*Y73000D01*
X958500Y74000D02*Y68000D01*
X968500D02*Y72500D01*
G54D36*X199000Y35000D02*Y27000D01*
G54D34*X230000Y36000D02*Y34500D01*
X227000Y31500D01*
X207500D01*
X206500Y32500D01*
X376000Y37000D02*Y27000D01*
X304000Y35000D02*X305000Y34000D01*
X352500D02*X305000D01*
X380000Y35000D02*X382000Y33000D01*
X397800D01*
G54D37*X645500Y32500D02*X650000Y28000D01*
G54D34*X520000Y36000D02*X561500D01*
X367760Y39100D02*X373900D01*
X376000Y37000D01*
X393760Y39100D02*X399900D01*
X308860D02*X305100D01*
X358860D02*X355900D01*
X383860D02*X380600D01*
X343760D02*X349900D01*
X320760D02*X324100D01*
X305100D02*X304000Y38000D01*
Y35000D01*
X355900Y39100D02*X355000Y40000D01*
Y45000D01*
X356500Y46500D01*
X472240D01*
X456240Y39393D02*X456633Y39000D01*
X462000D01*
X469000D01*
X501500D02*X491980D01*
X479740D02*X484500D01*
X201000Y49500D02*X506500D01*
X334000Y39000D02*X331000D01*
X326000Y41000D02*Y43000D01*
X349900Y39100D02*X351500Y40700D01*
Y44000D01*
X408500Y43700D02*X434300D01*
X439000Y39000D01*
X399900Y39100D02*X401500Y40700D01*
Y42700D01*
X379200Y43700D02*X377000Y41500D01*
X324100Y39100D02*X326000Y41000D01*
Y43000D02*X324800Y44200D01*
X258200D01*
X228500Y40000D02*Y44000D01*
X231000Y46500D01*
X472240D02*X479740Y39000D01*
X439000D02*X448760D01*
X506500Y49500D02*X520000Y36000D01*
X559000Y39000D02*X522500D01*
X526000Y42000D02*X557000D01*
X380600Y39100D02*X380000Y38500D01*
Y35000D01*
G54D31*X688200Y50000D02*X699000D01*
G54D37*X645500Y28500D02*X645000Y28000D01*
X645500Y33500D02*X640000Y28000D01*
G54D31*X673600Y50000D02*X647000D01*
G54D32*X988750Y26250D02*X988500Y26000D01*
G54D31*X1032874Y40500D02*X1033000Y40374D01*
Y27000D01*
G54D32*X81000D02*X1065000D01*
G54D37*X1009000Y24500D02*X202000D01*
G54D34*X206500Y32500D02*Y38500D01*
X203000Y42000D01*
X194000D01*
X202500Y46500D02*X210500Y38500D01*
X214260D01*
X228500Y40000D02*X227000Y38500D01*
X232500D02*X230000Y36000D01*
X227000Y38500D02*X221740D01*
X244240Y38893D02*X252893D01*
X236760D02*X236367Y38500D01*
X232500D01*
X258200Y44200D02*X252893Y38893D01*
X331000Y39000D02*X329500Y37500D01*
X376000Y37000D02*X377000Y38000D01*
Y41500D01*
X397800Y33000D02*X408500Y43700D01*
X329500Y37500D02*Y34000D01*
G54D32*X645500Y50000D02*X668000D01*
G54D38*X615000Y51000D02*Y26500D01*
G54D31*X37000Y41000D02*Y31000D01*
G54D34*X27157Y41000D02*X15000Y53157D01*
G54D31*X37000Y31000D02*X45000Y23000D01*
X68500D01*
X76750Y31250D01*
G54D34*X522500Y39000D02*X509000Y52500D01*
X203500D02*X509000D01*
X208000Y55000D02*X513000D01*
X526000Y42000D01*
G54D31*X1065000Y27000D02*X1072000D01*
X1075000Y30000D01*
Y40000D02*Y30000D01*
X699000Y50000D02*X701000Y52000D01*
G54D32*Y92000D02*Y52000D01*
G54D31*X715607Y71989D02*X716000Y71596D01*
Y27000D01*
X715607Y83011D02*Y90393D01*
G54D32*X645500Y65000D02*X646000Y64500D01*
G54D31*X645500Y65000D02*X643000Y62500D01*
X645500Y65000D02*X648000Y62500D01*
G54D37*X627500Y77500D02*X641500Y63500D01*
X645500Y65000D02*Y28500D01*
Y65000D02*Y33500D01*
Y65000D02*Y32500D01*
X641500Y63500D02*X647000D01*
G54D31*X95000Y165000D02*X85000D01*
G54D34*X95000D02*X103000Y173000D01*
Y174500D01*
X121500Y147260D02*Y141500D01*
G54D31*X109607Y147260D02*X110000Y146867D01*
G54D34*X121760Y166134D02*X121500Y165874D01*
Y154740D01*
Y141500D02*X124500Y138500D01*
X131500D01*
X120457Y126000D02*X110000D01*
G54D31*X85000Y115000D02*X118489D01*
G54D34*X127149Y126000D02*X139000D01*
Y115000D02*X129511D01*
G54D31*X139000D02*X130000D01*
X110000Y146867D02*Y115000D01*
Y172500D02*Y154740D01*
X139000Y105500D02*Y126000D01*
Y147500D01*
X129500Y157000D01*
Y158500D01*
G54D34*X129240Y166134D02*X129500Y165874D01*
Y158500D01*
G54D31*X95000Y95000D02*X128500D01*
X139000Y105500D01*
X95000Y175000D02*X85000D01*
G54D34*X95000D02*Y182500D01*
X110000Y197500D01*
G54D31*X125500Y180500D02*X128000Y183000D01*
X125500Y180500D02*Y178500D01*
G54D34*Y174007D02*Y180000D01*
X103000Y174500D02*X121500Y193000D01*
G54D31*X125500Y188000D02*X110000Y172500D01*
G54D34*X199500Y174000D02*X266000D01*
X425500Y181500D02*Y174100D01*
G54D31*X446500Y174000D02*X468500Y196000D01*
G54D34*X433000Y186000D02*X430500Y183500D01*
Y174100D01*
Y183500D02*X427500D01*
X425500Y181500D01*
X195500Y170500D02*X362000D01*
G54D31*X271000Y193000D02*Y184000D01*
X291000Y193000D02*Y183000D01*
X300500Y181500D02*Y194000D01*
G54D34*X266000Y174000D03*
X281000Y183000D02*Y174000D01*
G54D31*X468500Y196000D02*X513500D01*
X376989Y159500D02*X377000Y199500D01*
X400500Y160500D02*Y174100D01*
G54D34*X364500Y174000D02*X371000Y167500D01*
X362000Y170500D02*X367500Y165000D01*
X110000Y197500D02*X176000D01*
X183000Y190500D01*
X35260Y181393D02*X34867Y181000D01*
X27000D01*
Y170000D02*X35260D01*
X42740Y181393D02*X57107D01*
X42740Y170393D02*X54607D01*
X121500Y193000D02*X173000D01*
G54D31*X128000Y183000D02*X168000D01*
X170500Y188000D02*X125500D01*
G54D34*X57107Y181393D02*X63500Y175000D01*
X84500D01*
X27000Y170000D02*Y192000D01*
X173000Y193000D02*X195500Y170500D01*
X183000Y190500D02*X187000Y186500D01*
X199500Y174000D01*
G54D31*X165000Y175000D02*X155000D01*
G54D34*X199500Y134500D02*X165500D01*
X165000Y135000D01*
Y155000D02*X179500D01*
X196500Y138000D01*
X232500Y131500D02*X233000Y132000D01*
X232500Y135500D02*X232472Y131500D01*
X196500Y138000D02*X230000D01*
X232500Y135500D01*
X232315Y132685D02*Y131500D01*
X222630D02*X202500D01*
X199500Y134500D01*
G54D31*X168000Y183000D02*X208500Y142500D01*
X232500D01*
D03*
X212000Y146500D02*X170500Y188000D01*
G54D34*X310000Y99000D02*X316000Y105000D01*
X453000Y114000D02*X309000D01*
X456500Y111000D02*X311500D01*
X314000Y108000D02*X458500D01*
X318500Y102000D02*X463000D01*
X460500Y105000D02*X316000D01*
X465000Y99000D02*X321000D01*
X462000Y168000D02*X458500D01*
X456400Y173000D02*X465000D01*
X456700Y168000D02*X459000D01*
X454000Y160000D02*X457000Y163000D01*
X465000D01*
X457000Y157500D02*X457500Y158000D01*
X465000D01*
X449000Y165600D02*X456400Y173000D01*
G54D33*X391450Y177307D02*X391500Y177357D01*
Y180500D01*
X394000Y183000D01*
X404000D01*
X405500Y181500D01*
G54D34*Y177200D02*Y163000D01*
X408500Y160000D01*
G54D33*X405500Y181500D02*Y175500D01*
X410500Y182500D02*Y174500D01*
X420500Y182000D02*Y176500D01*
X415500Y182500D02*Y176000D01*
X388300Y177307D02*Y181800D01*
X385150Y177307D02*Y183150D01*
X389000Y187000D01*
X382001Y177307D02*Y184001D01*
X387000Y189000D01*
G54D34*X371000Y167500D02*Y154500D01*
X376500Y149000D01*
D03*
X367500Y150500D02*X375500Y142500D01*
G54D33*X390500Y166500D02*X378000D01*
X376989Y165489D01*
Y159500D01*
G54D34*X375500Y142500D02*X381500D01*
G54D33*X388300Y181800D02*X391500Y185000D01*
X391450Y170614D02*X391500Y170564D01*
Y167500D01*
X390500Y166500D01*
X388300Y166800D02*Y170614D01*
X388000Y166500D02*X388300Y166800D01*
X385000Y166500D02*X385150Y166650D01*
Y170614D01*
X382000Y166500D02*X382001Y166501D01*
Y170614D01*
X391500Y185000D02*X408000D01*
X410500Y182500D01*
X389000Y187000D02*X411000D01*
X415500Y182500D01*
X387000Y189000D02*X413500D01*
X420500Y182000D01*
G54D34*X445500Y167900D02*X455600Y178000D01*
X444500Y166900D02*X446100Y168500D01*
X435500Y177200D02*Y174000D01*
Y174100D02*X435600Y174000D01*
G54D39*X442000D01*
G54D31*X446500D01*
G54D34*X408500Y160000D02*X454000D01*
X412000Y162300D02*X451000D01*
X448000Y164600D02*X417500D01*
X421500Y166900D02*X444500D01*
X407500Y157500D02*X457000D01*
X415500Y177200D02*Y166600D01*
X417500Y164600D02*X415500Y166600D01*
X420500Y177200D02*Y167900D01*
X421500Y166900D01*
X410500Y177200D02*Y163800D01*
X412000Y162300D01*
X451000D02*X456700Y168000D01*
X448950Y165550D02*X448000Y164600D01*
X494500Y148000D02*X509000D01*
X492500Y153000D02*X509000D01*
X492500D02*X488500Y149000D01*
X491500Y145000D02*X494500Y148000D01*
X462000Y153000D02*X454200D01*
X400500Y141000D02*Y150500D01*
X405500D02*Y137900D01*
X410500Y149000D02*Y137900D01*
X402953Y130147D02*X400500Y132600D01*
Y137900D01*
X405600Y131400D02*Y133000D01*
D03*
Y135602D01*
X415500Y141000D02*Y147500D01*
X418600Y150600D01*
G54D39*X425500Y137900D02*Y131500D01*
G54D34*X415500Y132100D02*Y137900D01*
X409252Y131252D02*X410600Y132600D01*
Y133400D01*
D03*
Y135602D01*
X413600Y131400D02*X414800D01*
X415500Y132100D01*
X430500Y129500D02*Y137900D01*
G54D31*X435500Y143000D02*Y137900D01*
G54D34*X440500Y124900D02*Y139700D01*
X442000Y141200D01*
Y145500D01*
G54D31*X438000D01*
X435500Y143000D01*
G54D39*X425500Y131500D02*Y124500D01*
G54D34*X406102Y128000D02*X406200Y128098D01*
X402953Y121307D02*X402900Y121254D01*
Y117500D01*
X403800Y116600D01*
X406200D02*X406102Y116698D01*
Y121307D01*
X403800Y116600D02*X432200D01*
X409200D02*X409252Y116652D01*
Y121307D01*
X412400Y116600D02*X412402Y116602D01*
Y121307D01*
X432200Y116600D02*X440500Y124900D01*
X406200Y128098D02*Y130800D01*
X409252Y128000D02*Y131252D01*
X412402Y128000D02*X412400Y128002D01*
Y130200D01*
X413600Y131400D01*
X402953Y128000D02*Y130147D01*
X406200Y130800D02*X405600Y131400D01*
X454200Y153000D02*X452000Y155200D01*
X444900Y150600D02*X452500Y143000D01*
G54D32*X465000Y138000D02*X448000D01*
G54D34*X462000Y148000D02*X453400D01*
X448500Y152900D01*
X400500Y150500D02*X407500Y157500D01*
G54D31*X389000Y149000D02*X388011Y149989D01*
Y156700D01*
X389000Y149000D02*X400500Y160500D01*
G54D34*X452000Y155200D02*X410200D01*
X405500Y150500D01*
X414400Y152900D02*X410500Y149000D01*
X448500Y152900D02*X414400D01*
X418600Y150600D02*X444900D01*
X493000Y178000D02*X473500Y158500D01*
X492000Y173000D02*X476500Y157500D01*
X479500Y155500D02*X492000Y168000D01*
X491500Y163000D02*X482500Y154000D01*
X485500Y152500D02*X491000Y158000D01*
X498000Y173000D02*X492000D01*
Y168000D02*X501000D01*
X498000Y163000D02*X491500D01*
X491000Y158000D02*X501000D01*
X467500Y96000D02*X323000D01*
X452500Y143000D02*X465000D01*
X473500Y134500D02*X453000Y114000D01*
G54D32*X462000Y138000D02*X467000D01*
G54D34*X476500Y131000D02*X456500Y111000D01*
X458500Y108000D02*X479500Y129000D01*
X482500Y127000D02*X460500Y105000D01*
X463000Y102000D02*X485500Y124500D01*
X495000Y143000D02*X509000D01*
G54D32*X506500Y138000D02*X499000D01*
G54D34*X495000Y143000D02*X494500Y142500D01*
G54D32*X507000Y95500D02*Y138000D01*
G54D34*X488500Y122500D02*X465000Y99000D01*
X467500Y96000D02*X491500Y120000D01*
X494500Y117500D02*X470000Y93000D01*
G54D32*X491000Y79500D02*X507000Y95500D01*
G54D34*X491500Y120000D02*Y145000D01*
X494500Y142500D02*Y117500D01*
X488500Y149000D02*Y122500D01*
X485500Y124500D02*Y152500D01*
X482500Y154000D02*Y127000D01*
X479500Y129000D02*Y155500D01*
X476500Y157500D02*Y131000D01*
X473500Y158500D02*Y134500D01*
X317000Y90000D02*X323000Y96000D01*
X266000Y174000D02*X364500D01*
G54D31*X273000Y142500D02*X285800Y129700D01*
X342000D01*
X278000Y146500D02*X333350Y146650D01*
X342000Y155300D01*
G54D34*X291000Y157500D02*Y170500D01*
X315000Y93000D02*X321000Y99000D01*
X312500Y96000D02*X318500Y102000D01*
X367500Y165000D02*Y150500D01*
X178000Y58000D02*Y108500D01*
X183000Y116500D02*Y61000D01*
X199000Y64000D02*Y100500D01*
X190500Y65500D02*Y107500D01*
X199500Y116500D01*
X187000Y113500D02*X195000Y121500D01*
X178000Y108500D02*X171500Y115000D01*
X174500Y125000D02*X183000Y116500D01*
X171500Y115000D02*X166000D01*
X239000Y115500D02*Y105331D01*
X199500Y116500D02*X227500D01*
X231500Y104331D02*X231000Y103831D01*
X227500Y116500D02*X231500Y112500D01*
G54D31*X223378Y104831D02*Y99378D01*
X219000Y95000D01*
Y86500D01*
G54D34*X231500Y112500D02*Y104331D01*
X231882Y83000D02*Y93382D01*
X235000Y96500D01*
X239000Y105331D02*X239500Y104831D01*
X235000Y96500D02*X251000D01*
X263378Y87378D02*X272000Y96000D01*
X312500D01*
X267500Y99000D02*X310000D01*
X266000Y102500D02*X308500D01*
X264500Y105500D02*X306000D01*
X263000Y108500D02*X303500D01*
X308500Y102500D02*X314000Y108000D01*
X306000Y105500D02*X311500Y111000D01*
X303500Y108500D02*X309000Y114000D01*
G54D31*X260000Y116500D02*X283000D01*
G54D34*X255504Y87004D02*X267500Y99000D01*
X252500Y89000D02*X266000Y102500D01*
X251500Y92500D02*X264500Y105500D01*
X251000Y96500D02*X263000Y108500D01*
X165000Y125000D02*X174500D01*
X195000Y121500D02*X227000D01*
G54D31*X232500Y142500D02*X273000D01*
G54D34*X242315Y131500D02*Y126815D01*
X238500Y123000D01*
X234000D01*
X227000Y121500D02*X232500Y127000D01*
Y131500D01*
G54D31*X252157D02*Y124343D01*
X260000Y116500D01*
G54D34*X234000Y123000D02*X227500Y116500D01*
G54D31*X278000Y146500D02*X212000D01*
G54D34*X540000Y117000D02*X509000Y148000D01*
X541500Y120500D02*X563000D01*
X591500Y149000D01*
X594000Y145500D02*X565500Y117000D01*
X540000D01*
X591500Y149000D02*X740500D01*
X739000Y145500D02*X594000D01*
G54D31*X690000Y120500D02*X691500D01*
G54D34*X598500Y142000D02*X737500D01*
G54D31*X680000Y120500D02*X689500D01*
X680000D02*X681000Y121500D01*
X693500D01*
X692000Y120500D02*X690000D01*
X663000Y121500D02*X663500Y121000D01*
X665500Y121500D02*X654500D01*
X658000Y121000D02*X657500Y121500D01*
X655500D01*
X661500Y118000D02*X658000D01*
X659500Y121500D01*
X661000Y120000D02*X660500Y119500D01*
X664000Y120500D02*X661500Y118000D01*
X659500Y121500D02*X663000D01*
X663500Y121000D02*Y120000D01*
X661000D01*
X680000Y120500D02*Y118000D01*
X690500D01*
X689500Y120500D02*X696000Y114000D01*
X702500Y112500D02*X694500Y120500D01*
X693500Y121500D02*X698500Y116500D01*
X690500Y118000D02*X699500Y109000D01*
X697500Y115000D02*X692000Y120500D01*
X691500D02*X701000Y111000D01*
X696000Y114000D02*Y96500D01*
X698500Y94000D01*
X702500Y98000D01*
Y112500D01*
X697500Y94000D02*Y115000D01*
X701000Y111000D02*Y101000D01*
X645500Y106000D02*X657500Y118000D01*
X662000D01*
X654500Y121500D02*X643500Y110500D01*
X647500D02*X658000Y121000D01*
X655500Y121500D02*X645500Y111500D01*
X643500Y110500D02*Y96500D01*
X645500Y94500D01*
X647500Y96500D01*
Y110500D01*
X713000Y93000D02*X704500D01*
G54D34*X570000Y113500D02*X598500Y142000D01*
X538500Y113500D02*X570000D01*
X538500D02*X509000Y143000D01*
Y153000D02*X541500Y120500D01*
X491000Y158000D02*X737000D01*
X738000Y163000D02*X491500D01*
X492000Y168000D02*X739000D01*
X740000Y173000D02*X492000D01*
X493000Y178000D02*X741500D01*
X455600D02*X465000D01*
X653000Y138000D02*X733000D01*
X655000Y129500D02*X729500D01*
G54D31*X715607Y90393D02*X713000Y93000D01*
G54D34*X730000Y134500D02*X655000D01*
G54D31*X699500Y109000D02*Y92000D01*
X697500Y94000D01*
G54D34*X785000Y79500D02*X730000Y134500D01*
X733000Y138000D02*X795000Y76000D01*
X729500Y129500D02*X775000Y84000D01*
X797000Y87500D02*X739000Y145500D01*
X737500Y142000D02*X794500Y85000D01*
X740500Y149000D02*X799500Y90000D01*
X802000Y93000D02*X737000Y158000D01*
X805000Y96000D02*X738000Y163000D01*
X739000Y168000D02*X808500Y98500D01*
X811500Y101500D02*X740000Y173000D01*
X807000Y166500D02*X806850Y166650D01*
Y171500D01*
X803701Y166799D02*X804000Y166500D01*
X810000D02*Y171500D01*
G54D31*X789500Y154500D02*X804989D01*
G54D34*X803701Y171500D02*Y166799D01*
X741500Y178000D02*X815000Y104500D01*
G54D31*X778500Y165500D02*X789500Y154500D01*
G54D34*X804000Y166500D02*X812500D01*
X813150Y167150D01*
Y171500D01*
X804989Y154489D02*Y132011D01*
X805000Y166500D02*X804989Y154500D01*
G54D31*X823500D02*X816011D01*
X820000Y164000D02*X827500D01*
G54D34*X794500Y136500D02*X817500Y113500D01*
X804989Y132011D02*X820000Y117000D01*
X827500Y140500D02*Y134000D01*
Y140500D02*Y150000D01*
G54D31*Y175600D02*Y158500D01*
X823500Y154500D01*
G54D34*X814000Y182500D02*X831500D01*
X813150Y178193D02*Y181650D01*
X814000Y182500D01*
X810000Y178193D02*Y183000D01*
X812000Y185000D01*
X836000D01*
X837500Y183500D02*Y179000D01*
X806850Y178193D02*Y184350D01*
X810500Y188000D01*
X803701Y178193D02*Y186201D01*
X808500Y191000D01*
X837500Y176700D02*Y168000D01*
X831500Y182500D02*X832500Y181500D01*
Y177000D01*
X836000Y185000D02*X837500Y183500D01*
X810500Y188000D02*X838500D01*
X842500Y184000D01*
Y179000D01*
X808500Y191000D02*X840500D01*
X827500Y150000D02*X834000Y156500D01*
X838700Y153700D02*X832500Y147500D01*
X833500Y129193D02*Y132500D01*
X832500Y133500D01*
X827500Y134000D02*X830351Y131149D01*
Y128193D01*
Y121500D02*Y117149D01*
X832500Y147500D02*Y137400D01*
Y133500D02*Y137500D01*
X830351Y117149D02*X830500Y117000D01*
X839800D01*
Y117200D01*
X817500Y113500D02*X843000D01*
X820000Y117000D02*X830351D01*
X833500D02*Y121500D01*
X836500Y117000D02*X836650Y117150D01*
Y121500D01*
X839800Y117200D02*Y121500D01*
X837500Y147500D02*Y137400D01*
Y139400D02*Y133500D01*
X836650Y132650D01*
Y128193D01*
X839800D02*Y131300D01*
X832500Y167000D02*X840000Y159500D01*
X843000Y113500D02*X851000Y121500D01*
Y130500D01*
X840500Y150500D02*X837500Y147500D01*
X842500Y140000D02*Y146000D01*
X844000Y147500D01*
X839800Y131300D02*X842500Y134000D01*
Y140000D01*
X851000Y130500D02*X852500Y132000D01*
Y139400D02*Y132000D01*
Y184000D02*Y175600D01*
X832500Y176700D02*Y167000D01*
X837500Y168000D02*X843000Y162500D01*
X840500Y191000D02*X847500Y184000D01*
Y179000D01*
X842500Y176700D02*Y169000D01*
X847500Y176700D02*Y169500D01*
X846000Y165500D02*X842500Y169000D01*
X847500Y169500D02*X848500Y168500D01*
X840000Y159500D02*X878000D01*
X843000Y162500D02*X874000D01*
X871000Y165500D02*X846000D01*
X848500Y168500D02*X868000D01*
X834000Y156500D02*X883000D01*
X872000Y153700D02*X838700D01*
X883000Y156500D02*X884000Y157500D01*
X869000Y150500D02*X840500D01*
X844000Y147500D02*X866000D01*
X878000Y159500D02*X881000Y162500D01*
X874000D02*X879000Y167500D01*
X889000Y152500D02*X874000D01*
X872000Y153700D01*
X884000Y147500D02*X877500D01*
X872000D01*
X881000Y162500D02*X892000D01*
X884000Y157500D02*X892000D01*
X889000Y147500D02*X884000D01*
X872000D02*X869000Y150500D01*
X871000Y165500D02*X878000Y172500D01*
X881500D01*
X866000Y147500D02*X871000Y142500D01*
X862500D02*Y133000D01*
X865500Y130000D01*
X869500D01*
X857500Y142500D02*Y130000D01*
X871000Y142500D02*X892000D01*
G54D32*X906500Y137500D02*X892000D01*
X895000D02*X890000D01*
G54D34*X906500Y177500D02*Y137500D01*
X868000Y168500D02*X877000Y177500D01*
X862500Y187000D02*Y175600D01*
X857500D02*Y187000D01*
X889000Y167500D02*X885500D01*
X881400Y172500D02*X892000D01*
X877000Y177500D02*X892000D01*
X879000Y167500D02*X886000D01*
X897000Y187000D02*X906500Y177500D01*
X897000Y187000D02*X855500D01*
X852500Y184000D01*
X925500Y96000D02*X805000D01*
X808500Y98500D02*X934000D01*
X939500Y101500D02*X811500D01*
X815000Y104500D02*X947500D01*
X561500Y36000D02*X655000Y129500D01*
G54D31*X645500Y90000D02*Y111500D01*
G54D34*X655000Y134500D02*X559000Y39000D01*
X557000Y42000D02*X653000Y138000D01*
X987500Y172500D02*X928000D01*
Y167500D02*X986000D01*
X981000Y162500D02*X928000D01*
Y157500D02*X976000D01*
X970500Y152500D02*X928000D01*
Y147500D02*X966500D01*
X976000Y157500D02*X1020000Y113500D01*
X966500Y147500D02*X1000000Y114000D01*
X948500Y73000D02*X925500Y96000D01*
X934000Y98500D02*X958500Y74000D01*
X968500Y72500D02*X939500Y101500D01*
X960000Y142500D02*X928000D01*
X990000Y112500D02*X960000Y142500D01*
G54D32*X988750Y72750D02*X942000Y119500D01*
G54D34*X947500Y104500D02*X978500Y73500D01*
G54D35*X935436Y137564D02*X1001000Y72000D01*
G54D34*X928000Y177500D02*X990000D01*
G54D35*X928000Y137500D02*X935269Y137563D01*
G54D32*X942000Y119500D02*X924500D01*
X906000Y138000D01*
G54D34*X986000Y167500D02*X1040000Y113500D01*
X1030000D02*X981000Y162500D01*
X1010000Y113000D02*X970500Y152500D01*
X990000Y177500D02*X1060000Y107500D01*
X1050000Y110000D02*X987500Y172500D01*
X1020000Y113500D02*Y98000D01*
X1010000D02*Y113000D01*
X1000000Y114000D02*Y98000D01*
X990000D02*Y112500D01*
X1060000Y107500D02*Y98000D01*
X1050000D02*Y110000D01*
X1040000Y113500D02*Y98000D01*
X1030000D02*Y113500D01*
G54D31*X165000Y165000D02*X155000D01*
X165000Y155000D02*X155000D01*
X165000Y145000D02*X155000D01*
X165000Y105000D02*X155000D01*
X165000Y135000D02*X155000D01*
X165000Y125000D02*X155000D01*
X165000Y115000D02*X155000D01*
X165000Y95000D02*X155000D01*
G54D34*X187000Y113500D02*Y63500D01*
G54D31*X165000Y85000D02*X155000D01*
X165000Y75000D02*X155000D01*
X165000Y65000D02*X155000D01*
X165000Y45000D02*X155000D01*
X165000Y55000D02*X155000D01*
G54D33*X1009000Y200900D02*Y194500D01*
Y200900D02*X1012962D01*
X1009000Y197852D02*X1011437D01*
X1009000Y194500D02*X1012962D01*
X1014882Y200900D02*Y194500D01*
Y200900D02*X1017318Y194500D01*
X1019758Y200900D02*X1017318Y194500D01*
X1019758Y200900D02*Y194500D01*
X1025944Y199985D02*X1025334Y200594D01*
X1024421Y200900D01*
X1023202D02*X1024421D01*
X1023202D02*X1022286Y200594D01*
X1021678Y199985D01*
Y199377D01*
X1021981Y198766D01*
X1022286Y198462D01*
X1022898Y198158D01*
X1024726Y197548D01*
X1025334Y197242D01*
X1025638Y196938D01*
X1025944Y196329D01*
Y195414D01*
X1025334Y194806D01*
X1024421Y194500D01*
X1023202D02*X1024421D01*
X1023202D02*X1022286Y194806D01*
X1021678Y195414D01*
X1034400Y199986D02*X1034096Y200596D01*
X1033181Y200900D01*
X1032573D02*X1033181D01*
X1032573D02*X1031656Y200596D01*
X1031048Y199682D01*
X1030744Y198159D01*
Y196634D01*
X1031048Y195415D01*
X1031656Y194806D01*
X1032573Y194500D01*
X1032877D01*
X1033790Y194806D01*
X1034400Y195415D01*
X1034704Y196330D01*
Y196634D02*Y196330D01*
Y196634D02*X1034400Y197548D01*
X1033790Y198159D01*
X1032877Y198462D01*
X1032573D02*X1032877D01*
X1032573D02*X1031656Y198159D01*
X1031048Y197548D01*
X1030744Y196634D01*
X1038453Y200900D02*X1037539Y200596D01*
X1036928Y199682D01*
X1036624Y198159D01*
Y197244D01*
X1036928Y195719D01*
X1037539Y194806D01*
X1038453Y194500D01*
X1039062D01*
X1039976Y194806D01*
X1040586Y195719D01*
X1040891Y197244D01*
Y198159D02*Y197244D01*
Y198159D02*X1040586Y199682D01*
X1039976Y200596D01*
X1039062Y200900D01*
X1038453D02*X1039062D01*
X1042811Y197700D02*X1046811D01*
X1050560Y200900D02*X1049646Y200596D01*
X1049035Y199682D01*
X1048731Y198159D01*
Y197244D01*
X1049035Y195719D01*
X1049646Y194806D01*
X1050560Y194500D01*
X1051170D01*
X1052083Y194806D01*
X1052693Y195719D01*
X1052998Y197244D01*
Y198159D02*Y197244D01*
Y198159D02*X1052693Y199682D01*
X1052083Y200596D01*
X1051170Y200900D01*
X1050560D02*X1051170D01*
X1056747D02*X1055834Y200596D01*
X1055222Y199682D01*
X1054918Y198159D01*
Y197244D01*
X1055222Y195719D01*
X1055834Y194806D01*
X1056747Y194500D01*
X1057357D01*
X1058270Y194806D01*
X1058880Y195719D01*
X1059186Y197244D01*
Y198159D02*Y197244D01*
Y198159D02*X1058880Y199682D01*
X1058270Y200596D01*
X1057357Y200900D01*
X1056747D02*X1057357D01*
X1064152D02*X1061106Y196634D01*
X1065675D01*
X1064152Y200900D02*Y194500D01*
X1068203Y200900D02*X1071555D01*
X1069726Y198462D01*
X1070642D01*
X1071250Y198159D01*
X1071555Y197854D01*
X1071861Y196938D01*
Y196330D01*
X1071555Y195415D01*
X1070947Y194806D01*
X1070032Y194500D01*
X1069118D02*X1070032D01*
X1069118D02*X1068203Y194806D01*
X1067899Y195111D01*
X1067595Y195719D01*
X1077382Y200900D02*X1073781Y194500D01*
X1079302Y200900D02*Y194500D01*
Y200900D02*X1083264D01*
X1079302Y197852D02*X1081739D01*
X1079302Y194500D02*X1083264D01*
G54D40*X391472Y15020D02*Y3100D01*
X387500Y15020D02*X395445D01*
X402424D02*X401291Y14451D01*
X400153Y13315D01*
X399587Y12183D01*
X399021Y10478D01*
Y7642D01*
X399587Y5934D01*
Y5937D02*X400153Y4802D01*
X401291Y3669D01*
X402424Y3100D01*
X404698D01*
X405830Y3669D01*
X406965Y4802D01*
X407535Y5937D01*
X408098Y7642D01*
Y10478D02*Y7642D01*
Y10478D02*X407535Y12183D01*
X406965Y13315D01*
X405830Y14451D01*
X404698Y15020D01*
X402424D02*X404698D01*
X411674D02*Y3100D01*
Y15020D02*X416782D01*
X418483Y14451D01*
X419052Y13885D01*
X419618Y12749D01*
Y11045D01*
X419052Y9912D01*
X418483Y9343D01*
X416782Y8777D01*
X411674D02*X416782D01*
X437072Y12183D02*X436503Y13315D01*
X435368Y14451D01*
X434235Y15020D01*
X431962D02*X434235D01*
X431962D02*X430829Y14451D01*
X429691Y13315D01*
X429125Y12183D01*
X428558Y10478D01*
Y7639D01*
X429125Y5937D01*
X429691Y4802D01*
X430829Y3669D01*
X431962Y3100D01*
X434235D01*
X435368Y3669D01*
X436503Y4802D01*
X437072Y5937D01*
X444052Y15020D02*X442919Y14451D01*
X441781Y13315D01*
X441215Y12183D01*
X440648Y10478D01*
Y7642D01*
X441215Y5934D01*
Y5937D02*X441781Y4802D01*
X442919Y3669D01*
X444052Y3100D01*
X446325D01*
X447458Y3669D01*
X448593Y4802D01*
X449162Y5937D01*
X449725Y7642D01*
Y10478D02*Y7642D01*
Y10478D02*X449162Y12183D01*
X448593Y13315D01*
X447458Y14451D01*
X446325Y15020D01*
X444052D02*X446325D01*
X453301D02*Y3100D01*
Y15020D02*X458409D01*
X460111Y14451D01*
X460680Y13885D01*
X461246Y12749D01*
Y11045D01*
X460680Y9912D01*
X460111Y9343D01*
X458409Y8777D01*
X453301D02*X458409D01*
X464822Y15020D02*Y3100D01*
Y15020D02*X469930D01*
X471631Y14451D01*
X472201Y13885D01*
X472767Y12749D01*
Y11045D01*
X472201Y9912D01*
X471631Y9343D01*
X469930Y8777D01*
X464822D02*X469930D01*
X476343Y15020D02*Y3100D01*
Y15020D02*X483721D01*
X476343Y9343D02*X480881D01*
X476343Y3100D02*X483721D01*
X487297Y15020D02*Y3100D01*
Y15020D02*X492405D01*
X494107Y14451D01*
X494676Y13885D01*
X495242Y12749D01*
Y11614D01*
X494676Y10478D01*
X494107Y9912D01*
X492405Y9343D01*
X487297D02*X492405D01*
X491270D02*X495242Y3100D01*
G54D41*X85000Y115000D03*
Y125000D03*
Y135000D03*
G54D42*X95000Y125000D03*
Y135000D03*
G54D43*G36*
X121638Y118542D02*X115340D01*
Y111458D01*
X121638D01*
Y118542D01*
G37*
G36*
X132660D02*X126362D01*
Y111458D01*
X132660D01*
Y118542D01*
G37*
G36*
X118488Y127968D02*Y124032D01*
X122820D01*
Y127968D01*
X118488D01*
G37*
G36*
X125180D02*Y124032D01*
X129512D01*
Y127968D01*
X125180D01*
G37*
G54D44*X131500Y138500D03*
G54D41*X85000Y85000D03*
Y95000D03*
Y105000D03*
G54D42*X95000Y85000D03*
G54D43*G36*
X102953Y87811D02*Y82299D01*
X111221D01*
Y87811D01*
X102953D01*
G37*
G54D42*X95000Y95000D03*
Y105000D03*
Y115000D03*
G54D41*X85000Y65000D03*
Y75000D03*
G54D45*X65000Y31500D03*
G54D43*G36*
X81500Y48500D02*X88500D01*
Y41500D01*
X81500D01*
Y48500D01*
G37*
G54D41*X85000Y55000D03*
G54D42*X95000Y45000D03*
G54D35*X57500Y54500D03*
G54D42*X95000Y55000D03*
Y65000D03*
Y75000D03*
G54D43*G36*
X102953Y69701D02*Y64189D01*
X111221D01*
Y69701D01*
X102953D01*
G37*
G54D41*X165000Y135000D03*
Y125000D03*
Y115000D03*
Y105000D03*
Y95000D03*
Y85000D03*
G54D42*X155000Y135000D03*
Y125000D03*
Y115000D03*
Y105000D03*
Y95000D03*
Y85000D03*
G54D46*X232472Y131500D03*
X222630D03*
G54D47*X231252Y104331D03*
X223378D03*
G54D46*X252157Y131500D03*
X242315D03*
G54D47*X239126Y104331D03*
X215504D03*
X231882Y83000D03*
G54D43*G36*
X243819Y107512D02*X250181D01*
Y101150D01*
X243819D01*
Y107512D01*
G37*
G54D47*X247630Y83000D03*
X239756D03*
X263378D03*
X255504D03*
X279126D03*
X271252D03*
G54D41*X283000Y116500D03*
G54D43*G36*
X258606Y134894D02*X265394D01*
Y128106D01*
X258606D01*
Y134894D01*
G37*
G54D41*X165000Y75000D03*
G54D42*X155000D03*
G54D43*G36*
X138779Y87811D02*Y82299D01*
X147047D01*
Y87811D01*
X138779D01*
G37*
G54D35*X142500Y97000D03*
G54D41*X165000Y65000D03*
G54D42*X155000D03*
G54D43*G36*
X138779Y69701D02*Y64189D01*
X147047D01*
Y69701D01*
X138779D01*
G37*
G54D46*X218102Y62000D03*
X247630D03*
X237787D03*
X227945D03*
X277157D03*
X267315D03*
X257472D03*
G54D41*X165000Y55000D03*
G54D42*X155000D03*
G54D41*X165000Y45000D03*
G54D42*X155000D03*
G54D43*G36*
X178000Y38500D02*X185000D01*
Y31500D01*
X178000D01*
Y38500D01*
G37*
G36*
X216819Y41452D02*X211701D01*
Y35548D01*
X216819D01*
Y41452D01*
G37*
G36*
X195500Y38500D02*X202500D01*
Y31500D01*
X195500D01*
Y38500D01*
G37*
G36*
X239319Y41452D02*X234201D01*
Y35548D01*
X239319D01*
Y41452D01*
G37*
G36*
X246799D02*X241681D01*
Y35548D01*
X246799D01*
Y41452D01*
G37*
G36*
X224299D02*X219181D01*
Y35548D01*
X224299D01*
Y41452D01*
G37*
G54D35*X262500Y37000D03*
G54D36*X219000Y86500D03*
G54D44*X199000Y100500D03*
X239000Y115500D03*
G54D43*G36*
X283606Y65393D02*X290394D01*
Y58607D01*
X283606D01*
Y65393D01*
G37*
G36*
X283819Y86181D02*X290181D01*
Y79819D01*
X283819D01*
Y86181D01*
G37*
G54D44*X501500Y39000D03*
G54D45*X469000D03*
G54D41*X491000Y79500D03*
G54D43*G36*
X611000Y55000D02*X619000D01*
Y47000D01*
X611000D01*
Y55000D01*
G37*
G36*
X591000D02*X599000D01*
Y47000D01*
X591000D01*
Y55000D01*
G37*
G36*
X672150Y51450D02*Y48550D01*
X680750D01*
Y51450D01*
X672150D01*
G37*
G54D48*X645500Y65000D03*
G54D43*G36*
X667500Y124000D02*X660500D01*
Y115500D01*
X667500D01*
Y124000D01*
G37*
G36*
X683500D02*X676500D01*
Y115500D01*
X683500D01*
Y124000D01*
G37*
G54D35*X514500Y126000D03*
G54D49*X645500Y90000D03*
G54D50*X627500Y77500D03*
G54D43*G36*
X487059Y41952D02*X481941D01*
Y36048D01*
X487059D01*
Y41952D01*
G37*
G36*
X494539D02*X489421D01*
Y36048D01*
X494539D01*
Y41952D01*
G37*
G36*
X840686Y123272D02*X838914D01*
Y119728D01*
X840686D01*
Y123272D01*
G37*
G36*
Y129965D02*X838914D01*
Y126421D01*
X840686D01*
Y129965D01*
G37*
G36*
X837536Y123272D02*X835764D01*
Y119728D01*
X837536D01*
Y123272D01*
G37*
G36*
Y129965D02*X835764D01*
Y126421D01*
X837536D01*
Y129965D01*
G37*
G36*
X834386Y123272D02*X832614D01*
Y119728D01*
X834386D01*
Y123272D01*
G37*
G36*
Y129965D02*X832614D01*
Y126421D01*
X834386D01*
Y129965D01*
G37*
G54D44*X857500Y130000D03*
G54D43*G36*
X831237Y123272D02*X829465D01*
Y119728D01*
X831237D01*
Y123272D01*
G37*
G36*
Y129965D02*X829465D01*
Y126421D01*
X831237D01*
Y129965D01*
G37*
G36*
X686750Y51450D02*Y48550D01*
X695250D01*
Y51450D01*
X686750D01*
G37*
G54D35*X682500Y74500D03*
G54D41*X755473Y67606D03*
G54D43*G36*
X712458Y75138D02*Y68840D01*
X719542D01*
Y75138D01*
X712458D01*
G37*
G36*
Y86160D02*Y79862D01*
X719542D01*
Y86160D01*
X712458D01*
G37*
G54D35*X737500Y109500D03*
G54D43*G36*
X742130Y71500D02*X749130D01*
Y64500D01*
X742130D01*
Y71500D01*
G37*
G54D41*X765315Y68000D03*
X775158Y67606D03*
X785000Y68000D03*
X794843Y67606D03*
X804685Y68000D03*
X814528Y67606D03*
X824370Y68000D03*
X834213Y67606D03*
G54D43*G36*
X381910Y41050D02*Y37150D01*
X387810D01*
Y41050D01*
X381910D01*
G37*
G36*
X366810D02*Y37150D01*
X372710D01*
Y41050D01*
X366810D01*
G37*
G54D46*X375555Y62000D03*
G54D43*G36*
X396319Y88681D02*X402681D01*
Y82319D01*
X396319D01*
Y88681D01*
G37*
G54D47*X391626Y85500D03*
X383752D03*
G54D43*G36*
X391810Y41050D02*Y37150D01*
X397710D01*
Y41050D01*
X391810D01*
G37*
G36*
X401690Y65393D02*X408476D01*
Y58607D01*
X401690D01*
Y65393D01*
G37*
G54D46*X395240Y62000D03*
X385398D03*
G54D47*X375878Y85500D03*
G54D46*X365713Y62000D03*
G54D47*X368004Y85500D03*
X360130D03*
X352256D03*
G54D46*X355870Y62000D03*
X346028D03*
G54D47*X344382Y85500D03*
X336508D03*
X328634D03*
G54D46*X336185Y62000D03*
X326343D03*
X316500D03*
G54D43*G36*
X451319Y41952D02*X446201D01*
Y36048D01*
X451319D01*
Y41952D01*
G37*
G36*
X458799D02*X453681D01*
Y36048D01*
X458799D01*
Y41952D01*
G37*
G36*
X316810Y41050D02*Y37150D01*
X322710D01*
Y41050D01*
X316810D01*
G37*
G36*
X306910D02*Y37150D01*
X312810D01*
Y41050D01*
X306910D01*
G37*
G36*
X331910D02*Y37150D01*
X337810D01*
Y41050D01*
X331910D01*
G37*
G54D35*X510000Y34500D03*
G54D44*X352500Y34000D03*
G54D43*G36*
X341810Y41050D02*Y37150D01*
X347710D01*
Y41050D01*
X341810D01*
G37*
G36*
X356910D02*Y37150D01*
X362810D01*
Y41050D01*
X356910D01*
G37*
G54D51*X342000Y129700D03*
G54D35*X392000Y124500D03*
G54D41*X448000Y138000D03*
G54D44*X425500Y124500D03*
X430500Y129500D03*
G54D43*G36*
X461000Y139000D02*Y137000D01*
X469000D01*
Y139000D01*
X461000D01*
G37*
G36*
X497000D02*Y137000D01*
X505000D01*
Y139000D01*
X497000D01*
G37*
G36*
X413288Y123079D02*X411516D01*
Y119535D01*
X413288D01*
Y123079D01*
G37*
G36*
Y129772D02*X411516D01*
Y126228D01*
X413288D01*
Y129772D01*
G37*
G36*
X410138Y123079D02*X408366D01*
Y119535D01*
X410138D01*
Y123079D01*
G37*
G36*
X406988D02*X405216D01*
Y119535D01*
X406988D01*
Y123079D01*
G37*
G36*
X403839D02*X402067D01*
Y119535D01*
X403839D01*
Y123079D01*
G37*
G36*
X410138Y129772D02*X408366D01*
Y126228D01*
X410138D01*
Y129772D01*
G37*
G36*
X406988D02*X405216D01*
Y126228D01*
X406988D01*
Y129772D01*
G37*
G36*
X403839D02*X402067D01*
Y126228D01*
X403839D01*
Y129772D01*
G37*
G54D44*X869500Y130000D03*
X794500Y136500D03*
G54D43*G36*
X888000Y138500D02*Y136500D01*
X896000D01*
Y138500D01*
X888000D01*
G37*
G36*
X905500Y71000D02*X912500D01*
Y64000D01*
X905500D01*
Y71000D01*
G37*
G36*
X924000Y138500D02*Y136500D01*
X932000D01*
Y138500D01*
X924000D01*
G37*
G36*
X987130Y102000D02*X994130D01*
Y95000D01*
X987130D01*
Y102000D01*
G37*
G54D41*X918843Y67106D03*
X928685Y67500D03*
X938528Y67106D03*
X948370Y67500D03*
X958213Y67106D03*
X968055Y67500D03*
X977898Y67106D03*
G54D46*X1065158Y40500D03*
G54D43*G36*
X1037819Y44181D02*X1044181D01*
Y37819D01*
X1037819D01*
Y44181D01*
G37*
G54D47*X1033126Y41000D03*
X1025252D03*
G54D41*X1000473Y98106D03*
X1010315Y98500D03*
X1020158Y98106D03*
X1030000Y98500D03*
X1039843Y98106D03*
X1049685Y98500D03*
X1059528Y98106D03*
X1069370Y98500D03*
G54D46*X1075000Y40500D03*
G54D41*X1079213Y98106D03*
G54D35*X880000Y134500D03*
G54D43*G36*
X1081450Y43894D02*X1088236D01*
Y37106D01*
X1081450D01*
Y43894D01*
G37*
G54D35*X1002500Y37000D03*
G54D52*X699500Y92000D03*
G54D53*X778500Y165500D03*
G54D43*G36*
X843700Y143700D02*X841300D01*
Y135100D01*
X843700D01*
Y143700D01*
G37*
G36*
X808138Y158042D02*X801840D01*
Y150958D01*
X808138D01*
Y158042D01*
G37*
G36*
X819160D02*X812862D01*
Y150958D01*
X819160D01*
Y158042D01*
G37*
G36*
X828700Y143700D02*X826300D01*
Y135100D01*
X828700D01*
Y143700D01*
G37*
G36*
X833700D02*X831300D01*
Y135100D01*
X833700D01*
Y143700D01*
G37*
G36*
X838700D02*X836300D01*
Y135100D01*
X838700D01*
Y143700D01*
G37*
G36*
X848700D02*X846300D01*
Y135100D01*
X848700D01*
Y143700D01*
G37*
G36*
X853700D02*X851300D01*
Y135100D01*
X853700D01*
Y143700D01*
G37*
G36*
X858700D02*X856300D01*
Y135100D01*
X858700D01*
Y143700D01*
G37*
G36*
X888000Y143500D02*Y141500D01*
X896000D01*
Y143500D01*
X888000D01*
G37*
G36*
X863700Y143700D02*X861300D01*
Y135100D01*
X863700D01*
Y143700D01*
G37*
G36*
X888000Y163500D02*Y161500D01*
X896000D01*
Y163500D01*
X888000D01*
G37*
G36*
Y158500D02*Y156500D01*
X896000D01*
Y158500D01*
X888000D01*
G37*
G36*
Y153500D02*Y151500D01*
X896000D01*
Y153500D01*
X888000D01*
G37*
G36*
Y148500D02*Y146500D01*
X896000D01*
Y148500D01*
X888000D01*
G37*
G54D45*X815000Y36000D03*
G54D53*X906500Y139000D03*
X820000Y164000D03*
G54D43*G36*
X888000Y168500D02*Y166500D01*
X896000D01*
Y168500D01*
X888000D01*
G37*
G54D41*X1012500Y69000D03*
G54D35*X1090000Y187000D03*
G54D43*G36*
X863700Y179900D02*X861300D01*
Y171300D01*
X863700D01*
Y179900D01*
G37*
G36*
X858700D02*X856300D01*
Y171300D01*
X858700D01*
Y179900D01*
G37*
G36*
X853700D02*X851300D01*
Y171300D01*
X853700D01*
Y179900D01*
G37*
G36*
X848700D02*X846300D01*
Y171300D01*
X848700D01*
Y179900D01*
G37*
G36*
X843700D02*X841300D01*
Y171300D01*
X843700D01*
Y179900D01*
G37*
G36*
X888000Y178500D02*Y176500D01*
X896000D01*
Y178500D01*
X888000D01*
G37*
G36*
X924000D02*Y176500D01*
X932000D01*
Y178500D01*
X924000D01*
G37*
G36*
X838700Y179900D02*X836300D01*
Y171300D01*
X838700D01*
Y179900D01*
G37*
G36*
X833700D02*X831300D01*
Y171300D01*
X833700D01*
Y179900D01*
G37*
G36*
X814036Y173772D02*X812264D01*
Y170228D01*
X814036D01*
Y173772D01*
G37*
G36*
Y180465D02*X812264D01*
Y176921D01*
X814036D01*
Y180465D01*
G37*
G36*
X810886Y173772D02*X809114D01*
Y170228D01*
X810886D01*
Y173772D01*
G37*
G36*
Y180465D02*X809114D01*
Y176921D01*
X810886D01*
Y180465D01*
G37*
G36*
X807736Y173772D02*X805964D01*
Y170228D01*
X807736D01*
Y173772D01*
G37*
G36*
Y180465D02*X805964D01*
Y176921D01*
X807736D01*
Y180465D01*
G37*
G36*
X828700Y179900D02*X826300D01*
Y171300D01*
X828700D01*
Y179900D01*
G37*
G36*
X804587Y173772D02*X802815D01*
Y170228D01*
X804587D01*
Y173772D01*
G37*
G36*
Y180465D02*X802815D01*
Y176921D01*
X804587D01*
Y180465D01*
G37*
G54D35*X870000Y181000D03*
G54D43*G36*
X888000Y173500D02*Y171500D01*
X896000D01*
Y173500D01*
X888000D01*
G37*
G36*
X924000Y168500D02*Y166500D01*
X932000D01*
Y168500D01*
X924000D01*
G37*
G36*
Y173500D02*Y171500D01*
X932000D01*
Y173500D01*
X924000D01*
G37*
G36*
Y143500D02*Y141500D01*
X932000D01*
Y143500D01*
X924000D01*
G37*
G36*
Y148500D02*Y146500D01*
X932000D01*
Y148500D01*
X924000D01*
G37*
G36*
Y153500D02*Y151500D01*
X932000D01*
Y153500D01*
X924000D01*
G37*
G36*
Y158500D02*Y156500D01*
X932000D01*
Y158500D01*
X924000D01*
G37*
G36*
Y163500D02*Y161500D01*
X932000D01*
Y163500D01*
X924000D01*
G37*
G54D36*X377000Y199500D03*
G54D43*G36*
X389186Y179079D02*X387414D01*
Y175535D01*
X389186D01*
Y179079D01*
G37*
G36*
X386036D02*X384264D01*
Y175535D01*
X386036D01*
Y179079D01*
G37*
G36*
X382887D02*X381115D01*
Y175535D01*
X382887D01*
Y179079D01*
G37*
G54D44*X381500Y142500D03*
X376500Y149000D03*
G54D43*G36*
X382887Y172386D02*X381115D01*
Y168842D01*
X382887D01*
Y172386D01*
G37*
G36*
X392336D02*X390564D01*
Y168842D01*
X392336D01*
Y172386D01*
G37*
G36*
Y179079D02*X390564D01*
Y175535D01*
X392336D01*
Y179079D01*
G37*
G36*
X389186Y172386D02*X387414D01*
Y168842D01*
X389186D01*
Y172386D01*
G37*
G36*
X386036D02*X384264D01*
Y168842D01*
X386036D01*
Y172386D01*
G37*
G36*
X391160Y163042D02*X384862D01*
Y155958D01*
X391160D01*
Y163042D01*
G37*
G36*
X380138D02*X373840D01*
Y155958D01*
X380138D01*
Y163042D01*
G37*
G36*
X436700Y178400D02*X434300D01*
Y169800D01*
X436700D01*
Y178400D01*
G37*
G36*
X431700D02*X429300D01*
Y169800D01*
X431700D01*
Y178400D01*
G37*
G36*
X426700D02*X424300D01*
Y169800D01*
X426700D01*
Y178400D01*
G37*
G36*
X421700D02*X419300D01*
Y169800D01*
X421700D01*
Y178400D01*
G37*
G36*
X416700D02*X414300D01*
Y169800D01*
X416700D01*
Y178400D01*
G37*
G54D35*X447000Y186500D03*
G54D43*G36*
X461000Y149000D02*Y147000D01*
X469000D01*
Y149000D01*
X461000D01*
G37*
G36*
Y144000D02*Y142000D01*
X469000D01*
Y144000D01*
X461000D01*
G37*
G36*
X411700Y178400D02*X409300D01*
Y169800D01*
X411700D01*
Y178400D01*
G37*
G36*
X406700D02*X404300D01*
Y169800D01*
X406700D01*
Y178400D01*
G37*
G36*
X401700D02*X399300D01*
Y169800D01*
X401700D01*
Y178400D01*
G37*
G36*
Y142200D02*X399300D01*
Y133600D01*
X401700D01*
Y142200D01*
G37*
G36*
X406700D02*X404300D01*
Y133600D01*
X406700D01*
Y142200D01*
G37*
G36*
X411700D02*X409300D01*
Y133600D01*
X411700D01*
Y142200D01*
G37*
G36*
X431700D02*X429300D01*
Y133600D01*
X431700D01*
Y142200D01*
G37*
G36*
X416700D02*X414300D01*
Y133600D01*
X416700D01*
Y142200D01*
G37*
G36*
X421700D02*X419300D01*
Y133600D01*
X421700D01*
Y142200D01*
G37*
G36*
X426700D02*X424300D01*
Y133600D01*
X426700D01*
Y142200D01*
G37*
G36*
X436700D02*X434300D01*
Y133600D01*
X436700D01*
Y142200D01*
G37*
G36*
X461000Y164000D02*Y162000D01*
X469000D01*
Y164000D01*
X461000D01*
G37*
G36*
Y159000D02*Y157000D01*
X469000D01*
Y159000D01*
X461000D01*
G37*
G36*
Y154000D02*Y152000D01*
X469000D01*
Y154000D01*
X461000D01*
G37*
G54D51*X342000Y155300D03*
G54D43*G36*
X461000Y179000D02*Y177000D01*
X469000D01*
Y179000D01*
X461000D01*
G37*
G36*
Y174000D02*Y172000D01*
X469000D01*
Y174000D01*
X461000D01*
G37*
G36*
Y169000D02*Y167000D01*
X469000D01*
Y169000D01*
X461000D01*
G37*
G54D44*X442000Y174000D03*
Y145500D03*
X433000Y186000D03*
G54D43*G36*
X497000Y144000D02*Y142000D01*
X505000D01*
Y144000D01*
X497000D01*
G37*
G36*
Y149000D02*Y147000D01*
X505000D01*
Y149000D01*
X497000D01*
G37*
G36*
Y154000D02*Y152000D01*
X505000D01*
Y154000D01*
X497000D01*
G37*
G36*
Y159000D02*Y157000D01*
X505000D01*
Y159000D01*
X497000D01*
G37*
G36*
Y164000D02*Y162000D01*
X505000D01*
Y164000D01*
X497000D01*
G37*
G36*
Y169000D02*Y167000D01*
X505000D01*
Y169000D01*
X497000D01*
G37*
G54D41*X514000Y196000D03*
G54D43*G36*
X497000Y174000D02*Y172000D01*
X505000D01*
Y174000D01*
X497000D01*
G37*
G36*
Y179000D02*Y177000D01*
X505000D01*
Y179000D01*
X497000D01*
G37*
G36*
X297000Y197500D02*X304000D01*
Y190500D01*
X297000D01*
Y197500D01*
G37*
G36*
Y185000D02*X304000D01*
Y178000D01*
X297000D01*
Y185000D01*
G37*
G54D41*X290657Y194787D03*
Y182287D03*
X280815Y194000D03*
Y181500D03*
X270972Y194787D03*
Y182287D03*
G54D35*X255000Y190500D03*
G54D41*X85000Y165000D03*
Y175000D03*
Y145000D03*
Y155000D03*
G54D42*X95000Y145000D03*
Y155000D03*
Y165000D03*
Y175000D03*
G54D43*G36*
X37819Y172952D02*X32701D01*
Y167048D01*
X37819D01*
Y172952D01*
G37*
G36*
X45299D02*X40181D01*
Y167048D01*
X45299D01*
Y172952D01*
G37*
G54D44*X291000Y157500D03*
G54D36*X389000Y149000D03*
G54D41*X165000Y175000D03*
G54D42*X155000D03*
G54D41*X165000Y165000D03*
G54D43*G36*
X123264Y167638D02*X120256D01*
Y164490D01*
X123264D01*
Y167638D01*
G37*
G36*
X130744D02*X127736D01*
Y164490D01*
X130744D01*
Y167638D01*
G37*
G36*
X127004Y175510D02*X123996D01*
Y172362D01*
X127004D01*
Y175510D01*
G37*
G54D42*X155000Y165000D03*
G54D35*X142500Y169500D03*
G54D41*X165000Y155000D03*
G54D42*X155000D03*
G54D43*G36*
X107048Y157299D02*Y152181D01*
X112952D01*
Y157299D01*
X107048D01*
G37*
G36*
X118548D02*Y152181D01*
X124452D01*
Y157299D01*
X118548D01*
G37*
G54D41*X165000Y145000D03*
G54D42*X155000D03*
G54D43*G36*
X107048Y149819D02*Y144701D01*
X112952D01*
Y149819D01*
X107048D01*
G37*
G36*
X118548D02*Y144701D01*
X124452D01*
Y149819D01*
X118548D01*
G37*
G54D36*X27000Y192000D03*
G54D35*X16000Y181000D03*
G54D43*G36*
X22000Y92672D02*X29000D01*
Y85672D01*
X22000D01*
Y92672D01*
G37*
G36*
X37819Y183952D02*X32701D01*
Y178048D01*
X37819D01*
Y183952D01*
G37*
G36*
X43606Y43394D02*X50394D01*
Y36606D01*
X43606D01*
Y43394D01*
G37*
G54D46*X37157Y40000D03*
X27315D03*
G54D41*X35343Y88778D03*
X45185Y89172D03*
G54D43*G36*
X41693Y118181D02*X48055D01*
Y111819D01*
X41693D01*
Y118181D01*
G37*
G36*
X45299Y183952D02*X40181D01*
Y178048D01*
X45299D01*
Y183952D01*
G37*
G54D47*X37000Y115000D03*
X29126D03*
G54D54*G54D39*G54D54*G54D39*G54D54*G54D55*G54D56*G54D55*G54D56*G54D57*G54D55*G54D54*G54D55*G54D54*G54D58*G54D57*G54D39*G54D55*G54D56*G54D59*G54D39*G54D57*G54D54*G54D60*G54D61*G54D60*G54D39*G54D55*G54D56*G54D55*G54D56*G54D55*G54D56*G54D55*G54D56*G54D55*G54D58*G54D39*G54D62*G54D55*G54D39*G54D63*G54D55*G54D56*G54D55*G54D59*G54D60*G54D57*G54D39*G54D57*G54D55*G54D59*G54D63*G54D57*G54D39*G54D62*G54D39*G54D55*G54D59*G54D55*G54D59*G54D54*G54D39*G54D57*G54D54*G54D57*G54D55*G54D59*G54D55*G54D56*M02*
