G04 start of page 7 for group -4063 idx -4063 *
G04 Title: AYAB-RS_F, componentmask *
G04 Creator: pcb 20140316 *
G04 CreationDate: Tue 09 Feb 2021 04:56:18 AM GMT UTC *
G04 For: tom *
G04 Format: Gerber/RS-274X *
G04 PCB-Dimensions (mil): 11000.00 1900.00 *
G04 PCB-Coordinate-Origin: lower left *
%MOIN*%
%FSLAX25Y25*%
%LNTOPMASK*%
%ADD135R,0.0450X0.0450*%
%ADD134R,0.0632X0.0632*%
%ADD133R,0.0494X0.0494*%
%ADD132R,0.0730X0.0730*%
%ADD131R,0.0612X0.0612*%
%ADD130R,0.0654X0.0654*%
%ADD129R,0.0634X0.0634*%
%ADD128R,0.0401X0.0401*%
%ADD127C,0.0410*%
%ADD126C,0.0400*%
%ADD125C,0.0010*%
%ADD124C,0.0020*%
%ADD123C,0.0280*%
%ADD122C,0.0080*%
%ADD121C,0.0040*%
%ADD120R,0.0790X0.0790*%
%ADD119R,0.0217X0.0217*%
%ADD118R,0.0300X0.0300*%
%ADD117R,0.1290X0.1290*%
%ADD116R,0.0750X0.0750*%
%ADD115R,0.0800X0.0800*%
%ADD114C,0.0970*%
%ADD113C,0.1540*%
%ADD112C,0.1260*%
%ADD111C,0.1760*%
%ADD110C,0.2260*%
%ADD109C,0.2110*%
%ADD108C,0.0759*%
%ADD107C,0.0669*%
%ADD106C,0.0739*%
%ADD105C,0.0920*%
%ADD104C,0.0800*%
%ADD103C,0.0001*%
%ADD102C,0.0760*%
G54D102*X165000Y118000D03*
Y108000D03*
Y98000D03*
Y88000D03*
Y78000D03*
Y68000D03*
Y58000D03*
Y48000D03*
Y38000D03*
Y28000D03*
G54D103*G36*
X195200Y21800D02*Y14200D01*
X202800D01*
Y21800D01*
X195200D01*
G37*
G36*
X177700D02*Y14200D01*
X185300D01*
Y21800D01*
X177700D01*
G37*
G54D104*X155000Y108000D03*
Y98000D03*
Y88000D03*
Y78000D03*
Y68000D03*
Y58000D03*
Y48000D03*
Y38000D03*
Y28000D03*
G54D103*G36*
X296700Y180800D02*Y173200D01*
X304300D01*
Y180800D01*
X296700D01*
G37*
G36*
Y168300D02*Y160700D01*
X304300D01*
Y168300D01*
X296700D01*
G37*
G54D102*X290657Y177787D03*
Y165287D03*
X280815Y177000D03*
Y164500D03*
X270972Y177787D03*
Y165287D03*
G54D105*X342000Y138300D03*
G54D103*G36*
X258306Y118194D02*Y110806D01*
X265694D01*
Y118194D01*
X258306D01*
G37*
G54D106*X252157Y114500D03*
X242315D03*
X232472D03*
X222630D03*
G54D105*X342000Y112700D03*
G54D103*G36*
X283306Y48694D02*Y41306D01*
X290694D01*
Y48694D01*
X283306D01*
G37*
G54D106*X277157Y45000D03*
X267315D03*
X257472D03*
X247630D03*
X237787D03*
X227945D03*
X218102D03*
G54D103*G36*
X283654Y69346D02*Y62654D01*
X290346D01*
Y69346D01*
X283654D01*
G37*
G54D107*X279126Y66000D03*
X271252D03*
X336508Y68500D03*
X328634D03*
X263378Y66000D03*
X255504D03*
X247630D03*
X239756D03*
X231882D03*
G54D103*G36*
X243654Y90678D02*Y83985D01*
X250346D01*
Y90678D01*
X243654D01*
G37*
G54D107*X239126Y87331D03*
X231252D03*
X223378D03*
X215504D03*
G54D102*X85000Y108000D03*
Y118000D03*
Y128000D03*
Y138000D03*
Y148000D03*
Y158000D03*
Y58000D03*
Y68000D03*
Y78000D03*
Y88000D03*
G54D103*G36*
X81200Y31800D02*Y24200D01*
X88800D01*
Y31800D01*
X81200D01*
G37*
G54D102*X85000Y38000D03*
G54D104*X95000Y28000D03*
Y38000D03*
G54D102*X85000Y48000D03*
G54D104*X95000D03*
Y58000D03*
Y68000D03*
G54D103*G36*
X21700Y75972D02*Y68372D01*
X29300D01*
Y75972D01*
X21700D01*
G37*
G54D102*X35343Y71778D03*
X45185Y72172D03*
G54D103*G36*
X43206Y26794D02*Y19206D01*
X50794D01*
Y26794D01*
X43206D01*
G37*
G36*
X41528Y101346D02*Y94654D01*
X48221D01*
Y101346D01*
X41528D01*
G37*
G54D107*X37000Y98000D03*
X29126D03*
G54D108*X37157Y23000D03*
X27315D03*
G54D102*X165000Y158000D03*
Y148000D03*
Y138000D03*
G54D104*X155000Y158000D03*
Y148000D03*
Y138000D03*
G54D102*X165000Y128000D03*
G54D104*X155000D03*
Y118000D03*
G54D102*X85000Y98000D03*
G54D104*X95000Y78000D03*
Y88000D03*
Y98000D03*
Y108000D03*
Y118000D03*
Y128000D03*
Y138000D03*
Y148000D03*
Y158000D03*
G54D109*X645500Y73000D03*
G54D110*Y48000D03*
G54D111*X627500Y60500D03*
G54D103*G36*
X396154Y71846D02*Y65154D01*
X402846D01*
Y71846D01*
X396154D01*
G37*
G54D107*X391626Y68500D03*
X383752D03*
X375878D03*
X368004D03*
X360130D03*
X352256D03*
X344382D03*
G54D103*G36*
X401390Y48694D02*Y41306D01*
X408777D01*
Y48694D01*
X401390D01*
G37*
G36*
X610700Y38300D02*Y29700D01*
X619300D01*
Y38300D01*
X610700D01*
G37*
G36*
X590700D02*Y29700D01*
X599300D01*
Y38300D01*
X590700D01*
G37*
G54D106*X395240Y45000D03*
X385398D03*
X375555D03*
X365713D03*
X355870D03*
X346028D03*
X336185D03*
X326343D03*
X316500D03*
G54D103*G36*
X1081149Y27194D02*Y19806D01*
X1088536D01*
Y27194D01*
X1081149D01*
G37*
G54D106*X1075000Y23500D03*
X1065158D03*
G54D103*G36*
X1037654Y27346D02*Y20654D01*
X1044346D01*
Y27346D01*
X1037654D01*
G37*
G54D107*X1033126Y24000D03*
X1025252D03*
G54D103*G36*
X741830Y54800D02*Y47200D01*
X749430D01*
Y54800D01*
X741830D01*
G37*
G54D102*X755473Y50606D03*
X765315Y51000D03*
X775158Y50606D03*
X785000Y51000D03*
X794843Y50606D03*
X804685Y51000D03*
X814528Y50606D03*
X824370Y51000D03*
X834213Y50606D03*
G54D103*G36*
X986830Y85300D02*Y77700D01*
X994430D01*
Y85300D01*
X986830D01*
G37*
G54D102*X1000473Y81106D03*
X1010315Y81500D03*
X1020158Y81106D03*
X1030000Y81500D03*
X1039843Y81106D03*
X1049685Y81500D03*
X1059528Y81106D03*
X1069370Y81500D03*
X1079213Y81106D03*
G54D103*G36*
X905200Y54300D02*Y46700D01*
X912800D01*
Y54300D01*
X905200D01*
G37*
G54D102*X918843Y50106D03*
X928685Y50500D03*
X938528Y50106D03*
X948370Y50500D03*
X958213Y50106D03*
X968055Y50500D03*
X977898Y50106D03*
G54D112*X875000Y50000D03*
G54D113*X1062500Y122500D03*
Y48500D03*
G54D112*Y155000D03*
G54D113*X37500Y122500D03*
Y48500D03*
G54D114*X283000Y19500D03*
G54D113*X550000Y122500D03*
Y48500D03*
G54D114*X423000Y19500D03*
G54D115*X664000Y103500D02*Y102000D01*
X680000Y103500D02*Y102000D01*
G54D116*X715607Y54989D02*X716393D01*
X715607Y66011D02*X716393D01*
G54D117*X698200Y39300D02*Y28100D01*
X675200Y39300D02*Y28100D01*
G54D118*X889000Y160500D02*X895000D01*
X889000Y155500D02*X895000D01*
X889000Y150500D02*X895000D01*
X889000Y145500D02*X895000D01*
X925000D02*X931000D01*
X925000Y150500D02*X931000D01*
X925000Y155500D02*X931000D01*
X925000Y160500D02*X931000D01*
X889000Y140500D02*X895000D01*
X925000D02*X931000D01*
X889000Y135500D02*X895000D01*
X925000D02*X931000D01*
X889000Y130500D02*X895000D01*
X889000Y125500D02*X895000D01*
X889000Y120500D02*X895000D01*
X925000D02*X931000D01*
X925000Y125500D02*X931000D01*
X925000Y130500D02*X931000D01*
X862500Y161700D02*Y155500D01*
X857500Y161700D02*Y155500D01*
X852500Y161700D02*Y155500D01*
X847500Y161700D02*Y155500D01*
X842500Y161700D02*Y155500D01*
X837500Y161700D02*Y155500D01*
X832500Y161700D02*Y155500D01*
X827500Y161700D02*Y155500D01*
G54D119*X813150Y155886D02*Y154114D01*
Y162579D02*Y160807D01*
X810000Y162579D02*Y160807D01*
X806850Y162579D02*Y160807D01*
X803701Y162579D02*Y160807D01*
X810000Y155886D02*Y154114D01*
X806850Y155886D02*Y154114D01*
X803701Y155886D02*Y154114D01*
G54D118*X827500Y125500D02*Y119300D01*
G54D120*X804989Y137893D02*Y137107D01*
X816011Y137893D02*Y137107D01*
G54D118*X832500Y125500D02*Y119300D01*
X837500Y125500D02*Y119300D01*
X842500Y125500D02*Y119300D01*
X847500Y125500D02*Y119300D01*
X852500Y125500D02*Y119300D01*
X857500Y125500D02*Y119300D01*
X862500Y125500D02*Y119300D01*
G54D119*X839800Y105386D02*Y103614D01*
Y112079D02*Y110307D01*
X836650Y105386D02*Y103614D01*
Y112079D02*Y110307D01*
X833500Y105386D02*Y103614D01*
Y112079D02*Y110307D01*
X830351Y105386D02*Y103614D01*
Y112079D02*Y110307D01*
G54D121*X857235Y18405D02*X858624Y20430D01*
X858515Y20635D02*X858624Y20430D01*
G54D122*X857805Y18275D02*X859155Y20395D01*
X857805Y18275D02*X859665Y19615D01*
G54D123*X858325Y24465D02*X859925Y20865D01*
G54D121*X857235Y18405D02*X857905Y17735D01*
X859925Y19115D01*
X860465Y18785D01*
X861545Y21375D01*
G54D122*X860135Y19330D02*X861015Y21340D01*
G54D121*X857855Y21895D02*X858515Y20635D01*
X861135Y21705D02*X861545Y21375D01*
X860535Y22515D02*X861135Y21705D01*
X860145Y23455D02*X860535Y22515D01*
X860010Y24480D02*X860145Y23455D01*
X860010Y24480D02*X860085Y25265D01*
X860325Y26015D01*
X860705Y26735D01*
X861505Y30515D02*X863045Y30995D01*
X860075Y29775D02*X861505Y30515D01*
X857915Y31256D02*X860075Y29775D01*
G54D122*X857825Y30745D02*X859885Y29395D01*
G54D121*X857245Y30595D02*X857915Y31256D01*
X857245Y30595D02*X858685Y28405D01*
G54D122*X857825Y30745D02*X859325Y28415D01*
G54D121*X857415Y25435D02*X857905Y26965D01*
X857365Y23575D02*X857685Y22465D01*
X857855Y21895D01*
X854905Y24975D02*X857415Y25435D01*
X854905Y24025D02*X857365Y23575D01*
G54D122*X855225Y24545D02*X857435Y23845D01*
X855225Y24565D02*X857525Y24965D01*
G54D121*X854905Y24975D02*Y24025D01*
X857918Y27005D02*X858685Y28405D01*
X857918Y27005D02*X857925Y27025D01*
X857905Y26965D02*X857925Y27025D01*
G54D123*X858325Y24465D02*X860125Y28365D01*
G54D121*X860705Y26735D02*X861105Y27215D01*
X861725Y27755D01*
X862445Y28155D01*
X863225Y28395D01*
X864005Y28475D01*
X864785Y28395D01*
G54D123*X860125Y28365D02*X863925Y30165D01*
G54D121*X864785Y28395D02*X865525Y28175D01*
X866235Y27795D01*
X866745Y27355D01*
X867305Y26725D01*
X867655Y26085D01*
X867905Y25305D01*
X867995Y24515D01*
X869295Y28445D02*X870085Y27015D01*
X867855Y23465D02*X867995Y24515D01*
X867475Y22525D02*X867855Y23465D01*
X866865Y21705D02*X867475Y22525D01*
X866465Y21345D02*X866865Y21705D01*
G54D123*X868125Y28365D02*X869725Y24465D01*
X868125Y20665D02*X869725Y24465D01*
G54D121*X866465Y21345D02*X867531Y18789D01*
G54D122*X866915Y21300D02*X867725Y19450D01*
G54D121*X867531Y18789D02*X868085Y19116D01*
X870085Y17735D01*
X870765Y18405D01*
X869395Y20426D02*X870765Y18405D01*
X869395Y20426D02*X870155Y21925D01*
G54D122*X867945Y19750D02*X870135Y18345D01*
X868795Y20570D02*X870135Y18345D01*
G54D121*X870155Y21925D02*X870645Y23565D01*
X873085Y24025D01*
X873094Y24975D01*
G54D122*X870415Y24070D02*X872675Y24490D01*
X870284Y25037D02*X872675Y24490D01*
G54D121*X870595Y25435D02*X873094Y24975D01*
X870085Y27015D02*X870595Y25435D01*
X869295Y28445D02*X870765Y30585D01*
X870085Y31255D02*X870765Y30585D01*
X867925Y29778D02*X870085Y31255D01*
X866515Y30515D02*X867925Y29778D01*
G54D123*X863925Y30165D02*X868125Y28365D01*
G54D121*X864965Y30985D02*X866515Y30515D01*
X864475Y33585D02*X864965Y30985D01*
X863525Y33585D02*X864475D01*
X863045Y30995D02*X863525Y33585D01*
G54D122*X863925Y33305D02*X864485Y30775D01*
X863335Y30835D02*X863925Y33305D01*
X868775Y28525D02*X870095Y30595D01*
X867795Y29325D02*X870095Y30595D01*
G54D124*X991400Y167050D02*X991584Y167277D01*
X991584Y167278D02*X991709Y167501D01*
G54D125*X991440Y167010D02*X991630Y167260D01*
G54D124*X991270Y167130D02*X991302Y167218D01*
X991292Y167193D02*X991410Y167800D01*
X991180Y166900D02*X991450Y167220D01*
G54D125*X991140Y166840D02*X991240Y166790D01*
X991250D02*X991330Y166880D01*
X991440Y167010D01*
G54D124*X991250Y167060D02*X991270Y167130D01*
G54D125*X991150Y167009D02*X991229Y167140D01*
X991020Y166911D02*X991133Y166978D01*
X991059Y166935D02*X991127Y166987D01*
X990871Y166853D02*X991011Y166901D01*
X990960Y166860D02*X991130Y166850D01*
X990860Y166858D02*X990940Y166873D01*
X991101Y166949D01*
X990912Y166848D02*X991020Y166860D01*
X991060Y166854D02*X991210Y166820D01*
X990689Y166866D02*X990806Y166853D01*
X990778Y166851D02*X990925Y166866D01*
X990800Y166820D02*X990960Y166860D01*
G54D124*X993134Y171595D02*X993298Y170524D01*
X993100Y170020D02*X993102Y171152D01*
X992103Y170867D02*Y169910D01*
X991710Y171490D02*X992100Y170870D01*
X992259Y172646D02*X993134Y171595D01*
X992460Y172170D02*X993110Y171140D01*
G54D125*X992271Y172500D02*X993100Y171400D01*
G54D122*X991700Y170900D02*Y169500D01*
X991200Y170900D02*Y169500D01*
X991500Y169100D03*
X991800Y169600D02*X992300Y169200D01*
G54D121*X992800Y169300D02*X992900Y169500D01*
G54D124*X992064Y168150D02*X992639Y168900D01*
G54D122*X991600Y168300D02*X992400Y169300D01*
G54D124*X992639Y168900D02*X993043Y169425D01*
X993043Y169426D02*X993298Y170524D01*
X993070Y169900D02*X993110Y170080D01*
X993020Y169830D02*X993070Y169920D01*
X992870Y169670D02*X993030Y169830D01*
X992600Y169605D02*X992690Y169610D01*
X992720Y169600D02*X992880Y169690D01*
X992610Y169590D02*X992789Y169639D01*
X992440Y169620D02*X992650Y169600D01*
X992170Y169830D02*X992330Y169670D01*
X992260Y169710D02*X992476Y169617D01*
X992140Y169890D02*X992230Y169770D01*
X992080Y170100D02*X992170Y169830D01*
X992230Y169760D02*X992410Y169630D01*
X991200Y173441D02*X992278Y172634D01*
X990700Y172400D02*X991710Y171490D01*
X991360Y173144D02*X991855Y172695D01*
X990940Y173190D02*X991200Y173220D01*
X991090Y173207D02*X991330Y173190D01*
G54D125*X991600Y173100D02*X992271Y172500D01*
G54D124*X991850Y172700D02*X992470Y172150D01*
X989999Y173695D02*X991202Y173439D01*
X990770Y173090D02*X990940Y173190D01*
X991180Y173210D02*X991360Y173144D01*
G54D121*X990700Y173400D02*X991200Y173300D01*
G54D124*X990620Y172550D02*X990730Y172340D01*
X990595Y172749D02*X990662Y172982D01*
X990643Y172930D02*X990770Y173090D01*
X990603Y172748D02*Y172628D01*
G54D122*X990300Y172200D02*X991400Y171200D01*
G54D121*X990300Y172800D02*X990500Y172600D01*
G54D124*X990510Y168140D02*X990680Y168260D01*
X990620Y168230D02*X990730Y168278D01*
X990960Y168320D02*X991170Y168240D01*
X990930Y168310D02*X991090Y168280D01*
X991105Y168265D02*X991250Y168190D01*
G54D122*X990900Y168900D02*X991600Y168300D01*
G54D124*X990390Y167860D02*X990480Y168110D01*
X990446Y168015D02*X990494Y168096D01*
X990820Y168310D02*X991020Y168300D01*
X990769Y168289D02*X990890Y168310D01*
X991709Y167500D02*X992053Y168121D01*
X991170Y168240D02*X991310Y168110D01*
X991280Y168150D02*X991420Y167910D01*
X991340Y168080D02*X991430Y167810D01*
X991390Y168000D02*X991410Y167740D01*
G54D121*X991500Y167400D02*X991700Y168000D01*
G54D124*X988807Y173439D02*X989999Y173695D01*
X987671Y172652D02*X988807Y173439D01*
X990600Y172670D02*X990627Y172537D01*
X990590Y172730D02*X990610Y172830D01*
G54D122*X989400Y173200D02*X990400D01*
G54D124*X986814Y170506D02*X987070Y169315D01*
X986814Y170505D02*X987073Y171712D01*
G54D126*X988800Y170500D02*X989250Y169600D01*
G54D124*X990400Y167980D02*X990570Y168190D01*
X990640Y168250D02*X990870Y168320D01*
G54D122*X990100Y168500D02*X991000Y168900D01*
G54D124*X987073Y171712D02*X987680Y172666D01*
G54D127*X989100Y171100D03*
G54D122*X988400Y172500D02*X989400Y172200D01*
X988400Y172600D02*X989400Y173300D01*
G54D124*X987071Y169314D02*X987778Y168318D01*
X987782Y168320D02*X988083Y167839D01*
X988413Y167296D02*X988608Y167062D01*
X988100Y167810D02*X988413Y167296D01*
X988410Y167300D02*X988750Y166890D01*
G54D122*X988200Y168500D02*X989000Y167200D01*
G54D124*X990290Y167290D02*X990430Y167990D01*
X990290Y167400D02*X990320Y167110D01*
X990300Y167240D02*X990350Y167080D01*
G54D122*X989800Y167200D02*X990100Y168500D01*
G54D121*X989400Y167600D02*X990400Y166800D01*
X990000D02*X990400D01*
G54D124*X990310Y167140D02*X990470Y166910D01*
X990443Y166901D02*X990680Y166820D01*
X990489Y166708D02*X990703Y166816D01*
X990340Y167020D02*X990600Y166840D01*
X990332Y167138D02*X990380Y167020D01*
X989036Y166905D02*X989260Y166780D01*
X988980Y166909D02*X989112Y166862D01*
X989120Y166870D02*X989254Y166765D01*
X988930Y166910D02*X989030Y166890D01*
X988740Y166880D02*X988930Y166950D01*
X988776Y166893D02*X988950Y166920D01*
X988850Y166905D02*X988990Y166910D01*
G54D122*X989000Y167200D02*X989800D01*
G54D124*X989551Y166707D02*X990481Y166706D01*
X989252Y166766D02*X989551Y166707D01*
G54D125*X990744Y166783D02*X990870Y166840D01*
G54D128*X121760Y149134D02*Y148993D01*
X129240Y149134D02*Y148993D01*
X125500Y157007D02*Y156866D01*
G54D129*X141535Y49945D02*X144291D01*
G54D130*X141535Y68055D02*X144291D01*
G54D131*X109607Y130260D02*X110393D01*
X109607Y137740D02*X110393D01*
X121107D02*X121893D01*
X121107Y130260D02*X121893D01*
G54D132*X129511Y98393D02*Y97607D01*
X118489Y98393D02*Y97607D01*
G54D133*X120457Y109000D02*X120851D01*
X127149D02*X127543D01*
G54D129*X105709Y49945D02*X108465D01*
X105709Y68055D02*X108465D01*
G54D134*X35260Y164393D02*Y163607D01*
X42740Y164393D02*Y163607D01*
X35260Y153393D02*Y152607D01*
X42740Y153393D02*Y152607D01*
X448760Y22393D02*Y21607D01*
X456240Y22393D02*Y21607D01*
X484500Y22393D02*Y21607D01*
X491980Y22393D02*Y21607D01*
G54D135*X393760Y22100D02*X395760D01*
X383860D02*X385860D01*
X368760D02*X370760D01*
X358860D02*X360860D01*
X318760D02*X320760D01*
X308860D02*X310860D01*
X343760D02*X345760D01*
X333860D02*X335860D01*
G54D131*X236760Y21893D02*Y21107D01*
X244240Y21893D02*Y21107D01*
X214260Y21893D02*Y21107D01*
X221740Y21893D02*Y21107D01*
G54D118*X462000Y161000D02*X468000D01*
X462000Y156000D02*X468000D01*
X462000Y151000D02*X468000D01*
X462000Y146000D02*X468000D01*
X462000Y141000D02*X468000D01*
X462000Y136000D02*X468000D01*
X462000Y131000D02*X468000D01*
X462000Y126000D02*X468000D01*
X462000Y121000D02*X468000D01*
X435500Y160200D02*Y154000D01*
X430500Y160200D02*Y154000D01*
X425500Y160200D02*Y154000D01*
X420500Y160200D02*Y154000D01*
X415500Y160200D02*Y154000D01*
X498000Y121000D02*X504000D01*
X498000Y126000D02*X504000D01*
X498000Y131000D02*X504000D01*
X498000Y136000D02*X504000D01*
X498000Y141000D02*X504000D01*
X498000Y146000D02*X504000D01*
X498000Y151000D02*X504000D01*
X498000Y156000D02*X504000D01*
X498000Y161000D02*X504000D01*
G54D119*X412402Y105193D02*Y103421D01*
X409252Y105193D02*Y103421D01*
X406102Y105193D02*Y103421D01*
X402953Y105193D02*Y103421D01*
X412402Y111886D02*Y110114D01*
X409252Y111886D02*Y110114D01*
X406102Y111886D02*Y110114D01*
X402953Y111886D02*Y110114D01*
G54D118*X400500Y124000D02*Y117800D01*
X405500Y124000D02*Y117800D01*
X410500Y124000D02*Y117800D01*
X415500Y124000D02*Y117800D01*
X420500Y124000D02*Y117800D01*
X425500Y124000D02*Y117800D01*
X430500Y124000D02*Y117800D01*
X435500Y124000D02*Y117800D01*
G54D119*X391450Y154500D02*Y152728D01*
Y161193D02*Y159421D01*
X388300Y154500D02*Y152728D01*
Y161193D02*Y159421D01*
X385150Y154500D02*Y152728D01*
G54D120*X388011Y142893D02*Y142107D01*
G54D119*X385150Y161193D02*Y159421D01*
X382001Y161193D02*Y159421D01*
Y154500D02*Y152728D01*
G54D120*X376989Y142893D02*Y142107D01*
G54D118*X410500Y160200D02*Y154000D01*
X405500Y160200D02*Y154000D01*
X400500Y160200D02*Y154000D01*
M02*
