%TF.GenerationSoftware,KiCad,Pcbnew,(6.0.10-0)*%
%TF.CreationDate,2024-07-14T14:57:32-07:00*%
%TF.ProjectId,arduino_shield,61726475-696e-46f5-9f73-6869656c642e,rev?*%
%TF.SameCoordinates,Original*%
%TF.FileFunction,Legend,Top*%
%TF.FilePolarity,Positive*%
%FSLAX46Y46*%
G04 Gerber Fmt 4.6, Leading zero omitted, Abs format (unit mm)*
G04 Created by KiCad (PCBNEW (6.0.10-0)) date 2024-07-14 14:57:32*
%MOMM*%
%LPD*%
G01*
G04 APERTURE LIST*
%ADD10C,0.254000*%
%ADD11C,0.266700*%
%ADD12C,0.142240*%
%ADD13C,0.381000*%
%ADD14C,0.101600*%
%ADD15C,0.114300*%
%ADD16C,0.081280*%
%ADD17C,0.091440*%
%ADD18C,0.160020*%
%ADD19C,0.130861*%
%ADD20C,0.152400*%
%ADD21C,0.203200*%
%ADD22C,0.609600*%
%ADD23C,0.127000*%
G04 APERTURE END LIST*
D10*
X164007800Y-123456700D02*
X164007800Y-121272300D01*
X164007800Y-117373400D02*
X164007800Y-120332500D01*
X164140390Y-120332500D02*
G75*
G03*
X164140390Y-120332500I-132590J0D01*
G01*
X163258506Y-119722905D02*
G75*
G03*
X164795200Y-119773700I749694J-589695D01*
G01*
X164933156Y-124396500D02*
G75*
G03*
X164933156Y-124396500I-925356J0D01*
G01*
X164933156Y-116433600D02*
G75*
G03*
X164933156Y-116433600I-925356J0D01*
G01*
D11*
X172381333Y-102091278D02*
X172381333Y-102954878D01*
X172381333Y-102523078D02*
X170870033Y-102523078D01*
X171085933Y-102667011D01*
X171229866Y-102810945D01*
X171301833Y-102954878D01*
D12*
X155642056Y-123889346D02*
X154863122Y-123889346D01*
X154785229Y-124668280D01*
X154863122Y-124590386D01*
X155018909Y-124512493D01*
X155408376Y-124512493D01*
X155564162Y-124590386D01*
X155642056Y-124668280D01*
X155719949Y-124824066D01*
X155719949Y-125213533D01*
X155642056Y-125369320D01*
X155564162Y-125447213D01*
X155408376Y-125525106D01*
X155018909Y-125525106D01*
X154863122Y-125447213D01*
X154785229Y-125369320D01*
X156187309Y-123889346D02*
X156732562Y-125525106D01*
X157277816Y-123889346D01*
D11*
X146964611Y-112737900D02*
X147252478Y-113745433D01*
X147540345Y-113025766D01*
X147828211Y-113745433D01*
X148116078Y-112737900D01*
X148547878Y-112737900D02*
X148835745Y-113745433D01*
X149123611Y-113025766D01*
X149411478Y-113745433D01*
X149699345Y-112737900D01*
X150131145Y-112737900D02*
X150419011Y-113745433D01*
X150706878Y-113025766D01*
X150994745Y-113745433D01*
X151282611Y-112737900D01*
X151858345Y-113601500D02*
X151930311Y-113673466D01*
X151858345Y-113745433D01*
X151786378Y-113673466D01*
X151858345Y-113601500D01*
X151858345Y-113745433D01*
X153225711Y-113745433D02*
X153225711Y-112953800D01*
X153153745Y-112809866D01*
X153009811Y-112737900D01*
X152721945Y-112737900D01*
X152578011Y-112809866D01*
X153225711Y-113673466D02*
X153081778Y-113745433D01*
X152721945Y-113745433D01*
X152578011Y-113673466D01*
X152506045Y-113529533D01*
X152506045Y-113385600D01*
X152578011Y-113241666D01*
X152721945Y-113169700D01*
X153081778Y-113169700D01*
X153225711Y-113097733D01*
X153801445Y-112737900D02*
X154161278Y-113745433D01*
X154521111Y-112737900D02*
X154161278Y-113745433D01*
X154017345Y-114105266D01*
X153945378Y-114177233D01*
X153801445Y-114249200D01*
X155744545Y-113745433D02*
X155744545Y-112953800D01*
X155672578Y-112809866D01*
X155528645Y-112737900D01*
X155240778Y-112737900D01*
X155096845Y-112809866D01*
X155744545Y-113673466D02*
X155600611Y-113745433D01*
X155240778Y-113745433D01*
X155096845Y-113673466D01*
X155024878Y-113529533D01*
X155024878Y-113385600D01*
X155096845Y-113241666D01*
X155240778Y-113169700D01*
X155600611Y-113169700D01*
X155744545Y-113097733D01*
X156464211Y-113745433D02*
X156464211Y-112234133D01*
X156464211Y-112809866D02*
X156608145Y-112737900D01*
X156896011Y-112737900D01*
X157039945Y-112809866D01*
X157111911Y-112881833D01*
X157183878Y-113025766D01*
X157183878Y-113457566D01*
X157111911Y-113601500D01*
X157039945Y-113673466D01*
X156896011Y-113745433D01*
X156608145Y-113745433D01*
X156464211Y-113673466D01*
X157831578Y-113169700D02*
X158983045Y-113169700D01*
X159702711Y-113745433D02*
X159702711Y-112234133D01*
X159846645Y-113169700D02*
X160278445Y-113745433D01*
X160278445Y-112737900D02*
X159702711Y-113313633D01*
X160926145Y-112737900D02*
X160926145Y-113745433D01*
X160926145Y-112881833D02*
X160998111Y-112809866D01*
X161142045Y-112737900D01*
X161357945Y-112737900D01*
X161501878Y-112809866D01*
X161573845Y-112953800D01*
X161573845Y-113745433D01*
X162293511Y-113745433D02*
X162293511Y-112737900D01*
X162293511Y-112234133D02*
X162221545Y-112306100D01*
X162293511Y-112378066D01*
X162365478Y-112306100D01*
X162293511Y-112234133D01*
X162293511Y-112378066D01*
X162797278Y-112737900D02*
X163373011Y-112737900D01*
X163013178Y-112234133D02*
X163013178Y-113529533D01*
X163085145Y-113673466D01*
X163229078Y-113745433D01*
X163373011Y-113745433D01*
X163660878Y-112737900D02*
X164236611Y-112737900D01*
X163876778Y-112234133D02*
X163876778Y-113529533D01*
X163948745Y-113673466D01*
X164092678Y-113745433D01*
X164236611Y-113745433D01*
X164740378Y-113745433D02*
X164740378Y-112737900D01*
X164740378Y-112234133D02*
X164668411Y-112306100D01*
X164740378Y-112378066D01*
X164812345Y-112306100D01*
X164740378Y-112234133D01*
X164740378Y-112378066D01*
X165460045Y-112737900D02*
X165460045Y-113745433D01*
X165460045Y-112881833D02*
X165532011Y-112809866D01*
X165675945Y-112737900D01*
X165891845Y-112737900D01*
X166035778Y-112809866D01*
X166107745Y-112953800D01*
X166107745Y-113745433D01*
X167475111Y-112737900D02*
X167475111Y-113961333D01*
X167403145Y-114105266D01*
X167331178Y-114177233D01*
X167187245Y-114249200D01*
X166971345Y-114249200D01*
X166827411Y-114177233D01*
X167475111Y-113673466D02*
X167331178Y-113745433D01*
X167043311Y-113745433D01*
X166899378Y-113673466D01*
X166827411Y-113601500D01*
X166755445Y-113457566D01*
X166755445Y-113025766D01*
X166827411Y-112881833D01*
X166899378Y-112809866D01*
X167043311Y-112737900D01*
X167331178Y-112737900D01*
X167475111Y-112809866D01*
X168194778Y-113601500D02*
X168266745Y-113673466D01*
X168194778Y-113745433D01*
X168122811Y-113673466D01*
X168194778Y-113601500D01*
X168194778Y-113745433D01*
X169562145Y-113673466D02*
X169418211Y-113745433D01*
X169130345Y-113745433D01*
X168986411Y-113673466D01*
X168914445Y-113601500D01*
X168842478Y-113457566D01*
X168842478Y-113025766D01*
X168914445Y-112881833D01*
X168986411Y-112809866D01*
X169130345Y-112737900D01*
X169418211Y-112737900D01*
X169562145Y-112809866D01*
X170425745Y-113745433D02*
X170281811Y-113673466D01*
X170209845Y-113601500D01*
X170137878Y-113457566D01*
X170137878Y-113025766D01*
X170209845Y-112881833D01*
X170281811Y-112809866D01*
X170425745Y-112737900D01*
X170641645Y-112737900D01*
X170785578Y-112809866D01*
X170857545Y-112881833D01*
X170929511Y-113025766D01*
X170929511Y-113457566D01*
X170857545Y-113601500D01*
X170785578Y-113673466D01*
X170641645Y-113745433D01*
X170425745Y-113745433D01*
X171577211Y-113745433D02*
X171577211Y-112737900D01*
X171577211Y-112881833D02*
X171649178Y-112809866D01*
X171793111Y-112737900D01*
X172009011Y-112737900D01*
X172152945Y-112809866D01*
X172224911Y-112953800D01*
X172224911Y-113745433D01*
X172224911Y-112953800D02*
X172296878Y-112809866D01*
X172440811Y-112737900D01*
X172656711Y-112737900D01*
X172800645Y-112809866D01*
X172872611Y-112953800D01*
X172872611Y-113745433D01*
X172381333Y-98281278D02*
X172381333Y-99144878D01*
X172381333Y-98713078D02*
X170870033Y-98713078D01*
X171085933Y-98857011D01*
X171229866Y-99000945D01*
X171301833Y-99144878D01*
D13*
X119981133Y-102439711D02*
X119981133Y-101411616D01*
X120597990Y-102645330D02*
X118438990Y-101925664D01*
X120597990Y-101205997D01*
X119569895Y-100075092D02*
X120597990Y-100075092D01*
X118438990Y-100794759D02*
X119569895Y-100075092D01*
X118438990Y-99355426D01*
X119981133Y-98738569D02*
X119981133Y-97710473D01*
X120597990Y-98944188D02*
X118438990Y-98224521D01*
X120597990Y-97504854D01*
X119467085Y-96065521D02*
X119569895Y-95757092D01*
X119672704Y-95654283D01*
X119878323Y-95551473D01*
X120186752Y-95551473D01*
X120392371Y-95654283D01*
X120495180Y-95757092D01*
X120597990Y-95962711D01*
X120597990Y-96785188D01*
X118438990Y-96785188D01*
X118438990Y-96065521D01*
X118541800Y-95859902D01*
X118644609Y-95757092D01*
X118850228Y-95654283D01*
X119055847Y-95654283D01*
X119261466Y-95757092D01*
X119364276Y-95859902D01*
X119467085Y-96065521D01*
X119467085Y-96785188D01*
X119775514Y-94626188D02*
X119775514Y-92981235D01*
X120495180Y-92055950D02*
X120597990Y-91747521D01*
X120597990Y-91233473D01*
X120495180Y-91027854D01*
X120392371Y-90925045D01*
X120186752Y-90822235D01*
X119981133Y-90822235D01*
X119775514Y-90925045D01*
X119672704Y-91027854D01*
X119569895Y-91233473D01*
X119467085Y-91644711D01*
X119364276Y-91850330D01*
X119261466Y-91953140D01*
X119055847Y-92055950D01*
X118850228Y-92055950D01*
X118644609Y-91953140D01*
X118541800Y-91850330D01*
X118438990Y-91644711D01*
X118438990Y-91130664D01*
X118541800Y-90822235D01*
X120597990Y-89896950D02*
X118438990Y-89896950D01*
X120597990Y-88971664D02*
X119467085Y-88971664D01*
X119261466Y-89074473D01*
X119158657Y-89280092D01*
X119158657Y-89588521D01*
X119261466Y-89794140D01*
X119364276Y-89896950D01*
X120597990Y-87943569D02*
X119158657Y-87943569D01*
X118438990Y-87943569D02*
X118541800Y-88046378D01*
X118644609Y-87943569D01*
X118541800Y-87840759D01*
X118438990Y-87943569D01*
X118644609Y-87943569D01*
X120495180Y-86092997D02*
X120597990Y-86298616D01*
X120597990Y-86709854D01*
X120495180Y-86915473D01*
X120289561Y-87018283D01*
X119467085Y-87018283D01*
X119261466Y-86915473D01*
X119158657Y-86709854D01*
X119158657Y-86298616D01*
X119261466Y-86092997D01*
X119467085Y-85990188D01*
X119672704Y-85990188D01*
X119878323Y-87018283D01*
X120597990Y-84756473D02*
X120495180Y-84962092D01*
X120289561Y-85064902D01*
X118438990Y-85064902D01*
X120597990Y-83008711D02*
X118438990Y-83008711D01*
X120495180Y-83008711D02*
X120597990Y-83214330D01*
X120597990Y-83625569D01*
X120495180Y-83831188D01*
X120392371Y-83933997D01*
X120186752Y-84036807D01*
X119569895Y-84036807D01*
X119364276Y-83933997D01*
X119261466Y-83831188D01*
X119158657Y-83625569D01*
X119158657Y-83214330D01*
X119261466Y-83008711D01*
D11*
X121657533Y-102781311D02*
X123168833Y-102277545D01*
X121657533Y-101773778D01*
X123168833Y-100478378D02*
X123168833Y-101341978D01*
X123168833Y-100910178D02*
X121657533Y-100910178D01*
X121873433Y-101054111D01*
X122017366Y-101198045D01*
X122089333Y-101341978D01*
X123024900Y-99830678D02*
X123096866Y-99758711D01*
X123168833Y-99830678D01*
X123096866Y-99902645D01*
X123024900Y-99830678D01*
X123168833Y-99830678D01*
X122161300Y-98463311D02*
X123168833Y-98463311D01*
X121585566Y-98823145D02*
X122665066Y-99182978D01*
X122665066Y-98247411D01*
X121657533Y-97887578D02*
X121657533Y-97023978D01*
X123168833Y-97455778D02*
X121657533Y-97455778D01*
X123168833Y-96520211D02*
X121657533Y-96520211D01*
X122377200Y-96520211D02*
X122377200Y-95656611D01*
X123168833Y-95656611D02*
X121657533Y-95656611D01*
X120527233Y-130001221D02*
X120527233Y-130864821D01*
X120527233Y-130433021D02*
X119015933Y-130433021D01*
X119231833Y-130576955D01*
X119375766Y-130720888D01*
X119447733Y-130864821D01*
X162945233Y-125827578D02*
X162945233Y-126691178D01*
X162945233Y-126259378D02*
X161433933Y-126259378D01*
X161649833Y-126403311D01*
X161793766Y-126547245D01*
X161865733Y-126691178D01*
X125708833Y-99868778D02*
X125708833Y-100732378D01*
X125708833Y-100300578D02*
X124197533Y-100300578D01*
X124413433Y-100444511D01*
X124557366Y-100588445D01*
X124629333Y-100732378D01*
X148365633Y-125281478D02*
X148365633Y-126145078D01*
X148365633Y-125713278D02*
X146854333Y-125713278D01*
X147070233Y-125857211D01*
X147214166Y-126001145D01*
X147286133Y-126145078D01*
X165713833Y-95897911D02*
X164202533Y-95897911D01*
X165713833Y-95034311D02*
X164850233Y-95682011D01*
X164202533Y-95034311D02*
X165066133Y-95897911D01*
X165713833Y-94386611D02*
X164202533Y-94386611D01*
X164922200Y-94386611D02*
X164922200Y-93523011D01*
X165713833Y-93523011D02*
X164202533Y-93523011D01*
X165713833Y-91579911D02*
X165713833Y-91292045D01*
X165641866Y-91148111D01*
X165569900Y-91076145D01*
X165354000Y-90932211D01*
X165066133Y-90860245D01*
X164490400Y-90860245D01*
X164346466Y-90932211D01*
X164274500Y-91004178D01*
X164202533Y-91148111D01*
X164202533Y-91435978D01*
X164274500Y-91579911D01*
X164346466Y-91651878D01*
X164490400Y-91723845D01*
X164850233Y-91723845D01*
X164994166Y-91651878D01*
X165066133Y-91579911D01*
X165138100Y-91435978D01*
X165138100Y-91148111D01*
X165066133Y-91004178D01*
X164994166Y-90932211D01*
X164850233Y-90860245D01*
X165713833Y-89420911D02*
X165713833Y-90284511D01*
X165713833Y-89852711D02*
X164202533Y-89852711D01*
X164418433Y-89996645D01*
X164562366Y-90140578D01*
X164634333Y-90284511D01*
X164202533Y-88485345D02*
X164202533Y-88341411D01*
X164274500Y-88197478D01*
X164346466Y-88125511D01*
X164490400Y-88053545D01*
X164778266Y-87981578D01*
X165138100Y-87981578D01*
X165425966Y-88053545D01*
X165569900Y-88125511D01*
X165641866Y-88197478D01*
X165713833Y-88341411D01*
X165713833Y-88485345D01*
X165641866Y-88629278D01*
X165569900Y-88701245D01*
X165425966Y-88773211D01*
X165138100Y-88845178D01*
X164778266Y-88845178D01*
X164490400Y-88773211D01*
X164346466Y-88701245D01*
X164274500Y-88629278D01*
X164202533Y-88485345D01*
X161903833Y-89073778D02*
X161903833Y-89937378D01*
X161903833Y-89505578D02*
X160392533Y-89505578D01*
X160608433Y-89649511D01*
X160752366Y-89793445D01*
X160824333Y-89937378D01*
D12*
X154620129Y-120443413D02*
X154853809Y-120521306D01*
X155243276Y-120521306D01*
X155399062Y-120443413D01*
X155476956Y-120365520D01*
X155554849Y-120209733D01*
X155554849Y-120053946D01*
X155476956Y-119898160D01*
X155399062Y-119820266D01*
X155243276Y-119742373D01*
X154931702Y-119664480D01*
X154775916Y-119586586D01*
X154698022Y-119508693D01*
X154620129Y-119352906D01*
X154620129Y-119197120D01*
X154698022Y-119041333D01*
X154775916Y-118963440D01*
X154931702Y-118885546D01*
X155321169Y-118885546D01*
X155554849Y-118963440D01*
X157190609Y-120365520D02*
X157112716Y-120443413D01*
X156879036Y-120521306D01*
X156723249Y-120521306D01*
X156489569Y-120443413D01*
X156333782Y-120287626D01*
X156255889Y-120131840D01*
X156177996Y-119820266D01*
X156177996Y-119586586D01*
X156255889Y-119275013D01*
X156333782Y-119119226D01*
X156489569Y-118963440D01*
X156723249Y-118885546D01*
X156879036Y-118885546D01*
X157112716Y-118963440D01*
X157190609Y-119041333D01*
X158670582Y-120521306D02*
X157891649Y-120521306D01*
X157891649Y-118885546D01*
D11*
X165713833Y-82723778D02*
X165713833Y-83587378D01*
X165713833Y-83155578D02*
X164202533Y-83155578D01*
X164418433Y-83299511D01*
X164562366Y-83443445D01*
X164634333Y-83587378D01*
D12*
X155453249Y-116423440D02*
X155297462Y-116345546D01*
X155063782Y-116345546D01*
X154830102Y-116423440D01*
X154674316Y-116579226D01*
X154596422Y-116735013D01*
X154518529Y-117046586D01*
X154518529Y-117280266D01*
X154596422Y-117591840D01*
X154674316Y-117747626D01*
X154830102Y-117903413D01*
X155063782Y-117981306D01*
X155219569Y-117981306D01*
X155453249Y-117903413D01*
X155531142Y-117825520D01*
X155531142Y-117280266D01*
X155219569Y-117280266D01*
X156232182Y-117981306D02*
X156232182Y-116345546D01*
X157166902Y-117981306D01*
X157166902Y-116345546D01*
X157945836Y-117981306D02*
X157945836Y-116345546D01*
X158335302Y-116345546D01*
X158568982Y-116423440D01*
X158724769Y-116579226D01*
X158802662Y-116735013D01*
X158880556Y-117046586D01*
X158880556Y-117280266D01*
X158802662Y-117591840D01*
X158724769Y-117747626D01*
X158568982Y-117903413D01*
X158335302Y-117981306D01*
X157945836Y-117981306D01*
D14*
X164136614Y-124455645D02*
X164136614Y-123758960D01*
X164484957Y-124107302D02*
X163788271Y-124107302D01*
D12*
X154696329Y-122945313D02*
X154930009Y-123023206D01*
X155319476Y-123023206D01*
X155475262Y-122945313D01*
X155553156Y-122867420D01*
X155631049Y-122711633D01*
X155631049Y-122555846D01*
X155553156Y-122400060D01*
X155475262Y-122322166D01*
X155319476Y-122244273D01*
X155007902Y-122166380D01*
X154852116Y-122088486D01*
X154774222Y-122010593D01*
X154696329Y-121854806D01*
X154696329Y-121699020D01*
X154774222Y-121543233D01*
X154852116Y-121465340D01*
X155007902Y-121387446D01*
X155397369Y-121387446D01*
X155631049Y-121465340D01*
X156332089Y-123023206D02*
X156332089Y-121387446D01*
X156721556Y-121387446D01*
X156955236Y-121465340D01*
X157111022Y-121621126D01*
X157188916Y-121776913D01*
X157266809Y-122088486D01*
X157266809Y-122322166D01*
X157188916Y-122633740D01*
X157111022Y-122789526D01*
X156955236Y-122945313D01*
X156721556Y-123023206D01*
X156332089Y-123023206D01*
X157889956Y-122555846D02*
X158668889Y-122555846D01*
X157734169Y-123023206D02*
X158279422Y-121387446D01*
X158824676Y-123023206D01*
D11*
X176877133Y-95923311D02*
X175365833Y-95923311D01*
X176877133Y-95059711D02*
X176013533Y-95707411D01*
X175365833Y-95059711D02*
X176229433Y-95923311D01*
X176877133Y-94412011D02*
X175365833Y-94412011D01*
X176085500Y-94412011D02*
X176085500Y-93548411D01*
X176877133Y-93548411D02*
X175365833Y-93548411D01*
X176301400Y-92828745D02*
X176301400Y-91677278D01*
X176877133Y-90885645D02*
X176877133Y-90597778D01*
X176805166Y-90453845D01*
X176733200Y-90381878D01*
X176517300Y-90237945D01*
X176229433Y-90165978D01*
X175653700Y-90165978D01*
X175509766Y-90237945D01*
X175437800Y-90309911D01*
X175365833Y-90453845D01*
X175365833Y-90741711D01*
X175437800Y-90885645D01*
X175509766Y-90957611D01*
X175653700Y-91029578D01*
X176013533Y-91029578D01*
X176157466Y-90957611D01*
X176229433Y-90885645D01*
X176301400Y-90741711D01*
X176301400Y-90453845D01*
X176229433Y-90309911D01*
X176157466Y-90237945D01*
X176013533Y-90165978D01*
X176877133Y-89662211D02*
X175869600Y-88870578D01*
X175869600Y-89662211D02*
X176877133Y-88870578D01*
X176877133Y-88438778D02*
X175869600Y-87647145D01*
X175869600Y-88438778D02*
X176877133Y-87647145D01*
D14*
X164162014Y-116467345D02*
X164162014Y-115770660D01*
D15*
%TO.C,JP6*%
X161101616Y-86937638D02*
X161927116Y-86937638D01*
X162092216Y-86992671D01*
X162202283Y-87102738D01*
X162257316Y-87267838D01*
X162257316Y-87377905D01*
X162257316Y-86387305D02*
X161101616Y-86387305D01*
X161101616Y-85947038D01*
X161156650Y-85836971D01*
X161211683Y-85781938D01*
X161321750Y-85726905D01*
X161486850Y-85726905D01*
X161596916Y-85781938D01*
X161651950Y-85836971D01*
X161706983Y-85947038D01*
X161706983Y-86387305D01*
X161101616Y-84736305D02*
X161101616Y-84956438D01*
X161156650Y-85066505D01*
X161211683Y-85121538D01*
X161376783Y-85231605D01*
X161596916Y-85286638D01*
X162037183Y-85286638D01*
X162147250Y-85231605D01*
X162202283Y-85176571D01*
X162257316Y-85066505D01*
X162257316Y-84846371D01*
X162202283Y-84736305D01*
X162147250Y-84681271D01*
X162037183Y-84626238D01*
X161762016Y-84626238D01*
X161651950Y-84681271D01*
X161596916Y-84736305D01*
X161541883Y-84846371D01*
X161541883Y-85066505D01*
X161596916Y-85176571D01*
X161651950Y-85231605D01*
X161762016Y-85286638D01*
D16*
%TO.C,X1*%
X166923789Y-123568215D02*
X165989069Y-123568215D01*
X165989069Y-123345663D01*
X166033580Y-123212131D01*
X166122600Y-123123110D01*
X166211621Y-123078600D01*
X166389663Y-123034089D01*
X166523195Y-123034089D01*
X166701237Y-123078600D01*
X166790258Y-123123110D01*
X166879279Y-123212131D01*
X166923789Y-123345663D01*
X166923789Y-123568215D01*
X166923789Y-122633495D02*
X165989069Y-122633495D01*
X166923789Y-122188390D02*
X165989069Y-122188390D01*
X166923789Y-121654265D01*
X165989069Y-121654265D01*
X166300642Y-120808566D02*
X166923789Y-120808566D01*
X165944559Y-121031118D02*
X166612216Y-121253670D01*
X166612216Y-120675034D01*
X165989069Y-119873846D02*
X165989069Y-120318950D01*
X166434174Y-120363461D01*
X166389663Y-120318950D01*
X166345153Y-120229929D01*
X166345153Y-120007377D01*
X166389663Y-119918356D01*
X166434174Y-119873846D01*
X166523195Y-119829335D01*
X166745747Y-119829335D01*
X166834768Y-119873846D01*
X166879279Y-119918356D01*
X166923789Y-120007377D01*
X166923789Y-120229929D01*
X166879279Y-120318950D01*
X166834768Y-120363461D01*
X165989069Y-119517762D02*
X165989069Y-118939126D01*
X166345153Y-119250699D01*
X166345153Y-119117168D01*
X166389663Y-119028147D01*
X166434174Y-118983636D01*
X166523195Y-118939126D01*
X166745747Y-118939126D01*
X166834768Y-118983636D01*
X166879279Y-119028147D01*
X166923789Y-119117168D01*
X166923789Y-119384230D01*
X166879279Y-119473251D01*
X166834768Y-119517762D01*
X166078090Y-118583042D02*
X166033580Y-118538531D01*
X165989069Y-118449510D01*
X165989069Y-118226958D01*
X166033580Y-118137937D01*
X166078090Y-118093427D01*
X166167111Y-118048916D01*
X166256132Y-118048916D01*
X166389663Y-118093427D01*
X166923789Y-118627552D01*
X166923789Y-118048916D01*
X165989069Y-117737343D02*
X165989069Y-117158707D01*
X166345153Y-117470280D01*
X166345153Y-117336748D01*
X166389663Y-117247728D01*
X166434174Y-117203217D01*
X166523195Y-117158707D01*
X166745747Y-117158707D01*
X166834768Y-117203217D01*
X166879279Y-117247728D01*
X166923789Y-117336748D01*
X166923789Y-117603811D01*
X166879279Y-117692832D01*
X166834768Y-117737343D01*
D15*
%TO.C,JP9*%
X158269516Y-126599738D02*
X159095016Y-126599738D01*
X159260116Y-126654771D01*
X159370183Y-126764838D01*
X159425216Y-126929938D01*
X159425216Y-127040005D01*
X159425216Y-126049405D02*
X158269516Y-126049405D01*
X158269516Y-125609138D01*
X158324550Y-125499071D01*
X158379583Y-125444038D01*
X158489650Y-125389005D01*
X158654750Y-125389005D01*
X158764816Y-125444038D01*
X158819850Y-125499071D01*
X158874883Y-125609138D01*
X158874883Y-126049405D01*
X159425216Y-124838671D02*
X159425216Y-124618538D01*
X159370183Y-124508471D01*
X159315150Y-124453438D01*
X159150050Y-124343371D01*
X158929916Y-124288338D01*
X158489650Y-124288338D01*
X158379583Y-124343371D01*
X158324550Y-124398405D01*
X158269516Y-124508471D01*
X158269516Y-124728605D01*
X158324550Y-124838671D01*
X158379583Y-124893705D01*
X158489650Y-124948738D01*
X158764816Y-124948738D01*
X158874883Y-124893705D01*
X158929916Y-124838671D01*
X158984950Y-124728605D01*
X158984950Y-124508471D01*
X158929916Y-124398405D01*
X158874883Y-124343371D01*
X158764816Y-124288338D01*
%TO.C,R2*%
X159569361Y-111139816D02*
X159184128Y-110589483D01*
X158908961Y-111139816D02*
X158908961Y-109984116D01*
X159349228Y-109984116D01*
X159459295Y-110039150D01*
X159514328Y-110094183D01*
X159569361Y-110204250D01*
X159569361Y-110369350D01*
X159514328Y-110479416D01*
X159459295Y-110534450D01*
X159349228Y-110589483D01*
X158908961Y-110589483D01*
X160009628Y-110094183D02*
X160064661Y-110039150D01*
X160174728Y-109984116D01*
X160449895Y-109984116D01*
X160559961Y-110039150D01*
X160614995Y-110094183D01*
X160670028Y-110204250D01*
X160670028Y-110314316D01*
X160614995Y-110479416D01*
X159954595Y-111139816D01*
X160670028Y-111139816D01*
%TO.C,JP5*%
X164124216Y-108803228D02*
X164949716Y-108803228D01*
X165114816Y-108858261D01*
X165224883Y-108968328D01*
X165279916Y-109133428D01*
X165279916Y-109243495D01*
X165279916Y-108252895D02*
X164124216Y-108252895D01*
X164124216Y-107812628D01*
X164179250Y-107702561D01*
X164234283Y-107647528D01*
X164344350Y-107592495D01*
X164509450Y-107592495D01*
X164619516Y-107647528D01*
X164674550Y-107702561D01*
X164729583Y-107812628D01*
X164729583Y-108252895D01*
X164124216Y-106546861D02*
X164124216Y-107097195D01*
X164674550Y-107152228D01*
X164619516Y-107097195D01*
X164564483Y-106987128D01*
X164564483Y-106711961D01*
X164619516Y-106601895D01*
X164674550Y-106546861D01*
X164784616Y-106491828D01*
X165059783Y-106491828D01*
X165169850Y-106546861D01*
X165224883Y-106601895D01*
X165279916Y-106711961D01*
X165279916Y-106987128D01*
X165224883Y-107097195D01*
X165169850Y-107152228D01*
%TO.C,JP3*%
X124932016Y-82670438D02*
X125757516Y-82670438D01*
X125922616Y-82725471D01*
X126032683Y-82835538D01*
X126087716Y-83000638D01*
X126087716Y-83110705D01*
X126087716Y-82120105D02*
X124932016Y-82120105D01*
X124932016Y-81679838D01*
X124987050Y-81569771D01*
X125042083Y-81514738D01*
X125152150Y-81459705D01*
X125317250Y-81459705D01*
X125427316Y-81514738D01*
X125482350Y-81569771D01*
X125537383Y-81679838D01*
X125537383Y-82120105D01*
X124932016Y-81074471D02*
X124932016Y-80359038D01*
X125372283Y-80744271D01*
X125372283Y-80579171D01*
X125427316Y-80469105D01*
X125482350Y-80414071D01*
X125592416Y-80359038D01*
X125867583Y-80359038D01*
X125977650Y-80414071D01*
X126032683Y-80469105D01*
X126087716Y-80579171D01*
X126087716Y-80909371D01*
X126032683Y-81019438D01*
X125977650Y-81074471D01*
%TO.C,IC2*%
X137970471Y-106415416D02*
X137970471Y-105259716D01*
X139181205Y-106305350D02*
X139126171Y-106360383D01*
X138961071Y-106415416D01*
X138851005Y-106415416D01*
X138685905Y-106360383D01*
X138575838Y-106250316D01*
X138520805Y-106140250D01*
X138465771Y-105920116D01*
X138465771Y-105755016D01*
X138520805Y-105534883D01*
X138575838Y-105424816D01*
X138685905Y-105314750D01*
X138851005Y-105259716D01*
X138961071Y-105259716D01*
X139126171Y-105314750D01*
X139181205Y-105369783D01*
X139621471Y-105369783D02*
X139676505Y-105314750D01*
X139786571Y-105259716D01*
X140061738Y-105259716D01*
X140171805Y-105314750D01*
X140226838Y-105369783D01*
X140281871Y-105479850D01*
X140281871Y-105589916D01*
X140226838Y-105755016D01*
X139566438Y-106415416D01*
X140281871Y-106415416D01*
%TO.C,R5*%
X161660205Y-103367416D02*
X161274971Y-102817083D01*
X160999805Y-103367416D02*
X160999805Y-102211716D01*
X161440071Y-102211716D01*
X161550138Y-102266750D01*
X161605171Y-102321783D01*
X161660205Y-102431850D01*
X161660205Y-102596950D01*
X161605171Y-102707016D01*
X161550138Y-102762050D01*
X161440071Y-102817083D01*
X160999805Y-102817083D01*
X162705838Y-102211716D02*
X162155505Y-102211716D01*
X162100471Y-102762050D01*
X162155505Y-102707016D01*
X162265571Y-102651983D01*
X162540738Y-102651983D01*
X162650805Y-102707016D01*
X162705838Y-102762050D01*
X162760871Y-102872116D01*
X162760871Y-103147283D01*
X162705838Y-103257350D01*
X162650805Y-103312383D01*
X162540738Y-103367416D01*
X162265571Y-103367416D01*
X162155505Y-103312383D01*
X162100471Y-103257350D01*
D17*
%TO.C,LED3*%
X155574564Y-93154258D02*
X155013345Y-93154258D01*
X155013345Y-91975698D01*
X155967417Y-92536917D02*
X156360271Y-92536917D01*
X156528636Y-93154258D02*
X155967417Y-93154258D01*
X155967417Y-91975698D01*
X156528636Y-91975698D01*
X157033734Y-93154258D02*
X157033734Y-91975698D01*
X157314343Y-91975698D01*
X157482709Y-92031820D01*
X157594953Y-92144063D01*
X157651075Y-92256307D01*
X157707196Y-92480795D01*
X157707196Y-92649160D01*
X157651075Y-92873648D01*
X157594953Y-92985892D01*
X157482709Y-93098136D01*
X157314343Y-93154258D01*
X157033734Y-93154258D01*
X158100050Y-91975698D02*
X158829635Y-91975698D01*
X158436781Y-92424673D01*
X158605147Y-92424673D01*
X158717391Y-92480795D01*
X158773513Y-92536917D01*
X158829635Y-92649160D01*
X158829635Y-92929770D01*
X158773513Y-93042014D01*
X158717391Y-93098136D01*
X158605147Y-93154258D01*
X158268416Y-93154258D01*
X158156172Y-93098136D01*
X158100050Y-93042014D01*
D15*
%TO.C,R3*%
X181662705Y-93207416D02*
X181277471Y-92657083D01*
X181002305Y-93207416D02*
X181002305Y-92051716D01*
X181442571Y-92051716D01*
X181552638Y-92106750D01*
X181607671Y-92161783D01*
X181662705Y-92271850D01*
X181662705Y-92436950D01*
X181607671Y-92547016D01*
X181552638Y-92602050D01*
X181442571Y-92657083D01*
X181002305Y-92657083D01*
X182047938Y-92051716D02*
X182763371Y-92051716D01*
X182378138Y-92491983D01*
X182543238Y-92491983D01*
X182653305Y-92547016D01*
X182708338Y-92602050D01*
X182763371Y-92712116D01*
X182763371Y-92987283D01*
X182708338Y-93097350D01*
X182653305Y-93152383D01*
X182543238Y-93207416D01*
X182213038Y-93207416D01*
X182102971Y-93152383D01*
X182047938Y-93097350D01*
%TO.C,IC1*%
X123047971Y-128322916D02*
X123047971Y-127167216D01*
X124258705Y-128212850D02*
X124203671Y-128267883D01*
X124038571Y-128322916D01*
X123928505Y-128322916D01*
X123763405Y-128267883D01*
X123653338Y-128157816D01*
X123598305Y-128047750D01*
X123543271Y-127827616D01*
X123543271Y-127662516D01*
X123598305Y-127442383D01*
X123653338Y-127332316D01*
X123763405Y-127222250D01*
X123928505Y-127167216D01*
X124038571Y-127167216D01*
X124203671Y-127222250D01*
X124258705Y-127277283D01*
X125359371Y-128322916D02*
X124698971Y-128322916D01*
X125029171Y-128322916D02*
X125029171Y-127167216D01*
X124919105Y-127332316D01*
X124809038Y-127442383D01*
X124698971Y-127497416D01*
%TO.C,LED1*%
X177856938Y-83936416D02*
X177306605Y-83936416D01*
X177306605Y-82780716D01*
X178242171Y-83331050D02*
X178627405Y-83331050D01*
X178792505Y-83936416D02*
X178242171Y-83936416D01*
X178242171Y-82780716D01*
X178792505Y-82780716D01*
X179287805Y-83936416D02*
X179287805Y-82780716D01*
X179562971Y-82780716D01*
X179728071Y-82835750D01*
X179838138Y-82945816D01*
X179893171Y-83055883D01*
X179948205Y-83276016D01*
X179948205Y-83441116D01*
X179893171Y-83661250D01*
X179838138Y-83771316D01*
X179728071Y-83881383D01*
X179562971Y-83936416D01*
X179287805Y-83936416D01*
X181048871Y-83936416D02*
X180388471Y-83936416D01*
X180718671Y-83936416D02*
X180718671Y-82780716D01*
X180608605Y-82945816D01*
X180498538Y-83055883D01*
X180388471Y-83110916D01*
%TO.C,JP7*%
X172379216Y-103558128D02*
X173204716Y-103558128D01*
X173369816Y-103613161D01*
X173479883Y-103723228D01*
X173534916Y-103888328D01*
X173534916Y-103998395D01*
X173534916Y-103007795D02*
X172379216Y-103007795D01*
X172379216Y-102567528D01*
X172434250Y-102457461D01*
X172489283Y-102402428D01*
X172599350Y-102347395D01*
X172764450Y-102347395D01*
X172874516Y-102402428D01*
X172929550Y-102457461D01*
X172984583Y-102567528D01*
X172984583Y-103007795D01*
X172379216Y-101962161D02*
X172379216Y-101191695D01*
X173534916Y-101686995D01*
%TO.C,JP8*%
X172836416Y-97779628D02*
X173661916Y-97779628D01*
X173827016Y-97834661D01*
X173937083Y-97944728D01*
X173992116Y-98109828D01*
X173992116Y-98219895D01*
X173992116Y-97229295D02*
X172836416Y-97229295D01*
X172836416Y-96789028D01*
X172891450Y-96678961D01*
X172946483Y-96623928D01*
X173056550Y-96568895D01*
X173221650Y-96568895D01*
X173331716Y-96623928D01*
X173386750Y-96678961D01*
X173441783Y-96789028D01*
X173441783Y-97229295D01*
X173331716Y-95908495D02*
X173276683Y-96018561D01*
X173221650Y-96073595D01*
X173111583Y-96128628D01*
X173056550Y-96128628D01*
X172946483Y-96073595D01*
X172891450Y-96018561D01*
X172836416Y-95908495D01*
X172836416Y-95688361D01*
X172891450Y-95578295D01*
X172946483Y-95523261D01*
X173056550Y-95468228D01*
X173111583Y-95468228D01*
X173221650Y-95523261D01*
X173276683Y-95578295D01*
X173331716Y-95688361D01*
X173331716Y-95908495D01*
X173386750Y-96018561D01*
X173441783Y-96073595D01*
X173551850Y-96128628D01*
X173771983Y-96128628D01*
X173882050Y-96073595D01*
X173937083Y-96018561D01*
X173992116Y-95908495D01*
X173992116Y-95688361D01*
X173937083Y-95578295D01*
X173882050Y-95523261D01*
X173771983Y-95468228D01*
X173551850Y-95468228D01*
X173441783Y-95523261D01*
X173386750Y-95578295D01*
X173331716Y-95688361D01*
%TO.C,R1*%
X144235805Y-110022216D02*
X143850571Y-109471883D01*
X143575405Y-110022216D02*
X143575405Y-108866516D01*
X144015671Y-108866516D01*
X144125738Y-108921550D01*
X144180771Y-108976583D01*
X144235805Y-109086650D01*
X144235805Y-109251750D01*
X144180771Y-109361816D01*
X144125738Y-109416850D01*
X144015671Y-109471883D01*
X143575405Y-109471883D01*
X145336471Y-110022216D02*
X144676071Y-110022216D01*
X145006271Y-110022216D02*
X145006271Y-108866516D01*
X144896205Y-109031616D01*
X144786138Y-109141683D01*
X144676071Y-109196716D01*
D18*
%TO.C,IC3*%
X134721593Y-108883933D02*
X134721593Y-107773953D01*
X135884430Y-108778221D02*
X135831573Y-108831077D01*
X135673005Y-108883933D01*
X135567293Y-108883933D01*
X135408724Y-108831077D01*
X135303012Y-108725365D01*
X135250155Y-108619652D01*
X135197299Y-108408228D01*
X135197299Y-108249659D01*
X135250155Y-108038234D01*
X135303012Y-107932522D01*
X135408724Y-107826810D01*
X135567293Y-107773953D01*
X135673005Y-107773953D01*
X135831573Y-107826810D01*
X135884430Y-107879666D01*
X136254423Y-107773953D02*
X136941553Y-107773953D01*
X136571560Y-108196803D01*
X136730129Y-108196803D01*
X136835841Y-108249659D01*
X136888697Y-108302515D01*
X136941553Y-108408228D01*
X136941553Y-108672509D01*
X136888697Y-108778221D01*
X136835841Y-108831077D01*
X136730129Y-108883933D01*
X136412992Y-108883933D01*
X136307279Y-108831077D01*
X136254423Y-108778221D01*
D17*
%TO.C,LED2*%
X160337064Y-93154258D02*
X159775845Y-93154258D01*
X159775845Y-91975698D01*
X160729917Y-92536917D02*
X161122771Y-92536917D01*
X161291136Y-93154258D02*
X160729917Y-93154258D01*
X160729917Y-91975698D01*
X161291136Y-91975698D01*
X161796234Y-93154258D02*
X161796234Y-91975698D01*
X162076843Y-91975698D01*
X162245209Y-92031820D01*
X162357453Y-92144063D01*
X162413575Y-92256307D01*
X162469696Y-92480795D01*
X162469696Y-92649160D01*
X162413575Y-92873648D01*
X162357453Y-92985892D01*
X162245209Y-93098136D01*
X162076843Y-93154258D01*
X161796234Y-93154258D01*
X162918672Y-92087941D02*
X162974794Y-92031820D01*
X163087037Y-91975698D01*
X163367647Y-91975698D01*
X163479891Y-92031820D01*
X163536013Y-92087941D01*
X163592135Y-92200185D01*
X163592135Y-92312429D01*
X163536013Y-92480795D01*
X162862550Y-93154258D01*
X163592135Y-93154258D01*
D19*
%TO.C,JP1*%
X171273851Y-115820885D02*
X171273851Y-116634556D01*
X171219606Y-116797290D01*
X171111117Y-116905780D01*
X170948383Y-116960024D01*
X170839893Y-116960024D01*
X171816298Y-116960024D02*
X171816298Y-115820885D01*
X172250256Y-115820885D01*
X172358745Y-115875130D01*
X172412990Y-115929375D01*
X172467235Y-116037864D01*
X172467235Y-116200598D01*
X172412990Y-116309088D01*
X172358745Y-116363332D01*
X172250256Y-116417577D01*
X171816298Y-116417577D01*
X173552129Y-116960024D02*
X172901192Y-116960024D01*
X173226661Y-116960024D02*
X173226661Y-115820885D01*
X173118171Y-115983619D01*
X173009682Y-116092109D01*
X172901192Y-116146354D01*
D15*
%TO.C,R4*%
X156262705Y-103367416D02*
X155877471Y-102817083D01*
X155602305Y-103367416D02*
X155602305Y-102211716D01*
X156042571Y-102211716D01*
X156152638Y-102266750D01*
X156207671Y-102321783D01*
X156262705Y-102431850D01*
X156262705Y-102596950D01*
X156207671Y-102707016D01*
X156152638Y-102762050D01*
X156042571Y-102817083D01*
X155602305Y-102817083D01*
X157253305Y-102596950D02*
X157253305Y-103367416D01*
X156978138Y-102156683D02*
X156702971Y-102982183D01*
X157418405Y-102982183D01*
D18*
%TO.C,IC4*%
X146469093Y-85388933D02*
X146469093Y-84278953D01*
X147631930Y-85283221D02*
X147579073Y-85336077D01*
X147420505Y-85388933D01*
X147314793Y-85388933D01*
X147156224Y-85336077D01*
X147050512Y-85230365D01*
X146997655Y-85124652D01*
X146944799Y-84913228D01*
X146944799Y-84754659D01*
X146997655Y-84543234D01*
X147050512Y-84437522D01*
X147156224Y-84331810D01*
X147314793Y-84278953D01*
X147420505Y-84278953D01*
X147579073Y-84331810D01*
X147631930Y-84384666D01*
X148583341Y-84648947D02*
X148583341Y-85388933D01*
X148319060Y-84226097D02*
X148054779Y-85018940D01*
X148741910Y-85018940D01*
D15*
%TO.C,JP2*%
X147741216Y-118547938D02*
X148566716Y-118547938D01*
X148731816Y-118602971D01*
X148841883Y-118713038D01*
X148896916Y-118878138D01*
X148896916Y-118988205D01*
X148896916Y-117997605D02*
X147741216Y-117997605D01*
X147741216Y-117557338D01*
X147796250Y-117447271D01*
X147851283Y-117392238D01*
X147961350Y-117337205D01*
X148126450Y-117337205D01*
X148236516Y-117392238D01*
X148291550Y-117447271D01*
X148346583Y-117557338D01*
X148346583Y-117997605D01*
X147851283Y-116896938D02*
X147796250Y-116841905D01*
X147741216Y-116731838D01*
X147741216Y-116456671D01*
X147796250Y-116346605D01*
X147851283Y-116291571D01*
X147961350Y-116236538D01*
X148071416Y-116236538D01*
X148236516Y-116291571D01*
X148896916Y-116951971D01*
X148896916Y-116236538D01*
%TO.C,JP4*%
X116969116Y-103447638D02*
X117794616Y-103447638D01*
X117959716Y-103502671D01*
X118069783Y-103612738D01*
X118124816Y-103777838D01*
X118124816Y-103887905D01*
X118124816Y-102897305D02*
X116969116Y-102897305D01*
X116969116Y-102457038D01*
X117024150Y-102346971D01*
X117079183Y-102291938D01*
X117189250Y-102236905D01*
X117354350Y-102236905D01*
X117464416Y-102291938D01*
X117519450Y-102346971D01*
X117574483Y-102457038D01*
X117574483Y-102897305D01*
X117354350Y-101246305D02*
X118124816Y-101246305D01*
X116914083Y-101521471D02*
X117739583Y-101796638D01*
X117739583Y-101081205D01*
D20*
%TO.C,JP6*%
X159435800Y-87223600D02*
X158800800Y-87858600D01*
X156895800Y-85953600D02*
X157530800Y-85318600D01*
X158800800Y-90398600D02*
X159435800Y-89763600D01*
X157530800Y-87858600D02*
X158800800Y-87858600D01*
X156895800Y-87223600D02*
X156895800Y-85953600D01*
X159435800Y-85953600D02*
X159435800Y-87223600D01*
X158800800Y-87858600D02*
X159435800Y-88493600D01*
X159435800Y-88493600D02*
X159435800Y-89763600D01*
X157530800Y-85318600D02*
X158800800Y-85318600D01*
X158800800Y-85318600D02*
X159435800Y-85953600D01*
X156895800Y-88493600D02*
X157530800Y-87858600D01*
X157530800Y-90398600D02*
X158800800Y-90398600D01*
X157530800Y-87858600D02*
X156895800Y-87223600D01*
X156895800Y-89763600D02*
X157530800Y-90398600D01*
X156895800Y-89763600D02*
X156895800Y-88493600D01*
D21*
%TO.C,X1*%
X180568300Y-115343600D02*
X182068300Y-115343600D01*
X181268300Y-117043600D02*
X182668300Y-117043600D01*
X183068300Y-114343600D02*
X182068300Y-114343600D01*
X175868300Y-121093600D02*
X177568300Y-121093600D01*
X182568300Y-120643600D02*
X182568300Y-119843600D01*
X178768300Y-117043600D02*
X180168300Y-117043600D01*
X178368300Y-121093600D02*
X180068300Y-121093600D01*
X175868300Y-119393600D02*
X177568300Y-119393600D01*
X173468300Y-123443600D02*
X174918300Y-123443600D01*
X170268300Y-118543600D02*
X170268300Y-117093600D01*
X170268300Y-121043600D02*
X170268300Y-119593600D01*
X182068300Y-115343600D02*
X182068300Y-114343600D01*
X180568300Y-114343600D02*
X179168300Y-114343600D01*
X180568300Y-114343600D02*
X180568300Y-115343600D01*
X170968300Y-117043600D02*
X172368300Y-117043600D01*
X182068300Y-125143600D02*
X180568300Y-125143600D01*
X182068300Y-126143600D02*
X182068300Y-125143600D01*
X180868300Y-119393600D02*
X182568300Y-119393600D01*
X176068300Y-123443600D02*
X177518300Y-123443600D01*
X180568300Y-125143600D02*
X180568300Y-115343600D01*
X183068300Y-126143600D02*
X182068300Y-126143600D01*
X177118300Y-126143600D02*
X165768300Y-126143600D01*
X173568300Y-117043600D02*
X174968300Y-117043600D01*
X176168300Y-117043600D02*
X177568300Y-117043600D01*
X181268300Y-123443600D02*
X182718300Y-123443600D01*
X180868300Y-121093600D02*
X182568300Y-121093600D01*
X183068300Y-126143600D02*
X183068300Y-114343600D01*
X173468300Y-121093600D02*
X175168300Y-121093600D01*
X180568300Y-126143600D02*
X179168300Y-126143600D01*
X170868300Y-123443600D02*
X172318300Y-123443600D01*
X178668300Y-123443600D02*
X180118300Y-123443600D01*
X170268300Y-123443600D02*
X170268300Y-121993600D01*
X180568300Y-125143600D02*
X180568300Y-126143600D01*
X173468300Y-119393600D02*
X175168300Y-119393600D01*
X165768300Y-126143600D02*
X165768300Y-114343600D01*
X177118300Y-114343600D02*
X165768300Y-114343600D01*
X178368300Y-119393600D02*
X180068300Y-119393600D01*
D20*
%TO.C,JP9*%
X160007300Y-120878600D02*
X159372300Y-120243600D01*
X160007300Y-123418600D02*
X161277300Y-123418600D01*
X159372300Y-120243600D02*
X159372300Y-118973600D01*
X161912300Y-121513600D02*
X161912300Y-122783600D01*
X159372300Y-125323600D02*
X159372300Y-124053600D01*
X159372300Y-125323600D02*
X160007300Y-125958600D01*
X161277300Y-123418600D02*
X161912300Y-124053600D01*
X159372300Y-122783600D02*
X159372300Y-121513600D01*
X161277300Y-118338600D02*
X161912300Y-117703600D01*
X160007300Y-125958600D02*
X161277300Y-125958600D01*
X159372300Y-124053600D02*
X160007300Y-123418600D01*
X160007300Y-123418600D02*
X159372300Y-122783600D01*
X161277300Y-120878600D02*
X161912300Y-121513600D01*
X161277300Y-115798600D02*
X161912300Y-116433600D01*
X161277300Y-118338600D02*
X161912300Y-118973600D01*
X159372300Y-116433600D02*
X160007300Y-115798600D01*
X160007300Y-118338600D02*
X161277300Y-118338600D01*
X161912300Y-120243600D02*
X161277300Y-120878600D01*
X160007300Y-120878600D02*
X161277300Y-120878600D01*
X159372300Y-117703600D02*
X159372300Y-116433600D01*
X160007300Y-115798600D02*
X161277300Y-115798600D01*
X161912300Y-116433600D02*
X161912300Y-117703600D01*
X161912300Y-122783600D02*
X161277300Y-123418600D01*
X159372300Y-118973600D02*
X160007300Y-118338600D01*
X159372300Y-117703600D02*
X160007300Y-118338600D01*
X161912300Y-124053600D02*
X161912300Y-125323600D01*
X161912300Y-118973600D02*
X161912300Y-120243600D01*
X161277300Y-125958600D02*
X161912300Y-125323600D01*
X159372300Y-121513600D02*
X160007300Y-120878600D01*
D22*
%TO.C,R2*%
X155371800Y-110083600D02*
X155879800Y-110083600D01*
D20*
X155625800Y-110083600D02*
G75*
G03*
X155625800Y-110083600I-1270000J0D01*
G01*
%TO.C,JP5*%
X169278300Y-107861100D02*
X169278300Y-109131100D01*
X169278300Y-107861100D02*
X168643300Y-107226100D01*
X169278300Y-109131100D02*
X168643300Y-109766100D01*
X167373300Y-84366100D02*
X166738300Y-85001100D01*
X169278300Y-87541100D02*
X169278300Y-88811100D01*
X167373300Y-102146100D02*
X166738300Y-101511100D01*
X167373300Y-97066100D02*
X166738300Y-96431100D01*
X168643300Y-94526100D02*
X169278300Y-95161100D01*
X168643300Y-102146100D02*
X167373300Y-102146100D01*
X168643300Y-97066100D02*
X169278300Y-97701100D01*
X169278300Y-86271100D02*
X168643300Y-86906100D01*
X169278300Y-98971100D02*
X168643300Y-99606100D01*
X169278300Y-90081100D02*
X169278300Y-91351100D01*
X168643300Y-86906100D02*
X167373300Y-86906100D01*
X169278300Y-92621100D02*
X168643300Y-91986100D01*
X169278300Y-104051100D02*
X168643300Y-104686100D01*
X167373300Y-86906100D02*
X166738300Y-86271100D01*
X167373300Y-89446100D02*
X166738300Y-88811100D01*
X168643300Y-94526100D02*
X167373300Y-94526100D01*
X166738300Y-109131100D02*
X166738300Y-107861100D01*
X169278300Y-92621100D02*
X169278300Y-93891100D01*
X167373300Y-104686100D02*
X166738300Y-104051100D01*
X168643300Y-84366100D02*
X167373300Y-84366100D01*
X166738300Y-91351100D02*
X166738300Y-90081100D01*
X169278300Y-105321100D02*
X169278300Y-106591100D01*
X169278300Y-95161100D02*
X169278300Y-96431100D01*
X167373300Y-107226100D02*
X166738300Y-106591100D01*
X166738300Y-93891100D02*
X166738300Y-92621100D01*
X168643300Y-89446100D02*
X167373300Y-89446100D01*
X169278300Y-85001100D02*
X168643300Y-84366100D01*
X167373300Y-107226100D02*
X166738300Y-107861100D01*
X168643300Y-99606100D02*
X167373300Y-99606100D01*
X166738300Y-105321100D02*
X167373300Y-104686100D01*
X166738300Y-101511100D02*
X166738300Y-100241100D01*
X166738300Y-104051100D02*
X166738300Y-102781100D01*
X169278300Y-100241100D02*
X169278300Y-101511100D01*
X169278300Y-93891100D02*
X168643300Y-94526100D01*
X168643300Y-104686100D02*
X167373300Y-104686100D01*
X166738300Y-96431100D02*
X166738300Y-95161100D01*
X166738300Y-102781100D02*
X167373300Y-102146100D01*
X166738300Y-95161100D02*
X167373300Y-94526100D01*
X168643300Y-97066100D02*
X167373300Y-97066100D01*
X169278300Y-88811100D02*
X168643300Y-89446100D01*
X169278300Y-101511100D02*
X168643300Y-102146100D01*
X168643300Y-91986100D02*
X167373300Y-91986100D01*
X166738300Y-106591100D02*
X166738300Y-105321100D01*
X167373300Y-94526100D02*
X166738300Y-93891100D01*
X169278300Y-91351100D02*
X168643300Y-91986100D01*
X167373300Y-91986100D02*
X166738300Y-91351100D01*
X169278300Y-85001100D02*
X169278300Y-86271100D01*
X166738300Y-88811100D02*
X166738300Y-87541100D01*
X168643300Y-107226100D02*
X167373300Y-107226100D01*
X167373300Y-109766100D02*
X166738300Y-109131100D01*
X168643300Y-89446100D02*
X169278300Y-90081100D01*
X166738300Y-98971100D02*
X166738300Y-97701100D01*
X169278300Y-106591100D02*
X168643300Y-107226100D01*
X168643300Y-86906100D02*
X169278300Y-87541100D01*
X169278300Y-100241100D02*
X168643300Y-99606100D01*
X169278300Y-102781100D02*
X169278300Y-104051100D01*
X168643300Y-109766100D02*
X167373300Y-109766100D01*
X169278300Y-96431100D02*
X168643300Y-97066100D01*
X169278300Y-97701100D02*
X169278300Y-98971100D01*
X168643300Y-102146100D02*
X169278300Y-102781100D01*
X168643300Y-104686100D02*
X169278300Y-105321100D01*
X167373300Y-99606100D02*
X166738300Y-100241100D01*
X166738300Y-87541100D02*
X167373300Y-86906100D01*
X167373300Y-91986100D02*
X166738300Y-92621100D01*
X166738300Y-86271100D02*
X166738300Y-85001100D01*
X166738300Y-90081100D02*
X167373300Y-89446100D01*
X166738300Y-97701100D02*
X167373300Y-97066100D01*
X167373300Y-99606100D02*
X166738300Y-98971100D01*
%TO.C,JP3*%
X127368300Y-96748600D02*
X126733300Y-96113600D01*
X126733300Y-88493600D02*
X126733300Y-87223600D01*
X126733300Y-91033600D02*
X126733300Y-89763600D01*
X129273300Y-89763600D02*
X129273300Y-91033600D01*
X127368300Y-81508600D02*
X128638300Y-81508600D01*
X129273300Y-91033600D02*
X128638300Y-91668600D01*
X126733300Y-101193600D02*
X127368300Y-101828600D01*
X128638300Y-81508600D02*
X129273300Y-82143600D01*
X128638300Y-84048600D02*
X129273300Y-83413600D01*
X127368300Y-99288600D02*
X126733300Y-98653600D01*
X126733300Y-85953600D02*
X126733300Y-84683600D01*
X127368300Y-89128600D02*
X126733300Y-88493600D01*
X128638300Y-94208600D02*
X129273300Y-94843600D01*
X129273300Y-92303600D02*
X129273300Y-93573600D01*
X128638300Y-89128600D02*
X129273300Y-89763600D01*
X128638300Y-101828600D02*
X129273300Y-101193600D01*
X126733300Y-94843600D02*
X127368300Y-94208600D01*
X126733300Y-89763600D02*
X127368300Y-89128600D01*
X127368300Y-99288600D02*
X128638300Y-99288600D01*
X129273300Y-96113600D02*
X128638300Y-96748600D01*
X126733300Y-87223600D02*
X127368300Y-86588600D01*
X127368300Y-84048600D02*
X128638300Y-84048600D01*
X129273300Y-94843600D02*
X129273300Y-96113600D01*
X127368300Y-91668600D02*
X126733300Y-91033600D01*
X128638300Y-99288600D02*
X129273300Y-99923600D01*
X128638300Y-91668600D02*
X129273300Y-92303600D01*
X126733300Y-97383600D02*
X127368300Y-96748600D01*
X126733300Y-96113600D02*
X126733300Y-94843600D01*
X127368300Y-91668600D02*
X128638300Y-91668600D01*
X129273300Y-88493600D02*
X128638300Y-89128600D01*
X127368300Y-86588600D02*
X128638300Y-86588600D01*
X127368300Y-94208600D02*
X128638300Y-94208600D01*
X126733300Y-82143600D02*
X127368300Y-81508600D01*
X126733300Y-84683600D02*
X127368300Y-84048600D01*
X128638300Y-86588600D02*
X129273300Y-85953600D01*
X127368300Y-101828600D02*
X128638300Y-101828600D01*
X128638300Y-84048600D02*
X129273300Y-84683600D01*
X126733300Y-83413600D02*
X127368300Y-84048600D01*
X129273300Y-84683600D02*
X129273300Y-85953600D01*
X128638300Y-94208600D02*
X129273300Y-93573600D01*
X129273300Y-99923600D02*
X129273300Y-101193600D01*
X126733300Y-99923600D02*
X127368300Y-99288600D01*
X127368300Y-96748600D02*
X128638300Y-96748600D01*
X126733300Y-83413600D02*
X126733300Y-82143600D01*
X129273300Y-87223600D02*
X129273300Y-88493600D01*
X127368300Y-89128600D02*
X128638300Y-89128600D01*
X126733300Y-93573600D02*
X127368300Y-94208600D01*
X126733300Y-101193600D02*
X126733300Y-99923600D01*
X126733300Y-93573600D02*
X126733300Y-92303600D01*
X129273300Y-97383600D02*
X129273300Y-98653600D01*
X129273300Y-98653600D02*
X128638300Y-99288600D01*
X126733300Y-98653600D02*
X126733300Y-97383600D01*
X129273300Y-82143600D02*
X129273300Y-83413600D01*
X128638300Y-96748600D02*
X129273300Y-97383600D01*
X126733300Y-92303600D02*
X127368300Y-91668600D01*
X128638300Y-86588600D02*
X129273300Y-87223600D01*
X126733300Y-85953600D02*
X127368300Y-86588600D01*
%TO.C,IC2*%
X133972300Y-82778600D02*
X133972300Y-105638600D01*
X139814300Y-105638600D02*
X139814300Y-82778600D01*
X133972300Y-105638600D02*
X135877300Y-105638600D01*
X133972300Y-82778600D02*
X139814300Y-82778600D01*
X139814300Y-105638600D02*
X137909300Y-105638600D01*
X137909300Y-105638600D02*
G75*
G03*
X135877300Y-105638600I-1016000J0D01*
G01*
%TO.C,JP4A0*%
G36*
X114541300Y-117592600D02*
G01*
X114033300Y-117592600D01*
X114033300Y-117084600D01*
X114541300Y-117084600D01*
X114541300Y-117592600D01*
G37*
G36*
X114541300Y-119592600D02*
G01*
X114033300Y-119592600D01*
X114033300Y-119084600D01*
X114541300Y-119084600D01*
X114541300Y-119592600D01*
G37*
G36*
X114541300Y-123592600D02*
G01*
X114033300Y-123592600D01*
X114033300Y-123084600D01*
X114541300Y-123084600D01*
X114541300Y-123592600D01*
G37*
G36*
X114541300Y-127592600D02*
G01*
X114033300Y-127592600D01*
X114033300Y-127084600D01*
X114541300Y-127084600D01*
X114541300Y-127592600D01*
G37*
G36*
X114541300Y-115592600D02*
G01*
X114033300Y-115592600D01*
X114033300Y-115084600D01*
X114541300Y-115084600D01*
X114541300Y-115592600D01*
G37*
G36*
X114541300Y-121592600D02*
G01*
X114033300Y-121592600D01*
X114033300Y-121084600D01*
X114541300Y-121084600D01*
X114541300Y-121592600D01*
G37*
G36*
X114541300Y-109592600D02*
G01*
X114033300Y-109592600D01*
X114033300Y-109084600D01*
X114541300Y-109084600D01*
X114541300Y-109592600D01*
G37*
G36*
X114541300Y-113592600D02*
G01*
X114033300Y-113592600D01*
X114033300Y-113084600D01*
X114541300Y-113084600D01*
X114541300Y-113592600D01*
G37*
G36*
X114541300Y-111592600D02*
G01*
X114033300Y-111592600D01*
X114033300Y-111084600D01*
X114541300Y-111084600D01*
X114541300Y-111592600D01*
G37*
G36*
X114541300Y-125592600D02*
G01*
X114033300Y-125592600D01*
X114033300Y-125084600D01*
X114541300Y-125084600D01*
X114541300Y-125592600D01*
G37*
D22*
%TO.C,R5*%
X161658300Y-100177600D02*
X161658300Y-99669600D01*
D20*
X162928300Y-101193600D02*
G75*
G03*
X162928300Y-101193600I-1270000J0D01*
G01*
%TO.C,LED3*%
X158419800Y-95161100D02*
G75*
G03*
X157831400Y-93958100I-1524000J-8D01*
G01*
X155371800Y-95161100D02*
G75*
G03*
X155981400Y-96380300I1523998J-1D01*
G01*
D10*
X155594900Y-93600100D02*
G75*
G03*
X154863800Y-95161100I1300897J-1560986D01*
G01*
X157904000Y-96925400D02*
G75*
G03*
X158927800Y-95161100I-1008199J1764243D01*
G01*
X158927800Y-95161100D02*
G75*
G03*
X158208400Y-93609900I-2032003J36D01*
G01*
D20*
X157831400Y-96364100D02*
G75*
G03*
X158419800Y-95161100I-935600J1203008D01*
G01*
D10*
X154863800Y-95161100D02*
G75*
G03*
X155939600Y-96954000I2032000J60D01*
G01*
D20*
X156009999Y-93921000D02*
G75*
G03*
X155371800Y-95161100I885800J-1240133D01*
G01*
D22*
%TO.C,R3*%
X179120800Y-92240100D02*
X179120800Y-91732100D01*
D20*
X180390800Y-93256100D02*
G75*
G03*
X180390800Y-93256100I-1270000J0D01*
G01*
%TO.C,IC1*%
X122542300Y-127228600D02*
X124447300Y-127228600D01*
X128384300Y-127228600D02*
X126479300Y-127228600D01*
X128384300Y-127228600D02*
X128384300Y-104368600D01*
X122542300Y-104368600D02*
X128384300Y-104368600D01*
X122542300Y-104368600D02*
X122542300Y-127228600D01*
X126479300Y-127228600D02*
G75*
G03*
X124447300Y-127228600I-1016000J0D01*
G01*
D10*
%TO.C,LED1*%
X177088800Y-87223600D02*
G75*
G03*
X178164600Y-89016500I2032000J60D01*
G01*
X180129000Y-88987900D02*
G75*
G03*
X181152800Y-87223600I-1008199J1764243D01*
G01*
X177819900Y-85662600D02*
G75*
G03*
X177088800Y-87223600I1300897J-1560986D01*
G01*
D20*
X177596800Y-87223600D02*
G75*
G03*
X178206400Y-88442800I1523998J-1D01*
G01*
X180056400Y-88426600D02*
G75*
G03*
X180644800Y-87223600I-935600J1203008D01*
G01*
X180644800Y-87223600D02*
G75*
G03*
X180056400Y-86020600I-1524000J-8D01*
G01*
X178234999Y-85983500D02*
G75*
G03*
X177596800Y-87223600I885800J-1240133D01*
G01*
D10*
X181152800Y-87223600D02*
G75*
G03*
X180433400Y-85672400I-2032003J36D01*
G01*
D20*
%TO.C,JP7*%
X173088300Y-110361100D02*
X173088300Y-111631100D01*
X172453300Y-112266100D02*
X171183300Y-112266100D01*
X172453300Y-104726100D02*
X173088300Y-105361100D01*
X172453300Y-104726100D02*
X171183300Y-104726100D01*
X173088300Y-107861100D02*
X173088300Y-109131100D01*
X173088300Y-106631100D02*
X172453300Y-107266100D01*
X170548300Y-106631100D02*
X170548300Y-105361100D01*
X170548300Y-111631100D02*
X170548300Y-110361100D01*
X170548300Y-110361100D02*
X171183300Y-109726100D01*
X171183300Y-112266100D02*
X170548300Y-111631100D01*
X173088300Y-109131100D02*
X172453300Y-109766100D01*
X170548300Y-107861100D02*
X171183300Y-107226100D01*
X170548300Y-109131100D02*
X170548300Y-107861100D01*
X172453300Y-109726100D02*
X173088300Y-110361100D01*
X172453300Y-107226100D02*
X171183300Y-107226100D01*
X171183300Y-109766100D02*
X170548300Y-109131100D01*
X173088300Y-105361100D02*
X173088300Y-106631100D01*
X170548300Y-105361100D02*
X171183300Y-104726100D01*
X172453300Y-109766100D02*
X171183300Y-109766100D01*
X171183300Y-107266100D02*
X170548300Y-106631100D01*
X173088300Y-111631100D02*
X172453300Y-112266100D01*
X172453300Y-107226100D02*
X173088300Y-107861100D01*
%TO.C,JP8*%
X170230800Y-91351100D02*
X170230800Y-90081100D01*
X172135800Y-84366100D02*
X170865800Y-84366100D01*
X172135800Y-89446100D02*
X170865800Y-89446100D01*
X172770800Y-85001100D02*
X172770800Y-86271100D01*
X170865800Y-86906100D02*
X170230800Y-86271100D01*
X172135800Y-89446100D02*
X172770800Y-90081100D01*
X170230800Y-87541100D02*
X170865800Y-86906100D01*
X170865800Y-94526100D02*
X170230800Y-95161100D01*
X172135800Y-91986100D02*
X170865800Y-91986100D01*
X172770800Y-91351100D02*
X172135800Y-91986100D01*
X170865800Y-94526100D02*
X170230800Y-93891100D01*
X170230800Y-93891100D02*
X170230800Y-92621100D01*
X170865800Y-84366100D02*
X170230800Y-85001100D01*
X172770800Y-95161100D02*
X172770800Y-96431100D01*
X172135800Y-94526100D02*
X170865800Y-94526100D01*
X172135800Y-86906100D02*
X170865800Y-86906100D01*
X172770800Y-92621100D02*
X172135800Y-91986100D01*
X170865800Y-89446100D02*
X170230800Y-88811100D01*
X170865800Y-91986100D02*
X170230800Y-91351100D01*
X172770800Y-85001100D02*
X172135800Y-84366100D01*
X172770800Y-87541100D02*
X172770800Y-88811100D01*
X172135800Y-86906100D02*
X172770800Y-87541100D01*
X172770800Y-86271100D02*
X172135800Y-86906100D01*
X172770800Y-96431100D02*
X172135800Y-97066100D01*
X172135800Y-97066100D02*
X170865800Y-97066100D01*
X172770800Y-88811100D02*
X172135800Y-89446100D01*
X170865800Y-91986100D02*
X170230800Y-92621100D01*
X172770800Y-93891100D02*
X172135800Y-94526100D01*
X170230800Y-86271100D02*
X170230800Y-85001100D01*
X170230800Y-88811100D02*
X170230800Y-87541100D01*
X170230800Y-90081100D02*
X170865800Y-89446100D01*
X172770800Y-95161100D02*
X172135800Y-94526100D01*
X170230800Y-96431100D02*
X170230800Y-95161100D01*
X172770800Y-92621100D02*
X172770800Y-93891100D01*
X172770800Y-90081100D02*
X172770800Y-91351100D01*
X170865800Y-97066100D02*
X170230800Y-96431100D01*
D22*
%TO.C,R1*%
X148259800Y-110083600D02*
X147751800Y-110083600D01*
D20*
X150545800Y-110083600D02*
G75*
G03*
X150545800Y-110083600I-1270000J0D01*
G01*
%TO.C,IC3*%
X134353300Y-131673600D02*
X134353300Y-108813600D01*
X139433300Y-108813600D02*
X137528300Y-108813600D01*
X136258300Y-108813600D02*
X134353300Y-108813600D01*
X134353300Y-131673600D02*
X139433300Y-131673600D01*
X139433300Y-108813600D02*
X139433300Y-131673600D01*
X136258300Y-108813600D02*
G75*
G03*
X137528300Y-108813600I635000J0D01*
G01*
D10*
%TO.C,LED2*%
X160357400Y-93600100D02*
G75*
G03*
X159626300Y-95161100I1300897J-1560986D01*
G01*
X163690300Y-95161100D02*
G75*
G03*
X162970900Y-93609900I-2032003J36D01*
G01*
D20*
X160772499Y-93921000D02*
G75*
G03*
X160134300Y-95161100I885800J-1240133D01*
G01*
X160134300Y-95161100D02*
G75*
G03*
X160743900Y-96380300I1523998J-1D01*
G01*
D10*
X162666500Y-96925400D02*
G75*
G03*
X163690300Y-95161100I-1008199J1764243D01*
G01*
D20*
X163182300Y-95161100D02*
G75*
G03*
X162593900Y-93958100I-1524000J-8D01*
G01*
X162593900Y-96364100D02*
G75*
G03*
X163182300Y-95161100I-935600J1203008D01*
G01*
D10*
X159626300Y-95161100D02*
G75*
G03*
X160702100Y-96954000I2032000J60D01*
G01*
%TO.C,JP7A0*%
G36*
X174752000Y-110254800D02*
G01*
X174244000Y-110254800D01*
X174244000Y-109746800D01*
X174752000Y-109746800D01*
X174752000Y-110254800D01*
G37*
G36*
X174752000Y-106254800D02*
G01*
X174244000Y-106254800D01*
X174244000Y-105746800D01*
X174752000Y-105746800D01*
X174752000Y-106254800D01*
G37*
G36*
X174752000Y-108254800D02*
G01*
X174244000Y-108254800D01*
X174244000Y-107746800D01*
X174752000Y-107746800D01*
X174752000Y-108254800D01*
G37*
D23*
%TO.C,JP1*%
X183188300Y-113456100D02*
X175688300Y-113456100D01*
X184438300Y-112206100D02*
X183188300Y-113456100D01*
X183188300Y-103456100D02*
X175688300Y-103456100D01*
X184438300Y-120956100D02*
X184438300Y-115956100D01*
X184438300Y-107206100D02*
X183188300Y-108456100D01*
X175688300Y-114706100D02*
X174438300Y-115956100D01*
X184438300Y-102206100D02*
X183188300Y-103456100D01*
X174438300Y-112206100D02*
X175688300Y-113456100D01*
X175688300Y-98456100D02*
X174438300Y-99706100D01*
X175688300Y-122206100D02*
X174438300Y-120956100D01*
X183188300Y-114706100D02*
X175688300Y-114706100D01*
X184438300Y-104706100D02*
X184438300Y-107206100D01*
X175688300Y-114706100D02*
X175688300Y-113456100D01*
X183188300Y-122206100D02*
X175688300Y-122206100D01*
X174438300Y-112206100D02*
X174438300Y-109706100D01*
X175688300Y-103456100D02*
X174438300Y-102206100D01*
X183188300Y-98456100D02*
X175688300Y-98456100D01*
X184438300Y-109706100D02*
X184438300Y-112206100D01*
X184438300Y-104706100D02*
X183188300Y-103456100D01*
X175688300Y-103456100D02*
X174438300Y-104706100D01*
X183188300Y-108456100D02*
X184438300Y-109706100D01*
X183188300Y-114706100D02*
X183188300Y-113456100D01*
X184438300Y-102206100D02*
X184438300Y-99706100D01*
X175688300Y-108456100D02*
X174438300Y-109706100D01*
X175688300Y-108456100D02*
X174438300Y-107206100D01*
X174438300Y-115956100D02*
X174438300Y-120956100D01*
X184438300Y-115956100D02*
X183188300Y-114706100D01*
X183188300Y-108456100D02*
X175688300Y-108456100D01*
X174438300Y-99706100D02*
X174438300Y-102206100D01*
X184438300Y-99706100D02*
X183188300Y-98456100D01*
X174438300Y-107206100D02*
X174438300Y-104706100D01*
X184438300Y-120956100D02*
X183188300Y-122206100D01*
D22*
%TO.C,R4*%
X156895800Y-100177600D02*
X156895800Y-99669600D01*
D20*
X158165800Y-101193600D02*
G75*
G03*
X158165800Y-101193600I-1270000J0D01*
G01*
%TO.C,JP2A0*%
G36*
X148158200Y-124910600D02*
G01*
X147650200Y-124910600D01*
X147650200Y-124402600D01*
X148158200Y-124402600D01*
X148158200Y-124910600D01*
G37*
G36*
X148158200Y-122910600D02*
G01*
X147650200Y-122910600D01*
X147650200Y-122402600D01*
X148158200Y-122402600D01*
X148158200Y-122910600D01*
G37*
G36*
X148158200Y-120910600D02*
G01*
X147650200Y-120910600D01*
X147650200Y-120402600D01*
X148158200Y-120402600D01*
X148158200Y-120910600D01*
G37*
%TO.C,IC4*%
X148005800Y-85318600D02*
X146100800Y-85318600D01*
X146100800Y-108178600D02*
X151180800Y-108178600D01*
X151180800Y-85318600D02*
X149275800Y-85318600D01*
X146100800Y-108178600D02*
X146100800Y-85318600D01*
X151180800Y-85318600D02*
X151180800Y-108178600D01*
X148005800Y-85318600D02*
G75*
G03*
X149275800Y-85318600I635000J0D01*
G01*
%TO.C,JP2*%
X149910800Y-125918600D02*
X149275800Y-125283600D01*
X149910800Y-120878600D02*
X151180800Y-120878600D01*
X149275800Y-124013600D02*
X149910800Y-123378600D01*
X149275800Y-122783600D02*
X149275800Y-121513600D01*
X151180800Y-123378600D02*
X151815800Y-124013600D01*
X149910800Y-123418600D02*
X151180800Y-123418600D01*
X151180800Y-120878600D02*
X151815800Y-121513600D01*
X149275800Y-120283600D02*
X149275800Y-119013600D01*
X149910800Y-120918600D02*
X149275800Y-120283600D01*
X151815800Y-122783600D02*
X151180800Y-123418600D01*
X151815800Y-120283600D02*
X151180800Y-120918600D01*
X149275800Y-119013600D02*
X149910800Y-118378600D01*
X149910800Y-125918600D02*
X151180800Y-125918600D01*
X149910800Y-118378600D02*
X151180800Y-118378600D01*
X151815800Y-121513600D02*
X151815800Y-122783600D01*
X151815800Y-119013600D02*
X151815800Y-120283600D01*
X151815800Y-124013600D02*
X151815800Y-125283600D01*
X151815800Y-125283600D02*
X151180800Y-125918600D01*
X149275800Y-125283600D02*
X149275800Y-124013600D01*
X151180800Y-118378600D02*
X151815800Y-119013600D01*
X149910800Y-123418600D02*
X149275800Y-122783600D01*
X149275800Y-121513600D02*
X149910800Y-120878600D01*
%TO.C,JP4*%
X118478300Y-116433600D02*
X118478300Y-117703600D01*
X115938300Y-120243600D02*
X115938300Y-118973600D01*
X117843300Y-118338600D02*
X118478300Y-118973600D01*
X117843300Y-108178600D02*
X118478300Y-108813600D01*
X117843300Y-123418600D02*
X118478300Y-122783600D01*
X115938300Y-112623600D02*
X115938300Y-111353600D01*
X115938300Y-113893600D02*
X116573300Y-113258600D01*
X116573300Y-118338600D02*
X117843300Y-118338600D01*
X118478300Y-117703600D02*
X117843300Y-118338600D01*
X115938300Y-121513600D02*
X116573300Y-120878600D01*
X117843300Y-110718600D02*
X118478300Y-111353600D01*
X118478300Y-108813600D02*
X118478300Y-110083600D01*
X118478300Y-121513600D02*
X118478300Y-122783600D01*
X115938300Y-127863600D02*
X115938300Y-126593600D01*
X118478300Y-127863600D02*
X117843300Y-128498600D01*
X117843300Y-125958600D02*
X118478300Y-126593600D01*
X116573300Y-105638600D02*
X117843300Y-105638600D01*
X118478300Y-118973600D02*
X118478300Y-120243600D01*
X115938300Y-117703600D02*
X115938300Y-116433600D01*
X118478300Y-126593600D02*
X118478300Y-127863600D01*
X116573300Y-120878600D02*
X115938300Y-120243600D01*
X115938300Y-116433600D02*
X116573300Y-115798600D01*
X118478300Y-111353600D02*
X118478300Y-112623600D01*
X115938300Y-107543600D02*
X116573300Y-108178600D01*
X117843300Y-105638600D02*
X118478300Y-106273600D01*
X115938300Y-130403600D02*
X116573300Y-131038600D01*
X118478300Y-113893600D02*
X118478300Y-115163600D01*
X115938300Y-125323600D02*
X115938300Y-124053600D01*
X118478300Y-112623600D02*
X117843300Y-113258600D01*
X116573300Y-128498600D02*
X115938300Y-127863600D01*
X115938300Y-108813600D02*
X116573300Y-108178600D01*
X118478300Y-106273600D02*
X118478300Y-107543600D01*
X116573300Y-115798600D02*
X117843300Y-115798600D01*
X115938300Y-107543600D02*
X115938300Y-106273600D01*
X116573300Y-110718600D02*
X115938300Y-110083600D01*
X116573300Y-125958600D02*
X115938300Y-125323600D01*
X116573300Y-120878600D02*
X117843300Y-120878600D01*
X117843300Y-123418600D02*
X118478300Y-124053600D01*
X117843300Y-115798600D02*
X118478300Y-115163600D01*
X115938300Y-124053600D02*
X116573300Y-123418600D01*
X116573300Y-113258600D02*
X117843300Y-113258600D01*
X116573300Y-123418600D02*
X117843300Y-123418600D01*
X116573300Y-108178600D02*
X117843300Y-108178600D01*
X116573300Y-110718600D02*
X117843300Y-110718600D01*
X115938300Y-122783600D02*
X116573300Y-123418600D01*
X117843300Y-113258600D02*
X118478300Y-113893600D01*
X115938300Y-111353600D02*
X116573300Y-110718600D01*
X115938300Y-118973600D02*
X116573300Y-118338600D01*
X118478300Y-125323600D02*
X117843300Y-125958600D01*
X116573300Y-128498600D02*
X117843300Y-128498600D01*
X115938300Y-106273600D02*
X116573300Y-105638600D01*
X115938300Y-122783600D02*
X115938300Y-121513600D01*
X118478300Y-110083600D02*
X117843300Y-110718600D01*
X115938300Y-126593600D02*
X116573300Y-125958600D01*
X117843300Y-120878600D02*
X118478300Y-121513600D01*
X117843300Y-128498600D02*
X118478300Y-129133600D01*
X117843300Y-115798600D02*
X118478300Y-116433600D01*
X115938300Y-130403600D02*
X115938300Y-129133600D01*
X118478300Y-124053600D02*
X118478300Y-125323600D01*
X116573300Y-125958600D02*
X117843300Y-125958600D01*
X118478300Y-129133600D02*
X118478300Y-130403600D01*
X116573300Y-118338600D02*
X115938300Y-117703600D01*
X115938300Y-129133600D02*
X116573300Y-128498600D01*
X116573300Y-131038600D02*
X117843300Y-131038600D01*
X115938300Y-115163600D02*
X115938300Y-113893600D01*
X115938300Y-115163600D02*
X116573300Y-115798600D01*
X115938300Y-110083600D02*
X115938300Y-108813600D01*
X118478300Y-120243600D02*
X117843300Y-120878600D01*
X117843300Y-131038600D02*
X118478300Y-130403600D01*
X116573300Y-113258600D02*
X115938300Y-112623600D01*
X117843300Y-108178600D02*
X118478300Y-107543600D01*
%TO.C,JP3A0*%
G36*
X125285500Y-88909900D02*
G01*
X124777500Y-88909900D01*
X124777500Y-88401900D01*
X125285500Y-88401900D01*
X125285500Y-88909900D01*
G37*
G36*
X125285500Y-92909900D02*
G01*
X124777500Y-92909900D01*
X124777500Y-92401900D01*
X125285500Y-92401900D01*
X125285500Y-92909900D01*
G37*
G36*
X125285500Y-98909900D02*
G01*
X124777500Y-98909900D01*
X124777500Y-98401900D01*
X125285500Y-98401900D01*
X125285500Y-98909900D01*
G37*
G36*
X125285500Y-84909900D02*
G01*
X124777500Y-84909900D01*
X124777500Y-84401900D01*
X125285500Y-84401900D01*
X125285500Y-84909900D01*
G37*
G36*
X125285500Y-96909900D02*
G01*
X124777500Y-96909900D01*
X124777500Y-96401900D01*
X125285500Y-96401900D01*
X125285500Y-96909900D01*
G37*
G36*
X125285500Y-86909900D02*
G01*
X124777500Y-86909900D01*
X124777500Y-86401900D01*
X125285500Y-86401900D01*
X125285500Y-86909900D01*
G37*
G36*
X125285500Y-90909900D02*
G01*
X124777500Y-90909900D01*
X124777500Y-90401900D01*
X125285500Y-90401900D01*
X125285500Y-90909900D01*
G37*
G36*
X125285500Y-94909900D02*
G01*
X124777500Y-94909900D01*
X124777500Y-94401900D01*
X125285500Y-94401900D01*
X125285500Y-94909900D01*
G37*
D23*
%TO.C,ARD1*%
X181343300Y-129133600D02*
X183883300Y-126593600D01*
X181343300Y-79603600D02*
X180073300Y-78333600D01*
X115938300Y-131673600D02*
X180708300Y-131673600D01*
X115303300Y-78968600D02*
X115303300Y-131038600D01*
X181343300Y-131038600D02*
X181343300Y-129133600D01*
X180073300Y-78333600D02*
X115938300Y-78333600D01*
X115303300Y-131038600D02*
X115938300Y-131673600D01*
X181343300Y-91033600D02*
X181343300Y-79603600D01*
X183883300Y-126593600D02*
X183883300Y-93573600D01*
X115938300Y-78333600D02*
X115303300Y-78968600D01*
X183883300Y-93573600D02*
X181343300Y-91033600D01*
X180708300Y-131673600D02*
X181343300Y-131038600D01*
%TO.C,JP8A0*%
G36*
X174574200Y-93903300D02*
G01*
X174066200Y-93903300D01*
X174066200Y-93395300D01*
X174574200Y-93395300D01*
X174574200Y-93903300D01*
G37*
G36*
X174574200Y-89903300D02*
G01*
X174066200Y-89903300D01*
X174066200Y-89395300D01*
X174574200Y-89395300D01*
X174574200Y-89903300D01*
G37*
G36*
X174574200Y-91903300D02*
G01*
X174066200Y-91903300D01*
X174066200Y-91395300D01*
X174574200Y-91395300D01*
X174574200Y-91903300D01*
G37*
G36*
X174574200Y-87903300D02*
G01*
X174066200Y-87903300D01*
X174066200Y-87395300D01*
X174574200Y-87395300D01*
X174574200Y-87903300D01*
G37*
G36*
X174574200Y-85903300D02*
G01*
X174066200Y-85903300D01*
X174066200Y-85395300D01*
X174574200Y-85395300D01*
X174574200Y-85903300D01*
G37*
%TD*%
M02*
