%TF.GenerationSoftware,KiCad,Pcbnew,7.0.10*%
%TF.CreationDate,2024-02-02T23:20:54-05:00*%
%TF.ProjectId,ayab-esp32,61796162-2d65-4737-9033-322e6b696361,rev?*%
%TF.SameCoordinates,PX2be61f8PY9c01778*%
%TF.FileFunction,Paste,Top*%
%TF.FilePolarity,Positive*%
%FSLAX46Y46*%
G04 Gerber Fmt 4.6, Leading zero omitted, Abs format (unit mm)*
G04 Created by KiCad (PCBNEW 7.0.10) date 2024-02-02 23:20:54*
%MOMM*%
%LPD*%
G01*
G04 APERTURE LIST*
G04 Aperture macros list*
%AMRoundRect*
0 Rectangle with rounded corners*
0 $1 Rounding radius*
0 $2 $3 $4 $5 $6 $7 $8 $9 X,Y pos of 4 corners*
0 Add a 4 corners polygon primitive as box body*
4,1,4,$2,$3,$4,$5,$6,$7,$8,$9,$2,$3,0*
0 Add four circle primitives for the rounded corners*
1,1,$1+$1,$2,$3*
1,1,$1+$1,$4,$5*
1,1,$1+$1,$6,$7*
1,1,$1+$1,$8,$9*
0 Add four rect primitives between the rounded corners*
20,1,$1+$1,$2,$3,$4,$5,0*
20,1,$1+$1,$4,$5,$6,$7,0*
20,1,$1+$1,$6,$7,$8,$9,0*
20,1,$1+$1,$8,$9,$2,$3,0*%
%AMFreePoly0*
4,1,6,0.600000,-0.600000,-0.600000,-0.600000,-0.600000,0.000000,0.000000,0.600000,0.600000,0.600000,0.600000,-0.600000,0.600000,-0.600000,$1*%
G04 Aperture macros list end*
%ADD10RoundRect,0.225000X0.225000X0.250000X-0.225000X0.250000X-0.225000X-0.250000X0.225000X-0.250000X0*%
%ADD11RoundRect,0.200000X0.275000X-0.200000X0.275000X0.200000X-0.275000X0.200000X-0.275000X-0.200000X0*%
%ADD12RoundRect,0.200000X0.200000X0.275000X-0.200000X0.275000X-0.200000X-0.275000X0.200000X-0.275000X0*%
%ADD13RoundRect,0.200000X-0.200000X-0.275000X0.200000X-0.275000X0.200000X0.275000X-0.200000X0.275000X0*%
%ADD14C,1.520000*%
%ADD15C,2.500000*%
%ADD16RoundRect,0.150000X0.150000X-0.825000X0.150000X0.825000X-0.150000X0.825000X-0.150000X-0.825000X0*%
%ADD17RoundRect,0.250000X-0.475000X0.250000X-0.475000X-0.250000X0.475000X-0.250000X0.475000X0.250000X0*%
%ADD18RoundRect,0.250000X0.475000X-0.250000X0.475000X0.250000X-0.475000X0.250000X-0.475000X-0.250000X0*%
%ADD19C,1.500000*%
%ADD20RoundRect,0.225000X-0.225000X-0.250000X0.225000X-0.250000X0.225000X0.250000X-0.225000X0.250000X0*%
%ADD21RoundRect,0.150000X-0.150000X0.825000X-0.150000X-0.825000X0.150000X-0.825000X0.150000X0.825000X0*%
%ADD22RoundRect,0.218750X0.218750X0.256250X-0.218750X0.256250X-0.218750X-0.256250X0.218750X-0.256250X0*%
%ADD23RoundRect,0.150000X-0.625000X0.150000X-0.625000X-0.150000X0.625000X-0.150000X0.625000X0.150000X0*%
%ADD24RoundRect,0.250000X-0.650000X0.350000X-0.650000X-0.350000X0.650000X-0.350000X0.650000X0.350000X0*%
%ADD25RoundRect,0.200000X-0.275000X0.200000X-0.275000X-0.200000X0.275000X-0.200000X0.275000X0.200000X0*%
%ADD26R,2.800000X2.800000*%
%ADD27RoundRect,0.150000X0.150000X-0.587500X0.150000X0.587500X-0.150000X0.587500X-0.150000X-0.587500X0*%
%ADD28RoundRect,0.225000X-0.250000X0.225000X-0.250000X-0.225000X0.250000X-0.225000X0.250000X0.225000X0*%
%ADD29RoundRect,0.243750X-0.243750X-0.456250X0.243750X-0.456250X0.243750X0.456250X-0.243750X0.456250X0*%
%ADD30RoundRect,0.218750X-0.218750X-0.256250X0.218750X-0.256250X0.218750X0.256250X-0.218750X0.256250X0*%
%ADD31RoundRect,0.150000X-0.150000X0.587500X-0.150000X-0.587500X0.150000X-0.587500X0.150000X0.587500X0*%
%ADD32RoundRect,0.225000X0.250000X-0.225000X0.250000X0.225000X-0.250000X0.225000X-0.250000X-0.225000X0*%
%ADD33R,0.600000X1.450000*%
%ADD34R,0.300000X1.450000*%
%ADD35R,5.400000X2.900000*%
%ADD36R,0.840000X2.240000*%
%ADD37R,2.400000X2.400000*%
%ADD38R,0.650000X0.400000*%
%ADD39RoundRect,0.150000X0.150000X-0.512500X0.150000X0.512500X-0.150000X0.512500X-0.150000X-0.512500X0*%
%ADD40RoundRect,0.150000X-0.825000X-0.150000X0.825000X-0.150000X0.825000X0.150000X-0.825000X0.150000X0*%
%ADD41C,1.900000*%
%ADD42RoundRect,0.250000X0.250000X0.475000X-0.250000X0.475000X-0.250000X-0.475000X0.250000X-0.475000X0*%
%ADD43RoundRect,0.250000X1.000000X0.650000X-1.000000X0.650000X-1.000000X-0.650000X1.000000X-0.650000X0*%
%ADD44R,1.750000X0.450000*%
%ADD45RoundRect,0.250000X0.650000X-1.000000X0.650000X1.000000X-0.650000X1.000000X-0.650000X-1.000000X0*%
%ADD46RoundRect,0.075000X-0.662500X-0.075000X0.662500X-0.075000X0.662500X0.075000X-0.662500X0.075000X0*%
%ADD47RoundRect,0.150000X-0.150000X-0.625000X0.150000X-0.625000X0.150000X0.625000X-0.150000X0.625000X0*%
%ADD48RoundRect,0.250000X-0.350000X-0.650000X0.350000X-0.650000X0.350000X0.650000X-0.350000X0.650000X0*%
%ADD49RoundRect,0.150000X-0.587500X-0.150000X0.587500X-0.150000X0.587500X0.150000X-0.587500X0.150000X0*%
%ADD50R,0.800000X0.400000*%
%ADD51R,0.400000X0.800000*%
%ADD52FreePoly0,0.000000*%
%ADD53R,1.200000X1.200000*%
%ADD54R,0.800000X0.800000*%
G04 APERTURE END LIST*
D10*
%TO.C,C501*%
X202243648Y11223864D03*
X200693648Y11223864D03*
%TD*%
D11*
%TO.C,R809*%
X45768648Y33573864D03*
X45768648Y35223864D03*
%TD*%
D12*
%TO.C,R813*%
X167543648Y26608864D03*
X165893648Y26608864D03*
%TD*%
D11*
%TO.C,R807*%
X227033248Y7283864D03*
X227033248Y8933864D03*
%TD*%
D13*
%TO.C,R207*%
X188468648Y36808864D03*
X190118648Y36808864D03*
%TD*%
D14*
%TO.C,SW203*%
X145678648Y44353864D03*
X150178648Y44353864D03*
D15*
X144428648Y41853864D03*
X151428648Y41853864D03*
%TD*%
D16*
%TO.C,U702*%
X36696448Y26555864D03*
X37966448Y26555864D03*
X39236448Y26555864D03*
X40506448Y26555864D03*
X40506448Y31505864D03*
X39236448Y31505864D03*
X37966448Y31505864D03*
X36696448Y31505864D03*
%TD*%
D12*
%TO.C,R203*%
X196998648Y27878864D03*
X195348648Y27878864D03*
%TD*%
D17*
%TO.C,C610*%
X259873048Y39183864D03*
X259873048Y37283864D03*
%TD*%
D12*
%TO.C,R706*%
X135681148Y8908130D03*
X134031148Y8908130D03*
%TD*%
D18*
%TO.C,C621*%
X230428648Y31783864D03*
X230428648Y33683864D03*
%TD*%
D13*
%TO.C,R604*%
X263263648Y30233864D03*
X264913648Y30233864D03*
%TD*%
D18*
%TO.C,C602*%
X226998648Y40803864D03*
X226998648Y42703864D03*
%TD*%
D19*
%TO.C,J412*%
X295327698Y11550054D03*
X293327698Y11550054D03*
X291327698Y11550054D03*
%TD*%
D12*
%TO.C,R720*%
X41256448Y33555864D03*
X39606448Y33555864D03*
%TD*%
D20*
%TO.C,C502*%
X208368648Y12698864D03*
X209918648Y12698864D03*
%TD*%
D17*
%TO.C,C303*%
X71643648Y23208864D03*
X71643648Y21308864D03*
%TD*%
D21*
%TO.C,U304*%
X57263648Y26733864D03*
X55993648Y26733864D03*
X54723648Y26733864D03*
X53453648Y26733864D03*
X52183648Y26733864D03*
X50913648Y26733864D03*
X49643648Y26733864D03*
X48373648Y26733864D03*
X48373648Y21783864D03*
X49643648Y21783864D03*
X50913648Y21783864D03*
X52183648Y21783864D03*
X53453648Y21783864D03*
X54723648Y21783864D03*
X55993648Y21783864D03*
X57263648Y21783864D03*
%TD*%
D11*
%TO.C,R810*%
X48918648Y33558864D03*
X48918648Y35208864D03*
%TD*%
D22*
%TO.C,D604*%
X234746148Y30243864D03*
X233171148Y30243864D03*
%TD*%
D23*
%TO.C,J805*%
X158518648Y22558864D03*
X158518648Y21558864D03*
X158518648Y20558864D03*
X158518648Y19558864D03*
X158518648Y18558864D03*
X158518648Y17558864D03*
D24*
X154643648Y23858864D03*
X154643648Y16258864D03*
%TD*%
D11*
%TO.C,R734*%
X265278648Y5508864D03*
X265278648Y7158864D03*
%TD*%
D12*
%TO.C,R710*%
X135681148Y5666464D03*
X134031148Y5666464D03*
%TD*%
D25*
%TO.C,R730*%
X263728648Y7158864D03*
X263728648Y5508864D03*
%TD*%
D13*
%TO.C,R206*%
X165893648Y35633864D03*
X167543648Y35633864D03*
%TD*%
D18*
%TO.C,C601*%
X259838648Y40783864D03*
X259838648Y42683864D03*
%TD*%
D12*
%TO.C,R707*%
X132631148Y7287297D03*
X130981148Y7287297D03*
%TD*%
D21*
%TO.C,U303*%
X69813648Y26733864D03*
X68543648Y26733864D03*
X67273648Y26733864D03*
X66003648Y26733864D03*
X64733648Y26733864D03*
X63463648Y26733864D03*
X62193648Y26733864D03*
X60923648Y26733864D03*
X60923648Y21783864D03*
X62193648Y21783864D03*
X63463648Y21783864D03*
X64733648Y21783864D03*
X66003648Y21783864D03*
X67273648Y21783864D03*
X68543648Y21783864D03*
X69813648Y21783864D03*
%TD*%
D13*
%TO.C,R209*%
X165893648Y29908864D03*
X167543648Y29908864D03*
%TD*%
D26*
%TO.C,J601*%
X240573648Y4449064D03*
X240573648Y10549064D03*
X251573648Y4449064D03*
X251573648Y10549064D03*
%TD*%
D12*
%TO.C,R704*%
X135681148Y10528963D03*
X134031148Y10528963D03*
%TD*%
D19*
%TO.C,J410*%
X120828648Y9773864D03*
X118328648Y9773864D03*
X115828648Y9773864D03*
X113328648Y9773864D03*
X110828648Y9773864D03*
%TD*%
D12*
%TO.C,R204*%
X196998648Y25663864D03*
X195348648Y25663864D03*
%TD*%
D27*
%TO.C,Q502*%
X211468648Y8611364D03*
X213368648Y8611364D03*
X212418648Y10486364D03*
%TD*%
D11*
%TO.C,R606*%
X258798648Y32138864D03*
X258798648Y33788864D03*
%TD*%
D12*
%TO.C,R703*%
X132631148Y10528963D03*
X130981148Y10528963D03*
%TD*%
D19*
%TO.C,J411*%
X24229648Y17677864D03*
X22229648Y17677864D03*
X20229648Y17677864D03*
%TD*%
D18*
%TO.C,C617*%
X234528648Y31793864D03*
X234528648Y33693864D03*
%TD*%
D13*
%TO.C,R605*%
X230103648Y30243864D03*
X231753648Y30243864D03*
%TD*%
%TO.C,R724*%
X39606448Y35105864D03*
X41256448Y35105864D03*
%TD*%
D25*
%TO.C,R801*%
X227033248Y11983864D03*
X227033248Y10333864D03*
%TD*%
D28*
%TO.C,C615*%
X228628648Y33728864D03*
X228628648Y32178864D03*
%TD*%
D20*
%TO.C,C202*%
X188518648Y38383864D03*
X190068648Y38383864D03*
%TD*%
D12*
%TO.C,R708*%
X135681148Y7287297D03*
X134031148Y7287297D03*
%TD*%
D25*
%TO.C,R211*%
X191978648Y12258864D03*
X191978648Y10608864D03*
%TD*%
D11*
%TO.C,R721*%
X265278648Y8558864D03*
X265278648Y10208864D03*
%TD*%
D29*
%TO.C,D201*%
X191723648Y30063864D03*
X193598648Y30063864D03*
%TD*%
D20*
%TO.C,C201*%
X188493648Y30213864D03*
X190043648Y30213864D03*
%TD*%
D25*
%TO.C,R503*%
X211443648Y4036364D03*
X211443648Y2386364D03*
%TD*%
D13*
%TO.C,R804*%
X228518248Y11303864D03*
X230168248Y11303864D03*
%TD*%
D17*
%TO.C,C302*%
X59093648Y23208864D03*
X59093648Y21308864D03*
%TD*%
D10*
%TO.C,C204*%
X167493648Y38708864D03*
X165943648Y38708864D03*
%TD*%
D18*
%TO.C,C616*%
X267708648Y31803864D03*
X267708648Y33703864D03*
%TD*%
%TO.C,C603*%
X46526248Y25321464D03*
X46526248Y27221464D03*
%TD*%
D11*
%TO.C,R722*%
X275878648Y5508864D03*
X275878648Y7158864D03*
%TD*%
D29*
%TO.C,D202*%
X191723648Y27873864D03*
X193598648Y27873864D03*
%TD*%
D13*
%TO.C,R501*%
X200643648Y12748864D03*
X202293648Y12748864D03*
%TD*%
D20*
%TO.C,C702*%
X147428648Y9543864D03*
X148978648Y9543864D03*
%TD*%
D13*
%TO.C,R814*%
X165893648Y28258864D03*
X167543648Y28258864D03*
%TD*%
D12*
%TO.C,R803*%
X235183648Y11273864D03*
X233533648Y11273864D03*
%TD*%
D13*
%TO.C,R728*%
X39606448Y21380864D03*
X41256448Y21380864D03*
%TD*%
D30*
%TO.C,D602*%
X254750498Y12378064D03*
X256325498Y12378064D03*
%TD*%
D13*
%TO.C,R210*%
X165893648Y31558864D03*
X167543648Y31558864D03*
%TD*%
D31*
%TO.C,Q802*%
X235533648Y9473864D03*
X233633648Y9473864D03*
X234583648Y7598864D03*
%TD*%
D32*
%TO.C,C305*%
X71718648Y37133864D03*
X71718648Y38683864D03*
%TD*%
D12*
%TO.C,R711*%
X132631148Y4045631D03*
X130981148Y4045631D03*
%TD*%
%TO.C,R705*%
X132631148Y8908130D03*
X130981148Y8908130D03*
%TD*%
%TO.C,R212*%
X195998648Y8573864D03*
X194348648Y8573864D03*
%TD*%
D14*
%TO.C,SW201*%
X122398648Y44353864D03*
X126898648Y44353864D03*
D15*
X121148648Y41853864D03*
X128148648Y41853864D03*
%TD*%
D10*
%TO.C,C703*%
X38156448Y35105864D03*
X36606448Y35105864D03*
%TD*%
D25*
%TO.C,R609*%
X227078648Y33778864D03*
X227078648Y32128864D03*
%TD*%
D33*
%TO.C,J501*%
X202068648Y7543864D03*
X202868648Y7543864D03*
D34*
X204068648Y7543864D03*
X205068648Y7543864D03*
X205568648Y7543864D03*
X206568648Y7543864D03*
D33*
X207768648Y7543864D03*
X208568648Y7543864D03*
X208568648Y7543864D03*
X207768648Y7543864D03*
D34*
X207068648Y7543864D03*
X206068648Y7543864D03*
X204568648Y7543864D03*
X203568648Y7543864D03*
D33*
X202868648Y7543864D03*
X202068648Y7543864D03*
%TD*%
D31*
%TO.C,Q801*%
X230493248Y9503864D03*
X228593248Y9503864D03*
X229543248Y7628864D03*
%TD*%
D25*
%TO.C,R726*%
X277428648Y7158864D03*
X277428648Y5508864D03*
%TD*%
%TO.C,R812*%
X44208648Y35223864D03*
X44208648Y33573864D03*
%TD*%
D12*
%TO.C,R201*%
X190093648Y28663864D03*
X188443648Y28663864D03*
%TD*%
D25*
%TO.C,R502*%
X213193648Y4036364D03*
X213193648Y2386364D03*
%TD*%
D13*
%TO.C,R715*%
X36556448Y24480864D03*
X38206448Y24480864D03*
%TD*%
D14*
%TO.C,SW202*%
X134038648Y44353864D03*
X138538648Y44353864D03*
D15*
X132788648Y41853864D03*
X139788648Y41853864D03*
%TD*%
D13*
%TO.C,R611*%
X263263648Y28693864D03*
X264913648Y28693864D03*
%TD*%
D32*
%TO.C,C704*%
X277428648Y8608864D03*
X277428648Y10158864D03*
%TD*%
D25*
%TO.C,R729*%
X263728648Y10208864D03*
X263728648Y8558864D03*
%TD*%
D35*
%TO.C,L602*%
X242253048Y42208864D03*
X242253048Y32308864D03*
%TD*%
D18*
%TO.C,C604*%
X59093648Y25308864D03*
X59093648Y27208864D03*
%TD*%
%TO.C,C618*%
X265688648Y31803864D03*
X265688648Y33703864D03*
%TD*%
D11*
%TO.C,R718*%
X275878648Y8558864D03*
X275878648Y10208864D03*
%TD*%
D36*
%TO.C,D601*%
X254838648Y4253864D03*
X257378648Y4253864D03*
X257378648Y9893864D03*
X254838648Y9893864D03*
%TD*%
D12*
%TO.C,R806*%
X190103648Y32143864D03*
X188453648Y32143864D03*
%TD*%
D13*
%TO.C,R208*%
X188468648Y35233864D03*
X190118648Y35233864D03*
%TD*%
D12*
%TO.C,R205*%
X190113648Y39933864D03*
X188463648Y39933864D03*
%TD*%
D13*
%TO.C,R723*%
X36556448Y36655864D03*
X38206448Y36655864D03*
%TD*%
D11*
%TO.C,R607*%
X225538648Y32128864D03*
X225538648Y33778864D03*
%TD*%
D22*
%TO.C,D603*%
X267916148Y30223864D03*
X266341148Y30223864D03*
%TD*%
D35*
%TO.C,L601*%
X275348648Y42213864D03*
X275348648Y32313864D03*
%TD*%
D25*
%TO.C,R725*%
X278978648Y10208864D03*
X278978648Y8558864D03*
%TD*%
D37*
%TO.C,BUZZER201*%
X188643648Y2048864D03*
X188643648Y9248864D03*
X181443648Y9248864D03*
X181443648Y2048864D03*
%TD*%
D13*
%TO.C,R610*%
X230093648Y28713864D03*
X231743648Y28713864D03*
%TD*%
D12*
%TO.C,R202*%
X196998648Y30063864D03*
X195348648Y30063864D03*
%TD*%
D10*
%TO.C,C203*%
X167493648Y37183864D03*
X165943648Y37183864D03*
%TD*%
D12*
%TO.C,R709*%
X132631148Y5666464D03*
X130981148Y5666464D03*
%TD*%
D11*
%TO.C,R808*%
X232058648Y7273864D03*
X232058648Y8923864D03*
%TD*%
D18*
%TO.C,C620*%
X263658648Y31793864D03*
X263658648Y33693864D03*
%TD*%
D38*
%TO.C,Q501*%
X211368648Y6811364D03*
X211368648Y6161364D03*
X211368648Y5511364D03*
X213268648Y5511364D03*
X213268648Y6161364D03*
X213268648Y6811364D03*
%TD*%
D32*
%TO.C,C301*%
X60418648Y39138864D03*
X60418648Y40688864D03*
%TD*%
D28*
%TO.C,C614*%
X261888648Y33738864D03*
X261888648Y32188864D03*
%TD*%
D27*
%TO.C,Q803*%
X43858648Y36943864D03*
X45758648Y36943864D03*
X44808648Y38818864D03*
%TD*%
D13*
%TO.C,R805*%
X188458648Y33688864D03*
X190108648Y33688864D03*
%TD*%
D39*
%TO.C,U501*%
X204368648Y9861364D03*
X205318648Y9861364D03*
X206268648Y9861364D03*
X206268648Y12136364D03*
X205318648Y12136364D03*
X204368648Y12136364D03*
%TD*%
D12*
%TO.C,R716*%
X38206448Y33555864D03*
X36556448Y33555864D03*
%TD*%
D40*
%TO.C,U601*%
X262223048Y39138864D03*
X262223048Y37868864D03*
X262223048Y36598864D03*
X262223048Y35328864D03*
X267173048Y35328864D03*
X267173048Y36598864D03*
X267173048Y37868864D03*
X267173048Y39138864D03*
%TD*%
D41*
%TO.C,J409*%
X294853648Y5851364D03*
X292313648Y5851364D03*
X289773648Y5851364D03*
%TD*%
D21*
%TO.C,U302*%
X82363648Y26733864D03*
X81093648Y26733864D03*
X79823648Y26733864D03*
X78553648Y26733864D03*
X77283648Y26733864D03*
X76013648Y26733864D03*
X74743648Y26733864D03*
X73473648Y26733864D03*
X73473648Y21783864D03*
X74743648Y21783864D03*
X76013648Y21783864D03*
X77283648Y21783864D03*
X78553648Y21783864D03*
X79823648Y21783864D03*
X81093648Y21783864D03*
X82363648Y21783864D03*
%TD*%
D42*
%TO.C,C205*%
X167443648Y40508864D03*
X165543648Y40508864D03*
%TD*%
D13*
%TO.C,R727*%
X36556448Y21380864D03*
X38206448Y21380864D03*
%TD*%
D12*
%TO.C,R713*%
X132631148Y2424798D03*
X130981148Y2424798D03*
%TD*%
D41*
%TO.C,J414*%
X25768648Y24108864D03*
X23228648Y24108864D03*
X20688648Y24108864D03*
%TD*%
D43*
%TO.C,D605*%
X267023048Y41783864D03*
X263023048Y41783864D03*
%TD*%
D25*
%TO.C,R732*%
X266828648Y7158864D03*
X266828648Y5508864D03*
%TD*%
D17*
%TO.C,C611*%
X227003048Y39208864D03*
X227003048Y37308864D03*
%TD*%
D40*
%TO.C,U602*%
X229353048Y39158864D03*
X229353048Y37888864D03*
X229353048Y36618864D03*
X229353048Y35348864D03*
X234303048Y35348864D03*
X234303048Y36618864D03*
X234303048Y37888864D03*
X234303048Y39158864D03*
%TD*%
D44*
%TO.C,U301*%
X69693648Y32383864D03*
X69693648Y33033864D03*
X69693648Y33683864D03*
X69693648Y34333864D03*
X69693648Y34983864D03*
X69693648Y35633864D03*
X69693648Y36283864D03*
X69693648Y36933864D03*
X69693648Y37583864D03*
X69693648Y38233864D03*
X69693648Y38883864D03*
X69693648Y39533864D03*
X69693648Y40183864D03*
X69693648Y40833864D03*
X62493648Y40833864D03*
X62493648Y40183864D03*
X62493648Y39533864D03*
X62493648Y38883864D03*
X62493648Y38233864D03*
X62493648Y37583864D03*
X62493648Y36933864D03*
X62493648Y36283864D03*
X62493648Y35633864D03*
X62493648Y34983864D03*
X62493648Y34333864D03*
X62493648Y33683864D03*
X62493648Y33033864D03*
X62493648Y32383864D03*
%TD*%
D12*
%TO.C,R719*%
X38206448Y22930864D03*
X36556448Y22930864D03*
%TD*%
%TO.C,R701*%
X132631148Y12149798D03*
X130981148Y12149798D03*
%TD*%
D40*
%TO.C,U703*%
X268878648Y10088864D03*
X268878648Y8818864D03*
X268878648Y7548864D03*
X268878648Y6278864D03*
X273828648Y6278864D03*
X273828648Y7548864D03*
X273828648Y8818864D03*
X273828648Y10088864D03*
%TD*%
D45*
%TO.C,D204*%
X194898648Y2148864D03*
X194898648Y6148864D03*
%TD*%
D46*
%TO.C,U701*%
X147718648Y7973864D03*
X147718648Y7473864D03*
X147718648Y6973864D03*
X147718648Y6473864D03*
X147718648Y5973864D03*
X147718648Y5473864D03*
X147718648Y4973864D03*
X147718648Y4473864D03*
X147718648Y3973864D03*
X147718648Y3473864D03*
X147718648Y2973864D03*
X147718648Y2473864D03*
X153443648Y2473864D03*
X153443648Y2973864D03*
X153443648Y3473864D03*
X153443648Y3973864D03*
X153443648Y4473864D03*
X153443648Y4973864D03*
X153443648Y5473864D03*
X153443648Y5973864D03*
X153443648Y6473864D03*
X153443648Y6973864D03*
X153443648Y7473864D03*
X153443648Y7973864D03*
%TD*%
D47*
%TO.C,J803*%
X228719048Y5248864D03*
X229719048Y5248864D03*
X230719048Y5248864D03*
X231719048Y5248864D03*
D48*
X227419048Y1373864D03*
X233019048Y1373864D03*
%TD*%
D12*
%TO.C,R733*%
X41256448Y22930864D03*
X39606448Y22930864D03*
%TD*%
D13*
%TO.C,R731*%
X39606448Y24480864D03*
X41256448Y24480864D03*
%TD*%
D25*
%TO.C,R811*%
X47348648Y35213864D03*
X47348648Y33563864D03*
%TD*%
D49*
%TO.C,Q201*%
X193803648Y12163864D03*
X193803648Y10263864D03*
X195678648Y11213864D03*
%TD*%
D13*
%TO.C,R815*%
X165893648Y24983864D03*
X167543648Y24983864D03*
%TD*%
%TO.C,R102*%
X208318648Y11148864D03*
X209968648Y11148864D03*
%TD*%
D43*
%TO.C,D606*%
X234028048Y41783864D03*
X230028048Y41783864D03*
%TD*%
D25*
%TO.C,R608*%
X260348648Y33788864D03*
X260348648Y32138864D03*
%TD*%
D13*
%TO.C,R504*%
X208318648Y9598864D03*
X209968648Y9598864D03*
%TD*%
D18*
%TO.C,C605*%
X71643648Y25308864D03*
X71643648Y27208864D03*
%TD*%
D27*
%TO.C,Q804*%
X47378648Y36933864D03*
X49278648Y36933864D03*
X48328648Y38808864D03*
%TD*%
D17*
%TO.C,C304*%
X46518648Y23208864D03*
X46518648Y21308864D03*
%TD*%
D12*
%TO.C,R714*%
X135681148Y2424798D03*
X134031148Y2424798D03*
%TD*%
%TO.C,R101*%
X202293648Y9698864D03*
X200643648Y9698864D03*
%TD*%
%TO.C,R712*%
X135681148Y4045631D03*
X134031148Y4045631D03*
%TD*%
%TO.C,R702*%
X135681148Y12149798D03*
X134031148Y12149798D03*
%TD*%
D20*
%TO.C,C701*%
X155263648Y7983864D03*
X156813648Y7983864D03*
%TD*%
D13*
%TO.C,R816*%
X43743648Y40643864D03*
X45393648Y40643864D03*
%TD*%
D50*
%TO.C,U201*%
X171093648Y39858864D03*
X171093648Y39008864D03*
X171093648Y38158864D03*
X171093648Y37308864D03*
X171093648Y36458864D03*
X171093648Y35608864D03*
X171093648Y34758864D03*
X171093648Y33908864D03*
X171093648Y33058864D03*
X171093648Y32208864D03*
X171093648Y31358864D03*
X171093648Y30508864D03*
X171093648Y29658864D03*
X171093648Y28808864D03*
X171093648Y27958864D03*
D51*
X172143648Y26908864D03*
X172993648Y26908864D03*
X173843648Y26908864D03*
X174693648Y26908864D03*
X175543648Y26908864D03*
X176393648Y26908864D03*
X177243648Y26908864D03*
X178093648Y26908864D03*
X178943648Y26908864D03*
X179793648Y26908864D03*
X180643648Y26908864D03*
X181493648Y26908864D03*
X182343648Y26908864D03*
X183193648Y26908864D03*
X184043648Y26908864D03*
D50*
X185093648Y27958864D03*
X185093648Y28808864D03*
X185093648Y29658864D03*
X185093648Y30508864D03*
X185093648Y31358864D03*
X185093648Y32208864D03*
X185093648Y33058864D03*
X185093648Y33908864D03*
X185093648Y34758864D03*
X185093648Y35608864D03*
X185093648Y36458864D03*
X185093648Y37308864D03*
X185093648Y38158864D03*
X185093648Y39008864D03*
X185093648Y39858864D03*
D51*
X184043648Y40908864D03*
X183193648Y40908864D03*
X182343648Y40908864D03*
X181493648Y40908864D03*
X180643648Y40908864D03*
X179793648Y40908864D03*
X178943648Y40908864D03*
X178093648Y40908864D03*
X177243648Y40908864D03*
X176393648Y40908864D03*
X175543648Y40908864D03*
X174693648Y40908864D03*
X173843648Y40908864D03*
X172993648Y40908864D03*
X172143648Y40908864D03*
D52*
X176443648Y35558864D03*
D53*
X176443648Y33908864D03*
X176443648Y32258864D03*
X178093648Y35558864D03*
X178093648Y33908864D03*
X178093648Y32258864D03*
X179743648Y35558864D03*
X179743648Y33908864D03*
X179743648Y32258864D03*
D54*
X171093648Y40908864D03*
X171093648Y26908864D03*
X185093648Y26908864D03*
X185093648Y40908864D03*
%TD*%
D12*
%TO.C,R817*%
X48448648Y40633864D03*
X46798648Y40633864D03*
%TD*%
D25*
%TO.C,R717*%
X266828648Y10208864D03*
X266828648Y8558864D03*
%TD*%
D18*
%TO.C,C619*%
X232478648Y31793864D03*
X232478648Y33693864D03*
%TD*%
D25*
%TO.C,R802*%
X232058648Y11973864D03*
X232058648Y10323864D03*
%TD*%
D12*
%TO.C,R603*%
X259461798Y12378064D03*
X257811798Y12378064D03*
%TD*%
D29*
%TO.C,D203*%
X191723648Y25663864D03*
X193598648Y25663864D03*
%TD*%
M02*
