%TF.GenerationSoftware,KiCad,Pcbnew,7.0.10*%
%TF.CreationDate,2024-02-02T23:20:54-05:00*%
%TF.ProjectId,ayab-esp32,61796162-2d65-4737-9033-322e6b696361,rev?*%
%TF.SameCoordinates,PX2be61f8PY9c01778*%
%TF.FileFunction,Soldermask,Top*%
%TF.FilePolarity,Negative*%
%FSLAX46Y46*%
G04 Gerber Fmt 4.6, Leading zero omitted, Abs format (unit mm)*
G04 Created by KiCad (PCBNEW 7.0.10) date 2024-02-02 23:20:54*
%MOMM*%
%LPD*%
G01*
G04 APERTURE LIST*
G04 Aperture macros list*
%AMRoundRect*
0 Rectangle with rounded corners*
0 $1 Rounding radius*
0 $2 $3 $4 $5 $6 $7 $8 $9 X,Y pos of 4 corners*
0 Add a 4 corners polygon primitive as box body*
4,1,4,$2,$3,$4,$5,$6,$7,$8,$9,$2,$3,0*
0 Add four circle primitives for the rounded corners*
1,1,$1+$1,$2,$3*
1,1,$1+$1,$4,$5*
1,1,$1+$1,$6,$7*
1,1,$1+$1,$8,$9*
0 Add four rect primitives between the rounded corners*
20,1,$1+$1,$2,$3,$4,$5,0*
20,1,$1+$1,$4,$5,$6,$7,0*
20,1,$1+$1,$6,$7,$8,$9,0*
20,1,$1+$1,$8,$9,$2,$3,0*%
%AMFreePoly0*
4,1,19,0.550000,-0.750000,0.000000,-0.750000,0.000000,-0.744911,-0.071157,-0.744911,-0.207708,-0.704816,-0.327430,-0.627875,-0.420627,-0.520320,-0.479746,-0.390866,-0.500000,-0.250000,-0.500000,0.250000,-0.479746,0.390866,-0.420627,0.520320,-0.327430,0.627875,-0.207708,0.704816,-0.071157,0.744911,0.000000,0.744911,0.000000,0.750000,0.550000,0.750000,0.550000,-0.750000,0.550000,-0.750000,
$1*%
%AMFreePoly1*
4,1,19,0.000000,0.744911,0.071157,0.744911,0.207708,0.704816,0.327430,0.627875,0.420627,0.520320,0.479746,0.390866,0.500000,0.250000,0.500000,-0.250000,0.479746,-0.390866,0.420627,-0.520320,0.327430,-0.627875,0.207708,-0.704816,0.071157,-0.744911,0.000000,-0.744911,0.000000,-0.750000,-0.550000,-0.750000,-0.550000,0.750000,0.000000,0.750000,0.000000,0.744911,0.000000,0.744911,
$1*%
%AMFreePoly2*
4,1,6,0.600000,-0.600000,-0.600000,-0.600000,-0.600000,0.000000,0.000000,0.600000,0.600000,0.600000,0.600000,-0.600000,0.600000,-0.600000,$1*%
G04 Aperture macros list end*
%ADD10C,0.150000*%
%ADD11R,1.600000X1.600000*%
%ADD12C,1.600000*%
%ADD13RoundRect,0.225000X0.225000X0.250000X-0.225000X0.250000X-0.225000X-0.250000X0.225000X-0.250000X0*%
%ADD14RoundRect,0.200000X0.275000X-0.200000X0.275000X0.200000X-0.275000X0.200000X-0.275000X-0.200000X0*%
%ADD15C,2.000000*%
%ADD16RoundRect,0.200000X0.200000X0.275000X-0.200000X0.275000X-0.200000X-0.275000X0.200000X-0.275000X0*%
%ADD17RoundRect,0.200000X-0.200000X-0.275000X0.200000X-0.275000X0.200000X0.275000X-0.200000X0.275000X0*%
%ADD18R,2.000000X2.000000*%
%ADD19C,1.520000*%
%ADD20C,2.500000*%
%ADD21C,1.000000*%
%ADD22RoundRect,0.150000X0.150000X-0.825000X0.150000X0.825000X-0.150000X0.825000X-0.150000X-0.825000X0*%
%ADD23RoundRect,0.250000X-0.475000X0.250000X-0.475000X-0.250000X0.475000X-0.250000X0.475000X0.250000X0*%
%ADD24RoundRect,0.250000X0.475000X-0.250000X0.475000X0.250000X-0.475000X0.250000X-0.475000X-0.250000X0*%
%ADD25C,1.500000*%
%ADD26R,1.400000X1.400000*%
%ADD27C,1.400000*%
%ADD28RoundRect,0.225000X-0.225000X-0.250000X0.225000X-0.250000X0.225000X0.250000X-0.225000X0.250000X0*%
%ADD29RoundRect,0.150000X-0.150000X0.825000X-0.150000X-0.825000X0.150000X-0.825000X0.150000X0.825000X0*%
%ADD30R,3.500000X3.500000*%
%ADD31C,3.500000*%
%ADD32RoundRect,0.218750X0.218750X0.256250X-0.218750X0.256250X-0.218750X-0.256250X0.218750X-0.256250X0*%
%ADD33RoundRect,0.150000X-0.625000X0.150000X-0.625000X-0.150000X0.625000X-0.150000X0.625000X0.150000X0*%
%ADD34RoundRect,0.250000X-0.650000X0.350000X-0.650000X-0.350000X0.650000X-0.350000X0.650000X0.350000X0*%
%ADD35RoundRect,0.200000X-0.275000X0.200000X-0.275000X-0.200000X0.275000X-0.200000X0.275000X0.200000X0*%
%ADD36C,1.800000*%
%ADD37R,2.800000X2.800000*%
%ADD38R,1.700000X1.700000*%
%ADD39O,1.700000X1.700000*%
%ADD40C,3.800000*%
%ADD41RoundRect,0.150000X0.150000X-0.587500X0.150000X0.587500X-0.150000X0.587500X-0.150000X-0.587500X0*%
%ADD42RoundRect,0.225000X-0.250000X0.225000X-0.250000X-0.225000X0.250000X-0.225000X0.250000X0.225000X0*%
%ADD43RoundRect,0.243750X-0.243750X-0.456250X0.243750X-0.456250X0.243750X0.456250X-0.243750X0.456250X0*%
%ADD44RoundRect,0.218750X-0.218750X-0.256250X0.218750X-0.256250X0.218750X0.256250X-0.218750X0.256250X0*%
%ADD45RoundRect,0.150000X-0.150000X0.587500X-0.150000X-0.587500X0.150000X-0.587500X0.150000X0.587500X0*%
%ADD46RoundRect,0.225000X0.250000X-0.225000X0.250000X0.225000X-0.250000X0.225000X-0.250000X-0.225000X0*%
%ADD47C,0.650000*%
%ADD48R,0.600000X1.450000*%
%ADD49R,0.300000X1.450000*%
%ADD50O,1.000000X2.100000*%
%ADD51O,1.000000X1.600000*%
%ADD52FreePoly0,180.000000*%
%ADD53R,1.000000X1.500000*%
%ADD54FreePoly1,180.000000*%
%ADD55R,5.400000X2.900000*%
%ADD56R,0.840000X2.240000*%
%ADD57R,2.400000X2.400000*%
%ADD58FreePoly0,270.000000*%
%ADD59R,1.500000X1.000000*%
%ADD60FreePoly1,270.000000*%
%ADD61R,1.350000X1.350000*%
%ADD62C,1.350000*%
%ADD63R,0.650000X0.400000*%
%ADD64RoundRect,0.150000X0.150000X-0.512500X0.150000X0.512500X-0.150000X0.512500X-0.150000X-0.512500X0*%
%ADD65RoundRect,0.150000X-0.825000X-0.150000X0.825000X-0.150000X0.825000X0.150000X-0.825000X0.150000X0*%
%ADD66C,1.900000*%
%ADD67RoundRect,0.250000X0.250000X0.475000X-0.250000X0.475000X-0.250000X-0.475000X0.250000X-0.475000X0*%
%ADD68RoundRect,0.250000X1.000000X0.650000X-1.000000X0.650000X-1.000000X-0.650000X1.000000X-0.650000X0*%
%ADD69R,1.750000X0.450000*%
%ADD70RoundRect,0.250000X0.650000X-1.000000X0.650000X1.000000X-0.650000X1.000000X-0.650000X-1.000000X0*%
%ADD71RoundRect,0.075000X-0.662500X-0.075000X0.662500X-0.075000X0.662500X0.075000X-0.662500X0.075000X0*%
%ADD72RoundRect,0.150000X-0.150000X-0.625000X0.150000X-0.625000X0.150000X0.625000X-0.150000X0.625000X0*%
%ADD73RoundRect,0.250000X-0.350000X-0.650000X0.350000X-0.650000X0.350000X0.650000X-0.350000X0.650000X0*%
%ADD74RoundRect,0.150000X-0.587500X-0.150000X0.587500X-0.150000X0.587500X0.150000X-0.587500X0.150000X0*%
%ADD75R,1.275000X1.275000*%
%ADD76C,1.275000*%
%ADD77R,0.800000X0.400000*%
%ADD78R,0.400000X0.800000*%
%ADD79FreePoly2,0.000000*%
%ADD80R,1.200000X1.200000*%
%ADD81R,0.800000X0.800000*%
G04 APERTURE END LIST*
D10*
X86733998Y21920712D02*
X86733998Y21111188D01*
X86733998Y21111188D02*
X86686379Y21015950D01*
X86686379Y21015950D02*
X86638760Y20968331D01*
X86638760Y20968331D02*
X86543522Y20920712D01*
X86543522Y20920712D02*
X86400665Y20920712D01*
X86400665Y20920712D02*
X86305427Y20968331D01*
X86733998Y21301664D02*
X86638760Y21254045D01*
X86638760Y21254045D02*
X86448284Y21254045D01*
X86448284Y21254045D02*
X86353046Y21301664D01*
X86353046Y21301664D02*
X86305427Y21349284D01*
X86305427Y21349284D02*
X86257808Y21444522D01*
X86257808Y21444522D02*
X86257808Y21730236D01*
X86257808Y21730236D02*
X86305427Y21825474D01*
X86305427Y21825474D02*
X86353046Y21873093D01*
X86353046Y21873093D02*
X86448284Y21920712D01*
X86448284Y21920712D02*
X86638760Y21920712D01*
X86638760Y21920712D02*
X86733998Y21873093D01*
X87210189Y21254045D02*
X87210189Y21920712D01*
X87210189Y22254045D02*
X87162570Y22206426D01*
X87162570Y22206426D02*
X87210189Y22158807D01*
X87210189Y22158807D02*
X87257808Y22206426D01*
X87257808Y22206426D02*
X87210189Y22254045D01*
X87210189Y22254045D02*
X87210189Y22158807D01*
X87543522Y21920712D02*
X87924474Y21920712D01*
X87686379Y22254045D02*
X87686379Y21396903D01*
X87686379Y21396903D02*
X87733998Y21301664D01*
X87733998Y21301664D02*
X87829236Y21254045D01*
X87829236Y21254045D02*
X87924474Y21254045D01*
X88257808Y21254045D02*
X88257808Y22254045D01*
X88686379Y21254045D02*
X88686379Y21777855D01*
X88686379Y21777855D02*
X88638760Y21873093D01*
X88638760Y21873093D02*
X88543522Y21920712D01*
X88543522Y21920712D02*
X88400665Y21920712D01*
X88400665Y21920712D02*
X88305427Y21873093D01*
X88305427Y21873093D02*
X88257808Y21825474D01*
X89591141Y21920712D02*
X89591141Y21254045D01*
X89162570Y21920712D02*
X89162570Y21396903D01*
X89162570Y21396903D02*
X89210189Y21301664D01*
X89210189Y21301664D02*
X89305427Y21254045D01*
X89305427Y21254045D02*
X89448284Y21254045D01*
X89448284Y21254045D02*
X89543522Y21301664D01*
X89543522Y21301664D02*
X89591141Y21349284D01*
X90067332Y21254045D02*
X90067332Y22254045D01*
X90067332Y21873093D02*
X90162570Y21920712D01*
X90162570Y21920712D02*
X90353046Y21920712D01*
X90353046Y21920712D02*
X90448284Y21873093D01*
X90448284Y21873093D02*
X90495903Y21825474D01*
X90495903Y21825474D02*
X90543522Y21730236D01*
X90543522Y21730236D02*
X90543522Y21444522D01*
X90543522Y21444522D02*
X90495903Y21349284D01*
X90495903Y21349284D02*
X90448284Y21301664D01*
X90448284Y21301664D02*
X90353046Y21254045D01*
X90353046Y21254045D02*
X90162570Y21254045D01*
X90162570Y21254045D02*
X90067332Y21301664D01*
X90972094Y21349284D02*
X91019713Y21301664D01*
X91019713Y21301664D02*
X90972094Y21254045D01*
X90972094Y21254045D02*
X90924475Y21301664D01*
X90924475Y21301664D02*
X90972094Y21349284D01*
X90972094Y21349284D02*
X90972094Y21254045D01*
X91876855Y21301664D02*
X91781617Y21254045D01*
X91781617Y21254045D02*
X91591141Y21254045D01*
X91591141Y21254045D02*
X91495903Y21301664D01*
X91495903Y21301664D02*
X91448284Y21349284D01*
X91448284Y21349284D02*
X91400665Y21444522D01*
X91400665Y21444522D02*
X91400665Y21730236D01*
X91400665Y21730236D02*
X91448284Y21825474D01*
X91448284Y21825474D02*
X91495903Y21873093D01*
X91495903Y21873093D02*
X91591141Y21920712D01*
X91591141Y21920712D02*
X91781617Y21920712D01*
X91781617Y21920712D02*
X91876855Y21873093D01*
X92448284Y21254045D02*
X92353046Y21301664D01*
X92353046Y21301664D02*
X92305427Y21349284D01*
X92305427Y21349284D02*
X92257808Y21444522D01*
X92257808Y21444522D02*
X92257808Y21730236D01*
X92257808Y21730236D02*
X92305427Y21825474D01*
X92305427Y21825474D02*
X92353046Y21873093D01*
X92353046Y21873093D02*
X92448284Y21920712D01*
X92448284Y21920712D02*
X92591141Y21920712D01*
X92591141Y21920712D02*
X92686379Y21873093D01*
X92686379Y21873093D02*
X92733998Y21825474D01*
X92733998Y21825474D02*
X92781617Y21730236D01*
X92781617Y21730236D02*
X92781617Y21444522D01*
X92781617Y21444522D02*
X92733998Y21349284D01*
X92733998Y21349284D02*
X92686379Y21301664D01*
X92686379Y21301664D02*
X92591141Y21254045D01*
X92591141Y21254045D02*
X92448284Y21254045D01*
X93210189Y21254045D02*
X93210189Y21920712D01*
X93210189Y21825474D02*
X93257808Y21873093D01*
X93257808Y21873093D02*
X93353046Y21920712D01*
X93353046Y21920712D02*
X93495903Y21920712D01*
X93495903Y21920712D02*
X93591141Y21873093D01*
X93591141Y21873093D02*
X93638760Y21777855D01*
X93638760Y21777855D02*
X93638760Y21254045D01*
X93638760Y21777855D02*
X93686379Y21873093D01*
X93686379Y21873093D02*
X93781617Y21920712D01*
X93781617Y21920712D02*
X93924474Y21920712D01*
X93924474Y21920712D02*
X94019713Y21873093D01*
X94019713Y21873093D02*
X94067332Y21777855D01*
X94067332Y21777855D02*
X94067332Y21254045D01*
X95257807Y22301664D02*
X94400665Y21015950D01*
X95543522Y21539760D02*
X96019712Y21539760D01*
X95448284Y21254045D02*
X95781617Y22254045D01*
X95781617Y22254045D02*
X96114950Y21254045D01*
X96591141Y21254045D02*
X96495903Y21301664D01*
X96495903Y21301664D02*
X96448284Y21396903D01*
X96448284Y21396903D02*
X96448284Y22254045D01*
X97114951Y21254045D02*
X97019713Y21301664D01*
X97019713Y21301664D02*
X96972094Y21396903D01*
X96972094Y21396903D02*
X96972094Y22254045D01*
X97686380Y21730236D02*
X97686380Y21254045D01*
X97353047Y22254045D02*
X97686380Y21730236D01*
X97686380Y21730236D02*
X98019713Y22254045D01*
X98781618Y21254045D02*
X98781618Y21777855D01*
X98781618Y21777855D02*
X98733999Y21873093D01*
X98733999Y21873093D02*
X98638761Y21920712D01*
X98638761Y21920712D02*
X98448285Y21920712D01*
X98448285Y21920712D02*
X98353047Y21873093D01*
X98781618Y21301664D02*
X98686380Y21254045D01*
X98686380Y21254045D02*
X98448285Y21254045D01*
X98448285Y21254045D02*
X98353047Y21301664D01*
X98353047Y21301664D02*
X98305428Y21396903D01*
X98305428Y21396903D02*
X98305428Y21492141D01*
X98305428Y21492141D02*
X98353047Y21587379D01*
X98353047Y21587379D02*
X98448285Y21634998D01*
X98448285Y21634998D02*
X98686380Y21634998D01*
X98686380Y21634998D02*
X98781618Y21682617D01*
X99257809Y21254045D02*
X99257809Y21920712D01*
X99257809Y21730236D02*
X99305428Y21825474D01*
X99305428Y21825474D02*
X99353047Y21873093D01*
X99353047Y21873093D02*
X99448285Y21920712D01*
X99448285Y21920712D02*
X99543523Y21920712D01*
X99876857Y21920712D02*
X99876857Y21254045D01*
X99876857Y21825474D02*
X99924476Y21873093D01*
X99924476Y21873093D02*
X100019714Y21920712D01*
X100019714Y21920712D02*
X100162571Y21920712D01*
X100162571Y21920712D02*
X100257809Y21873093D01*
X100257809Y21873093D02*
X100305428Y21777855D01*
X100305428Y21777855D02*
X100305428Y21254045D01*
X100734000Y21301664D02*
X100829238Y21254045D01*
X100829238Y21254045D02*
X101019714Y21254045D01*
X101019714Y21254045D02*
X101114952Y21301664D01*
X101114952Y21301664D02*
X101162571Y21396903D01*
X101162571Y21396903D02*
X101162571Y21444522D01*
X101162571Y21444522D02*
X101114952Y21539760D01*
X101114952Y21539760D02*
X101019714Y21587379D01*
X101019714Y21587379D02*
X100876857Y21587379D01*
X100876857Y21587379D02*
X100781619Y21634998D01*
X100781619Y21634998D02*
X100734000Y21730236D01*
X100734000Y21730236D02*
X100734000Y21777855D01*
X100734000Y21777855D02*
X100781619Y21873093D01*
X100781619Y21873093D02*
X100876857Y21920712D01*
X100876857Y21920712D02*
X101019714Y21920712D01*
X101019714Y21920712D02*
X101114952Y21873093D01*
X101543524Y21539760D02*
X102019714Y21539760D01*
X101448286Y21254045D02*
X101781619Y22254045D01*
X101781619Y22254045D02*
X102114952Y21254045D01*
X102448286Y21254045D02*
X102448286Y21920712D01*
X102448286Y21730236D02*
X102495905Y21825474D01*
X102495905Y21825474D02*
X102543524Y21873093D01*
X102543524Y21873093D02*
X102638762Y21920712D01*
X102638762Y21920712D02*
X102734000Y21920712D01*
X103448286Y21301664D02*
X103353048Y21254045D01*
X103353048Y21254045D02*
X103162572Y21254045D01*
X103162572Y21254045D02*
X103067334Y21301664D01*
X103067334Y21301664D02*
X103019715Y21396903D01*
X103019715Y21396903D02*
X103019715Y21777855D01*
X103019715Y21777855D02*
X103067334Y21873093D01*
X103067334Y21873093D02*
X103162572Y21920712D01*
X103162572Y21920712D02*
X103353048Y21920712D01*
X103353048Y21920712D02*
X103448286Y21873093D01*
X103448286Y21873093D02*
X103495905Y21777855D01*
X103495905Y21777855D02*
X103495905Y21682617D01*
X103495905Y21682617D02*
X103019715Y21587379D01*
X104257810Y21777855D02*
X104400667Y21730236D01*
X104400667Y21730236D02*
X104448286Y21682617D01*
X104448286Y21682617D02*
X104495905Y21587379D01*
X104495905Y21587379D02*
X104495905Y21444522D01*
X104495905Y21444522D02*
X104448286Y21349284D01*
X104448286Y21349284D02*
X104400667Y21301664D01*
X104400667Y21301664D02*
X104305429Y21254045D01*
X104305429Y21254045D02*
X103924477Y21254045D01*
X103924477Y21254045D02*
X103924477Y22254045D01*
X103924477Y22254045D02*
X104257810Y22254045D01*
X104257810Y22254045D02*
X104353048Y22206426D01*
X104353048Y22206426D02*
X104400667Y22158807D01*
X104400667Y22158807D02*
X104448286Y22063569D01*
X104448286Y22063569D02*
X104448286Y21968331D01*
X104448286Y21968331D02*
X104400667Y21873093D01*
X104400667Y21873093D02*
X104353048Y21825474D01*
X104353048Y21825474D02*
X104257810Y21777855D01*
X104257810Y21777855D02*
X103924477Y21777855D01*
X105305429Y21301664D02*
X105210191Y21254045D01*
X105210191Y21254045D02*
X105019715Y21254045D01*
X105019715Y21254045D02*
X104924477Y21301664D01*
X104924477Y21301664D02*
X104876858Y21396903D01*
X104876858Y21396903D02*
X104876858Y21777855D01*
X104876858Y21777855D02*
X104924477Y21873093D01*
X104924477Y21873093D02*
X105019715Y21920712D01*
X105019715Y21920712D02*
X105210191Y21920712D01*
X105210191Y21920712D02*
X105305429Y21873093D01*
X105305429Y21873093D02*
X105353048Y21777855D01*
X105353048Y21777855D02*
X105353048Y21682617D01*
X105353048Y21682617D02*
X104876858Y21587379D01*
X106210191Y21254045D02*
X106210191Y21777855D01*
X106210191Y21777855D02*
X106162572Y21873093D01*
X106162572Y21873093D02*
X106067334Y21920712D01*
X106067334Y21920712D02*
X105876858Y21920712D01*
X105876858Y21920712D02*
X105781620Y21873093D01*
X106210191Y21301664D02*
X106114953Y21254045D01*
X106114953Y21254045D02*
X105876858Y21254045D01*
X105876858Y21254045D02*
X105781620Y21301664D01*
X105781620Y21301664D02*
X105734001Y21396903D01*
X105734001Y21396903D02*
X105734001Y21492141D01*
X105734001Y21492141D02*
X105781620Y21587379D01*
X105781620Y21587379D02*
X105876858Y21634998D01*
X105876858Y21634998D02*
X106114953Y21634998D01*
X106114953Y21634998D02*
X106210191Y21682617D01*
X107114953Y21920712D02*
X107114953Y21254045D01*
X106686382Y21920712D02*
X106686382Y21396903D01*
X106686382Y21396903D02*
X106734001Y21301664D01*
X106734001Y21301664D02*
X106829239Y21254045D01*
X106829239Y21254045D02*
X106972096Y21254045D01*
X106972096Y21254045D02*
X107067334Y21301664D01*
X107067334Y21301664D02*
X107114953Y21349284D01*
X107448287Y21920712D02*
X107829239Y21920712D01*
X107591144Y22254045D02*
X107591144Y21396903D01*
X107591144Y21396903D02*
X107638763Y21301664D01*
X107638763Y21301664D02*
X107734001Y21254045D01*
X107734001Y21254045D02*
X107829239Y21254045D01*
X108162573Y21254045D02*
X108162573Y21920712D01*
X108162573Y22254045D02*
X108114954Y22206426D01*
X108114954Y22206426D02*
X108162573Y22158807D01*
X108162573Y22158807D02*
X108210192Y22206426D01*
X108210192Y22206426D02*
X108162573Y22254045D01*
X108162573Y22254045D02*
X108162573Y22158807D01*
X108495906Y21920712D02*
X108876858Y21920712D01*
X108638763Y21254045D02*
X108638763Y22111188D01*
X108638763Y22111188D02*
X108686382Y22206426D01*
X108686382Y22206426D02*
X108781620Y22254045D01*
X108781620Y22254045D02*
X108876858Y22254045D01*
X109638763Y21920712D02*
X109638763Y21254045D01*
X109210192Y21920712D02*
X109210192Y21396903D01*
X109210192Y21396903D02*
X109257811Y21301664D01*
X109257811Y21301664D02*
X109353049Y21254045D01*
X109353049Y21254045D02*
X109495906Y21254045D01*
X109495906Y21254045D02*
X109591144Y21301664D01*
X109591144Y21301664D02*
X109638763Y21349284D01*
X110257811Y21254045D02*
X110162573Y21301664D01*
X110162573Y21301664D02*
X110114954Y21396903D01*
X110114954Y21396903D02*
X110114954Y22254045D01*
%TO.C,kibuzzard-65A20B9D*%
G36*
X27009088Y6014824D02*
G01*
X27090051Y5919098D01*
X27138628Y5759554D01*
X27154821Y5536193D01*
X27154821Y5520953D01*
X27138470Y5303148D01*
X27089416Y5147573D01*
X27007660Y5054228D01*
X26893201Y5023113D01*
X26780965Y5055101D01*
X26700796Y5151065D01*
X26652695Y5311006D01*
X26636661Y5534923D01*
X26652853Y5758840D01*
X26701431Y5918780D01*
X26782393Y6014745D01*
X26895741Y6046733D01*
X27009088Y6014824D01*
G37*
G36*
X28467593Y6916002D02*
G01*
X28615704Y6905076D01*
X28763100Y6886897D01*
X28909426Y6861507D01*
X29054330Y6828967D01*
X29197463Y6789357D01*
X29338480Y6742771D01*
X29477042Y6689322D01*
X29612814Y6629139D01*
X29745469Y6562366D01*
X29874688Y6489164D01*
X30000160Y6409710D01*
X30121581Y6324195D01*
X30238661Y6232825D01*
X30351116Y6135821D01*
X30458676Y6033415D01*
X30561082Y5925855D01*
X30658086Y5813400D01*
X30749456Y5696320D01*
X30834971Y5574899D01*
X30914425Y5449427D01*
X30987627Y5320208D01*
X31054400Y5187553D01*
X31114583Y5051781D01*
X31168032Y4913219D01*
X31214618Y4772202D01*
X31254228Y4629069D01*
X31286768Y4484165D01*
X31312158Y4337838D01*
X31330337Y4190443D01*
X31341263Y4042332D01*
X31344907Y3893864D01*
X31341263Y3745396D01*
X31330337Y3597285D01*
X31312158Y3449890D01*
X31286768Y3303563D01*
X31254228Y3158659D01*
X31214618Y3015526D01*
X31168032Y2874509D01*
X31114583Y2735947D01*
X31054400Y2600175D01*
X30987627Y2467520D01*
X30914425Y2338301D01*
X30834971Y2212829D01*
X30749456Y2091408D01*
X30658086Y1974328D01*
X30561082Y1861873D01*
X30458676Y1754313D01*
X30351116Y1651907D01*
X30238661Y1554903D01*
X30121581Y1463533D01*
X30000160Y1378018D01*
X29874688Y1298564D01*
X29745469Y1225362D01*
X29612814Y1158589D01*
X29477042Y1098406D01*
X29338480Y1044957D01*
X29197463Y998371D01*
X29054330Y958761D01*
X28909426Y926221D01*
X28763100Y900831D01*
X28615704Y882652D01*
X28467593Y871726D01*
X28319125Y868082D01*
X28107458Y868082D01*
X27889744Y868082D01*
X26463340Y868082D01*
X25193941Y868082D01*
X24188601Y868082D01*
X23562986Y868082D01*
X22904838Y868082D01*
X22058171Y868082D01*
X21909703Y871726D01*
X21761593Y882652D01*
X21614197Y900831D01*
X21467870Y926221D01*
X21322966Y958761D01*
X21179833Y998371D01*
X21038816Y1044957D01*
X20900254Y1098406D01*
X20764482Y1158589D01*
X20631827Y1225362D01*
X20502608Y1298564D01*
X20377137Y1378018D01*
X20255715Y1463533D01*
X20138635Y1554903D01*
X20026180Y1651907D01*
X19918620Y1754313D01*
X19816214Y1861873D01*
X19719210Y1974328D01*
X19627840Y2091408D01*
X19542325Y2212829D01*
X19462871Y2338301D01*
X19389669Y2467520D01*
X19322896Y2600175D01*
X19287387Y2680282D01*
X22904838Y2680282D01*
X22983665Y2525129D01*
X23135064Y2437543D01*
X23310237Y2515119D01*
X23342769Y2545149D01*
X23342769Y1651770D01*
X23346523Y1560430D01*
X23370296Y1491612D01*
X23437237Y1442814D01*
X23562986Y1426548D01*
X23691862Y1443440D01*
X23712329Y1459080D01*
X23923340Y1459080D01*
X23952119Y1395267D01*
X24063478Y1328952D01*
X24188601Y1291415D01*
X24257419Y1310184D01*
X24294956Y1348972D01*
X24326237Y1411533D01*
X24441853Y1651770D01*
X25264660Y1651770D01*
X25329724Y1494115D01*
X25484877Y1426548D01*
X26463340Y1426548D01*
X26618493Y1456578D01*
X26672296Y1521642D01*
X26688562Y1648016D01*
X26673547Y1775642D01*
X26614739Y1848213D01*
X26468345Y1871986D01*
X26010394Y1871986D01*
X26010394Y1884499D01*
X26072956Y1909523D01*
X26228109Y1993982D01*
X26403281Y2132243D01*
X26432650Y2164775D01*
X26763636Y2164775D01*
X26776148Y2057169D01*
X26844340Y1985849D01*
X26983853Y1962075D01*
X27662020Y1962075D01*
X27662020Y1656775D01*
X27677035Y1526647D01*
X27709567Y1476597D01*
X27774631Y1446568D01*
X27889744Y1434055D01*
X28011114Y1449070D01*
X28083685Y1510381D01*
X28107458Y1654272D01*
X28107458Y3045642D01*
X28103705Y3133228D01*
X28079931Y3199543D01*
X28012365Y3252095D01*
X27885990Y3268361D01*
X27758365Y3254597D01*
X27689547Y3205799D01*
X27665774Y3143238D01*
X27662020Y3058154D01*
X27662020Y2374982D01*
X27254119Y2374982D01*
X27406769Y2985583D01*
X27409271Y2993090D01*
X27426789Y3098193D01*
X27382995Y3194538D01*
X27251616Y3258351D01*
X27136503Y3275868D01*
X27050168Y3248341D01*
X27005123Y3190784D01*
X26978848Y3103198D01*
X26898281Y2778019D01*
X26771143Y2264873D01*
X26763636Y2164775D01*
X26432650Y2164775D01*
X26484611Y2222331D01*
X26553429Y2337445D01*
X26600350Y2468824D01*
X26615990Y2607711D01*
X26595137Y2779685D01*
X26532575Y2938592D01*
X26428306Y3084430D01*
X26290531Y3200516D01*
X26127454Y3270168D01*
X25939074Y3293385D01*
X25837831Y3281048D01*
X25750833Y3270446D01*
X25588173Y3201628D01*
X25451094Y3086932D01*
X25347520Y2943319D01*
X25285375Y2787749D01*
X25264660Y2620223D01*
X25277173Y2492597D01*
X25345365Y2421277D01*
X25484877Y2397504D01*
X25612503Y2412518D01*
X25680069Y2457563D01*
X25703843Y2520124D01*
X25707596Y2602706D01*
X25707596Y2617720D01*
X25717606Y2675277D01*
X25783922Y2791642D01*
X25922808Y2850450D01*
X26047931Y2827927D01*
X26114247Y2779129D01*
X26153035Y2711563D01*
X26170552Y2647750D01*
X26147091Y2538267D01*
X26076710Y2435041D01*
X25973170Y2340260D01*
X25850237Y2256115D01*
X25717606Y2176661D01*
X25584976Y2095957D01*
X25462042Y2006494D01*
X25358503Y1900765D01*
X25288121Y1781585D01*
X25264660Y1651770D01*
X24441853Y1651770D01*
X25129527Y3080676D01*
X25164562Y3205799D01*
X25130779Y3280248D01*
X25029429Y3348440D01*
X24903055Y3388479D01*
X24844247Y3378469D01*
X24759163Y3268361D01*
X23953370Y1584203D01*
X23923340Y1459080D01*
X23712329Y1459080D01*
X23758178Y1494115D01*
X23781951Y1560430D01*
X23785705Y1646765D01*
X23785705Y3040637D01*
X23773192Y3173267D01*
X23738158Y3227070D01*
X23681371Y3252188D01*
X23673094Y3255849D01*
X23554227Y3268361D01*
X23412838Y3203297D01*
X23405330Y3198292D01*
X22994926Y2827927D01*
X22904838Y2680282D01*
X19287387Y2680282D01*
X19262713Y2735947D01*
X19209264Y2874509D01*
X19162678Y3015526D01*
X19123068Y3158659D01*
X19090528Y3303563D01*
X19065138Y3449890D01*
X19046959Y3597285D01*
X19036033Y3745396D01*
X19032389Y3893864D01*
X19036033Y4042332D01*
X19046959Y4190443D01*
X19065138Y4337838D01*
X19090528Y4484165D01*
X19123068Y4629069D01*
X19162678Y4772202D01*
X19209264Y4913219D01*
X19262713Y5051781D01*
X19322896Y5187553D01*
X19389669Y5320208D01*
X19462871Y5449427D01*
X19542325Y5574899D01*
X19627840Y5696320D01*
X19665419Y5744473D01*
X22905401Y5744473D01*
X22956201Y5607313D01*
X23484521Y4703073D01*
X23507381Y4675133D01*
X23577231Y4620523D01*
X23681371Y4593853D01*
X23791861Y4628143D01*
X23873141Y4705613D01*
X24398921Y5607313D01*
X24449721Y5747013D01*
X24416701Y5833373D01*
X24367171Y5874013D01*
X24525921Y5874013D01*
X24605931Y5716533D01*
X24759601Y5627633D01*
X24937401Y5706373D01*
X24970421Y5736853D01*
X24970421Y4830073D01*
X24974231Y4737363D01*
X24998361Y4667513D01*
X25066306Y4617983D01*
X25193941Y4601473D01*
X25324751Y4618618D01*
X25392061Y4670053D01*
X25416191Y4737363D01*
X25420001Y4824993D01*
X25420001Y4835153D01*
X25585101Y4835153D01*
X25634631Y4652273D01*
X25710196Y4616078D01*
X25837831Y4604013D01*
X25962608Y4622428D01*
X26029601Y4677673D01*
X26056271Y4747523D01*
X26060081Y4837693D01*
X26060081Y4847853D01*
X26016901Y5025653D01*
X25934668Y5065658D01*
X25804811Y5078993D01*
X25680033Y5059943D01*
X25613041Y5002793D01*
X25588911Y4934213D01*
X25585101Y4845313D01*
X25585101Y4835153D01*
X25420001Y4835153D01*
X25420001Y5536193D01*
X26187081Y5536193D01*
X26195265Y5358111D01*
X26219819Y5193011D01*
X26260741Y5040893D01*
X26315668Y4913258D01*
X26383931Y4804673D01*
X26473466Y4713550D01*
X26592211Y4638303D01*
X26735403Y4587820D01*
X26898281Y4570993D01*
X27060523Y4587503D01*
X27201811Y4637033D01*
X27318333Y4711963D01*
X27406281Y4804673D01*
X27492958Y4951199D01*
X27554871Y5121538D01*
X27592018Y5315689D01*
X27604401Y5533653D01*
X27595934Y5701575D01*
X27570534Y5863289D01*
X27528201Y6018793D01*
X27475178Y6147063D01*
X27407551Y6257553D01*
X27318651Y6350898D01*
X27201811Y6427733D01*
X27059888Y6479168D01*
X26895741Y6496313D01*
X26730958Y6478850D01*
X26587131Y6426463D01*
X26468703Y6348358D01*
X26380121Y6253743D01*
X26309953Y6131505D01*
X26246771Y5970533D01*
X26213610Y5842122D01*
X26193713Y5697342D01*
X26187081Y5536193D01*
X25420001Y5536193D01*
X25420001Y6239773D01*
X25407301Y6374393D01*
X25371741Y6429003D01*
X25305701Y6458213D01*
X25185051Y6470913D01*
X25041541Y6404873D01*
X25033921Y6399793D01*
X24617361Y6023873D01*
X24525921Y5874013D01*
X24367171Y5874013D01*
X24317641Y5914653D01*
X24177941Y5967993D01*
X24096661Y5946403D01*
X24052211Y5903223D01*
X24010301Y5833373D01*
X23677561Y5193293D01*
X23344821Y5833373D01*
X23277511Y5936243D01*
X23189881Y5970533D01*
X23037481Y5914653D01*
X22938421Y5832738D01*
X22905401Y5744473D01*
X19665419Y5744473D01*
X19719210Y5813400D01*
X19816214Y5925855D01*
X19918620Y6033415D01*
X20026180Y6135821D01*
X20138635Y6232825D01*
X20255715Y6324195D01*
X20377137Y6409710D01*
X20502608Y6489164D01*
X20631827Y6562366D01*
X20764482Y6629139D01*
X20900254Y6689322D01*
X21038816Y6742771D01*
X21179833Y6789357D01*
X21322966Y6828967D01*
X21467870Y6861507D01*
X21614197Y6886897D01*
X21761593Y6905076D01*
X21909703Y6916002D01*
X22058171Y6919646D01*
X22904838Y6919646D01*
X28107458Y6919646D01*
X28319125Y6919646D01*
X28467593Y6916002D01*
G37*
%TO.C,G\u002A\u002A\u002A*%
G36*
X12981773Y44403564D02*
G01*
X13012521Y44403502D01*
X13046542Y44403394D01*
X13083131Y44403240D01*
X13095558Y44403179D01*
X13288408Y44402208D01*
X12731636Y41834269D01*
X12174865Y39266330D01*
X11986627Y39266330D01*
X11942302Y39266368D01*
X11904971Y39266491D01*
X11874128Y39266712D01*
X11849266Y39267042D01*
X11829878Y39267494D01*
X11815459Y39268081D01*
X11805503Y39268816D01*
X11799502Y39269710D01*
X11796950Y39270777D01*
X11796807Y39271018D01*
X11795839Y39275053D01*
X11793274Y39286080D01*
X11789186Y39303780D01*
X11783648Y39327832D01*
X11776734Y39357918D01*
X11768516Y39393716D01*
X11759068Y39434908D01*
X11748462Y39481174D01*
X11736774Y39532193D01*
X11724074Y39587646D01*
X11710438Y39647214D01*
X11695938Y39710575D01*
X11680647Y39777412D01*
X11664639Y39847403D01*
X11647986Y39920229D01*
X11630763Y39995570D01*
X11613042Y40073106D01*
X11596709Y40144587D01*
X11578615Y40223729D01*
X11560948Y40300909D01*
X11543781Y40375811D01*
X11527186Y40448118D01*
X11511238Y40517514D01*
X11496009Y40583683D01*
X11481572Y40646308D01*
X11468001Y40705073D01*
X11455370Y40759662D01*
X11443751Y40809758D01*
X11433218Y40855045D01*
X11423844Y40895207D01*
X11415702Y40929927D01*
X11408865Y40958889D01*
X11403407Y40981777D01*
X11399402Y40998275D01*
X11396921Y41008066D01*
X11396050Y41010879D01*
X11395101Y41007128D01*
X11392578Y40996452D01*
X11388568Y40979240D01*
X11383160Y40955880D01*
X11376444Y40926762D01*
X11368507Y40892274D01*
X11359439Y40852804D01*
X11349328Y40808743D01*
X11338263Y40760477D01*
X11326333Y40708396D01*
X11313626Y40652889D01*
X11300232Y40594345D01*
X11286238Y40533151D01*
X11271733Y40469697D01*
X11256807Y40404372D01*
X11241547Y40337564D01*
X11226043Y40269663D01*
X11210384Y40201055D01*
X11194657Y40132132D01*
X11178952Y40063280D01*
X11163357Y39994889D01*
X11147962Y39927348D01*
X11132854Y39861045D01*
X11118122Y39796370D01*
X11103856Y39733709D01*
X11090144Y39673454D01*
X11077074Y39615991D01*
X11064735Y39561711D01*
X11053217Y39511001D01*
X11042607Y39464251D01*
X11032995Y39421848D01*
X11024468Y39384182D01*
X11017116Y39351642D01*
X11011028Y39324616D01*
X11006292Y39303493D01*
X11002997Y39288662D01*
X11001603Y39282268D01*
X10998189Y39266330D01*
X10809109Y39266330D01*
X10772245Y39266391D01*
X10737755Y39266566D01*
X10706346Y39266843D01*
X10678724Y39267211D01*
X10655598Y39267657D01*
X10637674Y39268169D01*
X10625659Y39268737D01*
X10620261Y39269347D01*
X10620028Y39269505D01*
X10619480Y39273398D01*
X10617861Y39284460D01*
X10615208Y39302439D01*
X10611559Y39327086D01*
X10606950Y39358150D01*
X10601420Y39395380D01*
X10595005Y39438527D01*
X10587743Y39487341D01*
X10579670Y39541570D01*
X10570825Y39600966D01*
X10561245Y39665277D01*
X10550966Y39734254D01*
X10540026Y39807646D01*
X10528463Y39885203D01*
X10516313Y39966675D01*
X10503615Y40051811D01*
X10490404Y40140362D01*
X10476720Y40232077D01*
X10462598Y40326705D01*
X10448076Y40423997D01*
X10433192Y40523703D01*
X10417982Y40625572D01*
X10402485Y40729353D01*
X10400642Y40741691D01*
X10385115Y40845666D01*
X10369871Y40947751D01*
X10354948Y41047695D01*
X10340384Y41145248D01*
X10326214Y41240162D01*
X10312477Y41332185D01*
X10299210Y41421069D01*
X10286451Y41506563D01*
X10274235Y41588417D01*
X10262602Y41666381D01*
X10251587Y41740207D01*
X10241229Y41809642D01*
X10231564Y41874439D01*
X10222630Y41934346D01*
X10214465Y41989115D01*
X10207104Y42038494D01*
X10200587Y42082235D01*
X10194949Y42120087D01*
X10190228Y42151801D01*
X10186463Y42177126D01*
X10183688Y42195812D01*
X10181943Y42207611D01*
X10181265Y42212272D01*
X10181257Y42212339D01*
X10184890Y42212654D01*
X10195327Y42212949D01*
X10211867Y42213218D01*
X10233815Y42213454D01*
X10260471Y42213654D01*
X10291137Y42213809D01*
X10325117Y42213915D01*
X10361711Y42213966D01*
X10375329Y42213970D01*
X10569401Y42213964D01*
X10710009Y41021411D01*
X10721072Y40927641D01*
X10731919Y40835805D01*
X10742517Y40746182D01*
X10752833Y40659050D01*
X10762833Y40574689D01*
X10772485Y40493376D01*
X10781754Y40415390D01*
X10790608Y40341010D01*
X10799013Y40270515D01*
X10806935Y40204184D01*
X10814343Y40142294D01*
X10821201Y40085126D01*
X10827477Y40032957D01*
X10833137Y39986065D01*
X10838148Y39944731D01*
X10842477Y39909232D01*
X10846091Y39879847D01*
X10848955Y39856855D01*
X10851037Y39840534D01*
X10852303Y39831163D01*
X10852705Y39828858D01*
X10853671Y39832471D01*
X10856116Y39843087D01*
X10859967Y39860370D01*
X10865154Y39883985D01*
X10871603Y39913597D01*
X10879243Y39948869D01*
X10888002Y39989467D01*
X10897807Y40035054D01*
X10908588Y40085296D01*
X10920271Y40139856D01*
X10932786Y40198400D01*
X10946059Y40260592D01*
X10960019Y40326096D01*
X10974594Y40394577D01*
X10989712Y40465699D01*
X11005301Y40539127D01*
X11021289Y40614525D01*
X11021487Y40615459D01*
X11188181Y41402060D01*
X11396316Y41403013D01*
X11604452Y41403965D01*
X11772823Y40615474D01*
X11788963Y40539932D01*
X11804704Y40466331D01*
X11819975Y40395009D01*
X11834703Y40326302D01*
X11848814Y40260546D01*
X11862236Y40198077D01*
X11874898Y40139233D01*
X11886725Y40084350D01*
X11897646Y40033764D01*
X11907587Y39987812D01*
X11916477Y39946830D01*
X11924242Y39911155D01*
X11930809Y39881124D01*
X11936107Y39857072D01*
X11940062Y39839338D01*
X11942602Y39828256D01*
X11943654Y39824164D01*
X11943661Y39824153D01*
X11944559Y39827631D01*
X11946943Y39838255D01*
X11950774Y39855830D01*
X11956008Y39880158D01*
X11962607Y39911043D01*
X11970527Y39948289D01*
X11979728Y39991699D01*
X11990169Y40041077D01*
X12001809Y40096226D01*
X12014606Y40156950D01*
X12028519Y40223051D01*
X12043507Y40294335D01*
X12059528Y40370604D01*
X12076543Y40451662D01*
X12094508Y40537312D01*
X12113383Y40627359D01*
X12133127Y40721604D01*
X12153699Y40819853D01*
X12175058Y40921908D01*
X12197161Y41027572D01*
X12219969Y41136651D01*
X12243439Y41248946D01*
X12267531Y41364262D01*
X12292203Y41482402D01*
X12317414Y41603170D01*
X12343124Y41726368D01*
X12369290Y41851802D01*
X12395871Y41979273D01*
X12422827Y42108586D01*
X12423490Y42111765D01*
X12450456Y42241148D01*
X12477044Y42368705D01*
X12503213Y42494239D01*
X12528921Y42617554D01*
X12554128Y42738453D01*
X12578793Y42856738D01*
X12602873Y42972213D01*
X12626329Y43084681D01*
X12649119Y43193945D01*
X12671201Y43299809D01*
X12692536Y43402074D01*
X12713081Y43500545D01*
X12732797Y43595024D01*
X12751640Y43685315D01*
X12769571Y43771221D01*
X12786549Y43852545D01*
X12802532Y43929089D01*
X12817479Y44000657D01*
X12831349Y44067052D01*
X12844101Y44128078D01*
X12855694Y44183537D01*
X12866087Y44233232D01*
X12875239Y44276966D01*
X12883108Y44314544D01*
X12889653Y44345767D01*
X12894834Y44370438D01*
X12898610Y44388362D01*
X12900938Y44399340D01*
X12901779Y44403177D01*
X12901780Y44403179D01*
X12905597Y44403349D01*
X12916209Y44403472D01*
X12932912Y44403549D01*
X12955002Y44403580D01*
X12981773Y44403564D01*
G37*
%TD*%
D11*
%TO.C,C609*%
X222258648Y41873864D03*
D12*
X219758648Y41873864D03*
%TD*%
D13*
%TO.C,C501*%
X202243648Y11223864D03*
X200693648Y11223864D03*
%TD*%
D14*
%TO.C,R809*%
X45768648Y33573864D03*
X45768648Y35223864D03*
%TD*%
D15*
%TO.C,FID104*%
X160928648Y38703864D03*
%TD*%
D16*
%TO.C,R813*%
X167543648Y26608864D03*
X165893648Y26608864D03*
%TD*%
D14*
%TO.C,R807*%
X227033248Y7283864D03*
X227033248Y8933864D03*
%TD*%
D17*
%TO.C,R207*%
X188468648Y36808864D03*
X190118648Y36808864D03*
%TD*%
D18*
%TO.C,J405*%
X255238648Y18343864D03*
D15*
X252738648Y18343864D03*
X250238648Y18343864D03*
X247738648Y18343864D03*
X245238648Y18343864D03*
X242738648Y18343864D03*
X240238648Y18343864D03*
X237738648Y18343864D03*
X235238648Y18343864D03*
X232738648Y18343864D03*
%TD*%
D19*
%TO.C,SW203*%
X145678648Y44353864D03*
X150178648Y44353864D03*
D20*
X144428648Y41853864D03*
X151428648Y41853864D03*
%TD*%
D18*
%TO.C,J404*%
X284918648Y18283864D03*
D15*
X282418648Y18283864D03*
X279918648Y18283864D03*
X277418648Y18283864D03*
X274918648Y18283864D03*
X272418648Y18283864D03*
X269918648Y18283864D03*
X267418648Y18283864D03*
%TD*%
D21*
%TO.C,TP701*%
X34858648Y28583864D03*
%TD*%
%TO.C,TP503*%
X207448648Y14593864D03*
%TD*%
D22*
%TO.C,U702*%
X36696448Y26555864D03*
X37966448Y26555864D03*
X39236448Y26555864D03*
X40506448Y26555864D03*
X40506448Y31505864D03*
X39236448Y31505864D03*
X37966448Y31505864D03*
X36696448Y31505864D03*
%TD*%
D16*
%TO.C,R203*%
X196998648Y27878864D03*
X195348648Y27878864D03*
%TD*%
D23*
%TO.C,C610*%
X259873048Y39183864D03*
X259873048Y37283864D03*
%TD*%
D16*
%TO.C,R706*%
X135681148Y8908130D03*
X134031148Y8908130D03*
%TD*%
D24*
%TO.C,C621*%
X230428648Y31783864D03*
X230428648Y33683864D03*
%TD*%
D17*
%TO.C,R604*%
X263263648Y30233864D03*
X264913648Y30233864D03*
%TD*%
D21*
%TO.C,TP401*%
X236198648Y13973864D03*
%TD*%
D24*
%TO.C,C602*%
X226998648Y40803864D03*
X226998648Y42703864D03*
%TD*%
D25*
%TO.C,J412*%
X295327698Y11550054D03*
X293327698Y11550054D03*
X291327698Y11550054D03*
%TD*%
D26*
%TO.C,J413*%
X117808648Y3833864D03*
D27*
X115808648Y3833864D03*
X113808648Y3833864D03*
X111808648Y3833864D03*
X109808648Y3833864D03*
%TD*%
D16*
%TO.C,R720*%
X41256448Y33555864D03*
X39606448Y33555864D03*
%TD*%
D28*
%TO.C,C502*%
X208368648Y12698864D03*
X209918648Y12698864D03*
%TD*%
D23*
%TO.C,C303*%
X71643648Y23208864D03*
X71643648Y21308864D03*
%TD*%
D29*
%TO.C,U304*%
X57263648Y26733864D03*
X55993648Y26733864D03*
X54723648Y26733864D03*
X53453648Y26733864D03*
X52183648Y26733864D03*
X50913648Y26733864D03*
X49643648Y26733864D03*
X48373648Y26733864D03*
X48373648Y21783864D03*
X49643648Y21783864D03*
X50913648Y21783864D03*
X52183648Y21783864D03*
X53453648Y21783864D03*
X54723648Y21783864D03*
X55993648Y21783864D03*
X57263648Y21783864D03*
%TD*%
D14*
%TO.C,R810*%
X48918648Y33558864D03*
X48918648Y35208864D03*
%TD*%
D30*
%TO.C,J603*%
X9998648Y12418864D03*
D31*
X9998648Y19918864D03*
X9998648Y24918864D03*
X9998648Y29918864D03*
%TD*%
D32*
%TO.C,D604*%
X234746148Y30243864D03*
X233171148Y30243864D03*
%TD*%
D33*
%TO.C,J805*%
X158518648Y22558864D03*
X158518648Y21558864D03*
X158518648Y20558864D03*
X158518648Y19558864D03*
X158518648Y18558864D03*
X158518648Y17558864D03*
D34*
X154643648Y23858864D03*
X154643648Y16258864D03*
%TD*%
D21*
%TO.C,TP402*%
X233688648Y13973864D03*
%TD*%
D14*
%TO.C,R734*%
X265278648Y5508864D03*
X265278648Y7158864D03*
%TD*%
D16*
%TO.C,R710*%
X135681148Y5666464D03*
X134031148Y5666464D03*
%TD*%
D35*
%TO.C,R730*%
X263728648Y7158864D03*
X263728648Y5508864D03*
%TD*%
D17*
%TO.C,R206*%
X165893648Y35633864D03*
X167543648Y35633864D03*
%TD*%
D24*
%TO.C,C601*%
X259838648Y40783864D03*
X259838648Y42683864D03*
%TD*%
D16*
%TO.C,R707*%
X132631148Y7287297D03*
X130981148Y7287297D03*
%TD*%
D29*
%TO.C,U303*%
X69813648Y26733864D03*
X68543648Y26733864D03*
X67273648Y26733864D03*
X66003648Y26733864D03*
X64733648Y26733864D03*
X63463648Y26733864D03*
X62193648Y26733864D03*
X60923648Y26733864D03*
X60923648Y21783864D03*
X62193648Y21783864D03*
X63463648Y21783864D03*
X64733648Y21783864D03*
X66003648Y21783864D03*
X67273648Y21783864D03*
X68543648Y21783864D03*
X69813648Y21783864D03*
%TD*%
D17*
%TO.C,R209*%
X165893648Y29908864D03*
X167543648Y29908864D03*
%TD*%
D36*
%TO.C,J601*%
X246073648Y4449064D03*
D15*
X246073648Y8949064D03*
D37*
X240573648Y4449064D03*
X240573648Y10549064D03*
X251573648Y4449064D03*
X251573648Y10549064D03*
%TD*%
D38*
%TO.C,J701*%
X166556146Y11066464D03*
D39*
X169096146Y11066464D03*
X166556146Y8526464D03*
X169096146Y8526464D03*
X166556146Y5986464D03*
X169096146Y5986464D03*
X166556146Y3446464D03*
X169096146Y3446464D03*
%TD*%
D16*
%TO.C,R704*%
X135681148Y10528963D03*
X134031148Y10528963D03*
%TD*%
D40*
%TO.C,H106*%
X286152698Y11025054D03*
%TD*%
D38*
%TO.C,J801*%
X206018648Y43333864D03*
D39*
X208558648Y43333864D03*
X211098648Y43333864D03*
X213638648Y43333864D03*
%TD*%
D30*
%TO.C,J602*%
X3808648Y5693864D03*
D31*
X3808648Y13693864D03*
X3808648Y18693864D03*
X3808648Y23693864D03*
X3808648Y28693864D03*
%TD*%
D25*
%TO.C,J410*%
X120828648Y9773864D03*
X118328648Y9773864D03*
X115828648Y9773864D03*
X113328648Y9773864D03*
X110828648Y9773864D03*
%TD*%
D16*
%TO.C,R204*%
X196998648Y25663864D03*
X195348648Y25663864D03*
%TD*%
D41*
%TO.C,Q502*%
X211468648Y8611364D03*
X213368648Y8611364D03*
X212418648Y10486364D03*
%TD*%
D14*
%TO.C,R606*%
X258798648Y32138864D03*
X258798648Y33788864D03*
%TD*%
D15*
%TO.C,FID102*%
X194318648Y35443864D03*
%TD*%
D16*
%TO.C,R703*%
X132631148Y10528963D03*
X130981148Y10528963D03*
%TD*%
D15*
%TO.C,FID106*%
X220508648Y10543864D03*
%TD*%
D25*
%TO.C,J411*%
X24229648Y17677864D03*
X22229648Y17677864D03*
X20229648Y17677864D03*
%TD*%
D24*
%TO.C,C617*%
X234528648Y31793864D03*
X234528648Y33693864D03*
%TD*%
D17*
%TO.C,R605*%
X230103648Y30243864D03*
X231753648Y30243864D03*
%TD*%
%TO.C,R724*%
X39606448Y35105864D03*
X41256448Y35105864D03*
%TD*%
D35*
%TO.C,R801*%
X227033248Y11983864D03*
X227033248Y10333864D03*
%TD*%
D42*
%TO.C,C615*%
X228628648Y33728864D03*
X228628648Y32178864D03*
%TD*%
D28*
%TO.C,C202*%
X188518648Y38383864D03*
X190068648Y38383864D03*
%TD*%
D16*
%TO.C,R708*%
X135681148Y7287297D03*
X134031148Y7287297D03*
%TD*%
D35*
%TO.C,R211*%
X191978648Y12258864D03*
X191978648Y10608864D03*
%TD*%
D14*
%TO.C,R721*%
X265278648Y8558864D03*
X265278648Y10208864D03*
%TD*%
D40*
%TO.C,H107*%
X123719698Y3659054D03*
%TD*%
D43*
%TO.C,D201*%
X191723648Y30063864D03*
X193598648Y30063864D03*
%TD*%
D21*
%TO.C,TP502*%
X203128648Y14603864D03*
%TD*%
D28*
%TO.C,C201*%
X188493648Y30213864D03*
X190043648Y30213864D03*
%TD*%
D40*
%TO.C,H104*%
X286152698Y29821054D03*
%TD*%
D38*
%TO.C,J702*%
X138428648Y11074798D03*
D39*
X140968648Y11074798D03*
X138428648Y8534798D03*
X140968648Y8534798D03*
X138428648Y5994798D03*
X140968648Y5994798D03*
X138428648Y3454798D03*
X140968648Y3454798D03*
%TD*%
D35*
%TO.C,R503*%
X211443648Y4036364D03*
X211443648Y2386364D03*
%TD*%
D11*
%TO.C,C613*%
X222228648Y34653864D03*
D12*
X219728648Y34653864D03*
%TD*%
D17*
%TO.C,R804*%
X228518248Y11303864D03*
X230168248Y11303864D03*
%TD*%
D23*
%TO.C,C302*%
X59093648Y23208864D03*
X59093648Y21308864D03*
%TD*%
D15*
%TO.C,FID103*%
X257418648Y1033864D03*
%TD*%
D18*
%TO.C,J408*%
X25768648Y35653864D03*
D15*
X23268648Y35653864D03*
X20768648Y35653864D03*
%TD*%
D13*
%TO.C,C204*%
X167493648Y38708864D03*
X165943648Y38708864D03*
%TD*%
D24*
%TO.C,C616*%
X267708648Y31803864D03*
X267708648Y33703864D03*
%TD*%
%TO.C,C603*%
X46526248Y25321464D03*
X46526248Y27221464D03*
%TD*%
D14*
%TO.C,R722*%
X275878648Y5508864D03*
X275878648Y7158864D03*
%TD*%
D43*
%TO.C,D202*%
X191723648Y27873864D03*
X193598648Y27873864D03*
%TD*%
D17*
%TO.C,R501*%
X200643648Y12748864D03*
X202293648Y12748864D03*
%TD*%
D28*
%TO.C,C702*%
X147428648Y9543864D03*
X148978648Y9543864D03*
%TD*%
D21*
%TO.C,TP301*%
X49348648Y30463864D03*
%TD*%
D17*
%TO.C,R814*%
X165893648Y28258864D03*
X167543648Y28258864D03*
%TD*%
D16*
%TO.C,R803*%
X235183648Y11273864D03*
X233533648Y11273864D03*
%TD*%
D17*
%TO.C,R728*%
X39606448Y21380864D03*
X41256448Y21380864D03*
%TD*%
D44*
%TO.C,D602*%
X254750498Y12378064D03*
X256325498Y12378064D03*
%TD*%
D26*
%TO.C,J402*%
X57038648Y9798664D03*
D27*
X55038648Y9798664D03*
X53038648Y9798664D03*
X51038648Y9798664D03*
X49038648Y9798664D03*
X47038648Y9798664D03*
X45038648Y9798664D03*
X43038648Y9798664D03*
%TD*%
D17*
%TO.C,R210*%
X165893648Y31558864D03*
X167543648Y31558864D03*
%TD*%
D45*
%TO.C,Q802*%
X235533648Y9473864D03*
X233633648Y9473864D03*
X234583648Y7598864D03*
%TD*%
D30*
%TO.C,J604*%
X293828648Y38953864D03*
D31*
X293828648Y31453864D03*
X293828648Y26453864D03*
X293828648Y21453864D03*
%TD*%
D40*
%TO.C,H102*%
X155977698Y29821054D03*
%TD*%
D46*
%TO.C,C305*%
X71718648Y37133864D03*
X71718648Y38683864D03*
%TD*%
D16*
%TO.C,R711*%
X132631148Y4045631D03*
X130981148Y4045631D03*
%TD*%
%TO.C,R705*%
X132631148Y8908130D03*
X130981148Y8908130D03*
%TD*%
%TO.C,R212*%
X195998648Y8573864D03*
X194348648Y8573864D03*
%TD*%
D19*
%TO.C,SW201*%
X122398648Y44353864D03*
X126898648Y44353864D03*
D20*
X121148648Y41853864D03*
X128148648Y41853864D03*
%TD*%
D13*
%TO.C,C703*%
X38156448Y35105864D03*
X36606448Y35105864D03*
%TD*%
D35*
%TO.C,R609*%
X227078648Y33778864D03*
X227078648Y32128864D03*
%TD*%
D47*
%TO.C,J501*%
X202428648Y6098864D03*
X208208648Y6098864D03*
D48*
X202068648Y7543864D03*
X202868648Y7543864D03*
D49*
X204068648Y7543864D03*
X205068648Y7543864D03*
X205568648Y7543864D03*
X206568648Y7543864D03*
D48*
X207768648Y7543864D03*
X208568648Y7543864D03*
X208568648Y7543864D03*
X207768648Y7543864D03*
D49*
X207068648Y7543864D03*
X206068648Y7543864D03*
X204568648Y7543864D03*
X203568648Y7543864D03*
D48*
X202868648Y7543864D03*
X202068648Y7543864D03*
D50*
X200998648Y6628864D03*
D51*
X200998648Y2448864D03*
D50*
X209638648Y6628864D03*
D51*
X209638648Y2448864D03*
%TD*%
D45*
%TO.C,Q801*%
X230493248Y9503864D03*
X228593248Y9503864D03*
X229543248Y7628864D03*
%TD*%
D52*
%TO.C,J804*%
X53758648Y38533864D03*
D53*
X52458648Y38533864D03*
D54*
X51158648Y38533864D03*
%TD*%
D35*
%TO.C,R726*%
X277428648Y7158864D03*
X277428648Y5508864D03*
%TD*%
%TO.C,R812*%
X44208648Y35223864D03*
X44208648Y33573864D03*
%TD*%
D16*
%TO.C,R201*%
X190093648Y28663864D03*
X188443648Y28663864D03*
%TD*%
D35*
%TO.C,R502*%
X213193648Y4036364D03*
X213193648Y2386364D03*
%TD*%
D17*
%TO.C,R715*%
X36556448Y24480864D03*
X38206448Y24480864D03*
%TD*%
D19*
%TO.C,SW202*%
X134038648Y44353864D03*
X138538648Y44353864D03*
D20*
X132788648Y41853864D03*
X139788648Y41853864D03*
%TD*%
D17*
%TO.C,R611*%
X263263648Y28693864D03*
X264913648Y28693864D03*
%TD*%
D46*
%TO.C,C704*%
X277428648Y8608864D03*
X277428648Y10158864D03*
%TD*%
D35*
%TO.C,R729*%
X263728648Y10208864D03*
X263728648Y8558864D03*
%TD*%
D55*
%TO.C,L602*%
X242253048Y42208864D03*
X242253048Y32308864D03*
%TD*%
D38*
%TO.C,J202*%
X80588648Y43283864D03*
D39*
X83128648Y43283864D03*
X85668648Y43283864D03*
X88208648Y43283864D03*
%TD*%
D24*
%TO.C,C604*%
X59093648Y25308864D03*
X59093648Y27208864D03*
%TD*%
%TO.C,C618*%
X265688648Y31803864D03*
X265688648Y33703864D03*
%TD*%
D14*
%TO.C,R718*%
X275878648Y8558864D03*
X275878648Y10208864D03*
%TD*%
D56*
%TO.C,D601*%
X254838648Y4253864D03*
X257378648Y4253864D03*
X257378648Y9893864D03*
X254838648Y9893864D03*
%TD*%
D16*
%TO.C,R806*%
X190103648Y32143864D03*
X188453648Y32143864D03*
%TD*%
D17*
%TO.C,R208*%
X188468648Y35233864D03*
X190118648Y35233864D03*
%TD*%
D16*
%TO.C,R205*%
X190113648Y39933864D03*
X188463648Y39933864D03*
%TD*%
D17*
%TO.C,R723*%
X36556448Y36655864D03*
X38206448Y36655864D03*
%TD*%
D14*
%TO.C,R607*%
X225538648Y32128864D03*
X225538648Y33778864D03*
%TD*%
D32*
%TO.C,D603*%
X267916148Y30223864D03*
X266341148Y30223864D03*
%TD*%
D55*
%TO.C,L601*%
X275348648Y42213864D03*
X275348648Y32313864D03*
%TD*%
D38*
%TO.C,J201*%
X98518648Y43283864D03*
D39*
X101058648Y43283864D03*
X103598648Y43283864D03*
X106138648Y43283864D03*
%TD*%
D35*
%TO.C,R725*%
X278978648Y10208864D03*
X278978648Y8558864D03*
%TD*%
D57*
%TO.C,BUZZER201*%
X188643648Y2048864D03*
X188643648Y9248864D03*
X181443648Y9248864D03*
X181443648Y2048864D03*
%TD*%
D17*
%TO.C,R610*%
X230093648Y28713864D03*
X231743648Y28713864D03*
%TD*%
D16*
%TO.C,R202*%
X196998648Y30063864D03*
X195348648Y30063864D03*
%TD*%
D13*
%TO.C,C203*%
X167493648Y37183864D03*
X165943648Y37183864D03*
%TD*%
D26*
%TO.C,J401*%
X82308648Y9798664D03*
D27*
X80308648Y9798664D03*
X78308648Y9798664D03*
X76308648Y9798664D03*
X74308648Y9798664D03*
X72308648Y9798664D03*
X70308648Y9798664D03*
X68308648Y9798664D03*
X66308648Y9798664D03*
X64308648Y9798664D03*
%TD*%
D58*
%TO.C,J802*%
X235469048Y5523864D03*
D59*
X235469048Y4223864D03*
D60*
X235469048Y2923864D03*
%TD*%
D11*
%TO.C,C607*%
X287688648Y36843864D03*
D12*
X285188648Y36843864D03*
%TD*%
D16*
%TO.C,R709*%
X132631148Y5666464D03*
X130981148Y5666464D03*
%TD*%
D14*
%TO.C,R808*%
X232058648Y7273864D03*
X232058648Y8923864D03*
%TD*%
D61*
%TO.C,J406*%
X88711248Y17578864D03*
D62*
X86211248Y17578864D03*
X83711248Y17578864D03*
X81211248Y17578864D03*
X78711248Y17578864D03*
X76211248Y17578864D03*
X73711248Y17578864D03*
X71211248Y17578864D03*
X68711248Y17578864D03*
X66211248Y17578864D03*
%TD*%
D40*
%TO.C,H103*%
X155977698Y11025054D03*
%TD*%
D24*
%TO.C,C620*%
X263658648Y31793864D03*
X263658648Y33693864D03*
%TD*%
D63*
%TO.C,Q501*%
X211368648Y6811364D03*
X211368648Y6161364D03*
X211368648Y5511364D03*
X213268648Y5511364D03*
X213268648Y6161364D03*
X213268648Y6811364D03*
%TD*%
D46*
%TO.C,C301*%
X60418648Y39138864D03*
X60418648Y40688864D03*
%TD*%
D42*
%TO.C,C614*%
X261888648Y33738864D03*
X261888648Y32188864D03*
%TD*%
D41*
%TO.C,Q803*%
X43858648Y36943864D03*
X45758648Y36943864D03*
X44808648Y38818864D03*
%TD*%
D17*
%TO.C,R805*%
X188458648Y33688864D03*
X190108648Y33688864D03*
%TD*%
D64*
%TO.C,U501*%
X204368648Y9861364D03*
X205318648Y9861364D03*
X206268648Y9861364D03*
X206268648Y12136364D03*
X205318648Y12136364D03*
X204368648Y12136364D03*
%TD*%
D16*
%TO.C,R716*%
X38206448Y33555864D03*
X36556448Y33555864D03*
%TD*%
D18*
%TO.C,J403*%
X284878648Y24753864D03*
D15*
X282378648Y24753864D03*
X279878648Y24753864D03*
X277378648Y24753864D03*
X274878648Y24753864D03*
X272378648Y24753864D03*
X269878648Y24753864D03*
X267378648Y24753864D03*
X264878648Y24753864D03*
X262378648Y24753864D03*
%TD*%
D65*
%TO.C,U601*%
X262223048Y39138864D03*
X262223048Y37868864D03*
X262223048Y36598864D03*
X262223048Y35328864D03*
X267173048Y35328864D03*
X267173048Y36598864D03*
X267173048Y37868864D03*
X267173048Y39138864D03*
%TD*%
D66*
%TO.C,J409*%
X294853648Y5851364D03*
X292313648Y5851364D03*
X289773648Y5851364D03*
%TD*%
D21*
%TO.C,TP603*%
X227806048Y29065464D03*
%TD*%
D29*
%TO.C,U302*%
X82363648Y26733864D03*
X81093648Y26733864D03*
X79823648Y26733864D03*
X78553648Y26733864D03*
X77283648Y26733864D03*
X76013648Y26733864D03*
X74743648Y26733864D03*
X73473648Y26733864D03*
X73473648Y21783864D03*
X74743648Y21783864D03*
X76013648Y21783864D03*
X77283648Y21783864D03*
X78553648Y21783864D03*
X79823648Y21783864D03*
X81093648Y21783864D03*
X82363648Y21783864D03*
%TD*%
D21*
%TO.C,TP302*%
X47158648Y30463864D03*
%TD*%
D67*
%TO.C,C205*%
X167443648Y40508864D03*
X165543648Y40508864D03*
%TD*%
D17*
%TO.C,R727*%
X36556448Y21380864D03*
X38206448Y21380864D03*
%TD*%
D16*
%TO.C,R713*%
X132631148Y2424798D03*
X130981148Y2424798D03*
%TD*%
D66*
%TO.C,J414*%
X25768648Y24108864D03*
X23228648Y24108864D03*
X20688648Y24108864D03*
%TD*%
D15*
%TO.C,FID101*%
X43828648Y29343864D03*
%TD*%
D21*
%TO.C,TP702*%
X273818648Y3423864D03*
%TD*%
D11*
%TO.C,C606*%
X255396048Y41841664D03*
D12*
X252896048Y41841664D03*
%TD*%
D68*
%TO.C,D605*%
X267023048Y41783864D03*
X263023048Y41783864D03*
%TD*%
D35*
%TO.C,R732*%
X266828648Y7158864D03*
X266828648Y5508864D03*
%TD*%
D23*
%TO.C,C611*%
X227003048Y39208864D03*
X227003048Y37308864D03*
%TD*%
D65*
%TO.C,U602*%
X229353048Y39158864D03*
X229353048Y37888864D03*
X229353048Y36618864D03*
X229353048Y35348864D03*
X234303048Y35348864D03*
X234303048Y36618864D03*
X234303048Y37888864D03*
X234303048Y39158864D03*
%TD*%
D69*
%TO.C,U301*%
X69693648Y32383864D03*
X69693648Y33033864D03*
X69693648Y33683864D03*
X69693648Y34333864D03*
X69693648Y34983864D03*
X69693648Y35633864D03*
X69693648Y36283864D03*
X69693648Y36933864D03*
X69693648Y37583864D03*
X69693648Y38233864D03*
X69693648Y38883864D03*
X69693648Y39533864D03*
X69693648Y40183864D03*
X69693648Y40833864D03*
X62493648Y40833864D03*
X62493648Y40183864D03*
X62493648Y39533864D03*
X62493648Y38883864D03*
X62493648Y38233864D03*
X62493648Y37583864D03*
X62493648Y36933864D03*
X62493648Y36283864D03*
X62493648Y35633864D03*
X62493648Y34983864D03*
X62493648Y34333864D03*
X62493648Y33683864D03*
X62493648Y33033864D03*
X62493648Y32383864D03*
%TD*%
D40*
%TO.C,H101*%
X25802698Y11025054D03*
%TD*%
D16*
%TO.C,R719*%
X38206448Y22930864D03*
X36556448Y22930864D03*
%TD*%
%TO.C,R701*%
X132631148Y12149798D03*
X130981148Y12149798D03*
%TD*%
D65*
%TO.C,U703*%
X268878648Y10088864D03*
X268878648Y8818864D03*
X268878648Y7548864D03*
X268878648Y6278864D03*
X273828648Y6278864D03*
X273828648Y7548864D03*
X273828648Y8818864D03*
X273828648Y10088864D03*
%TD*%
D70*
%TO.C,D204*%
X194898648Y2148864D03*
X194898648Y6148864D03*
%TD*%
D71*
%TO.C,U701*%
X147718648Y7973864D03*
X147718648Y7473864D03*
X147718648Y6973864D03*
X147718648Y6473864D03*
X147718648Y5973864D03*
X147718648Y5473864D03*
X147718648Y4973864D03*
X147718648Y4473864D03*
X147718648Y3973864D03*
X147718648Y3473864D03*
X147718648Y2973864D03*
X147718648Y2473864D03*
X153443648Y2473864D03*
X153443648Y2973864D03*
X153443648Y3473864D03*
X153443648Y3973864D03*
X153443648Y4473864D03*
X153443648Y4973864D03*
X153443648Y5473864D03*
X153443648Y5973864D03*
X153443648Y6473864D03*
X153443648Y6973864D03*
X153443648Y7473864D03*
X153443648Y7973864D03*
%TD*%
D72*
%TO.C,J803*%
X228719048Y5248864D03*
X229719048Y5248864D03*
X230719048Y5248864D03*
X231719048Y5248864D03*
D73*
X227419048Y1373864D03*
X233019048Y1373864D03*
%TD*%
D16*
%TO.C,R733*%
X41256448Y22930864D03*
X39606448Y22930864D03*
%TD*%
D17*
%TO.C,R731*%
X39606448Y24480864D03*
X41256448Y24480864D03*
%TD*%
D35*
%TO.C,R811*%
X47348648Y35213864D03*
X47348648Y33563864D03*
%TD*%
D74*
%TO.C,Q201*%
X193803648Y12163864D03*
X193803648Y10263864D03*
X195678648Y11213864D03*
%TD*%
D17*
%TO.C,R815*%
X165893648Y24983864D03*
X167543648Y24983864D03*
%TD*%
D40*
%TO.C,H105*%
X88159698Y3659054D03*
%TD*%
D21*
%TO.C,TP601*%
X261418648Y12383864D03*
%TD*%
%TO.C,TP602*%
X260831648Y29065464D03*
%TD*%
D17*
%TO.C,R102*%
X208318648Y11148864D03*
X209968648Y11148864D03*
%TD*%
D68*
%TO.C,D606*%
X234028048Y41783864D03*
X230028048Y41783864D03*
%TD*%
D35*
%TO.C,R608*%
X260348648Y33788864D03*
X260348648Y32138864D03*
%TD*%
D17*
%TO.C,R504*%
X208318648Y9598864D03*
X209968648Y9598864D03*
%TD*%
D24*
%TO.C,C605*%
X71643648Y25308864D03*
X71643648Y27208864D03*
%TD*%
D21*
%TO.C,TP501*%
X205298648Y14623864D03*
%TD*%
D41*
%TO.C,Q804*%
X47378648Y36933864D03*
X49278648Y36933864D03*
X48328648Y38808864D03*
%TD*%
D38*
%TO.C,J806*%
X44888648Y43273864D03*
D39*
X47428648Y43273864D03*
X49968648Y43273864D03*
X52508648Y43273864D03*
%TD*%
D23*
%TO.C,C304*%
X46518648Y23208864D03*
X46518648Y21308864D03*
%TD*%
D16*
%TO.C,R714*%
X135681148Y2424798D03*
X134031148Y2424798D03*
%TD*%
D11*
%TO.C,C612*%
X255472248Y34450264D03*
D12*
X252972248Y34450264D03*
%TD*%
D16*
%TO.C,R101*%
X202293648Y9698864D03*
X200643648Y9698864D03*
%TD*%
%TO.C,R712*%
X135681148Y4045631D03*
X134031148Y4045631D03*
%TD*%
%TO.C,R702*%
X135681148Y12149798D03*
X134031148Y12149798D03*
%TD*%
D28*
%TO.C,C701*%
X155263648Y7983864D03*
X156813648Y7983864D03*
%TD*%
D17*
%TO.C,R816*%
X43743648Y40643864D03*
X45393648Y40643864D03*
%TD*%
D75*
%TO.C,J407*%
X60394648Y17553464D03*
D76*
X57894648Y17553464D03*
X55394648Y17553464D03*
X52894648Y17553464D03*
X50394648Y17553464D03*
X47894648Y17553464D03*
X45394648Y17553464D03*
X42894648Y17553464D03*
%TD*%
D77*
%TO.C,U201*%
X171093648Y39858864D03*
X171093648Y39008864D03*
X171093648Y38158864D03*
X171093648Y37308864D03*
X171093648Y36458864D03*
X171093648Y35608864D03*
X171093648Y34758864D03*
X171093648Y33908864D03*
X171093648Y33058864D03*
X171093648Y32208864D03*
X171093648Y31358864D03*
X171093648Y30508864D03*
X171093648Y29658864D03*
X171093648Y28808864D03*
X171093648Y27958864D03*
D78*
X172143648Y26908864D03*
X172993648Y26908864D03*
X173843648Y26908864D03*
X174693648Y26908864D03*
X175543648Y26908864D03*
X176393648Y26908864D03*
X177243648Y26908864D03*
X178093648Y26908864D03*
X178943648Y26908864D03*
X179793648Y26908864D03*
X180643648Y26908864D03*
X181493648Y26908864D03*
X182343648Y26908864D03*
X183193648Y26908864D03*
X184043648Y26908864D03*
D77*
X185093648Y27958864D03*
X185093648Y28808864D03*
X185093648Y29658864D03*
X185093648Y30508864D03*
X185093648Y31358864D03*
X185093648Y32208864D03*
X185093648Y33058864D03*
X185093648Y33908864D03*
X185093648Y34758864D03*
X185093648Y35608864D03*
X185093648Y36458864D03*
X185093648Y37308864D03*
X185093648Y38158864D03*
X185093648Y39008864D03*
X185093648Y39858864D03*
D78*
X184043648Y40908864D03*
X183193648Y40908864D03*
X182343648Y40908864D03*
X181493648Y40908864D03*
X180643648Y40908864D03*
X179793648Y40908864D03*
X178943648Y40908864D03*
X178093648Y40908864D03*
X177243648Y40908864D03*
X176393648Y40908864D03*
X175543648Y40908864D03*
X174693648Y40908864D03*
X173843648Y40908864D03*
X172993648Y40908864D03*
X172143648Y40908864D03*
D79*
X176443648Y35558864D03*
D80*
X176443648Y33908864D03*
X176443648Y32258864D03*
X178093648Y35558864D03*
X178093648Y33908864D03*
X178093648Y32258864D03*
X179743648Y35558864D03*
X179743648Y33908864D03*
X179743648Y32258864D03*
D81*
X171093648Y40908864D03*
X171093648Y26908864D03*
X185093648Y26908864D03*
X185093648Y40908864D03*
%TD*%
D15*
%TO.C,FID105*%
X148188648Y12793864D03*
%TD*%
D16*
%TO.C,R817*%
X48448648Y40633864D03*
X46798648Y40633864D03*
%TD*%
D35*
%TO.C,R717*%
X266828648Y10208864D03*
X266828648Y8558864D03*
%TD*%
D24*
%TO.C,C619*%
X232478648Y31793864D03*
X232478648Y33693864D03*
%TD*%
D35*
%TO.C,R802*%
X232058648Y11973864D03*
X232058648Y10323864D03*
%TD*%
D16*
%TO.C,R603*%
X259461798Y12378064D03*
X257811798Y12378064D03*
%TD*%
D43*
%TO.C,D203*%
X191723648Y25663864D03*
X193598648Y25663864D03*
%TD*%
D40*
%TO.C,H108*%
X25802698Y29821054D03*
%TD*%
M02*
