%TF.GenerationSoftware,KiCad,Pcbnew,7.0.10*%
%TF.CreationDate,2024-02-02T23:20:54-05:00*%
%TF.ProjectId,ayab-esp32,61796162-2d65-4737-9033-322e6b696361,rev?*%
%TF.SameCoordinates,PX2be61f8PY9c01778*%
%TF.FileFunction,Profile,NP*%
%FSLAX46Y46*%
G04 Gerber Fmt 4.6, Leading zero omitted, Abs format (unit mm)*
G04 Created by KiCad (PCBNEW 7.0.10) date 2024-02-02 23:20:54*
%MOMM*%
%LPD*%
G01*
G04 APERTURE LIST*
%TA.AperFunction,Profile*%
%ADD10C,0.050000*%
%TD*%
G04 APERTURE END LIST*
D10*
X299414292Y45423008D02*
G75*
G03*
X297414214Y47423008I-2000044J-44D01*
G01*
X153541362Y45520778D02*
G75*
G03*
X151541319Y47520778I-2000014J-14D01*
G01*
X146081495Y23163487D02*
X146081495Y16538487D01*
X203678648Y47423008D02*
X297414214Y47423008D01*
X297414214Y-585802D02*
G75*
G03*
X299414214Y1414214I34J1999966D01*
G01*
X16888838Y47520778D02*
X1414214Y47520778D01*
X16888838Y-585786D02*
X1414214Y-585786D01*
X299414214Y45423008D02*
X299414214Y1414214D01*
X1414214Y47520798D02*
G75*
G03*
X-585786Y45520778I34J-2000034D01*
G01*
X16888838Y47520778D02*
X151541319Y47520778D01*
X201678648Y43904720D02*
X201678648Y45423008D01*
X149881495Y23163487D02*
G75*
G03*
X146081495Y23163487I-1900000J0D01*
G01*
X146081495Y16538487D02*
G75*
G03*
X149881495Y16538487I1900000J0D01*
G01*
X155541319Y41904720D02*
X199678648Y41904720D01*
X153541304Y43904720D02*
G75*
G03*
X155541319Y41904720I2000044J44D01*
G01*
X149881495Y23163487D02*
X149881495Y16538487D01*
X297414214Y-585786D02*
X16888838Y-585786D01*
X153541319Y45520778D02*
X153541319Y43904720D01*
X199678648Y41904764D02*
G75*
G03*
X201678648Y43904720I0J2000000D01*
G01*
X-585702Y1414214D02*
G75*
G03*
X1414214Y-585786I1999950J-50D01*
G01*
X-585786Y45520778D02*
X-585786Y1414214D01*
X203678648Y47422964D02*
G75*
G03*
X201678648Y45423008I0J-2000000D01*
G01*
M02*
